#N canvas 684 24 718 322 10;
#X obj -1 -1 pic 0 Spip.png empty empty 0 0;
#X text 428 54 16';
#X text 428 75 5'1/3;
#X text 428 95 8';
#X text 428 115 4';
#X text 428 135 2'2/3;
#X text 428 156 2';
#X text 428 175 1'3/5;
#X text 428 195 1'1/3;
#X text 428 215 1';
#X text 670 54 16';
#X text 670 74 5'1/3;
#X text 670 94 8';
#X text 670 114 4';
#X text 670 134 2'2/3;
#X text 670 155 2';
#X text 670 174 1'3/5;
#X text 670 194 1'1/3;
#X text 670 214 1';
#X obj 11 54 hsl 128 15 0 100 0 0 \$0-attack-sld-s \$0-attack-sld-r empty -2 -8 0 10 #bc9c38 #000000 #000000 0 1;
#X obj 11 86 hsl 128 15 0 1000 0 0 \$0-decay-sld-s \$0-decay-sld-r empty -2 -8 0 10 #bc9c38 #000000 #000000 0 1;
#X obj 11 150 hsl 128 15 0 1000 0 0 \$0-release-sld-s \$0-release-sld-r empty -2 -8 0 10 #bc9c38 #000000 #000000 0 1;
#X obj 146 54 nbx 5 15 0 100 0 0 \$0-attack-nbx-s \$0-attack-nbx-r empty 0 -8 0 10 #bc9c38 #000000 #000000 0 256;
#X obj 146 86 nbx 5 15 0 1000 0 0 \$0-decay-nbx-s \$0-decay-nbx-r empty 0 -8 0 10 #bc9c38 #000000 #000000 0 256;
#X obj 146 150 nbx 5 15 0 1000 0 0 \$0-release-nbx-s \$0-release-nbx-r empty 0 -8 0 10 #bc9c38 #000000 #000000 0 256;
#X obj 11 118 hsl 128 15 0 100 0 0 \$0-sustain-sld-s \$0-sustain-sld-r empty -2 -8 0 10 #bc9c38 #000000 #000000 0 1;
#X obj 146 118 nbx 5 15 0 100 0 0 \$0-sustain-nbx-s \$0-sustain-nbx-r empty 0 -8 0 10 #bc9c38 #000000 #000000 0 256;
#X obj 9 739 dac~, f 13;
#X obj 145 215 nbx 5 15 0 100 0 0 \$0-overdrive-nbx-s \$0-overdrive-nbx-r empty 0 -8 0 10 #bc9c38 #000000 #000000 0 256;
#X obj 9 247 hsl 128 15 0 15 0 0 \$0-leslie-rate-sld-s \$0-leslie-rate-sld-r empty -2 -8 0 10 #bc9c38 #000000 #000000 0 1;
#X obj 144 247 nbx 5 15 0 15 0 0 \$0-leslie-rate-nbx-s \$0-leslie-rate-nbx-r empty 0 -8 0 10 #bc9c38 #000000 #000000 0 256;
#X obj 9 279 hsl 128 15 0 100 0 0 \$0-volume-sld-s \$0-volume-sld-r empty -2 -8 0 10 #bc9c38 #000000 #000000 0 1;
#X obj 144 279 nbx 5 15 0 100 0 0 \$0-volume-nbx-s \$0-volume-nbx-r empty 0 -8 0 10 #bc9c38 #000000 #000000 0 256;
#X obj 620 588 param.change;
#X obj 236 54 hsl 128 15 0 100 0 0 \$0-harmonic-percussive-1-sld-s \$0-harmonic-percussive-1-sld-r empty -2 -8 0 10 #bc9c38 #000000 #000000 0 1;
#X obj 236 75 hsl 128 15 0 100 0 0 \$0-harmonic-percussive-2-sld-s \$0-harmonic-percussive-2-sld-r empty -2 -8 0 10 #bc9c38 #000000 #000000 0 1;
#X obj 236 95 hsl 128 15 0 100 0 0 \$0-harmonic-percussive-3-sld-s \$0-harmonic-percussive-3-sld-r empty -2 -8 0 10 #bc9c38 #000000 #000000 0 1;
#X obj 236 115 hsl 128 15 0 100 0 0 \$0-harmonic-percussive-4-sld-s \$0-harmonic-percussive-4-sld-r empty -2 -8 0 10 #bc9c38 #000000 #000000 0 1;
#X obj 236 135 hsl 128 15 0 100 0 0 \$0-harmonic-percussive-5-sld-s \$0-harmonic-percussive-5-sld-r empty -2 -8 0 10 #bc9c38 #000000 #000000 0 1;
#X obj 236 155 hsl 128 15 0 100 0 0 \$0-harmonic-percussive-6-sld-s \$0-harmonic-percussive-6-sld-r empty -2 -8 0 10 #bc9c38 #000000 #000000 0 1;
#X obj 236 175 hsl 128 15 0 100 0 0 \$0-harmonic-percussive-7-sld-s \$0-harmonic-percussive-7-sld-r empty -2 -8 0 10 #bc9c38 #000000 #000000 0 1;
#X obj 236 195 hsl 128 15 0 100 0 0 \$0-harmonic-percussive-8-sld-s \$0-harmonic-percussive-8-sld-r empty -2 -8 0 10 #bc9c38 #000000 #000000 0 1;
#X obj 236 215 hsl 128 15 0 100 0 0 \$0-harmonic-percussive-9-sld-s \$0-harmonic-percussive-9-sld-r empty -2 -8 0 10 #b08810 #000000 #000000 0 1;
#X obj 371 54 nbx 5 15 0 100 0 0 \$0-harmonic-percussive-1-nbx-s \$0-harmonic-percussive-1-nbx-r empty -8 0 0 10 #bc9c38 #000000 #bc9c38 0 256;
#X obj 371 75 nbx 5 15 0 100 0 0 \$0-harmonic-percussive-2-nbx-s \$0-harmonic-percussive-2-nbx-r empty 0 -8 0 10 #bc9c38 #000000 #000000 0 256;
#X obj 371 95 nbx 5 15 0 100 0 0 \$0-harmonic-percussive-3-nbx-s \$0-harmonic-percussive-3-nbx-r empty 0 -8 0 10 #bc9c38 #000000 #000000 0 256;
#X obj 371 115 nbx 5 15 0 100 0 0 \$0-harmonic-percussive-4-nbx-s \$0-harmonic-percussive-4-nbx-r empty 0 -8 0 10 #bc9c38 #000000 #000000 0 256;
#X obj 371 135 nbx 5 15 0 100 0 0 \$0-harmonic-percussive-5-nbx-s \$0-harmonic-percussive-5-nbx-r empty 0 -8 0 10 #bc9c38 #000000 #000000 0 256;
#X obj 371 155 nbx 5 15 0 100 0 0 \$0-harmonic-percussive-6-nbx-s \$0-harmonic-percussive-6-nbx-r empty 0 -8 0 10 #bc9c38 #000000 #000000 0 256;
#X obj 371 175 nbx 5 15 0 100 0 0 \$0-harmonic-percussive-7-nbx-s \$0-harmonic-percussive-7-nbx-r empty 0 -8 0 10 #bc9c38 #000000 #000000 0 256;
#X obj 371 195 nbx 5 15 0 100 0 0 \$0-harmonic-percussive-8-nbx-s \$0-harmonic-percussive-8-nbx-r empty 0 -8 0 10 #bc9c38 #000000 #000000 0 256;
#X obj 371 215 nbx 5 15 0 100 0 0 \$0-harmonic-percussive-9-nbx-s \$0-harmonic-percussive-9-nbx-r empty 0 -8 0 10 #bc9c38 #000000 #000000 0 256;
#X obj 478 54 hsl 128 15 0 100 0 0 \$0-harmonic-organ-1-sld-s \$0-harmonic-organ-1-sld-r empty -2 -8 0 10 #bc9c38 #000000 #000000 0 1;
#X obj 478 74 hsl 128 15 0 100 0 0 \$0-harmonic-organ-2-sld-s \$0-harmonic-organ-2-sld-r empty -2 -8 0 10 #bc9c38 #000000 #000000 0 1;
#X obj 478 94 hsl 128 15 0 100 0 0 \$0-harmonic-organ-3-sld-s \$0-harmonic-organ-3-sld-r empty -2 -8 0 10 #bc9c38 #000000 #000000 0 1;
#X obj 478 114 hsl 128 15 0 100 0 0 \$0-harmonic-organ-4-sld-s \$0-harmonic-organ-4-sld-r empty -2 -8 0 10 #bc9c38 #000000 #000000 0 1;
#X obj 478 134 hsl 128 15 0 100 0 0 \$0-harmonic-organ-5-sld-s \$0-harmonic-organ-5-sld-r empty -2 -8 0 10 #bc9c38 #000000 #000000 0 1;
#X obj 478 154 hsl 128 15 0 100 0 0 \$0-harmonic-organ-6-sld-s \$0-harmonic-organ-6-sld-r empty -2 -8 0 10 #bc9c38 #000000 #000000 0 1;
#X obj 478 174 hsl 128 15 0 100 0 0 \$0-harmonic-organ-7-sld-s \$0-harmonic-organ-7-sld-r empty -2 -8 0 10 #bc9c38 #000000 #000000 0 1;
#X obj 478 194 hsl 128 15 0 100 0 0 \$0-harmonic-organ-8-sld-s \$0-harmonic-organ-8-sld-r empty -2 -8 0 10 #bc9c38 #000000 #000000 0 1;
#X obj 478 214 hsl 128 15 0 100 0 0 \$0-harmonic-organ-9-sld-s \$0-harmonic-organ-9-sld-r empty -2 -8 0 10 #bc9c38 #000000 #000000 0 1;
#X obj 614 54 nbx 5 15 0 100 0 0 \$0-harmonic-organ-1-nbx-s \$0-harmonic-organ-1-nbx-r empty 0 -8 0 10 #bc9c38 #000000 #000000 0 256;
#X obj 614 74 nbx 5 15 0 100 0 0 \$0-harmonic-organ-2-nbx-s \$0-harmonic-organ-2-nbx-r empty 0 -8 0 10 #bc9c38 #000000 #000000 0 256;
#X obj 614 94 nbx 5 15 0 100 0 0 \$0-harmonic-organ-3-nbx-s \$0-harmonic-organ-3-nbx-r empty 0 -8 0 10 #bc9c38 #000000 #000000 0 256;
#X obj 614 114 nbx 5 15 0 100 0 0 \$0-harmonic-organ-4-nbx-s \$0-harmonic-organ-4-nbx-r empty 0 -8 0 10 #bc9c38 #000000 #000000 0 256;
#X obj 614 134 nbx 5 15 0 100 0 0 \$0-harmonic-organ-5-nbx-s \$0-harmonic-organ-5-nbx-r empty 0 -8 0 10 #bc9c38 #000000 #000000 0 256;
#X obj 614 154 nbx 5 15 0 100 0 0 \$0-harmonic-organ-6-nbx-s \$0-harmonic-organ-6-nbx-r empty 0 -8 0 10 #bc9c38 #000000 #000000 0 256;
#X obj 614 174 nbx 5 15 0 100 0 0 \$0-harmonic-organ-7-nbx-s \$0-harmonic-organ-7-nbx-r empty 0 -8 0 10 #bc9c38 #000000 #000000 0 256;
#X obj 614 194 nbx 5 15 0 100 0 0 \$0-harmonic-organ-8-nbx-s \$0-harmonic-organ-8-nbx-r empty 0 -8 0 10 #bc9c38 #000000 #000000 0 256;
#X obj 614 214 nbx 5 15 0 100 0 0 \$0-harmonic-organ-9-nbx-s \$0-harmonic-organ-9-nbx-r empty 0 -8 0 10 #bc9c38 #000000 #000000 0 256;
#X obj 10 215 hsl 128 15 0 100 0 0 \$0-overdrive-sld-s \$0-overdrive-sld-r empty -2 -8 0 10 #bc9c38 #000000 #000000 0 1;
#X text 5 199 Overdrive;
#X text 4 230 Leslie LFO rate;
#X text 200 247 Hz;
#X text 200 279 dB;
#X text 4 263 Volume;
#X text 201 54 ms;
#X text 201 86 ms;
#X text 6 70 Decay;
#X text 201 118 %;
#X text 6 102 Sustain;
#X text 201 150 ms;
#X text 6 134 Release;
#X text 201 215 %;
#X obj 9 645 overdrive~;
#X obj 66 624 r \$0-overdrive;
#X obj 9 690 leslie~;
#X obj 48 669 r \$0-leslie-rate;
#X obj 9 714 volume~, f 13;
#X obj 85 692 r \$0-volume;
#X obj 9 352 notein, f 22;
#X obj 9 423 pack f f f, f 11;
#X obj 73 378 / 127;
#X obj 122 387 array define \$0-wf-1 2051;
#X obj 122 408 array define \$0-wf-2 2051;
#X obj 9 595 *~ 0.0631;
#X obj 68 530 r \$0-attack;
#X msg 68 551 all \$1;
#X msg 127 512 all \$1;
#X obj 127 491 r \$0-decay;
#X msg 186 532 all \$1;
#X obj 186 511 r \$0-sustain;
#X msg 246 552 all \$1;
#X obj 246 531 r \$0-release;
#X obj 25 448 r playhead;
#X obj 25 469 route playing;
#X obj 25 510 sel 0;
#X msg 25 531 all 0;
#X obj 581 399 gui.link 17 \$0-harmonic-organ-1;
#X obj 25 490 change;
#X obj 351 597 midi.ctrl.link 1 7 \$0-leslie-rate 8.46667;
#X obj 351 617 midi.ctrl.link 2 6 \$0-overdrive 1.27;
#X obj 351 637 midi.ctrl.link 7 1 \$0-volume 1.27;
#X obj 9 401 poly 12 1, f 11;
#X text 6 22 Envelope;
#X text 5 185 Effects;
#X text 231 22 Harmonics;
#X text 231 35 Percussion;
#X text 471 35 Organ;
#X obj 351 559 gui.link 16 \$0-harmonic-percussive-9;
#X obj 620 629 gui.link 3 \$0-decay;
#X obj 620 609 gui.link 2 \$0-attack;
#X obj 620 709 gui.link 6 \$0-overdrive;
#X obj 620 749 gui.link 1 \$0-volume;
#X obj 620 649 gui.link 4 \$0-sustain;
#X obj 620 669 gui.link 5 \$0-release;
#X obj 620 729 gui.link 7 \$0-leslie-rate;
#X obj 351 399 gui.link 8 \$0-harmonic-percussive-1;
#X obj 351 419 gui.link 9 \$0-harmonic-percussive-2;
#X obj 351 439 gui.link 10 \$0-harmonic-percussive-3;
#X obj 351 459 gui.link 11 \$0-harmonic-percussive-4;
#X obj 351 479 gui.link 12 \$0-harmonic-percussive-5;
#X obj 351 499 gui.link 13 \$0-harmonic-percussive-6;
#X obj 351 519 gui.link 14 \$0-harmonic-percussive-7;
#X obj 351 539 gui.link 15 \$0-harmonic-percussive-8;
#X obj 581 419 gui.link 18 \$0-harmonic-organ-2;
#X obj 581 439 gui.link 19 \$0-harmonic-organ-3;
#X obj 581 459 gui.link 20 \$0-harmonic-organ-4;
#X obj 581 479 gui.link 21 \$0-harmonic-organ-5;
#X obj 581 499 gui.link 22 \$0-harmonic-organ-6;
#X obj 581 519 gui.link 23 \$0-harmonic-organ-7;
#X obj 581 539 gui.link 24 \$0-harmonic-organ-8;
#X obj 581 559 gui.link 25 \$0-harmonic-organ-9;
#X obj 761 296 text define -k \$0-programs;
#A set empty 20 60 80 40 0 0 100 100 100 100 0 0 0 0 0 100 100 100 100 0 0 0 0 0 \; empty 20 60 100 40 0 0 100 100 100 100 0 0 0 100 100 100 100 100 100 0 0 0 100 100 \; empty 10 500 40 40 0 1.2 100 100 100 75 50 37.5 25 0 0 100 100 100 75 50 37.5 25 0 0 \; empty 20 20 100 40 0 0.2 100 62.5 0 0 0 62.5 0 0 0 100 62.5 0 0 0 62.5 0 0 0 \;;
#X obj 760 319 program.manager \$0-programs;
#X obj 351 357 harmonic.fill \$0-wf-1 \$0-harmonic-percussive;
#X obj 351 377 harmonic.fill \$0-wf-2 \$0-harmonic-organ;
#X obj 9 574 clone -s 1 voice~ 12 \$0-wf-1 \$0-wf-2, f 40;
#X obj 233 238 bng 15 250 50 0 empty empty empty 17 7 0 10 #b08810 #000000 #000000;
#X text 252 238 Waveform;
#X obj 475 238 bng 15 250 50 0 empty empty empty 17 7 0 10 #b08810 #000000 #000000;
#X text 494 238 Waveform;
#X obj 233 258 symbol \$0-wf-1;
#X msg 233 279 array \$1;
#X obj 233 300 s camomile;
#X obj 475 258 symbol \$0-wf-1;
#X msg 475 279 array \$1;
#X obj 475 300 s camomile;
#X text 6 38 Attack;
#X connect 84 0 86 0 empty;
#X connect 85 0 84 1 empty;
#X connect 86 0 88 0 empty;
#X connect 86 1 88 1 empty;
#X connect 87 0 86 1 empty;
#X connect 88 0 27 0 empty;
#X connect 88 1 27 1 empty;
#X connect 89 0 88 2 empty;
#X connect 90 0 113 0 empty;
#X connect 90 1 92 0 empty;
#X connect 91 0 147 0 empty;
#X connect 92 0 113 1 empty;
#X connect 95 0 84 0 empty;
#X connect 96 0 97 0 empty;
#X connect 97 0 147 1 empty;
#X connect 98 0 147 2 empty;
#X connect 99 0 98 0 empty;
#X connect 100 0 147 3 empty;
#X connect 101 0 100 0 empty;
#X connect 102 0 147 4 empty;
#X connect 103 0 102 0 empty;
#X connect 104 0 105 0 empty;
#X connect 105 0 109 0 empty;
#X connect 106 0 107 0 empty;
#X connect 107 0 147 0 empty;
#X connect 109 0 106 0 empty;
#X connect 113 0 91 0 empty;
#X connect 113 1 91 1 empty;
#X connect 113 2 91 2 empty;
#X connect 147 0 95 0 empty;
#X connect 148 0 152 0 empty;
#X connect 150 0 155 0 empty;
#X connect 152 0 153 0 empty;
#X connect 153 0 154 0 empty;
#X connect 155 0 156 0 empty;
#X connect 156 0 157 0 empty;
#X coords 0 -1 1 1 721 327 2 -1 -3;
