#N canvas 272 140 445 253 10;
#X obj 11 106 mtof;
#X obj 11 180 *~, f 13;
#X obj 11 86 unpack f f, f 13;
#X obj 11 226 outlet~;
#X obj 101 179 *~, f 13;
#X obj 11 20 inlet;
#X obj 91 20 inlet;
#N canvas 569 347 281 302 ar 0;
#X obj 116 146 pack f f;
#X obj 28 56 t b b;
#X obj 28 181 f 0;
#X obj 28 203 pack f f;
#X obj 28 12 inlet;
#X obj 28 35 sel 0, f 12;
#X obj 28 231 line~;
#X obj 54 146 delay;
#X msg 55 107 stop;
#X obj 97 58 t b f b;
#X obj 28 253 outlet~, f 8;
#X obj 161 102 r \$0-attack;
#X obj 73 181 r \$0-decay;
#X connect 0 0 6 0;
#X connect 1 0 2 0;
#X connect 1 1 8 0;
#X connect 2 0 3 0;
#X connect 3 0 6 0;
#X connect 4 0 5 0;
#X connect 5 0 1 0;
#X connect 5 1 9 0;
#X connect 6 0 10 0;
#X connect 7 0 2 0;
#X connect 8 0 7 0;
#X connect 9 0 7 0;
#X connect 9 1 0 0;
#X connect 9 2 8 0;
#X connect 11 0 0 1;
#X connect 11 0 7 1;
#X connect 12 0 3 1;
#X restore 86 116 pd ar;
#X obj 91 41 s \$0-attack;
#N canvas 562 210 266 396 dsr 0;
#X obj 89 193 pack f f;
#X obj 20 63 t b b;
#X obj 20 228 f 0;
#X obj 20 250 pack f f;
#X msg 47 84 clear;
#X obj 20 19 inlet;
#X obj 20 42 sel 0, f 12;
#X obj 20 288 line~;
#X obj 164 123 / 100;
#X obj 89 147 *, f 13;
#X obj 20 310 outlet~;
#X obj 89 127 pipe, f 9;
#X obj 65 226 r \$0-release;
#X obj 164 102 r \$0-sustain;
#X obj 134 171 r \$0-decay;
#X obj 140 79 r \$0-attack;
#X connect 0 0 7 0;
#X connect 1 0 2 0;
#X connect 1 1 4 0;
#X connect 2 0 3 0;
#X connect 3 0 7 0;
#X connect 4 0 11 0;
#X connect 5 0 6 0;
#X connect 6 0 1 0;
#X connect 6 1 11 0;
#X connect 7 0 10 0;
#X connect 8 0 9 1;
#X connect 9 0 0 0;
#X connect 11 0 9 0;
#X connect 12 0 3 1;
#X connect 13 0 8 0;
#X connect 14 0 0 1;
#X connect 15 0 11 1;
#X restore 176 116 pd dsr;
#X obj 171 20 inlet;
#X obj 171 41 s \$0-decay;
#X obj 241 20 inlet;
#X obj 241 41 s \$0-sustain;
#X obj 321 20 inlet;
#X obj 321 41 s \$0-release;
#X obj 11 158 tabosc4~ \$2;
#X obj 101 157 tabosc4~ \$3;
#X obj 11 41 route 0;
#X msg 105 86 0;
#X obj 11 126 / 2;
#X connect 0 0 20 0;
#X connect 1 0 3 0;
#X connect 2 0 0 0;
#X connect 2 1 7 0;
#X connect 2 1 9 0;
#X connect 4 0 3 0;
#X connect 5 0 18 0;
#X connect 6 0 8 0;
#X connect 7 0 1 1;
#X connect 9 0 4 1;
#X connect 10 0 11 0;
#X connect 12 0 13 0;
#X connect 14 0 15 0;
#X connect 16 0 1 0;
#X connect 17 0 4 0;
#X connect 18 0 19 0;
#X connect 18 1 2 0;
#X connect 19 0 7 0;
#X connect 19 0 9 0;
#X connect 20 0 16 0;
#X connect 20 0 17 0;
