#N canvas 508 186 200 204 10;
#X obj 75 138 *~;
#X obj 90 70 dbtorms;
#X obj 90 92 pack f 20;
#X obj 90 114 line~;
#X obj 75 24 inlet~;
#X obj 75 160 outlet~;
#X obj 25 138 *~;
#X obj 25 24 inlet~;
#X obj 25 160 outlet~;
#X obj 90 48 inlet;
#X connect 0 0 5 0;
#X connect 1 0 2 0;
#X connect 2 0 3 0;
#X connect 3 0 0 1;
#X connect 3 0 6 1;
#X connect 4 0 0 0;
#X connect 6 0 8 0;
#X connect 7 0 6 0;
#X connect 9 0 1 0;
