#N struct 1004-cell float x float y float cellsize float color;
#N struct 1005-point float x0 float y0 float xs float ys float fg float in float gridx float gridy;
#N struct 1024-point float x0 float y0 float size float fg float in float grid;
#N struct 1065-slot float x float y float slotsize float color float width float bordercolor;
#N canvas 453 56 531 462 10;
#N canvas 347 36 974 668 GUI 0;
#X text 40 146 [biplot];
#X text 196 83 [pic] =>;
#X text 557 34 [function] =>;
#X text 799 1158 [display] =>;
#X text 70 476 [slider2d];
#X text 616 1126 <= [gain~];
#X text 656 1187 [gain2~] =>;
#X text 49 906 [graph~];
#X text 54 662 [mix2~];
#X text 164 661 [mix4~];
#X text 446 484 [keyboard];
#X text 829 1094 [note];
#X text 261 907 [spectrograph~];
#X text 750 859 [drumseq];
#X text 777 1056 [button] =>;
#X text 585 622 [range.hsl] =>;
#X text 410 669 [meter~];
#X text 491 669 [meter2~];
#X text 578 669 [meter4~];
#X text 691 669 [meter8~];
#X text 617 972 [setdsp~];
#X text 99 36 [mtx.ctl];
#X text 265 475 [circle];
#X text 757 938 [messbox];
#X text 273 31 [pad] =>;
#X obj 509 79 else/colors;
#X obj 508 113 else/openfile;
#X obj 102 58 else/mtx.ctl;
#X obj 337 15 else/pad 127 127 255 255 255;
#X obj 258 79 else/pic 0 empty empty empty 0 0;
#X obj 648 27 else/function 200 100 empty empty 0 1 220 220 220 50 50 50 0 0 0 0 0 1000 0;
#X obj 74 500 else/slider2d 127 127 0 127 0 127 1 255 255 255 0 0 0 0 0 0 0 0 empty empty;
#X obj 40 169 else/biplot;
#X obj 265 498 else/circle 127 -1 1 -1 1 1 255 255 255 255 255 255 0 0 0 1 0 0 63.5 63.5 empty empty 1;
#X obj 447 509 else/keyboard 17 80 4 3 0 0 empty empty;
#X obj 682 622 else/range.hsl;
#X obj 61 687 else/mix2~;
#X obj 165 687 else/mix4~;
#X obj 419 687 else/meter~;
#X obj 492 687 else/meter2~;
#X obj 575 688 else/meter4~;
#X obj 692 688 else/meter8~;
#X obj 754 880 else/drum.seq;
#X obj 47 930 else/graph~;
#X obj 259 930 else/spectrograph~;
#X obj 623 991 else/setdsp~;
#X obj 762 959 else/messbox 150 50 235 235 235 0 0 0 0 10;
#X obj 854 1054 else/button 20 20 255 255 255 128 128 159 0;
#X obj 832 1109 else/note 51 20 helvetica empty 0 0 0 0 0 255 255 255 0 0 note;
#X obj 881 1156 else/display;
#X obj 732 1112 else/gain2~;
#X obj 587 1113 else/gain~;
#X obj 402 1093 else/out8~;
#X obj 292 1093 else/out4~;
#X obj 175 1091 else/out~;
#X obj 65 1091 else/out1~;
#X obj 498 1310 else/oscope~ 200 100 256 3 128 -1 1 0 0 0 0 30 30 30 190 190 190 160 160 160 0 empty;
#X obj 723 1291 else/multi.vsl;
#X obj 28 1201 else/zbiplot;
#X obj 498 1475 else/bicoeff 450 150 peaking;
#X text 38 1174 [zbiplot];
#X text 537 1282 [oscope~];
#X text 770 1264 [multi.vsl];
#X text 540 1444 [bicoeff];
#X text 798 1201 [numbox~] ->;
#X obj 884 1202 numbox~ 6 10 100 #C0C0C4 #440008 10 0 0 0;
#X obj 615 866 else/knob 50 0 127 0 0 empty empty #dfdfdf #7c7c7c black 0 0 0 0 1 320 0 0;
#X text 561 874 [knob];
#X restore 431 399 pd GUI;
#X obj 399 72 switch~;
#X obj 399 56 r \$0-s;
#X obj 55 43 cnv 30 279 30 empty empty ALL\ OBJECTS\ IN\ THE\ ELSE\ LIBRARY: 12 15 0 14 #e0e0e0 #404040 0;
#X obj 389 54 cnv 40 60 40 empty empty empty 20 12 0 14 #e0e0e0 #404040 0;
#N canvas 475 145 581 295 (subpatch) 0;
#X obj 101 101 cnv 15 92 58 empty empty empty 20 12 0 14 #f9f9f9 #404040 0;
#X obj 33 62 else/meter;
#X obj 104 108 tgl 20 0 \$0-s \$0-s empty 17 7 0 10 #dfdfdf #000000 #000000 0 1;
#X msg 103 171 \; pd dsp \$1;
#X obj 104 138 nbx 3 16 -1e+37 1e+37 0 0 \$0-x \$0-x empty 0 -8 0 14 #fcfcfc #000000 #000000 0 256;
#X obj 157 137 else/note 425 14 Menlo empty 0 255 50 85 1 255 50 85 0 0 CPU;
#X obj 129 110 else/note 425 12 Menlo empty 1 40 35 60 0 255 50 85 0 0 <-- Test;
#X obj 273 101 else/else;
#X msg 272 54 version;
#X obj 276 26 loadbang;
#X obj 251 135 format symbol %d.%d-%d\ %s-%d;
#X msg 253 163 label \$1;
#X obj 253 203 s \$0-version;
#X connect 1 0 4 0;
#X connect 2 0 3 0;
#X connect 7 0 10 0;
#X connect 8 0 7 0;
#X connect 9 0 8 0;
#X connect 10 0 11 0;
#X connect 11 0 12 0;
#X coords 0 -1 1 1 94 60 2 100 100;
#X restore 366 48 pd;
#X obj 100 82 cnv 15 170 28 empty empty Version:\ 1.0-0\ rc-8 8 14 0 14 #e0e0e0 #404040 0;
#N canvas 568 23 241 168 FFT 0;
#X obj 55 52 else/hann~;
#X obj 55 78 else/bin.shift~;
#X restore 154 152 pd FFT;
#N canvas 937 80 294 514 Patch/subpatch_management 0;
#X obj 70 41 else/meter;
#X obj 71 16 else/args;
#X obj 71 93 else/blocksize~;
#X obj 71 119 else/fontsize;
#X obj 71 167 else/canvas.active;
#X obj 71 191 else/canvas.bounds;
#X obj 71 243 else/canvas.vis;
#X obj 71 267 else/canvas.edit;
#X obj 71 292 else/canvas.setname;
#X obj 71 344 else/canvas.zoom;
#X obj 71 367 else/click;
#X obj 71 391 else/properties;
#X obj 71 416 else/dollsym;
#X obj 71 442 else/receiver;
#X obj 71 466 else/loadbanger;
#X obj 181 466 else/lb;
#X obj 71 143 else/retrieve;
#X obj 71 69 else/presets;
#A saved -empty- \; -empty- \; -empty- \; -empty- \; -empty- \; -empty- \; -empty- \; -empty- \; -empty- \; -empty- \; -empty- \; -empty- \; -empty- \; -empty- \; -empty- \; -empty- \; -empty- \; -empty- \; -empty- \; -empty- \; -empty- \; -empty- \; -empty- \; -empty- \; -empty- \; -empty- \; -empty- \; -empty- \; -empty- \; -empty- \; -empty- \; -empty- \; -empty- \; -empty- \; -empty- \; -empty- \; -empty- \; -empty- \; -empty- \; -empty- \; -empty- \; -empty- \; -empty- \; -empty- \; -empty- \; -empty- \; -empty- \; -empty- \; -empty- \; -empty- \; -empty- \; -empty- \; -empty- \; -empty- \; -empty- \; -empty- \; -empty- \; -empty- \; -empty- \; -empty- \; -empty- \; -empty- \; -empty- \; -empty- \;;
#X obj 71 216 else/canvas.file;
#X obj 71 317 else/canvas.name;
#X restore 341 152 pd Patch/subpatch_management;
#N canvas 568 23 219 496 Tuning/scale_tools 0;
#X obj 50 68 else/autotune;
#X obj 50 91 else/autotune2;
#X obj 50 161 else/retune;
#X obj 50 186 else/eqdiv;
#X obj 50 294 else/frac2dec;
#X obj 50 363 else/midi2freq;
#X obj 50 386 else/note2pitch;
#X obj 50 409 else/pitch2note;
#X obj 50 44 else/scales;
#X obj 50 250 else/cents2frac;
#X obj 50 272 else/frac2cents;
#X obj 50 207 else/scale2cents;
#X obj 50 227 else/cents2scale;
#X obj 50 340 else/freq2midi;
#X obj 50 318 else/dec2frac;
#X obj 50 433 else/note2dur;
#X obj 50 114 else/makenote2;
#X obj 50 137 else/scala;
#X restore 203 152 pd Tuning/scale_tools;
#N canvas 445 74 278 601 Message/List_management 0;
#X obj 73 20 else/break;
#X obj 73 45 else/order;
#X obj 73 69 else/group;
#X obj 73 93 else/combine;
#X obj 72 116 else/scramble;
#X obj 73 139 else/buffer;
#X obj 73 163 else/interpolate;
#X obj 73 237 else/morph;
#X obj 73 260 else/sort;
#X obj 73 282 else/iterate;
#X obj 73 307 else/insert;
#X obj 72 332 else/reverse;
#X obj 72 357 else/rotate;
#X obj 72 381 else/sum;
#X obj 72 405 else/slice;
#X obj 72 475 else/stream;
#X obj 73 499 else/merge;
#X obj 73 522 else/unmerge;
#X obj 72 428 else/morph;
#X obj 72 452 else/interpolate;
#X obj 73 546 else/amean;
#X obj 74 567 else/gmean;
#X obj 73 188 else/delete;
#X obj 73 213 else/replace;
#X restore 46 178 pd Message/List_management;
#N canvas 364 74 291 548 MIDI 0;
#X obj 56 59 else/sysrt.in;
#X obj 56 85 else/sysrt.out;
#X obj 56 111 else/ctl.in;
#X obj 56 137 else/ctl.out;
#X obj 56 163 else/touch.in;
#X obj 56 189 else/touch.out;
#X obj 56 215 else/pgm.in;
#X obj 57 241 else/pgm.out;
#X obj 56 267 else/bend.in;
#X obj 56 293 else/bend.out;
#X obj 56 319 else/note.in;
#X obj 56 345 else/note.out;
#X obj 56 419 else/panic;
#X obj 56 445 else/mono;
#X obj 56 471 else/voices;
#X obj 56 497 else/suspedal;
#X obj 56 33 else/midi.learn;
#A saved;
#X obj 56 369 else/midi.clock;
#X obj 56 394 else/noteinfo;
#X restore 28 203 pd MIDI;
#N canvas 591 107 264 441 Math_functions 0;
#X obj 48 24 else/add;
#X obj 48 50 else/add~;
#X obj 48 76 else/median;
#X obj 48 103 else/avg;
#X obj 48 127 else/mov.avg;
#X obj 48 201 else/lcm;
#X obj 48 227 else/gcd;
#X obj 48 253 else/count;
#X obj 48 279 else/ceil;
#X obj 48 304 else/ceil~;
#X obj 48 328 else/factor;
#X obj 48 352 else/floor;
#X obj 48 378 else/floor~;
#X obj 48 451 else/rint;
#X obj 48 477 else/rint~;
#X obj 48 503 else/quantizer;
#X obj 48 529 else/quantizer~;
#X obj 48 558 else/fold;
#X obj 48 584 else/fold~;
#X obj 48 610 else/lastvalue;
#X obj 48 636 else/mag;
#X obj 48 662 else/mag~;
#X obj 48 688 else/sin~;
#X obj 48 714 else/wrap2;
#X obj 48 740 else/wrap2~;
#X obj 48 765 else/op~;
#X obj 48 425 else/trunc~;
#X obj 48 789 else/op;
#X obj 48 401 else/trunc;
#X obj 48 817 else/cmul~;
#X obj 48 151 else/frac.add;
#X obj 48 175 else/frac.mul;
#X restore 134 203 pd Math_functions;
#N canvas 1041 135 193 126 File_Management 0;
#X obj 60 55 else/dir;
#X restore 356 177 pd File_Management;
#N canvas 479 51 344 644 DSP(assorted) 0;
#X obj 53 36 else/downsample~;
#X obj 53 61 else/conv~;
#X obj 53 86 else/chorus~;
#X obj 53 113 else/shaper~;
#X obj 53 141 else/crusher~;
#X obj 53 199 else/drive~;
#X obj 53 229 else/flanger~;
#X obj 53 260 else/freq.shift~;
#X obj 53 288 else/pitch.shift~;
#X obj 53 317 else/ping.pong~;
#X obj 53 344 else/phaser~;
#X obj 53 373 else/rm~;
#X obj 53 403 else/tremolo~;
#X obj 53 431 else/vibrato~;
#X obj 53 458 else/vocoder~ 16;
#X obj 53 486 else/morph~;
#X obj 53 512 else/freeze~;
#X obj 53 539 else/pvoc.freeze~;
#X obj 53 169 else/power~;
#X restore 114 230 pd DSP(assorted);
#N canvas 701 163 238 235 DSP(dynamics) 0;
#X obj 64 48 else/compress~;
#X obj 64 76 else/duck~;
#X obj 65 125 else/noisegate~;
#X obj 65 151 else/norm~;
#X obj 65 100 else/expand~;
#X restore 313 230 pd DSP(dynamics);
#N canvas 983 73 238 235 DSP(reverberation) 0;
#X obj 45 15 else/allpass.rev~;
#X obj 45 41 else/comb.rev~;
#X obj 45 69 else/mono.rev~;
#X obj 45 93 else/stereo.rev~;
#X obj 45 121 else/plate.rev~;
#X obj 45 145 else/giga.rev~;
#X obj 45 172 else/free.rev~;
#X obj 45 198 else/fdn.rev~;
#X restore 19 257 pd DSP(reverberation);
#N canvas 530 48 211 677 DSP(filters) 0;
#X obj 42 21 else/allpass.2nd~;
#X obj 42 47 else/allpass.filt~;
#X obj 42 95 else/comb.filt~;
#X obj 42 144 else/lop.bw~;
#X obj 42 169 else/hip.bw~;
#X obj 42 196 else/biquads~;
#X obj 42 222 else/bandpass~;
#X obj 42 250 else/bandstop~;
#X obj 42 275 else/crossover~;
#X obj 42 301 else/bpbank~;
#X obj 42 327 else/bicoeff2;
#X obj 42 353 else/brickwall~;
#X obj 42 378 else/eq~;
#X obj 42 404 else/highpass~;
#X obj 42 430 else/highshelf~;
#X obj 42 458 else/lowpass~;
#X obj 42 485 else/lowshelf~;
#X obj 42 511 else/mov.avg~;
#X obj 42 537 else/resonbank~;
#X obj 42 563 else/resonbank2~;
#X obj 42 590 else/resonant~;
#X obj 42 617 else/resonant2~;
#X obj 42 644 else/svfilter~;
#X obj 42 118 else/lop2~;
#X obj 42 70 else/bitnormal~;
#X restore 420 230 pd DSP(filters);
#N canvas 709 140 229 403 Buffer/Sampling/Playing/Granulation 0;
#X obj 58 54 else/sample~;
#X obj 58 78 else/player~;
#X obj 58 103 else/tabplayer~;
#X obj 58 127 else/tabwriter~;
#X obj 58 152 else/gran.player~;
#X obj 58 177 else/pvoc.player~;
#X obj 58 203 else/pvoc.live~;
#X obj 58 227 else/grain.live~;
#X obj 58 252 else/grain.sampler~;
#X obj 58 278 else/rec.file~;
#X obj 58 303 else/batch.rec~;
#X obj 58 327 else/batch.write~;
#X obj 58 352 else/play.file~;
#X obj 59 30 else/tabreader~;
#X restore 154 257 pd Buffer/Sampling/Playing/Granulation;
#N canvas 1011 188 230 109 Granular_synth 0;
#X obj 62 47 else/grain.synth~;
#X restore 393 257 pd Granular_synth;
#N canvas 452 259 220 145 Physical_Modelling 0;
#X obj 56 51 else/pluck~;
#X restore 52 285 pd Physical_Modelling;
#N canvas 700 41 378 497 Oscillators 0;
#X obj 74 37 else/cosine~;
#X obj 74 65 else/impulse~;
#X obj 74 92 else/impulse2~;
#X obj 176 92 else/imp2~;
#X obj 176 63 else/imp~;
#X obj 74 119 else/parabolic~;
#X obj 74 147 else/pulse~;
#X obj 74 175 else/saw~;
#X obj 74 204 else/saw2~;
#X obj 74 232 else/oscbank~;
#X obj 74 260 else/oscbank2~;
#X obj 74 288 else/sine~;
#X obj 74 316 else/square~;
#X obj 75 345 else/tri~;
#X obj 75 373 else/vsaw~;
#X obj 75 423 else/pmosc~;
#X obj 75 451 else/wavetable~;
#X obj 189 451 else/wt~;
#X obj 75 537 else/bl.imp~;
#X obj 75 565 else/bl.imp2~;
#X obj 75 593 else/bl.saw~;
#X obj 75 621 else/bl.saw2~;
#X obj 75 654 else/bl.square~;
#X obj 75 683 else/bl.tri~;
#X obj 75 710 else/bl.vsaw~;
#X obj 75 738 else/bl.wavetable~;
#X obj 75 397 else/gaussian~;
#X obj 76 508 else/blip~;
#X obj 76 479 bl.osc~;
#X restore 300 285 pd Oscillators;
#N canvas 871 91 298 420 Noise 0;
#X obj 85 85 else/brown~;
#X obj 85 115 else/crackle~;
#X obj 85 145 else/perlin~;
#X obj 85 178 else/cusp~;
#X obj 85 207 else/fbsine~;
#X obj 85 240 else/fbsine2~;
#X obj 85 269 else/gbman~;
#X obj 85 297 else/gray~;
#X obj 85 326 else/henon~;
#X obj 85 355 else/ikeda~;
#X obj 85 382 else/latoocarfian~;
#X obj 84 410 else/lorenz~;
#X obj 83 440 else/lfnoise~;
#X obj 83 468 else/lincong~;
#X obj 83 496 else/logistic~;
#X obj 82 524 else/quad~;
#X obj 82 552 else/rampnoise~;
#X obj 82 580 else/randpulse~;
#X obj 82 611 else/randpulse2~;
#X obj 82 638 else/standard~;
#X obj 82 668 else/stepnoise~;
#X obj 83 727 else/xmod~;
#X obj 83 754 else/xmod2~;
#X obj 85 59 else/white~;
#X obj 83 697 else/pink~;
#X obj 84 32 else/gendyn~;
#X restore 395 285 pd Noise;
#N canvas 910 76 289 487 Control(Fader/Panning/Routing) 0;
#X obj 86 117 else/balance~;
#X obj 86 145 else/pan2~;
#X obj 86 174 else/pan4~;
#X obj 86 200 else/pan8~, f 14;
#X obj 86 227 else/spread~;
#X obj 86 255 else/rotate~;
#X obj 86 284 else/xfade~;
#X obj 86 314 else/xgate~;
#X obj 86 343 else/xgate2~;
#X obj 85 373 else/xselect~;
#X obj 86 403 else/xselect2~;
#X obj 86 433 else/mtx~;
#X obj 86 68 else/autofade~;
#X obj 86 91 else/autofade2~;
#X obj 85 45 else/fader~;
#X restore 286 314 pd Control(Fader/Panning/Routing);
#N canvas 457 71 333 288 Control(Sequencers) 0;
#X obj 91 39 else/euclid;
#X obj 91 62 else/score;
#X obj 91 84 else/score2;
#X obj 91 108 else/pattern;
#X obj 91 134 else/sequencer;
#X obj 91 159 else/sequencer~;
#X obj 91 184 else/impseq~;
#X obj 92 207 else/rec;
#X obj 92 231 else/rec2 \$0-name;
#X restore 30 343 pd Control(Sequencers);
#N canvas 653 78 261 244 Control(Envelopes) 0;
#X obj 78 40 else/adsr~;
#X obj 78 62 else/asr~;
#X obj 78 86 else/decay~;
#X obj 78 109 else/decay2~;
#X obj 78 133 else/envelope~;
#X obj 78 157 else/envgen~;
#X restore 176 343 pd Control(Envelopes);
#N canvas 522 164 270 363 Control(Ramp/Line_Generators/Smoothening 0;
#X obj 86 28 else/function~;
#X obj 86 76 else/glide~;
#X obj 87 100 else/glide2~;
#X obj 86 53 else/ramp~;
#X obj 87 269 else/lag~;
#X obj 87 295 else/lag2~;
#X obj 87 321 else/susloop~;
#X obj 87 173 else/slew;
#X obj 87 196 else/slew2;
#X obj 87 223 else/slew~;
#X obj 87 246 else/slew2~;
#X obj 87 125 else/glide;
#X obj 87 149 else/glide2;
#X restore 42 372 pd Control(Ramp/Line_Generators/Smoothening;
#N canvas 929 74 253 216 Control(Control_Rate_LFO) 0;
#X obj 86 87 else/lfo;
#X obj 86 109 else/impulse;
#X obj 86 132 else/pulse;
#X obj 86 63 else/pimp;
#X obj 86 39 else/phasor;
#X restore 314 343 pd Control(Control_Rate_LFO);
#N canvas 484 145 283 424 Control(Triggers) 0;
#X obj 61 21 else/above;
#X obj 61 46 else/above~;
#X obj 61 70 else/bangdiv;
#X obj 61 98 else/chance;
#X obj 61 125 else/chance~;
#X obj 61 152 else/dust~;
#X obj 61 179 else/dust2~;
#X obj 61 207 else/gatehold~;
#X obj 61 232 else/gate2imp~;
#X obj 61 258 else/pimp~;
#X obj 61 312 else/pulsecount~;
#X obj 61 336 else/pulsediv~;
#X obj 61 361 else/sh~;
#X obj 61 386 else/schmitt;
#X obj 61 413 else/schmitt~;
#X obj 61 439 else/status;
#X obj 61 469 else/status~;
#X obj 61 499 else/trig.delay~;
#X obj 61 529 else/trig.delay2~;
#X obj 61 559 else/toggleff~;
#X obj 61 589 else/timed.gate~;
#X obj 61 618 else/timed.gate;
#X obj 61 649 else/match~;
#X obj 61 679 else/trig2bang~;
#X obj 61 705 else/trig2bang;
#X obj 61 732 else/trighold~;
#X obj 61 284 else/pimpmul~;
#X restore 36 399 pd Control(Triggers);
#N canvas 744 219 235 261 Control(Triggers/Clocks) 0;
#X obj 67 86 else/tempo;
#X obj 67 109 else/tempo~;
#X obj 67 133 else/metronome;
#X obj 67 62 else/clock;
#X obj 67 39 else/speed;
#X obj 67 183 else/polymetro;
#X obj 67 207 else/polymetro~;
#X obj 67 159 else/metronome~;
#X restore 172 399 pd Control(Triggers/Clocks);
#N canvas 833 176 230 393 Analysis 0;
#X obj 70 22 else/changed~;
#X obj 70 47 else/changed2~;
#X obj 70 73 else/detect~;
#X obj 71 98 else/lastvalue;
#X obj 71 123 else/median~;
#X obj 71 148 else/range;
#X obj 71 199 else/range~;
#X obj 71 224 else/peak~;
#X obj 71 249 else/rms~;
#X obj 71 275 else/mov.rms~;
#X obj 71 301 else/vu~;
#X obj 71 327 else/zerocross~;
#X obj 71 173 else/tap;
#X obj 71 352 else/beat~;
#X restore 350 399 pd Analysis;
#X text 7 428 =====================================================================================, f 85;
#X text 7 122 =====================================================================================, f 85;
#X text 7 11 =====================================================================================, f 85;
#N canvas 879 143 350 528 Control(Random/Stochastic) 0;
#X obj 126 291 else/drunkard;
#X obj 126 317 else/drunkard~;
#X obj 126 343 else/randpulse;
#X obj 126 369 else/randpulse2;
#X obj 126 395 else/stepnoise;
#X obj 126 421 else/rampnoise;
#X obj 126 447 else/lfnoise;
#X obj 126 473 else/markov;
#X obj 127 29 else/rand.f;
#X obj 127 55 else/rand.f~;
#X obj 127 81 else/rand.i;
#X obj 127 107 else/rand.i~;
#X obj 127 136 else/rand.list;
#X obj 126 263 else/brown;
#X obj 126 238 else/rand.hist;
#X obj 128 212 else/histogram;
#A saved;
#X obj 127 163 else/rand.u;
#X obj 127 187 else/rand.dist;
#X restore 313 372 pd Control(Random/Stochastic);
#N canvas 683 140 279 464 Math(conversion) 0;
#X obj 60 17 else/hex2dec;
#X obj 60 43 else/dec2hex;
#X obj 60 69 else/bpm;
#X obj 60 95 else/car2pol;
#X obj 60 121 else/car2pol~;
#X obj 60 147 else/pol2car;
#X obj 60 173 else/pol2car~;
#X obj 60 240 else/cents2ratio;
#X obj 60 265 else/cents2ratio~;
#X obj 60 291 else/ratio2cents;
#X obj 60 317 else/ratio2cents~;
#X obj 60 343 else/ms2samps;
#X obj 60 369 else/ms2samps~;
#X obj 60 395 else/samps2ms;
#X obj 60 421 else/samps2ms~;
#X obj 60 494 else/db2lin;
#X obj 60 520 else/db2lin~;
#X obj 60 546 else/float2bits;
#X obj 60 572 else/hz2rad;
#X obj 60 598 else/rad2hz;
#X obj 60 626 else/lin2db;
#X obj 60 652 else/lin2db~;
#X obj 60 678 else/rescale;
#X obj 60 704 else/rescale~;
#X obj 60 444 else/deg2rad;
#X obj 60 467 else/rad2deg;
#X obj 60 195 else/pz2coeff;
#X obj 60 216 else/coeff2pz;
#X restore 249 203 pd Math(conversion);
#N canvas 1012 129 205 207 Math(constant) 0;
#X obj 72 50 else/sr~;
#X obj 72 76 else/nyquist~;
#X obj 72 102 else/pi;
#X obj 72 128 else/e;
#X restore 375 203 pd Math(constant);
#N canvas 366 184 200 117 Math(logic) 0;
#X obj 63 45 else/loop;
#X restore 17 230 pd Math(logic);
#N canvas 522 26 319 675 Message_management 0;
#X obj 70 71 else/format;
#X obj 70 94 else/unite;
#X obj 70 117 else/separate;
#X obj 70 167 else/any2symbol;
#X obj 70 191 else/symbol2any;
#X obj 70 215 else/changed;
#X obj 70 241 else/hot;
#X obj 70 265 else/limit;
#X obj 70 289 else/initmess;
#X obj 70 335 else/message;
#X obj 70 359 else/pack2;
#X obj 70 384 else/pick;
#X obj 70 410 else/spread;
#X obj 70 433 else/router;
#X obj 70 459 else/routeall;
#X obj 70 484 else/routetype;
#X obj 70 508 else/selector;
#X obj 70 532 else/stack;
#X obj 70 612 else/sig2float~;
#X obj 70 638 else/float2sig~;
#X obj 191 612 else/s2f~;
#X obj 191 638 else/f2s~;
#X obj 70 584 else/pipe2;
#X obj 70 312 else/default;
#X obj 70 45 else/nmess;
#X obj 70 557 else/store;
#A saved;
#X obj 70 21 else/swap2;
#X obj 71 141 else/route2;
#X restore 219 177 pd Message_management;
#N canvas 522 132 214 147 Assorted 0;
#X obj 73 30 else/else;
#X obj 67 58 else/chrono;
#X obj 61 88 else/datetime;
#X restore 15 152 pd Assorted;
#N canvas 835 177 265 205 Table 0;
#X obj 90 61 else/tabgen;
#X obj 90 88 else/tabreader;
#X obj 90 118 else/tabreader~;
#X restore 94 152 pd Table;
#N canvas 403 148 235 240 OSC 0;
#X obj 64 48 else/osc.route;
#X obj 64 80 else/osc.format;
#X obj 64 112 else/osc.parse;
#X obj 64 144 else/osc.send;
#X obj 64 176 else/osc.receive;
#X restore 83 203 pd OSC;
#N canvas 410 296 313 226 Control(Mouse/keyboard_interaction) 0;
#X obj 84 52 else/mouse;
#X obj 85 80 else/canvas.mouse;
#X obj 85 112 else/keycode;
#X obj 85 142 else/keymap;
#X restore 41 314 pd Control(Mouse/keyboard_interaction);
#N canvas 630 244 220 145 Synthesizers 0;
#X obj 73 57 else/sfont~;
#X obj 72 86 else/plaits~;
#X restore 194 285 pd Synthesizers;
#N canvas 162 143 414 227 DSP(delays) 0;
#X obj 101 49 else/del~ in \$0x;
#X obj 212 49 else/del~ out \$0x;
#X obj 101 75 else/fbdelay~;
#X obj 101 101 else/ffdelay~;
#X obj 101 127 else/rdelay~;
#X obj 102 153 else/filterdelay~;
#X restore 219 230 pd DSP(delays);
#X connect 2 0 1 0;
