#N canvas 492 23 604 723 12;
#X declare -path else;
#X obj 447 387 tgl 15 0 empty empty empty 17 7 0 10 #fcfcfc #000000 #000000 0 1;
#X obj 447 414 switch~;
#X obj 209 569 *~;
#X obj 153 33 inlet;
#X obj 209 647 outlet~;
#X obj 275 648 outlet~;
#X obj 239 334 t b f b, f 21;
#X msg 324 417 0 \$1 1;
#N canvas 166 247 842 634 route 0;
#X obj 105 591 s \$0-sizes;
#X obj 114 49 inlet;
#X obj 114 568 outlet;
#X obj 147 527 max 50;
#X obj 232 466 s \$0-pan;
#X obj 275 440 s \$0-amps;
#X obj 317 414 s \$0-set;
#X msg 317 387 set \$1;
#X obj 317 361 symbol;
#X obj 360 330 s \$0-autotune;
#X obj 402 301 s \$0-scale;
#X obj 190 496 s \$0-transp;
#X obj 444 267 s \$0-length;
#X obj 480 235 s \$0-pos;
#X obj 147 554 s \$0-dur;
#X obj 511 203 s \$0-n;
#X obj 576 231 s \$0-mode;
#X obj 677 215 clip 0 100;
#X obj 677 249 s \$0-rev;
#X obj 712 158 s \$0-env;
#X obj 114 100 route bang size dur transp pan amp set autotune scale length pos float sync rev env, f 88;
#X connect 1 0 20 0;
#X connect 3 0 14 0;
#X connect 7 0 6 0;
#X connect 8 0 7 0;
#X connect 17 0 18 0;
#X connect 20 0 2 0;
#X connect 20 1 0 0;
#X connect 20 2 3 0;
#X connect 20 3 11 0;
#X connect 20 4 4 0;
#X connect 20 5 5 0;
#X connect 20 6 8 0;
#X connect 20 7 9 0;
#X connect 20 8 10 0;
#X connect 20 9 12 0;
#X connect 20 10 13 0;
#X connect 20 11 15 0;
#X connect 20 12 16 0;
#X connect 20 13 17 0;
#X connect 20 14 19 0;
#X restore 153 67 pd route;
#N canvas 410 95 337 239 pan 0;
#X obj 133 46 r \$0-pan;
#X obj 200 119 clip -1 1;
#X obj 114 119 clip -1 1;
#X obj 114 159 outlet;
#X obj 200 159 outlet;
#X obj 133 78 unpack f f;
#X connect 0 0 5 0;
#X connect 1 0 4 0;
#X connect 2 0 3 0;
#X connect 5 0 2 0;
#X connect 5 1 1 0;
#X restore 258 444 pd pan;
#N canvas 410 95 337 239 amps 0;
#X obj 200 119 clip -1 1;
#X obj 114 119 clip -1 1;
#X obj 114 159 outlet;
#X obj 200 159 outlet;
#X obj 133 78 unpack f f;
#X obj 133 46 r \$0-amps;
#X connect 0 0 3 0;
#X connect 1 0 2 0;
#X connect 4 0 1 0;
#X connect 4 1 0 0;
#X connect 5 0 4 0;
#X restore 465 473 pd amps;
#N canvas 664 170 392 285 size 0;
#X text 224 79 grain size;
#X obj 141 76 r \$0-sizes;
#X obj 141 100 unpack;
#X obj 205 137 max 0;
#X obj 126 132 max 0;
#X obj 205 161 outlet;
#X obj 125 161 outlet;
#X connect 1 0 2 0;
#X connect 2 0 4 0;
#X connect 2 1 3 0;
#X connect 3 0 5 0;
#X connect 4 0 6 0;
#X restore 281 238 pd size;
#X obj 75 33 inlet~;
#X obj 110 513 delread4~ \$2;
#X obj 335 379 s \$0-ms;
#N canvas 836 46 351 638 transp 0;
#X obj 121 435 *;
#X obj 121 459 t f b;
#X obj 181 428 /;
#X msg 121 382 1 \$1;
#X msg 181 404 1000 \$1;
#X obj 121 406 -;
#X obj 121 521 *~ 0;
#X obj 181 374 r \$0-ms;
#X obj 170 519 r \$0-ms;
#X obj 121 558 outlet~;
#X obj 121 491 phasor~;
#X msg 167 466 0;
#N canvas 410 95 336 186 transp 0;
#X obj 133 126 outlet;
#X obj 200 126 outlet;
#X obj 133 78 unpack f f;
#X obj 133 46 r \$0-transp;
#X connect 2 0 0 0;
#X connect 2 1 1 0;
#X connect 3 0 2 0;
#X restore 148 85 pd transp;
#N canvas 1051 296 364 294 set 0;
#X obj 95 180 outlet;
#X obj 204 185 outlet;
#X msg 95 138 bypass \$1;
#X obj 203 134 r \$0-scale;
#X obj 95 77 r \$0-autotune;
#X obj 95 108 == 0;
#X connect 2 0 0 0;
#X connect 3 0 1 0;
#X connect 4 0 5 0;
#X connect 5 0 2 0;
#X restore 113 145 pd set;
#X obj 92 40 inlet;
#X obj 139 299 chance 0;
#X obj 92 297 t f b;
#X obj 192 272 r \$0-rev;
#X obj 121 354 * 1;
#X msg 139 326 -1;
#X msg 192 325 1;
#X obj 92 114 else/rand.f -1200 1200;
#X obj 92 176 else/autotune2 -bypass, f 9;
#X obj 92 243 else/cents2ratio;
#X connect 0 0 1 0;
#X connect 1 0 10 0;
#X connect 1 1 11 0;
#X connect 2 0 0 1;
#X connect 3 0 5 0;
#X connect 4 0 2 0;
#X connect 5 0 0 0;
#X connect 6 0 9 0;
#X connect 7 0 4 0;
#X connect 8 0 6 1;
#X connect 10 0 6 0;
#X connect 11 0 10 1;
#X connect 12 0 21 1;
#X connect 12 1 21 2;
#X connect 13 0 22 0;
#X connect 13 1 22 1;
#X connect 14 0 21 0;
#X connect 15 0 19 0;
#X connect 15 1 20 0;
#X connect 16 0 18 0;
#X connect 16 1 15 0;
#X connect 17 0 15 1;
#X connect 18 0 3 0;
#X connect 19 0 18 1;
#X connect 20 0 18 1;
#X connect 21 0 22 0;
#X connect 22 0 23 0;
#X connect 23 0 16 0;
#X restore 78 428 pd transp;
#X obj 324 511 *~ 0;
#N canvas 303 313 423 436 pos 0;
#X obj 114 247 +~ 0;
#X obj 115 379 outlet~;
#X obj 116 75 inlet~;
#X obj 188 75 inlet;
#X obj 244 244 r \$0-length;
#X obj 188 275 *;
#X obj 188 207 rand.f 0 1;
#X obj 252 118 r \$0-pos;
#X obj 252 142 unpack;
#X obj 291 171 clip 0 1;
#X obj 221 171 clip 0 1;
#X obj 115 335 else/wrap2~ 0 10000;
#X connect 0 0 11 0;
#X connect 2 0 0 0;
#X connect 3 0 6 0;
#X connect 4 0 5 1;
#X connect 4 0 11 2;
#X connect 5 0 0 1;
#X connect 6 0 5 0;
#X connect 7 0 8 0;
#X connect 8 0 10 0;
#X connect 8 1 9 0;
#X connect 9 0 6 2;
#X connect 10 0 6 1;
#X connect 11 0 1 0;
#X restore 110 473 pd pos;
#X obj 249 71 r \$0-dur;
#X obj 239 125 r \$0-mode;
#N canvas 530 196 397 395 Synchronous 0;
#X obj 126 37 inlet;
#X obj 126 314 outlet;
#X obj 179 124 r \$0-n;
#X obj 158 186 / 16;
#X obj 161 96 r \$0-dur;
#X obj 158 220 * \$1;
#X obj 126 255 delay;
#X obj 207 186 else/initmess 31.25;
#X obj 161 152 else/hot;
#X connect 0 0 6 0;
#X connect 2 0 8 1;
#X connect 3 0 5 0;
#X connect 4 0 8 0;
#X connect 5 0 6 1;
#X connect 6 0 1 0;
#X connect 7 0 5 0;
#X connect 8 0 3 0;
#X connect 8 1 3 1;
#X restore 239 177 pd Synchronous;
#N canvas 612 90 477 370 Asynchronous 0;
#X obj 170 209 pipe;
#X obj 170 241 b;
#X obj 252 134 f \$1;
#X obj 252 158 == 0;
#X obj 252 184 sel 0;
#X obj 252 107 loadbang;
#X obj 186 173 t b b b;
#X obj 217 210 random 500;
#X obj 302 209 r \$0-dur;
#X obj 186 68 inlet;
#X obj 170 293 outlet;
#X connect 0 0 1 0;
#X connect 1 0 10 0;
#X connect 2 0 3 0;
#X connect 3 0 4 0;
#X connect 4 1 7 1;
#X connect 5 0 2 0;
#X connect 6 0 0 0;
#X connect 6 1 7 0;
#X connect 6 2 2 0;
#X connect 7 0 0 1;
#X connect 8 0 7 1;
#X connect 9 0 6 0;
#X restore 223 205 pd Asynchronous;
#X obj 154 96 else/limit 500;
#X obj 239 268 else/rand.f 50 250;
#X obj 239 303 else/limit;
#X obj 399 509 else/rand.f 0.1 1;
#X obj 239 467 else/rand.f;
#X obj 324 444 else/envgen~;
#X obj 209 606 else/pan2~;
#X obj 172 150 else/router;
#N canvas 454 413 730 333 env 0;
#X obj 146 32 inlet~;
#X obj 146 286 outlet~;
#N canvas 310 169 450 300 function~ 0;
#X obj 318 149 switch~;
#X obj 94 35 inlet~;
#X obj 94 192 outlet~;
#X obj 318 86 r \$0-type;
#X obj 94 117 else/function~ 0 0.5 1 0.5 0;
#X obj 128 82 r \$0-function;
#X obj 318 118 == 4;
#X connect 1 0 4 0;
#X connect 3 0 6 0;
#X connect 4 0 2 0;
#X connect 5 0 4 0;
#X connect 6 0 0 0;
#X restore 215 147 pd function~;
#X obj 390 103 r \$0-env;
#X msg 390 188 0;
#X msg 430 188 1;
#X obj 430 231 s \$0-type;
#X obj 353 73 loadbang;
#N canvas 209 228 632 353 gauss 0;
#X obj 421 217 switch~;
#X obj 92 51 inlet~;
#X obj 92 298 outlet~;
#X obj 422 125 r \$0-type;
#X obj 421 180 == 3;
#X obj 93 159 *~ 1;
#X floatatom 137 157 11 1 100 0 - - - 0;
#X obj 93 186 +~ 0;
#X obj 137 186 expr (1 - $f1) / 2;
#X text 220 157 sigma;
#X obj 137 88 r \$0-sigma;
#X obj 242 92 else/initmess 0.25;
#X obj 92 225 else/tabreader~ \$3-gauss;
#X obj 137 127 else/rescale -in 0 1 0.5 70 4;
#X connect 1 0 5 0;
#X connect 3 0 4 0;
#X connect 4 0 0 0;
#X connect 5 0 7 0;
#X connect 6 0 5 1;
#X connect 6 0 8 0;
#X connect 7 0 12 0;
#X connect 8 0 7 1;
#X connect 10 0 13 0;
#X connect 11 0 13 0;
#X connect 12 0 2 0;
#X connect 13 0 6 0;
#X restore 146 147 pd gauss;
#X msg 470 188 2;
#X msg 510 188 3;
#N canvas 213 366 576 346 tables 0;
#X obj 260 170 switch~;
#X obj 92 37 inlet~;
#X obj 92 194 outlet~;
#X obj 261 78 r \$0-type;
#X obj 260 133 < 3;
#X obj 341 135 sel 0 1 2;
#X obj 128 85 r \$0-set-env;
#X msg 353 268 set \$1;
#X obj 351 298 s \$0-set-env;
#X obj 343 169 symbol \$3-sin;
#X obj 359 195 symbol \$3-hann;
#X obj 372 222 symbol \$3-tri;
#X obj 92 121 else/tabreader~;
#X connect 1 0 12 0;
#X connect 3 0 4 0;
#X connect 3 0 5 0;
#X connect 4 0 0 0;
#X connect 5 0 9 0;
#X connect 5 1 10 0;
#X connect 5 2 11 0;
#X connect 6 0 12 0;
#X connect 7 0 8 0;
#X connect 9 0 7 0;
#X connect 10 0 7 0;
#X connect 11 0 7 0;
#X connect 12 0 2 0;
#X restore 73 147 pd tables;
#X obj 550 243 s \$0-function;
#X obj 390 137 route sin hann tri gauss list;
#X obj 570 205 s \$0-sigma;
#X msg 564 168 4;
#X connect 0 0 11 0;
#X connect 0 0 2 0;
#X connect 0 0 8 0;
#X connect 2 0 1 0;
#X connect 3 0 13 0;
#X connect 4 0 6 0;
#X connect 5 0 6 0;
#X connect 7 0 4 0;
#X connect 8 0 1 0;
#X connect 9 0 6 0;
#X connect 10 0 6 0;
#X connect 11 0 1 0;
#X connect 13 0 4 0;
#X connect 13 1 5 0;
#X connect 13 2 9 0;
#X connect 13 3 10 0;
#X connect 13 3 14 0;
#X connect 13 4 15 0;
#X connect 13 4 12 0;
#X connect 15 0 6 0;
#X restore 324 479 pd env;
#X obj 381 81 declare -path else;
#X connect 0 0 1 0;
#X connect 2 0 28 0;
#X connect 3 0 8 0;
#X connect 6 0 17 1;
#X connect 6 0 15 0;
#X connect 6 0 26 0;
#X connect 6 1 7 0;
#X connect 6 1 14 0;
#X connect 6 1 24 1;
#X connect 6 2 25 0;
#X connect 7 0 27 0;
#X connect 8 0 22 0;
#X connect 9 0 26 1;
#X connect 9 1 26 2;
#X connect 10 0 25 1;
#X connect 10 1 25 2;
#X connect 11 0 23 1;
#X connect 11 1 23 2;
#X connect 13 0 2 0;
#X connect 15 0 17 0;
#X connect 16 0 2 1;
#X connect 17 0 13 0;
#X connect 18 0 22 1;
#X connect 19 0 29 1;
#X connect 20 0 23 0;
#X connect 21 0 23 0;
#X connect 22 0 29 0;
#X connect 23 0 24 0;
#X connect 24 0 6 0;
#X connect 25 0 16 1;
#X connect 26 0 28 1;
#X connect 27 0 30 0;
#X connect 27 1 0 0;
#X connect 28 0 4 0;
#X connect 28 1 5 0;
#X connect 29 0 21 0;
#X connect 29 1 20 0;
#X connect 30 0 16 0;
