#N canvas 585 79 422 258 10;
#X floatatom 114 97 5 0 0 0 - - - 0;
#X obj 114 123 else/sine~;
#X obj 114 66 inlet;
#X obj 114 164 outlet~;
#X text 217 114 used in the help file of [multi.vsl], f 20;
#X connect 0 0 1 0;
#X connect 1 0 3 0;
#X connect 2 0 0 0;
#X coords 0 258 1 257 200 140 0;
