#N canvas 284 37 951 655 12;
#X obj 212 408 bng 15 250 50 0 empty empty empty 0 -6 0 8 #fcfcfc #000000 #000000;
#X text 203 385 [bng];
#X obj 73 254 vsl 15 80 0 127 0 0 empty empty empty 0 -8 0 8 #fcfcfc #000000 #000000 0 1;
#X text 48 213 [vslider];
#X obj 164 239 hsl 128 15 0 127 0 0 empty empty empty -2 -6 0 8 #fcfcfc #000000 #000000 0 1;
#X obj 69 438 tgl 15 0 empty empty empty 0 -6 0 8 #fcfcfc #000000 #000000 0 1;
#X obj 76 526 nbx 5 14 -1e+37 1e+37 0 0 empty empty empty 0 -8 0 10 #fcfcfc #000000 #000000 0 256;
#X text 85 502 [nbx];
#X obj 164 326 hradio 15 1 0 8 empty empty empty 0 -6 0 10 #fcfcfc #000000 #000000 0;
#X obj 337 236 vradio 15 1 0 8 empty empty empty 0 -6 0 10 #fcfcfc #000000 #000000 0;
#X text 188 302 [hradio];
#X text 320 212 [vradio];
#X obj 325 437 vu 15 120 empty empty -1 -8 0 10 #404040 #000000 1 0;
#X text 321 414 [vu];
#X obj 184 516 cnv 15 100 60 empty empty empty 20 12 0 14 #e0e0e0 #404040 0;
#X text 59 389 [toggle];
#X text 31 169 iemguis from the PUT Menu and their object names:;
#X text 50 231 or [vsl];
#X text 168 218 [hslider] or [hsl];
#X obj 73 350 print vsl;
#X obj 161 263 print hsl;
#X obj 164 351 print hradio;
#X obj 69 461 print tgl;
#X obj 76 550 print nbx;
#X text 59 411 or [tgl];
#X obj 212 434 print bng;
#X obj 337 367 print vradio;
#X obj 622 238 tgl 15 0 empty empty empty 17 7 0 10 #dcdcdc #000000 #000000 0 10;
#X obj 622 268 nbx 5 16 -1e+37 1e+37 0 0 empty empty empty 0 -8 0 12 #000000 #fcfcfc #000000 0 256;
#X obj 622 206 bng 15 250 50 1 empty empty init 0 -6 0 12 #f8c0b4 #000000 #9c3c1c;
#X floatatom 574 194 1 0 0 0 - - - 0;
#X obj 737 244 hsl 128 15 1.27 127 1 0 empty empty logarhithmic 4 -12 0 14 #dcdcdc #000000 #c82820 0 1;
#X obj 734 268 nbx 5 16 -1e+37 1e+37 0 0 empty empty empty 0 -8 0 12 #000000 #fcfcfc #000000 0 256;
#X msg 734 195 -100;
#X obj 568 410 cnv 15 290 200 empty empty empty 20 12 0 14 #604048 #404040 0;
#X obj 592 440 hsl 230 40 0 127 0 0 empty empty empty -2 -6 0 8 #dcdcdc #000000 #000000 0 1;
#X obj 739 499 hradio 30 1 0 3 empty empty empty 0 -6 0 10 #bcd8d0 #000000 #000000 0;
#X obj 589 552 nbx 7 30 -1e+37 1e+37 0 0 empty empty empty 0 -8 0 18 #000854 #fcfcfc #000000 0 256;
#X obj 739 552 nbx 4 30 -1e+37 1e+37 0 0 empty empty empty 0 -8 0 18 #00087c #fcfcfc #000000 0 256;
#X text 186 474 [my_canvas];
#X text 207 493 or [cnv];
#X obj 507 280 tgl 15 0 empty empty empty 17 7 0 10 #dcdcdc #000000 #000000 0 1;
#X obj 507 249 loadbang;
#X text 476 316 A canvas GUI ([my_canvas] or [cnv]) is useful for colorful backgrounds (see below). But note that the order it is created defines the layers \, so you need to create or recreate what you want to put in front of it. The [vu] is to be used with an object that reports rms and peak amplitude values., f 61;
#X text 774 195 outside range;
#X text 438 193 number atom box => with 1 digit width, f 19;
#X text 17 591 The sliders and radio buttons are actually unified objects since Pd 0.53 and you can set their orientation via the 'orientation' message., f 69;
#X text 29 13 Besides atom number boxes \, Pd has more built-in graphical user interfaces (or “GUIs”) \, useful to develop interfaces. These are the second group of elements in the Put Menu and are also referred to as "iemguis" as they were originally externals developed at IEM (Institute for Electronic Music) in Graz. You can also create them from object boxes (unlike messages \, number/symbol atom boxes and comments). These GUIs have more properties settings like color and size. Right click for properties and also check their help files., f 57;
#X text 457 12 Sliders and number boxes can behave logarithmically. A toggle can have a different value for an "on" state and its state changes when it receives a bang. Note that an atom number box with a width of only 1 digit behaves like a toggle. Incoming values are passed through even though they're outside the range. All of the iemguis objects but [cnv] and [vu] have a special "init" property \, in which it outputs the last saved value when the patch is loaded. For the bang GUI ([bng]) \, "init" sends a bang at initialization - which \, by the way \, is the same as using a [loadbang] object (as it sends a bang when the patch is loaded)., f 61;
#X connect 0 0 25 0;
#X connect 2 0 19 0;
#X connect 4 0 20 0;
#X connect 5 0 22 0;
#X connect 6 0 23 0;
#X connect 8 0 21 0;
#X connect 9 0 26 0;
#X connect 27 0 28 0;
#X connect 29 0 27 0;
#X connect 31 0 32 0;
#X connect 33 0 31 0;
#X connect 35 0 37 0;
#X connect 36 0 38 0;
#X connect 42 0 41 0;
