#N canvas 371 23 967 672 12;
#X declare -path else;
#X obj 576 202 nbx 5 14 -1e+37 1e+37 0 0 empty empty empty 0 -8 0 10
#dcdcdc #000000 #000000 0 256;
#X obj 576 148 bng 15 250 50 0 empty empty empty 17 7 0 10 #dcdcdc
#000000 #000000;
#X obj 621 278 *~;
#X obj 576 242 bl.saw~;
#X obj 639 253 decay2~ 50 2000;
#X obj 576 174 sequencer 150 100 80 120 60 150 100 70 100;
#X obj 639 230 b;
#X obj 525 542 *~;
#X obj 469 506 bl.saw~;
#X obj 543 505 decay2~ 50 2000;
#X obj 576 117 tempo 120 100 -on;
#X obj 525 576 out~;
#X obj 621 304 out~;
#X msg 623 148 set 50 170 90 140;
#X text 753 148 <= set a new sequence;
#X text 708 117 <= irregular tempo;
#X obj 130 263 count 15;
#X obj 319 19 declare -path else;
#X obj 268 244 text define -k \$0-seq;
#A set 42 40 40 45 40 49 52 52 45 43 43 47 50 54 55 55 \; 50 . 50 55
. 59 62 . 62 55 . 53 . 52 48 49;
#X obj 130 371 text get \$0-seq;
#X obj 130 316 t b f;
#X obj 130 214 tempo 160 -on;
#X obj 130 240 bng 15 250 50 0 empty empty empty 17 7 0 10 #fcfcfc
#000000 #000000;
#X floatatom 130 426 4 0 0 0 - - - 0;
#X obj 130 450 mtof;
#X obj 235 541 *~;
#X obj 235 572 out~;
#X obj 253 506 decay2~ 50 500;
#X obj 130 344 f;
#X obj 191 318 hradio 15 1 0 2 empty empty empty 0 -8 0 10 #dcdcdc
#000000 #000000 0;
#X floatatom 191 338 3 0 0 0 - - - 0;
#X obj 130 506 bl.square~;
#X obj 130 475 trigger float bang;
#X text 226 316 <= select sequence, f 9;
#X obj 130 399 route float;
#X floatatom 130 290 3 0 0 0 - - - 0;
#X text 312 223 click to open:;
#X text 246 369 <= get sequence values.;
#X text 521 28 The [sequencer] object from ELSE is an abstraction based
on [text]. It has a special syntax that "-" is treated as a pause and
can join different elements to be sent at once (like chords). Check
its help file for more information!, f 58;
#X obj 469 441 sequencer~ 150 100 80 120 60 150 100 70 100;
#X text 32 55 Now we're using a [text] object to store the values instead
of an array. Not we can also use [text] as a sequencer as we'll see
in the next examples. Below we have it storing an usual sequence from
previous examples as its first list. And the thing about [text] is
that it can store several lists and it doesn't need to be only floats
\, but symbols as well., f 62;
#X text 32 145 We have a second sequence with "." symbols that are
filtered out in [route float]. In practice \, these are used as rests!
, f 62;
#X obj 543 401 tempo~ -on 120 100;
#X text 681 485 ELSE also provides the signal rate versions [tempo~]
and [sequencer~]. The [sequencer~] object is simpler and can only take
floats. It is triggered by impulses \, which is given by [tempo~].
Check their help file of both for more information., f 31;
#X obj 469 475 numbox~ 6 12 100 #C0C0C4 #440008 10 0 0 0;
#X connect 0 0 3 0;
#X connect 0 0 6 0;
#X connect 1 0 5 0;
#X connect 2 0 12 0;
#X connect 3 0 2 0;
#X connect 4 0 2 1;
#X connect 5 0 0 0;
#X connect 6 0 4 0;
#X connect 7 0 11 0;
#X connect 8 0 7 0;
#X connect 9 0 7 1;
#X connect 10 0 1 0;
#X connect 13 0 5 0;
#X connect 16 0 35 0;
#X connect 19 0 34 0;
#X connect 20 0 28 0;
#X connect 20 1 19 1;
#X connect 21 0 22 0;
#X connect 22 0 16 0;
#X connect 23 0 24 0;
#X connect 24 0 32 0;
#X connect 25 0 26 0;
#X connect 27 0 25 1;
#X connect 28 0 19 0;
#X connect 29 0 30 0;
#X connect 30 0 28 1;
#X connect 31 0 25 0;
#X connect 32 0 31 0;
#X connect 32 1 27 0;
#X connect 34 0 23 0;
#X connect 35 0 20 0;
#X connect 39 0 44 0;
#X connect 42 0 9 0;
#X connect 42 0 39 0;
#X connect 44 0 8 0;
