#N canvas 357 27 518 339 12;
#X declare -path else;
#X obj 102 182 f;
#X obj 68 182 +;
#X obj 68 25 inlet;
#X obj 68 287 outlet;
#X obj 68 121 t f b;
#X obj 163 182 + 1;
#X obj 133 182 f;
#X obj 68 229 /;
#X obj 163 289 outlet;
#X obj 68 81 route float clear;
#X msg 126 121 0;
#X text 237 179 Part of ELSE \; https://github.com/porres/pd-else;
#X text 239 160 Alexandre Torres Porres (2019);
#X obj 276 86 declare -path else;
#X connect 0 0 1 1;
#X connect 1 0 0 0;
#X connect 1 0 7 0;
#X connect 2 0 9 0;
#X connect 4 0 1 0;
#X connect 4 1 6 0;
#X connect 5 0 6 1;
#X connect 5 0 7 1;
#X connect 5 0 8 0;
#X connect 6 0 5 0;
#X connect 7 0 3 0;
#X connect 9 0 4 0;
#X connect 9 1 10 0;
#X connect 10 0 6 1;
#X connect 10 0 1 1;
