#N canvas 788 56 480 274 12;
#X declare -path else;
#X obj 56 165 *;
#X obj 56 218 outlet;
#X obj 56 17 inlet;
#X text 205 127 Part of ELSE \; https://github.com/porres/pd-else;
#X text 207 108 Alexandre Torres Porres (2021);
#X obj 103 165 / 180;
#X obj 103 135 pi;
#X obj 56 61 f;
#N canvas 721 198 319 329 init 0;
#X obj 154 174 route bang;
#X obj 154 249 outlet;
#X obj 100 249 outlet;
#X obj 100 72 loadbang;
#X msg 154 212 1;
#X obj 100 146 route float -pos;
#X obj 100 113 args -;
#X connect 0 0 4 0;
#X connect 0 1 5 0;
#X connect 0 1 4 0;
#X connect 3 0 6 0;
#X connect 4 0 1 0;
#X connect 5 0 2 0;
#X connect 5 1 0 0;
#X connect 6 0 5 0;
#X restore 95 58 pd init;
#N canvas 719 407 450 300 gate 0;
#X obj 304 135 wrap2 0 360;
#X obj 88 84 router;
#X obj 161 135 wrap2 0 360;
#X obj 88 176 wrap2 -360 0;
#X obj 88 135 moses;
#X obj 162 52 inlet;
#X obj 88 51 inlet;
#X obj 161 230 outlet;
#X connect 0 0 7 0;
#X connect 1 0 4 0;
#X connect 1 1 0 0;
#X connect 2 0 7 0;
#X connect 3 0 7 0;
#X connect 4 0 3 0;
#X connect 4 1 2 0;
#X connect 5 0 1 1;
#X connect 6 0 1 0;
#X restore 56 98 pd gate;
#X obj 231 71 declare -path else;
#X connect 0 0 1 0;
#X connect 2 0 7 0;
#X connect 5 0 0 1;
#X connect 6 0 5 0;
#X connect 7 0 9 0;
#X connect 8 0 7 1;
#X connect 8 1 9 1;
#X connect 9 0 0 0;
