#N canvas 313 110 632 547 12;
#X declare -path else;
#X obj 103 195 unpack;
#X obj 103 257 *;
#X obj 142 255 *;
#X obj 164 319 gcd;
#X obj 104 356 > 1;
#X obj 30 383 router;
#X obj 104 409 op /;
#X msg 104 438 symbol \$1/\$2;
#X obj 104 474 outlet;
#X obj 103 288 pack;
#X obj 103 319 t l l;
#X obj 272 152 separate /;
#X obj 102 157 separate /;
#X obj 244 34 inlet;
#X obj 102 34 inlet;
#X obj 102 111 unmerge;
#X obj 244 93 sel 0;
#X msg 244 120 0 0;
#X obj 244 67 route float;
#X obj 244 184 unpack;
#X text 323 268 Part of ELSE \; https://github.com/porres/pd-else;
#X text 335 249 Alexandre Torres Porres (2022);
#X obj 369 110 declare -path else;
#X connect 0 0 1 0;
#X connect 0 1 2 0;
#X connect 1 0 9 0;
#X connect 2 0 9 1;
#X connect 3 0 4 0;
#X connect 3 0 6 1;
#X connect 4 0 5 1;
#X connect 5 0 7 0;
#X connect 5 1 6 0;
#X connect 6 0 7 0;
#X connect 7 0 8 0;
#X connect 9 0 10 0;
#X connect 10 0 5 0;
#X connect 10 1 3 0;
#X connect 11 0 19 0;
#X connect 12 0 0 0;
#X connect 13 0 18 0;
#X connect 14 0 15 0;
#X connect 15 0 12 0;
#X connect 15 1 11 0;
#X connect 16 0 17 0;
#X connect 17 0 19 0;
#X connect 18 0 16 0;
#X connect 18 1 11 0;
#X connect 19 0 1 1;
#X connect 19 1 2 1;
