#N canvas 487 115 619 353 12;
#X declare -path else;
#X obj 96 84 abs~;
#X obj 96 161 fexpr~ if($x > $y \, $x \, $y);
#X obj 96 42 inlet~;
#X obj 96 291 outlet~;
#X obj 204 42 inlet;
#X obj 204 102 route bang;
#X text 333 156 Part of ELSE \; https://github.com/porres/pd-else;
#X text 335 137 Alexandre Torres Porres (2019);
#X obj 176 291 outlet;
#X msg 204 127 set -100;
#X obj 96 110 lin2db~;
#X obj 176 254 trig2bang~;
#X obj 176 227 above~;
#X obj 375 93 declare -path else;
#X connect 0 0 10 0;
#X connect 1 0 3 0;
#X connect 2 0 0 0;
#X connect 4 0 5 0;
#X connect 5 0 9 0;
#X connect 9 0 1 0;
#X connect 10 0 1 0;
#X connect 10 0 12 0;
#X connect 11 0 8 0;
#X connect 12 0 11 0;
