#N canvas 682 173 483 379 10;
#X declare -path else;
#X obj 93 287 /~;
#X obj 93 49 inlet~;
#X obj 93 327 outlet~;
#X obj 235 49 inlet;
#X obj 108 258 /~ 0;
#X text 189 279 Part of ELSE \; https://github.com/porres/pd-else;
#X text 191 260 Alexandre Torres Porres (2018);
#X obj 165 155 r \$0-size;
#X msg 122 190 size \$1;
#X msg 257 186 0;
#X obj 257 161 route bang float -size;
#X floatatom 300 187 5 0 0 0 - - - 0;
#X obj 108 219 mov.rms~ 1024;
#X obj 235 226 db2lin;
#X obj 257 105 lb;
#X obj 343 188 list split 1;
#X obj 343 231 s \$0-size;
#X obj 377 209 route bang;
#X obj 333 82 declare -path else;
#X obj 257 128 args -;
#X connect 0 0 2 0;
#X connect 1 0 0 0;
#X connect 1 0 12 0;
#X connect 3 0 13 0;
#X connect 4 0 0 1;
#X connect 7 0 8 0;
#X connect 7 0 12 1;
#X connect 8 0 12 0;
#X connect 9 0 13 0;
#X connect 10 0 9 0;
#X connect 10 1 11 0;
#X connect 10 2 15 0;
#X connect 11 0 13 0;
#X connect 12 0 4 0;
#X connect 13 0 4 1;
#X connect 14 0 19 0;
#X connect 15 0 16 0;
#X connect 15 1 17 0;
#X connect 17 1 10 0;
#X connect 19 0 10 0;
