#N canvas 569 112 345 345 10;
#X declare -path else;
#X obj 75 66 r \$0-freq;
#X obj 75 93 inlet~ fwd;
#N canvas 425 187 640 360 route/init 0;
#X obj 285 296 outlet;
#X obj 144 37 inlet;
#X obj 45 144 order;
#X obj 126 145 order;
#X obj 205 146 order;
#X obj 285 146 order;
#X obj 205 208 insert 1 amp;
#X obj 285 178 insert 1 ramp;
#N canvas 378 116 876 598 init 0;
#X obj 613 230 sel 0;
#X msg 574 261 10;
#X obj 574 206 moses 0;
#X obj 574 183 route float;
#X obj 205 119 trigger anything bang;
#X obj 148 90 route bang;
#X obj 205 145 break -;
#X obj 278 248 insert amp;
#X obj 315 222 insert ramp;
#X obj 148 67 args;
#X msg 363 111 all ramp 10 \, all amp 1;
#X obj 184 496 s \$0-patch;
#X obj 82 354 stack;
#X msg 82 326 dump;
#X obj 82 562 outlet;
#X msg 640 292 all ramp \$1;
#X obj 184 375 v n_\$0;
#X obj 497 283 v n_\$0;
#X obj 82 37 loadbanger 4;
#X obj 184 398 max 1;
#X obj 338 199 list length;
#X obj 127 453 s \$0-n;
#X obj 205 303 insert ratio;
#X obj 241 277 insert phase;
#X obj 269 496 canvas.setname \$0-patch 2;
#X msg 184 441 obj 75 175 clone -x oscclone \$1 \$1 \, connect
1 0 5 0 \, connect 2 0 5 0 \, connect 5 0 3 0, f 40;
#X obj 205 170 route -ratio -phase -amp -ramp -rampall -freq;
#X obj 566 423 s \$0-freq;
#X obj 472 358 list split 1;
#X obj 472 438 route bang;
#X obj 529 464 s \$0-reroute;
#X obj 371 144 r \$0-reroute;
#X obj 497 135 unpack f f f;
#X obj 682 141 list split 1;
#X obj 713 236 route bang;
#X obj 770 262 s \$0-reroute;
#X obj 472 388 swap2;
#X obj 682 169 swap2;
#X connect 0 0 1 0;
#X connect 0 1 15 0;
#X connect 1 0 15 0;
#X connect 2 0 1 0;
#X connect 2 1 0 0;
#X connect 3 0 2 0;
#X connect 4 0 6 0;
#X connect 5 1 4 0;
#X connect 6 0 26 0;
#X connect 7 0 12 1;
#X connect 8 0 12 1;
#X connect 9 0 5 0;
#X connect 10 0 12 1;
#X connect 12 0 14 0;
#X connect 13 0 12 0;
#X connect 15 0 12 1;
#X connect 16 0 19 0;
#X connect 18 0 13 0;
#X connect 18 1 16 0;
#X connect 18 2 9 0;
#X connect 18 3 10 0;
#X connect 19 0 25 0;
#X connect 19 0 21 0;
#X connect 20 0 17 0;
#X connect 22 0 12 1;
#X connect 23 0 12 1;
#X connect 25 0 11 0;
#X connect 26 0 20 0;
#X connect 26 0 22 0;
#X connect 26 1 20 0;
#X connect 26 1 23 0;
#X connect 26 2 7 0;
#X connect 26 2 20 0;
#X connect 26 3 8 0;
#X connect 26 3 20 0;
#X connect 26 4 33 0;
#X connect 26 5 28 0;
#X connect 26 6 32 0;
#X connect 28 0 36 0;
#X connect 28 1 36 1;
#X connect 29 1 30 0;
#X connect 31 0 26 0;
#X connect 32 0 17 0;
#X connect 32 1 27 0;
#X connect 32 2 3 0;
#X connect 33 0 37 0;
#X connect 33 1 37 1;
#X connect 34 1 35 0;
#X connect 36 0 29 0;
#X connect 36 1 27 0;
#X connect 37 0 34 0;
#X connect 37 1 15 0;
#X restore 179 67 pd init;
#X obj 45 208 insert 1 ratio;
#X obj 126 182 insert 1 phase;
#X text 396 82 Part of ELSE \; https://github.com/porres/pd-else;
#X text 396 61 Alexandre Torres Porres (2017);
#X obj 144 104 route ratio phase amp ramp rampall;
#X msg 328 245 all ramp \$1;
#X obj 455 166 declare -path else;
#X connect 1 0 13 0;
#X connect 2 0 9 0;
#X connect 3 0 10 0;
#X connect 4 0 6 0;
#X connect 5 0 7 0;
#X connect 6 0 0 0;
#X connect 7 0 0 0;
#X connect 8 0 13 0;
#X connect 9 0 0 0;
#X connect 10 0 0 0;
#X connect 13 0 2 0;
#X connect 13 1 3 0;
#X connect 13 2 4 0;
#X connect 13 3 5 0;
#X connect 13 4 14 0;
#X connect 13 5 0 0;
#X connect 14 0 0 0;
#X restore 132 132 pd route/init;
#N canvas 433 71 290 271 gain 0;
#X obj 97 64 inlet~;
#X obj 141 108 r \$0-n;
#X obj 141 129 expr 1/$f1;
#X obj 97 125 *~ 0;
#X obj 97 167 outlet~;
#X connect 0 0 3 0;
#X connect 1 0 2 0;
#X connect 2 0 3 1;
#X connect 3 0 4 0;
#X restore 75 231 pd gain;
#X obj 75 266 outlet~;
#X connect 0 0 1 0;
#X connect 1 1 2 0;
#X connect 3 0 4 0;
