#N canvas 479 23 558 482 10;
#X declare -path else;
#X obj 62 83 t b a, f 7;
#X obj 62 321 b;
#X obj 116 366 stack;
#X msg 165 165 dump;
#X msg 210 215 clear;
#X msg 71 221 clear;
#X obj 62 45 inlet;
#X obj 165 45 inlet;
#X obj 116 408 outlet;
#X obj 62 277 pipe \$1;
#X obj 165 120 route flush clear float;
#X text 228 304 Part of ELSE \; https://github.com/porres/pd-else;
#X text 230 285 Alexandre Torres Porres (2021);
#X obj 265 252 declare -path else;
#X connect 0 0 9 0;
#X connect 0 1 2 1;
#X connect 1 0 2 0;
#X connect 2 0 8 0;
#X connect 3 0 2 0;
#X connect 3 0 5 0;
#X connect 4 0 2 0;
#X connect 4 0 9 0;
#X connect 5 0 9 0;
#X connect 6 0 0 0;
#X connect 7 0 10 0;
#X connect 9 0 1 0;
#X connect 10 0 3 0;
#X connect 10 1 4 0;
#X connect 10 2 9 1;
