#N canvas 462 84 528 278 12;
#X declare -path else;
#X obj 56 203 outlet;
#X obj 56 27 inlet;
#X obj 176 200 outlet;
#N canvas 491 149 659 346 score 0;
#X msg 261 167 click;
#X obj 261 124 click;
#X msg 204 167 close;
#X obj 80 27 inlet;
#X obj 431 248 s \$0-text;
#X obj 399 130 list;
#X obj 399 189 moses;
#X msg 431 219 line \$1;
#X obj 261 255 text define \$0-score;
#X f 22;
#X obj 399 159 text search \$0-score;
#N canvas 386 71 406 295 init 0;
#X obj 98 37 loadbang;
#X obj 98 61 args;
#X obj 98 88 route symbol;
#X obj 98 224 outlet;
#X obj 98 123 canvas.file 1;
#X msg 221 155 \$1 file not found;
#X obj 221 185 print [score];
#X msg 98 172 read \$1;
#X connect 0 0 1 0;
#X connect 1 0 2 0;
#X connect 2 0 4 0;
#X connect 4 0 7 0;
#X connect 4 1 5 0;
#X connect 5 0 6 0;
#X connect 7 0 3 0;
#X restore 284 224 pd init;
#N canvas 183 76 286 477 open 0;
#X obj 136 215 pdcontrol;
#X msg 136 188 dir 1;
#X obj 136 241 pack s s;
#X obj 136 161 t b s, f 10;
#X obj 55 97 route bang, f 12;
#X obj 136 133 symbol;
#X obj 55 182 pdcontrol;
#X msg 55 155 dir 1;
#X obj 136 312 outlet;
#X obj 55 56 inlet;
#X msg 55 253 read \$1;
#X msg 136 267 read \$1/\$2;
#X obj 55 213 openpanel;
#X connect 0 0 2 0;
#X connect 1 0 0 0;
#X connect 2 0 11 0;
#X connect 3 0 1 0;
#X connect 3 1 2 1;
#X connect 4 0 7 0;
#X connect 4 1 5 0;
#X connect 5 0 3 0;
#X connect 6 0 12 0;
#X connect 7 0 6 0;
#X connect 9 0 4 0;
#X connect 10 0 8 0;
#X connect 11 0 8 0;
#X connect 12 0 10 0;
#X restore 140 167 pd open;
#N canvas 454 23 286 477 save 0;
#X obj 136 215 pdcontrol;
#X msg 136 188 dir 1;
#X obj 136 241 pack s s;
#X obj 136 161 t b s, f 10;
#X obj 55 213 savepanel;
#X obj 55 97 route bang, f 12;
#X msg 55 253 write \$1;
#X obj 136 133 symbol;
#X obj 55 182 pdcontrol;
#X msg 55 155 dir 1;
#X obj 136 312 outlet;
#X msg 136 267 write \$1/\$2;
#X obj 55 56 inlet;
#X connect 0 0 2 0;
#X connect 1 0 0 0;
#X connect 2 0 11 0;
#X connect 3 0 1 0;
#X connect 3 1 2 1;
#X connect 4 0 6 0;
#X connect 5 0 9 0;
#X connect 5 1 7 0;
#X connect 6 0 10 0;
#X connect 7 0 3 0;
#X connect 8 0 4 0;
#X connect 9 0 8 0;
#X connect 11 0 10 0;
#X connect 12 0 5 0;
#X restore 80 167 pd save;
#X obj 80 66 route save open show hide goto;
#X connect 0 0 8 0;
#X connect 1 0 0 0;
#X connect 2 0 8 0;
#X connect 3 0 13 0;
#X connect 5 0 9 0;
#X connect 6 1 7 0;
#X connect 7 0 4 0;
#X connect 9 0 6 0;
#X connect 10 0 8 0;
#X connect 11 0 8 0;
#X connect 12 0 8 0;
#X connect 13 0 12 0;
#X connect 13 1 11 0;
#X connect 13 2 0 0;
#X connect 13 3 2 0;
#X connect 13 4 5 0;
#X restore 151 90 pd score;
#X text 241 83 Part of ELSE \; https://github.com/porres/pd-else;
#X text 243 64 Alexandre Torres Porres (2022);
#N canvas 561 60 501 527 play 0;
#X obj 71 18 inlet;
#X obj 223 339 spigot;
#X obj 72 218 != 0;
#X msg 120 85 1;
#X msg 219 85 0;
#X msg 262 296 1;
#X obj 292 236 sel 1;
#X obj 292 210 v pause_\$0;
#X msg 269 148 1;
#X msg 215 148 0;
#X obj 292 476 outlet;
#X obj 418 476 outlet;
#X obj 269 181 &&;
#X obj 318 85 t b b;
#X obj 368 238 t b b;
#X obj 71 53 route float bang start stop pause continue play, f 50
;
#X msg 239 249 0;
#X obj 110 316 s \$0-rewind;
#X obj 42 317 t b b;
#X obj 72 286 sel 1 0, f 9;
#X obj 300 302 r \$0-next;
#X obj 102 341 s \$0-stop-delay;
#X connect 0 0 15 0;
#X connect 1 0 10 0;
#X connect 2 0 1 1;
#X connect 2 0 12 1;
#X connect 2 0 19 0;
#X connect 3 0 2 0;
#X connect 4 0 2 0;
#X connect 5 0 1 1;
#X connect 5 0 12 1;
#X connect 6 0 5 0;
#X connect 6 0 10 0;
#X connect 7 0 6 0;
#X connect 8 0 12 0;
#X connect 9 0 12 0;
#X connect 12 0 7 0;
#X connect 13 0 9 0;
#X connect 13 1 7 0;
#X connect 14 0 5 0;
#X connect 14 1 10 0;
#X connect 15 0 2 0;
#X connect 15 1 3 0;
#X connect 15 2 3 0;
#X connect 15 3 4 0;
#X connect 15 4 8 0;
#X connect 15 4 16 0;
#X connect 15 5 13 0;
#X connect 15 6 14 0;
#X connect 15 7 11 0;
#X connect 16 0 1 1;
#X connect 18 0 10 0;
#X connect 18 1 17 0;
#X connect 19 0 18 0;
#X connect 19 1 9 0;
#X connect 19 1 17 0;
#X connect 19 1 21 0;
#X connect 20 0 1 0;
#X restore 56 60 pd play;
#X f 14;
#X obj 280 203 outlet;
#X obj 280 172 r \$0-end;
#X text 168 223 score data;
#X text 54 226 event data;
#X text 284 226 end;
#N canvas 713 112 405 423 text-get 0;
#X obj 107 130 until;
#X obj 139 99 r \$0-stop;
#X obj 160 164 + 1;
#X msg 221 115 0;
#X obj 223 253 sel 2;
#X obj 107 163 float;
#X obj 165 263 != 2;
#X obj 126 292 spigot;
#X obj 126 369 outlet;
#X obj 107 28 inlet;
#X obj 221 84 r \$0-rewind;
#X obj 281 280 s \$0-stop;
#X obj 223 335 s \$0-end;
#X obj 246 307 s \$0-rewind;
#X obj 223 280 t b b b;
#X obj 277 252 v type_\$0;
#X obj 31 130 r \$0-rest;
#X obj 221 148 s \$0-route;
#X obj 107 223 text get \$0-score;
#X obj 107 194 t f f;
#X obj 162 194 v line_n_\$0;
#X connect 0 0 5 0;
#X connect 1 0 0 1;
#X connect 2 0 5 1;
#X connect 3 0 5 1;
#X connect 3 0 17 0;
#X connect 4 0 14 0;
#X connect 4 1 15 0;
#X connect 5 0 2 0;
#X connect 5 0 19 0;
#X connect 6 0 7 1;
#X connect 7 0 8 0;
#X connect 9 0 0 0;
#X connect 10 0 3 0;
#X connect 14 0 12 0;
#X connect 14 1 13 0;
#X connect 14 2 11 0;
#X connect 16 0 5 0;
#X connect 18 0 7 0;
#X connect 18 1 4 0;
#X connect 18 1 6 0;
#X connect 19 0 18 0;
#X connect 19 1 20 0;
#X restore 56 90 pd text-get;
#X obj 56 171 r \$0-event-data;
#X obj 176 172 r \$0-data-out;
#N canvas 483 126 335 256 parse 0;
#X obj 194 95 list trim;
#X obj 89 95 list split 1;
#X obj 48 169 message;
#N canvas 475 23 788 681 delay 0;
#X obj 116 84 - 1;
#X obj 116 155 t f f;
#X obj 148 186 -;
#X msg 166 155 0;
#X obj 166 121 r \$0-rewind;
#X obj 148 278 t b b;
#X obj 247 645 outlet;
#X obj 116 25 inlet;
#X obj 264 25 inlet;
#X obj 264 117 route tempo timesig |, f 34;
#X obj 623 124 f;
#X obj 662 126 + 1;
#X msg 641 95 0;
#X obj 641 68 r \$0-rewind;
#X obj 22 80 r \$0-bar-n;
#X obj 116 125 +;
#X obj 527 342 s \$0-stop;
#X obj 495 403 s \$0-bar-n;
#X obj 495 308 t f b;
#X obj 180 412 nmess;
#X msg 247 382 1;
#X obj 26 257 v type_\$0;
#X obj 26 288 t f f;
#X obj 90 291 == 1;
#X obj 90 319 s \$0-route;
#X obj 26 386 s \$0-rest;
#X obj 49 356 s \$0-next;
#X obj 26 320 sel 1 0;
#X obj 26 224 r \$0-check-type;
#N canvas 328 23 879 673 get-tempo 0;
#X obj 405 17 inlet;
#X obj 247 372 -;
#X obj 215 341 t f f;
#X obj 215 314 * 60000;
#X obj 487 110 list split 2;
#X obj 487 194 list append;
#X obj 487 138 trigger bang list;
#X obj 487 168 v bpm_\$0;
#X obj 623 198 unpack f f f, f 18;
#X obj 141 176 add;
#X msg 279 340 0;
#X obj 29 17 inlet;
#X obj 510 345 s \$0-init;
#X obj 279 314 r \$0-init;
#X obj 29 142 router;
#X obj 141 85 r \$0-init;
#X msg 153 115 1;
#X obj 105 306 s \$0-finished;
#X obj 103 58 r \$0-finished;
#X msg 103 82 0;
#X obj 29 639 outlet;
#X obj 141 204 t f f;
#X obj 141 234 router;
#X obj 73 271 t f b;
#X obj 405 79 route float list, f 24;
#X obj 804 345 v Q_\$0;
#X obj 697 345 v ln_Q_\$0;
#X obj 590 345 v T_\$0;
#X obj 767 199 v N_\$0;
#X obj 684 227 v S2_\$0;
#X obj 623 227 v S1_\$0;
#X obj 215 205 expr $f1 <= N_\$0;
#X obj 215 258 expr T_\$0 / ln_Q_\$0 * ln(($f1 * ln_Q_\$0 / (T_\$0
* S1_\$0 ))+1), f 21;
#X text 222 114 considering tempos that sum up to N exactly, f 18
;
#X msg 481 443 tempo \$1;
#X obj 752 256 v delta_\$0;
#X obj 487 288 sel 1;
#X obj 487 224 t b l;
#X obj 487 256 expr (delta_\$0 = S2_\$0 - S1_\$0) != 0;
#X obj 487 315 t b b b;
#N canvas 860 81 490 523 beats 0;
#X obj 132 22 inlet;
#X obj 203 335 -;
#X obj 171 304 t f f;
#X obj 171 275 * 60000;
#X msg 239 335 0;
#X obj 239 308 r \$0-init;
#X obj 171 219 expr T_\$0 / ln_Q_\$0 * ln(($f1 * ln_Q_\$0 / (T_\$0
* S1_\$0 ))+1), f 21;
#X obj 203 108 r N_\$0;
#X obj 150 84 r \$0-init;
#X obj 132 140 f;
#X obj 171 149 + 1;
#X obj 171 180 moses;
#X obj 203 142 + 1;
#X obj 343 183 v S2_\$0;
#X msg 150 108 0;
#X obj 120 375 delay;
#X obj 203 375 bpm;
#X obj 367 230 v bpm_\$0;
#X obj 407 469 outlet;
#X obj 343 150 b;
#X obj 343 470 outlet;
#X obj 120 409 s \$0-next-beat;
#X obj 144 52 r \$0-next-beat;
#X obj 45 288 r \$0-stop-delay;
#X msg 45 322 stop;
#X connect 0 0 9 0;
#X connect 1 0 15 0;
#X connect 1 0 16 0;
#X connect 2 0 1 1;
#X connect 2 1 1 0;
#X connect 3 0 2 0;
#X connect 4 0 1 1;
#X connect 5 0 4 0;
#X connect 6 0 3 0;
#X connect 7 0 12 0;
#X connect 8 0 14 0;
#X connect 9 0 10 0;
#X connect 10 0 9 1;
#X connect 10 0 11 0;
#X connect 11 0 6 0;
#X connect 11 1 19 0;
#X connect 12 0 11 1;
#X connect 13 0 17 0;
#X connect 13 0 18 0;
#X connect 13 0 20 0;
#X connect 14 0 9 1;
#X connect 15 0 21 0;
#X connect 16 0 18 0;
#X connect 19 0 13 0;
#X connect 22 0 9 0;
#X connect 23 0 24 0;
#X connect 24 0 15 0;
#X restore 487 379 pd beats;
#X obj 746 227 s N_\$0;
#X obj 481 476 s \$0-data-out;
#X msg 444 506 tempo \$1 permin;
#X obj 247 432 bpm;
#X obj 247 463 expr bpm_\$0 / $f1;
#X obj 73 347 expr $f1 - N_\$0, f 16;
#X obj 590 286 expr N_\$0 * ln_Q_\$0 / delta_\$0 \; ln(Q_\$0) \; S2_\$0/S1_\$0
;
#X obj 215 404 sel 0;
#X msg 215 441 0;
#X connect 0 0 24 0;
#X connect 1 0 48 0;
#X connect 2 0 1 1;
#X connect 2 1 1 0;
#X connect 3 0 2 0;
#X connect 4 0 6 0;
#X connect 5 0 37 0;
#X connect 6 0 7 0;
#X connect 6 1 5 1;
#X connect 7 0 5 0;
#X connect 8 0 30 0;
#X connect 8 1 29 0;
#X connect 8 2 41 0;
#X connect 9 0 21 0;
#X connect 10 0 1 1;
#X connect 11 0 14 0;
#X connect 13 0 10 0;
#X connect 14 0 20 0;
#X connect 14 1 9 0;
#X connect 15 0 16 0;
#X connect 15 0 9 0;
#X connect 16 0 14 1;
#X connect 18 0 19 0;
#X connect 19 0 14 1;
#X connect 21 0 22 0;
#X connect 21 1 31 0;
#X connect 22 0 23 0;
#X connect 22 1 32 0;
#X connect 23 0 46 0;
#X connect 23 1 17 0;
#X connect 24 0 7 0;
#X connect 24 0 43 0;
#X connect 24 0 34 0;
#X connect 24 1 4 0;
#X connect 31 0 22 1;
#X connect 32 0 3 0;
#X connect 34 0 42 0;
#X connect 36 0 39 0;
#X connect 37 0 38 0;
#X connect 37 1 8 0;
#X connect 38 0 36 0;
#X connect 39 0 40 0;
#X connect 39 1 12 0;
#X connect 39 2 47 0;
#X connect 40 0 43 0;
#X connect 40 1 34 0;
#X connect 43 0 20 0;
#X connect 44 0 45 0;
#X connect 45 0 20 0;
#X connect 46 0 20 0;
#X connect 47 0 27 0;
#X connect 47 1 26 0;
#X connect 47 2 25 0;
#X connect 48 0 49 0;
#X connect 48 1 44 0;
#X connect 49 0 20 0;
#X restore 148 212 pd get-tempo;
#X f 17;
#X obj 148 243 delay;
#X obj 207 241 r \$0-stop-delay;
#X msg 207 265 stop;
#X obj 291 56 routeall timesig;
#X obj 377 473 s \$0-data-out;
#X msg 377 446 bar \$1;
#X obj 662 150 v bar_\$0;
#X obj 377 419 v bar_\$0;
#X obj 551 243 r \$0-n_beats;
#X obj 533 272 +;
#X obj 495 271 f;
#X msg 513 242 0;
#X obj 513 215 r \$0-rewind;
#N canvas 186 236 361 445 check-timesig 0;
#X obj 128 81 inlet;
#X obj 160 165 v line_n_\$0;
#X obj 160 225 text get \$0-score;
#X obj 160 189 + 1;
#X obj 128 118 t b b;
#X obj 160 259 list trim;
#X obj 160 287 route timesig;
#X obj 160 322 b;
#X obj 160 361 s \$0-rest;
#X connect 0 0 4 0;
#X connect 1 0 3 0;
#X connect 2 0 5 0;
#X connect 3 0 2 0;
#X connect 4 1 1 0;
#X connect 5 0 6 0;
#X connect 6 0 7 0;
#X connect 7 0 8 0;
#X restore 495 184 pd check-timesig;
#X obj 420 152 trigger bang bang bang;
#X obj 180 442 t b b;
#X obj 291 83 s \$0-time-sig;
#X obj 295 533 message;
#X obj 376 502 r \$0-time-sig;
#X obj 295 565 changed;
#X obj 405 534 r \$0-rewind;
#X obj 295 595 s \$0-data-out;
#X obj 342 224 separate /;
#X obj 342 189 symbol;
#X obj 342 253 unpack;
#X obj 342 286 s \$0-n_beats;
#X connect 0 0 15 0;
#X connect 1 0 2 1;
#X connect 1 1 2 0;
#X connect 2 0 29 0;
#X connect 3 0 2 1;
#X connect 4 0 3 0;
#X connect 5 0 21 0;
#X connect 5 1 19 0;
#X connect 7 0 0 0;
#X connect 8 0 9 0;
#X connect 8 0 33 0;
#X connect 9 0 29 1;
#X connect 9 1 53 0;
#X connect 9 2 44 0;
#X connect 10 0 11 0;
#X connect 11 0 10 1;
#X connect 11 0 36 0;
#X connect 12 0 10 1;
#X connect 13 0 12 0;
#X connect 14 0 1 0;
#X connect 14 0 15 1;
#X connect 15 0 1 0;
#X connect 18 0 17 0;
#X connect 18 1 16 0;
#X connect 18 1 20 0;
#X connect 19 0 45 0;
#X connect 19 1 6 0;
#X connect 20 0 19 1;
#X connect 21 0 22 0;
#X connect 22 0 27 0;
#X connect 22 1 23 0;
#X connect 23 0 24 0;
#X connect 27 0 25 0;
#X connect 27 1 26 0;
#X connect 28 0 21 0;
#X connect 29 0 30 0;
#X connect 30 0 5 0;
#X connect 31 0 32 0;
#X connect 32 0 30 0;
#X connect 33 0 46 0;
#X connect 35 0 34 0;
#X connect 37 0 35 0;
#X connect 38 0 39 1;
#X connect 39 0 40 1;
#X connect 40 0 39 0;
#X connect 40 0 18 0;
#X connect 41 0 40 1;
#X connect 42 0 41 0;
#X connect 44 0 40 0;
#X connect 44 1 43 0;
#X connect 44 2 10 0;
#X connect 45 0 47 0;
#X connect 45 1 37 0;
#X connect 47 0 49 0;
#X connect 48 0 47 1;
#X connect 49 0 51 0;
#X connect 50 0 49 1;
#X connect 52 0 54 0;
#X connect 53 0 52 0;
#X connect 54 0 55 0;
#X restore 48 136 pd delay;
#N canvas 736 186 606 428 route 0;
#X obj 201 18 inlet;
#X obj 53 341 outlet;
#X obj 162 341 outlet;
#X obj 88 141 list split 1;
#X obj 88 168 route float;
#X obj 201 201 list;
#X obj 201 89 t b l l;
#X obj 53 240 router, f 16;
#X obj 85 307 s \$0-stop;
#X obj 201 57 router;
#X obj 275 23 r \$0-route;
#X text 167 365 data;
#X text 58 365 event;
#X obj 275 89 trigger bang anything;
#X obj 53 280 t a b;
#X obj 275 122 s \$0-check-type;
#X obj 419 122 s \$0-event-data;
#X msg 88 198 0;
#X msg 162 195 1;
#X connect 0 0 9 0;
#X connect 3 0 4 0;
#X connect 4 0 17 0;
#X connect 4 1 18 0;
#X connect 5 0 7 0;
#X connect 6 0 5 0;
#X connect 6 1 3 0;
#X connect 6 2 5 1;
#X connect 7 0 14 0;
#X connect 7 1 2 0;
#X connect 9 0 6 0;
#X connect 9 1 13 0;
#X connect 10 0 9 1;
#X connect 13 0 15 0;
#X connect 13 1 16 0;
#X connect 14 0 1 0;
#X connect 14 1 8 0;
#X connect 17 0 7 1;
#X connect 18 0 7 1;
#X restore 141 53 pd route;
#X obj 48 202 s \$0-event-data;
#X obj 141 23 inlet;
#X connect 0 0 3 1;
#X connect 1 0 3 0;
#X connect 1 1 2 1;
#X connect 2 0 5 0;
#X connect 3 0 2 0;
#X connect 4 0 1 0;
#X connect 4 1 0 0;
#X connect 6 0 4 0;
#X restore 56 120 pd parse;
#X obj 265 135 declare -path else;
#X connect 1 0 6 0;
#X connect 6 0 12 0;
#X connect 6 1 3 0;
#X connect 8 0 7 0;
#X connect 12 0 15 0;
#X connect 13 0 0 0;
#X connect 14 0 2 0;
