#N canvas 453 29 939 547 12;
#X declare -path else;
#X obj 703 32 declare -path else;
#X obj 180 370 setdsp~;
#X obj 65 417 vsl 18 100 0 1 0 0 empty empty empty 0 -9 0 10 -228856
-1 -1 0 1;
#X obj 65 256 bng 20 250 50 0 empty empty empty 17 7 0 10 -228856 -1
-1;
#X obj 65 381 s2f~;
#X obj 118 185 function 200 100 empty empty 0 1 220 220 220 50 50 50
0 0 0 0 0 1000 1 250 0.25 250 0.25 500 1 250 1 250 0;
#X obj 65 339 envgen~, f 8;
#X msg 118 152 0 1000 1 250 0.25 250 0.25 500 1 250 1 250 0;
#X obj 118 299 display;
#X obj 118 124 loadbang;
#X text 26 22 The [function] object is a nice companion to [envgen~]
and you can use it to draw lines or visualize them from messages.,
f 61;
#X text 28 69 Check its help file.;
#X obj 541 161 nbx 5 17 0 2000 0 0 empty empty empty 0 -8 0 12 -228856
-1 -1 0 256;
#X obj 502 156 bng 25 250 50 0 empty empty empty 17 7 0 10 -228856
-1 -1;
#X text 539 137 ms;
#X obj 571 291 function 200 100 empty empty 0 1 220 220 220 50 50 50
0 0 0 0 0 1000 1 250 0.25 250 0.25 500 1 250 1 250 0;
#X obj 571 225 loadbang;
#X obj 502 261 line;
#X obj 571 408 vsl 18 100 0 1 0 0 empty empty empty 0 -9 0 10 -228856
-1 -1 0 1;
#X msg 571 251 0 1000 1 250 0.25 250 0.25 500 1 250 1 250 0;
#X msg 502 225 0 \, 1 \$1;
#X text 492 61 Another option is to have a float input from a [line]
object. In this way \, you can use [function] as a control rate line
generator., f 51;
#X obj 502 194 f 1500;
#X connect 3 0 6 0;
#X connect 4 0 2 0;
#X connect 5 0 8 0;
#X connect 6 0 4 0;
#X connect 7 0 5 0;
#X connect 8 0 6 1;
#X connect 9 0 7 0;
#X connect 12 0 22 1;
#X connect 13 0 22 0;
#X connect 15 0 18 0;
#X connect 16 0 19 0;
#X connect 17 0 15 0;
#X connect 19 0 15 0;
#X connect 20 0 17 0;
#X connect 22 0 20 0;
