#N canvas 428 49 777 398 12;
#X declare -path else;
#X obj 106 263 *~;
#X obj 222 266 vsl 18 100 0 1 0 0 ewtwet wefwert empty 0 -9 0 10 #dcdcdc #000000 #000000 0 1;
#X text 245 356 0;
#X text 245 262 1;
#X obj 167 151 tgl 20 0 empty empty empty 17 7 0 10 #dcdcdc #000000 #000000 0 127;
#X obj 78 219 osc~ 440;
#X obj 211 154 nbx 5 14 -1e+37 1e+37 0 0 empty empty empty 0 -8 0 10 #dcdcdc #000000 #000000 0 256;
#X obj 279 154 nbx 5 14 -1e+37 1e+37 0 0 empty empty empty 0 -8 0 10 #dcdcdc #000000 #000000 0 256;
#X text 212 136 attack;
#X text 281 136 release;
#X text 135 153 gate;
#X obj 526 284 *~;
#X obj 468 247 osc~ 440;
#X obj 106 307 out~;
#X obj 526 323 out~;
#X obj 222 238 s2f~;
#X obj 232 23 declare -path else;
#X obj 167 202 asr~ 500 250, f 13;
#X text 426 36 You could trigger this envelope with an impulse or a bang by scheduling a release with the [timed.gate~] object from ELSE., f 43;
#X obj 544 226 timed.gate~ 700;
#X obj 544 198 impseq~;
#X obj 544 168 bng 19 250 50 0 empty empty empty 17 7 0 10 #dcdcdc #000000 #000000;
#X text 42 59 The [asr~] external from ELSE is dedicated to generating 'ASR' envelopes and expects either a signal gate input or a float input mapped to the MIDI velocity range. Check its help file for more details., f 46;
#X obj 544 256 asr~ -lin 400 300;
#X obj 512 198 bng 19 250 50 0 empty empty empty 17 7 0 10 #dcdcdc #000000 #000000;
#X floatatom 167 176 4 0 0 0 - - - 0;
#X text 427 86 By default this object has a log mode that performs a low pass filtering as in the [lag~] object or the [slope~] object. A '-lin' flag makes it linear., f 43;
#X connect 0 0 13 0;
#X connect 4 0 25 0;
#X connect 5 0 0 0;
#X connect 6 0 17 1;
#X connect 7 0 17 2;
#X connect 11 0 14 0;
#X connect 12 0 11 0;
#X connect 15 0 1 0;
#X connect 17 0 0 1;
#X connect 17 0 15 0;
#X connect 19 0 23 0;
#X connect 20 0 19 0;
#X connect 21 0 20 0;
#X connect 23 0 11 1;
#X connect 24 0 19 0;
#X connect 25 0 17 0;
