#N canvas 375 73 888 453 12;
#X declare -path else;
#X obj 69 195 hsl 190 19 0 1 0 0 index \$0-slider empty -2 -8 0 10 #dcdcdc #000000 #000000 0 0;
#X floatatom 66 414 10 0 0 0 - - value 16;
#X obj 322 204 cnv 15 498 198 empty \$0-lin . -7 102 0 44 #f8f8f8 #fc0400 0;
#N canvas 0 22 450 300 (subpatch) 0;
#X array \$0-interp 8 float 3;
#A 0 -0.129999 0.22 -0.159999 0.519999 -0.39 0.7 -0.769998 0.939999;
#X coords 0 1 8 -1 500 200 1 0 0;
#X restore 321 203 graph;
#N canvas 889 263 439 311 plot 0;
#X msg 151 237 label_pos \$2 \$1;
#X obj 151 211 pack;
#X obj 117 123 r value;
#X obj 117 149 * -100;
#X obj 181 117 r index;
#X obj 117 176 + 90;
#X obj 181 185 - 13;
#X obj 151 265 s \$0-lin;
#X obj 181 158 * 500;
#X obj 95 26 initmess \; \$0-interp xticks 0 1 1 \, xlabel -1.1 0 1 2 3 4 5 6 7, f 27;
#X connect 0 0 7 0;
#X connect 1 0 0 0;
#X connect 2 0 3 0;
#X connect 3 0 5 0;
#X connect 4 0 8 0;
#X connect 5 0 1 0;
#X connect 6 0 1 1;
#X connect 8 0 6 0;
#X restore 768 184 pd plot;
#X obj 680 18 declare -path else;
#X floatatom 66 224 11 0 0 0 - - - 0;
#X msg 115 295 lin;
#X msg 103 268 lagrange;
#X text 104 196 index from 0 to 1;
#X msg 124 323 none;
#X text 148 296 linear;
#X text 163 324 no interpolation;
#X text 12 118 One big difference that makes things simpler is that you don't need to worry about guard points. Copies are made internally in the object., f 60;
#X obj 66 379 tabreader -loop -lin \$0-interp;
#X text 12 23 The ELSE library provides many objects that can read arrays with different interpolation methods. Let's start with the [tabreader] object. By default \, it uses a different 4 point cubic interpolation method but can also perform lagrange \, linear \, no interpolation at all and yet other interpolation methods we'll see next.;
#X text 466 53 By default \, the input is from 0 to 1 and it's mapped from 0 to the table size minus 1 (from 0 to 7 in this case where the table size is 8). In this example we have it in 'loop' mode (see the '-loop' flag) \, where the input from 0 to 1 is mapped to 0-8 range and '8' is the same as '0'. Below you can test both 'linear' and 'lagrange' methods. The '-lin' flag sets it to 'linear' initially., f 54;
#X connect 0 0 6 0;
#X connect 6 0 14 0;
#X connect 7 0 14 0;
#X connect 8 0 14 0;
#X connect 10 0 14 0;
#X connect 14 0 1 0;
