#N canvas 341 80 923 429 12;
#X declare -path else;
#X obj 361 178 cnv 15 498 198 empty \$0-lin . -7 102 0 44 #f8f8f8 #fc0400 0;
#N canvas 0 22 450 300 (subpatch) 0;
#X array \$0-interp 8 float 3;
#A 0 -0.129999 0.22 -0.159999 0.519999 -0.39 0.7 -0.98 0.98;
#X coords 0 1 8 -1 500 200 1 0 0;
#X restore 360 177 graph;
#N canvas 889 263 439 311 plot 0;
#X msg 151 237 label_pos \$2 \$1;
#X obj 151 211 pack;
#X obj 117 123 r value;
#X obj 117 149 * -100;
#X obj 181 117 r index;
#X obj 117 176 + 90;
#X obj 181 185 - 13;
#X obj 151 265 s \$0-lin;
#X obj 181 158 * 500;
#X obj 95 26 initmess \; \$0-interp xticks 0 1 1 \, xlabel -1.1 0 1 2 3 4 5 6 7, f 27;
#X connect 0 0 7 0;
#X connect 1 0 0 0;
#X connect 2 0 3 0;
#X connect 3 0 5 0;
#X connect 4 0 8 0;
#X connect 5 0 1 0;
#X connect 6 0 1 1;
#X connect 8 0 6 0;
#X restore 807 158 pd plot;
#X text 837 386 (n = 8);
#X obj 705 28 declare -path else;
#X obj 47 188 oscope~ 260 181 7 3 128 -1 1 0 0 0 0 30 30 30 190 190 190 160 160 160 0 empty;
#X obj 627 73 hsl 190 19 0 1 0 0 index \$0-slider empty -2 -8 0 10 #dcdcdc #000000 #000000 0 0;
#X floatatom 624 132 10 0 0 0 - - value 16;
#X text 369 105 Test also [tabreader] and see ---> the interpolation function below, f 34;
#X obj 291 93 setdsp~;
#X text 89 20 The [tabreader~] object is the signal version of [tabreader]. Another interpolation method provided in them is the 'cosine' interpolation. In this method \, half a cosine cycle is used to connect the dots., f 69;
#X obj 47 105 phasor~ 50;
#X obj 624 103 tabreader -loop -cos \$0-interp;
#X obj 47 146 tabreader~ -loop -cos \$0-interp;
#X connect 6 0 12 0;
#X connect 11 0 13 0;
#X connect 12 0 7 0;
#X connect 13 0 5 0;
