#N struct 4821-cell float x float y float cellsize float color;
#N struct 4822-point float x0 float y0 float xs float ys float fg float
in float gridx float gridy;
#N struct 4841-point float x0 float y0 float size float fg float in
float grid;
#N struct 4880-slot float x float y float slotsize float color float
width float bordercolor;
#N canvas 733 23 532 670 10;
#X declare -path else;
#X text 53 106 Assorted:;
#X text 53 175 FFT:;
#X text 51 2473 MIDI:;
#X text 51 2992 Math functions:;
#X text 51 3810 Math (conversion):;
#X text 50 4573 Math (connstant values):;
#X text 49 4730 Math (logic):;
#X text 50 5888 Audio Processing (filters):;
#X text 49 7036 Physical Modelling:;
#X text 47 7116 Oscillators (Deterministic Generators):;
#X text 47 7866 Chaotic Generators:;
#X text 46 8641 Signal Routing:;
#X text 52 9031 Control:;
#X text 51 10335 Triggers:;
#X text 53 660 Patch/subpatch management:;
#X text 50 1723 Message management:;
#X text 48 2397 File management:;
#X text 57 11631 GUI:;
#X text 19 11694 =============================================================================
, f 77;
#X text 19 11605 =============================================================================
, f 77;
#X text 19 11214 =============================================================================
, f 77;
#X text 19 10312 =============================================================================
, f 77;
#X text 19 9011 =============================================================================
, f 77;
#X text 19 8620 =============================================================================
, f 77;
#X text 19 7841 =============================================================================
, f 77;
#X text 19 7092 =============================================================================
, f 77;
#X text 19 7012 =============================================================================
, f 77;
#X text 19 6520 =============================================================================
, f 77;
#X text 19 5860 =============================================================================
, f 77;
#X text 19 5604 =============================================================================
, f 77;
#X text 19 4784 =============================================================================
, f 77;
#X text 19 4708 =============================================================================
, f 77;
#X text 28 4552 =============================================================================
, f 77;
#X text 28 3787 =============================================================================
, f 77;
#X text 28 2969 =============================================================================
, f 77;
#X text 28 2453 =============================================================================
, f 77;
#X text 28 2373 =============================================================================
, f 77;
#X text 27 1705 =============================================================================
, f 77;
#X text 27 251 =============================================================================
, f 77;
#X text 27 155 =============================================================================
, f 77;
#X text 26 83 =============================================================================
, f 77;
#X text 48 5628 Audio Processing (reverberation):;
#X text 16 5439 =============================================================================
, f 77;
#X text 45 5463 Audio Processing (dynamics):;
#X text 48 4804 Audio Processing (assorted):;
#X text 27 1138 =============================================================================
, f 77;
#X text 51 1160 Message/List management:;
#X text 53 11237 Analysis:;
#X text 21 9887 =============================================================================
, f 77;
#X text 35 9912 Control Random:;
#X text 27 639 =============================================================================
, f 77;
#X text 19 6930 =============================================================================
, f 77;
#X text 49 6954 Granular synthesys:;
#X text 52 272 Tuning/scale tools:;
#X obj 54 133 else;
#X obj 52 6584 table~;
#X obj 52 709 meter;
#X obj 50 9077 mouse;
#X obj 49 9649 euclid;
#X obj 53 199 hann~;
#X obj 56 326 autotune;
#X obj 56 349 autotune2;
#X obj 56 371 retune;
#X obj 56 392 eqdiv;
#X obj 56 500 frac2dec;
#X obj 56 524 frac2dec;
#X obj 56 569 midi2freq;
#X obj 56 592 note2pitch;
#X obj 56 615 pitch2note;
#X obj 53 684 args;
#X obj 53 761 blocksize~;
#X obj 53 787 fontsize;
#X obj 53 835 canvas.active;
#X obj 53 861 canvas.bounds;
#X obj 53 889 canvas.vis;
#X obj 53 913 canvas.edit;
#X obj 53 939 canvas.name;
#X obj 53 967 canvas.setname;
#X obj 53 992 canvas.zoom;
#X obj 53 1015 click;
#X obj 53 1039 properties;
#X obj 53 1064 dollsym;
#X obj 53 1090 receiver;
#X obj 53 1114 loadbanger;
#X obj 163 1114 lb;
#X obj 51 1184 break;
#X obj 51 1209 order;
#X obj 51 1233 group;
#X obj 51 1257 combine;
#X obj 50 1280 scramble;
#X obj 51 1303 buffer;
#X obj 51 1327 interpolate;
#X obj 51 1352 morph;
#X obj 51 1375 sort;
#X obj 51 1397 iterate;
#X obj 51 1422 insert;
#X obj 50 1447 reverse;
#X obj 50 1472 rotate;
#X obj 50 1496 sum;
#X obj 50 1520 slice;
#X obj 50 1590 stream;
#X obj 51 1614 merge;
#X obj 51 1637 unmerge;
#X obj 51 1778 format;
#X obj 51 1801 unite;
#X obj 51 1824 separate;
#X obj 51 1849 any2symbol;
#X obj 51 1873 symbol2any;
#X obj 51 1897 changed;
#X obj 51 1923 hot;
#X obj 51 1947 limit;
#X obj 51 1971 initmess;
#X obj 51 2017 message;
#X obj 51 2041 pack2;
#X obj 51 2066 pick;
#X obj 51 2092 spread;
#X obj 51 2115 router;
#X obj 51 2141 routeall;
#X obj 51 2166 routetype;
#X obj 51 2190 selector;
#X obj 51 2214 stack;
#X obj 51 2288 trigger2;
#X obj 51 2314 sig2float~;
#X obj 51 2340 float2sig~;
#X obj 173 2288 t2;
#X obj 172 2314 s2f~;
#X obj 172 2340 f2s~;
#X obj 51 2421 dir;
#X obj 51 2529 sysrt.in;
#X obj 51 2555 sysrt.out;
#X obj 51 2581 ctl.in;
#X obj 51 2607 ctl.out;
#X obj 51 2633 touch.in;
#X obj 51 2659 touch.out;
#X obj 51 2685 pgm.in;
#X obj 52 2711 pgm.out;
#X obj 51 2737 bend.in;
#X obj 51 2763 bend.out;
#X obj 51 2789 note.in;
#X obj 51 2815 note.out;
#X obj 51 2867 panic;
#X obj 51 2893 mono;
#X obj 51 2919 voices;
#X obj 51 2945 suspedal;
#X obj 51 3019 add;
#X obj 51 3045 add~;
#X obj 51 3071 median;
#X obj 51 3098 avg;
#X obj 51 3122 mov.avg;
#X obj 51 3147 lcm;
#X obj 51 3173 gcd;
#X obj 51 3199 count;
#X obj 51 3225 ceil;
#X obj 51 3250 ceil~;
#X obj 51 3274 factor;
#X obj 51 3298 floor;
#X obj 51 3324 floor~;
#X obj 51 3397 rint;
#X obj 51 3423 rint~;
#X obj 51 3449 quantizer;
#X obj 51 3475 quantizer~;
#X obj 51 3504 fold;
#X obj 51 3530 fold~;
#X obj 51 3556 lastvalue;
#X obj 51 3582 mag;
#X obj 51 3608 mag~;
#X obj 51 3634 sin~;
#X obj 51 3660 wrap2;
#X obj 51 3686 wrap2~;
#X obj 51 3711 op~;
#X obj 51 3834 hex2dec;
#X obj 51 3860 dec2hex;
#X obj 51 3886 bpm;
#X obj 51 3912 car2pol;
#X obj 51 3938 car2pol~;
#X obj 51 3964 pol2car;
#X obj 51 3990 pol2car~;
#X obj 51 4057 cents2ratio;
#X obj 51 4082 cents2ratio~;
#X obj 51 4108 ratio2cents;
#X obj 51 4134 ratio2cents~;
#X obj 51 4160 ms2samps;
#X obj 51 4186 ms2samps~;
#X obj 51 4212 samps2ms;
#X obj 51 4238 samps2ms~;
#X obj 51 4311 db2lin;
#X obj 51 4337 db2lin~;
#X obj 51 4363 float2bits;
#X obj 51 4389 hz2rad;
#X obj 51 4415 rad2hz;
#X obj 51 4443 lin2db;
#X obj 51 4469 lin2db~;
#X obj 51 4495 rescale;
#X obj 51 4521 rescale~;
#X obj 51 4601 sr~;
#X obj 51 4627 nyquist~;
#X obj 51 4653 pi;
#X obj 51 4679 e;
#X obj 51 4754 loop;
#X obj 50 4828 downsample~;
#X obj 50 4853 conv~;
#X obj 50 4878 chorus~;
#X obj 51 4904 del~ in \$0x;
#X obj 162 4904 del~ out \$0x;
#X obj 51 4932 fbdelay~;
#X obj 51 4958 ffdelay~;
#X obj 51 4984 shaper~;
#X obj 51 5012 crusher~;
#X obj 51 5070 drive~;
#X obj 51 5100 flanger~;
#X obj 51 5131 freq.shift~;
#X obj 51 5159 pitch.shift~;
#X obj 51 5188 ping.pong~;
#X obj 51 5215 phaser~;
#X obj 51 5244 rm~;
#X obj 51 5274 tremolo~;
#X obj 51 5302 vibrato~;
#X obj 51 5329 vocoder~ 16;
#X obj 51 5357 morph~;
#X obj 51 5383 freeze~;
#X obj 51 5410 pvoc.freeze~;
#X obj 45 5491 compress~;
#X obj 45 5519 duck~;
#X obj 45 5545 noisegate~;
#X obj 45 5571 norm~;
#X obj 51 5654 allpass.rev~;
#X obj 51 5680 comb.rev~;
#X obj 51 5708 mono.rev~;
#X obj 51 5732 stereo.rev~;
#X obj 51 5760 plate.rev~;
#X obj 51 5784 giga.rev~;
#X obj 51 5811 free.rev~;
#X obj 51 5837 fdn.rev~;
#X obj 51 5912 allpass.2nd~;
#X obj 51 5938 allpass.filt~;
#X obj 51 5968 comb.filt~;
#X obj 51 5994 lop.bw~;
#X obj 51 6019 hip.bw~;
#X obj 51 6046 biquads~;
#X obj 51 6072 bandpass~;
#X obj 51 6100 bandstop~;
#X obj 51 6125 crossover~;
#X obj 51 6151 bpbank~ 16;
#X obj 51 6177 bicoeff;
#X obj 51 6203 brickwall~;
#X obj 51 6229 eq~;
#X obj 51 6255 highpass~;
#X obj 51 6281 highshelf~;
#X obj 51 6309 lowpass~;
#X obj 51 6336 lowshelf~;
#X obj 51 6362 mov.avg~;
#X obj 51 6388 resonbank~ 16;
#X obj 51 6414 resonbank2~ 16;
#X obj 51 6441 resonant~;
#X obj 51 6468 resonant2~;
#X obj 51 6495 svfilter~;
#X obj 51 6608 sample~;
#X obj 51 6632 player~;
#X obj 51 6657 tabplayer~;
#X obj 51 6681 tabwriter~;
#X obj 51 6706 gran.player~;
#X obj 51 6731 pvoc.player~;
#X obj 51 6757 pvoc.live~;
#X obj 51 6781 grain.live~;
#X obj 51 6806 grain.sampler~;
#X obj 51 6832 rec.file~;
#X obj 51 6857 batch.rec~;
#X obj 51 6881 batch.write~;
#X obj 51 6906 play.file~;
#X obj 53 6981 grain.synth~;
#X obj 51 7066 pluck~;
#X obj 51 7150 cosine~;
#X obj 51 7178 impulse~;
#X obj 51 7205 impulse2~;
#X obj 153 7205 imp2~;
#X obj 153 7176 imp~;
#X obj 51 7232 parabolic~;
#X obj 51 7260 pulse~;
#X obj 51 7288 saw~;
#X obj 51 7317 saw2~;
#X obj 51 7345 oscbank~ 16;
#X obj 51 7373 oscbank2~ 16;
#X obj 51 7401 sine~;
#X obj 51 7429 square~;
#X obj 52 7458 tri~;
#X obj 52 7486 vsaw~;
#X obj 52 7536 pmosc~;
#X obj 52 7564 wavetable~;
#X obj 166 7564 wt~;
#X obj 52 7592 bl.imp~;
#X obj 52 7620 bl.imp2~;
#X obj 52 7648 bl.saw~;
#X obj 52 7676 bl.saw2~;
#X obj 52 7704 bl.sine~;
#X obj 52 7732 bl.square~;
#X obj 52 7761 bl.tri~;
#X obj 52 7788 bl.vsaw~;
#X obj 52 7816 bl.wavetable~;
#X obj 52 7898 brown~;
#X obj 52 7928 clipnoise~;
#X obj 52 7957 crackle~;
#X obj 52 7987 perlin~;
#X obj 52 8020 cusp~;
#X obj 52 8049 fbsine~;
#X obj 52 8082 fbsine2~;
#X obj 52 8111 gbman~;
#X obj 52 8139 gray~;
#X obj 52 8168 henon~;
#X obj 52 8197 ikeda~;
#X obj 52 8224 latoocarfian~;
#X obj 51 8252 lorenz~;
#X obj 50 8282 lfnoise~;
#X obj 50 8310 lincong~;
#X obj 50 8338 logistic~;
#X obj 49 8366 quad~;
#X obj 49 8394 rampnoise~;
#X obj 49 8422 randpulse~;
#X obj 49 8453 randpulse2~;
#X obj 49 8480 standard~;
#X obj 49 8510 stepnoise~;
#X obj 50 8539 pinknoise~;
#X obj 50 8569 xmod~;
#X obj 50 8596 xmod2~;
#X obj 50 8670 balance~;
#X obj 50 8698 pan2~;
#X obj 50 8727 pan4~;
#X obj 50 8753 pan8~, f 14;
#X obj 50 8780 spread~;
#X obj 50 8808 rotate~;
#X obj 50 8837 xfade~;
#X obj 50 8867 xgate~;
#X obj 50 8896 xgate2~;
#X obj 49 8926 xselect~;
#X obj 50 8956 xselect2~;
#X obj 50 8986 mtx~;
#X obj 50 9124 adsr~;
#X obj 50 9146 asr~;
#X obj 50 9168 autofade~;
#X obj 50 9191 autofade2~;
#X obj 50 9214 decay~;
#X obj 50 9237 decay2~;
#X obj 50 9261 envelope~;
#X obj 50 9285 envgen~;
#X obj 50 9309 fader~;
#X obj 50 9333 function~;
#X obj 50 9357 glide~;
#X obj 50 9381 glide2~;
#X obj 50 9455 ramp~;
#X obj 50 9574 lag~;
#X obj 50 9600 lag2~;
#X obj 50 9626 susloop~;
#X obj 50 9700 sequencer;
#X obj 50 9723 sequencer~;
#X obj 50 9747 impseq~;
#X obj 51 9819 lfo;
#X obj 51 9841 impulse;
#X obj 51 9864 pulse;
#X obj 47 10074 rand.seq;
#X obj 47 10100 drunkard;
#X obj 47 10126 drunkard~;
#X obj 47 10152 randpulse;
#X obj 47 10178 randpulse2;
#X obj 47 10204 stepnoise;
#X obj 47 10230 rampnoise;
#X obj 47 10256 lfnoise;
#X obj 47 10282 markov;
#X obj 51 10360 above;
#X obj 51 10385 above~;
#X obj 51 10409 bangdiv;
#X obj 51 10439 chance;
#X obj 51 10469 chance~;
#X obj 51 10499 dust~;
#X obj 51 10529 dust2~;
#X obj 51 10559 gatehold~;
#X obj 51 10584 gate2imp~;
#X obj 51 10615 pimp~;
#X obj 51 10721 tempo;
#X obj 51 10746 tempo~;
#X obj 51 10770 pulsecount~;
#X obj 51 10794 pulsediv~;
#X obj 51 10819 sh~;
#X obj 51 10844 schmitt;
#X obj 51 10871 schmitt~;
#X obj 51 10897 status;
#X obj 51 10927 status~;
#X obj 51 10957 trig.delay~;
#X obj 51 10987 trig.delay2~;
#X obj 51 11017 toggleff~;
#X obj 51 11047 timed.gate~;
#X obj 51 11076 timed.gate;
#X obj 51 11107 match~;
#X obj 51 11137 trig2bang~;
#X obj 51 11163 trig2bang;
#X obj 51 11190 trighold~;
#X obj 55 11266 changed~;
#X obj 55 11291 changed2~;
#X obj 55 11317 detect~;
#X obj 56 11342 lastvalue;
#X obj 56 11367 median~;
#X obj 56 11392 range;
#X obj 56 11443 range~;
#X obj 56 11468 peak~;
#X obj 56 11493 rms~;
#X obj 56 11519 mov.rms~;
#X obj 56 11545 vu~;
#X obj 56 11571 zerocross~;
#X obj 53 811 retrieve;
#X obj 51 3371 trunc~;
#X obj 50 1543 morph;
#X obj 50 1567 interpolate;
#X obj 51 3735 op;
#X obj 51 3347 trunc;
#X obj 48 9940 rand.f;
#X obj 48 9966 rand.f~;
#X obj 48 9992 rand.i;
#X obj 48 10018 rand.i~;
#X obj 48 10047 rand.list;
#X obj 51 1661 amean;
#X obj 52 1682 gmean;
#X obj 51 5040 power~;
#X obj 56 302 scales;
#X obj 51 2266 pipe2;
#X obj 51 9795 pimp;
#X obj 51 9771 phasor;
#X obj 56 456 cents2frac;
#X obj 56 478 frac2cents;
#X obj 51 9478 slew;
#X obj 51 9501 slew2;
#X obj 51 9528 slew~;
#X obj 51 9551 slew2~;
#X obj 51 1994 default;
#X obj 56 413 scale2cents;
#X obj 56 433 cents2scale;
#X obj 51 1752 nmess;
#X obj 50 9054 canvas.mouse;
#X text 45 6545 Buffer/Sampling/Playing/Granulation:;
#X obj 50 9406 glide;
#X obj 50 9430 glide2;
#X obj 53 737 presets;
#A saved -empty- \; -empty- \; -empty- \; -empty- \; -empty- \; -empty-
\; -empty- \; -empty- \; -empty- \; -empty- \; -empty- \; -empty- \;
-empty- \; -empty- \; -empty- \; -empty- \; -empty- \; -empty- \; -empty-
\; -empty- \; -empty- \; -empty- \; -empty- \; -empty- \; -empty- \;
-empty- \; -empty- \; -empty- \; -empty- \; -empty- \; -empty- \; -empty-
\; -empty- \; -empty- \; -empty- \; -empty- \; -empty- \; -empty- \;
-empty- \; -empty- \; -empty- \; -empty- \; -empty- \; -empty- \; -empty-
\; -empty- \; -empty- \; -empty- \; -empty- \; -empty- \; -empty- \;
-empty- \; -empty- \; -empty- \; -empty- \; -empty- \; -empty- \; -empty-
\; -empty- \; -empty- \; -empty- \; -empty- \; -empty- \; -empty- \;
;
#X obj 49 9675 pattern;
#X obj 56 546 freq2midi;
#X obj 51 4261 deg2rad;
#X obj 51 4284 rad2deg;
#X obj 51 4012 pz2coeff;
#X obj 51 4033 coeff2pz;
#X obj 51 10642 pimpmul~;
#X obj 52 7510 gaussian~;
#X obj 50 9100 rec;
#X obj 51 2239 store;
#A saved;
#X obj 51 10695 metronome;
#X obj 51 3763 cmul~;
#N canvas 432 49 979 662 GUI 0;
#X text 40 146 [biplot];
#X text 258 93 [pic] =>;
#X text 619 44 [function] =>;
#X text 825 1164 [display] =>;
#X text 817 1197 [display~] =>;
#X text 70 476 [slider2d];
#X text 616 1126 <= [gain~];
#X text 656 1187 [gain2~] =>;
#X text 49 906 [graph~];
#X text 54 662 [mix2~];
#X text 164 661 [mix4~];
#X text 446 484 [keyboard];
#X text 829 1094 [note];
#X text 261 907 [spectrograph~];
#X text 750 859 [drumseq];
#X text 777 1056 [button] =>;
#X text 585 622 [range.hsl] =>;
#X text 410 669 [meter~];
#X text 491 669 [meter2~];
#X text 578 669 [meter4~];
#X text 691 669 [meter8~];
#X text 617 940 [setdsp~];
#X text 142 37 [mtx.ctl];
#X text 265 475 [circle];
#X text 757 938 [messbox];
#X text 335 41 [pad] =>;
#X text 562 1378 oscilloscope~ =>;
#X obj 37 69 gui;
#X obj 571 89 colors;
#X obj 570 123 openfile;
#X obj 145 59 mtx.ctl;
#X obj 399 25 pad 127 127 255 255 255;
#X obj 320 89 pic 0 empty empty empty 0 0;
#X obj 710 37 function 200 100 empty empty 0 1 220 220 220 50 50 50
0 0 0 0 0 1000 0;
#X obj 74 500 slider2d 127 127 0 127 0 127 1 255 255 255 0 0 0 0 0
0 0 0 empty empty;
#X obj 40 169 biplot;
#X obj 265 498 circle 127 -1 1 -1 1 1 255 255 255 255 255 255 0 0 0
1 0 0 63.5 63.5 empty empty 1;
#X obj 447 509 keyboard 17 80 4 3 0 0 empty empty;
#X obj 682 622 range.hsl;
#X obj 61 687 mix2~;
#X obj 165 687 mix4~;
#X obj 419 687 meter~;
#X obj 492 687 meter2~;
#X obj 575 688 meter4~;
#X obj 692 688 meter8~;
#X obj 754 880 drum.seq;
#X obj 47 930 graph~;
#X obj 259 930 spectrograph~;
#X obj 623 959 setdsp~;
#X obj 762 959 messbox 150 50 235 235 235 0 0 0 0 10;
#X obj 854 1054 button 20 20 255 255 255 128 128 159;
#X obj 832 1109 note 720 20 helvetica empty 0 0 0 0 0 255 255 255 0
0 note;
#X obj 907 1162 display;
#X obj 908 1194 display~;
#X obj 732 1112 gain2~;
#X obj 587 1113 gain~;
#X obj 402 1093 out8~;
#X obj 292 1093 out4~;
#X obj 175 1091 out~;
#X obj 65 1091 out1~;
#X obj 672 1332 oscilloscope~ 200 100 256 3 128 -1 1 0 0 0 0 30 30
30 190 190 190 160 160 160 0 empty;
#X obj 680 1455 multi.vsl;
#X text 590 1484 multi.vsl =>;
#X obj 61 1200 zbiplot;
#X text 71 1173 [zbiplot];
#X restore 62 11660 pd GUI;
#X obj 389 40 switch~;
#X obj 389 24 r \$0-s;
#X obj 45 11 cnv 30 279 30 empty empty ALL\\\ OBJECTS\\\ IN\\\ THE\\\ ELSE\\\ LIBRARY:
12 15 0 14 #e0e0e0 #404040 0;
#X obj 381 19 cnv 40 60 40 empty empty empty 20 12 0 14 #e0e0e0 #404040
0;
#N canvas 475 145 581 295 (subpatch) 0;
#X obj 101 101 cnv 15 92 58 empty empty empty 20 12 0 14 #f9f9f9 #404040
0;
#X obj 33 62 meter;
#X obj 105 108 tgl 20 0 \$0-s \$0-s empty 17 7 0 10 #dfdfdf #000000
#000000 0 1;
#X msg 104 171 \; pd dsp \$1;
#X obj 105 138 nbx 3 16 -1e+37 1e+37 0 0 \$0-x \$0-x empty 0 -8 0 14
#fcfcfc #000000 #000000 0 256;
#X obj 158 137 note 425 14 Menlo empty 0 255 50 85 1 255 50 85 0 0
CPU;
#X obj 132 110 note 425 12 Menlo empty 1 40 35 60 0 255 50 85 0 0 <-
Test;
#X obj 273 101 else;
#X msg 272 54 version;
#X obj 276 26 loadbang;
#X obj 251 135 format symbol %d.%d-%d\ %s-%d;
#X msg 253 163 label \$1;
#X obj 253 203 s \$0-version;
#X connect 1 0 4 0;
#X connect 2 0 3 0;
#X connect 7 0 10 0;
#X connect 8 0 7 0;
#X connect 9 0 8 0;
#X connect 10 0 11 0;
#X connect 11 0 12 0;
#X coords 0 -1 1 1 94 60 2 100 100;
#X restore 361 12 pd;
#X obj 53 225 bin.shift~;
#X obj 166 50 cnv 15 120 28 empty \$0-version 1.0-0\ beta-45 8 14 0
14 #e0e0e0 #404040 0;
#X obj 90 50 cnv 15 80 28 empty empty Version: 8 14 0 14 #e0e0e0 #404040
0;
#X obj 51 2503 midi.learn;
#A saved;
#X obj 51 2841 midi.clock;
#X obj 51 10669 clock;
#X obj 56 11417 tap;
#X obj 349 116 declare -path else;
#X connect 453 0 452 0;
