#N canvas 414 80 485 347 10;
#X declare -path else;
#N canvas 706 129 465 617 \$0-Allpass-stages 0;
#X obj 60 19 inlet~;
#X obj 60 864 outlet~;
#X restore 62 193 pd \$0-Allpass-stages;
#N canvas 652 370 484 311 set 0;
#X obj 199 195 s~ \$0-q;
#X obj 148 265 outlet~;
#X obj 108 91 - 10;
#X obj 63 186 s~ \$0-freq;
#X obj 64 28 inlet~;
#X obj 63 118 clip~ 10;
#X obj 199 29 inlet~;
#X obj 199 135 max~ 0.1;
#X obj 108 67 else/sr~;
#X connect 2 0 5 2;
#X connect 4 0 5 0;
#X connect 5 0 3 0;
#X connect 6 0 7 0;
#X connect 7 0 0 0;
#X connect 8 0 2 0;
#X restore 120 157 pd set;
#X obj 62 51 inlet~;
#X obj 62 246 outlet~;
#X text 221 190 Part of ELSE \; https://github.com/porres/pd-else;
#X text 223 171 Alexandre Torres Porres (2017);
#X obj 120 121 inlet~;
#X obj 120 90 r \$0-hz;
#X obj 175 90 r \$0-q;
#X obj 175 121 inlet~;
#N canvas 723 101 551 466 init 0;
#X obj 149 215 t f f;
#X obj 176 262 sel 0;
#X obj 176 333 f \$0;
#X obj 149 333 + 1;
#X obj 104 122 select 0;
#X obj 149 150 clip 2 64;
#X obj 149 171 / 2;
#X obj 149 192 int;
#X msg 104 183 1;
#X obj 234 419 s pd-\$0-Allpass-stages;
#X msg 149 375 connect \$1 0 1 0, f 8;
#X obj 203 283 expr 50 + 25 * $f1 \; $f1 + 1 \; $f1 + 2;
#X obj 233 334 pack f f f \$0;
#X obj 104 95 unpack float float float;
#X obj 180 122 s \$0-hz;
#X obj 258 122 s \$0-q;
#X obj 104 45 else/args;
#X obj 176 238 else/loop;
#X msg 233 358 obj 60 \$1 else/allpass_unit \$4 \, connect \$2 0 \$3 0;
#X msg 242 388 obj 60 50 else/allpass_unit \$1 \, connect 0 0 2 0;
#X obj 104 69 else/default 1 10 1;
#X obj 104 22 else/lb;
#X connect 0 0 3 0;
#X connect 0 1 17 0;
#X connect 1 0 2 0;
#X connect 1 1 11 0;
#X connect 2 0 19 0;
#X connect 3 0 10 0;
#X connect 4 0 8 0;
#X connect 4 1 5 0;
#X connect 5 0 6 0;
#X connect 6 0 7 0;
#X connect 7 0 0 0;
#X connect 8 0 0 0;
#X connect 10 0 9 0;
#X connect 11 0 12 0;
#X connect 11 1 12 1;
#X connect 11 2 12 2;
#X connect 12 0 18 0;
#X connect 13 0 4 0;
#X connect 13 1 14 0;
#X connect 13 2 15 0;
#X connect 16 0 20 0;
#X connect 17 0 1 0;
#X connect 18 0 9 0;
#X connect 19 0 9 0;
#X connect 20 0 13 0;
#X connect 21 0 16 0;
#X restore 239 121 pd init;
#X obj 276 86 declare -path else;
#X connect 0 0 3 0;
#X connect 1 0 0 0;
#X connect 2 0 0 0;
#X connect 6 0 1 0;
#X connect 7 0 6 0;
#X connect 8 0 9 0;
#X connect 9 0 1 1;
