#N canvas 648 166 629 570 12;
#X declare -path else;
#X obj 390 291 array define \$0-scale;
#X obj 349 245 array max \$0-scale;
#X obj 349 158 t b l l;
#X obj 372 212 array set \$0-scale;
#X obj 423 157 list length;
#X obj 423 181 array size \$0-scale;
#X obj 47 35 inlet;
#X obj 172 266 v i_\$0;
#X obj 172 294 tabread \$0-scale, f 8;
#X obj 172 367 -;
#X obj 149 401 +;
#X obj 149 229 t f b f;
#N canvas 1042 459 424 442 find-index 0;
#X obj 135 35 inlet;
#X obj 196 134 array get \$0-scale, f 9;
#X msg 181 263 1e+20;
#X obj 187 292 f;
#X obj 140 292 min;
#X obj 140 326 change;
#X obj 140 361 t f b;
#X obj 210 326 f;
#X obj 196 208 t f b;
#X obj 210 361 v i_\$0;
#X obj 140 239 -;
#X obj 140 263 abs;
#X obj 135 71 t b f b;
#X msg 298 129 reset;
#X msg 77 258 set -1;
#X obj 196 181 iterate;
#X obj 298 244 count;
#X connect 0 0 12 0;
#X connect 1 0 15 0;
#X connect 2 0 4 1;
#X connect 3 0 4 1;
#X connect 4 0 5 0;
#X connect 5 0 6 0;
#X connect 6 0 3 0;
#X connect 6 1 7 0;
#X connect 7 0 9 0;
#X connect 8 0 10 0;
#X connect 8 1 16 0;
#X connect 10 0 11 0;
#X connect 11 0 4 0;
#X connect 12 0 1 0;
#X connect 12 1 10 1;
#X connect 12 2 13 0;
#X connect 12 2 2 0;
#X connect 12 2 14 0;
#X connect 13 0 16 0;
#X connect 14 0 5 0;
#X connect 15 0 8 0;
#X connect 16 0 7 1;
#X restore 269 323 pd find-index;
#X obj 349 35 inlet;
#N canvas 999 363 434 315 init 0;
#X obj 190 255 outlet;
#X msg 190 166 0 100 200 300 400 500 600 700 800 900 1000 1100 1200
, f 26;
#X obj 60 100 pdcontrol;
#X msg 60 68 args;
#X obj 60 167 route bang list;
#X obj 60 37 lb -init 2, f 19;
#X obj 60 131 break -;
#X connect 1 0 0 0;
#X connect 2 0 6 0;
#X connect 3 0 2 0;
#X connect 4 1 0 0;
#X connect 5 0 3 0;
#X connect 5 1 1 0;
#X connect 6 0 4 0;
#X restore 367 118 pd init;
#X obj 149 515 outlet;
#X text 278 401 Part of ELSE \; https://github.com/porres/pd-else;
#X text 280 382 Alexandre Torres Porres (2020);
#X obj 47 73 route float bypass;
#X obj 114 137 == 0;
#X obj 47 177 router 2 1;
#X obj 269 286 wrap2 0 1200;
#X obj 311 455 declare -path else;
#X connect 1 0 21 2;
#X connect 2 0 1 0;
#X connect 2 1 3 0;
#X connect 2 2 4 0;
#X connect 4 0 5 0;
#X connect 6 0 18 0;
#X connect 7 0 8 0;
#X connect 8 0 9 0;
#X connect 9 0 10 1;
#X connect 10 0 15 0;
#X connect 11 0 10 0;
#X connect 11 1 7 0;
#X connect 11 2 21 0;
#X connect 13 0 2 0;
#X connect 14 0 2 0;
#X connect 18 0 20 0;
#X connect 18 1 19 0;
#X connect 19 0 20 1;
#X connect 20 0 15 0;
#X connect 20 1 11 0;
#X connect 21 0 9 1;
#X connect 21 0 12 0;
