#N canvas 469 83 626 520 12;
#X declare -path else;
#X obj 375 302 array define \$0-scale;
#X f 22;
#X obj 237 270 - 60;
#X obj 339 238 array max \$0-scale;
#X obj 339 266 / 100;
#X obj 339 126 t b l l;
#X obj 362 186 array set \$0-scale;
#X obj 413 125 list length;
#X obj 413 149 array size \$0-scale;
#X obj 35 45 inlet;
#X obj 160 259 v i_\$0;
#X obj 160 284 tabread \$0-scale, f 8;
#X obj 160 321 / 100;
#X obj 160 360 -;
#X obj 142 394 +;
#X obj 137 222 t f b f;
#N canvas 919 446 424 442 find-index 0;
#X obj 135 35 inlet;
#X obj 196 134 array get \$0-scale, f 9;
#X obj 135 62 * 100;
#X msg 181 263 1e+20;
#X obj 187 292 f;
#X obj 140 292 min;
#X obj 140 326 change;
#X obj 140 361 t f b;
#X obj 210 326 f;
#X obj 196 208 t f b;
#X obj 210 361 v i_\$0;
#X obj 140 239 -;
#X obj 140 263 abs;
#X obj 135 91 t b f b;
#X msg 284 132 reset;
#X msg 77 258 set -1;
#X obj 196 182 else/iterate;
#X obj 228 239 else/count;
#X connect 0 0 2 0;
#X connect 1 0 16 0;
#X connect 2 0 13 0;
#X connect 3 0 5 1;
#X connect 4 0 5 1;
#X connect 5 0 6 0;
#X connect 6 0 7 0;
#X connect 7 0 4 0;
#X connect 7 1 8 0;
#X connect 8 0 10 0;
#X connect 9 0 11 0;
#X connect 9 1 17 0;
#X connect 11 0 12 0;
#X connect 12 0 5 0;
#X connect 13 0 1 0;
#X connect 13 1 11 1;
#X connect 13 2 14 0;
#X connect 13 2 3 0;
#X connect 13 2 15 0;
#X connect 14 0 17 0;
#X connect 15 0 6 0;
#X connect 16 0 9 0;
#X connect 17 0 8 1;
#X restore 237 336 pd find-index;
#X obj 339 45 inlet;
#N canvas 575 171 567 431 init 0;
#X obj 157 373 outlet;
#X obj 128 166 list split 1;
#X obj 168 204 route bang;
#X obj 128 232 s \$0-base;
#X obj 74 57 else/args -;
#X obj 74 87 else/default 0 100 200 300 400 500 600 700 800 900 1000 1100 1200, f 65;
#X obj 74 30 else/lb;
#X obj 74 123 route list -base;
#X connect 1 0 3 0;
#X connect 1 1 2 0;
#X connect 2 1 0 0;
#X connect 4 0 5 0;
#X connect 5 0 7 0;
#X connect 6 0 4 0;
#X connect 7 0 0 0;
#X connect 7 1 1 0;
#X restore 350 91 pd init;
#X obj 142 458 outlet;
#X obj 262 204 r \$0-base;
#X text 247 395 Part of ELSE \; https://github.com/porres/pd-else;
#X text 249 376 Alexandre Torres Porres (2020);
#X obj 35 93 route float bypass base;
#X obj 88 134 == 0;
#X obj 237 299 else/wrap2 0 12;
#X obj 35 171 else/router 2 1;
#X obj 443 85 declare -path else;
#X connect 1 0 24 0;
#X connect 2 0 3 0;
#X connect 3 0 24 2;
#X connect 4 0 2 0;
#X connect 4 1 5 0;
#X connect 4 2 6 0;
#X connect 6 0 7 0;
#X connect 8 0 22 0;
#X connect 9 0 10 0;
#X connect 10 0 11 0;
#X connect 11 0 12 0;
#X connect 12 0 13 1;
#X connect 13 0 18 0;
#X connect 14 0 13 0;
#X connect 14 1 9 0;
#X connect 14 2 1 0;
#X connect 16 0 4 0;
#X connect 17 0 4 0;
#X connect 19 0 1 1;
#X connect 22 0 25 0;
#X connect 22 1 23 0;
#X connect 22 2 1 1;
#X connect 23 0 25 1;
#X connect 24 0 12 1;
#X connect 24 0 15 0;
#X connect 25 0 18 0;
#X connect 25 1 14 0;
