#N canvas 476 130 482 232 10;
#X declare -path else;
#X obj 50 45 inlet~;
#X obj 103 45 inlet~;
#X obj 155 45 inlet~;
#X obj 78 163 outlet~;
#X obj 246 69 block~ 64 1 16;
#X text 227 117 Part of ELSE \; https://github.com/porres/pd-else;
#X text 229 98 Alexandre Torres Porres (2018);
#N canvas 757 324 450 300 init 0;
#X obj 151 122 unpack;
#X obj 148 174 outlet;
#X obj 171 149 outlet;
#X obj 147 84 args;
#X obj 147 48 lb;
#X connect 0 0 1 0;
#X connect 0 1 2 0;
#X connect 3 0 0 0;
#X connect 4 0 3 0;
#X restore 50 15 pd init;
#X f 18;
#X obj 78 132 brickwall~;
#X obj 78 102 saw~;
#X obj 243 39 declare -path else;
#X connect 0 0 9 0;
#X connect 1 0 9 1;
#X connect 2 0 9 2;
#X connect 7 0 0 0;
#X connect 7 1 2 0;
#X connect 8 0 3 0;
#X connect 9 0 8 0;
