#N canvas 643 257 482 232 10;
#X declare -path else;
#X obj 40 45 inlet~;
#X obj 92 45 inlet~;
#X obj 145 45 inlet~;
#X obj 78 163 outlet~;
#X obj 265 82 block~ 64 1 16;
#X text 246 130 Part of ELSE \; https://github.com/porres/pd-else;
#X text 248 111 Alexandre Torres Porres (2018);
#X obj 193 47 inlet~;
#N canvas 383 273 450 300 init 0;
#X obj 148 174 outlet;
#X obj 188 161 outlet;
#X obj 151 122 unpack f f f;
#X obj 232 159 outlet;
#X msg 241 84 0.5;
#X obj 147 84 args;
#X obj 148 48 lb 2;
#X connect 2 0 0 0;
#X connect 2 1 1 0;
#X connect 2 2 3 0;
#X connect 4 0 1 0;
#X connect 5 0 2 0;
#X connect 6 0 5 0;
#X connect 6 1 4 0;
#X restore 50 15 pd init;
#X f 18;
#X obj 78 132 brickwall~;
#X obj 78 102 square~;
#X obj 263 53 declare -path else;
#X connect 0 0 10 0;
#X connect 1 0 10 1;
#X connect 2 0 10 2;
#X connect 7 0 10 3;
#X connect 8 0 0 0;
#X connect 8 1 1 0;
#X connect 8 2 7 0;
#X connect 9 0 3 0;
#X connect 10 0 9 0;
