#N canvas 678 269 470 248 10;
#X declare -path else;
#X obj 156 78 inlet~;
#X obj 204 78 inlet~;
#X obj 119 187 outlet~;
#X obj 272 113 block~ 64 1 16;
#X text 253 161 Part of ELSE \; https://github.com/porres/pd-else;
#X text 255 142 Alexandre Torres Porres (2018);
#X obj 119 126 wavetable~ \$1;
#N canvas 235 319 450 300 init 0;
#X obj 147 84 args;
#X obj 188 161 outlet;
#X obj 232 159 outlet;
#X obj 151 122 unpack s f f;
#X obj 147 47 lb -init;
#X connect 0 0 3 0;
#X connect 3 1 1 0;
#X connect 3 2 2 0;
#X connect 4 0 0 0;
#X restore 62 51 pd init;
#X f 22;
#X obj 286 76 declare -path else;
#X obj 119 156 brickwall~;
#X obj 62 79 inlet~ fwd;
#X connect 0 0 6 1;
#X connect 1 0 6 2;
#X connect 6 0 9 0;
#X connect 7 0 10 0;
#X connect 7 1 1 0;
#X connect 9 0 2 0;
#X connect 10 0 6 0;
#X connect 10 1 6 0;
