#N canvas 280 110 535 417 12;
#X declare -path else;
#X obj 125 292 +;
#X obj 125 32 inlet;
#X obj 125 356 outlet;
#X obj 337 109 declare -path else;
#X text 274 217 Part of ELSE \; https://github.com/porres/pd-else;
#X text 276 198 Alexandre Torres Porres (2022);
#N canvas 598 200 341 306 init 0;
#X obj 136 41 loadbang;
#X obj 136 75 else/args -;
#X obj 136 106 route -seed float;
#X obj 76 150 list split 1;
#X obj 142 241 s \$0-seed;
#X obj 194 183 s \$0-step;
#X obj 194 134 abs;
#X msg 142 215 seed \$1;
#X obj 194 158 clip 0 1;
#X obj 76 187 else/swap2;
#X connect 0 0 1 0;
#X connect 1 0 2 0;
#X connect 2 0 3 0;
#X connect 2 1 6 0;
#X connect 3 0 9 0;
#X connect 3 1 9 1;
#X connect 6 0 8 0;
#X connect 7 0 4 0;
#X connect 8 0 5 0;
#X connect 9 0 2 0;
#X connect 9 1 7 0;
#X restore 260 152 pd init;
#X obj 171 225 r \$0-step;
#X obj 42 144 r \$0-seed;
#X obj 125 192 else/rand.f -1 1;
#X obj 125 256 * 0.125;
#N canvas 584 203 432 240 seed 0;
#X obj 161 38 inlet;
#X obj 161 73 route bang float;
#X msg 161 111 seed;
#X msg 215 111 seed \$1;
#X obj 215 162 s \$0-seed;
#X connect 0 0 1 0;
#X connect 1 0 2 0;
#X connect 1 1 3 0;
#X connect 2 0 4 0;
#X connect 3 0 4 0;
#X restore 173 109 pd seed;
#N canvas 663 178 432 240 step 0;
#X obj 161 38 inlet;
#X obj 161 119 s \$0-step;
#X obj 161 70 abs;
#X obj 161 94 clip 0 1;
#X connect 0 0 2 0;
#X connect 2 0 3 0;
#X connect 3 0 1 0;
#X restore 237 109 pd step;
#X obj 125 78 route bang seed float;
#X obj 169 295 else/fold -1 1;
#X msg 42 244 0;
#X obj 125 325 else/rescale -in -1 1 0 127;
#X connect 0 0 14 0;
#X connect 0 0 16 0;
#X connect 1 0 13 0;
#X connect 7 0 10 1;
#X connect 8 0 9 0;
#X connect 8 0 15 0;
#X connect 9 0 10 0;
#X connect 10 0 0 0;
#X connect 13 0 9 0;
#X connect 13 1 11 0;
#X connect 13 2 12 0;
#X connect 14 0 0 1;
#X connect 15 0 0 1;
#X connect 16 0 2 0;
