#N canvas 632 186 572 331 12;
#X declare -path else;
#X obj 119 37 inlet;
#X text 305 128 Part of ELSE \; https://github.com/porres/pd-else;
#X text 307 109 Alexandre Torres Porres (2019);
#X obj 46 37 inlet~;
#X obj 46 294 outlet~;
#X obj 177 37 inlet;
#X obj 235 37 inlet;
#N canvas 209 296 493 395 set-parameters 0;
#X obj 163 34 inlet;
#X obj 215 247 clip 0 200;
#X obj 215 275 s \$0-depth;
#X obj 163 315 s \$0-rate;
#X obj 51 103 args;
#X obj 51 130 unpack f f f;
#X obj 215 34 inlet;
#X obj 269 34 inlet;
#X obj 269 189 - 1;
#X obj 269 162 clip 0 1;
#X obj 269 217 s \$0-wet;
#X obj 51 78 lb -init;
#X connect 0 0 3 0;
#X connect 1 0 2 0;
#X connect 4 0 5 0;
#X connect 5 0 3 0;
#X connect 5 1 1 0;
#X connect 5 2 9 0;
#X connect 6 0 1 0;
#X connect 7 0 9 0;
#X connect 8 0 10 0;
#X connect 9 0 8 0;
#X connect 11 0 4 0;
#X restore 119 72 pd set-parameters;
#X obj 89 168 rescale~ 0;
#X obj 89 114 r \$0-rate;
#X obj 46 245 comb.rev~ 200 1 1, f 25;
#X obj 191 112 r \$0-depth;
#X obj 218 189 r \$0-wet;
#X obj 89 142 osc~;
#X obj 218 215 f2s~ 10;
#X obj 191 141 f2s~ 10;
#X obj 363 66 declare -path else;
#X connect 0 0 7 0;
#X connect 3 0 10 0;
#X connect 5 0 7 1;
#X connect 6 0 7 2;
#X connect 8 0 10 1;
#X connect 9 0 13 0;
#X connect 10 0 4 0;
#X connect 11 0 15 0;
#X connect 12 0 14 0;
#X connect 13 0 8 0;
#X connect 14 0 10 4;
#X connect 15 0 8 2;
