#N canvas 654 244 524 446 12;
#X declare -path else;
#N canvas 753 33 585 655 set 0;
#X obj 82 34 inlet;
#X obj 336 472 s \$0-attack;
#X obj 368 445 s \$0-release;
#X obj 185 118 args;
#X obj 402 338 s \$0-size;
#X obj 82 150 route thresh ratio attack release gain size, f 12;
#X obj 185 150 route -size;
#X obj 402 282 clip 1 512;
#X msg 402 310 size \$1;
#X msg 287 151 -10 1 10 10 0;
#X obj 273 181 unpack f f f f f f;
#X obj 273 553 f2s~ 10;
#X obj 273 582 s~ \$0-thresh;
#X obj 304 523 s \$0-ratio;
#X obj 304 498 max 1;
#X obj 382 365 db2lin;
#X obj 382 391 f2s~ 10;
#X obj 382 416 s~ \$0-gain;
#X obj 185 80 lb -init 2;
#X connect 0 0 5 0;
#X connect 3 0 6 0;
#X connect 5 0 11 0;
#X connect 5 1 14 0;
#X connect 5 2 1 0;
#X connect 5 3 2 0;
#X connect 5 4 15 0;
#X connect 5 5 7 0;
#X connect 6 0 7 0;
#X connect 6 1 10 0;
#X connect 7 0 8 0;
#X connect 8 0 4 0;
#X connect 9 0 10 0;
#X connect 10 0 11 0;
#X connect 10 1 14 0;
#X connect 10 2 1 0;
#X connect 10 3 2 0;
#X connect 10 4 15 0;
#X connect 10 5 7 0;
#X connect 11 0 12 0;
#X connect 14 0 13 0;
#X connect 15 0 16 0;
#X connect 16 0 17 0;
#X connect 18 0 3 0;
#X connect 18 1 9 0;
#X restore 346 51 pd set;
#X text 259 278 Part of ELSE \; https://github.com/porres/pd-else;
#X text 261 259 Alexandre Torres Porres (2019);
#X obj 231 196 r \$0-release;
#X obj 132 404 outlet~;
#X obj 132 306 *~;
#X obj 231 221 r \$0-attack;
#X obj 150 119 -~;
#X obj 192 164 f2s~ 10;
#X obj 192 109 r \$0-ratio;
#X obj 132 373 *~;
#X obj 192 136 expr 1 - 1/$f1;
#X obj 150 164 *~;
#X obj 150 198 min~ 0;
#X obj 150 275 db2lin~;
#X obj 249 404 outlet;
#X obj 168 79 mov.rms~ 512 -db;
#X obj 174 51 r \$0-size;
#X obj 34 73 r~ \$0-thresh;
#X obj 150 346 r~ \$0-gain;
#X obj 249 346 rms~ 1024 -db;
#X obj 150 245 glide2~;
#X obj 132 20 inlet~ fwd, f 28;
#X obj 362 147 declare -path else;
#X connect 3 0 21 1;
#X connect 5 0 10 0;
#X connect 6 0 21 2;
#X connect 7 0 12 0;
#X connect 8 0 12 1;
#X connect 9 0 11 0;
#X connect 10 0 4 0;
#X connect 11 0 8 0;
#X connect 12 0 13 0;
#X connect 13 0 21 0;
#X connect 14 0 5 1;
#X connect 14 0 20 0;
#X connect 16 0 7 1;
#X connect 17 0 16 0;
#X connect 18 0 7 0;
#X connect 19 0 10 1;
#X connect 20 0 15 0;
#X connect 21 0 14 0;
#X connect 22 0 5 0;
#X connect 22 0 16 0;
#X connect 22 1 0 0;
