#N canvas 769 303 428 260 10;
#X declare -path else;
#X obj 36 33 inlet;
#X obj 37 211 outlet;
#X obj 92 34 inlet;
#N canvas 660 601 409 277 args 0;
#X obj 106 37 inlet;
#X obj 119 120 args;
#X obj 119 144 break -;
#N canvas 397 319 274 254 default 0;
#X obj 91 52 inlet;
#X msg 107 101 2;
#X obj 107 149 s \$0-max;
#X obj 107 124 pow 24;
#X obj 63 173 v dir_\$0;
#X msg 63 143 1;
#X msg 166 99 0;
#X obj 166 124 s \$0-min;
#X connect 0 0 1 0;
#X connect 0 0 5 0;
#X connect 0 0 6 0;
#X connect 1 0 3 0;
#X connect 3 0 2 0;
#X connect 5 0 4 0;
#X connect 6 0 7 0;
#X restore 224 123 pd default;
#N canvas 354 256 343 235 flags 0;
#X obj 88 31 inlet;
#X obj 88 117 v alt_\$0;
#X msg 88 90 1;
#X obj 88 62 route -alt -reset;
#X obj 203 114 r \$0-min;
#X obj 156 111 moses;
#X obj 202 143 s \$0-min;
#X obj 156 144 t f f;
#X obj 156 171 s \$0-reset;
#X obj 137 86 route float;
#X connect 0 0 3 0;
#X connect 2 0 1 0;
#X connect 3 0 2 0;
#X connect 3 1 9 0;
#X connect 4 0 5 1;
#X connect 5 0 7 0;
#X connect 5 1 8 0;
#X connect 7 0 8 0;
#X connect 7 1 6 0;
#X connect 9 0 5 0;
#X restore 212 200 pd flags;
#N canvas 1134 677 423 279 set-args 0;
#X obj 139 38 inlet;
#X obj 139 93 list length;
#X obj 238 93 s \$0-args;
#X obj 139 70 trigger list list;
#X obj 139 126 select 1 2 3;
#N canvas 1197 334 311 351 set-max 0;
#X obj 89 31 inlet;
#X obj 165 172 list;
#X obj 186 148 r \$0-args;
#X obj 165 222 s \$0-max;
#X obj 165 195 + 1;
#X msg 74 178 0;
#X obj 99 230 s \$0-min;
#X obj 72 257 s \$0-reset;
#X obj 72 201 t f f;
#X obj 89 136 t b b;
#X obj 89 107 change;
#X obj 104 55 r \$0-args;
#X obj 89 83 f;
#X msg 118 82 \$1;
#X connect 0 0 12 0;
#X connect 1 0 4 0;
#X connect 2 0 1 1;
#X connect 4 0 3 0;
#X connect 5 0 8 0;
#X connect 8 0 7 0;
#X connect 8 1 6 0;
#X connect 9 0 5 0;
#X connect 9 1 1 0;
#X connect 10 0 9 0;
#X connect 11 0 13 0;
#X connect 12 0 10 0;
#X connect 13 0 12 1;
#X restore 139 192 pd set-max;
#N canvas 659 628 520 410 set-min-max 0;
#X obj 84 92 list;
#X obj 105 68 r \$0-args;
#X obj 84 43 inlet;
#X obj 176 340 s \$0-max;
#X obj 112 325 s \$0-min;
#X obj 176 319 + 1;
#X obj 85 352 s \$0-reset;
#X obj 85 296 t f f;
#X obj 84 139 >;
#X obj 85 247 list;
#X obj 106 223 r \$0-args;
#X obj 85 272 unpack f f;
#X obj 251 308 s \$0-min;
#X obj 251 213 list;
#X obj 272 189 r \$0-args;
#X obj 84 114 unpack;
#X obj 251 253 swap;
#X msg 182 222 -1;
#X obj 182 247 v dir_\$0;
#X obj 84 167 select 0 1;
#X obj 297 277 s \$0-reset;
#X obj 297 228 t f f;
#X obj 342 249 s \$0-max;
#X obj 342 228 + 1;
#X connect 0 0 15 0;
#X connect 1 0 0 1;
#X connect 2 0 0 0;
#X connect 5 0 3 0;
#X connect 7 0 6 0;
#X connect 7 1 4 0;
#X connect 8 0 19 0;
#X connect 9 0 11 0;
#X connect 10 0 9 1;
#X connect 11 0 7 0;
#X connect 11 1 5 0;
#X connect 13 0 16 0;
#X connect 14 0 13 1;
#X connect 15 0 8 0;
#X connect 15 1 8 1;
#X connect 16 0 12 0;
#X connect 16 1 21 0;
#X connect 17 0 18 0;
#X connect 19 0 9 0;
#X connect 19 1 13 0;
#X connect 19 1 17 0;
#X connect 21 0 20 0;
#X connect 21 1 23 0;
#X connect 23 0 22 0;
#X restore 162 171 pd set-min-max;
#N canvas 636 125 530 482 set-all 0;
#X obj 109 83 list;
#X obj 130 59 r \$0-args;
#X obj 109 34 inlet;
#X obj 109 130 >;
#X obj 109 243 list;
#X obj 109 105 unpack;
#X obj 198 365 s \$0-max;
#X obj 164 391 s \$0-min;
#X obj 198 344 + 1;
#X obj 164 307 unpack f f f;
#X obj 65 390 s \$0-reset;
#X obj 65 362 f;
#X obj 65 279 trigger bang list;
#X obj 266 236 list;
#X obj 287 198 r \$0-args;
#X obj 365 293 unpack f f f;
#X obj 266 376 s \$0-reset;
#X obj 266 348 f;
#X obj 266 265 trigger bang list;
#X obj 399 383 s \$0-max;
#X obj 378 409 s \$0-min;
#X obj 399 362 + 1;
#X obj 378 337 swap;
#X obj 109 158 select 0 1;
#X msg 203 247 -1;
#X obj 203 272 v dir_\$0;
#X connect 0 0 5 0;
#X connect 1 0 0 1;
#X connect 2 0 0 0;
#X connect 3 0 23 0;
#X connect 4 0 12 0;
#X connect 5 0 3 0;
#X connect 5 1 3 1;
#X connect 8 0 6 0;
#X connect 9 0 7 0;
#X connect 9 1 8 0;
#X connect 9 2 11 1;
#X connect 11 0 10 0;
#X connect 12 0 11 0;
#X connect 12 1 9 0;
#X connect 13 0 18 0;
#X connect 14 0 13 1;
#X connect 14 0 4 1;
#X connect 15 0 22 0;
#X connect 15 1 22 1;
#X connect 15 2 17 1;
#X connect 17 0 16 0;
#X connect 18 0 17 0;
#X connect 18 1 15 0;
#X connect 21 0 19 0;
#X connect 22 0 20 0;
#X connect 22 1 21 0;
#X connect 23 0 4 0;
#X connect 23 1 13 0;
#X connect 23 1 24 0;
#X connect 24 0 25 0;
#X restore 185 149 pd set-all;
#X connect 0 0 3 0;
#X connect 1 0 4 0;
#X connect 3 0 1 0;
#X connect 3 1 2 0;
#X connect 4 0 5 0;
#X connect 4 1 6 0;
#X connect 4 2 7 0;
#X restore 105 200 pd set-args;
#X obj 119 171 route float list;
#X obj 119 95 loadbanger -init 2;
#X connect 0 0 5 0;
#X connect 1 0 2 0;
#X connect 2 0 6 0;
#X connect 6 0 5 0;
#X connect 6 1 5 0;
#X connect 6 2 4 0;
#X connect 7 0 1 0;
#X connect 7 1 3 0;
#X restore 92 69 pd args;
#X obj 112 155 wrap2;
#X obj 140 128 r \$0-min;
#X obj 189 155 r \$0-max;
#X obj 112 106 r \$0-wrap;
#X obj 37 99 r \$0-count;
#N canvas 105 524 406 328 set 0;
#X obj 59 13 inlet;
#X obj 89 168 t b f;
#X obj 178 191 r \$0-reset;
#X obj 164 216 f;
#X obj 128 169 route float;
#X obj 128 243 s \$0-wrap;
#X obj 59 243 s \$0-count;
#X msg 180 98 1;
#X msg 210 98 -1;
#X obj 241 124 v alt_\$0;
#X obj 59 41 route bang float set reset up down alt min max;
#X obj 271 101 s \$0-min;
#X obj 301 82 s \$0-max;
#X obj 301 61 + 1;
#X obj 241 77 != 0;
#N canvas 833 210 502 543 dir 0;
#X obj 265 41 inlet;
#X obj 293 178 s \$0-wrap;
#X obj 265 94 v alt_\$0;
#X obj 293 144 expr i_\$0 + dir_\$0;
#X obj 265 121 select 1 0;
#X obj 265 208 expr i_\$0 + dir_\$0;
#X obj 265 244 >;
#X obj 300 234 r \$0-max;
#X msg 293 308 -1;
#X obj 320 355 v dir_\$0;
#X obj 293 332 t b f;
#X obj 293 378 s \$0-dir-change;
#X obj 265 283 select 0 1;
#X obj 151 321 expr i_\$0 + dir_\$0;
#X obj 206 458 v dir_\$0;
#X obj 179 435 t b f;
#X obj 179 481 s \$0-dir-change;
#X obj 151 386 select 0 1;
#X obj 151 347 <;
#X obj 183 358 r \$0-min;
#X msg 179 411 1;
#X obj 47 474 s \$0-wrap;
#X obj 47 447 expr i_\$0 + dir_\$0;
#X obj 300 255 - 1;
#X obj 370 92 v dir_\$0;
#X obj 265 66 trigger bang float;
#X connect 0 0 25 0;
#X connect 2 0 4 0;
#X connect 3 0 1 0;
#X connect 4 0 5 0;
#X connect 4 1 3 0;
#X connect 5 0 6 0;
#X connect 6 0 12 0;
#X connect 7 0 23 0;
#X connect 8 0 10 0;
#X connect 10 0 11 0;
#X connect 10 1 9 0;
#X connect 12 0 13 0;
#X connect 12 1 8 0;
#X connect 13 0 18 0;
#X connect 15 0 16 0;
#X connect 15 1 14 0;
#X connect 17 0 22 0;
#X connect 17 1 20 0;
#X connect 18 0 17 0;
#X connect 19 0 18 1;
#X connect 20 0 15 0;
#X connect 22 0 21 0;
#X connect 23 0 6 1;
#X connect 25 0 2 0;
#X connect 25 1 24 0;
#X restore 180 136 pd dir;
#X connect 0 0 10 0;
#X connect 1 0 6 0;
#X connect 1 1 5 0;
#X connect 2 0 3 0;
#X connect 3 0 5 0;
#X connect 4 0 5 0;
#X connect 7 0 15 0;
#X connect 8 0 15 0;
#X connect 10 0 6 0;
#X connect 10 1 1 0;
#X connect 10 2 4 0;
#X connect 10 3 3 0;
#X connect 10 4 7 0;
#X connect 10 5 8 0;
#X connect 10 6 14 0;
#X connect 10 7 11 0;
#X connect 10 8 13 0;
#X connect 13 0 12 0;
#X connect 14 0 9 0;
#X restore 36 69 pd set;
#X obj 37 132 float;
#N canvas 634 219 533 545 inc 0;
#X obj 233 11 inlet;
#X obj 261 181 s \$0-wrap;
#X obj 233 97 v alt_\$0;
#X obj 361 65 v i_\$0;
#X obj 261 147 expr i_\$0 + dir_\$0;
#X obj 233 124 select 1 0;
#X obj 233 211 expr i_\$0 + dir_\$0;
#X obj 233 247 >;
#X obj 268 237 r \$0-max;
#X obj 253 65 r \$0-dir-change;
#X obj 233 35 trigger bang float;
#X msg 261 311 -1;
#X obj 288 358 v dir_\$0;
#X obj 261 335 t b f;
#X obj 261 381 s \$0-dir-change;
#X obj 233 286 select 0 1;
#X obj 119 324 expr i_\$0 + dir_\$0;
#X obj 174 461 v dir_\$0;
#X obj 147 438 t b f;
#X obj 147 484 s \$0-dir-change;
#X obj 119 389 select 0 1;
#X obj 119 350 <;
#X obj 151 361 r \$0-min;
#X msg 147 414 1;
#X obj 15 477 s \$0-wrap;
#X obj 15 450 expr i_\$0 + dir_\$0;
#X obj 268 258 - 1;
#X obj 241 406 s \$0-bang;
#X obj 129 508 s \$0-bang;
#X obj 357 175 expr $f1 < $f2 || $f1 > ($f3 - 1), f 17;
#X obj 464 153 r \$0-max;
#X obj 406 153 r \$0-min;
#X obj 357 209 sel 1;
#X obj 357 233 s \$0-bang;
#X connect 0 0 10 0;
#X connect 2 0 5 0;
#X connect 4 0 1 0;
#X connect 4 0 29 0;
#X connect 5 0 6 0;
#X connect 5 1 4 0;
#X connect 6 0 7 0;
#X connect 7 0 15 0;
#X connect 8 0 26 0;
#X connect 9 0 2 0;
#X connect 10 0 2 0;
#X connect 10 1 3 0;
#X connect 11 0 13 0;
#X connect 13 0 14 0;
#X connect 13 0 27 0;
#X connect 13 1 12 0;
#X connect 15 0 16 0;
#X connect 15 1 11 0;
#X connect 16 0 21 0;
#X connect 18 0 19 0;
#X connect 18 0 28 0;
#X connect 18 1 17 0;
#X connect 20 0 25 0;
#X connect 20 1 23 0;
#X connect 21 0 20 0;
#X connect 22 0 21 1;
#X connect 23 0 18 0;
#X connect 25 0 24 0;
#X connect 26 0 7 1;
#X connect 29 0 32 0;
#X connect 30 0 29 2;
#X connect 31 0 29 1;
#X connect 32 0 33 0;
#X restore 52 167 pd inc;
#X obj 114 185 r \$0-bang;
#X obj 114 211 outlet;
#X text 203 84 Part of ELSE \; https://github.com/porres/pd-else;
#X text 205 67 Alexandre Torres Porres (2018);
#X obj 276 152 declare -path else;
#X connect 0 0 9 0;
#X connect 2 0 3 0;
#X connect 4 0 10 1;
#X connect 5 0 4 1;
#X connect 6 0 4 2;
#X connect 7 0 4 0;
#X connect 8 0 10 0;
#X connect 10 0 1 0;
#X connect 10 0 11 0;
#X connect 12 0 13 0;
