#N canvas 716 39 698 758 10;
#X declare -path else;
#X obj 300 430 mod;
#X obj 350 298 /;
#X obj 350 318 int;
#X obj 318 492 f;
#X msg 377 268 -1;
#X obj 300 378 spigot;
#X obj 249 402 t a;
#X obj 350 378 != -1;
#X msg 319 318 0;
#X obj 392 378 sel -1;
#X obj 281 133 int;
#X obj 472 325 expr $f1*$f2+$f4 \; $f1*$f3+$f5 \; $f2 \; $f3;
#X msg 492 238 1 0 0 1;
#X obj 472 385 t f f;
#X obj 472 492 list;
#X obj 472 463 sel 1;
#X obj 401 492 list;
#X obj 123 31 inlet;
#X obj 281 109 * 100000;
#X obj 472 439 <= 1000;
#X obj 401 578 unite /;
#X obj 300 403 unpack;
#X obj 300 453 t b f;
#X obj 492 262 unpack f f f f;
#X obj 472 293 pack f f f f f;
#X obj 541 439 pack;
#X obj 281 184 t b a b;
#X obj 300 259 t a b a;
#X obj 401 458 r \$0-done;
#X obj 281 227 s \$0-done;
#X obj 123 229 s \$0-res;
#X obj 588 359 r \$0-res;
#X obj 281 157 pack f 100000;
#X obj 123 129 route res, f 15;
#X obj 281 84 iterate;
#X obj 318 518 pack f f;
#X obj 401 528 router;
#X obj 209 637 group;
#X obj 209 668 outlet;
#X obj 209 168 t b a;
#X text 412 145 Part of ELSE \; https://github.com/porres/pd-else;
#X text 414 126 Alexandre Torres Porres (2021);
#X obj 37 92 lb -init;
#X obj 37 128 args -;
#X msg 37 220 1;
#X obj 37 158 route -list;
#X obj 123 189 t f;
#X obj 47 188 route float;
#X obj 588 380 max 10;
#X obj 444 91 declare -path else;
#X connect 0 0 22 0;
#X connect 1 0 2 0;
#X connect 2 0 7 0;
#X connect 2 0 9 0;
#X connect 3 0 35 0;
#X connect 4 0 7 1;
#X connect 4 0 9 1;
#X connect 5 0 21 0;
#X connect 6 0 27 0;
#X connect 7 0 5 1;
#X connect 8 0 7 1;
#X connect 8 0 9 1;
#X connect 9 1 24 0;
#X connect 10 0 32 0;
#X connect 11 0 13 0;
#X connect 11 1 24 2;
#X connect 11 1 25 1;
#X connect 11 2 24 3;
#X connect 11 3 24 4;
#X connect 12 0 23 0;
#X connect 13 0 19 0;
#X connect 13 1 25 0;
#X connect 13 1 24 1;
#X connect 14 0 16 1;
#X connect 15 0 14 0;
#X connect 16 0 36 0;
#X connect 17 0 33 0;
#X connect 18 0 10 0;
#X connect 19 0 15 0;
#X connect 20 0 37 0;
#X connect 21 0 0 0;
#X connect 21 1 0 1;
#X connect 21 1 3 1;
#X connect 22 0 3 0;
#X connect 22 1 35 1;
#X connect 23 0 24 1;
#X connect 23 1 24 2;
#X connect 23 2 24 3;
#X connect 23 3 24 4;
#X connect 24 0 11 0;
#X connect 25 0 14 1;
#X connect 26 0 29 0;
#X connect 26 1 27 0;
#X connect 26 2 12 0;
#X connect 26 2 4 0;
#X connect 27 0 5 0;
#X connect 27 1 8 0;
#X connect 27 2 1 0;
#X connect 28 0 16 0;
#X connect 31 0 48 0;
#X connect 32 0 26 0;
#X connect 33 0 46 0;
#X connect 33 1 39 0;
#X connect 34 0 18 0;
#X connect 35 0 6 0;
#X connect 36 0 20 0;
#X connect 36 1 37 0;
#X connect 37 0 38 0;
#X connect 39 0 37 0;
#X connect 39 1 34 0;
#X connect 42 0 43 0;
#X connect 43 0 45 0;
#X connect 44 0 36 1;
#X connect 45 0 44 0;
#X connect 45 0 47 0;
#X connect 45 1 46 0;
#X connect 46 0 30 0;
#X connect 47 0 30 0;
#X connect 48 0 19 1;
