#N struct 1003-slot float x float y float slotsize float color float
width float bordercolor;
#N canvas 366 158 844 445 10;
#X declare -path else;
#X obj 59 15 inlet;
#N canvas 64 320 854 454 \$0-paint 0;
#X scalar 1003-slot 0 0 19 999 4 0 \;;
#X scalar 1003-slot 0 20 19 999 4 0 \;;
#X scalar 1003-slot 20 0 19 999 1 0 \;;
#X scalar 1003-slot 20 20 19 999 1 0 \;;
#X scalar 1003-slot 40 0 19 999 1 0 \;;
#X scalar 1003-slot 40 20 19 999 1 0 \;;
#X scalar 1003-slot 60 0 19 999 1 0 \;;
#X scalar 1003-slot 60 20 19 999 1 0 \;;
#X scalar 1003-slot 80 0 19 999 1 0 \;;
#X scalar 1003-slot 80 20 19 999 1 0 \;;
#X scalar 1003-slot 100 0 19 999 1 0 \;;
#X scalar 1003-slot 100 20 19 999 1 0 \;;
#X scalar 1003-slot 120 0 19 999 1 0 \;;
#X scalar 1003-slot 120 20 19 999 1 0 \;;
#X scalar 1003-slot 140 0 19 999 1 0 \;;
#X scalar 1003-slot 140 20 19 999 1 0 \;;
#X coords 0 39 159 0 159 39 2 150 150;
#X restore 151 151 pd \$0-paint;
#X obj 59 231 outlet;
#N canvas 876 114 560 264 guts 0;
#X obj 81 26 inlet;
#N canvas 361 345 581 577 \$0-slot 0;
#X obj 73 135 v size_\$0;
#X obj 73 162 - 1;
#X obj 73 188 set \$0-slot slotsize;
#X obj 223 272 expr $f1 / size_\$0 \; tracks_\$0 - 1 - $f2 / size_\$0
;
#X obj 223 178 spigot 1;
#X msg 268 155 0;
#X msg 302 174 1;
#X obj 302 150 del 100;
#X obj 223 242 get \$0-slot x y;
#X obj 250 444 set \$0-slot color, f 31;
#X obj 73 106 select change;
#X obj 223 334 expr seq_\$0[$f1] = (seq_\$0[$f1] == 0), f 19;
#X obj 196 103 t b p;
#X obj 73 79 unpack symbol pointer;
#X obj 223 309 expr $f1 + $f2 * slots_\$0;
#X obj 223 469 array get seq_\$0, f 17;
#X obj 223 513 s \$0-set-array;
#X obj 223 211 trigger pointer pointer, f 31;
#X obj 223 420 t b f;
#X obj 73 42 struct \$0-slot float x float y float slotsize float color
float width float bordercolor;
#X obj 251 86 filledpolygon color bordercolor width 0 0 slotsize 0
slotsize slotsize 0 slotsize, f 41;
#X obj 223 375 expr if($f1 \, on_color_\$0 \, off_color_\$0), f 13
;
#X connect 0 0 1 0;
#X connect 1 0 2 0;
#X connect 3 0 14 0;
#X connect 3 1 14 1;
#X connect 4 0 17 0;
#X connect 5 0 4 1;
#X connect 6 0 4 1;
#X connect 7 0 6 0;
#X connect 8 0 3 0;
#X connect 8 1 3 1;
#X connect 10 0 0 0;
#X connect 11 0 21 0;
#X connect 12 0 5 0;
#X connect 12 0 7 0;
#X connect 12 1 2 1;
#X connect 12 1 4 0;
#X connect 13 0 10 0;
#X connect 13 1 12 0;
#X connect 14 0 11 0;
#X connect 15 0 16 0;
#X connect 17 0 8 0;
#X connect 17 1 9 1;
#X connect 18 0 15 0;
#X connect 18 1 9 0;
#X connect 19 0 13 0;
#X connect 21 0 18 0;
#X restore 104 107 pd \$0-slot;
#X obj 82 141 array define seq_\$0;
#N canvas 692 356 757 466 set 0;
#X obj 72 18 inlet;
#N canvas 436 227 1159 580 float 0;
#X obj 517 487 pack;
#X obj 511 428 t f f;
#X obj 95 367 loop;
#X obj 95 341 v tracks_\$0;
#X obj 389 520 r \$0-pointer-list;
#X obj 314 547 list store, f 13;
#X msg 314 522 get \$1 1;
#X obj 95 20 inlet;
#X obj 656 403 loop;
#X obj 656 381 v tracks_\$0;
#X obj 863 451 r \$0-pointer-list;
#X obj 794 475 list store, f 12;
#X msg 794 451 get \$1 1;
#X obj 95 291 trigger bang float, f 24;
#X obj 517 514 s \$0-out;
#X obj 656 360 trigger bang float;
#X obj 623 504 set \$0-slot width bordercolor;
#X obj 656 431 expr 1 \; 0 \; $f2 * tracks_\$0 + tracks_\$0 - 1 - $f1
, f 18;
#X obj 119 530 set \$0-slot width bordercolor;
#X obj 538 450 expr seq_\$0[$f1 * slots_\$0 + $f2], f 17;
#X obj 656 335 lastvalue;
#X obj 95 431 pack f 500;
#X obj 170 443 pack f 0;
#X obj 95 474 expr 4 \; $f2 \; $f3 * tracks_\$0 + tracks_\$0 - 1 -
$f1;
#X obj 95 126 clip 0;
#X obj 269 63 r \$0-set-slots;
#X obj 283 91 - 1;
#X obj 170 422 pipe 150;
#X obj 95 100 - 1;
#X obj 502 456 + 1;
#X obj 224 228 mod;
#X obj 142 184 f;
#X obj 197 173 + 1;
#X obj 95 148 t f f;
#X obj 139 53 r \$0-bang;
#X obj 203 45 r \$0-goto;
#X obj 203 66 - 1;
#X obj 203 90 clip 0;
#X obj 295 163 s \$0-go-here;
#X obj 651 54 r \$0-go-here;
#X obj 683 167 loop;
#X obj 683 141 v tracks_\$0;
#X obj 977 274 r \$0-pointer-list;
#X obj 902 301 list store, f 13;
#X msg 902 276 get \$1 1;
#X obj 707 284 set \$0-slot width bordercolor;
#X obj 683 195 pack f 0;
#X obj 683 228 expr 4 \; $f2 \; $f3 * tracks_\$0 + tracks_\$0 - 1 -
$f1;
#X obj 683 113 trigger bang float;
#X obj 197 195 t f f;
#X obj 254 229 ==;
#X obj 33 326 sel 1;
#X obj 95 312 t b b;
#X obj 33 355 s \$0-out;
#X obj 33 278 f;
#X connect 0 0 14 0;
#X connect 1 0 29 0;
#X connect 1 1 19 0;
#X connect 2 0 1 0;
#X connect 2 0 21 0;
#X connect 2 0 27 0;
#X connect 3 0 2 0;
#X connect 4 0 5 1;
#X connect 5 0 18 2;
#X connect 6 0 5 0;
#X connect 7 0 28 0;
#X connect 8 0 17 0;
#X connect 9 0 8 0;
#X connect 10 0 11 1;
#X connect 11 0 16 2;
#X connect 12 0 11 0;
#X connect 13 0 52 0;
#X connect 13 1 19 1;
#X connect 13 1 20 0;
#X connect 13 1 23 2;
#X connect 15 0 9 0;
#X connect 15 1 17 1;
#X connect 17 0 16 0;
#X connect 17 1 16 1;
#X connect 17 2 12 0;
#X connect 19 0 0 1;
#X connect 20 0 15 0;
#X connect 21 0 23 0;
#X connect 22 0 23 0;
#X connect 23 0 18 0;
#X connect 23 1 18 1;
#X connect 23 2 6 0;
#X connect 24 0 33 0;
#X connect 25 0 26 0;
#X connect 25 0 30 1;
#X connect 25 0 50 1;
#X connect 26 0 24 2;
#X connect 26 0 37 2;
#X connect 27 0 22 0;
#X connect 28 0 24 0;
#X connect 29 0 0 0;
#X connect 30 0 31 1;
#X connect 31 0 32 0;
#X connect 31 0 13 0;
#X connect 32 0 49 0;
#X connect 33 0 13 0;
#X connect 33 1 32 0;
#X connect 34 0 31 0;
#X connect 35 0 36 0;
#X connect 36 0 37 0;
#X connect 37 0 31 1;
#X connect 37 0 38 0;
#X connect 39 0 20 0;
#X connect 39 0 48 0;
#X connect 40 0 46 0;
#X connect 41 0 40 0;
#X connect 42 0 43 1;
#X connect 43 0 45 2;
#X connect 44 0 43 0;
#X connect 46 0 47 0;
#X connect 47 0 45 0;
#X connect 47 1 45 1;
#X connect 47 2 44 0;
#X connect 48 0 41 0;
#X connect 48 1 47 2;
#X connect 49 0 50 0;
#X connect 49 1 30 0;
#X connect 50 0 54 1;
#X connect 51 0 53 0;
#X connect 52 0 54 0;
#X connect 52 1 3 0;
#X connect 54 0 51 0;
#X restore 415 221 pd float;
#N canvas 601 63 481 447 size 0;
#X obj 212 225 t b f;
#X obj 211 315 s \$0-redraw;
#X obj 212 68 inlet;
#X obj 212 102 clip 1 512;
#X obj 239 278 v size_\$0;
#X obj 256 254 s \$0-set-size;
#X obj 212 196 change;
#X msg 267 159 set \$1;
#X obj 212 142 t f b;
#X obj 267 134 v size_\$0;
#X connect 0 0 1 0;
#X connect 0 1 4 0;
#X connect 0 1 5 0;
#X connect 2 0 3 0;
#X connect 3 0 8 0;
#X connect 6 0 0 0;
#X connect 7 0 6 0;
#X connect 8 0 6 0;
#X connect 8 1 9 0;
#X connect 9 0 7 0;
#X restore 296 285 pd size;
#N canvas 199 76 409 279 clear 0;
#X obj 239 142 s seq_\$0;
#X msg 239 116 const 0;
#X obj 124 129 array get seq_\$0, f 17;
#X obj 124 173 s \$0-set-array;
#X obj 111 84 trigger bang bang;
#X obj 111 53 inlet;
#X obj 111 202 s \$0-redraw;
#X connect 1 0 0 0;
#X connect 2 0 3 0;
#X connect 4 0 2 0;
#X connect 4 0 6 0;
#X connect 4 1 1 0;
#X connect 5 0 4 0;
#X restore 336 264 pd clear;
#N canvas 334 23 713 532 list 0;
#X obj 110 10 inlet;
#X obj 188 121 list;
#X obj 70 119 list length;
#X obj 70 142 == 3;
#X msg 70 238 input list needs to be = 3, f 15;
#X obj 324 322 list;
#X obj 70 166 sel 0 1;
#X obj 188 209 trigger list list;
#X msg 188 335 slot out of bounds;
#X obj 188 237 expr $f1 < tracks_\$0 && $f2 < slots_\$0, f 14;
#X obj 188 372 print [drum.seq];
#X obj 562 347 r \$0-pointer-list;
#X obj 402 398 set \$0-slot color;
#X obj 501 372 list store;
#X msg 501 347 get \$1 1;
#X obj 324 433 array get seq_\$0, f 17;
#X obj 324 467 s \$0-set-array;
#X obj 324 346 t b l;
#X obj 383 301 expr if($f3 \, on_color_\$0 \, off_color_\$0) \; $f2
* tracks_\$0 + tracks_\$0 - 1 - $f1 \; seq_\$0[$f2 + $f1 * slots_\$0]
= $f3;
#X obj 188 282 select 0 1;
#X obj 110 79 trigger list list;
#X obj 188 143 unpack f f f;
#X obj 188 164 - 1;
#X obj 222 164 - 1;
#X obj 188 185 pack f f f, f 12;
#X obj 132 40 r \$0-to-list;
#X connect 0 0 20 0;
#X connect 1 0 21 0;
#X connect 2 0 3 0;
#X connect 3 0 6 0;
#X connect 4 0 10 0;
#X connect 5 0 17 0;
#X connect 6 0 4 0;
#X connect 6 1 1 0;
#X connect 7 0 9 0;
#X connect 7 1 5 1;
#X connect 8 0 10 0;
#X connect 9 0 19 0;
#X connect 11 0 13 1;
#X connect 13 0 12 1;
#X connect 14 0 13 0;
#X connect 15 0 16 0;
#X connect 17 0 15 0;
#X connect 17 1 18 0;
#X connect 18 0 12 0;
#X connect 18 1 14 0;
#X connect 19 0 8 0;
#X connect 19 1 5 0;
#X connect 20 0 2 0;
#X connect 20 1 1 1;
#X connect 21 0 22 0;
#X connect 21 1 23 0;
#X connect 21 2 24 2;
#X connect 22 0 24 0;
#X connect 23 0 24 1;
#X connect 24 0 7 0;
#X connect 25 0 20 0;
#X restore 375 243 pd list;
#N canvas 808 186 479 414 export 0;
#X obj 138 320 s \$0-out;
#X obj 138 54 inlet;
#X obj 138 266 insert export;
#X obj 190 145 clip 0 1;
#X obj 138 82 route bang float;
#X obj 234 124 v tracks_\$0;
#X obj 190 120 t f b;
#X obj 190 221 array get seq_\$0;
#X obj 190 170 expr $f1 - 1 * slots_\$0 \; slots_\$0;
#N canvas 626 379 440 443 get 0;
#X obj 249 133 route bang;
#X obj 176 190 list;
#X obj 145 164 until;
#X obj 176 222 list split;
#X obj 233 193 v slots_\$0;
#X obj 176 257 list append ||;
#X obj 147 327 list store;
#X obj 176 285 insert append;
#X obj 120 93 array get seq_\$0;
#X obj 120 57 inlet;
#X obj 147 358 outlet;
#X obj 120 121 t b b l b, f 13;
#X obj 120 289 t b b;
#X connect 0 0 2 1;
#X connect 0 1 1 1;
#X connect 1 0 3 0;
#X connect 2 0 1 0;
#X connect 3 0 5 0;
#X connect 3 1 0 0;
#X connect 4 0 3 1;
#X connect 5 0 7 0;
#X connect 6 0 10 0;
#X connect 7 0 6 0;
#X connect 8 0 11 0;
#X connect 9 0 8 0;
#X connect 11 0 12 0;
#X connect 11 1 2 0;
#X connect 11 2 1 1;
#X connect 11 3 4 0;
#X connect 12 0 6 1;
#X connect 12 1 6 0;
#X restore 138 174 pd get;
#X connect 1 0 4 0;
#X connect 2 0 0 0;
#X connect 3 0 8 0;
#X connect 4 0 9 0;
#X connect 4 1 6 0;
#X connect 5 0 3 2;
#X connect 6 0 3 0;
#X connect 6 1 5 0;
#X connect 7 0 2 0;
#X connect 8 0 7 0;
#X connect 8 1 7 1;
#X connect 9 0 2 0;
#X restore 455 200 pd export;
#N canvas 767 164 835 692 import 0;
#X obj 78 25 inlet;
#X obj 78 106 loop;
#X obj 78 154 v slots_\$0;
#X obj 78 84 v tracks_\$0;
#X obj 78 176 loop;
#X obj 344 185 + 1;
#X obj 314 184 f;
#X obj 314 212 tabread seq_\$0;
#X obj 78 202 t f b;
#X obj 375 277 r \$0-pointer-list;
#X obj 215 328 set \$0-slot color;
#X obj 314 302 list store;
#X msg 314 277 get \$1 1;
#X obj 78 130 trigger bang float;
#X obj 77 240 expr if($f3 \, on_color_\$0 \, off_color_\$0) \; $f1
* tracks_\$0 + tracks_\$0 - 1 - $f2;
#X obj 546 186 route ||, f 12;
#X obj 616 382 list length;
#X obj 546 162 break ||;
#X obj 487 117 t b a b;
#X obj 427 431 list store;
#X obj 546 210 route bang;
#X obj 694 381 f;
#X obj 730 392 + 1;
#X msg 709 356 0;
#X obj 643 287 t a b, f 9;
#X obj 544 286 b;
#X obj 548 445 expr $f1 != slots_\$0 || $f2 != tracks_\$0;
#X obj 616 418 pack;
#X obj 616 237 t a a;
#X obj 643 263 insert append;
#X obj 596 512 list;
#X obj 548 466 sel 1;
#X obj 548 424 list;
#X obj 596 536 t b l;
#X obj 623 563 unpack;
#X obj 623 609 v slots_\$0;
#X obj 656 585 v tracks_\$0;
#X obj 521 387 t b b;
#X obj 598 640 s \$0-redraw;
#X obj 78 59 trigger2 bang 0 anything, f 35;
#X obj 427 468 insert set;
#X obj 427 496 buffer seq_\$0;
#X connect 0 0 39 0;
#X connect 1 0 13 0;
#X connect 2 0 4 0;
#X connect 3 0 1 0;
#X connect 4 0 8 0;
#X connect 5 0 6 1;
#X connect 6 0 5 0;
#X connect 6 0 7 0;
#X connect 7 0 14 2;
#X connect 8 0 14 0;
#X connect 8 1 6 0;
#X connect 9 0 11 1;
#X connect 11 0 10 1;
#X connect 12 0 11 0;
#X connect 13 0 2 0;
#X connect 13 1 14 1;
#X connect 14 0 10 0;
#X connect 14 1 12 0;
#X connect 15 0 20 0;
#X connect 15 1 28 0;
#X connect 16 0 27 0;
#X connect 17 0 15 0;
#X connect 18 0 37 0;
#X connect 18 1 17 0;
#X connect 18 2 25 0;
#X connect 19 0 40 0;
#X connect 20 1 28 0;
#X connect 21 0 22 0;
#X connect 22 0 21 1;
#X connect 22 0 27 1;
#X connect 23 0 21 1;
#X connect 24 0 19 0;
#X connect 24 1 21 0;
#X connect 25 0 19 1;
#X connect 25 0 23 0;
#X connect 26 0 31 0;
#X connect 27 0 30 1;
#X connect 27 0 32 1;
#X connect 28 0 16 0;
#X connect 28 1 29 0;
#X connect 29 0 24 0;
#X connect 30 0 33 0;
#X connect 31 0 30 0;
#X connect 32 0 26 0;
#X connect 33 0 38 0;
#X connect 33 1 34 0;
#X connect 34 0 35 0;
#X connect 34 1 36 0;
#X connect 37 0 19 0;
#X connect 37 1 32 0;
#X connect 39 0 3 0;
#X connect 39 1 6 1;
#X connect 39 2 18 0;
#X connect 40 0 41 0;
#X restore 492 179 pd import;
#N canvas 487 301 450 300 embed 0;
#X obj 174 33 inlet;
#X obj 184 197 v embed_\$0;
#X obj 174 223 s \$0-embed;
#X obj 174 66 != 0;
#X obj 174 153 change;
#X msg 229 110 set \$1;
#X obj 174 93 t f b;
#X obj 229 85 v embed_\$0;
#X connect 0 0 3 0;
#X connect 3 0 6 0;
#X connect 4 0 1 0;
#X connect 4 0 2 0;
#X connect 5 0 4 0;
#X connect 6 0 4 0;
#X connect 6 1 7 0;
#X connect 7 0 5 0;
#X restore 531 153 pd embed;
#X obj 72 40 t b a;
#X obj 72 377 s \$0-set-arguments;
#N canvas 325 182 774 526 tracks 0;
#X obj 434 204 change;
#X obj 434 254 t b f;
#X obj 434 344 s \$0-redraw;
#X obj 434 64 inlet;
#X obj 434 114 clip 1 512;
#X obj 461 307 v tracks_\$0;
#X obj 473 280 s \$0-set-tracks;
#X obj 489 142 v tracks_\$0;
#X msg 489 167 set \$1;
#X obj 434 150 t f b;
#X obj 588 281 array size seq_\$0;
#X obj 588 252 expr $f1 * slots_\$0;
#X obj 87 64 inlet;
#X obj 231 302 iterate;
#X obj 231 380 f;
#X obj 267 380 + 1;
#X obj 267 403 pack f f;
#X obj 267 434 list prepend;
#X obj 197 272 list split 1;
#X msg 336 345 \$1;
#X obj 197 239 trigger list list bang, f 25;
#X msg 344 265 0;
#X obj 231 333 t b f;
#X obj 267 455 s \$0-to-list;
#X obj 86 174 routeall ratio;
#N canvas 259 23 517 829 convert 0;
#X obj 167 229 t b a;
#X obj 97 75 inlet;
#X obj 110 783 outlet;
#X obj 275 160 iterate;
#X obj 275 184 sel |;
#X obj 302 332 /;
#X obj 302 300 unpack;
#X obj 464 466 f;
#X obj 167 314 t b b;
#X obj 229 558 *;
#X obj 302 274 separate /;
#X obj 153 439 group;
#X obj 173 508 iterate;
#X obj 275 676 loop;
#X obj 397 537 f;
#X msg 453 400 1;
#X obj 361 432 lcm 1;
#X obj 153 743 group;
#X obj 275 701 == 0;
#X obj 229 619 moses 1;
#X obj 229 642 * -1;
#X obj 191 671 loop;
#X msg 191 695 0;
#X obj 302 242 dec2frac;
#N canvas 924 69 625 679 tie_check 0;
#X obj 149 44 inlet;
#X obj 382 233 list fromsymbol;
#X obj 470 293 == 95;
#X obj 382 388 spigot;
#X obj 382 418 list tosymbol;
#X obj 382 266 slice -1;
#X obj 181 338 spigot;
#X obj 181 294 t s s;
#X obj 470 358 expr 1 - $f1;
#X obj 489 329 v tie_\$0;
#X obj 182 607 outlet;
#X obj 107 218 route float;
#X obj 382 448 symbol2any;
#X obj 352 478 frac2dec;
#X obj 320 528 add;
#X obj 246 443 f;
#X obj 181 115 v tie_\$0;
#X obj 107 186 router;
#X obj 149 75 t a b;
#X obj 246 192 t b f;
#X obj 320 192 t s s;
#X obj 246 158 route float;
#X msg 195 76 0;
#X obj 320 296 spigot;
#X obj 320 319 t b s;
#X connect 0 0 18 0;
#X connect 1 0 5 0;
#X connect 2 0 3 1;
#X connect 2 0 8 0;
#X connect 2 0 9 0;
#X connect 3 0 4 0;
#X connect 4 0 12 0;
#X connect 5 0 3 0;
#X connect 5 1 2 0;
#X connect 6 0 10 0;
#X connect 7 0 6 0;
#X connect 7 1 1 0;
#X connect 8 0 6 1;
#X connect 8 0 23 1;
#X connect 11 0 10 0;
#X connect 11 1 7 0;
#X connect 12 0 13 0;
#X connect 13 0 14 0;
#X connect 14 0 15 1;
#X connect 15 0 10 0;
#X connect 16 0 17 1;
#X connect 17 0 11 0;
#X connect 17 1 21 0;
#X connect 18 0 17 0;
#X connect 18 1 16 0;
#X connect 19 0 15 0;
#X connect 19 0 14 0;
#X connect 19 0 22 0;
#X connect 19 1 14 0;
#X connect 20 0 23 0;
#X connect 20 1 1 0;
#X connect 21 0 19 0;
#X connect 21 1 20 0;
#X connect 22 0 16 0;
#X connect 23 0 24 0;
#X connect 24 0 15 0;
#X connect 24 0 14 0;
#X connect 24 1 13 0;
#X restore 302 215 pd tie_check;
#X obj 110 744 list;
#X obj 97 136 slice 2;
#X obj 82 167 slice 1;
#X obj 302 483 abs;
#X obj 302 504 add;
#X obj 287 525 f;
#X obj 153 469 t b l b, f 17;
#X obj 363 560 *;
#X obj 363 583 expr slots_\$0 / $f1;
#X obj 363 606 max 1;
#X obj 229 579 *;
#X connect 0 0 8 0;
#X connect 0 1 3 0;
#X connect 1 0 26 0;
#X connect 3 0 4 0;
#X connect 4 1 24 0;
#X connect 5 0 11 0;
#X connect 5 0 28 0;
#X connect 6 0 5 0;
#X connect 6 1 5 1;
#X connect 6 1 16 0;
#X connect 7 0 14 1;
#X connect 7 0 16 1;
#X connect 8 0 11 0;
#X connect 8 0 15 0;
#X connect 8 1 14 0;
#X connect 9 0 35 0;
#X connect 10 0 6 0;
#X connect 11 0 31 0;
#X connect 12 0 9 0;
#X connect 13 0 18 0;
#X connect 14 0 32 1;
#X connect 14 0 9 1;
#X connect 15 0 14 1;
#X connect 15 0 16 1;
#X connect 16 0 7 0;
#X connect 17 0 25 1;
#X connect 18 0 17 0;
#X connect 19 0 20 0;
#X connect 19 1 13 0;
#X connect 20 0 21 0;
#X connect 21 0 22 0;
#X connect 22 0 17 0;
#X connect 23 0 10 0;
#X connect 24 0 23 0;
#X connect 25 0 2 0;
#X connect 26 0 27 0;
#X connect 26 1 0 0;
#X connect 27 0 25 0;
#X connect 28 0 29 0;
#X connect 29 0 30 1;
#X connect 30 0 32 0;
#X connect 31 0 17 0;
#X connect 31 1 12 0;
#X connect 31 2 30 0;
#X connect 31 2 29 0;
#X connect 32 0 33 0;
#X connect 33 0 34 0;
#X connect 34 0 35 1;
#X connect 35 0 19 0;
#X restore 86 198 pd convert;
#X obj 197 140 initmess 1;
#X connect 0 0 1 0;
#X connect 1 0 2 0;
#X connect 1 1 5 0;
#X connect 1 1 6 0;
#X connect 1 1 11 0;
#X connect 3 0 4 0;
#X connect 4 0 9 0;
#X connect 7 0 8 0;
#X connect 8 0 0 0;
#X connect 9 0 0 0;
#X connect 9 1 7 0;
#X connect 11 0 10 0;
#X connect 12 0 24 0;
#X connect 13 0 22 0;
#X connect 14 0 15 0;
#X connect 15 0 14 1;
#X connect 15 0 16 0;
#X connect 16 0 17 0;
#X connect 17 0 23 0;
#X connect 18 1 13 0;
#X connect 19 0 17 1;
#X connect 20 0 18 0;
#X connect 20 1 19 0;
#X connect 20 2 21 0;
#X connect 21 0 14 1;
#X connect 22 0 14 0;
#X connect 22 1 16 1;
#X connect 24 0 25 0;
#X connect 24 1 20 0;
#X connect 25 0 20 0;
#X connect 26 0 24 1;
#X restore 169 303 pd tracks;
#N canvas 648 123 559 481 slots 0;
#X obj 209 335 v slots_\$0;
#X obj 182 240 change;
#X obj 182 280 t b f;
#X obj 181 370 s \$0-redraw;
#X obj 182 93 inlet;
#X obj 182 117 clip 1 512;
#X obj 221 307 s \$0-set-slots;
#X msg 246 197 set \$1;
#X obj 191 180 t f b;
#X obj 246 172 v slots_\$0;
#X obj 280 267 array size seq_\$0;
#X obj 280 247 expr $f1 * tracks_\$0;
#X connect 1 0 2 0;
#X connect 2 0 3 0;
#X connect 2 1 0 0;
#X connect 2 1 6 0;
#X connect 2 1 11 0;
#X connect 4 0 5 0;
#X connect 5 0 8 0;
#X connect 7 0 1 0;
#X connect 8 0 1 0;
#X connect 8 1 9 0;
#X connect 9 0 7 0;
#X connect 11 0 10 0;
#X restore 256 306 pd slots;
#X obj 570 126 s \$0-bang;
#X obj 217 71 route tracks slots size clear list float export import
embed bang goto, f 70;
#X obj 590 103 s \$0-goto;
#X obj 98 95 route track;
#X connect 0 0 8 0;
#X connect 8 0 9 0;
#X connect 8 1 15 0;
#X connect 13 0 10 1;
#X connect 13 1 11 0;
#X connect 13 2 2 0;
#X connect 13 3 3 0;
#X connect 13 4 4 0;
#X connect 13 5 1 0;
#X connect 13 6 5 0;
#X connect 13 7 6 0;
#X connect 13 8 7 0;
#X connect 13 9 12 0;
#X connect 13 10 14 0;
#X connect 15 0 10 0;
#X connect 15 1 13 0;
#X restore 81 74 pd set;
#N canvas 329 234 489 359 init 0;
#X obj 381 90 v on_color_\$0;
#X obj 346 116 v off_color_\$0;
#X obj 228 209 list split 15;
#X obj 279 235 s \$0-set-array-arg;
#X obj 292 288 array set seq_\$0;
#N canvas 901 187 547 431 set 0;
#X obj 84 127 loop;
#X obj 85 183 v slots_\$0;
#X obj 84 100 v tracks_\$0;
#X obj 85 211 loop;
#X obj 352 221 + 1;
#X obj 322 221 f;
#X obj 322 243 tabread seq_\$0;
#X obj 84 75 trigger2 bang 0;
#X obj 85 239 t f b;
#X obj 84 33 inlet;
#X obj 383 306 r \$0-pointer-list;
#X obj 223 357 set \$0-slot color;
#X obj 322 331 list store;
#X msg 322 306 get \$1 1;
#X obj 85 268 expr if($f3 \, on_color_\$0 \, off_color_\$0) \; $f1
* tracks_\$0 + tracks_\$0 - 1 - $f2;
#X obj 84 157 trigger bang float;
#X obj 369 83 v tracks_\$0;
#X obj 365 39 bng 15 250 50 0 empty empty empty 17 7 0 10 -262144 -1
-1;
#X floatatom 368 112 5 0 0 0 - - -;
#X connect 0 0 15 0;
#X connect 1 0 3 0;
#X connect 2 0 0 0;
#X connect 3 0 8 0;
#X connect 4 0 5 1;
#X connect 5 0 4 0;
#X connect 5 0 6 0;
#X connect 6 0 14 2;
#X connect 7 0 2 0;
#X connect 7 1 5 1;
#X connect 8 0 14 0;
#X connect 8 1 5 0;
#X connect 9 0 7 0;
#X connect 10 0 12 1;
#X connect 12 0 11 1;
#X connect 13 0 12 0;
#X connect 14 0 11 0;
#X connect 14 1 13 0;
#X connect 15 0 1 0;
#X connect 15 1 14 1;
#X connect 16 0 18 0;
#X connect 17 0 16 0;
#X restore 265 311 pd set;
#X obj 265 260 t b l;
#X obj 228 179 list;
#X msg 346 90 999;
#X msg 381 66 445;
#X msg 285 90 2 8 20;
#X obj 206 126 route bang list;
#N canvas 730 299 1045 571 arg-list 0;
#X obj 111 262 clip 1 512;
#X obj 80 313 *;
#X obj 80 372 array size seq_\$0;
#X obj 306 311 v size_\$0;
#X obj 295 285 clip 8 100;
#X obj 122 323 v tracks_\$0;
#X obj 217 288 v slots_\$0;
#X obj 295 336 s \$0-set-size;
#X obj 162 58 inlet;
#X obj 204 310 s \$0-set-slots;
#X obj 111 349 s \$0-set-tracks;
#X obj 385 210 v embed_\$0;
#X obj 501 278 s \$0-set-array;
#X obj 549 229 array size seq_\$0;
#X obj 549 201 list length;
#X obj 501 210 t l l;
#X obj 515 252 array set seq_\$0;
#X obj 290 207 t f f, f 13;
#X obj 464 176 list split 11;
#X obj 204 262 clip 2 512;
#X obj 290 234 s \$0-set-embed;
#X obj 123 127 list split 4;
#X obj 123 161 unpack f f f f;
#X connect 0 0 1 0;
#X connect 0 0 5 0;
#X connect 0 0 10 0;
#X connect 1 0 2 0;
#X connect 4 0 3 0;
#X connect 4 0 7 0;
#X connect 8 0 21 0;
#X connect 14 0 13 0;
#X connect 15 0 16 0;
#X connect 15 0 12 0;
#X connect 15 1 14 0;
#X connect 17 0 20 0;
#X connect 17 1 11 0;
#X connect 18 1 15 0;
#X connect 19 0 1 1;
#X connect 19 0 6 0;
#X connect 19 0 9 0;
#X connect 21 0 22 0;
#X connect 21 1 18 0;
#X connect 21 2 22 0;
#X connect 22 0 0 0;
#X connect 22 1 19 0;
#X connect 22 2 4 0;
#X connect 22 3 17 0;
#X restore 269 179 pd arg-list;
#X obj 206 90 args -;
#N canvas 295 23 653 302 flags 0;
#X obj 169 138 clip 1 512;
#X obj 91 128 clip 1 512;
#X obj 43 174 *;
#X obj 43 222 array size seq_\$0;
#X obj 290 190 v size_\$0;
#X obj 279 163 clip 8 100;
#X obj 328 103 v embed_\$0;
#X obj 91 178 v tracks_\$0;
#X obj 179 175 v slots_\$0;
#X obj 279 215 s \$0-set-size;
#X obj 92 44 inlet;
#X msg 238 101 1;
#X obj 92 75 route -tracks -slots -size -embed;
#X obj 277 104 t f f;
#X obj 169 196 s \$0-set-slots;
#X obj 67 199 s \$0-set-tracks;
#X obj 277 128 s \$0-set-embed;
#X connect 0 0 2 1;
#X connect 0 0 8 0;
#X connect 0 0 14 0;
#X connect 1 0 2 0;
#X connect 1 0 7 0;
#X connect 1 0 15 0;
#X connect 2 0 3 0;
#X connect 5 0 4 0;
#X connect 5 0 9 0;
#X connect 10 0 12 0;
#X connect 11 0 13 0;
#X connect 12 0 1 0;
#X connect 12 1 0 0;
#X connect 12 2 5 0;
#X connect 12 3 11 0;
#X connect 13 0 16 0;
#X connect 13 1 6 0;
#X restore 293 150 pd flags;
#X obj 127 237 t b b;
#N canvas 406 149 940 514 draw_sequencer 0;
#X obj 422 280 pointer;
#X obj 119 314 f;
#X obj 184 248 v size_\$0;
#X obj 134 292 *;
#X obj 169 292 *;
#X obj 220 292 - 1;
#X obj 63 124 v slots_\$0;
#X obj 63 193 v tracks_\$0;
#X obj 63 147 loop;
#X obj 90 259 t b f;
#X obj 90 238 loop;
#X obj 477 136 expr slots_\$0 * size_\$0 - 1 \; tracks_\$0 * size_\$0
-1;
#X obj 540 240 s pd-\$0-paint;
#X obj 477 172 pack float float;
#X obj 63 26 inlet;
#X obj 489 413 s \$0-this-patch;
#X obj 477 224 unpack;
#X obj 477 250 + 2;
#X obj 510 249 + 2;
#X obj 489 276 pack;
#X obj 477 198 t l l;
#X obj 63 436 s \$0-pointer-list;
#X obj 564 110 s \$0-clear-list;
#X obj 120 387 r \$0-clear-list;
#X msg 540 205 clear \, donecanvasdialog 1 -1 3 0 \$2 \$1 0 \$1 \$2
150 150 \, dirty 0;
#X msg 489 375 donecanvasdialog 1 -1 3 0 \$2 \$1 0 \$1 \$2 150 150
\, dirty 0, f 48;
#X obj 63 408 list store;
#X msg 119 362 append \$1;
#X obj 63 217 t b f;
#X obj 63 170 trigger bang float, f 20;
#X msg 370 269 1;
#X obj 119 337 append \$0-slot x y slotsize color width bordercolor
;
#X msg 371 301 0;
#X obj 262 282 v off_color_\$0;
#X msg 364 183 traverse pd-\$1-paint \, bang, f 12;
#X obj 262 196 b;
#X obj 63 87 trigger2 bang bang \$0 bang bang, f 84;
#X obj 489 296 t b l;
#X obj 489 321 del 0;
#X obj 489 349 message;
#X connect 0 0 31 6;
#X connect 1 0 31 0;
#X connect 2 0 5 0;
#X connect 2 0 4 1;
#X connect 2 0 3 1;
#X connect 3 0 1 1;
#X connect 4 0 31 1;
#X connect 5 0 31 2;
#X connect 6 0 8 0;
#X connect 7 0 28 0;
#X connect 8 0 29 0;
#X connect 9 0 1 0;
#X connect 9 1 4 0;
#X connect 10 0 9 0;
#X connect 11 0 13 0;
#X connect 11 1 13 1;
#X connect 13 0 20 0;
#X connect 14 0 36 0;
#X connect 16 0 17 0;
#X connect 16 1 18 0;
#X connect 17 0 19 0;
#X connect 18 0 19 1;
#X connect 19 0 37 0;
#X connect 20 0 16 0;
#X connect 20 1 24 0;
#X connect 23 0 26 1;
#X connect 24 0 12 0;
#X connect 25 0 15 0;
#X connect 26 0 21 0;
#X connect 27 0 26 0;
#X connect 28 0 26 0;
#X connect 28 1 10 0;
#X connect 29 0 7 0;
#X connect 29 1 3 0;
#X connect 30 0 31 4;
#X connect 31 0 27 0;
#X connect 32 0 31 5;
#X connect 33 0 31 3;
#X connect 34 0 0 0;
#X connect 35 0 33 0;
#X connect 35 0 2 0;
#X connect 35 0 32 0;
#X connect 35 0 30 0;
#X connect 36 0 6 0;
#X connect 36 1 35 0;
#X connect 36 2 34 0;
#X connect 36 3 11 0;
#X connect 36 4 22 0;
#X connect 37 0 38 0;
#X connect 37 1 39 1;
#X connect 38 0 39 0;
#X connect 39 0 25 0;
#X restore 154 260 pd draw_sequencer;
#N canvas 224 81 474 251 draw-border 0;
#X obj 112 99 loop;
#X obj 112 67 v tracks_\$0;
#X obj 328 144 r \$0-pointer-list;
#X obj 253 169 list store, f 13;
#X msg 253 144 get \$1 1;
#X obj 112 42 inlet;
#X obj 82 194 set \$0-slot width bordercolor;
#X obj 112 132 expr 4 \; 0 \; tracks_\$0 - 1 - $f1;
#X connect 0 0 7 0;
#X connect 1 0 0 0;
#X connect 2 0 3 1;
#X connect 3 0 6 2;
#X connect 4 0 3 0;
#X connect 5 0 1 0;
#X connect 7 0 6 0;
#X connect 7 1 6 1;
#X connect 7 2 4 0;
#X restore 127 290 pd draw-border;
#X obj 140 209 r \$0-redraw;
#N canvas 630 220 700 664 set 0;
#X obj 307 489 outlet;
#X obj 149 137 r \$0-set-slots;
#X obj 96 114 r \$0-set-tracks;
#X obj 199 159 r \$0-set-size;
#X obj 407 244 changed;
#X obj 307 412 list append, f 14;
#X obj 422 218 r \$0-set-array;
#X obj 500 254 r \$0-set-array-arg;
#X obj 313 343 v embed_\$0;
#X obj 388 160 r \$0-embed;
#X obj 307 454 changed;
#X msg 96 137 set \$1;
#X msg 149 161 set \$1;
#X msg 199 183 set \$1;
#X msg 339 190 set \$1;
#X obj 313 368 sel 0;
#X obj 77 84 r \$0-set-arguments;
#X obj 407 278 route list;
#X obj 463 335 b;
#X obj 388 190 sel 0 1;
#X obj 77 253 pack2 3 3 20 0 0 0 0 0 0 0 0 0 0 0 0, f 49;
#X obj 463 362 array get seq_\$0;
#X obj 463 390 s \$0-set-array-arg;
#X obj 339 132 r \$0-set-embed;
#X obj 407 305 t b b l;
#X connect 1 0 12 0;
#X connect 2 0 11 0;
#X connect 3 0 13 0;
#X connect 4 0 17 0;
#X connect 5 0 10 0;
#X connect 6 0 4 0;
#X connect 7 0 4 1;
#X connect 7 0 5 1;
#X connect 8 0 15 0;
#X connect 9 0 14 0;
#X connect 9 0 19 0;
#X connect 10 0 0 0;
#X connect 11 0 20 0;
#X connect 12 0 20 1;
#X connect 13 0 20 2;
#X connect 14 0 20 3;
#X connect 15 0 5 1;
#X connect 16 0 20 0;
#X connect 17 0 24 0;
#X connect 17 1 18 0;
#X connect 18 0 21 0;
#X connect 19 0 5 1;
#X connect 19 1 4 0;
#X connect 20 0 5 0;
#X connect 21 0 22 0;
#X connect 23 0 14 0;
#X connect 24 0 20 0;
#X connect 24 1 8 0;
#X connect 24 2 5 1;
#X restore 216 68 pd set;
#X obj 48 37 loadbanger -init 4, f 40;
#X connect 2 1 3 0;
#X connect 2 1 6 0;
#X connect 6 0 5 0;
#X connect 6 1 4 0;
#X connect 7 0 2 0;
#X connect 8 0 1 0;
#X connect 9 0 0 0;
#X connect 10 0 11 0;
#X connect 11 1 7 1;
#X connect 11 1 12 0;
#X connect 11 2 14 0;
#X connect 13 0 11 0;
#X connect 15 0 17 0;
#X connect 15 1 16 0;
#X connect 18 0 15 0;
#X connect 19 0 13 0;
#X connect 20 0 7 0;
#X connect 20 1 15 0;
#X connect 20 2 13 0;
#X connect 20 3 10 0;
#X connect 20 3 8 0;
#X connect 20 3 9 0;
#X restore 148 74 pd init;
#X obj 278 85 canvas.setname \$0-this-patch 1;
#X obj 284 114 declare -path else;
#X connect 0 0 3 0;
#X restore 59 72 pd guts;
#X text 145 60 Part of ELSE \; https://github.com/porres/pd-else;
#X obj 59 164 r \$0-out;
#X text 146 41 Alexandre Torres Porres (2019);
#X connect 0 0 3 0;
#X connect 5 0 2 0;
#X coords 0 41 161 0 161 41 2 150 150;
