#N canvas 713 131 532 580 10;
#X declare -path else;
#X obj 107 479 v last_\$0;
#X obj 187 244 max 0;
#X obj 93 26 inlet;
#X obj 218 27 inlet;
#X obj 312 29 inlet;
#X obj 93 531 outlet;
#X obj 218 67 s \$0-min;
#X obj 312 66 s \$0-max;
#X obj 121 412 r \$0-min;
#X obj 171 444 r \$0-max;
#X obj 195 217 r \$0-step;
#N canvas 542 154 475 410 init 0;
#N canvas 148 23 450 300 default 0;
#X obj 254 174 s \$0-step;
#X obj 173 231 s \$0-min;
#X obj 213 205 s \$0-max;
#X msg 173 83 0 127 1 70;
#X obj 173 114 unpack f f f f;
#X obj 267 141 v p_\$0;
#X obj 173 49 inlet;
#X connect 3 0 4 0;
#X connect 4 0 1 0;
#X connect 4 1 2 0;
#X connect 4 2 0 0;
#X connect 4 3 5 0;
#X connect 6 0 3 0;
#X restore 192 68 pd default;
#X obj 93 137 route float list -seed -p, f 41;
#X msg 248 276 seed \$1;
#X msg 336 268 p \$1;
#N canvas 324 131 450 300 args 0;
#X obj 121 186 s \$0-step;
#X obj 121 148 max 0;
#X obj 157 110 unpack f f f;
#X obj 191 161 s \$0-min;
#X obj 226 134 s \$0-max;
#X obj 157 76 inlet;
#X connect 1 0 0 0;
#X connect 2 0 1 0;
#X connect 2 1 3 0;
#X connect 2 2 4 0;
#X connect 5 0 2 0;
#X restore 93 275 pd args;
#X obj 336 352 outlet;
#X obj 93 37 else/loadbanger 2;
#X obj 191 248 else/swap2;
#X obj 214 183 list split 1;
#X obj 279 236 else/swap2;
#X obj 302 183 list split 1;
#X obj 93 97 else/args -;
#X connect 1 0 4 0;
#X connect 1 1 4 0;
#X connect 1 2 8 0;
#X connect 1 3 10 0;
#X connect 2 0 5 0;
#X connect 3 0 5 0;
#X connect 6 0 11 0;
#X connect 6 1 0 0;
#X connect 7 0 1 0;
#X connect 7 1 2 0;
#X connect 8 0 7 0;
#X connect 8 1 7 1;
#X connect 9 0 1 0;
#X connect 9 1 3 0;
#X connect 10 0 9 0;
#X connect 10 1 9 1;
#X connect 11 0 1 0;
#X restore 108 84 pd init;
#X obj 267 190 v p_\$0;
#X obj 124 352 expr $f1 * $f2 + last_\$0;
#X obj 124 321 trigger float bang;
#X obj 267 169 clip 0 100;
#X obj 265 292 expr if($f1 <= p_\$0 \, 1 \, -1);
#X obj 93 109 route float bang step p seed set;
#X obj 250 132 v last_\$0;
#X text 263 433 Part of ELSE \; https://github.com/porres/pd-else;
#X text 265 414 Alexandre Torres Porres (2018);
#X obj 265 266 else/rand.f 0 100;
#X obj 93 442 else/wrap2;
#X obj 124 293 else/rand.f;
#X obj 348 123 declare -path else;
#N canvas 468 175 289 279 seed 0;
#X obj 85 42 inlet;
#X obj 131 200 outlet;
#X msg 84 155 seed;
#X msg 131 155 seed \$1;
#X obj 85 122 route bang float;
#X obj 144 96 v last_\$0;
#X obj 85 94 t a b;
#X msg 144 74 0;
#X connect 0 0 6 0;
#X connect 2 0 1 0;
#X connect 3 0 1 0;
#X connect 4 0 2 0;
#X connect 4 1 3 0;
#X connect 6 0 4 0;
#X connect 6 1 7 0;
#X connect 7 0 5 0;
#X restore 265 237 pd seed;
#X connect 1 0 23 2;
#X connect 2 0 17 0;
#X connect 3 0 6 0;
#X connect 4 0 7 0;
#X connect 8 0 22 1;
#X connect 9 0 22 2;
#X connect 10 0 1 0;
#X connect 11 0 17 0;
#X connect 13 0 22 0;
#X connect 14 0 13 0;
#X connect 14 1 21 0;
#X connect 15 0 12 0;
#X connect 16 0 13 1;
#X connect 17 0 22 0;
#X connect 17 1 23 0;
#X connect 17 2 1 0;
#X connect 17 3 15 0;
#X connect 17 4 25 0;
#X connect 17 5 18 0;
#X connect 21 0 16 0;
#X connect 22 0 0 0;
#X connect 22 0 5 0;
#X connect 23 0 14 0;
#X connect 25 0 21 0;
#X connect 25 0 23 0;
