#N canvas 757 43 616 484 10;
#X declare -path else;
#X obj 137 191 r \$0-step;
#X obj 123 447 outlet~;
#X obj 205 209 expr~ if($v1 <= p_\$0 \, 1 \, -1), f 21;
#X obj 123 296 *~;
#X obj 137 217 max 0;
#X obj 367 226 expr~ $v1 != 0;
#N canvas 798 112 324 338 fb 0;
#X obj 73 40 inlet~;
#X obj 104 157 r \$0-min;
#X obj 151 189 r \$0-max;
#X obj 73 187 wrap2~;
#X obj 73 85 +~;
#X obj 93 230 delwrite~ \$0-fb 1;
#X obj 73 275 outlet~;
#X obj 131 39 inlet~;
#X obj 131 94 *~;
#X obj 146 69 delread~ \$0-fb;
#X obj 219 156 block~ 1;
#X obj 131 122 trighold~;
#X connect 0 0 4 0;
#X connect 1 0 3 1;
#X connect 2 0 3 2;
#X connect 3 0 5 0;
#X connect 3 0 6 0;
#X connect 4 0 3 0;
#X connect 7 0 8 0;
#X connect 8 0 11 0;
#X connect 9 0 8 1;
#X connect 11 0 4 1;
#X restore 123 327 pd fb;
#N canvas 898 100 370 422 route 0;
#N canvas 114 114 388 323 init 0;
#X obj 107 90 args;
#X obj 107 120 break -;
#N canvas 4 23 748 397 default 0;
#X obj 254 174 s \$0-step;
#X obj 173 231 s \$0-min;
#X obj 213 205 s \$0-max;
#X obj 173 114 unpack f f f f;
#X obj 267 141 v p_\$0;
#X obj 173 49 inlet;
#X msg 173 83 -1 1 0.1 70;
#X connect 3 0 1 0;
#X connect 3 1 2 0;
#X connect 3 2 0 0;
#X connect 3 3 4 0;
#X connect 5 0 6 0;
#X connect 6 0 3 0;
#X restore 206 97 pd default;
#X obj 107 160 route float list -seed -p;
#X msg 180 209 seed \$1;
#X msg 239 209 p \$1;
#N canvas 4 23 450 300 args 0;
#X obj 121 186 s \$0-step;
#X obj 121 148 max 0;
#X obj 157 110 unpack f f f;
#X obj 191 161 s \$0-min;
#X obj 226 134 s \$0-max;
#X obj 157 76 inlet;
#X connect 1 0 0 0;
#X connect 2 0 1 0;
#X connect 2 1 3 0;
#X connect 2 2 4 0;
#X connect 5 0 2 0;
#X restore 107 208 pd args;
#X obj 239 253 outlet;
#X obj 108 60 loadbanger -init 2;
#X connect 0 0 1 0;
#X connect 1 0 3 0;
#X connect 3 0 6 0;
#X connect 3 1 6 0;
#X connect 3 2 4 0;
#X connect 3 3 5 0;
#X connect 4 0 7 0;
#X connect 5 0 7 0;
#X connect 8 0 0 0;
#X connect 8 1 2 0;
#X restore 79 87 pd init;
#X obj 119 223 v p_\$0;
#X obj 119 197 clip 0 100;
#X obj 55 46 inlet;
#X obj 216 354 s \$0-min;
#X obj 262 248 s \$0-max;
#X obj 87 252 s \$0-step;
#X obj 151 172 s \$0-seed;
#X obj 55 135 route list step p seed;
#X obj 216 46 inlet;
#X obj 262 46 inlet;
#X obj 55 278 unpack float float, f 23;
#X connect 0 0 8 0;
#X connect 2 0 1 0;
#X connect 3 0 8 0;
#X connect 8 0 11 0;
#X connect 8 1 6 0;
#X connect 8 2 2 0;
#X connect 8 3 7 0;
#X connect 9 0 4 0;
#X connect 10 0 5 0;
#X connect 11 0 4 0;
#X connect 11 1 5 0;
#X restore 262 66 pd route;
#X f 16;
#X obj 44 108 r \$0-seed;
#X text 292 339 Part of ELSE \; https://github.com/porres/pd-else;
#X text 294 320 Alexandre Torres Porres (2018);
#X obj 44 246 rand.f~ 0 1;
#X obj 205 183 rand.f~ 0 100;
#X obj 205 38 inlet~ fwd;
#X obj 308 38 inlet;
#X obj 355 38 inlet;
#X obj 397 126 declare -path else;
#X connect 0 0 4 0;
#X connect 2 0 3 1;
#X connect 3 0 6 0;
#X connect 4 0 11 2;
#X connect 5 0 6 1;
#X connect 6 0 1 0;
#X connect 8 0 11 0;
#X connect 8 0 12 0;
#X connect 11 0 3 0;
#X connect 12 0 2 0;
#X connect 13 0 5 0;
#X connect 13 0 11 0;
#X connect 13 0 12 0;
#X connect 13 1 7 0;
#X connect 14 0 7 1;
#X connect 15 0 7 2;
