#N canvas 655 217 610 504 10;
#X declare -path else;
#X obj 81 66 inlet;
#X msg 191 240 1;
#X obj 191 336 f;
#X obj 248 407 outlet;
#X obj 264 64 inlet;
#X text 295 195 Part of ELSE \; https://github.com/porres/pd-else;
#X text 297 176 Alexandre Torres Porres (2017);
#X obj 145 173 route bang float;
#X obj 191 206 t b f;
#X obj 248 371 * 1;
#X obj 191 268 exp;
#X obj 145 151 else/args;
#X obj 283 280 else/click;
#X obj 102 128 else/lb 2;
#X obj 81 266 b;
#X obj 335 123 declare -path else;
#X connect 0 0 14 0;
#X connect 1 0 10 0;
#X connect 2 0 9 0;
#X connect 4 0 9 1;
#X connect 7 0 1 0;
#X connect 7 1 8 0;
#X connect 8 0 1 0;
#X connect 8 1 9 1;
#X connect 9 0 3 0;
#X connect 10 0 2 1;
#X connect 11 0 7 0;
#X connect 12 0 2 0;
#X connect 13 0 2 0;
#X connect 13 1 11 0;
#X connect 14 0 2 0;
