#N canvas 414 85 593 418 12;
#X declare -path else;
#X obj 219 24 inlet;
#X obj 34 24 inlet;
#X obj 147 372 outlet;
#X obj 34 78 route bang;
#X text 313 127 Part of ELSE \; https://github.com/porres/pd-else;
#X text 315 108 Alexandre Torres Porres (2020);
#X obj 133 145 unpack;
#X obj 115 172 f;
#X obj 147 327 else/group;
#X obj 115 201 t b f;
#X obj 219 146 v n_\$0;
#N canvas 275 38 317 266 cents 0;
#X obj 52 25 inlet;
#X obj 52 208 outlet;
#X msg 162 133 step \$1;
#X obj 161 109 else/ratio2cents;
#X obj 52 167 else/loop;
#X obj 52 64 expr n_\$0 + 1 \; pow($f1 \, 1/n_\$0);
#X connect 0 0 5 0;
#X connect 2 0 4 0;
#X connect 3 0 2 0;
#X connect 4 0 1 0;
#X connect 5 0 4 0;
#X connect 5 1 3 0;
#X restore 147 264 pd cents;
#X obj 147 228 else/router;
#N canvas 603 87 292 310 ratio 0;
#X obj 80 34 inlet;
#X obj 80 217 outlet;
#X obj 80 103 expr n_\$0 + 1;
#X obj 80 66 trigger bang float;
#X obj 80 138 else/loop;
#X obj 80 173 expr pow($f2 \, $f1 / n_\$0 );
#X connect 0 0 3 0;
#X connect 2 0 4 0;
#X connect 3 0 2 0;
#X connect 3 1 5 1;
#X connect 4 0 5 0;
#X connect 5 0 1 0;
#X restore 221 264 pd ratio;
#X obj 101 111 t b a;
#N canvas 370 52 403 495 init 0;
#X obj 115 168 route bang;
#X msg 231 275 2 12;
#X obj 214 397 outlet;
#X obj 115 206 route -ratio;
#X msg 115 319 1;
#X obj 115 236 route bang;
#X obj 182 274 t b a;
#X obj 115 351 s \$0-router;
#X obj 115 106 pdcontrol;
#X msg 115 76 args;
#X obj 115 137 else/break -;
#X obj 115 40 else/lb 2, f 17;
#X connect 0 1 3 0;
#X connect 1 0 2 0;
#X connect 3 0 5 0;
#X connect 4 0 7 0;
#X connect 5 0 4 0;
#X connect 5 1 6 0;
#X connect 6 0 4 0;
#X connect 6 1 2 0;
#X connect 8 0 10 0;
#X connect 9 0 8 0;
#X connect 10 0 0 0;
#X connect 11 0 9 0;
#X connect 11 1 1 0;
#X restore 160 112 pd init;
#X obj 221 201 r \$0-router;
#X obj 326 80 declare -path else;
#X connect 0 0 10 0;
#X connect 1 0 3 0;
#X connect 3 0 7 0;
#X connect 3 1 14 0;
#X connect 6 0 7 1;
#X connect 6 1 10 0;
#X connect 7 0 9 0;
#X connect 8 0 2 0;
#X connect 9 0 8 0;
#X connect 9 1 12 0;
#X connect 11 0 8 0;
#X connect 12 0 11 0;
#X connect 12 1 13 0;
#X connect 13 0 8 0;
#X connect 14 0 7 0;
#X connect 14 1 6 0;
#X connect 15 0 6 0;
#X connect 16 0 12 1;
