#N canvas 457 106 593 431 12;
#X declare -path else;
#X obj 182 24 inlet;
#X obj 34 24 inlet;
#X obj 147 386 outlet;
#X obj 34 78 route bang;
#X text 313 127 Part of ELSE \; https://github.com/porres/pd-else;
#X text 315 108 Alexandre Torres Porres (2020);
#X obj 133 145 unpack;
#X obj 147 341 else/group;
#X obj 115 215 t b f;
#X obj 52 182 v n_\$0;
#N canvas 275 38 404 275 cents 0;
#X obj 52 25 inlet;
#X obj 53 208 outlet;
#X msg 147 127 step \$1;
#X obj 211 101 else/ratio2cents;
#X obj 53 167 else/loop;
#X obj 211 153 v cents_\$0;
#X obj 53 80 expr n_\$0 + 1 \; cents_\$0/n_\$0;
#X obj 53 53 trigger float float, f 23;
#X connect 0 0 7 0;
#X connect 2 0 4 0;
#X connect 3 0 5 0;
#X connect 4 0 1 0;
#X connect 6 0 4 0;
#X connect 6 1 2 0;
#X connect 7 0 6 0;
#X connect 7 1 3 0;
#X restore 147 278 pd cents;
#X obj 147 242 else/router;
#N canvas 603 87 292 310 ratio 0;
#X obj 80 34 inlet;
#X obj 80 217 outlet;
#X obj 80 103 expr n_\$0 + 1;
#X obj 80 66 trigger bang float;
#X obj 80 138 else/loop;
#X obj 80 173 expr pow($f2 \, $f1 / n_\$0 );
#X connect 0 0 3 0;
#X connect 2 0 4 0;
#X connect 3 0 2 0;
#X connect 3 1 5 1;
#X connect 4 0 5 0;
#X connect 5 0 1 0;
#X restore 221 278 pd ratio;
#X obj 101 111 t b a;
#N canvas 370 52 330 441 init 0;
#X obj 188 348 outlet;
#X obj 89 137 route -ratio, f 19;
#X msg 89 250 1;
#X obj 89 167 route bang;
#X obj 156 205 t b a;
#X obj 89 282 s \$0-router;
#X obj 89 76 else/args -;
#X obj 89 106 else/default 12 2;
#X obj 89 45 loadbang;
#X connect 1 0 3 0;
#X connect 1 1 0 0;
#X connect 2 0 5 0;
#X connect 3 0 2 0;
#X connect 3 1 4 0;
#X connect 4 0 2 0;
#X connect 4 1 0 0;
#X connect 6 0 7 0;
#X connect 7 0 1 0;
#X connect 8 0 6 0;
#X restore 201 99 pd init;
#X obj 221 215 r \$0-router;
#X obj 326 80 declare -path else;
#X obj 115 182 float, f 10;
#X connect 0 0 17 1;
#X connect 1 0 3 0;
#X connect 3 0 17 0;
#X connect 3 1 13 0;
#X connect 6 0 9 0;
#X connect 6 1 17 1;
#X connect 7 0 2 0;
#X connect 8 0 7 0;
#X connect 8 1 11 0;
#X connect 10 0 7 0;
#X connect 11 0 10 0;
#X connect 11 1 12 0;
#X connect 12 0 7 0;
#X connect 13 0 17 0;
#X connect 13 1 6 0;
#X connect 14 0 6 0;
#X connect 15 0 11 1;
#X connect 17 0 8 0;
