#N canvas 661 414 671 380 12;
#X declare -path else;
#X obj 108 39 inlet~;
#X obj 108 310 outlet~;
#X text 395 109 Part of ELSE \; https://github.com/porres/pd-else;
#X text 397 90 Alexandre Torres Porres (2018);
#X obj 357 40 inlet;
#X obj 170 40 inlet;
#X obj 357 168 f2s~ 10;
#N canvas 875 144 450 300 arg 0;
#X obj 152 66 args;
#X obj 152 93 break -;
#X obj 152 125 routetype anything;
#X obj 152 171 sel -sine -tri;
#X msg 152 206 sine;
#X msg 198 207 tri;
#X obj 155 263 outlet;
#X obj 270 205 outlet;
#X obj 152 148 symbol;
#X obj 152 37 loadbanger -init;
#X connect 0 0 1 0;
#X connect 1 0 2 0;
#X connect 2 0 8 0;
#X connect 2 1 7 0;
#X connect 3 0 4 0;
#X connect 3 1 5 0;
#X connect 4 0 6 0;
#X connect 5 0 6 0;
#X connect 8 0 3 0;
#X connect 9 0 0 0;
#X restore 202 79 pd arg;
#X obj 170 228 f2s~ 10;
#X obj 357 196 clip~ -1 1;
#X obj 256 40 inlet;
#X obj 241 107 unpack f f f;
#X obj 170 169 / 127;
#X obj 170 198 *;
#X obj 256 192 max 0;
#X obj 108 260 comb.rev~ 100 1, f 36;
#X obj 170 142 lfo;
#X obj 444 234 declare -path else;
#X connect 0 0 15 0;
#X connect 4 0 6 0;
#X connect 5 0 16 0;
#X connect 6 0 9 0;
#X connect 7 0 16 0;
#X connect 7 1 11 0;
#X connect 8 0 15 1;
#X connect 9 0 15 4;
#X connect 9 0 15 3;
#X connect 10 0 14 0;
#X connect 11 0 16 0;
#X connect 11 1 14 0;
#X connect 11 2 6 0;
#X connect 12 0 13 0;
#X connect 13 0 8 0;
#X connect 14 0 13 1;
#X connect 15 0 1 0;
#X connect 16 0 12 0;
