#N canvas 556 62 602 381 12;
#X declare -path else;
#X obj 82 328 outlet;
#X obj 82 43 inlet;
#X obj 114 188 route float list;
#X obj 168 217 /;
#X obj 82 75 t b a;
#X text 265 163 Part of ELSE \; https://github.com/porres/pd-else;
#X text 267 144 Alexandre Torres Porres (2017);
#X obj 114 102 iterate;
#X obj 114 129 any2symbol;
#X obj 114 158 separate /;
#X obj 82 294 group;
#X obj 114 257 ratio2cents;
#X obj 286 94 declare -path else;
#X connect 1 0 4 0;
#X connect 2 0 11 0;
#X connect 2 1 3 0;
#X connect 3 0 11 0;
#X connect 4 0 10 0;
#X connect 4 1 7 0;
#X connect 7 0 8 0;
#X connect 8 0 9 0;
#X connect 9 0 2 0;
#X connect 10 0 0 0;
#X connect 11 0 10 0;
