#N canvas 521 59 576 567 12;
#X declare -path else;
#X obj 37 36 inlet;
#X obj 272 38 inlet;
#X obj 167 523 outlet;
#X text 314 327 Part of ELSE \; https://github.com/porres/pd-else;
#X text 316 308 Alexandre Torres Porres (2021);
#X obj 167 397 line;
#X obj 37 248 s \$0-rate;
#X obj 36 277 r \$0-rate;
#X obj 36 301 max 1;
#N canvas 828 124 447 419 init 0;
#X obj 98 73 else/loadbanger 2, f 24;
#X obj 297 329 s \$0-rate;
#X msg 297 143 5;
#X obj 263 363 s \$0-time;
#X msg 263 143 0;
#X obj 334 297 v exp_\$0;
#X msg 334 143 1;
#X obj 17 193 list split 1;
#X obj 17 234 else/swap2;
#X obj 111 193 list split 1;
#X obj 111 234 else/swap2;
#X obj 98 143 route -rate -exp float;
#X obj 98 110 else/args -;
#X connect 0 0 12 0;
#X connect 0 1 2 0;
#X connect 0 1 4 0;
#X connect 0 1 6 0;
#X connect 2 0 1 0;
#X connect 4 0 3 0;
#X connect 6 0 5 0;
#X connect 7 0 8 0;
#X connect 7 1 8 1;
#X connect 8 0 11 0;
#X connect 8 1 1 0;
#X connect 9 0 10 0;
#X connect 9 1 10 1;
#X connect 10 0 11 0;
#X connect 10 1 5 0;
#X connect 11 0 7 0;
#X connect 11 1 9 0;
#X connect 11 2 3 0;
#X connect 12 0 11 0;
#X restore 320 94 pd init;
#X obj 165 125 unpack;
#X msg 104 397 exp \$1;
#X obj 165 285 pack;
#X obj 182 485 v last_\$0;
#X obj 246 262 expr copysign(exp_\$0 \, ($f1 - last_\$0));
#X obj 218 321 v last_\$0;
#X obj 377 401 r \$0-start;
#X obj 165 192 t f b f, f 12;
#X obj 272 173 s \$0-time;
#X obj 271 197 r \$0-time;
#X obj 274 235 s \$0-start;
#X obj 132 285 f;
#X obj 79 124 b;
#X obj 37 85 route rate reset float list exp;
#X obj 283 143 v exp_\$0;
#X obj 393 144 declare -path else;
#X obj 250 385 pack;
#X msg 250 409 in \$1 \$2;
#X obj 167 453 else/rescale;
#X obj 218 349 t f f;
#X connect 0 0 23 0;
#X connect 1 0 18 0;
#X connect 5 0 28 0;
#X connect 7 0 8 0;
#X connect 8 0 5 2;
#X connect 10 0 17 0;
#X connect 10 1 18 0;
#X connect 11 0 28 0;
#X connect 12 0 5 0;
#X connect 14 0 11 0;
#X connect 15 0 29 0;
#X connect 16 0 26 1;
#X connect 16 0 28 2;
#X connect 17 0 12 0;
#X connect 17 0 21 1;
#X connect 17 1 15 0;
#X connect 17 2 14 0;
#X connect 17 2 20 0;
#X connect 19 0 12 1;
#X connect 21 0 5 0;
#X connect 22 0 21 0;
#X connect 23 0 6 0;
#X connect 23 1 22 0;
#X connect 23 2 17 0;
#X connect 23 3 10 0;
#X connect 23 4 24 0;
#X connect 26 0 27 0;
#X connect 27 0 28 0;
#X connect 28 0 2 0;
#X connect 28 0 13 0;
#X connect 29 0 5 0;
#X connect 29 1 26 0;
#X connect 29 1 28 1;
