#N canvas 461 114 600 403 12;
#X declare -path else;
#X obj 160 285 +~;
#X obj 86 89 expr 1000 / $f1;
#N canvas 294 311 502 529 grain-2 0;
#X obj 213 263 +~;
#X obj 107 200 *~;
#X obj 308 438 *~;
#X obj 308 489 outlet~;
#X obj 107 92 pimp~ 0 0.5;
#X obj 326 243 envelope~;
#X obj 125 168 sh~;
#X obj 213 307 wrap2~;
#X obj 125 386 tabread4~ \$1-\$2;
#X obj 231 63 r \$1-ramp;
#X obj 125 293 + 1;
#X obj 125 264 r \$1-loop;
#X obj 125 342 xselect~ 2 0 1, f 13;
#X obj 231 92 ramp~ -off;
#N canvas 537 110 437 396 mute 0;
#X obj 123 139 route bang start reset stop;
#X msg 216 180 0;
#X msg 123 180 1;
#X obj 98 216 *~ 0;
#X obj 97 258 outlet~;
#X obj 123 106 r \$1-ramp;
#X obj 262 255 outlet;
#X msg 262 182 0.5;
#X obj 98 62 inlet;
#X connect 0 0 2 0;
#X connect 0 1 2 0;
#X connect 0 2 1 0;
#X connect 0 2 7 0;
#X connect 0 3 1 0;
#X connect 0 3 7 0;
#X connect 1 0 3 1;
#X connect 2 0 3 1;
#X connect 3 0 4 0;
#X connect 5 0 0 0;
#X connect 7 0 6 0;
#X connect 8 0 3 0;
#X restore 107 60 pd mute;
#X obj 39 31 inlet;
#X obj 107 32 inlet;
#X obj 265 34 inlet;
#X obj 368 68 r \$1-max;
#X obj 336 40 r \$1-min;
#X connect 0 0 7 0;
#X connect 0 0 12 0;
#X connect 1 0 0 0;
#X connect 2 0 3 0;
#X connect 4 0 1 0;
#X connect 4 0 5 0;
#X connect 4 1 6 1;
#X connect 5 0 2 1;
#X connect 6 0 1 1;
#X connect 7 0 12 1;
#X connect 8 0 2 0;
#X connect 9 0 13 0;
#X connect 10 0 12 0;
#X connect 11 0 10 0;
#X connect 12 0 8 0;
#X connect 13 0 0 1;
#X connect 14 0 4 0;
#X connect 14 1 4 1;
#X connect 15 0 6 0;
#X connect 16 0 14 0;
#X connect 17 0 13 1;
#X connect 18 0 7 2;
#X connect 18 0 13 3;
#X connect 19 0 13 2;
#X connect 19 0 7 1;
#X restore 222 245 pd grain-2;
#N canvas 206 226 618 522 grain-1 0;
#X obj 213 220 +~;
#X obj 108 175 *~;
#X obj 236 395 *~;
#X obj 236 446 outlet~;
#X obj 358 211 envelope~;
#X obj 126 151 sh~;
#X obj 213 264 wrap2~;
#X obj 125 344 tabread4~ \$1-\$2, f 17;
#X obj 231 70 r \$1-ramp;
#X obj 125 253 + 1;
#X obj 125 224 r \$1-loop;
#X obj 125 299 xselect~ 2 0 1, f 13;
#X obj 231 97 ramp~ -off;
#N canvas 180 23 437 396 mute 0;
#X obj 123 139 route bang start reset stop;
#X msg 216 180 0;
#X msg 123 180 1;
#X obj 98 216 *~ 0;
#X obj 98 258 outlet~;
#X obj 123 106 r \$1-ramp;
#X obj 216 254 outlet;
#X obj 98 62 inlet;
#X connect 0 0 2 0;
#X connect 0 1 2 0;
#X connect 0 2 1 0;
#X connect 0 3 1 0;
#X connect 1 0 3 1;
#X connect 1 0 6 0;
#X connect 2 0 3 1;
#X connect 3 0 4 0;
#X connect 5 0 0 0;
#X connect 7 0 3 0;
#X restore 108 65 pd mute;
#X obj 108 92 pimp~;
#X obj 333 446 outlet;
#X obj 498 149 r \$1-loop;
#X obj 480 189 f;
#X obj 480 216 sel 0;
#X obj 480 270 s \$1-ramp;
#X msg 480 241 reset;
#X obj 38 37 inlet;
#X obj 265 38 inlet;
#X obj 108 37 inlet;
#X obj 368 68 r \$1-max;
#X obj 336 40 r \$1-min;
#X connect 0 0 6 0;
#X connect 0 0 11 0;
#X connect 1 0 0 0;
#X connect 2 0 3 0;
#X connect 4 0 2 1;
#X connect 5 0 1 1;
#X connect 6 0 11 1;
#X connect 7 0 2 0;
#X connect 8 0 12 0;
#X connect 9 0 11 0;
#X connect 10 0 9 0;
#X connect 11 0 7 0;
#X connect 12 0 0 1;
#X connect 12 1 15 0;
#X connect 12 1 17 0;
#X connect 13 0 14 0;
#X connect 13 1 14 1;
#X connect 14 0 1 0;
#X connect 14 0 4 0;
#X connect 14 1 5 1;
#X connect 16 0 17 1;
#X connect 17 0 18 0;
#X connect 18 0 20 0;
#X connect 20 0 19 0;
#X connect 21 0 5 0;
#X connect 22 0 12 1;
#X connect 23 0 13 0;
#X connect 24 0 6 2;
#X connect 24 0 12 3;
#X connect 25 0 12 2;
#X connect 25 0 6 1;
#X restore 104 244 pd grain-1;
#X obj 349 165 / 100;
#X obj 160 344 outlet~;
#X obj 222 89 cents2ratio;
#X obj 74 151 ms2samps;
#X obj 349 34 r \$1-speed;
#X obj 288 345 outlet;
#X obj 222 37 r \$1-transp;
#X obj 74 36 r \$1-grain-size;
#X text 326 248 Alexandre Torres Porres (2018) \; Part of ELSE:;
#X text 327 282 https://github.com/porres/pd-else;
#N canvas 247 56 450 300 mute 0;
#X obj 81 119 route bang start reset stop;
#X obj 311 54 inlet~;
#X msg 174 160 0;
#X msg 81 160 1;
#X obj 174 250 outlet~;
#X obj 81 86 r \$1-ramp;
#X obj 174 209 autofade2~ 10 0;
#X connect 0 0 3 0;
#X connect 0 1 3 0;
#X connect 0 2 2 0;
#X connect 0 3 2 0;
#X connect 1 0 6 1;
#X connect 2 0 6 0;
#X connect 3 0 6 0;
#X connect 5 0 0 0;
#X connect 6 0 4 0;
#X restore 160 315 pd mute;
#X obj 189 133 hot 3;
#X obj 185 164 expr $f1 * ($f2-$f3), f 11;
#X msg 31 281 set \$1;
#X obj 31 309 s \$1-ramp;
#X obj 31 241 * -0.5;
#X obj 408 113 declare -path else;
#X connect 0 0 14 0;
#X connect 1 0 15 0;
#X connect 2 0 0 1;
#X connect 3 0 0 0;
#X connect 3 1 9 0;
#X connect 4 0 15 2;
#X connect 4 0 2 2;
#X connect 4 0 3 2;
#X connect 6 0 15 1;
#X connect 7 0 3 0;
#X connect 7 0 2 0;
#X connect 7 0 19 0;
#X connect 8 0 4 0;
#X connect 10 0 6 0;
#X connect 11 0 7 0;
#X connect 11 0 1 0;
#X connect 14 0 5 0;
#X connect 15 0 16 0;
#X connect 15 1 16 1;
#X connect 15 2 16 2;
#X connect 16 0 3 1;
#X connect 16 0 2 1;
#X connect 17 0 18 0;
#X connect 19 0 17 0;
