#N canvas 866 62 687 474 10;
#X declare -path else;
#X obj 309 33 inlet;
#X obj 38 33 inlet;
#X obj 252 399 outlet;
#X obj 95 197 list prepend;
#X obj 131 114 t b a;
#X obj 95 175 until;
#X obj 164 155 list prepend;
#X obj 309 297 s $-stop;
#X obj 172 114 r $-stop;
#X obj 309 273 trigger bang anything;
#X obj 252 248 list split;
#X obj 74 231 list;
#X obj 74 260 route bang;
#X obj 38 103 t b b;
#X obj 38 62 route bang clear;
#X obj 233 129 r \$0-clear;
#X obj 122 89 s \$0-clear;
#X obj 43 317 s \$0-clear;
#X obj 111 236 r \$0-clear;
#X obj 195 271 route bang;
#X obj 259 295 list;
#N canvas 598 181 450 300 trim 0;
#X obj 149 41 inlet;
#X obj 155 193 outlet;
#X obj 189 81 r \$0-trim;
#X obj 187 142 list trim;
#X obj 152 111 router;
#X connect 0 0 4 0;
#X connect 2 0 4 1;
#X connect 3 0 1 0;
#X connect 4 0 1 0;
#X connect 4 1 3 0;
#X restore 252 320 pd trim;
#N canvas 762 23 485 316 set 0;
#X obj 74 118 s \$0-clear;
#X obj 74 61 trigger bang float;
#X obj 196 195 outlet;
#X obj 74 28 inlet;
#X obj 197 127 max 0;
#X obj 294 110 args;
#X obj 294 140 break -;
#X obj 297 229 s \$0-trim;
#X obj 295 168 route -trim float;
#X msg 219 98 0;
#X obj 228 56 lb -init 2;
#X msg 296 203 1;
#X connect 1 0 0 0;
#X connect 1 1 4 0;
#X connect 3 0 1 0;
#X connect 4 0 2 0;
#X connect 5 0 6 0;
#X connect 6 0 8 0;
#X connect 8 0 11 0;
#X connect 8 1 4 0;
#X connect 9 0 4 0;
#X connect 10 0 5 0;
#X connect 10 1 9 0;
#X connect 11 0 7 0;
#X restore 309 64 pd set;
#X obj 453 104 declare -path else;
#X text 401 173 Part of ELSE \; https://github.com/porres/pd-else;
#X text 403 154 Alexandre Torres Porres (2019);
#X obj 312 399 outlet;
#X connect 0 0 22 0;
#X connect 1 0 14 0;
#X connect 3 0 10 0;
#X connect 3 0 11 1;
#X connect 4 0 5 0;
#X connect 4 1 6 0;
#X connect 5 0 3 0;
#X connect 6 0 3 1;
#X connect 8 0 5 1;
#X connect 9 0 7 0;
#X connect 9 1 6 1;
#X connect 10 0 19 0;
#X connect 10 1 3 1;
#X connect 10 1 20 1;
#X connect 10 2 9 0;
#X connect 11 0 12 0;
#X connect 12 0 26 0;
#X connect 12 1 21 0;
#X connect 13 0 17 0;
#X connect 13 1 11 0;
#X connect 14 0 13 0;
#X connect 14 1 16 0;
#X connect 14 2 4 0;
#X connect 15 0 6 1;
#X connect 18 0 11 1;
#X connect 19 0 20 0;
#X connect 19 1 21 0;
#X connect 20 0 9 0;
#X connect 21 0 2 0;
#X connect 22 0 10 1;
