#N canvas 487 158 374 285 12;
#X obj 62 19 inlet;
#X text 48 127 Part of ELSE \; https://github.com/porres/pd-else;
#X text 50 108 Alexandre Torres Porres (2022);
#N canvas 587 227 606 386 init 0;
#X obj 246 186 else/swap2;
#X obj 247 214 route bang;
#X obj 227 71 symbol \$0-histo;
#X obj 141 71 else/args -;
#X obj 202 302 s \$0-name;
#X obj 202 252 else/dollsym 1;
#X obj 246 162 else/slice 1;
#X msg 349 222 resize \$1;
#N canvas 362 201 404 271 savestate 0;
#X obj 93 84 savestate;
#X obj 227 202 else/buffer;
#X msg 244 152 name \$1;
#X obj 244 121 r \$0-name;
#X obj 68 118 list;
#X obj 68 151 route list;
#X obj 227 84 r \$0-embed;
#X obj 68 42 inlet;
#X obj 153 110 else/router;
#X connect 0 0 4 1;
#X connect 0 1 8 0;
#X connect 1 0 0 0;
#X connect 2 0 1 0;
#X connect 3 0 2 0;
#X connect 4 0 5 0;
#X connect 5 0 1 1;
#X connect 6 0 8 1;
#X connect 7 0 4 0;
#X connect 8 0 0 0;
#X connect 8 1 1 0;
#X restore 55 286 pd savestate;
#X msg 112 215 1;
#X obj 112 239 s \$0-embed;
#X obj 80 182 t a b;
#X obj 349 322 array define \$0-histo 128;
#X msg 366 281 rename \$1;
#X obj 349 194 max 1;
#X obj 55 33 else/loadbanger 3, f 25;
#X obj 446 287 r \$0-array;
#X obj 366 252 r \$0-name;
#X obj 141 115 route -size symbol -embed;
#X connect 0 0 1 0;
#X connect 0 1 14 0;
#X connect 1 1 18 0;
#X connect 2 0 5 0;
#X connect 3 0 18 0;
#X connect 5 0 4 0;
#X connect 6 0 0 0;
#X connect 6 1 0 1;
#X connect 7 0 12 0;
#X connect 9 0 10 0;
#X connect 11 0 18 0;
#X connect 11 1 9 0;
#X connect 13 0 12 0;
#X connect 14 0 7 0;
#X connect 15 0 8 0;
#X connect 15 1 3 0;
#X connect 15 2 2 0;
#X connect 16 0 12 0;
#X connect 17 0 13 0;
#X connect 18 0 6 0;
#X connect 18 1 5 0;
#X connect 18 2 11 0;
#X connect 18 3 5 0;
#X restore 176 66 pd init;
#X obj 247 225 outlet;
#X obj 145 225 outlet;
#N canvas 400 195 630 381 route 0;
#X msg 113 206 const 0;
#X obj 171 146 s \$0-query;
#X obj 215 119 s \$0-export;
#X msg 309 249 const 0 \, resize \$1, f 9;
#X obj 386 130 symbol;
#X obj 386 188 s \$0-name;
#X obj 386 162 else/dollsym 1;
#X obj 354 217 s \$0-import;
#N canvas 203 28 373 350 set 0;
#X obj 135 238 + 1;
#X obj 135 166 trigger float float;
#X obj 185 107 stripnote;
#X obj 53 128 r \$0-name;
#X msg 53 152 set \$1;
#X obj 135 204 tabread;
#X obj 135 270 tabwrite;
#X obj 135 49 inlet;
#X obj 185 49 inlet;
#X obj 250 284 pack;
#X obj 250 308 s \$0-list;
#X connect 0 0 6 0;
#X connect 0 0 9 0;
#X connect 1 0 5 0;
#X connect 1 1 6 1;
#X connect 1 1 9 1;
#X connect 2 0 1 0;
#X connect 3 0 4 0;
#X connect 4 0 5 0;
#X connect 4 0 6 0;
#X connect 5 0 0 0;
#X connect 7 0 1 0;
#X connect 8 0 2 0;
#X connect 9 0 10 0;
#X restore 36 159 pd set;
#X obj 36 39 inlet;
#X obj 36 80 route float list clear bang query export import size name
seed embed, f 72;
#X obj 524 151 s \$0-embed;
#X obj 524 120 != 0;
#X obj 309 328 send \$0-array;
#X connect 0 0 13 0;
#X connect 3 0 13 0;
#X connect 4 0 6 0;
#X connect 6 0 5 0;
#X connect 9 0 10 0;
#X connect 10 0 8 0;
#X connect 10 1 8 1;
#X connect 10 2 0 0;
#X connect 10 4 1 0;
#X connect 10 5 2 0;
#X connect 10 6 3 0;
#X connect 10 7 7 0;
#X connect 10 8 4 0;
#X connect 10 10 12 0;
#X connect 12 0 11 0;
#X restore 62 67 pd route;
#X obj 57 191 r \$0-list;
#X obj 57 225 outlet;
#N canvas 605 161 675 362 export/query 0;
#X obj 484 115 r \$0-query;
#X obj 484 198 outlet;
#X obj 257 199 outlet;
#X obj 425 71 r \$0-name;
#X msg 425 115 set \$1;
#X obj 484 158 tabread;
#X obj 257 149 else/buffer;
#X msg 269 115 name \$1;
#X obj 257 57 r \$0-export;
#X obj 331 115 r \$0-import;
#X connect 0 0 5 0;
#X connect 3 0 4 0;
#X connect 3 0 7 0;
#X connect 4 0 5 0;
#X connect 5 0 1 0;
#X connect 6 0 2 0;
#X connect 7 0 6 0;
#X connect 8 0 6 0;
#X connect 9 0 6 1;
#X restore 145 191 pd export/query;
#X connect 0 0 6 0;
#X connect 7 0 8 0;
#X connect 9 0 5 0;
#X connect 9 1 4 0;
