#N canvas 445 36 547 389 10;
#X declare -path else;
#X text 278 253 Part of ELSE \; https://github.com/porres/pd-else;
#X text 276 232 Alexandre Torres Porres (2020);
#X obj 209 170 list prepend;
#X msg 134 189 0;
#X obj 51 168 t b b;
#X msg 51 190 1;
#X obj 78 216 spigot;
#X obj 134 168 t b a;
#X obj 134 142 list split \$1;
#N canvas 958 289 264 252 init 0;
#X obj 109 95 list split 1;
#X obj 67 132 route float;
#X obj 153 132 list;
#X obj 143 162 outlet;
#X obj 67 162 outlet;
#X obj 109 49 else/lb -init;
#X obj 109 72 else/args;
#X connect 0 0 1 0;
#X connect 0 1 2 1;
#X connect 0 1 3 0;
#X connect 1 0 4 0;
#X connect 1 1 2 0;
#X connect 2 0 3 0;
#X connect 5 0 6 0;
#X connect 6 0 0 0;
#X restore 225 141 pd init;
#X obj 318 41 inlet;
#X obj 278 41 inlet;
#X obj 161 307 list trim;
#X obj 50 41 inlet;
#X obj 161 340 outlet;
#X obj 50 74 route bang;
#X obj 107 95 t b a;
#X obj 134 119 list;
#X obj 161 249 list;
#X obj 161 277 else/message;
#X obj 335 111 declare -path else;
#X connect 2 0 18 1;
#X connect 3 0 6 1;
#X connect 4 0 5 0;
#X connect 4 1 6 0;
#X connect 5 0 6 1;
#X connect 6 0 18 0;
#X connect 7 0 3 0;
#X connect 7 1 18 0;
#X connect 8 0 7 0;
#X connect 8 1 2 0;
#X connect 8 2 2 0;
#X connect 9 0 8 1;
#X connect 9 1 2 1;
#X connect 10 0 8 1;
#X connect 11 0 2 1;
#X connect 12 0 14 0;
#X connect 13 0 15 0;
#X connect 15 0 19 0;
#X connect 15 1 16 0;
#X connect 16 0 4 0;
#X connect 16 1 17 0;
#X connect 17 0 8 0;
#X connect 18 0 19 0;
#X connect 19 0 12 0;
