#N canvas 503 61 538 504 12;
#X declare -path else;
#X obj 62 294 t b b f;
#X obj 85 365 expr s_\$0[$f1] + (t_\$0[$f1]-s_\$0[$f1]) * $f2, f 27
;
#X obj 333 196 array define s_\$0;
#X obj 333 226 array define t_\$0;
#X obj 85 333 loop;
#X obj 62 413 group;
#X obj 62 467 outlet;
#X obj 214 36 inlet;
#X text 260 294 Part of ELSE \; https://github.com/porres/pd-else;
#X text 262 275 Alexandre Torres Porres (2021);
#X obj 62 36 inlet;
#X obj 62 103 clip 0 1, f 4;
#X obj 214 109 route float list;
#X obj 145 296 r \$0-size;
#X obj 62 73 route float exp start target;
#N canvas 789 176 439 365 init 0;
#X obj 75 214 list split 1;
#X obj 75 289 s \$0-exp-arg;
#X obj 265 188 array size t_\$0;
#X obj 257 218 array size s_\$0;
#X obj 244 248 s \$0-size;
#X obj 73 92 loadbang;
#X obj 244 150 list length;
#X obj 175 252 t l l;
#X obj 175 288 array set s_\$0;
#X obj 73 158 route bang -exp;
#X msg 186 214 0;
#X obj 73 129 args -;
#X connect 0 0 1 0;
#X connect 0 1 7 0;
#X connect 5 0 11 0;
#X connect 6 0 2 0;
#X connect 6 0 3 0;
#X connect 6 0 4 0;
#X connect 7 0 8 0;
#X connect 7 1 6 0;
#X connect 9 0 10 0;
#X connect 9 1 0 0;
#X connect 9 2 7 0;
#X connect 10 0 7 0;
#X connect 11 0 9 0;
#X restore 334 164 pd init;
#N canvas 743 412 249 249 exp 0;
#X obj 87 58 inlet;
#X obj 87 130 clip 0.1 10;
#X obj 111 96 r \$0-exp-arg;
#X obj 87 164 s \$0-exp;
#X connect 0 0 1 0;
#X connect 1 0 3 0;
#X connect 2 0 1 0;
#X restore 110 114 pd exp;
#X obj 62 200 expr if(pos_\$0 \, 1 - $f1 \, $f1);
#N canvas 723 133 595 641 set 0;
#X obj 283 59 inlet;
#X obj 193 224 > 0.5;
#X obj 64 59 inlet;
#X obj 283 390 router;
#X obj 193 288 t f f;
#X obj 195 319 !=;
#X obj 121 59 inlet;
#X text 165 58 start;
#X text 333 59 target;
#X obj 121 93 t l b l;
#X obj 389 526 array set s_\$0;
#X obj 358 560 array set t_\$0;
#X obj 389 493 list;
#X obj 357 420 t l b;
#X obj 283 111 t l b l;
#X obj 350 237 array size t_\$0;
#X obj 342 267 array size s_\$0;
#X obj 328 170 list length;
#X obj 328 199 change;
#X obj 329 297 s \$0-size;
#X obj 206 258 v pos_\$0;
#X obj 145 190 float;
#X obj 121 388 router;
#X obj 227 491 list;
#X obj 195 418 t l b;
#X obj 196 558 array set s_\$0;
#X obj 227 523 array set t_\$0;
#X connect 0 0 14 0;
#X connect 1 0 4 0;
#X connect 1 0 20 0;
#X connect 2 0 21 1;
#X connect 3 0 11 0;
#X connect 3 0 12 1;
#X connect 3 1 13 0;
#X connect 4 0 5 1;
#X connect 4 1 5 0;
#X connect 5 0 3 1;
#X connect 5 0 22 1;
#X connect 6 0 9 0;
#X connect 9 0 22 0;
#X connect 9 1 21 0;
#X connect 9 2 17 0;
#X connect 12 0 10 0;
#X connect 13 0 12 1;
#X connect 13 0 11 0;
#X connect 13 1 12 0;
#X connect 14 0 3 0;
#X connect 14 1 21 0;
#X connect 14 2 17 0;
#X connect 17 0 18 0;
#X connect 18 0 15 0;
#X connect 18 0 16 0;
#X connect 18 0 19 0;
#X connect 21 0 1 0;
#X connect 22 0 23 1;
#X connect 22 0 25 0;
#X connect 22 1 24 0;
#X connect 23 0 26 0;
#X connect 24 0 23 1;
#X connect 24 0 25 0;
#X connect 24 1 23 0;
#X restore 175 166 pd set;
#X obj 94 239 r \$0-exp;
#X obj 62 264 pow 1;
#X obj 347 83 declare -path else;
#X connect 0 0 5 0;
#X connect 0 1 4 0;
#X connect 0 2 1 1;
#X connect 1 0 5 0;
#X connect 4 0 1 0;
#X connect 5 0 6 0;
#X connect 7 0 12 0;
#X connect 10 0 14 0;
#X connect 11 0 18 0;
#X connect 11 0 17 0;
#X connect 12 0 18 2;
#X connect 12 1 18 2;
#X connect 13 0 4 1;
#X connect 14 0 11 0;
#X connect 14 1 16 0;
#X connect 14 2 18 1;
#X connect 14 3 12 0;
#X connect 17 0 20 0;
#X connect 19 0 20 1;
#X connect 20 0 0 0;
