#N canvas 650 23 519 653 10;
#X declare -path else;
#X obj 341 586 outlet;
#X obj 135 22 inlet;
#X obj 52 22 inlet;
#X obj 339 224 route bang float;
#X obj 52 282 t f b;
#X obj 108 409 float;
#X obj 135 181 route float bang;
#X obj 385 347 t f;
#X obj 52 143 route float bang reset, f 11;
#X text 204 116 Part of ELSE \; https://github.com/porres/pd-else;
#X text 204 99 Alexandre Torres Porres (2020), f 33;
#X obj 339 199 else/args;
#X msg 228 302 1;
#X obj 171 350 else/nmess;
#X msg 346 280 0;
#X msg 339 256 1;
#X obj 341 533 f;
#X obj 270 302 else/nmess 0;
#X obj 339 175 else/lb;
#X obj 241 77 declare -path else;
#X connect 1 0 6 0;
#X connect 2 0 8 0;
#X connect 3 0 15 0;
#X connect 3 0 12 0;
#X connect 3 1 7 0;
#X connect 4 0 5 1;
#X connect 4 0 16 1;
#X connect 4 1 14 0;
#X connect 4 1 13 0;
#X connect 5 0 0 0;
#X connect 5 0 16 1;
#X connect 6 0 5 1;
#X connect 6 0 14 0;
#X connect 6 0 16 1;
#X connect 6 1 15 0;
#X connect 6 1 12 0;
#X connect 7 0 5 1;
#X connect 7 0 16 1;
#X connect 8 0 4 0;
#X connect 8 1 17 0;
#X connect 8 2 6 0;
#X connect 11 0 3 0;
#X connect 12 0 13 1;
#X connect 13 1 5 0;
#X connect 14 0 17 1;
#X connect 15 0 17 1;
#X connect 16 0 0 0;
#X connect 17 0 15 0;
#X connect 17 1 16 0;
#X connect 18 0 11 0;
