#N canvas 627 122 525 280 12;
#X declare -path else;
#N canvas 670 355 421 483 lcm 0;
#X obj 140 58 t b l;
#X obj 190 238 max;
#X obj 257 381 sel 1;
#X obj 92 291 until;
#X obj 190 262 v max_\$0;
#X obj 222 237 v n2_\$0;
#X obj 172 286 v n1_\$0;
#X obj 257 408 v max_\$0;
#X obj 92 326 expr max_\$0 = max_\$0+1 \; max_\$0 % n1_\$0 == 0 &&
max_\$0 % n2_\$0 == 0, f 24;
#X obj 257 432 outlet;
#X obj 140 25 inlet;
#X obj 233 62 loadbang;
#X obj 233 86 f \$1;
#X obj 222 25 inlet;
#X obj 222 171 max 1;
#X obj 172 162 max 1;
#X obj 172 84 unpack;
#X obj 222 148 abs;
#X obj 172 133 abs;
#X obj 222 203 int;
#X obj 172 203 int;
#X connect 0 0 3 0;
#X connect 0 1 16 0;
#X connect 1 0 4 0;
#X connect 2 0 3 1;
#X connect 2 0 7 0;
#X connect 3 0 8 0;
#X connect 7 0 9 0;
#X connect 8 1 2 0;
#X connect 10 0 0 0;
#X connect 11 0 12 0;
#X connect 12 0 17 0;
#X connect 13 0 17 0;
#X connect 14 0 19 0;
#X connect 15 0 20 0;
#X connect 16 0 18 0;
#X connect 16 1 17 0;
#X connect 17 0 14 0;
#X connect 18 0 15 0;
#X connect 19 0 5 0;
#X connect 19 0 1 1;
#X connect 20 0 6 0;
#X connect 20 0 1 0;
#X restore 157 140 pd lcm;
#X obj 157 189 outlet;
#X obj 97 55 inlet;
#X obj 196 55 inlet;
#N canvas 642 286 553 445 length 0;
#X obj 251 121 list length;
#X obj 165 55 inlet;
#X obj 166 94 t l l;
#X obj 262 269 outlet;
#X obj 163 275 outlet;
#X obj 251 150 <= 2;
#X obj 161 228 router;
#X connect 0 0 5 0;
#X connect 1 0 2 0;
#X connect 2 0 6 0;
#X connect 2 1 0 0;
#X connect 5 0 6 1;
#X connect 6 0 4 0;
#X connect 6 1 3 0;
#X restore 97 90 pd length;
#N canvas 528 188 525 606 list 0;
#X obj 119 62 inlet;
#X obj 280 252 max;
#X obj 347 395 sel 1;
#X obj 182 305 until;
#X obj 280 276 v max_\$0;
#X obj 321 233 v n2_\$0;
#X obj 262 300 v n1_\$0;
#X obj 347 431 v max_\$0;
#X obj 182 340 expr max_\$0 = max_\$0+1 \; max_\$0 % n1_\$0 == 0 &&
max_\$0 % n2_\$0 == 0, f 24;
#X obj 321 207 max 1;
#X obj 262 216 max 1;
#X obj 142 188 iterate;
#X obj 119 155 t b l b;
#X msg 321 100 1;
#X obj 182 252 t b f;
#X obj 119 531 outlet;
#X obj 119 487 f;
#X obj 262 190 abs;
#X obj 321 176 abs;
#X obj 321 138 int;
#X obj 262 166 int;
#X connect 0 0 12 0;
#X connect 1 0 4 0;
#X connect 2 0 3 1;
#X connect 2 0 7 0;
#X connect 3 0 8 0;
#X connect 7 0 16 1;
#X connect 7 0 19 0;
#X connect 8 1 2 0;
#X connect 9 0 5 0;
#X connect 9 0 1 1;
#X connect 10 0 6 0;
#X connect 10 0 1 0;
#X connect 11 0 14 0;
#X connect 12 0 16 0;
#X connect 12 1 11 0;
#X connect 12 2 13 0;
#X connect 13 0 19 0;
#X connect 14 0 3 0;
#X connect 14 1 20 0;
#X connect 16 0 15 0;
#X connect 17 0 10 0;
#X connect 18 0 9 0;
#X connect 19 0 18 0;
#X connect 20 0 17 0;
#X restore 97 140 pd list;
#X text 236 136 Part of ELSE \; https://github.com/porres/pd-else;
#X text 238 117 Alexandre Torres Porres (2021);
#X obj 300 89 declare -path else;
#X connect 0 0 1 0;
#X connect 2 0 4 0;
#X connect 3 0 0 1;
#X connect 4 0 5 0;
#X connect 4 1 0 0;
#X connect 5 0 1 0;
