#N canvas 646 183 550 606 10;
#X declare -path else;
#X obj 89 38 inlet;
#X obj 203 536 outlet;
#X obj 172 38 inlet;
#X obj 124 331 v i_\$0;
#N canvas 479 401 457 290 route 0;
#X obj 37 27 inlet;
#X obj 42 159 outlet;
#X obj 37 86 route float interp, f 20;
#X obj 125 126 != 0;
#X obj 126 158 s \$0-interp;
#X connect 0 0 2 0;
#X connect 2 0 1 0;
#X connect 2 1 3 0;
#X connect 3 0 4 0;
#X restore 89 100 pd route;
#X obj 89 240 clip -100 100;
#X obj 203 279 v phase_\$0;
#X obj 162 303 wrap;
#X obj 102 272 / 1000;
#X obj 203 303 expr $f1 + i_\$0 \; $f1;
#X obj 89 218 float;
#N canvas 441 105 462 293 args 0;
#X obj 120 85 args;
#X obj 120 158 s \$0-hz;
#X obj 93 57 t b b;
#X obj 93 232 s \$0-lb;
#X obj 121 121 unpack float float float;
#X obj 191 163 != 0;
#X obj 190 188 s \$0-interp;
#X obj 105 202 s \$0-rand;
#X msg 271 164 seed \$1;
#X obj 272 192 s \$0-rand;
#X obj 93 26 lb -init;
#X connect 0 0 4 0;
#X connect 2 0 3 0;
#X connect 2 0 7 0;
#X connect 2 1 0 0;
#X connect 4 0 1 0;
#X connect 4 1 5 0;
#X connect 4 2 8 0;
#X connect 5 0 6 0;
#X connect 8 0 9 0;
#X connect 10 0 2 0;
#X restore 280 148 pd args;
#X obj 105 178 r \$0-hz;
#X obj 203 197 r \$0-lb;
#X text 309 228 Part of ELSE \; https://github.com/porres/pd-else;
#X obj 124 303 * 5;
#X obj 203 252 metro 5;
#X obj 203 358 sel 1;
#X obj 203 383 rand.f 0 127;
#X obj 203 495 line;
#X obj 203 470 pack f f;
#X obj 88 395 expr 1000/$f1;
#X obj 248 445 *;
#X obj 248 423 hot;
#X obj 322 397 tgl 15 0 empty empty empty 17 7 0 10 -262144 -1 -1 0
1;
#X obj 322 371 r \$0-interp;
#X obj 216 91 v phase_\$0;
#X obj 172 63 t b b;
#X msg 216 65 0;
#X obj 172 119 s \$0-rand;
#X obj 248 361 r \$0-rand;
#X text 311 208 Alexandre Torres Porres (2019);
#X obj 203 337 expr $f1 >= 1 || $f1 <= 0;
#X obj 356 99 declare -path else;
#X connect 0 0 4 0;
#X connect 2 0 27 0;
#X connect 4 0 10 0;
#X connect 5 0 8 0;
#X connect 5 0 21 0;
#X connect 6 0 9 0;
#X connect 7 0 6 0;
#X connect 8 0 15 0;
#X connect 9 0 7 0;
#X connect 9 0 32 0;
#X connect 10 0 5 0;
#X connect 12 0 10 0;
#X connect 13 0 16 0;
#X connect 15 0 3 0;
#X connect 16 0 6 0;
#X connect 17 0 18 0;
#X connect 18 0 20 0;
#X connect 19 0 1 0;
#X connect 20 0 19 0;
#X connect 21 0 23 0;
#X connect 22 0 20 1;
#X connect 23 0 22 0;
#X connect 23 1 22 1;
#X connect 24 0 23 1;
#X connect 25 0 24 0;
#X connect 27 0 29 0;
#X connect 27 1 28 0;
#X connect 28 0 26 0;
#X connect 30 0 18 0;
#X connect 32 0 17 0;
