#N canvas 459 285 519 275 12;
#X declare -path else;
#X obj 39 21 inlet;
#X obj 99 164 v A4_\$0;
#X obj 39 201 expr pow(2 \, ($f1 - 69)/12) * A4_\$0;
#X obj 112 75 args;
#X msg 166 130 440;
#X obj 112 52 lb;
#X obj 112 99 route float bang;
#X obj 99 21 inlet;
#X obj 180 65 declare -path else;
#X text 253 132 Part of ELSE \; https://github.com/porres/pd-else;
#X text 255 113 Alexandre Torres Porres (2020);
#X obj 39 233 outlet;
#X connect 0 0 2 0;
#X connect 2 0 11 0;
#X connect 3 0 6 0;
#X connect 4 0 1 0;
#X connect 5 0 3 0;
#X connect 6 0 1 0;
#X connect 6 1 4 0;
#X connect 7 0 1 0;
