#N canvas 203 86 662 571 12;
#X declare -path else;
#X obj 84 479 outlet;
#N canvas 625 55 647 246 check 0;
#N canvas 304 115 450 300 ctl 0;
#X msg 134 102 ctlin;
#X obj 134 67 ctlin, f 23;
#X obj 134 134 pack symbol float float;
#X obj 134 169 outlet;
#X connect 0 0 2 0;
#X connect 1 0 0 0;
#X connect 1 1 2 1;
#X connect 1 2 2 2;
#X connect 2 0 3 0;
#X restore 69 72 pd ctl;
#N canvas 850 185 450 300 notein 0;
#X obj 134 67 notein;
#X obj 163 205 pack s f;
#X msg 93 163 notein;
#X obj 163 270 outlet;
#X connect 0 0 2 0;
#X connect 0 2 1 1;
#X connect 1 0 3 0;
#X connect 2 0 1 0;
#X restore 130 72 pd notein;
#N canvas 850 185 450 300 bendin 0;
#X obj 163 205 pack s f;
#X obj 134 67 bendin;
#X msg 93 163 bendin;
#X obj 163 270 outlet;
#X connect 0 0 3 0;
#X connect 1 0 2 0;
#X connect 1 1 0 1;
#X connect 2 0 0 0;
#X restore 207 72 pd bendin;
#N canvas 850 185 443 325 touchin 0;
#X obj 163 205 pack s f;
#X obj 134 67 touchin;
#X msg 93 163 touchin;
#X obj 163 270 outlet;
#X connect 0 0 3 0;
#X connect 1 0 2 0;
#X connect 1 1 0 1;
#X connect 2 0 0 0;
#X restore 366 72 pd touchin;
#X f 11;
#X obj 302 178 outlet;
#N canvas 951 285 450 300 pgmin 0;
#X obj 134 67 pgmin;
#X msg 93 163 pgmin;
#X obj 163 270 outlet;
#X obj 163 205 pack s f f;
#X obj 131 126 t b f;
#X obj 172 160 - 1;
#X connect 0 0 4 0;
#X connect 0 1 3 2;
#X connect 1 0 3 0;
#X connect 3 0 2 0;
#X connect 4 0 1 0;
#X connect 4 1 5 0;
#X connect 5 0 3 1;
#X restore 286 72 pd pgmin;
#N canvas 850 185 443 325 polytouchin 0;
#X obj 163 205 pack s f;
#X obj 163 270 outlet;
#X obj 134 67 polytouchin;
#X msg 93 163 polytouchin;
#X connect 0 0 1 0;
#X connect 2 0 3 0;
#X connect 2 2 0 1;
#X connect 3 0 0 0;
#X restore 463 73 pd polytouchin;
#X text 381 26 not clever as pressing notes do trigger these, f 24;
#X connect 0 0 4 0;
#X connect 1 0 4 0;
#X connect 2 0 4 0;
#X connect 5 0 4 0;
#X restore 235 189 pd check;
#X obj 408 218 else/canvas.setname \$0-patch 1, f 31;
#X obj 85 25 inlet;
#N canvas 684 270 456 423 savestate 0;
#X obj 77 85 savestate;
#X obj 255 133 else/message;
#X obj 59 368 outlet;
#X obj 245 38 inlet;
#X obj 147 215 list trim;
#X obj 164 38 inlet;
#X obj 164 177 else/message;
#X obj 234 334 print [midi.learn];
#X obj 115 177 t a a;
#X obj 214 368 outlet;
#X obj 147 245 route bang;
#X msg 147 274 none;
#X obj 59 38 inlet;
#X connect 0 0 2 0;
#X connect 0 0 6 1;
#X connect 0 0 1 1;
#X connect 0 1 1 0;
#X connect 1 0 0 0;
#X connect 1 0 6 1;
#X connect 3 0 1 1;
#X connect 3 0 6 1;
#X connect 3 0 8 0;
#X connect 4 0 10 0;
#X connect 5 0 6 0;
#X connect 6 0 4 0;
#X connect 8 0 2 0;
#X connect 8 1 4 0;
#X connect 10 0 11 0;
#X connect 10 1 7 0;
#X connect 10 1 9 0;
#X connect 11 0 7 0;
#X connect 11 0 9 0;
#X connect 12 0 1 1;
#X connect 12 0 2 0;
#X restore 129 344 pd savestate;
#N canvas 289 115 901 631 route 0;
#X obj 333 39 inlet;
#X obj 333 79 list trim;
#X obj 131 155 midiin;
#X obj 333 142 t b l;
#X msg 333 176 0;
#X msg 392 176 1;
#X msg 451 176 2;
#X msg 510 176 3;
#X msg 569 176 4;
#X obj 240 324 else/note.in;
#X obj 131 322 else/ctl.in;
#X obj 350 324 else/bend.in;
#X obj 459 324 else/pgm.in;
#X obj 569 324 else/touch.in;
#X obj 244 554 outlet;
#X obj 392 142 t b f;
#X obj 451 142 t b f;
#X obj 569 142 t b f;
#X obj 243 385 pack;
#X obj 628 141 t b f;
#X obj 131 248 else/router 6 -1, f 63;
#X msg 628 175 5;
#X obj 684 313 else/touch.in -poly;
#X obj 685 352 pack;
#X obj 333 111 route ctlin notein bendin pgmin touchin polytouchin bang;
#X msg 708 161 -1;
#X obj 167 290 unpack;
#X obj 510 142 t b l;
#X obj 559 438 unpack;
#X obj 533 474 == -1;
#X obj 533 498 sel 1;
#X connect 0 0 1 0;
#X connect 1 0 24 0;
#X connect 2 0 20 0;
#X connect 3 0 4 0;
#X connect 3 1 26 0;
#X connect 4 0 20 1;
#X connect 5 0 20 1;
#X connect 6 0 20 1;
#X connect 7 0 20 1;
#X connect 8 0 20 1;
#X connect 9 0 18 0;
#X connect 9 1 18 1;
#X connect 10 0 14 0;
#X connect 11 0 14 0;
#X connect 12 0 29 0;
#X connect 13 0 14 0;
#X connect 15 0 5 0;
#X connect 15 1 9 1;
#X connect 16 0 6 0;
#X connect 16 1 11 1;
#X connect 17 0 8 0;
#X connect 17 1 13 1;
#X connect 18 0 14 0;
#X connect 19 0 21 0;
#X connect 19 1 22 1;
#X connect 20 0 10 0;
#X connect 20 1 9 0;
#X connect 20 2 11 0;
#X connect 20 3 12 0;
#X connect 20 4 13 0;
#X connect 20 5 22 0;
#X connect 21 0 20 1;
#X connect 22 0 23 0;
#X connect 22 1 23 1;
#X connect 23 0 14 0;
#X connect 24 0 3 0;
#X connect 24 1 15 0;
#X connect 24 2 16 0;
#X connect 24 3 27 0;
#X connect 24 4 17 0;
#X connect 24 5 19 0;
#X connect 24 6 25 0;
#X connect 25 0 20 1;
#X connect 26 0 10 1;
#X connect 26 1 10 2;
#X connect 27 0 7 0;
#X connect 27 1 28 0;
#X connect 28 0 29 1;
#X connect 28 1 12 1;
#X connect 29 0 30 0;
#X connect 30 0 14 0;
#X restore 84 387 pd route;
#X text 403 281 Part of ELSE \; https://github.com/porres/pd-else;
#X text 405 262 Alexandre Torres Porres (2021);
#X obj 210 469 outlet;
#X obj 242 279 else/message;
#X obj 309 144 else/click;
#X obj 84 418 t a a;
#X obj 116 442 s;
#X obj 134 416 r \$0-send;
#N canvas 625 66 477 358 set 0;
#X obj 238 235 s \$0-send;
#X obj 238 207 else/dollsym 1;
#X obj 238 147 else/args;
#X obj 238 121 loadbang;
#X obj 238 171 route symbol;
#X msg 139 192 symbol;
#X obj 139 167 sel empty;
#X obj 139 142 symbol;
#X obj 139 69 inlet;
#X connect 1 0 0 0;
#X connect 2 0 4 0;
#X connect 3 0 2 0;
#X connect 4 0 1 0;
#X connect 5 0 0 0;
#X connect 6 0 5 0;
#X connect 6 1 1 0;
#X connect 7 0 6 0;
#X connect 8 0 7 0;
#X restore 268 99 pd set;
#X obj 242 220 else/nmess;
#X msg 309 189 1;
#X obj 241 388 s \$0-patch;
#X msg 241 358 dirty 1;
#X obj 241 322 else/changed;
#X obj 175 226 t b b;
#X obj 470 156 declare -path else;
#X obj 85 69 route teach query forget bang set;
#X connect 1 0 15 0;
#X connect 3 0 22 0;
#X connect 4 0 5 0;
#X connect 4 0 19 1;
#X connect 4 1 8 0;
#X connect 4 1 19 1;
#X connect 5 0 11 0;
#X connect 9 0 4 2;
#X connect 9 0 19 0;
#X connect 10 0 16 0;
#X connect 11 0 0 0;
#X connect 11 1 12 0;
#X connect 13 0 12 1;
#X connect 15 0 9 0;
#X connect 16 0 15 1;
#X connect 18 0 17 0;
#X connect 19 0 18 0;
#X connect 20 0 9 0;
#X connect 20 1 9 1;
#X connect 22 0 4 0;
#X connect 22 1 4 1;
#X connect 22 2 20 0;
#X connect 22 3 16 0;
#X connect 22 4 14 0;
