#N canvas 504 130 792 233 12;
#X declare -path else;
#X obj 42 17 inlet;
#X obj 339 164 v A4_\$0;
#X obj 74 121 expr pow(2 \, ($f1 - 69)/12) * A4_\$0;
#X msg 406 130 440;
#X obj 352 99 route float bang;
#X obj 339 17 inlet;
#X text 518 109 Part of ELSE \; https://github.com/porres/pd-else;
#X text 520 90 Alexandre Torres Porres (2020);
#X obj 42 193 outlet;
#X obj 352 52 lb;
#X obj 352 75 args;
#X obj 74 87 iterate;
#X obj 42 55 t b l;
#X obj 42 154 group;
#X obj 555 57 declare -path else;
#X connect 0 0 12 0;
#X connect 2 0 13 0;
#X connect 3 0 1 0;
#X connect 4 0 1 0;
#X connect 4 1 3 0;
#X connect 5 0 1 0;
#X connect 9 0 10 0;
#X connect 10 0 4 0;
#X connect 11 0 2 0;
#X connect 12 0 13 0;
#X connect 12 1 11 0;
#X connect 13 0 8 0;
