#N canvas 618 185 670 351 10;
#X declare -path else;
#X obj 356 256 outlet~;
#N canvas 341 432 316 326 gain~ 0;
#N canvas 251 205 450 331 quartic 0;
#X obj 100 126 line~;
#X obj 100 158 *~;
#X obj 100 186 *~;
#X obj 100 92 inlet;
#X obj 100 252 outlet~;
#X obj 100 217 *~;
#X obj 221 54 r \$0-mode;
#X msg 250 104 0;
#X obj 269 157 switch~;
#X msg 221 104 1;
#X obj 197 179 line~;
#X msg 197 157 \$1 50;
#X obj 273 132 pipe 50;
#X obj 221 79 sel 0;
#X connect 0 0 1 0;
#X connect 0 0 1 1;
#X connect 1 0 2 0;
#X connect 1 0 2 1;
#X connect 2 0 5 0;
#X connect 3 0 0 0;
#X connect 5 0 4 0;
#X connect 6 0 13 0;
#X connect 7 0 11 0;
#X connect 7 0 12 0;
#X connect 9 0 8 0;
#X connect 9 0 11 0;
#X connect 10 0 5 1;
#X connect 11 0 10 0;
#X connect 12 0 8 0;
#X connect 13 0 9 0;
#X connect 13 1 7 0;
#X restore 52 156 pd quartic;
#X obj 37 276 outlet~;
#N canvas 743 262 450 300 dB 0;
#X obj 129 110 line~;
#X obj 129 76 inlet;
#X obj 159 235 outlet~;
#X obj 129 140 *~ 100;
#X obj 129 168 dbtorms~;
#X obj 221 54 r \$0-mode;
#X msg 250 104 0;
#X obj 269 157 switch~;
#X msg 221 104 1;
#X obj 221 79 sel 1;
#X obj 197 179 line~;
#X obj 159 203 *~;
#X msg 197 157 \$1 50;
#X obj 273 132 pipe 50;
#X connect 0 0 3 0;
#X connect 1 0 0 0;
#X connect 3 0 4 0;
#X connect 4 0 11 0;
#X connect 5 0 9 0;
#X connect 6 0 12 0;
#X connect 6 0 13 0;
#X connect 8 0 7 0;
#X connect 8 0 12 0;
#X connect 9 0 8 0;
#X connect 9 1 6 0;
#X connect 10 0 11 1;
#X connect 11 0 2 0;
#X connect 12 0 10 0;
#X connect 13 0 7 0;
#X restore 131 156 pd dB;
#N canvas 251 205 450 300 linear 0;
#X obj 136 65 line~;
#X obj 136 31 inlet;
#X obj 139 241 outlet~;
#X obj 260 54 r \$0-mode;
#X msg 289 104 0;
#X obj 308 157 switch~;
#X msg 260 104 1;
#X obj 236 179 line~;
#X msg 236 157 \$1 50;
#X obj 312 132 pipe 50;
#X obj 260 79 sel 2;
#X obj 131 187 *~;
#X connect 0 0 11 0;
#X connect 1 0 0 0;
#X connect 3 0 10 0;
#X connect 4 0 8 0;
#X connect 4 0 9 0;
#X connect 6 0 5 0;
#X connect 6 0 8 0;
#X connect 7 0 11 1;
#X connect 8 0 7 0;
#X connect 9 0 5 0;
#X connect 10 0 6 0;
#X connect 10 1 4 0;
#X connect 11 0 2 0;
#X restore 187 156 pd linear;
#X obj 200 107 r \$0-ramp;
#X obj 131 106 pack f 20;
#X obj 35 31 inlet~;
#X obj 37 232 *~;
#X obj 131 69 receive \$0-slider1;
#X connect 0 0 7 1;
#X connect 2 0 7 1;
#X connect 3 0 7 1;
#X connect 4 0 5 1;
#X connect 5 0 2 0;
#X connect 5 0 3 0;
#X connect 5 0 0 0;
#X connect 6 0 7 0;
#X connect 7 0 1 0;
#X connect 8 0 5 0;
#X restore 356 187 pd gain~;
#X obj 428 41 inlet~;
#X obj 428 256 outlet~;
#N canvas 341 432 316 326 gain~ 0;
#N canvas 251 205 450 331 quartic 0;
#X obj 100 126 line~;
#X obj 100 158 *~;
#X obj 100 186 *~;
#X obj 100 92 inlet;
#X obj 100 252 outlet~;
#X obj 100 217 *~;
#X obj 221 54 r \$0-mode;
#X msg 250 104 0;
#X obj 269 157 switch~;
#X msg 221 104 1;
#X obj 197 179 line~;
#X msg 197 157 \$1 50;
#X obj 273 132 pipe 50;
#X obj 221 79 sel 0;
#X connect 0 0 1 0;
#X connect 0 0 1 1;
#X connect 1 0 2 0;
#X connect 1 0 2 1;
#X connect 2 0 5 0;
#X connect 3 0 0 0;
#X connect 5 0 4 0;
#X connect 6 0 13 0;
#X connect 7 0 11 0;
#X connect 7 0 12 0;
#X connect 9 0 8 0;
#X connect 9 0 11 0;
#X connect 10 0 5 1;
#X connect 11 0 10 0;
#X connect 12 0 8 0;
#X connect 13 0 9 0;
#X connect 13 1 7 0;
#X restore 52 166 pd quartic;
#X obj 37 296 outlet~;
#N canvas 743 262 450 300 dB 0;
#X obj 129 110 line~;
#X obj 129 76 inlet;
#X obj 159 235 outlet~;
#X obj 129 140 *~ 100;
#X obj 129 168 dbtorms~;
#X obj 221 54 r \$0-mode;
#X msg 250 104 0;
#X obj 269 157 switch~;
#X msg 221 104 1;
#X obj 221 79 sel 1;
#X obj 197 179 line~;
#X obj 159 203 *~;
#X msg 197 157 \$1 50;
#X obj 273 132 pipe 50;
#X connect 0 0 3 0;
#X connect 1 0 0 0;
#X connect 3 0 4 0;
#X connect 4 0 11 0;
#X connect 5 0 9 0;
#X connect 6 0 12 0;
#X connect 6 0 13 0;
#X connect 8 0 7 0;
#X connect 8 0 12 0;
#X connect 9 0 8 0;
#X connect 9 1 6 0;
#X connect 10 0 11 1;
#X connect 11 0 2 0;
#X connect 12 0 10 0;
#X connect 13 0 7 0;
#X restore 131 166 pd dB;
#N canvas 251 205 450 300 linear 0;
#X obj 136 65 line~;
#X obj 136 31 inlet;
#X obj 139 241 outlet~;
#X obj 260 54 r \$0-mode;
#X msg 289 104 0;
#X obj 308 157 switch~;
#X msg 260 104 1;
#X obj 236 179 line~;
#X msg 236 157 \$1 50;
#X obj 312 132 pipe 50;
#X obj 260 79 sel 2;
#X obj 131 187 *~;
#X connect 0 0 11 0;
#X connect 1 0 0 0;
#X connect 3 0 10 0;
#X connect 4 0 8 0;
#X connect 4 0 9 0;
#X connect 6 0 5 0;
#X connect 6 0 8 0;
#X connect 7 0 11 1;
#X connect 8 0 7 0;
#X connect 9 0 5 0;
#X connect 10 0 6 0;
#X connect 10 1 4 0;
#X connect 11 0 2 0;
#X restore 187 166 pd linear;
#X obj 200 117 r \$0-ramp;
#X obj 131 116 pack f 20;
#X obj 35 21 inlet~;
#X obj 37 252 *~;
#X obj 131 78 receive \$0-slider2;
#X connect 0 0 7 1;
#X connect 2 0 7 1;
#X connect 3 0 7 1;
#X connect 4 0 5 1;
#X connect 5 0 2 0;
#X connect 5 0 3 0;
#X connect 5 0 0 0;
#X connect 6 0 7 0;
#X connect 7 0 1 0;
#X connect 8 0 5 0;
#X restore 428 187 pd gain~;
#X obj 154 103 hsl 82 8 0 127 0 0 \$0-djhd \$0-djhdahkadgkha empty
-2 -8 0 10 -228856 -228856 -228856 0 1;
#X obj 161 197 cnv 1 18 1 empty empty empty 20 12 0 14 -233017 -66577
0;
#X obj 151 107 vsl 43 150 0 1 0 0 \$0-slider1 \$0-set-slider1 empty
24 9 0 14 -228856 -1 -1 0 1;
#X obj 195 107 vsl 43 150 0 1 0 0 \$0-slider2 \$0-set-slider2 empty
24 9 0 14 -228856 -1 -1 0 1;
#X obj 152 104 cnv 1 85 1 empty empty empty 20 12 0 14 -233017 -66577
0;
#X obj 158 101 cnv 1 42 2 empty empty empty 20 12 0 14 -233017 -66577
0;
#N canvas 273 66 516 311 set_GUI 0;
#X obj 59 20 inlet;
#X obj 59 84 clip 0 1;
#X text 415 138 Load args;
#X obj 417 211 s \$0-mode;
#X obj 417 187 \$1;
#X obj 59 54 route gain1 gain2 pan1 pan2 mode, f 54;
#X obj 315 81 s \$0-mode;
#X obj 123 84 clip 0 1;
#X obj 239 142 clip -100 100;
#X obj 277 110 clip -100 100;
#X obj 239 196 s \$0-panL-set;
#X obj 278 171 s \$0-panR-set;
#X obj 59 164 s \$0-set-slider1;
#X obj 88 124 s \$0-set-slider2;
#X obj 416 161 lb -init;
#X connect 0 0 5 0;
#X connect 1 0 12 0;
#X connect 4 0 3 0;
#X connect 5 0 1 0;
#X connect 5 1 7 0;
#X connect 5 2 8 0;
#X connect 5 3 9 0;
#X connect 5 4 6 0;
#X connect 7 0 13 0;
#X connect 8 0 10 0;
#X connect 9 0 11 0;
#X connect 14 0 4 0;
#X restore 449 103 pd set_GUI;
#X obj 199 101 cnv 1 32 2 empty empty empty 20 12 0 14 -233017 -66577
0;
#N canvas 262 23 503 388 pan 0;
#X obj 215 99 r \$0-panL;
#X obj 215 160 /~ 100;
#X obj 334 168 /~ 100;
#X obj 339 90 r \$0-panR;
#X obj 82 48 inlet~;
#X obj 144 49 inlet~;
#X obj 81 276 outlet~;
#X obj 143 277 outlet~;
#X obj 341 124 float2sig~ 20;
#X obj 215 131 float2sig~ 20;
#X obj 80 218 pan2~;
#X obj 152 217 pan2~;
#X connect 0 0 9 0;
#X connect 1 0 10 1;
#X connect 2 0 11 1;
#X connect 3 0 8 0;
#X connect 4 0 10 0;
#X connect 5 0 11 0;
#X connect 8 0 2 0;
#X connect 9 0 1 0;
#X connect 10 0 6 0;
#X connect 10 1 7 0;
#X connect 11 0 6 0;
#X connect 11 1 7 0;
#X restore 395 217 pd pan;
#X obj 151 260 nbx 4 14 -100 100 0 0 \$0-panL \$0-panL-set empty 0
-8 2 12 -228856 -1 -1 0 256;
#X obj 195 260 nbx 4 14 -100 100 0 0 \$0-panR \$0-panR-set empty 0
-8 2 12 -228856 -1 -1 0 256;
#X obj 190 261 cnv 1 1 1 empty empty empty 20 12 0 14 -233017 -66577
0;
#X obj 192 261 cnv 1 1 1 empty empty empty 20 12 0 14 -233017 -66577
0;
#X obj 192 262 cnv 1 1 1 empty empty empty 20 12 0 14 -233017 -66577
0;
#X obj 235 261 cnv 1 1 1 empty empty empty 20 12 0 14 -233017 -66577
0;
#X obj 237 261 cnv 1 1 1 empty empty empty 20 12 0 14 -233017 -66577
0;
#X obj 237 262 cnv 1 1 1 empty empty empty 20 12 0 14 -233017 -66577
0;
#X obj 158 274 cnv 1 73 2 empty empty empty 20 12 0 14 -233017 -66577
0;
#X obj 194 101 cnv 1 1 175 empty empty empty 20 12 0 14 -1 -66577 0
;
#X obj 356 41 inlet~ fwd, f 6;
#X obj 519 146 declare -path else;
#X connect 1 0 13 0;
#X connect 2 0 4 0;
#X connect 4 0 13 1;
#X connect 13 0 0 0;
#X connect 13 1 3 0;
#X connect 24 0 1 0;
#X connect 24 1 11 0;
#X coords 0 0 1 1 89 177 2 150 100;
