#N canvas 657 251 558 229 10;
#X declare -path else;
#X obj 112 163 outlet;
#X obj 112 33 inlet;
#X obj 187 33 inlet;
#X obj 187 163 outlet;
#X text 288 114 Part of ELSE \; https://github.com/porres/pd-else;
#X text 290 95 Alexandre Torres Porres (2018);
#N canvas 345 27 585 688 monophonic 0;
#X obj 215 634 outlet;
#X obj 272 634 outlet;
#X obj 107 20 inlet;
#X obj 185 20 inlet;
#X obj 71 505 pack f 0;
#X msg 150 427 0;
#X obj 150 450 v i_\$0;
#X obj 144 246 symbol notes_\$0;
#X obj 107 227 symbol order_\$0;
#X obj 71 460 v last_\$0;
#X obj 107 163 select 0 1 2, f 19;
#X obj 144 296 array max;
#X obj 215 577 pack float float;
#X obj 212 296 v idx_\$0;
#X obj 348 290 sel 1;
#X obj 365 210 v low_\$0;
#X obj 245 213 loop 10;
#X msg 331 217 0;
#X obj 144 321 > 0;
#X obj 144 350 sel 0 1;
#X obj 144 271 t b s;
#X obj 348 312 expr 1 \; low_\$0 = $f2 \; idx_\$0 = $f3;
#X obj 445 324 v note_\$0;
#X obj 316 287 f;
#X obj 215 609 unpack f f;
#X obj 80 433 r \$0-flush;
#X obj 71 405 trigger b b;
#X obj 107 44 voices 10 1 -list -retrig 1;
#X obj 215 520 expr last_\$0 = notes_\$0[idx_\$0] \; velocities_\$0[idx_\$0]
;
#X obj 215 491 sel 1;
#X obj 215 381 v on_\$0;
#X text 416 464 note off & new result;
#X obj 215 464 expr notes_\$0[idx_\$0] != last_\$0;
#X obj 215 406 sel 0 1;
#X text 387 433 note on == result;
#X obj 396 93 v voice_\$0;
#X obj 234 433 expr idx_\$0 == voice_\$0;
#X obj 348 247 expr note_\$0>0 && note_\$0<low_\$0 \; notes_\$0[$f1]
\; $f1;
#X msg 365 189 128;
#X obj 181 188 trigger bang bang bang;
#X obj 215 553 - 1;
#X obj 107 75 expr mode_\$0 \; order_\$0[voice_\$0] = (i_\$0 = i_\$0+1)
* on_\$0 \; notes_\$0[voice_\$0] = ($f2 + 1) * on_\$0 \; velocities_\$0[voice_\$0]
= $f3 \; voice_\$0 = $f1 \; on_\$0 = $f3 > 0;
#X obj 71 484 - 1;
#X connect 2 0 27 0;
#X connect 3 0 27 1;
#X connect 4 0 24 0;
#X connect 5 0 6 0;
#X connect 7 0 20 0;
#X connect 8 0 20 0;
#X connect 9 0 42 0;
#X connect 10 0 8 0;
#X connect 10 1 7 0;
#X connect 10 2 39 0;
#X connect 11 0 18 0;
#X connect 11 1 13 0;
#X connect 12 0 24 0;
#X connect 14 0 21 0;
#X connect 16 0 37 0;
#X connect 17 0 23 1;
#X connect 18 0 19 0;
#X connect 19 0 26 0;
#X connect 19 1 30 0;
#X connect 20 0 11 0;
#X connect 20 1 11 2;
#X connect 21 0 23 1;
#X connect 23 0 19 0;
#X connect 24 0 0 0;
#X connect 24 1 1 0;
#X connect 25 0 9 0;
#X connect 26 0 9 0;
#X connect 26 1 5 0;
#X connect 27 0 41 0;
#X connect 28 0 40 0;
#X connect 28 1 12 1;
#X connect 29 0 28 0;
#X connect 30 0 33 0;
#X connect 32 0 29 0;
#X connect 33 0 32 0;
#X connect 33 1 36 0;
#X connect 36 0 29 0;
#X connect 37 0 14 0;
#X connect 37 1 21 1;
#X connect 37 1 22 0;
#X connect 37 2 21 2;
#X connect 38 0 15 0;
#X connect 39 0 23 0;
#X connect 39 1 16 0;
#X connect 39 2 17 0;
#X connect 39 2 38 0;
#X connect 40 0 12 0;
#X connect 41 0 10 0;
#X connect 42 0 4 0;
#X restore 112 107 pd monophonic;
#N canvas 642 267 499 338 route 0;
#X obj 50 35 inlet;
#X obj 307 148 f \$0;
#X obj 112 281 outlet;
#X obj 192 107 clip 0 2;
#X obj 192 129 v mode_\$0;
#X obj 145 129 != 0;
#X obj 145 151 v legato_\$0;
#X obj 50 78 route float list legato mode flush clear, f 48;
#X obj 260 121 t b b;
#X msg 307 173 clear \; notes_\$1 const 0 \; velocities_\$1 const 0
\; order_\$1 const 0;
#X obj 260 256 s \$0-last;
#X obj 53 215 moses 0;
#X obj 97 122 unpack;
#X obj 83 148 moses;
#X obj 110 172 pack;
#X connect 0 0 7 0;
#X connect 1 0 9 0;
#X connect 3 0 4 0;
#X connect 5 0 6 0;
#X connect 7 0 11 0;
#X connect 7 1 12 0;
#X connect 7 2 5 0;
#X connect 7 3 3 0;
#X connect 7 4 8 0;
#X connect 7 5 1 0;
#X connect 8 0 10 0;
#X connect 8 1 1 0;
#X connect 9 0 2 0;
#X connect 11 1 2 0;
#X connect 12 0 13 0;
#X connect 12 1 14 1;
#X connect 13 1 14 0;
#X connect 14 0 2 0;
#X restore 112 75 pd route;
#N canvas 392 395 726 211 init 0;
#X obj 15 60 args;
#X msg 15 132 0;
#X msg 56 132 1;
#X msg 97 132 2;
#X obj 15 165 v mode_\$0;
#N canvas 0 22 450 278 (subpatch) 0;
#X array notes_\$0 10 float 2;
#X coords 0 127 10 0 150 100 1 0 0;
#X restore 224 48 graph;
#N canvas 0 22 450 278 (subpatch) 0;
#X array velocities_\$0 10 float 2;
#X coords 0 127 10 0 150 100 1 0 0;
#X restore 379 48 graph;
#N canvas 0 22 450 278 (subpatch) 0;
#X array order_\$0 10 float 2;
#X coords 0 127 10 0 150 100 1 0 0;
#X restore 533 48 graph;
#X obj 15 83 break -;
#X obj 15 106 route -last -high -low float;
#X obj 138 133 != 0;
#X obj 138 165 v legato_\$0;
#X obj 15 36 lb -init;
#X connect 0 0 8 0;
#X connect 1 0 4 0;
#X connect 2 0 4 0;
#X connect 3 0 4 0;
#X connect 8 0 9 0;
#X connect 9 0 1 0;
#X connect 9 1 2 0;
#X connect 9 2 3 0;
#X connect 9 3 10 0;
#X connect 10 0 11 0;
#X connect 12 0 0 0;
#X restore 31 85 pd init \; tables;
#N canvas 142 160 263 389 legato 0;
#X obj 61 33 inlet;
#X obj 152 322 outlet;
#X obj 61 220 f;
#X obj 152 277 f;
#X obj 61 94 trigger bang float;
#X obj 117 203 v i_\$0;
#X obj 117 249 sel 1;
#X obj 61 148 sel 0 1;
#X obj 117 226 < 2;
#X obj 61 124 v legato_\$0;
#X obj 80 63 r \$0-velocity;
#X floatatom 65 290 5 0 0 0 - - -;
#X floatatom 191 149 5 0 0 0 - - -;
#X obj 209 210 bng 15 250 50 0 empty empty empty 17 7 0 10 -262144
-1 -1;
#X connect 0 0 4 0;
#X connect 2 0 1 0;
#X connect 2 0 11 0;
#X connect 3 0 1 0;
#X connect 4 0 9 0;
#X connect 4 1 2 1;
#X connect 4 1 3 1;
#X connect 4 1 12 0;
#X connect 5 0 8 0;
#X connect 6 0 3 0;
#X connect 7 0 2 0;
#X connect 7 1 5 0;
#X connect 7 1 13 0;
#X connect 8 0 6 0;
#X connect 9 0 7 0;
#X connect 10 0 4 0;
#X restore 187 134 pd legato;
#X obj 318 64 declare -path else;
#X connect 1 0 7 0;
#X connect 2 0 6 1;
#X connect 6 0 0 0;
#X connect 6 1 9 0;
#X connect 7 0 6 0;
#X connect 9 0 3 0;
