#N canvas 379 48 761 568 12;
#X declare -path else;
#X obj 92 42 inlet~;
#X obj 211 41 inlet~;
#X obj 100 471 outlet~;
#X obj 100 351 rifft~;
#X obj 211 174 rfft~;
#X obj 92 174 rfft~;
#X obj 248 453 block~;
#X msg 248 420 set \$1 4;
#X obj 235 382 r \$0-size;
#X obj 100 426 *~;
#X obj 442 41 inlet;
#X obj 464 135 route bang;
#X obj 531 193 unpack;
#X obj 235 491 expr 1 / ($f1 * 1.5);
#X msg 464 166 1 -1;
#X msg 384 370 2048;
#X obj 384 403 s \$0-size;
#X obj 332 41 inlet;
#X obj 464 108 args;
#X obj 442 231 f2s~ 10;
#X obj 332 232 f2s~ 10;
#X obj 211 230 car2pol~;
#X obj 92 230 car2pol~;
#X obj 211 127 hann~;
#X obj 92 126 hann~;
#X obj 92 286 xfade~;
#X obj 203 310 xfade~;
#X obj 92 312 pol2car~;
#X obj 100 385 hann~;
#X obj 464 80 lb;
#X obj 383 342 lb;
#X text 493 388 Part of ELSE \; https://github.com/porres/pd-else;
#X text 495 369 Alexandre Torres Porres (2021);
#X obj 581 110 declare -path else;
#X connect 0 0 24 0;
#X connect 1 0 23 0;
#X connect 3 0 28 0;
#X connect 4 0 21 0;
#X connect 4 1 21 1;
#X connect 5 0 22 0;
#X connect 5 1 22 1;
#X connect 7 0 6 0;
#X connect 8 0 7 0;
#X connect 8 0 13 0;
#X connect 9 0 2 0;
#X connect 10 0 19 0;
#X connect 11 0 14 0;
#X connect 11 1 12 0;
#X connect 12 0 20 0;
#X connect 12 1 19 0;
#X connect 13 0 9 1;
#X connect 14 0 12 0;
#X connect 15 0 16 0;
#X connect 17 0 20 0;
#X connect 18 0 11 0;
#X connect 19 0 26 2;
#X connect 20 0 25 2;
#X connect 21 0 25 1;
#X connect 21 1 26 1;
#X connect 22 0 25 0;
#X connect 22 1 26 0;
#X connect 23 0 4 0;
#X connect 24 0 5 0;
#X connect 25 0 27 0;
#X connect 26 0 27 1;
#X connect 27 0 3 0;
#X connect 27 1 3 1;
#X connect 28 0 9 0;
#X connect 29 0 18 0;
#X connect 30 0 15 0;
