#N canvas 395 23 739 711 12;
#X declare -path else;
#X obj 282 304 array set s_\$0;
#X obj 206 335 array set t_\$0;
#X obj 131 401 line;
#X obj 131 469 t b b f;
#X obj 154 536 expr s_\$0[$f1] + (t_\$0[$f1]-s_\$0[$f1]) * $f2, f
27;
#X obj 282 277 list;
#X obj 395 356 array define s_\$0;
#X obj 395 386 array define t_\$0;
#X obj 154 504 loop;
#X obj 131 584 group;
#X obj 131 678 outlet;
#X obj 417 34 inlet;
#X msg 131 313 0 \, 1 \$1;
#X obj 131 218 trigger bang list bang;
#X obj 220 34 inlet;
#X obj 417 64 s \$0-time;
#X obj 54 218 r \$0-time;
#X obj 324 218 trigger bang list bang;
#X obj 131 616 t l l;
#X obj 163 646 s \$0-state;
#X obj 500 217 r \$0-state;
#X obj 475 244 list;
#X obj 214 469 r \$0-size;
#X obj 475 272 array set s_\$0;
#X obj 399 304 array set t_\$0;
#N canvas 495 23 299 339 size 0;
#X obj 150 190 array size t_\$0;
#X obj 141 216 array size s_\$0;
#X obj 160 166 s \$0-size;
#X obj 90 102 t l l;
#X obj 90 57 inlet;
#X obj 90 258 outlet;
#X obj 141 100 list length;
#X obj 141 129 change;
#X connect 3 0 5 0;
#X connect 3 1 6 0;
#X connect 4 0 3 0;
#X connect 6 0 7 0;
#X connect 7 0 0 0;
#X connect 7 0 1 0;
#X connect 7 0 2 0;
#X restore 131 118 pd size;
#X text 415 472 Part of ELSE \; https://github.com/porres/pd-else;
#X text 417 453 Alexandre Torres Porres (2021);
#N canvas 677 221 563 415 args 0;
#X obj 223 264 unmerge 2 1;
#X obj 355 307 buffer s_\$0;
#X obj 277 332 s \$0-grain;
#X obj 223 360 s \$0-time;
#X obj 121 99 loadbanger 2;
#X msg 355 254 0;
#X obj 124 220 list split 1;
#X obj 124 295 s \$0-exp-arg;
#X obj 121 171 route bang -exp;
#X obj 121 142 args -;
#X connect 0 0 3 0;
#X connect 0 1 2 0;
#X connect 0 2 1 0;
#X connect 4 0 9 0;
#X connect 4 1 5 0;
#X connect 5 0 1 0;
#X connect 6 0 7 0;
#X connect 6 1 0 0;
#X connect 8 1 6 0;
#X connect 8 2 0 0;
#X connect 9 0 8 0;
#X restore 415 124 pd args;
#X obj 131 284 f;
#X obj 226 122 r \$0-time;
#X obj 131 153 limit 0 1;
#X obj 507 34 inlet;
#X obj 507 64 s \$0-grain;
#X obj 156 372 r \$0-grain;
#X obj 175 408 r \$0-exp;
#X obj 131 437 pow 1;
#N canvas 743 412 249 249 exp 0;
#X obj 87 58 inlet;
#X obj 87 130 clip 0.1 10;
#X obj 111 96 r \$0-exp-arg;
#X obj 87 164 s \$0-exp;
#X connect 0 0 1 0;
#X connect 1 0 3 0;
#X connect 2 0 1 0;
#X restore 343 101 pd exp;
#X obj 220 64 route float list set exp;
#X obj 516 134 declare -path else;
#X connect 2 0 36 0;
#X connect 3 0 9 0;
#X connect 3 1 8 0;
#X connect 3 2 4 1;
#X connect 4 0 9 0;
#X connect 5 0 0 0;
#X connect 8 0 4 0;
#X connect 9 0 18 0;
#X connect 11 0 15 0;
#X connect 12 0 2 0;
#X connect 13 0 29 0;
#X connect 13 1 5 1;
#X connect 13 1 1 0;
#X connect 13 2 5 0;
#X connect 14 0 38 0;
#X connect 16 0 29 1;
#X connect 17 0 29 0;
#X connect 17 1 24 0;
#X connect 17 1 5 1;
#X connect 17 2 21 0;
#X connect 18 0 10 0;
#X connect 18 1 19 0;
#X connect 20 0 21 1;
#X connect 21 0 23 0;
#X connect 22 0 8 1;
#X connect 25 0 31 0;
#X connect 29 0 12 0;
#X connect 30 0 31 1;
#X connect 31 0 13 0;
#X connect 31 1 17 0;
#X connect 32 0 33 0;
#X connect 34 0 2 2;
#X connect 35 0 36 1;
#X connect 36 0 3 0;
#X connect 38 0 25 0;
#X connect 38 1 25 0;
#X connect 38 2 5 1;
#X connect 38 3 37 0;
