#N canvas 645 181 524 513 12;
#X declare -path else;
#X obj 250 395 table tab_\$0 \$1;
#X obj 111 334 s tab_\$0;
#X msg 111 309 const 0;
#X obj 53 239 route float clear;
#X obj 53 455 outlet;
#X obj 53 32 inlet;
#X obj 250 366 v i_\$0;
#X obj 192 32 inlet;
#X obj 192 155 max 1;
#X obj 192 219 v s_\$0;
#X obj 53 365 expr avg("tab_\$0") \; i_\$0 = (i_\$0 + 1) % s_\$0 \;
tab_\$0[i_\$0] = $f1;
#X obj 192 81 route float;
#X obj 192 187 t b f;
#X obj 192 251 change;
#X obj 224 306 array size tab_\$0;
#X obj 192 118 int \$1;
#X obj 192 278 t b f;
#X text 269 173 Part of ELSE \; https://github.com/porres/pd-else;
#X text 271 154 Alexandre Torres Porres (2019);
#X obj 90 82 lb -init;
#X obj 342 94 declare -path else;
#X connect 2 0 1 0;
#X connect 3 0 10 0;
#X connect 3 1 2 0;
#X connect 5 0 3 0;
#X connect 7 0 11 0;
#X connect 8 0 12 0;
#X connect 9 0 13 0;
#X connect 10 0 4 0;
#X connect 11 0 15 0;
#X connect 12 0 9 0;
#X connect 12 1 9 0;
#X connect 13 0 16 0;
#X connect 15 0 8 0;
#X connect 16 0 2 0;
#X connect 16 1 14 0;
#X connect 19 0 15 0;
