#N canvas 307 23 654 714 10;
#X declare -path else;
#X obj 246 197 list fromsymbol;
#X obj 274 423 list tosymbol;
#X obj 274 448 f;
#X obj 178 448 list tosymbol;
#X obj 413 482 text define -k \$0-notes;
#A set Cb -1 \; C♭ -1 \; C 0 \; Dbb 0 \; C# 1 \; C♯ 1 \; Db 1 \; D♭ 1 \; Cx 2 \; D 2 \; Ebb 2 \; D# 3 \; D♯ 3 \; Eb 3 \; E♭ 3 \; Dx 4 \; E 4 \; Fb 4 \; F♭ 4 \; E# 5 \; E♯ 5 \; F 5 \; Gbb 5 \; F# 6 \; F♯ 6 \; Gb 6 \; G♭ 6 \; Fx 5 \; G 7 \; G# 8 \; G♯ 8 \; Ab 8 \; A♭ 8 \; Gx 9 \; A 9 \; Bbb 9 \; A# 10 \; A♯ 10 \; Bb 10 \; B♭ 10 \; Ax 11 \; B 11 \; B# 12 \; B♯ 12 \;;
#X obj 178 483 text search \$0-notes, f 11;
#X obj 178 517 text get \$0-notes 1, f 10;
#X obj 274 482 + 1;
#X obj 274 506 * 12;
#X obj 218 579 +;
#X obj 81 670 outlet;
#X obj 81 23 inlet;
#X text 385 548 Part of ELSE \; https://github.com/porres/pd-else;
#X obj 81 98 route float;
#X obj 246 88 list;
#X obj 307 355 expr $f1 >= 48 && $f1 <= 56;
#X obj 274 391 spigot;
#X obj 274 331 t f f;
#X obj 178 421 spigot;
#X text 387 529 Alexandre Torres Porres (2021);
#X obj 246 115 else/router;
#X obj 397 217 list split 2, f 21;
#X obj 437 240 list;
#X obj 397 261 t b l;
#X obj 309 87 r \$0-mode;
#X obj 370 176 t b l;
#X obj 219 139 t b l;
#X obj 246 170 else/iterate;
#N canvas 390 38 403 313 init 0;
#X obj 102 89 else/args;
#X obj 159 150 sel -list;
#X msg 159 181 1;
#X msg 231 150 0;
#X obj 231 229 s \$0-mode;
#X obj 102 58 else/loadbanger 2, f 22;
#X obj 102 120 route bang;
#X connect 0 0 6 0;
#X connect 1 0 2 0;
#X connect 2 0 4 0;
#X connect 3 0 4 0;
#X connect 5 0 0 0;
#X connect 5 1 3 0;
#X connect 6 1 1 0;
#X restore 436 131 pd init;
#X obj 281 618 else/group;
#X obj 132 339 unpack s f, f 17;
#X obj 416 75 declare -path else;
#X obj 371 303 else/slice -1;
#X obj 246 228 else/slice -1;
#X obj 246 261 else/slice -1;
#X obj 330 446 == 45;
#X obj 330 489 f;
#X obj 330 467 sel 1;
#X obj 330 510 * -1;
#X connect 0 0 33 0;
#X connect 1 0 2 0;
#X connect 2 0 7 0;
#X connect 2 0 36 1;
#X connect 3 0 5 0;
#X connect 5 0 6 0;
#X connect 6 0 9 0;
#X connect 7 0 8 0;
#X connect 8 0 9 1;
#X connect 9 0 29 0;
#X connect 11 0 13 0;
#X connect 13 0 10 0;
#X connect 13 1 14 0;
#X connect 14 0 20 0;
#X connect 15 0 16 1;
#X connect 15 0 18 1;
#X connect 16 0 1 0;
#X connect 17 0 16 0;
#X connect 17 1 15 0;
#X connect 18 0 3 0;
#X connect 20 0 26 0;
#X connect 20 1 25 0;
#X connect 21 0 23 0;
#X connect 21 1 22 1;
#X connect 22 0 21 0;
#X connect 23 0 22 0;
#X connect 23 1 30 0;
#X connect 24 0 20 1;
#X connect 25 0 29 0;
#X connect 25 1 21 0;
#X connect 26 0 29 0;
#X connect 26 1 27 0;
#X connect 27 0 0 0;
#X connect 29 0 10 0;
#X connect 30 0 5 0;
#X connect 30 1 7 0;
#X connect 33 0 34 0;
#X connect 33 1 17 0;
#X connect 34 0 18 0;
#X connect 34 1 35 0;
#X connect 35 0 37 0;
#X connect 36 0 38 0;
#X connect 37 0 36 0;
#X connect 38 0 7 0;
