#N canvas 450 48 661 723 10;
#X declare -path else;
#X obj 246 230 list fromsymbol;
#X obj 274 456 list tosymbol;
#X obj 274 481 f;
#X obj 178 481 list tosymbol;
#X obj 303 258 list length;
#X obj 246 273 t l l;
#X obj 246 307 list split;
#X obj 303 283 - 1;
#X obj 437 513 text define -k \$0-notes;
#A set Cb -1 \; C♭ -1 \; C 0 \; Dbb 0 \; C# 1 \; C♯ 1 \; Db 1 \;
D♭ 1 \; Cx 2 \; D 2 \; Ebb 2 \; D# 3 \; D♯ 3 \; Eb 3 \; E♭ 3
\; Dx 4 \; E 4 \; Fb 4 \; F♭ 4 \; E# 5 \; E♯ 5 \; F 5 \; Gbb 5
\; F# 6 \; F♯ 6 \; Gb 6 \; G♭ 6 \; Fx 5 \; G 7 \; G# 8 \; G♯
8 \; Ab 8 \; A♭ 8 \; Gx 9 \; A 9 \; Bbb 9 \; A# 10 \; A♯ 10 \;
Bb 10 \; B♭ 10 \; Ax 11 \; B 11 \; B# 12 \; B♯ 12 \;;
#X obj 178 516 text search \$0-notes, f 11;
#X obj 178 550 text get \$0-notes 1, f 10;
#X obj 274 515 + 1;
#X obj 274 539 * 12;
#X obj 259 614 +;
#X obj 81 703 outlet;
#X obj 81 56 inlet;
#X text 407 452 Part of ELSE \; https://github.com/porres/pd-else;
#X obj 81 131 route float;
#X obj 246 121 list;
#X obj 307 388 expr $f1 >= 48 && $f1 <= 56;
#X obj 274 424 spigot;
#X obj 274 364 t f f;
#X obj 178 454 spigot;
#X text 409 433 Alexandre Torres Porres (2021);
#X obj 246 148 router;
#X obj 397 250 list split 2, f 21;
#X obj 437 273 list;
#X obj 397 294 t b l;
#X obj 309 120 r \$0-mode;
#X obj 370 209 t b l;
#X obj 219 172 t b l;
#X obj 246 203 iterate;
#N canvas 390 38 403 313 init 0;
#X obj 102 89 args;
#X obj 159 150 sel -list;
#X msg 159 181 1;
#X msg 231 150 0;
#X obj 231 229 s \$0-mode;
#X obj 102 58 loadbanger 2, f 22;
#X obj 102 120 route bang;
#X connect 0 0 6 0;
#X connect 1 0 2 0;
#X connect 2 0 4 0;
#X connect 3 0 4 0;
#X connect 5 0 0 0;
#X connect 5 1 3 0;
#X connect 6 1 1 0;
#X restore 436 164 pd init;
#X obj 259 647 group;
#X obj 132 372 unpack s f, f 17;
#X obj 416 108 declare -path else;
#X connect 0 0 5 0;
#X connect 1 0 2 0;
#X connect 2 0 11 0;
#X connect 3 0 9 0;
#X connect 4 0 7 0;
#X connect 5 0 6 0;
#X connect 5 1 4 0;
#X connect 6 0 22 0;
#X connect 6 1 21 0;
#X connect 7 0 6 1;
#X connect 9 0 10 0;
#X connect 10 0 13 0;
#X connect 11 0 12 0;
#X connect 12 0 13 1;
#X connect 13 0 33 0;
#X connect 15 0 17 0;
#X connect 17 0 14 0;
#X connect 17 1 18 0;
#X connect 18 0 24 0;
#X connect 19 0 20 1;
#X connect 19 0 22 1;
#X connect 20 0 1 0;
#X connect 21 0 20 0;
#X connect 21 1 19 0;
#X connect 22 0 3 0;
#X connect 24 0 30 0;
#X connect 24 1 29 0;
#X connect 25 0 27 0;
#X connect 25 1 26 1;
#X connect 26 0 25 0;
#X connect 27 0 26 0;
#X connect 27 1 34 0;
#X connect 28 0 24 1;
#X connect 29 0 33 0;
#X connect 29 1 25 0;
#X connect 30 0 33 0;
#X connect 30 1 31 0;
#X connect 31 0 0 0;
#X connect 33 0 14 0;
#X connect 34 0 9 0;
#X connect 34 1 11 0;
