#N canvas 351 74 556 468 12;
#X declare -path else;
#N canvas 644 59 488 483 check 0;
#X obj 191 95 list fromsymbol;
#X obj 191 124 else/slice -2;
#X obj 279 153 expr $f1 == 110 && $f2 == 110, f 15;
#X obj 261 197 f;
#X obj 191 153 t b l;
#X obj 198 296 list;
#X obj 261 226 sel 1;
#X obj 261 255 t b b;
#X obj 198 327 list tosymbol;
#X obj 110 224 spigot;
#X msg 149 190 1;
#X obj 103 128 t s s b;
#X msg 182 191 0;
#X obj 110 254 else/separate n;
#X obj 103 44 inlet;
#X obj 198 422 outlet;
#X msg 314 327 symbol n;
#X obj 198 355 f;
#X obj 198 382 pack float symbol;
#X connect 0 0 1 0;
#X connect 1 0 4 0;
#X connect 1 1 2 0;
#X connect 2 0 3 1;
#X connect 3 0 6 0;
#X connect 4 0 3 0;
#X connect 4 1 5 1;
#X connect 5 0 8 0;
#X connect 6 0 7 0;
#X connect 7 0 5 0;
#X connect 7 0 12 0;
#X connect 7 1 16 0;
#X connect 8 0 17 0;
#X connect 9 0 13 0;
#X connect 10 0 9 1;
#X connect 11 0 9 0;
#X connect 11 1 0 0;
#X connect 11 2 10 0;
#X connect 12 0 9 1;
#X connect 13 0 15 0;
#X connect 14 0 11 0;
#X connect 16 0 18 1;
#X connect 17 0 18 0;
#X connect 18 0 15 0;
#X restore 173 286 pd check;
#X obj 78 55 inlet;
#X obj 78 103 symbol;
#N canvas 836 159 254 262 init 0;
#X obj 78 70 else/args;
#X msg 78 160 0;
#X obj 78 184 s \$0-mode;
#X obj 78 43 loadbang;
#X obj 78 125 sel -f;
#X obj 77 96 route symbol;
#X connect 0 0 5 0;
#X connect 1 0 2 0;
#X connect 3 0 0 0;
#X connect 4 0 1 0;
#X connect 5 0 4 0;
#X restore 169 95 pd init;
#X text 275 153 Part of ELSE \; https://github.com/porres/pd-else;
#X text 275 134 Alexandre Torres Porres (2022);
#X obj 78 397 outlet;
#X obj 101 172 else/separate _;
#X obj 101 205 routetype symbol list;
#X obj 173 247 else/iterate;
#N canvas 556 125 388 434 convert 0;
#X obj 162 368 outlet;
#X obj 60 285 else/router 2 1;
#X obj 162 254 r \$0-mode;
#X obj 60 36 inlet;
#N canvas 500 113 544 272 tuplet 0;
#X obj 50 18 inlet;
#X obj 224 214 outlet;
#X obj 50 56 else/unmerge, f 19;
#X obj 192 85 select d . dd .. t q s n, f 25;
#N canvas 430 105 494 476 [x:y] 0;
#X obj 304 217 else/separate :;
#X obj 65 24 inlet;
#X obj 319 348 pack;
#X obj 319 416 outlet;
#X obj 65 63 else/separate [;
#X obj 344 281 else/separate ];
#X obj 65 95 else/routetype list symbol;
#X obj 61 166 else/unmerge;
#X obj 304 249 else/unmerge;
#X obj 139 201 else/separate :;
#X obj 154 292 pack;
#X obj 179 265 else/separate ];
#X obj 139 233 else/unmerge;
#X obj 30 217 sel . d dd ..;
#X msg 319 381 symbol \$2/\$1;
#X msg 52 253 3/2;
#X msg 96 253 7/4;
#X msg 154 320 \$2/\$1;
#X obj 52 302 else/frac.mul;
#X connect 0 0 8 0;
#X connect 1 0 4 0;
#X connect 2 0 14 0;
#X connect 4 0 6 0;
#X connect 5 0 2 1;
#X connect 6 0 7 0;
#X connect 6 1 0 0;
#X connect 7 0 13 0;
#X connect 7 1 9 0;
#X connect 8 0 2 0;
#X connect 8 1 5 0;
#X connect 9 0 12 0;
#X connect 10 0 17 0;
#X connect 11 0 10 1;
#X connect 12 0 10 0;
#X connect 12 1 11 0;
#X connect 13 0 15 0;
#X connect 13 1 15 0;
#X connect 13 2 16 0;
#X connect 13 3 16 0;
#X connect 14 0 3 0;
#X connect 15 0 18 0;
#X connect 16 0 18 0;
#X connect 17 0 18 1;
#X connect 18 0 3 0;
#X restore 419 117 pd [x:y];
#X obj 50 106 makefilename 1/%d;
#X msg 192 117 3/2;
#X msg 235 117 7/4;
#X msg 278 117 2/3;
#X msg 312 117 4/5;
#X msg 347 117 4/7;
#X msg 381 117 8/9;
#X obj 224 172 else/frac.mul;
#X connect 0 0 2 0;
#X connect 2 0 5 0;
#X connect 2 1 3 0;
#X connect 3 0 6 0;
#X connect 3 1 6 0;
#X connect 3 2 7 0;
#X connect 3 3 7 0;
#X connect 3 4 8 0;
#X connect 3 5 9 0;
#X connect 3 6 10 0;
#X connect 3 7 11 0;
#X connect 3 8 4 0;
#X connect 4 0 12 1;
#X connect 5 0 12 0;
#X connect 6 0 12 1;
#X connect 7 0 12 1;
#X connect 8 0 12 1;
#X connect 9 0 12 1;
#X connect 10 0 12 1;
#X connect 11 0 12 1;
#X connect 12 0 1 0;
#X restore 252 129 pd tuplet;
#X obj 60 79 route bang float;
#X obj 114 129 makefilename 1/%d;
#X obj 60 245 symbol;
#X obj 60 312 else/frac2dec;
#X obj 114 212 t s s;
#X obj 231 187 r \$0-init;
#X msg 231 211 0;
#X obj 114 187 else/frac.add;
#X connect 1 0 8 0;
#X connect 1 1 0 0;
#X connect 2 0 1 1;
#X connect 3 0 5 0;
#X connect 4 0 12 0;
#X connect 5 0 7 0;
#X connect 5 0 12 0;
#X connect 5 1 6 0;
#X connect 5 2 4 0;
#X connect 6 0 12 0;
#X connect 7 0 1 0;
#X connect 8 0 0 0;
#X connect 9 0 7 1;
#X connect 9 1 12 1;
#X connect 10 0 11 0;
#X connect 11 0 12 1;
#X connect 12 0 9 0;
#X restore 78 350 pd convert;
#X obj 78 138 t b s b;
#X obj 141 138 s \$0-init;
#X obj 316 93 declare -path else;
#X connect 0 0 10 0;
#X connect 1 0 2 0;
#X connect 2 0 11 0;
#X connect 7 0 8 0;
#X connect 8 0 0 0;
#X connect 8 1 9 0;
#X connect 9 0 0 0;
#X connect 10 0 6 0;
#X connect 11 0 10 0;
#X connect 11 1 7 0;
#X connect 11 2 12 0;
