#N canvas 342 23 620 343 12;
#X obj 148 276 outlet;
#N canvas 97 74 450 300 init 0;
#X obj 121 130 else/args;
#X obj 121 104 loadbang;
#X obj 121 154 route bang;
#X obj 182 198 outlet;
#X connect 0 0 2 0;
#X connect 1 0 0 0;
#X connect 2 1 3 0;
#X restore 160 110 pd init;
#X obj 66 30 inlet;
#X text 317 186 Part of ELSE \; https://github.com/porres/pd-else;
#X text 319 167 Alexandre Torres Porres (2023);
#X obj 148 181 netreceive -u -b;
#X obj 148 142 else/insert listen;
#X msg 66 103 listen 0;
#X obj 148 214 else/osc.parse;
#X obj 148 243 else/pipe2;
#X obj 66 67 route disconnect connect;
#X connect 1 0 6 0;
#X connect 2 0 10 0;
#X connect 5 0 8 0;
#X connect 6 0 5 0;
#X connect 7 0 5 0;
#X connect 8 0 9 0;
#X connect 8 1 9 1;
#X connect 9 0 0 0;
#X connect 10 0 7 0;
#X connect 10 1 6 0;
