#N canvas 469 198 466 334 10;
#X declare -path else;
#X obj 188 281 outlet~;
#X obj 188 229 *~;
#X text 235 162 Part of ELSE \; https://github.com/porres/pd-else;
#X text 237 143 Alexandre Torres Porres (2017);
#X text 239 207 This is an abstraction used on the [oscbank~] object
, f 27;
#X obj 72 196 else/sine~;
#X obj 129 100 else/f2s~;
#X obj 49 100 else/f2s~;
#X obj 203 100 else/f2s~;
#X obj 91 50 route freq phase amp ramp;
#X obj 90 21 inlet;
#X obj 287 72 declare -path else;
#X connect 1 0 0 0;
#X connect 5 0 1 0;
#X connect 6 0 5 2;
#X connect 7 0 5 0;
#X connect 8 0 1 1;
#X connect 9 0 7 0;
#X connect 9 1 6 0;
#X connect 9 2 8 0;
#X connect 9 3 8 1;
#X connect 9 3 6 1;
#X connect 9 3 7 1;
#X connect 10 0 9 0;
