#N canvas 330 44 782 569 12;
#X declare -path else;
#X obj 80 100 tgl 15 0 empty empty empty 17 7 0 10 #dcdcdc #000000
#000000 0 1;
#X msg 141 245 goto 1;
#X obj 449 29 inlet;
#X obj 80 29 inlet;
#X obj 196 282 else/sequencer, f 25;
#X obj 390 520 outlet;
#N canvas 132 323 767 348 route 0;
#X obj 97 41 inlet;
#X msg 148 122 1;
#X msg 200 122 0;
#X obj 132 306 outlet;
#X obj 233 193 s \$0-tempo;
#X obj 279 154 s \$0-swing;
#X obj 370 137 != 0;
#X obj 402 236 s \$0-mode;
#X obj 370 168 sel 0;
#X msg 370 196 4;
#X obj 537 270 outlet;
#X obj 620 262 outlet;
#X obj 575 170 t b a;
#X obj 97 194 v seq_\$0;
#X obj 132 223 sel 1;
#X obj 132 251 float, f 9;
#X obj 97 163 t b f, f 10;
#X obj 543 212 v seq_\$0;
#X obj 543 240 sel 1;
#X msg 511 169 0;
#X obj 437 128 s \$0-beat;
#X obj 97 84 route float start stop tempo swing mode pause continue
goto beat beatmul clear bang, f 87;
#X obj 513 119 s \$0-beatmul;
#X connect 0 0 21 0;
#X connect 1 0 16 0;
#X connect 2 0 16 0;
#X connect 6 0 8 0;
#X connect 8 0 9 0;
#X connect 8 1 7 0;
#X connect 9 0 7 0;
#X connect 12 0 17 0;
#X connect 12 1 11 0;
#X connect 13 0 14 0;
#X connect 14 0 15 0;
#X connect 15 0 3 0;
#X connect 16 0 13 0;
#X connect 16 1 15 1;
#X connect 17 0 18 0;
#X connect 18 0 10 0;
#X connect 19 0 17 0;
#X connect 19 0 3 0;
#X connect 21 0 16 0;
#X connect 21 1 1 0;
#X connect 21 2 2 0;
#X connect 21 3 4 0;
#X connect 21 4 5 0;
#X connect 21 9 20 0;
#X connect 21 10 22 0;
#X connect 21 11 19 0;
#X connect 21 12 17 0;
#X connect 21 13 12 0;
#X restore 80 63 pd route;
#X f 22;
#X obj 196 200 tempo -ms;
#X obj 293 156 r \$0-swing;
#X obj 212 167 r \$0-ms;
#X obj 80 125 change;
#X obj 288 520 outlet;
#X obj 390 481 r \$0-data;
#X text 420 347 Part of ELSE \; https://github.com/porres/pd-else;
#X text 422 328 Alexandre Torres Porres (2021);
#N canvas 386 372 406 330 set-text 0;
#X obj 106 120 else/break |;
#X obj 106 150 route |;
#X obj 106 182 else/frac2dec;
#X msg 208 110 clear;
#X obj 208 139 text define \$0-stack;
#X obj 106 211 text set \$0-stack 1e+09;
#X obj 83 18 inlet;
#X obj 83 263 outlet;
#X obj 83 82 t a a b;
#X obj 83 49 else/changed;
#X connect 0 0 1 0;
#X connect 1 0 2 0;
#X connect 1 1 2 0;
#X connect 2 0 5 0;
#X connect 3 0 4 0;
#X connect 6 0 9 0;
#X connect 8 0 7 0;
#X connect 8 1 0 0;
#X connect 8 2 3 0;
#X connect 9 0 8 0;
#X restore 368 247 pd set-text;
#X obj 196 317 else/frac2dec;
#N canvas 190 146 872 539 bar 0;
#X obj 307 126 else/iterate;
#X obj 307 175 else/add;
#X obj 252 174 f;
#X obj 252 142 t b l;
#X obj 307 151 abs;
#X obj 252 95 text get \$0-stack;
#X obj 220 298 pack;
#X obj 220 68 t f f;
#X msg 220 326 bar \$1 \$2;
#X obj 220 30 inlet;
#X obj 252 239 * 4;
#X obj 88 227 sel 0;
#X msg 88 297 start;
#X obj 220 506 outlet;
#X obj 112 262 s \$0-reset-n;
#X obj 424 115 r \$0-beat;
#X obj 424 364 expr 1/$f1;
#X obj 424 143 symbol;
#X obj 425 288 /;
#X obj 456 256 route float;
#X obj 424 170 else/separate /;
#X obj 425 200 else/unmerge 3;
#X obj 530 285 list fromsymbol;
#X obj 530 313 list split 1;
#X obj 570 346 list tosymbol;
#X obj 590 380 f;
#X obj 687 302 else/slice -1;
#X obj 687 273 list fromsymbol;
#X obj 687 331 list tosymbol;
#X obj 687 363 f;
#X obj 590 411 /;
#X obj 316 236 r \$0-beatmul;
#X obj 252 267 / 1;
#X connect 0 0 4 0;
#X connect 1 0 2 1;
#X connect 2 0 10 0;
#X connect 3 0 2 0;
#X connect 3 0 1 0;
#X connect 3 1 0 0;
#X connect 4 0 1 0;
#X connect 5 0 3 0;
#X connect 6 0 8 0;
#X connect 7 0 6 0;
#X connect 7 0 11 0;
#X connect 7 1 5 0;
#X connect 8 0 13 0;
#X connect 9 0 7 0;
#X connect 10 0 32 0;
#X connect 11 0 12 0;
#X connect 11 0 14 0;
#X connect 12 0 13 0;
#X connect 15 0 17 0;
#X connect 16 0 10 1;
#X connect 17 0 20 0;
#X connect 18 0 16 0;
#X connect 19 0 18 1;
#X connect 19 1 22 0;
#X connect 20 0 21 0;
#X connect 21 0 18 0;
#X connect 21 1 19 0;
#X connect 21 2 27 0;
#X connect 22 0 23 0;
#X connect 23 1 24 0;
#X connect 24 0 25 0;
#X connect 25 0 30 0;
#X connect 26 0 28 0;
#X connect 27 0 26 0;
#X connect 28 0 29 0;
#X connect 29 0 30 1;
#X connect 30 0 18 1;
#X connect 31 0 32 1;
#X connect 32 0 6 1;
#X restore 310 317 pd bar;
#N canvas 554 471 327 395 ms 0;
#X obj 110 228 *;
#X obj 128 131 else/bpm;
#X obj 128 97 r \$0-tempo;
#X obj 110 323 s \$0-ms;
#X obj 148 292 s \$0-data;
#X obj 110 293 abs;
#X msg 148 264 dur \$1;
#X obj 195 131 r \$0-mode;
#X obj 110 56 inlet;
#X obj 128 200 *;
#X obj 128 170 pack2 f 4, f 10;
#X connect 0 0 5 0;
#X connect 0 0 6 0;
#X connect 1 0 10 0;
#X connect 2 0 1 0;
#X connect 5 0 3 0;
#X connect 6 0 4 0;
#X connect 7 0 10 1;
#X connect 8 0 0 0;
#X connect 9 0 0 1;
#X connect 10 0 9 0;
#X restore 228 379 pd ms;
#X obj 196 346 t f f;
#X obj 91 277 s \$0-data;
#X msg 91 246 stop;
#X obj 310 345 s \$0-data;
#N canvas 653 23 527 422 init 0;
#X obj 55 365 outlet;
#X obj 189 260 else/slice 1;
#X obj 305 317 s \$0-tempo;
#X msg 304 213 120;
#X obj 55 269 else/group;
#X obj 55 113 else/loadbanger 3, f 26;
#X obj 144 211 route bang -tempo -i;
#X obj 322 247 t a b;
#X obj 354 292 s \$0-i;
#X msg 354 269 1;
#X obj 144 166 else/args -;
#X connect 1 0 2 0;
#X connect 1 1 6 0;
#X connect 3 0 2 0;
#X connect 4 0 0 0;
#X connect 5 0 4 0;
#X connect 5 1 10 0;
#X connect 5 2 3 0;
#X connect 6 1 1 0;
#X connect 6 2 7 0;
#X connect 6 3 4 0;
#X connect 7 0 6 0;
#X connect 7 1 9 0;
#X connect 9 0 8 0;
#X connect 10 0 6 0;
#X restore 496 85 pd init;
#N canvas 653 92 589 490 time-sig 0;
#X obj 133 153 list fromsymbol;
#X obj 235 211 list tosymbol;
#X obj 235 240 else/separate /;
#X obj 133 183 else/slice 1;
#X obj 235 183 else/slice -1;
#X obj 133 93 else/break (;
#X obj 133 122 else/slice 1;
#X obj 254 321 display;
#X obj 235 385 display;
#X obj 254 267 /;
#X obj 254 293 * 4;
#X obj 235 355 expr $f2/($f1 * 4);
#X text 196 387 speed;
#X text 146 57 time signature;
#X connect 0 0 3 0;
#X connect 1 0 2 0;
#X connect 2 0 9 0;
#X connect 2 0 11 0;
#X connect 3 1 4 0;
#X connect 4 0 1 0;
#X connect 5 0 6 0;
#X connect 6 0 0 0;
#X connect 9 0 10 0;
#X connect 10 0 7 0;
#X connect 11 0 8 0;
#X restore 490 241 pd time-sig;
#X obj 91 191 sel 0 1;
#X obj 80 150 t f f;
#X obj 368 184 else/message;
#X obj 196 245 t b b;
#X obj 262 242 else/nmess 1;
#X obj 155 98 t b b, f 11;
#X obj 80 317 v on_\$0;
#X obj 155 123 v on_\$0;
#X obj 155 148 sel 0 1, f 3;
#X msg 116 98 1;
#X msg 496 164 1;
#X obj 496 192 v seq_\$0;
#X obj 214 413 else/router;
#X obj 288 381 r \$0-i;
#X obj 214 443 > 0;
#N canvas 1009 331 318 246 i 0;
#X obj 83 40 inlet;
#X obj 83 128 else/count -reset 1;
#X obj 127 69 r \$0-reset-n;
#X msg 127 93 reset;
#X obj 83 175 outlet;
#X obj 83 89 b;
#X connect 0 0 5 0;
#X connect 1 0 4 0;
#X connect 2 0 3 0;
#X connect 3 0 1 0;
#X connect 5 0 1 0;
#X restore 288 454 pd i;
#X obj 214 474 sel 1;
#X obj 547 127 declare -path else;
#X connect 0 0 10 0;
#X connect 1 0 4 0;
#X connect 2 0 27 1;
#X connect 2 0 35 0;
#X connect 3 0 6 0;
#X connect 4 0 16 0;
#X connect 4 2 17 0;
#X connect 4 3 29 1;
#X connect 6 0 0 0;
#X connect 6 1 30 0;
#X connect 6 2 27 1;
#X connect 6 2 35 0;
#X connect 7 0 28 0;
#X connect 8 0 7 2;
#X connect 9 0 7 1;
#X connect 10 0 26 0;
#X connect 12 0 5 0;
#X connect 15 0 4 1;
#X connect 16 0 19 0;
#X connect 17 0 22 0;
#X connect 19 0 37 0;
#X connect 19 1 18 0;
#X connect 21 0 20 0;
#X connect 23 0 27 1;
#X connect 23 0 35 0;
#X connect 25 0 1 0;
#X connect 25 0 21 0;
#X connect 25 0 29 1;
#X connect 25 1 29 0;
#X connect 26 0 7 0;
#X connect 26 0 31 0;
#X connect 26 1 25 0;
#X connect 27 0 15 0;
#X connect 28 0 4 0;
#X connect 28 1 29 0;
#X connect 29 0 27 0;
#X connect 30 0 32 0;
#X connect 30 1 29 1;
#X connect 30 1 1 0;
#X connect 32 0 33 0;
#X connect 33 0 34 0;
#X connect 33 1 7 0;
#X connect 34 0 10 0;
#X connect 35 0 36 0;
#X connect 37 0 39 0;
#X connect 37 1 40 0;
#X connect 38 0 37 1;
#X connect 39 0 41 0;
#X connect 40 0 11 0;
#X connect 41 0 11 0;
