#N canvas 452 67 431 413 12;
#X declare -path else;
#X obj 59 271 *~;
#X obj 41 305 -~;
#X obj 101 273 *~;
#X obj 101 358 outlet~;
#X obj 119 150 phasor~;
#N canvas 527 94 378 477 slopes 0;
#X obj 211 243 samphold~;
#X obj 62 27 inlet~;
#X obj 62 412 outlet~;
#X obj 211 412 outlet~;
#X obj 62 367 *~;
#X obj 229 333 -~ 1;
#X obj 211 367 *~;
#X obj 236 179 *~ 2;
#X obj 236 151 else/white~;
#X msg 182 115 seed;
#X obj 182 91 route bang float;
#X msg 236 115 seed \$1;
#X obj 80 333 else/lastvalue~;
#X msg 150 252 0;
#X msg 171 197 set 0;
#X obj 150 39 r \$0-seed;
#X obj 150 63 t b a;
#X connect 0 0 6 0;
#X connect 0 0 12 0;
#X connect 1 0 0 1;
#X connect 1 0 4 0;
#X connect 1 0 5 0;
#X connect 4 0 2 0;
#X connect 5 0 6 1;
#X connect 6 0 3 0;
#X connect 7 0 0 0;
#X connect 8 0 7 0;
#X connect 9 0 8 0;
#X connect 10 0 9 0;
#X connect 10 1 11 0;
#X connect 11 0 8 0;
#X connect 12 0 4 1;
#X connect 13 0 12 1;
#X connect 14 0 0 0;
#X connect 15 0 16 0;
#X connect 16 0 13 0;
#X connect 16 0 14 0;
#X connect 16 1 10 0;
#X restore 41 195 pd slopes;
#N canvas 936 89 203 304 smootherstep 0;
#X obj 94 36 inlet~;
#X obj 94 83 *~;
#X obj 23 91 *~;
#X obj 23 164 *~ 10;
#X obj 123 134 *~;
#X obj 76 134 *~;
#X obj 123 164 *~ 15;
#X obj 76 164 *~ 6;
#X obj 105 197 -~;
#X obj 105 239 outlet~;
#X connect 0 0 1 0;
#X connect 0 0 1 1;
#X connect 0 0 2 0;
#X connect 1 0 2 1;
#X connect 1 0 4 0;
#X connect 1 0 4 1;
#X connect 1 0 5 1;
#X connect 2 0 3 0;
#X connect 2 0 5 0;
#X connect 3 0 9 0;
#X connect 4 0 6 0;
#X connect 5 0 7 0;
#X connect 6 0 8 1;
#X connect 7 0 8 0;
#X connect 8 0 9 0;
#X restore 119 195 pd smootherstep;
#X text 160 271 Part of ELSE \; https://github.com/porres/pd-else;
#X obj 119 114 else/fold~ 0 1;
#X obj 262 39 declare -path else;
#X obj 119 76 inlet~ fwd;
#X obj 248 113 route seed;
#X obj 248 148 s \$0-seed;
#X msg 194 150 0;
#X text 161 252 Matt Barber/Porres (2020-2022);
#N canvas 149 79 391 357 init 0;
#X obj 142 179 else/swap2;
#X obj 169 149 list split 1;
#X obj 111 84 else/args -;
#X obj 209 213 s \$0-seed;
#X obj 111 47 else/loadbanger 2;
#X obj 111 119 route float -seed;
#X obj 111 269 outlet;
#X obj 252 91 else/nyquist~;
#X obj 252 115 s \$0-nyq;
#X connect 0 0 5 0;
#X connect 0 1 3 0;
#X connect 1 0 0 0;
#X connect 1 1 0 1;
#X connect 2 0 5 0;
#X connect 4 0 2 0;
#X connect 4 1 7 0;
#X connect 5 0 6 0;
#X connect 5 1 1 0;
#X connect 7 0 8 0;
#X restore 119 40 pd init;
#X obj 214 74 r \$0-nyq;
#X connect 0 0 1 1;
#X connect 1 0 3 0;
#X connect 2 0 3 0;
#X connect 4 0 5 0;
#X connect 4 0 6 0;
#X connect 5 0 1 0;
#X connect 5 0 0 0;
#X connect 5 1 2 0;
#X connect 6 0 0 1;
#X connect 6 0 2 1;
#X connect 8 0 4 0;
#X connect 10 0 8 0;
#X connect 10 1 11 0;
#X connect 11 0 12 0;
#X connect 11 0 13 0;
#X connect 13 0 4 1;
#X connect 15 0 10 0;
#X connect 16 0 8 2;
