#N canvas 656 250 488 324 12;
#X declare -path else;
#X obj 64 64 inlet;
#X obj 137 64 inlet;
#N canvas 291 73 415 442 positive 0;
#X obj 95 69 list;
#X obj 95 140 list length;
#X obj 95 244 sel 1;
#X obj 95 214 >=;
#X obj 95 36 inlet;
#X obj 113 180 r \$0-i;
#X obj 140 352 list store;
#X obj 95 102 trigger list list;
#X obj 140 273 float;
#X msg 140 323 get \$1 1;
#X obj 140 385 outlet;
#X obj 140 297 - 1;
#X connect 0 0 7 0;
#X connect 1 0 3 0;
#X connect 2 0 8 0;
#X connect 3 0 2 0;
#X connect 4 0 0 0;
#X connect 5 0 3 1;
#X connect 5 0 8 1;
#X connect 6 0 10 0;
#X connect 7 0 1 0;
#X connect 7 1 6 1;
#X connect 8 0 11 0;
#X connect 9 0 6 0;
#X connect 11 0 9 0;
#X restore 64 172 pd positive;
#N canvas 850 67 339 449 negative 0;
#X obj 82 75 list;
#X obj 82 146 list length;
#X obj 82 227 sel 1;
#X obj 137 395 outlet;
#X obj 82 197 >=;
#X obj 82 42 inlet;
#X obj 155 189 r \$0-i;
#X obj 155 216 abs;
#X obj 82 172 t f f;
#X obj 121 258 f;
#X obj 137 293 -;
#X obj 137 356 list store;
#X msg 137 322 get \$1 1;
#X obj 82 108 trigger list list, f 19;
#X connect 0 0 13 0;
#X connect 1 0 8 0;
#X connect 2 0 9 0;
#X connect 4 0 2 0;
#X connect 5 0 0 0;
#X connect 6 0 7 0;
#X connect 7 0 4 1;
#X connect 7 0 10 1;
#X connect 8 0 4 0;
#X connect 8 1 9 1;
#X connect 9 0 10 0;
#X connect 10 0 12 0;
#X connect 11 0 3 0;
#X connect 12 0 11 0;
#X connect 13 0 1 0;
#X connect 13 1 11 1;
#X restore 117 132 pd negative;
#N canvas 253 84 319 276 route 0;
#X obj 67 151 list prepend;
#X obj 148 107 expr if($f1 > 0 \, 1 \, if($f1 < 0 \, -1 \, 0)), f
19;
#X obj 67 178 route 1 -1;
#X obj 148 81 r \$0-i;
#X obj 67 31 inlet;
#X obj 99 218 outlet;
#X obj 46 217 outlet;
#X connect 0 0 2 0;
#X connect 1 0 0 1;
#X connect 2 0 6 0;
#X connect 2 1 5 0;
#X connect 3 0 1 0;
#X connect 4 0 0 0;
#X restore 64 102 pd route;
#N canvas 64 23 450 300 set-i 0;
#X obj 153 43 inlet;
#X obj 168 123 f \$1;
#X obj 168 168 s \$0-i;
#X obj 187 92 lb -init;
#X connect 0 0 1 0;
#X connect 1 0 2 0;
#X connect 3 0 1 0;
#X restore 137 99 pd set-i;
#X obj 117 252 outlet;
#X text 227 170 Part of ELSE \; https://github.com/porres/pd-else;
#X text 229 151 Alexandre Torres Porres (2019);
#X obj 117 216 list;
#X obj 258 104 declare -path else;
#X connect 0 0 4 0;
#X connect 1 0 5 0;
#X connect 2 0 9 0;
#X connect 3 0 9 0;
#X connect 4 0 2 0;
#X connect 4 1 3 0;
#X connect 9 0 6 0;
