#N canvas 214 129 853 361 10;
#X declare -path else;
#X obj 76 28 inlet;
#N canvas 279 293 677 363 guts 1;
#X msg 262 181 stop;
#X msg 208 264 bang;
#X obj 101 165 route float;
#X obj 43 261 s \$0-readsf~;
#X obj 101 188 s \$0-spigot;
#X obj 43 30 inlet;
#X obj 243 117 != 0;
#X obj 243 142 sel 1 0;
#X obj 208 288 s \$0-to_symbol;
#N canvas 648 348 651 398 open 0;
#X obj 216 164 openpanel;
#X obj 216 106 route bang, f 17;
#X obj 227 135 else/click;
#X msg 315 321 open \$1 \, 1;
#X obj 216 54 inlet;
#X obj 315 356 outlet;
#X obj 348 54 inlet;
#X obj 373 183 else/canvas.file 1;
#X obj 478 233 print [sample~];
#X msg 478 207 \$1 file not found;
#X obj 315 295 symbol;
#X obj 85 153 r \$0-to_symbolarg;
#X obj 393 291 r \$0-file-found;
#X obj 366 247 r \$0-to_symbol;
#X connect 0 0 10 0;
#X connect 1 0 0 0;
#X connect 1 1 7 0;
#X connect 2 0 0 0;
#X connect 3 0 5 0;
#X connect 4 0 1 0;
#X connect 6 0 10 1;
#X connect 7 0 10 0;
#X connect 7 1 9 0;
#X connect 9 0 8 0;
#X connect 10 0 3 0;
#X connect 11 0 10 0;
#X connect 12 0 10 1;
#X connect 13 0 10 0;
#X restore 43 144 pd open;
#X obj 43 57 route open loop stop start bang float set;
#N canvas 260 127 593 557 init 0;
#X obj 347 259 s pd-\$0-readsf;
#X obj 211 111 v n_ch_\$0;
#X obj 211 201 * 60;
#X obj 211 230 + 20;
#X obj 347 176 v n_ch_\$0;
#X obj 287 232 f \$0;
#X text 182 26 Dynamic Patching;
#X msg 347 204 obj 20 100 readsf~ \$1 \, connect 0 0 4 0 \, connect
4 \$1 2 0, f 22;
#N canvas 459 23 586 662 get_n_ch 0;
#X obj 31 17 inlet;
#X obj 229 294 v n_ch_\$0;
#X msg 77 247 1;
#X msg 229 157 \$1;
#X msg 340 213 1;
#X obj 340 245 v sym_\$0;
#X obj 229 210 int;
#X obj 229 242 clip 1 64;
#X obj 313 184 t a b;
#X obj 313 275 symbol;
#X text 376 213 1st arg is symbol;
#X obj 31 142 route bang -loop;
#X obj 91 222 s \$0-spigot;
#X obj 229 184 route float;
#X obj 237 128 s \$0-arg-list;
#X msg 91 195 1;
#X obj 31 288 v n_ch_\$0;
#X obj 59 318 sel 0;
#X msg 59 344 1;
#X obj 31 266 b;
#X obj 202 570 soundfiler;
#X obj 202 504 pack s s;
#X msg 202 539 read \$1 \$2;
#X msg 259 594 \$3;
#X obj 305 531 table \$0-dummy 1;
#X obj 247 478 symbol \$0-dummy;
#X obj 330 352 r \$0-set-symbol_arg;
#X obj 259 619 v n_ch_\$0;
#X obj 31 41 trigger bang bang, f 19;
#X obj 31 94 else/break -;
#X obj 31 67 else/args;
#N canvas 149 123 230 240 route 0;
#X obj 49 84 route bang;
#X obj 49 36 inlet;
#X obj 49 184 outlet;
#X obj 106 110 t a b;
#X obj 106 153 s \$0-reroute;
#X obj 133 184 outlet;
#X connect 0 0 2 0;
#X connect 0 1 3 0;
#X connect 1 0 0 0;
#X connect 3 0 4 0;
#X connect 3 1 5 0;
#X restore 77 169 pd route;
#X obj 56 118 r \$0-reroute;
#X obj 229 105 list;
#X obj 313 387 else/canvas.file 1;
#X obj 418 444 print [sample~];
#X msg 418 418 \$1 file not found;
#X obj 313 436 s \$0-file-found;
#X connect 0 0 28 0;
#X connect 2 0 1 0;
#X connect 3 0 13 0;
#X connect 4 0 5 0;
#X connect 6 0 7 0;
#X connect 7 0 1 0;
#X connect 8 0 9 0;
#X connect 8 1 4 0;
#X connect 9 0 34 0;
#X connect 11 0 2 0;
#X connect 11 0 19 0;
#X connect 11 1 31 0;
#X connect 11 2 33 0;
#X connect 13 0 6 0;
#X connect 13 1 8 0;
#X connect 15 0 12 0;
#X connect 16 0 17 0;
#X connect 17 0 18 0;
#X connect 18 0 16 0;
#X connect 19 0 16 0;
#X connect 20 1 23 0;
#X connect 21 0 22 0;
#X connect 22 0 20 0;
#X connect 23 0 27 0;
#X connect 25 0 21 1;
#X connect 26 0 34 0;
#X connect 28 0 30 0;
#X connect 28 1 25 0;
#X connect 29 0 11 0;
#X connect 30 0 29 0;
#X connect 31 0 15 0;
#X connect 31 0 2 0;
#X connect 31 1 15 0;
#X connect 32 0 11 0;
#X connect 33 0 14 0;
#X connect 33 0 3 0;
#X connect 34 0 37 0;
#X connect 34 0 21 0;
#X connect 34 1 36 0;
#X connect 36 0 35 0;
#X restore 425 170 pd get_n_ch;
#N canvas 596 508 315 238 load 0;
#X obj 85 76 v sym_\$0;
#X obj 85 49 inlet;
#N canvas 129 324 425 422 1st_is_not_filename 0;
#X obj 87 31 inlet;
#X obj 108 63 r \$0-arg-list;
#X obj 87 86 list;
#X obj 154 289 s \$0-spigot;
#X text 234 346 3rd is autostart;
#X text 229 288 4th is loop;
#X obj 121 263 unpack;
#X obj 121 316 sel 1;
#X obj 114 133 list split 1;
#X obj 87 110 t a a;
#X obj 87 236 list split 2;
#X msg 205 184 \$1;
#X obj 148 161 route bang;
#X obj 66 61 bng 15 250 50 0 empty empty empty 17 7 0 10 #fcfcfc #000000
#000000;
#X obj 205 230 symbol;
#X text 239 184 2nd is filename;
#X obj 205 254 s \$0-set-symbol_arg;
#X obj 121 344 s \$0-to_symbolarg;
#X obj 205 207 else/routetype anything;
#X connect 0 0 2 0;
#X connect 1 0 2 1;
#X connect 2 0 9 0;
#X connect 6 0 7 0;
#X connect 6 1 3 0;
#X connect 7 0 17 0;
#X connect 8 1 12 0;
#X connect 9 0 10 0;
#X connect 9 1 8 0;
#X connect 10 1 6 0;
#X connect 11 0 18 0;
#X connect 12 1 11 0;
#X connect 13 0 2 0;
#X connect 14 0 16 0;
#X connect 18 0 14 0;
#X restore 85 175 pd 1st_is_not_filename;
#N canvas 678 327 358 270 1st_is_filename 0;
#X obj 64 35 inlet;
#X obj 98 170 sel 1;
#X text 213 203 2nd is autostart;
#X text 223 172 3rd is loop;
#X obj 103 78 r \$0-arg-list;
#X obj 64 78 list;
#X obj 147 173 s \$0-spigot;
#X obj 64 108 list split 1;
#X obj 98 137 unpack;
#X obj 98 202 s \$0-to_symbolarg;
#X connect 0 0 5 0;
#X connect 1 0 9 0;
#X connect 4 0 5 1;
#X connect 5 0 7 0;
#X connect 7 1 8 0;
#X connect 8 0 1 0;
#X connect 8 1 6 0;
#X restore 104 140 pd 1st_is_filename;
#X obj 85 109 sel 0 1;
#X connect 0 0 4 0;
#X connect 1 0 0 0;
#X connect 4 0 2 0;
#X connect 4 1 3 0;
#X restore 33 351 pd load \; args;
#X obj 144 414 * 60;
#X obj 144 439 + 20;
#X obj 97 350 v n_ch_\$0;
#X obj 211 175 t f f, f 7;
#X obj 97 439 f \$0;
#X obj 97 379 trigger bang float, f 32;
#X obj 262 232 + 3;
#X obj 227 258 pack f f f f f;
#X obj 318 232 + 5;
#X msg 227 290 \; pd-\$4-readsf obj \$1 200 outlet~ \, connect 4 \$2
\$5 0 \; \$4-sampler obj \$1 200 outlet~ \, connect 2 \$2 \$3 0;
#X obj 191 439 + 4;
#X obj 239 439 + 3;
#X obj 97 463 pack float float float float float float;
#X msg 97 492 \; pd-\$1-readsf obj \$2 200 s \$1-didit \, connect 4
\$5 \$6 0 \; \$1-sampler obj \$2 200 r \$1-didit \, obj \$2 240 outlet
\, connect \$4 0 \$3 0, f 55;
#X obj 334 439 + 5;
#X obj 168 54 else/loadbanger -init 5;
#X obj 211 144 else/loop;
#X connect 1 0 26 0;
#X connect 2 0 3 0;
#X connect 3 0 17 0;
#X connect 4 0 7 0;
#X connect 5 0 17 3;
#X connect 7 0 0 0;
#X connect 10 0 11 0;
#X connect 11 0 22 1;
#X connect 12 0 15 0;
#X connect 13 0 2 0;
#X connect 13 1 16 0;
#X connect 13 1 17 1;
#X connect 13 1 18 0;
#X connect 14 0 22 0;
#X connect 15 0 14 0;
#X connect 15 1 10 0;
#X connect 15 1 20 0;
#X connect 15 1 21 0;
#X connect 15 1 22 4;
#X connect 15 1 24 0;
#X connect 16 0 17 2;
#X connect 17 0 19 0;
#X connect 18 0 17 4;
#X connect 20 0 22 2;
#X connect 21 0 22 3;
#X connect 22 0 23 0;
#X connect 24 0 22 5;
#X connect 25 0 9 0;
#X connect 25 1 12 0;
#X connect 25 2 1 0;
#X connect 25 3 4 0;
#X connect 25 3 5 0;
#X connect 25 4 8 0;
#X connect 26 0 13 0;
#X restore 382 174 pd init;
#X text 375 241 Part of ELSE \; https://github.com/porres/pd-else;
#X text 377 222 Alexandre Torres Porres (2018-2020);
#X obj 372 116 else/canvas.setname \$0-sampler 1;
#X obj 420 84 declare -path else;
#X connect 0 0 3 0;
#X connect 1 0 8 0;
#X connect 2 0 4 0;
#X connect 5 0 10 0;
#X connect 6 0 7 0;
#X connect 7 0 1 0;
#X connect 7 1 0 0;
#X connect 9 0 3 0;
#X connect 10 0 9 0;
#X connect 10 1 2 0;
#X connect 10 2 0 0;
#X connect 10 3 1 0;
#X connect 10 4 1 0;
#X connect 10 5 6 0;
#X connect 10 6 9 1;
#X restore 76 59 pd guts;
#N canvas 469 328 897 372 \$0-readsf 0;
#X obj 20 21 r \$0-readsf~;
#X obj 384 56 r \$0-spigot;
#X obj 351 78 spigot;
#X obj 351 105 s \$0-to_symbol;
#X connect 1 0 2 1;
#X connect 2 0 3 0;
#X restore 74 122 pd \$0-readsf;
#X connect 0 0 1 0;
