#N canvas 746 110 853 361 10;
#X declare -path else;
#X obj 76 28 inlet;
#N canvas 657 379 677 337 guts 0;
#X msg 262 181 stop;
#X msg 208 264 bang;
#X obj 101 165 route float;
#X obj 43 261 s \$0-readsf~;
#X obj 101 188 s \$0-spigot;
#X obj 43 30 inlet;
#X obj 243 117 != 0;
#X obj 243 142 sel 1 0;
#X obj 208 288 s \$0-to_symbol;
#N canvas 701 36 569 778 open 0;
#X obj 98 278 openpanel;
#X obj 158 603 select symbol;
#X obj 98 220 route bang;
#X obj 261 551 symbol;
#X obj 345 445 r \$0-to_symbol;
#X obj 105 247 click;
#X msg 345 663 open \$1 \, 1;
#X obj 98 48 inlet;
#X obj 345 698 outlet;
#X obj 345 603 r \$0-makefilename;
#X obj 345 632 makefilename;
#X obj 384 517 r \$0-file-found;
#X obj 233 159 symbol;
#X obj 188 186 sel s;
#X obj 188 133 symbol;
#X obj 188 159 t s b;
#X obj 188 89 r \$0-to_symbolarg;
#X obj 363 53 inlet;
#X obj 221 111 r \$0-file-found;
#N canvas 557 214 587 727 search-root 0;
#X obj 137 81 list fromsymbol;
#X obj 74 108 symbol;
#X obj 74 31 inlet;
#X obj 74 139 t s s;
#X obj 74 209 router;
#X obj 187 182 separate /;
#X obj 262 465 select s;
#X obj 456 352 symbol;
#X msg 443 405 set \$1%s/;
#X obj 279 312 list split;
#X obj 336 266 list length;
#X obj 336 289 - 1;
#X obj 187 207 list;
#X obj 359 373 symbol;
#X obj 359 347 t b l;
#X obj 386 469 sel 1;
#X msg 359 396 open \$1;
#X obj 187 232 trigger list list bang;
#X obj 137 443 router;
#X obj 359 424 dir, f 5;
#X msg 416 245 set /%s/;
#X msg 386 491 dump;
#X obj 137 614 print;
#X msg 137 589 error: [play.file~] can't load \$1;
#X obj 137 238 t s s;
#X obj 74 658 outlet;
#X obj 170 550 s \$0-file-found;
#X obj 277 549 s \$0-makefilename;
#X msg 277 524 set %s;
#X obj 137 105 expr $f1 == 47 \; $f2 == 58;
#X obj 137 166 ||;
#X obj 480 223 sel 1;
#X msg 480 245 set %s/;
#X obj 416 223 sel 1;
#X obj 416 378 makefilename;
#X obj 170 524 t s b;
#N canvas 68 23 450 300 iterate 0;
#X obj 122 118 until;
#X obj 135 201 list store;
#X obj 156 85 t b b l;
#X obj 122 143 f;
#X obj 160 144 + 1;
#X msg 179 118 0, f 2;
#X msg 122 174 get \$1 1;
#X obj 156 47 inlet;
#X obj 135 243 outlet;
#X connect 0 0 3 0;
#X connect 1 0 8 0;
#X connect 1 1 0 1;
#X connect 2 0 0 0;
#X connect 2 1 5 0;
#X connect 2 2 1 1;
#X connect 3 0 4 0;
#X connect 3 0 6 0;
#X connect 4 0 3 1;
#X connect 5 0 3 1;
#X connect 6 0 1 0;
#X connect 7 0 2 0;
#X restore 456 328 pd iterate;
#X msg 170 402 0;
#X msg 262 491 1;
#X connect 0 0 29 0;
#X connect 1 0 3 0;
#X connect 2 0 1 0;
#X connect 3 0 4 0;
#X connect 3 1 0 0;
#X connect 4 0 25 0;
#X connect 4 1 24 0;
#X connect 5 0 12 0;
#X connect 6 0 38 0;
#X connect 7 0 34 0;
#X connect 8 0 34 0;
#X connect 9 0 14 0;
#X connect 9 1 6 1;
#X connect 10 0 11 0;
#X connect 11 0 9 1;
#X connect 12 0 17 0;
#X connect 13 0 16 0;
#X connect 14 0 13 0;
#X connect 14 1 36 0;
#X connect 15 0 21 0;
#X connect 16 0 19 0;
#X connect 17 0 9 0;
#X connect 17 1 10 0;
#X connect 17 2 37 0;
#X connect 18 0 23 0;
#X connect 18 1 35 0;
#X connect 19 0 6 0;
#X connect 19 3 15 0;
#X connect 20 0 34 0;
#X connect 21 0 19 0;
#X connect 23 0 22 0;
#X connect 24 0 18 0;
#X connect 24 1 5 0;
#X connect 28 0 27 0;
#X connect 29 0 30 0;
#X connect 29 0 33 0;
#X connect 29 1 30 1;
#X connect 29 1 31 0;
#X connect 30 0 4 1;
#X connect 31 0 32 0;
#X connect 32 0 34 0;
#X connect 33 0 20 0;
#X connect 34 0 8 0;
#X connect 34 0 13 1;
#X connect 35 0 26 0;
#X connect 35 1 28 0;
#X connect 36 0 7 0;
#X connect 37 0 18 1;
#X connect 38 0 18 1;
#X restore 363 327 pd search-root;
#N canvas 551 376 545 664 search-parent 0;
#X obj 112 73 separate /;
#X msg 385 176 set %s/;
#X obj 395 232 symbol;
#X msg 412 285 set \$1%s/;
#X obj 204 223 list split;
#X obj 261 177 list length;
#X obj 261 200 - 1;
#X obj 112 98 list;
#X obj 328 253 symbol;
#X obj 328 227 t b l;
#X obj 355 334 sel 1;
#X msg 355 356 dump \, reset;
#X msg 328 279 open \$1;
#X obj 238 258 route bang;
#X obj 59 20 inlet;
#X msg 150 483 set \$1;
#X obj 150 510 s \$0-makefilename;
#X obj 150 459 makefilename %s/%%s;
#X obj 141 436 dir 1;
#X obj 328 309 dir 1;
#X obj 92 535 s \$0-file-found;
#X obj 112 123 trigger list list bang;
#X obj 59 383 router;
#X obj 92 437 t s b;
#X obj 59 96 t s s;
#X obj 156 354 sel s;
#X obj 59 590 outlet;
#X obj 385 258 makefilename;
#N canvas 68 23 450 300 iterate 0;
#X obj 122 118 until;
#X obj 135 201 list store;
#X obj 156 85 t b b l;
#X obj 122 143 f;
#X obj 160 144 + 1;
#X msg 179 118 0, f 2;
#X msg 122 174 get \$1 1;
#X obj 156 47 inlet;
#X obj 135 243 outlet;
#X connect 0 0 3 0;
#X connect 1 0 8 0;
#X connect 1 1 0 1;
#X connect 2 0 0 0;
#X connect 2 1 5 0;
#X connect 2 2 1 1;
#X connect 3 0 4 0;
#X connect 3 0 6 0;
#X connect 4 0 3 1;
#X connect 5 0 3 1;
#X connect 6 0 1 0;
#X connect 7 0 2 0;
#X restore 395 208 pd iterate;
#X msg 238 279 reopen \, dump;
#X msg 92 356 0;
#X msg 156 380 1;
#X msg 141 412 reopen \, dir;
#X connect 0 0 7 0;
#X connect 1 0 27 0;
#X connect 2 0 27 0;
#X connect 3 0 27 0;
#X connect 4 0 13 0;
#X connect 4 1 25 1;
#X connect 5 0 6 0;
#X connect 6 0 4 1;
#X connect 7 0 21 0;
#X connect 8 0 12 0;
#X connect 9 0 8 0;
#X connect 9 1 28 0;
#X connect 10 0 11 0;
#X connect 11 0 19 0;
#X connect 12 0 19 0;
#X connect 13 0 29 0;
#X connect 13 1 9 0;
#X connect 14 0 24 0;
#X connect 15 0 16 0;
#X connect 17 0 15 0;
#X connect 18 1 17 0;
#X connect 19 0 25 0;
#X connect 19 3 10 0;
#X connect 21 0 4 0;
#X connect 21 1 5 0;
#X connect 21 2 1 0;
#X connect 21 2 30 0;
#X connect 22 0 26 0;
#X connect 22 1 23 0;
#X connect 23 0 20 0;
#X connect 23 0 16 0;
#X connect 23 1 32 0;
#X connect 24 0 22 0;
#X connect 24 1 0 0;
#X connect 25 0 31 0;
#X connect 27 0 3 0;
#X connect 27 0 8 1;
#X connect 28 0 2 0;
#X connect 29 0 19 0;
#X connect 30 0 22 1;
#X connect 31 0 22 1;
#X connect 32 0 18 0;
#X restore 363 355 pd search-parent;
#X obj 255 603 router;
#X obj 98 305 t s b;
#X obj 259 256 t b a b;
#N canvas 767 199 596 738 search-else 0;
#X obj 104 622 print;
#X msg 104 597 error: [play.file~] can't load \$1;
#X obj 156 73 separate /;
#X msg 415 147 set %s/;
#X obj 425 203 symbol;
#X msg 442 256 set \$1%s/;
#X obj 248 193 list split;
#X obj 305 147 list length;
#X obj 305 170 - 1;
#X obj 156 98 list;
#X obj 358 224 symbol;
#X obj 358 198 t b l;
#X obj 385 340 sel 1;
#X msg 385 362 dump \, reset;
#X obj 282 228 route bang;
#X msg 282 249 dump;
#X obj 103 40 inlet;
#X msg 224 503 set \$1;
#X obj 224 530 s \$0-makefilename;
#X obj 224 479 makefilename %s/%%s;
#X obj 166 555 s \$0-file-found;
#X obj 156 123 trigger list list bang;
#X obj 103 403 router;
#X obj 166 457 t s b;
#X obj 103 116 t s s;
#X obj 206 377 sel s;
#X obj 358 314 dir, f 9;
#X obj 215 456 dir;
#X obj 415 229 makefilename;
#N canvas 68 23 450 300 iterate 0;
#X obj 122 118 until;
#X obj 135 201 list store;
#X obj 156 85 t b b l;
#X obj 122 143 f;
#X obj 160 144 + 1;
#X msg 179 118 0, f 2;
#X msg 122 174 get \$1 1;
#X obj 156 47 inlet;
#X obj 135 243 outlet;
#X connect 0 0 3 0;
#X connect 1 0 8 0;
#X connect 1 1 0 1;
#X connect 2 0 0 0;
#X connect 2 1 5 0;
#X connect 2 2 1 1;
#X connect 3 0 4 0;
#X connect 3 0 6 0;
#X connect 4 0 3 1;
#X connect 5 0 3 1;
#X connect 6 0 1 0;
#X connect 7 0 2 0;
#X restore 425 179 pd iterate;
#X msg 358 290 reopen \, open \$1;
#X msg 166 378 0;
#X msg 206 403 1;
#X msg 215 432 reopen \, dir;
#X connect 1 0 0 0;
#X connect 2 0 9 0;
#X connect 3 0 28 0;
#X connect 4 0 28 0;
#X connect 5 0 28 0;
#X connect 6 0 14 0;
#X connect 6 1 25 1;
#X connect 7 0 8 0;
#X connect 8 0 6 1;
#X connect 9 0 21 0;
#X connect 10 0 30 0;
#X connect 11 0 10 0;
#X connect 11 1 29 0;
#X connect 12 0 13 0;
#X connect 13 0 26 0;
#X connect 14 0 15 0;
#X connect 14 1 11 0;
#X connect 15 0 26 0;
#X connect 16 0 24 0;
#X connect 17 0 18 0;
#X connect 19 0 17 0;
#X connect 21 0 6 0;
#X connect 21 1 7 0;
#X connect 21 2 3 0;
#X connect 21 2 31 0;
#X connect 22 0 1 0;
#X connect 22 1 23 0;
#X connect 23 0 20 0;
#X connect 23 0 18 0;
#X connect 23 1 33 0;
#X connect 24 0 22 0;
#X connect 24 1 2 0;
#X connect 25 0 32 0;
#X connect 26 0 25 0;
#X connect 26 3 12 0;
#X connect 27 1 19 0;
#X connect 28 0 5 0;
#X connect 28 0 10 1;
#X connect 29 0 4 0;
#X connect 30 0 26 0;
#X connect 31 0 22 1;
#X connect 32 0 22 1;
#X connect 33 0 27 0;
#X restore 363 380 pd search-else;
#X msg 318 551 -1;
#X msg 350 551 0;
#X msg 384 551 1;
#X connect 0 0 22 0;
#X connect 1 1 21 0;
#X connect 2 0 0 0;
#X connect 2 1 23 0;
#X connect 3 0 1 0;
#X connect 4 0 3 0;
#X connect 5 0 0 0;
#X connect 6 0 8 0;
#X connect 7 0 2 0;
#X connect 9 0 10 0;
#X connect 10 0 6 0;
#X connect 11 0 3 1;
#X connect 11 0 27 0;
#X connect 12 0 13 1;
#X connect 12 0 1 1;
#X connect 13 1 2 0;
#X connect 14 0 15 0;
#X connect 15 0 13 0;
#X connect 15 1 12 0;
#X connect 16 0 14 0;
#X connect 17 0 19 0;
#X connect 18 0 14 1;
#X connect 19 0 20 0;
#X connect 20 0 24 0;
#X connect 21 0 6 0;
#X connect 21 1 10 0;
#X connect 22 0 3 0;
#X connect 22 1 26 0;
#X connect 23 0 3 0;
#X connect 23 1 19 0;
#X connect 23 2 25 0;
#X connect 25 0 21 1;
#X connect 26 0 21 1;
#X connect 27 0 21 1;
#X restore 43 144 pd open;
#X obj 43 57 route open loop stop start bang float set;
#N canvas 168 229 593 557 init 0;
#X obj 347 259 s pd-\$0-readsf;
#X obj 211 111 v n_ch_\$0;
#X obj 211 201 * 60;
#X obj 211 230 + 20;
#X obj 347 176 v n_ch_\$0;
#X obj 287 232 f \$0;
#X text 182 26 Dynamic Patching;
#X msg 347 204 obj 20 100 readsf~ \$1 \, connect 0 0 4 0 \, connect
4 \$1 2 0, f 22;
#N canvas 321 169 605 784 get_n_ch 0;
#X obj 104 35 inlet;
#X obj 272 262 v n_ch_\$0;
#X msg 172 231 1;
#X msg 272 135 \$1;
#X msg 383 191 1;
#X obj 383 223 v sym_\$0;
#X obj 272 188 int;
#X obj 272 220 clip 1 64;
#X obj 356 162 t a b;
#X obj 356 253 symbol;
#X text 419 191 1st arg is symbol;
#X obj 104 140 route bang -loop;
#X obj 158 190 s \$0-spigot;
#X obj 272 162 route float;
#X obj 273 106 s \$0-arg-list;
#X msg 158 163 1;
#X obj 88 223 v n_ch_\$0;
#X obj 116 253 sel 0;
#X msg 116 279 1;
#X obj 88 201 b;
#X obj 267 674 soundfiler;
#X obj 267 608 pack s s;
#X msg 267 643 read \$1 \$2;
#X msg 324 698 \$3;
#X obj 370 635 table \$0-dummy 1;
#X obj 312 576 symbol \$0-dummy;
#X obj 130 450 r \$0-makefilename;
#X obj 202 574 makefilename;
#X obj 202 534 symbol;
#X obj 202 478 r \$0-loadit;
#X obj 373 287 r \$0-set-symbol_arg;
#X obj 137 617 s \$0-file-found;
#X obj 324 723 v n_ch_\$0;
#X obj 104 59 trigger bang bang, f 19;
#N canvas 872 151 516 648 search-else 0;
#X obj 57 588 outlet;
#X obj 55 27 inlet;
#X obj 119 542 s \$0-loadit;
#X obj 109 76 separate /;
#X msg 368 180 set %s/;
#X obj 378 236 symbol;
#X msg 395 289 set \$1%s/;
#X obj 201 226 list split;
#X obj 258 180 list length;
#X obj 258 203 - 1;
#X obj 109 101 list;
#X obj 311 257 symbol;
#X obj 311 231 t b l;
#X obj 338 333 sel 1;
#X msg 338 355 dump \, reset;
#X msg 311 283 open \$1;
#X obj 235 261 route bang;
#X msg 235 282 dump;
#X msg 177 486 set \$1;
#X obj 177 513 s \$0-makefilename;
#X obj 177 462 makefilename %s/%%s;
#X obj 109 126 trigger list list bang;
#X obj 56 386 router;
#X obj 56 99 t s s;
#X obj 159 360 sel s;
#X obj 311 307 dir;
#X obj 168 439 dir, f 10;
#X obj 119 440 t b b;
#X obj 368 262 makefilename;
#N canvas 68 23 450 300 iterate 0;
#X obj 122 118 until;
#X obj 135 201 list store;
#X obj 156 85 t b b l;
#X obj 122 143 f;
#X obj 160 144 + 1;
#X msg 179 118 0, f 2;
#X msg 122 174 get \$1 1;
#X obj 156 47 inlet;
#X obj 135 243 outlet;
#X connect 0 0 3 0;
#X connect 1 0 8 0;
#X connect 1 1 0 1;
#X connect 2 0 0 0;
#X connect 2 1 5 0;
#X connect 2 2 1 1;
#X connect 3 0 4 0;
#X connect 3 0 6 0;
#X connect 4 0 3 1;
#X connect 5 0 3 1;
#X connect 6 0 1 0;
#X connect 7 0 2 0;
#X restore 378 212 pd iterate;
#X msg 119 360 0;
#X msg 159 386 1;
#X msg 168 415 dir;
#X connect 1 0 23 0;
#X connect 3 0 10 0;
#X connect 4 0 28 0;
#X connect 5 0 28 0;
#X connect 6 0 28 0;
#X connect 7 0 16 0;
#X connect 7 1 24 1;
#X connect 8 0 9 0;
#X connect 9 0 7 1;
#X connect 10 0 21 0;
#X connect 11 0 15 0;
#X connect 12 0 11 0;
#X connect 12 1 29 0;
#X connect 13 0 14 0;
#X connect 14 0 25 0;
#X connect 15 0 25 0;
#X connect 16 0 17 0;
#X connect 16 1 12 0;
#X connect 17 0 25 0;
#X connect 18 0 19 0;
#X connect 20 0 18 0;
#X connect 21 0 7 0;
#X connect 21 1 8 0;
#X connect 21 2 4 0;
#X connect 21 2 30 0;
#X connect 22 0 0 0;
#X connect 22 1 27 0;
#X connect 23 0 22 0;
#X connect 23 1 3 0;
#X connect 24 0 31 0;
#X connect 25 0 24 0;
#X connect 25 3 13 0;
#X connect 26 1 20 0;
#X connect 27 0 2 0;
#X connect 27 1 32 0;
#X connect 28 0 6 0;
#X connect 28 0 11 1;
#X connect 29 0 5 0;
#X connect 30 0 22 1;
#X connect 31 0 22 1;
#X connect 32 0 26 0;
#X restore 356 443 pd search-else;
#N canvas 505 121 642 715 search-here 0;
#X obj 94 49 inlet;
#X obj 157 534 s \$0-loadit;
#X obj 147 118 separate /;
#X msg 406 222 set %s/;
#X obj 416 278 symbol;
#X msg 433 331 set \$1%s/;
#X obj 239 268 list split;
#X obj 296 222 list length;
#X obj 296 245 - 1;
#X obj 147 143 list;
#X obj 349 299 symbol;
#X obj 349 273 t b l;
#X obj 376 375 sel 1;
#X msg 376 397 dump \, reset;
#X msg 349 325 open \$1;
#X obj 277 303 route bang;
#X msg 277 324 dump;
#X msg 235 528 set \$1;
#X obj 235 555 s \$0-makefilename;
#X obj 235 504 makefilename %s/%%s;
#X obj 147 168 trigger list list bang;
#X obj 94 428 router;
#X obj 94 141 t s s;
#X obj 197 402 sel s;
#X obj 157 482 t b b;
#X obj 349 350 dir 1;
#X obj 226 481 dir 1;
#X obj 406 304 makefilename;
#X obj 95 640 print;
#X msg 95 615 error: [play.file~] can't load \$1;
#X msg 121 547 1;
#X obj 121 576 v n_ch_\$0;
#N canvas 68 23 450 300 iterate 0;
#X obj 122 118 until;
#X obj 135 201 list store;
#X obj 156 85 t b b l;
#X obj 122 143 f;
#X obj 160 144 + 1;
#X msg 179 118 0, f 2;
#X msg 122 174 get \$1 1;
#X obj 156 47 inlet;
#X obj 135 243 outlet;
#X connect 0 0 3 0;
#X connect 1 0 8 0;
#X connect 1 1 0 1;
#X connect 2 0 0 0;
#X connect 2 1 5 0;
#X connect 2 2 1 1;
#X connect 3 0 4 0;
#X connect 3 0 6 0;
#X connect 4 0 3 1;
#X connect 5 0 3 1;
#X connect 6 0 1 0;
#X connect 7 0 2 0;
#X restore 416 254 pd iterate;
#X msg 157 402 0;
#X msg 197 428 1;
#X msg 226 457 dir;
#X connect 0 0 22 0;
#X connect 2 0 9 0;
#X connect 3 0 27 0;
#X connect 4 0 27 0;
#X connect 5 0 27 0;
#X connect 6 0 15 0;
#X connect 6 1 23 1;
#X connect 7 0 8 0;
#X connect 8 0 6 1;
#X connect 9 0 20 0;
#X connect 10 0 14 0;
#X connect 11 0 10 0;
#X connect 11 1 32 0;
#X connect 12 0 13 0;
#X connect 13 0 25 0;
#X connect 14 0 25 0;
#X connect 15 0 16 0;
#X connect 15 1 11 0;
#X connect 16 0 25 0;
#X connect 17 0 18 0;
#X connect 19 0 17 0;
#X connect 20 0 6 0;
#X connect 20 1 7 0;
#X connect 20 2 3 0;
#X connect 20 2 33 0;
#X connect 21 0 29 0;
#X connect 21 0 30 0;
#X connect 21 1 24 0;
#X connect 22 0 21 0;
#X connect 22 1 2 0;
#X connect 23 0 34 0;
#X connect 24 0 1 0;
#X connect 24 1 35 0;
#X connect 25 0 23 0;
#X connect 25 3 12 0;
#X connect 26 1 19 0;
#X connect 27 0 5 0;
#X connect 27 0 10 1;
#X connect 29 0 28 0;
#X connect 30 0 31 0;
#X connect 32 0 4 0;
#X connect 33 0 21 1;
#X connect 34 0 21 1;
#X connect 35 0 26 0;
#X restore 356 468 pd search-here;
#N canvas 363 138 605 719 search-root 0;
#X obj 139 68 list fromsymbol;
#X obj 76 28 inlet;
#X obj 76 126 t s s;
#X obj 76 196 router;
#X obj 189 169 separate /;
#X obj 264 462 select s;
#X obj 458 339 symbol;
#X msg 445 392 set \$1%s/;
#X obj 281 299 list split;
#X obj 338 253 list length;
#X obj 338 276 - 1;
#X obj 189 194 list;
#X obj 361 360 symbol;
#X obj 361 334 t b l;
#X obj 388 439 sel 1;
#X msg 361 383 open \$1;
#X obj 189 219 trigger list list bang;
#X obj 139 430 router;
#X obj 361 414 dir;
#X msg 418 222 set /%s/;
#X msg 388 461 dump;
#X obj 139 225 t s s;
#X obj 76 669 outlet;
#X obj 310 536 s \$0-makefilename;
#X msg 310 511 set %s;
#X obj 139 92 expr $f1 == 47 \; $f2 == 58;
#X obj 139 153 ||;
#X obj 482 200 sel 1;
#X msg 482 222 set %s/;
#X obj 418 200 sel 1;
#X obj 418 365 makefilename;
#X obj 203 537 s \$0-loadit;
#X obj 203 511 t b b;
#X obj 186 593 print;
#X msg 186 568 error: [play.file~] can't load \$1;
#X msg 141 591 1;
#X obj 141 620 v n_ch_\$0;
#N canvas 68 23 450 300 iterate 0;
#X obj 122 118 until;
#X obj 135 201 list store;
#X obj 156 85 t b b l;
#X obj 122 143 f;
#X obj 160 144 + 1;
#X msg 179 118 0, f 2;
#X msg 122 174 get \$1 1;
#X obj 156 47 inlet;
#X obj 135 243 outlet;
#X connect 0 0 3 0;
#X connect 1 0 8 0;
#X connect 1 1 0 1;
#X connect 2 0 0 0;
#X connect 2 1 5 0;
#X connect 2 2 1 1;
#X connect 3 0 4 0;
#X connect 3 0 6 0;
#X connect 4 0 3 1;
#X connect 5 0 3 1;
#X connect 6 0 1 0;
#X connect 7 0 2 0;
#X restore 458 315 pd iterate;
#X msg 202 403 0;
#X msg 264 488 1;
#X connect 0 0 25 0;
#X connect 1 0 2 0;
#X connect 2 0 3 0;
#X connect 2 1 0 0;
#X connect 3 0 22 0;
#X connect 3 1 21 0;
#X connect 4 0 11 0;
#X connect 5 0 39 0;
#X connect 6 0 30 0;
#X connect 7 0 30 0;
#X connect 8 0 13 0;
#X connect 8 1 5 1;
#X connect 9 0 10 0;
#X connect 10 0 8 1;
#X connect 11 0 16 0;
#X connect 12 0 15 0;
#X connect 13 0 12 0;
#X connect 13 1 37 0;
#X connect 14 0 20 0;
#X connect 15 0 18 0;
#X connect 16 0 8 0;
#X connect 16 1 9 0;
#X connect 16 2 38 0;
#X connect 17 0 34 0;
#X connect 17 0 35 0;
#X connect 17 1 32 0;
#X connect 18 0 5 0;
#X connect 18 3 14 0;
#X connect 19 0 30 0;
#X connect 20 0 18 0;
#X connect 21 0 17 0;
#X connect 21 1 4 0;
#X connect 24 0 23 0;
#X connect 25 0 26 0;
#X connect 25 0 29 0;
#X connect 25 1 26 1;
#X connect 25 1 27 0;
#X connect 26 0 3 1;
#X connect 27 0 28 0;
#X connect 28 0 30 0;
#X connect 29 0 19 0;
#X connect 30 0 7 0;
#X connect 30 0 12 1;
#X connect 32 0 31 0;
#X connect 32 1 24 0;
#X connect 34 0 33 0;
#X connect 35 0 36 0;
#X connect 37 0 6 0;
#X connect 38 0 17 1;
#X connect 39 0 17 1;
#X restore 356 417 pd search-root;
#X obj 356 325 t s s;
#X obj 104 112 break -;
#X obj 104 85 args;
#X connect 0 0 33 0;
#X connect 2 0 1 0;
#X connect 3 0 13 0;
#X connect 4 0 5 0;
#X connect 6 0 7 0;
#X connect 7 0 1 0;
#X connect 8 0 9 0;
#X connect 8 1 4 0;
#X connect 9 0 37 0;
#X connect 11 0 2 0;
#X connect 11 1 15 0;
#X connect 11 1 19 0;
#X connect 11 2 14 0;
#X connect 11 2 3 0;
#X connect 13 0 6 0;
#X connect 13 1 8 0;
#X connect 15 0 12 0;
#X connect 16 0 17 0;
#X connect 17 0 18 0;
#X connect 18 0 16 0;
#X connect 19 0 16 0;
#X connect 20 1 23 0;
#X connect 21 0 22 0;
#X connect 22 0 20 0;
#X connect 23 0 32 0;
#X connect 25 0 21 1;
#X connect 26 0 27 0;
#X connect 27 0 21 0;
#X connect 28 0 27 0;
#X connect 28 0 31 0;
#X connect 29 0 28 0;
#X connect 30 0 37 0;
#X connect 33 0 39 0;
#X connect 33 1 25 0;
#X connect 34 0 35 0;
#X connect 36 0 34 0;
#X connect 37 0 36 0;
#X connect 37 1 28 1;
#X connect 38 0 11 0;
#X connect 39 0 38 0;
#X restore 425 170 pd get_n_ch;
#N canvas 596 528 315 238 load 0;
#X obj 85 76 v sym_\$0;
#X obj 85 49 inlet;
#N canvas 129 448 425 422 1st_is_not_filename 0;
#X obj 87 31 inlet;
#X obj 108 63 r \$0-arg-list;
#X obj 87 86 list;
#X obj 154 289 s \$0-spigot;
#X text 249 349 3nd is autostart;
#X text 229 288 4th is loop;
#X obj 121 263 unpack;
#X obj 121 316 sel 1;
#X obj 114 133 list split 1;
#X obj 87 110 t a a;
#X obj 87 236 list split 2;
#X msg 205 184 \$1;
#X obj 148 161 route bang;
#X obj 66 61 bng 15 250 50 0 empty empty empty 17 7 0 10 -262144 -1
-1;
#X obj 205 230 symbol;
#X text 239 184 2nd is filename;
#X obj 205 254 s \$0-set-symbol_arg;
#X obj 121 344 s \$0-to_symbolarg;
#X obj 205 207 routetype anything;
#X connect 0 0 2 0;
#X connect 1 0 2 1;
#X connect 2 0 9 0;
#X connect 6 0 7 0;
#X connect 6 1 3 0;
#X connect 7 0 17 0;
#X connect 8 1 12 0;
#X connect 9 0 10 0;
#X connect 9 1 8 0;
#X connect 10 1 6 0;
#X connect 11 0 18 0;
#X connect 12 1 11 0;
#X connect 13 0 2 0;
#X connect 14 0 16 0;
#X connect 18 0 14 0;
#X restore 85 175 pd 1st_is_not_filename;
#N canvas 678 327 358 270 1st_is_filename 0;
#X obj 64 35 inlet;
#X obj 98 170 sel 1;
#X text 213 203 2nd is autostart;
#X text 223 172 3nd is loop;
#X obj 103 78 r \$0-arg-list;
#X obj 64 78 list;
#X obj 147 173 s \$0-spigot;
#X obj 64 108 list split 1;
#X obj 98 137 unpack;
#X obj 98 202 s \$0-to_symbolarg;
#X connect 0 0 5 0;
#X connect 1 0 9 0;
#X connect 4 0 5 1;
#X connect 5 0 7 0;
#X connect 7 1 8 0;
#X connect 8 0 1 0;
#X connect 8 1 6 0;
#X restore 104 140 pd 1st_is_filename;
#X obj 85 109 sel 0 1;
#X connect 0 0 4 0;
#X connect 1 0 0 0;
#X connect 4 0 2 0;
#X connect 4 1 3 0;
#X restore 33 351 pd load \; args;
#X obj 144 414 * 60;
#X obj 144 439 + 20;
#X obj 97 350 v n_ch_\$0;
#X obj 211 175 t f f, f 7;
#X obj 97 439 f \$0;
#X obj 97 379 trigger bang float, f 32;
#X obj 262 232 + 3;
#X obj 227 258 pack f f f f f;
#X obj 318 232 + 5;
#X msg 227 290 \; pd-\$4-readsf obj \$1 200 outlet~ \, connect 4 \$2
\$5 0 \; \$4-sampler obj \$1 200 outlet~ \, connect 2 \$2 \$3 0;
#X obj 136 315 bng 15 250 50 0 empty empty empty 17 7 0 10 -262144
-1 -1;
#X obj 191 439 + 4;
#X obj 239 439 + 3;
#X obj 97 463 pack float float float float float float;
#X msg 97 492 \; pd-\$1-readsf obj \$2 200 s \$1-didit \, connect 4
\$5 \$6 0 \; \$1-sampler obj \$2 200 r \$1-didit \, obj \$2 240 outlet
\, connect \$4 0 \$3 0, f 55;
#X obj 334 439 + 5;
#X obj 168 54 loadbanger -init 5;
#X obj 211 144 loop;
#X connect 1 0 27 0;
#X connect 2 0 3 0;
#X connect 3 0 17 0;
#X connect 4 0 7 0;
#X connect 5 0 17 3;
#X connect 7 0 0 0;
#X connect 10 0 11 0;
#X connect 11 0 23 1;
#X connect 12 0 15 0;
#X connect 13 0 2 0;
#X connect 13 1 16 0;
#X connect 13 1 17 1;
#X connect 13 1 18 0;
#X connect 14 0 23 0;
#X connect 15 0 14 0;
#X connect 15 1 10 0;
#X connect 15 1 21 0;
#X connect 15 1 22 0;
#X connect 15 1 23 4;
#X connect 15 1 25 0;
#X connect 16 0 17 2;
#X connect 17 0 19 0;
#X connect 18 0 17 4;
#X connect 20 0 12 0;
#X connect 21 0 23 2;
#X connect 22 0 23 3;
#X connect 23 0 24 0;
#X connect 25 0 23 5;
#X connect 26 0 9 0;
#X connect 26 1 12 0;
#X connect 26 2 1 0;
#X connect 26 3 4 0;
#X connect 26 3 5 0;
#X connect 26 4 8 0;
#X connect 27 0 13 0;
#X restore 382 174 pd init;
#X text 375 241 Part of ELSE \; https://github.com/porres/pd-else;
#X text 377 222 Alexandre Torres Porres (2018-2020);
#X obj 372 116 canvas.setname \$0-sampler 1;
#X obj 402 85 declare -path else;
#X connect 0 0 3 0;
#X connect 1 0 8 0;
#X connect 2 0 4 0;
#X connect 5 0 10 0;
#X connect 6 0 7 0;
#X connect 7 0 1 0;
#X connect 7 1 0 0;
#X connect 9 0 3 0;
#X connect 10 0 9 0;
#X connect 10 1 2 0;
#X connect 10 2 0 0;
#X connect 10 3 1 0;
#X connect 10 4 1 0;
#X connect 10 5 6 0;
#X connect 10 6 9 1;
#X restore 76 59 pd guts;
#N canvas 805 245 897 372 \$0-readsf 0;
#X obj 20 21 r \$0-readsf~;
#X obj 384 56 r \$0-spigot;
#X obj 351 78 spigot;
#X obj 351 105 s \$0-to_symbol;
#X connect 1 0 2 1;
#X connect 2 0 3 0;
#X restore 74 122 pd \$0-readsf;
#X connect 0 0 1 0;
