#N canvas 898 109 603 361 12;
#X declare -path else;
#X obj 86 44 inlet;
#X obj 139 44 inlet;
#X obj 86 306 outlet;
#X obj 86 273 tabread \$0-list;
#X obj 139 178 buffer \$0-list;
#X obj 236 247 table \$0-list 1;
#X obj 86 242 random 1;
#X obj 139 209 list length;
#X obj 189 105 args;
#X obj 189 79 loadbang;
#X obj 189 132 route bang;
#X text 310 179 Part of ELSE \; https://github.com/porres/pd-else;
#X text 312 160 Alexandre Torres Porres (2021);
#X obj 86 94 route bang set, f 5;
#X obj 353 113 declare -path else;
#X connect 0 0 13 0;
#X connect 1 0 4 0;
#X connect 3 0 2 0;
#X connect 4 0 7 0;
#X connect 6 0 3 0;
#X connect 7 0 6 1;
#X connect 8 0 10 0;
#X connect 9 0 8 0;
#X connect 10 1 4 0;
#X connect 13 0 6 0;
#X connect 13 1 4 0;
