#N canvas 451 40 663 522 10;
#X declare -path else;
#N canvas 1034 37 353 220 guts 0;
#N canvas 1007 312 530 470 messages 0;
#X obj 29 64 inlet;
#X obj 304 371 s \$0-write;
#X obj 418 230 makefilename;
#X obj 437 204 r \$0-set-path;
#X obj 418 182 r \$0-filename;
#X obj 372 193 symbol;
#X obj 254 315 del 10;
#X msg 254 336 stop;
#X msg 220 321 0;
#X obj 188 354 s \$0-fade;
#X msg 188 321 1;
#X obj 188 244 sel 1 0;
#X msg 188 162 1;
#X msg 224 162 0;
#X obj 29 123 != 0;
#X obj 265 162 route bang;
#X obj 304 224 savepanel;
#X obj 353 157 click;
#X obj 304 315 pack2;
#X msg 331 278 set \$1;
#X msg 397 282 set \$1;
#X obj 412 257 sr~;
#X msg 304 342 open -rate \$1 \$2 \, start;
#X obj 29 87 route float fade;
#X msg 75 303 fade \$1;
#X obj 188 104 route start stop set rate maxtime;
#X obj 188 193 tgl 15 0 empty empty empty 17 7 0 10 -262144 -1 -1 0
1;
#X obj 188 220 change;
#N canvas 512 313 301 361 maxtime 0;
#X obj 81 65 v max_time_\$0;
#X obj 81 115 sel 1;
#X obj 108 210 del;
#X obj 81 31 inlet;
#X obj 108 283 outlet;
#X obj 108 236 v status_\$0;
#X obj 108 259 sel 1;
#X obj 81 93 > 0;
#X obj 81 140 expr max_time_\$0 - fade_\$0 \; fade_\$0;
#X obj 81 185 moses;
#X connect 0 0 7 0;
#X connect 1 0 8 0;
#X connect 2 0 5 0;
#X connect 3 0 0 0;
#X connect 5 0 6 0;
#X connect 6 0 4 0;
#X connect 7 0 1 0;
#X connect 8 0 9 0;
#X connect 8 1 9 1;
#X connect 9 1 2 0;
#X restore 121 268 pd maxtime;
#X obj 351 128 v max_time_\$0;
#X obj 210 198 v status_\$0;
#X obj 75 272 max 0;
#X obj 269 253 r \$0-set-fade;
#X obj 254 373 t b a;
#X obj 254 418 s \$0-done;
#X connect 0 0 23 0;
#X connect 2 0 19 0;
#X connect 3 0 2 0;
#X connect 4 0 2 0;
#X connect 5 0 2 0;
#X connect 6 0 7 0;
#X connect 7 0 33 0;
#X connect 8 0 9 0;
#X connect 10 0 9 0;
#X connect 11 0 10 0;
#X connect 11 0 18 0;
#X connect 11 0 28 0;
#X connect 11 1 8 0;
#X connect 11 1 6 0;
#X connect 12 0 26 0;
#X connect 13 0 26 0;
#X connect 14 0 26 0;
#X connect 15 0 16 0;
#X connect 15 1 5 0;
#X connect 16 0 19 0;
#X connect 17 0 16 0;
#X connect 18 0 22 0;
#X connect 19 0 18 1;
#X connect 20 0 18 0;
#X connect 21 0 20 0;
#X connect 22 0 1 0;
#X connect 23 0 14 0;
#X connect 23 1 31 0;
#X connect 23 2 25 0;
#X connect 24 0 9 0;
#X connect 25 0 12 0;
#X connect 25 1 13 0;
#X connect 25 2 15 0;
#X connect 25 3 20 0;
#X connect 25 4 29 0;
#X connect 26 0 27 0;
#X connect 26 0 30 0;
#X connect 27 0 11 0;
#X connect 28 0 26 0;
#X connect 31 0 24 0;
#X connect 31 0 6 1;
#X connect 32 0 6 1;
#X connect 33 0 34 0;
#X connect 33 1 1 0;
#X restore 65 89 pd messages;
#X obj 65 54 inlet;
#N canvas 761 348 784 489 dynamic-patching 0;
#X obj 200 180 loop;
#X obj 200 258 + 20;
#X obj 200 203 t f f, f 6;
#X obj 211 391 s \$0-sampler;
#X obj 200 229 * 15;
#X obj 211 286 pack f f f f, f 15;
#N canvas 626 174 571 495 load_args 0;
#X obj 75 37 inlet;
#X obj 311 192 s \$0-filename;
#X msg 414 206 set \$1;
#X obj 414 182 makefilename %s/%%s;
#X obj 311 127 t s b;
#X obj 414 233 s \$0-set-path;
#X obj 75 141 args;
#X obj 75 195 break -;
#X obj 249 191 v ch_\$0;
#X msg 249 164 1;
#X obj 75 169 trigger abything bang;
#X obj 160 360 v ch_\$0;
#X obj 160 337 clip 1 64;
#X obj 75 224 route bang symbol float list -fade -maxtime;
#X obj 117 385 s \$0-filename;
#X obj 213 312 v fade_\$0;
#X msg 311 93 symbol file.wav;
#X msg 213 194 10;
#X obj 287 265 v max_time_\$0;
#X obj 287 245 max 0;
#X obj 245 291 s \$0-set-fade;
#X obj 134 273 list split 1;
#X obj 85 303 route float;
#X obj 245 262 max 0;
#X obj 414 154 pdcontrol;
#X msg 414 128 dir 1;
#X connect 0 0 6 0;
#X connect 2 0 5 0;
#X connect 3 0 2 0;
#X connect 4 0 1 0;
#X connect 4 1 25 0;
#X connect 6 0 10 0;
#X connect 7 0 13 0;
#X connect 9 0 8 0;
#X connect 10 0 7 0;
#X connect 10 1 9 0;
#X connect 10 1 16 0;
#X connect 10 1 17 0;
#X connect 12 0 11 0;
#X connect 13 1 14 0;
#X connect 13 2 12 0;
#X connect 13 3 21 0;
#X connect 13 4 23 0;
#X connect 13 5 19 0;
#X connect 16 0 4 0;
#X connect 17 0 15 0;
#X connect 19 0 18 0;
#X connect 21 0 22 0;
#X connect 21 1 12 0;
#X connect 22 1 14 0;
#X connect 23 0 20 0;
#X connect 23 0 15 0;
#X connect 24 0 3 0;
#X connect 25 0 24 0;
#X restore 268 87 pd load_args;
#X obj 200 87 v ch_\$0;
#X obj 133 57 loadbanger -init 3;
#X obj 129 384 s \$0-fade;
#X msg 129 356 fade \$1;
#X obj 102 292 v fade_\$0;
#X obj 102 327 moses;
#X msg 211 311 obj \$1 50 inlet~ \, connect \$4 0 8 \$3 \, connect
8 \$2 9 \$2, f 18;
#X obj 200 112 trigger float float;
#X obj 269 256 + 1;
#X obj 298 250 + 11;
#X msg 354 312 obj 150 225 autofade~ 10 \$1 \, obj 150 280 writesf~
\$1 \, connect 2 0 8 0 \, connect 3 0 9 0 \, obj 5 50 inlet \, connect
10 0 0 0, f 46;
#X connect 0 0 2 0;
#X connect 1 0 5 0;
#X connect 2 0 4 0;
#X connect 2 1 15 0;
#X connect 2 1 5 1;
#X connect 2 1 16 0;
#X connect 4 0 1 0;
#X connect 5 0 13 0;
#X connect 7 0 14 0;
#X connect 8 0 11 0;
#X connect 8 1 7 0;
#X connect 8 2 6 0;
#X connect 10 0 9 0;
#X connect 11 0 12 0;
#X connect 12 1 10 0;
#X connect 13 0 3 0;
#X connect 14 0 0 0;
#X connect 14 1 17 0;
#X connect 15 0 5 2;
#X connect 16 0 5 3;
#X connect 17 0 3 0;
#X restore 178 90 pd dynamic-patching;
#X obj 197 124 declare -path else;
#X connect 1 0 0 0;
#X restore 363 118 pd guts;
#X obj 364 140 namecanvas \$0-sampler;
#X obj 77 181 r \$0-fade;
#X obj 74 248 r \$0-write;
#X obj 364 368 outlet;
#X text 76 410 Alexandre Torres Porres (2018);
#X text 74 429 Part of ELSE \; https://github.com/porres/pd-else;
#X obj 364 322 r \$0-done;
#X connect 7 0 4 0;
