#N canvas 233 79 779 518 12;
#X declare -path else;
#X obj 77 25 inlet;
#X obj 77 462 outlet;
#X obj 151 25 inlet;
#X obj 77 148 else/router;
#X obj 151 413 list store, f 17;
#X obj 151 202 t b a, f 11;
#X obj 151 297 else/wrap2;
#X obj 254 204 list length;
#X obj 151 268 clip 0 0;
#X obj 189 236 * -1;
#X obj 151 118 != 0;
#X obj 151 237 f;
#X obj 151 89 t f f, f 7;
#X obj 175 62 else/initmess \$1;
#X obj 254 240 - 1;
#X obj 151 325 else/merge;
#X obj 388 248 else/initmess \$2;
#X obj 345 25 inlet;
#X obj 345 300 else/pick 1;
#X msg 151 355 delete \$1 \, insert \$1 \$2 \, bang, f 13;
#X obj 197 125 moses 1;
#X obj 235 157 - 1;
#X text 419 160 Part of ELSE \; https://github.com/porres/pd-else;
#X text 419 141 Alexandre Torres Porres (2022), f 33;
#X obj 423 95 declare -path else;
#X connect 0 0 3 0;
#X connect 2 0 12 0;
#X connect 3 0 1 0;
#X connect 3 1 5 0;
#X connect 4 0 1 0;
#X connect 5 0 11 0;
#X connect 5 1 7 0;
#X connect 5 1 4 1;
#X connect 6 0 15 0;
#X connect 7 0 6 2;
#X connect 7 0 9 0;
#X connect 7 0 14 0;
#X connect 8 0 6 0;
#X connect 9 0 8 1;
#X connect 10 0 3 1;
#X connect 11 0 8 0;
#X connect 12 0 10 0;
#X connect 12 1 20 0;
#X connect 13 0 12 0;
#X connect 14 0 8 2;
#X connect 15 0 19 0;
#X connect 16 0 18 0;
#X connect 17 0 18 0;
#X connect 18 0 15 1;
#X connect 19 0 4 0;
#X connect 20 0 11 1;
#X connect 20 1 21 0;
#X connect 21 0 11 1;
