#N canvas 581 87 577 412 12;
#X declare -path else;
#X obj 128 193 * 2;
#X msg 128 256 size \$1;
#X obj 199 186 /;
#X msg 199 157 1000 \$1;
#X obj 199 77 loadbang;
#X obj 199 125 route float;
#X obj 61 35 inlet~ fwd;
#X obj 199 369 outlet~;
#X msg 77 193 clear;
#X obj 128 71 route resize clear, f 6;
#X obj 199 269 *~ 2000;
#X obj 199 215 phasor~ 1;
#X text 304 193 Part of ELSE \; https://github.com/porres/pd-else;
#X text 306 174 Alexandre Torres Porres (2020);
#X obj 199 101 else/args;
#X obj 361 99 declare -path else;
#X obj 61 310 else/del~ in \$0-rev 2000, f 12;
#X obj 199 319 else/del~ out \$0-rev;
#X connect 0 0 1 0;
#X connect 0 0 10 1;
#X connect 1 0 16 0;
#X connect 2 0 11 0;
#X connect 3 0 2 0;
#X connect 4 0 14 0;
#X connect 5 0 3 0;
#X connect 5 0 0 0;
#X connect 6 0 16 0;
#X connect 6 1 9 0;
#X connect 8 0 16 0;
#X connect 9 0 0 0;
#X connect 9 0 3 0;
#X connect 9 1 8 0;
#X connect 10 0 17 0;
#X connect 11 0 10 0;
#X connect 14 0 5 0;
#X connect 17 0 7 0;
