#N canvas 760 140 513 358 10;
#X declare -path else;
#X obj 89 31 inlet;
#N canvas 1172 118 479 442 \$0-buffers 0;
#X obj 6 20 cnv 15 448 80 empty empty empty 3 10 2 14 -233017 -66577
0;
#N canvas 0 22 450 300 ch0_1003 0;
#X array sample_1003 44100 float 2;
#X coords 0 1 44100 -1 450 82 2 0 0;
#X restore 5 19 pd ch0_1003;
#X coords 0 0 0 0 10 20 0;
#X restore 247 161 pd \$0-buffers;
#X obj 89 99 soundfiler;
#N canvas 819 282 661 392 route 0;
#N canvas 386 286 457 330 clear 0;
#X obj 301 150 r \$0-name;
#X obj 202 177 pack float symbol;
#X msg 202 201 \; \$1-\$2 const 0;
#X obj 88 25 inlet;
#X obj 88 94 v ch_\$0;
#X obj 88 58 t b f;
#X obj 88 117 sel 1;
#X obj 121 168 r \$0-name;
#X obj 88 218 pack s f;
#X obj 88 189 symbol;
#X msg 88 246 \; \$1 const 0;
#X obj 202 146 loop;
#X connect 0 0 1 1;
#X connect 1 0 2 0;
#X connect 3 0 5 0;
#X connect 4 0 6 0;
#X connect 5 0 4 0;
#X connect 5 1 8 1;
#X connect 6 0 9 0;
#X connect 6 1 11 0;
#X connect 7 0 9 1;
#X connect 8 0 10 0;
#X connect 9 0 8 0;
#X connect 11 0 1 0;
#X restore 68 190 pd clear;
#N canvas 0 23 450 300 vis 0;
#X msg 177 164 vis \$1;
#X msg 153 126 1;
#X msg 209 137 0;
#X obj 176 199 send pd-\$0-buffers;
#X obj 146 44 inlet;
#X obj 221 48 inlet;
#X obj 235 84 click;
#X connect 0 0 3 0;
#X connect 1 0 0 0;
#X connect 2 0 0 0;
#X connect 4 0 1 0;
#X connect 5 0 2 0;
#X connect 6 0 1 0;
#X restore 151 137 pd vis;
#N canvas 445 200 501 448 norm 0;
#X obj 107 172 v ch_\$0;
#X obj 356 224 r \$0-name;
#X obj 61 53 inlet;
#X obj 107 144 trigger bang float;
#X obj 221 250 pack float float symbol;
#X msg 221 274 \; \$1-\$3 normalize \$2;
#X obj 107 196 sel 1;
#X obj 140 254 r \$0-name;
#X obj 107 280 symbol;
#X obj 107 317 pack s f;
#X msg 108 345 \; \$1 normalize \$2;
#X obj 134 220 loop 1 0;
#X obj 61 78 route bang float;
#X msg 61 103 1;
#X connect 0 0 6 0;
#X connect 1 0 4 2;
#X connect 2 0 12 0;
#X connect 3 0 0 0;
#X connect 3 1 4 1;
#X connect 3 1 9 1;
#X connect 4 0 5 0;
#X connect 6 0 8 0;
#X connect 6 1 11 0;
#X connect 7 0 8 1;
#X connect 8 0 9 0;
#X connect 9 0 10 0;
#X connect 11 0 4 0;
#X connect 12 0 13 0;
#X connect 12 1 3 0;
#X connect 13 0 3 0;
#X restore 345 214 pd norm;
#N canvas 333 211 475 393 load 0;
#X obj 106 162 symbol;
#X obj 106 260 outlet;
#X obj 106 40 inlet;
#X obj 319 328 outlet;
#X obj 106 77 route load reload, f 36;
#N canvas 901 337 346 454 set-extension 0;
#X obj 73 39 inlet;
#X obj 73 65 separate .;
#X obj 73 95 list;
#X obj 73 150 list length;
#X obj 73 120 t l l;
#X obj 73 228 list;
#X obj 73 177 - 1;
#X obj 84 258 list split;
#X obj 73 202 t b f;
#X obj 112 313 route wav aiff aif;
#X msg 112 287 \$1;
#X obj 182 346 s \$0-aiff;
#X obj 113 348 s \$0-wave;
#X connect 0 0 1 0;
#X connect 1 0 2 0;
#X connect 2 0 4 0;
#X connect 3 0 6 0;
#X connect 4 0 3 0;
#X connect 4 1 5 1;
#X connect 5 0 7 0;
#X connect 6 0 8 0;
#X connect 7 1 10 0;
#X connect 8 0 5 0;
#X connect 8 1 7 1;
#X connect 9 0 12 0;
#X connect 9 1 11 0;
#X connect 9 2 11 0;
#X connect 10 0 9 0;
#X restore 128 202 pd set-extension;
#N canvas 1179 404 431 464 load 0;
#X obj 82 63 inlet;
#X obj 201 354 outlet;
#X obj 82 118 route bang symbol list;
#N canvas 221 47 476 368 sym 0;
#X obj 123 153 t s b;
#X obj 150 208 s \$0-resize;
#X msg 150 181 1;
#X obj 123 122 inlet;
#X msg 186 159 -skip 0;
#X obj 123 238 outlet;
#X obj 186 184 s \$0-skip;
#X connect 0 0 5 0;
#X connect 0 1 2 0;
#X connect 0 1 4 0;
#X connect 2 0 1 0;
#X connect 3 0 0 0;
#X connect 4 0 6 0;
#X restore 125 179 pd sym;
#N canvas 1019 345 364 448 list 0;
#X obj 146 134 s \$0-resize;
#X obj 59 55 inlet;
#X msg 146 107 0;
#X obj 59 140 list length;
#X obj 153 227 unpack s f f;
#X obj 59 167 sel 2 3;
#X obj 153 206 list;
#X obj 59 206 list;
#X obj 203 273 -;
#X obj 203 295 s \$0-set-size;
#X msg 59 245 list \$1 0 \$2;
#X obj 187 353 s \$0-skip;
#X msg 187 330 -skip \$1;
#X obj 154 388 outlet;
#X obj 59 111 t a a b;
#X obj 201 251 swap;
#X connect 1 0 14 0;
#X connect 2 0 0 0;
#X connect 3 0 5 0;
#X connect 4 0 13 0;
#X connect 4 1 12 0;
#X connect 4 1 15 0;
#X connect 4 2 15 1;
#X connect 5 0 7 0;
#X connect 5 1 6 0;
#X connect 6 0 4 0;
#X connect 7 0 10 0;
#X connect 8 0 9 0;
#X connect 10 0 4 0;
#X connect 12 0 11 0;
#X connect 14 0 3 0;
#X connect 14 1 6 1;
#X connect 14 1 7 1;
#X connect 14 2 2 0;
#X connect 15 0 8 0;
#X connect 15 1 8 1;
#X restore 168 149 pd list;
#X obj 215 263 r \$0-file;
#N canvas 144 78 310 270 openpanel 0;
#X obj 78 36 inlet;
#X obj 77 114 openpanel;
#X obj 76 183 outlet;
#X obj 153 138 s \$0-resize;
#X msg 153 111 1;
#X msg 189 89 -skip 0;
#X obj 77 84 t b b;
#X obj 189 114 s \$0-skip;
#X connect 0 0 6 0;
#X connect 1 0 2 0;
#X connect 4 0 3 0;
#X connect 5 0 7 0;
#X connect 6 0 1 0;
#X connect 6 1 4 0;
#X connect 6 1 5 0;
#X restore 82 221 pd openpanel;
#X obj 82 88 list;
#X obj 201 311 makefilename;
#X obj 227 288 r \$0-makefilename;
#N canvas 584 23 522 664 search-here 0;
#X obj 307 43 separate /;
#X obj 271 394 select s;
#X obj 136 304 makefilename %s/;
#X msg 198 279 set %s/;
#X obj 136 278 symbol;
#X msg 170 334 set \$1%s/;
#X obj 368 176 list split;
#X obj 425 132 list length;
#X obj 425 153 - 1;
#X obj 307 64 list;
#X obj 307 88 t l l b;
#X obj 72 287 symbol;
#X obj 72 262 t b l;
#X obj 90 372 sel 1;
#X msg 90 397 dump \, reset;
#X msg 72 313 open \$1;
#X obj 15 234 route bang;
#X msg 271 419 1;
#X obj 254 26 inlet;
#X obj 256 447 f;
#X msg 350 408 0;
#X obj 256 472 sel 0 1;
#X msg 316 576 set \$1;
#X obj 316 610 s \$0-makefilename;
#X obj 316 547 makefilename %s/%%s;
#X obj 297 526 dir 1;
#X obj 72 341 dir 1;
#X msg 255 561 set %s;
#X obj 254 76 t b s;
#X msg 15 282 reopen \, dump, f 7;
#X obj 136 254 iterate;
#X msg 297 500 reopen \, dir;
#X connect 0 0 9 0;
#X connect 1 0 17 0;
#X connect 2 0 5 0;
#X connect 2 0 11 1;
#X connect 3 0 2 0;
#X connect 4 0 2 0;
#X connect 5 0 2 0;
#X connect 6 0 16 0;
#X connect 6 1 1 1;
#X connect 7 0 8 0;
#X connect 8 0 6 1;
#X connect 9 0 10 0;
#X connect 10 0 6 0;
#X connect 10 1 7 0;
#X connect 10 2 3 0;
#X connect 10 2 20 0;
#X connect 11 0 15 0;
#X connect 12 0 11 0;
#X connect 12 1 30 0;
#X connect 13 0 14 0;
#X connect 14 0 26 0;
#X connect 15 0 26 0;
#X connect 16 0 29 0;
#X connect 16 1 12 0;
#X connect 17 0 19 1;
#X connect 18 0 28 0;
#X connect 19 0 21 0;
#X connect 20 0 19 1;
#X connect 21 0 27 0;
#X connect 21 1 31 0;
#X connect 22 0 23 0;
#X connect 24 0 22 0;
#X connect 25 1 24 0;
#X connect 26 0 1 0;
#X connect 26 2 13 0;
#X connect 27 0 23 0;
#X connect 28 0 19 0;
#X connect 28 1 0 0;
#X connect 29 0 26 0;
#X connect 30 0 4 0;
#X connect 31 0 25 0;
#X restore 228 236 pd search-here;
#X obj 201 215 t s s;
#X connect 0 0 7 0;
#X connect 2 0 6 0;
#X connect 2 1 3 0;
#X connect 2 2 4 0;
#X connect 3 0 11 0;
#X connect 4 0 11 0;
#X connect 5 0 8 0;
#X connect 6 0 1 0;
#X connect 7 0 2 0;
#X connect 8 0 1 0;
#X connect 9 0 8 0;
#X connect 11 0 8 0;
#X connect 11 1 10 0;
#X restore 106 101 pd load;
#N canvas 643 23 445 375 format-message 0;
#X obj 91 186 list prepend read -resize;
#X obj 289 117 r \$0-resize;
#X msg 290 175 read -resize;
#X obj 289 146 select 1 0;
#X msg 317 202 read;
#X obj 91 65 inlet;
#X obj 91 259 outlet;
#X obj 208 120 r \$0-skip;
#X obj 91 151 list prepend -skip 0;
#X connect 0 0 6 0;
#X connect 1 0 3 0;
#X connect 2 0 0 1;
#X connect 3 0 2 0;
#X connect 3 1 4 0;
#X connect 4 0 0 1;
#X connect 5 0 8 0;
#X connect 7 0 8 1;
#X connect 8 0 0 0;
#X restore 106 233 pd format-message;
#X connect 0 0 5 0;
#X connect 0 0 7 0;
#X connect 2 0 4 0;
#X connect 4 0 6 0;
#X connect 4 1 0 0;
#X connect 4 2 3 0;
#X connect 6 0 0 0;
#X connect 7 0 1 0;
#X restore 456 121 pd load;
#N canvas 907 108 333 277 save 0;
#N canvas 455 115 447 732 split-extension 0;
#X obj 56 43 inlet;
#X obj 226 651 outlet;
#X obj 125 213 separate .;
#X obj 125 243 list;
#X obj 125 298 list length;
#X obj 125 268 t l l;
#X obj 125 376 list;
#X obj 125 325 - 1;
#X obj 136 406 list split;
#X obj 125 350 t b f;
#X obj 164 461 route wav aiff aif;
#X obj 125 183 trigger symbol symbol;
#X msg 164 435 \$1;
#X obj 248 215 s \$0-symbol;
#N canvas 252 127 499 453 wave 0;
#X obj 141 110 symbol;
#X obj 141 141 list fromsymbol;
#X obj 168 193 list length;
#X obj 168 217 - 4;
#X obj 143 282 list split;
#X obj 141 167 t l l;
#X obj 143 314 list tosymbol;
#X obj 187 113 r \$0-symbol;
#X obj 141 84 t b b;
#X obj 193 88 s \$0-wave;
#X obj 141 56 inlet;
#X obj 143 343 s \$0-path-file;
#X connect 0 0 1 0;
#X connect 1 0 5 0;
#X connect 2 0 3 0;
#X connect 3 0 4 1;
#X connect 4 0 6 0;
#X connect 5 0 4 0;
#X connect 5 1 2 0;
#X connect 6 0 11 0;
#X connect 7 0 0 1;
#X connect 8 0 0 0;
#X connect 8 1 9 0;
#X connect 10 0 8 0;
#X restore 164 573 pd wave;
#X obj 226 607 r \$0-path-file;
#N canvas 144 24 450 300 no-extension 0;
#X obj 196 60 inlet;
#X obj 196 85 b;
#X obj 196 113 symbol;
#X obj 242 116 r \$0-symbol;
#X obj 196 146 s \$0-path-file;
#X connect 0 0 1 0;
#X connect 1 0 2 0;
#X connect 2 0 4 0;
#X connect 3 0 2 1;
#X restore 269 487 pd no-extension;
#N canvas 252 127 499 453 aiff 0;
#X obj 141 110 symbol;
#X obj 141 141 list fromsymbol;
#X obj 168 193 list length;
#X obj 143 282 list split;
#X obj 141 167 t l l;
#X obj 143 314 list tosymbol;
#X obj 187 113 r \$0-symbol;
#X obj 141 84 t b b;
#X obj 141 56 inlet;
#X obj 143 343 s \$0-path-file;
#X obj 193 88 s \$0-aiff;
#X obj 168 217 - 5;
#X connect 0 0 1 0;
#X connect 1 0 4 0;
#X connect 2 0 11 0;
#X connect 3 0 5 0;
#X connect 4 0 3 0;
#X connect 4 1 2 0;
#X connect 5 0 9 0;
#X connect 6 0 0 1;
#X connect 7 0 0 0;
#X connect 7 1 10 0;
#X connect 8 0 7 0;
#X connect 11 0 3 1;
#X restore 199 543 pd aiff;
#N canvas 252 127 499 453 aif 0;
#X obj 141 110 symbol;
#X obj 141 141 list fromsymbol;
#X obj 168 193 list length;
#X obj 143 282 list split;
#X obj 141 167 t l l;
#X obj 143 314 list tosymbol;
#X obj 187 113 r \$0-symbol;
#X obj 141 84 t b b;
#X obj 141 56 inlet;
#X obj 143 343 s \$0-path-file;
#X obj 193 88 s \$0-aiff;
#X obj 168 217 - 4;
#X connect 0 0 1 0;
#X connect 1 0 4 0;
#X connect 2 0 11 0;
#X connect 3 0 5 0;
#X connect 4 0 3 0;
#X connect 4 1 2 0;
#X connect 5 0 9 0;
#X connect 6 0 0 1;
#X connect 7 0 0 0;
#X connect 7 1 10 0;
#X connect 8 0 7 0;
#X connect 11 0 3 1;
#X restore 234 514 pd aif;
#X obj 56 90 route bang, f 12;
#X obj 56 113 savepanel;
#X obj 125 159 symbol;
#X connect 0 0 19 0;
#X connect 2 0 3 0;
#X connect 3 0 5 0;
#X connect 4 0 7 0;
#X connect 5 0 4 0;
#X connect 5 1 6 1;
#X connect 6 0 8 0;
#X connect 7 0 9 0;
#X connect 8 1 12 0;
#X connect 9 0 6 0;
#X connect 9 1 8 1;
#X connect 10 0 14 0;
#X connect 10 1 17 0;
#X connect 10 2 18 0;
#X connect 10 3 16 0;
#X connect 11 0 2 0;
#X connect 11 1 13 0;
#X connect 12 0 10 0;
#X connect 15 0 1 0;
#X connect 19 0 20 0;
#X connect 19 1 21 0;
#X connect 20 0 21 0;
#X connect 21 0 11 0;
#X restore 100 161 pd split-extension;
#X obj 100 29 inlet;
#X obj 100 224 outlet;
#N canvas 886 42 486 309 format-message 0;
#X msg 352 143 -wave;
#X msg 399 143 -aiff;
#X obj 213 143 r \$0-sr;
#X obj 52 213 list prepend;
#X obj 352 87 r \$0-wave;
#X obj 399 116 r \$0-aiff;
#X obj 274 143 r \$0-depth;
#X obj 52 43 inlet;
#X obj 52 246 outlet;
#X obj 121 184 pack2 write -rate 0 -bytes 2 -wave;
#X connect 0 0 9 5;
#X connect 1 0 9 5;
#X connect 2 0 9 2;
#X connect 3 0 8 0;
#X connect 4 0 0 0;
#X connect 5 0 1 0;
#X connect 6 0 9 4;
#X connect 7 0 3 0;
#X connect 9 0 3 1;
#X restore 100 187 pd format-message;
#X obj 100 61 route save depth sr;
#X obj 174 88 s \$0-sr;
#N canvas 734 120 254 185 bit-depth 0;
#X obj 82 23 inlet;
#X msg 74 112 2;
#X msg 105 111 3;
#X msg 139 111 4;
#X obj 82 82 sel 16 24 32;
#X obj 82 56 route float;
#X obj 105 145 s \$0-depth;
#X connect 0 0 5 0;
#X connect 1 0 6 0;
#X connect 2 0 6 0;
#X connect 3 0 6 0;
#X connect 4 0 1 0;
#X connect 4 1 2 0;
#X connect 4 2 3 0;
#X connect 5 0 4 0;
#X restore 137 118 pd bit-depth;
#X connect 0 0 3 0;
#X connect 1 0 4 0;
#X connect 3 0 2 0;
#X connect 4 0 0 0;
#X connect 4 1 6 0;
#X connect 4 2 5 0;
#X restore 495 152 pd save;
#N canvas 785 166 483 455 resize 0;
#X obj 176 55 inlet;
#X obj 119 54 inlet;
#X obj 83 184 v ch_\$0;
#X obj 378 243 r \$0-name;
#X obj 243 269 pack float float symbol;
#X obj 83 210 sel 1;
#X obj 140 290 r \$0-name;
#X obj 103 343 pack s f;
#X obj 83 314 symbol;
#X msg 243 293 \; \$1-\$3 resize \$2;
#X msg 103 371 \; \$1 resize \$2;
#X obj 176 101 ms2samps;
#X obj 167 231 loop;
#X obj 147 164 max 1;
#X obj 24 93 r \$0-set-size;
#X obj 120 137 t b f;
#X connect 0 0 11 0;
#X connect 1 0 15 0;
#X connect 2 0 5 0;
#X connect 3 0 4 2;
#X connect 4 0 9 0;
#X connect 5 0 8 0;
#X connect 5 1 12 0;
#X connect 6 0 8 1;
#X connect 7 0 10 0;
#X connect 8 0 7 0;
#X connect 11 0 15 0;
#X connect 12 0 4 0;
#X connect 13 0 4 1;
#X connect 13 0 7 1;
#X connect 14 0 15 0;
#X connect 15 0 2 0;
#X connect 15 1 13 0;
#X restore 263 180 pd resize;
#X obj 68 59 inlet;
#X obj 263 137 route size ms normalize trim;
#N canvas 245 23 711 512 trim 0;
#X obj 269 30 inlet;
#X obj 108 213 unpack;
#X obj 181 356 array get;
#X obj 246 315 r \$0-name;
#X obj 195 388 array set;
#X obj 214 423 array size;
#X obj 54 313 trigger float float;
#X obj 74 365 expr $f2 - $f1;
#X obj 269 100 v ch_\$0;
#X obj 269 124 sel 1;
#X obj 323 218 list;
#X obj 510 218 pack float symbol;
#X obj 609 194 r \$0-name;
#X msg 510 242 symbol \$1-\$2;
#X obj 269 71 trigger bang list;
#X obj 420 387 array get;
#X obj 434 419 array set;
#X obj 453 454 array size;
#X obj 313 396 expr $f2 - $f1;
#X obj 269 159 list;
#X obj 323 244 unpack f f;
#X obj 313 344 trigger f f;
#X obj 262 478 s \$0-size;
#X obj 373 157 loop;
#X obj 323 305 ms2samps;
#X obj 380 271 ms2samps;
#X obj 47 275 ms2samps;
#X obj 141 240 ms2samps;
#X obj 373 182 t b f;
#X connect 0 0 14 0;
#X connect 1 0 26 0;
#X connect 1 1 27 0;
#X connect 2 0 4 0;
#X connect 3 0 2 2;
#X connect 3 0 4 2;
#X connect 3 0 5 1;
#X connect 6 0 7 0;
#X connect 6 1 2 0;
#X connect 7 0 5 0;
#X connect 7 0 22 0;
#X connect 8 0 9 0;
#X connect 9 0 19 0;
#X connect 9 1 23 0;
#X connect 10 0 20 0;
#X connect 11 0 13 0;
#X connect 12 0 11 1;
#X connect 13 0 15 2;
#X connect 13 0 16 2;
#X connect 13 0 17 1;
#X connect 14 0 8 0;
#X connect 14 1 10 1;
#X connect 14 1 19 1;
#X connect 15 0 16 0;
#X connect 18 0 17 0;
#X connect 18 0 22 0;
#X connect 19 0 1 0;
#X connect 20 0 24 0;
#X connect 20 1 25 0;
#X connect 21 0 18 0;
#X connect 21 1 15 0;
#X connect 23 0 28 0;
#X connect 24 0 21 0;
#X connect 25 0 18 1;
#X connect 25 0 15 1;
#X connect 26 0 6 0;
#X connect 27 0 7 1;
#X connect 27 0 2 1;
#X connect 28 0 10 0;
#X connect 28 1 11 0;
#X restore 386 182 pd trim;
#N canvas 396 59 533 410 rename 0;
#X obj 319 189 r \$0-name;
#X obj 59 76 symbol;
#X obj 59 50 inlet;
#X obj 135 138 v ch_\$0;
#X obj 135 161 sel 1;
#X obj 212 130 s \$0-new-name;
#X obj 390 190 r \$0-new-name;
#X obj 59 132 s \$0-name;
#X obj 59 105 trigger symbol bang symbol;
#X obj 204 285 r \$0-name;
#X obj 147 251 r \$0-new-name;
#X obj 249 217 pack float symbol symbol;
#X msg 249 242 \; \$1-\$2 rename \$1-\$3;
#X msg 135 337 \; \$1 rename \$2;
#X obj 162 186 loop;
#X obj 135 311 list append;
#X obj 135 283 symbol;
#X connect 0 0 11 1;
#X connect 1 0 8 0;
#X connect 2 0 1 0;
#X connect 3 0 4 0;
#X connect 4 0 16 0;
#X connect 4 1 14 0;
#X connect 6 0 11 2;
#X connect 8 0 7 0;
#X connect 8 1 3 0;
#X connect 8 2 5 0;
#X connect 9 0 15 1;
#X connect 10 0 16 1;
#X connect 11 0 12 0;
#X connect 14 0 11 0;
#X connect 15 0 13 0;
#X connect 16 0 15 0;
#X restore 109 163 pd rename;
#X obj 496 229 list append;
#X obj 496 259 list trim;
#X obj 559 191 r \$0-arrays;
#X obj 496 300 outlet;
#X obj 68 107 route clear rename show hide info;
#X obj 224 214 s \$0-info;
#X obj 224 191 b;
#X connect 3 0 10 0;
#X connect 3 1 4 0;
#X connect 4 0 10 0;
#X connect 6 0 14 0;
#X connect 7 0 5 0;
#X connect 7 1 5 1;
#X connect 7 2 2 0;
#X connect 7 3 8 0;
#X connect 7 4 3 0;
#X connect 10 0 11 0;
#X connect 11 0 13 0;
#X connect 12 0 10 1;
#X connect 14 0 0 0;
#X connect 14 1 9 0;
#X connect 14 2 1 0;
#X connect 14 3 1 1;
#X connect 14 4 16 0;
#X connect 14 5 7 0;
#X connect 16 0 15 0;
#X restore 89 63 pd route;
#X msg 146 131 \$1 \$3;
#X obj 89 131 list;
#X obj 146 285 outlet;
#X text 236 116 Part of ELSE \; https://github.com/porres/pd-else;
#X text 238 97 Alexandre Torres Porres (2018);
#N canvas 645 250 257 181 init 0;
#N canvas 532 129 735 738 args 0;
#X obj 344 354 s \$0-name;
#X obj 98 39 inlet;
#X obj 197 140 route -size -ms -ch, f 25;
#X obj 157 222 max 1;
#X obj 98 87 trigger bang bang;
#X obj 468 378 soundfiler;
#X msg 525 404 \$3;
#X msg 468 347 read \$1;
#X obj 468 317 makefilename;
#X obj 494 287 r \$0-makefilename;
#X msg 362 286 1;
#X obj 362 312 v name_arg_\$0;
#X obj 98 126 v name_arg_\$0;
#X obj 98 170 sel 1 0;
#X obj 117 396 t b s;
#X obj 157 313 s \$0-size;
#X obj 361 642 outlet;
#X obj 433 152 s \$0-file-arg;
#X obj 147 526 r \$0-file-arg;
#X obj 114 552 symbol;
#X msg 434 97 1;
#X obj 434 123 v file_arg_\$0;
#X obj 98 493 v file_arg_\$0;
#X obj 98 441 trigger bang bang, f 27;
#X obj 98 525 sel 1;
#X obj 114 584 s \$0-file;
#X obj 361 571 max 1;
#X obj 361 598 min 64;
#X obj 295 585 v ch_\$0;
#X obj 180 287 s \$0-resize;
#X msg 180 257 0;
#N canvas 803 218 734 760 search-here 0;
#X obj 450 99 separate /;
#X obj 362 490 select s;
#X obj 164 283 makefilename %s/;
#X msg 256 255 set %s/;
#X obj 164 237 symbol;
#X msg 201 321 set \$1%s/;
#X obj 484 308 list split;
#X obj 541 255 list length;
#X obj 541 280 - 1;
#X obj 450 127 list;
#X obj 450 151 t l l b;
#X obj 125 320 symbol;
#X obj 133 188 t b l;
#X obj 62 464 sel 1;
#X msg 62 489 dump \, reset;
#X msg 124 356 open \$1;
#X obj 76 160 route bang;
#X msg 362 520 1;
#X obj 353 19 inlet;
#X obj 348 580 f;
#X msg 416 524 0;
#X obj 348 608 sel 0 1;
#X msg 421 659 set \$1;
#X obj 421 693 s \$0-makefilename;
#X obj 421 630 makefilename %s/%%s;
#X obj 412 602 dir 1;
#X obj 124 394 dir 1;
#X msg 348 639 set %s;
#X obj 353 79 t b s;
#X msg 36 354 reopen \, dump;
#X obj 164 213 iterate;
#X msg 412 576 reopen \, dir;
#X connect 0 0 9 0;
#X connect 1 0 17 0;
#X connect 2 0 5 0;
#X connect 2 0 11 1;
#X connect 3 0 2 0;
#X connect 4 0 2 0;
#X connect 5 0 2 0;
#X connect 6 0 16 0;
#X connect 6 1 1 1;
#X connect 7 0 8 0;
#X connect 8 0 6 1;
#X connect 9 0 10 0;
#X connect 10 0 6 0;
#X connect 10 1 7 0;
#X connect 10 2 3 0;
#X connect 10 2 20 0;
#X connect 11 0 15 0;
#X connect 12 0 11 0;
#X connect 12 1 30 0;
#X connect 13 0 14 0;
#X connect 14 0 26 0;
#X connect 15 0 26 0;
#X connect 16 0 29 0;
#X connect 16 1 12 0;
#X connect 17 0 19 1;
#X connect 18 0 28 0;
#X connect 19 0 21 0;
#X connect 20 0 19 1;
#X connect 21 0 27 0;
#X connect 21 1 31 0;
#X connect 22 0 23 0;
#X connect 24 0 22 0;
#X connect 25 1 24 0;
#X connect 26 0 1 0;
#X connect 26 3 13 0;
#X connect 27 0 23 0;
#X connect 28 0 19 0;
#X connect 28 1 0 0;
#X connect 29 0 26 0;
#X connect 30 0 4 0;
#X connect 31 0 25 0;
#X restore 470 251 pd search-here;
#X obj 344 177 unpack s s;
#X obj 408 213 t s s;
#X obj 323 513 max 1;
#X obj 323 540 min 64;
#X obj 197 112 args -;
#X obj 202 186 *;
#X obj 229 186 r \$0-kh;
#X obj 117 347 symbol sample_\\\$0;
#X obj 117 370 dollsym 1;
#X connect 1 0 4 0;
#X connect 2 0 3 0;
#X connect 2 1 37 0;
#X connect 2 2 28 0;
#X connect 2 3 32 0;
#X connect 3 0 15 0;
#X connect 3 0 30 0;
#X connect 4 0 12 0;
#X connect 4 1 36 0;
#X connect 5 1 6 0;
#X connect 6 0 34 0;
#X connect 7 0 5 0;
#X connect 8 0 7 0;
#X connect 9 0 8 0;
#X connect 10 0 11 0;
#X connect 12 0 13 0;
#X connect 13 0 23 0;
#X connect 13 1 39 0;
#X connect 14 0 23 0;
#X connect 14 1 0 0;
#X connect 18 0 19 1;
#X connect 19 0 25 0;
#X connect 20 0 21 0;
#X connect 22 0 24 0;
#X connect 23 0 22 0;
#X connect 23 1 28 0;
#X connect 24 0 19 0;
#X connect 26 0 27 0;
#X connect 27 0 16 0;
#X connect 27 0 28 0;
#X connect 28 0 26 0;
#X connect 30 0 29 0;
#X connect 32 0 0 0;
#X connect 32 0 10 0;
#X connect 32 1 17 0;
#X connect 32 1 20 0;
#X connect 32 1 33 0;
#X connect 33 0 8 0;
#X connect 33 1 31 0;
#X connect 34 0 35 0;
#X connect 35 0 28 0;
#X connect 36 0 2 0;
#X connect 37 0 3 0;
#X connect 38 0 37 1;
#X connect 39 0 40 0;
#X connect 40 0 14 0;
#X restore 85 87 pd args;
#N canvas 147 315 418 390 init-buffers 0;
#X obj 250 91 r \$0-name;
#X obj 291 136 r \$0-size;
#X obj 108 69 sel 1;
#X obj 135 104 loop;
#N canvas 659 107 781 593 dynamic-patching 0;
#X obj 363 502 send pd-\$0-buffers;
#X msg 363 118 \$1;
#X obj 461 156 - 1;
#X obj 412 131 + 20;
#X obj 412 153 t f f;
#X obj 412 108 * 100;
#X obj 363 182 pack float float float \$0;
#X obj 265 258 list append \$0;
#X obj 363 140 t f f;
#X msg 363 211 obj 6 \$2 cnv 15 448 80 empty empty empty 3 10 2 14
-233017 -66577 0 \, obj 5 \$3 pd ch\$1_\$4;
#X msg 266 289 \; pd-ch\$1_\$4 array \$1-\$2 \$3 float 2 \, coords
0 1 \$3 -1 450 82 2 0 0 \, vis 0;
#X obj 109 331 list append \$0;
#X msg 109 386 \; pd-ch\$1_\$4 array \$2 \$3 float 2 \, coords 0 1
\$3 -1 450 82 2 0 0 \, vis 0;
#X obj 110 43 inlet;
#X obj 265 43 inlet;
#X obj 265 83 trigger list list;
#X obj 110 197 trigger list list;
#X connect 1 0 8 0;
#X connect 2 0 6 2;
#X connect 3 0 4 0;
#X connect 4 0 6 1;
#X connect 4 1 2 0;
#X connect 5 0 3 0;
#X connect 6 0 9 0;
#X connect 7 0 10 0;
#X connect 8 0 6 0;
#X connect 8 1 5 0;
#X connect 9 0 0 0;
#X connect 10 0 0 0;
#X connect 11 0 12 0;
#X connect 12 0 0 0;
#X connect 13 0 16 0;
#X connect 14 0 15 0;
#X connect 15 0 7 0;
#X connect 15 1 1 0;
#X connect 16 0 11 0;
#X connect 16 1 1 0;
#X restore 236 225 pd dynamic-patching;
#X obj 110 25 inlet;
#X obj 167 256 list prepend;
#X obj 167 283 list;
#X msg 167 228 \$1-\$2;
#X msg 106 225 \$2;
#X obj 278 114 r \$0-sr;
#X obj 221 177 pack f s f;
#X obj 108 165 pack f s f;
#X obj 167 344 s \$0-arrays;
#X connect 0 0 11 1;
#X connect 0 0 12 1;
#X connect 1 0 11 2;
#X connect 1 0 12 2;
#X connect 2 0 12 0;
#X connect 2 1 3 0;
#X connect 3 0 11 0;
#X connect 5 0 2 0;
#X connect 6 0 7 0;
#X connect 7 0 6 1;
#X connect 7 0 13 0;
#X connect 8 0 6 0;
#X connect 9 0 13 0;
#X connect 10 0 11 2;
#X connect 10 0 12 2;
#X connect 11 0 4 1;
#X connect 11 0 8 0;
#X connect 12 0 4 0;
#X connect 12 0 9 0;
#X restore 85 118 pd init-buffers;
#N canvas 524 372 585 266 loadbang 0;
#X obj 175 119 samplerate~;
#X obj 189 148 s \$0-sr;
#X obj 76 78 trigger bang bang;
#X obj 269 158 send pd-\$0-buffers;
#X msg 269 110 clear;
#X obj 76 206 outlet;
#X text 313 110 <== in case abstraction is corrupted, f 12;
#X obj 174 174 / 1000;
#X obj 173 198 s \$0-kh;
#X obj 76 47 loadbanger -init;
#X connect 0 0 1 0;
#X connect 0 0 7 0;
#X connect 2 0 5 0;
#X connect 2 1 0 0;
#X connect 2 1 4 0;
#X connect 4 0 3 0;
#X connect 7 0 8 0;
#X connect 9 0 2 0;
#X restore 85 55 pd loadbang;
#X connect 0 0 1 0;
#X connect 2 0 0 0;
#X restore 157 63 pd init;
#X obj 89 242 route bang;
#X obj 98 164 lb;
#X obj 108 187 r \$0-info;
#X obj 89 213 message;
#X obj 236 203 declare -path else;
#X connect 0 0 3 0;
#X connect 2 0 5 0;
#X connect 2 1 4 0;
#X connect 3 0 2 0;
#X connect 4 0 5 1;
#X connect 5 0 13 0;
#X connect 10 1 6 0;
#X connect 11 0 13 0;
#X connect 12 0 13 0;
#X connect 13 0 10 0;
