#N canvas 699 213 464 215 10;
#X declare -path else;
#X text 209 106 Part of ELSE \; https://github.com/porres/pd-else;
#X text 211 87 Alexandre Torres Porres (2017);
#X obj 107 99 sr~ -ms;
#X obj 59 33 inlet~;
#X obj 59 152 outlet~;
#X obj 59 87 *~ 0;
#X obj 106 74 lb -init;
#X obj 233 56 declare -path else;
#X connect 2 0 5 1;
#X connect 3 0 5 0;
#X connect 5 0 4 0;
#X connect 6 0 2 0;
