#N canvas 541 23 693 723 12;
#X declare -path else;
#X obj 388 322 text define \$0-scl;
#X msg 244 236 read \$1;
#X obj 244 152 openpanel;
#X obj 150 509 else/break !;
#X obj 150 534 route !;
#X obj 150 561 else/nmess 1;
#X obj 259 540 else/nmess 1;
#X obj 500 588 else/frac2dec;
#X obj 500 643 else/group;
#X obj 426 558 route float;
#X obj 426 521 else/iterate;
#X obj 500 615 else/ratio2cents;
#X obj 175 294 trigger bang bang, f 23;
#X obj 244 261 trigger bang anything;
#X obj 100 172 symbol;
#X obj 100 16 inlet;
#X obj 259 690 outlet;
#X obj 203 690 outlet;
#X obj 100 204 else/canvas.file;
#X obj 150 587 else/insert file, f 11;
#X obj 259 566 else/insert name, f 11;
#X obj 244 124 else/click;
#X obj 257 66 else/args;
#X obj 257 42 loadbang;
#X obj 257 90 route symbol;
#X obj 100 89 route open bang set;
#X obj 186 178 symbol;
#X text 335 191 Part of ELSE \; https://github.com/porres/pd-else;
#X text 337 172 Alexandre Torres Porres (2022);
#X obj 259 628 else/slice -1;
#X obj 259 605 list;
#X obj 259 652 list trim;
#X obj 361 545 t b a b;
#X msg 407 611 0;
#X obj 175 405 list prepend, f 7;
#X obj 175 449 t l;
#X obj 175 379 text get \$0-scl;
#X obj 175 349 f, f 2;
#X obj 200 354 + 1;
#X msg 228 323 0, f 2;
#X obj 175 321 until;
#X obj 237 406 sel 2;
#X obj 150 476 list;
#X obj 33 116 route bang;
#X obj 175 258 bng 15 250 50 0 empty empty empty 17 7 0 10 #fcfcfc #000000 #000000;
#X obj 345 136 declare -path else;
#X obj 361 486 else/nmess 1;
#X connect 1 0 13 0;
#X connect 2 0 1 0;
#X connect 2 0 26 0;
#X connect 3 0 4 0;
#X connect 4 0 5 0;
#X connect 5 0 19 0;
#X connect 5 1 6 0;
#X connect 6 0 20 0;
#X connect 6 1 46 0;
#X connect 7 0 11 0;
#X connect 8 0 17 0;
#X connect 9 0 8 0;
#X connect 9 1 7 0;
#X connect 10 0 9 0;
#X connect 11 0 8 0;
#X connect 12 0 40 0;
#X connect 12 1 6 1;
#X connect 12 1 5 1;
#X connect 12 1 39 0;
#X connect 12 1 34 1;
#X connect 12 1 46 1;
#X connect 13 0 12 0;
#X connect 13 1 0 0;
#X connect 14 0 18 0;
#X connect 15 0 25 0;
#X connect 18 0 1 0;
#X connect 19 0 16 0;
#X connect 20 0 30 0;
#X connect 21 0 2 0;
#X connect 22 0 24 0;
#X connect 23 0 22 0;
#X connect 24 0 14 1;
#X connect 25 0 43 0;
#X connect 25 1 14 0;
#X connect 25 2 26 0;
#X connect 26 0 14 1;
#X connect 29 0 31 0;
#X connect 30 0 29 0;
#X connect 31 0 16 0;
#X connect 32 0 8 0;
#X connect 32 1 10 0;
#X connect 32 2 33 0;
#X connect 33 0 8 0;
#X connect 34 0 35 0;
#X connect 35 0 34 1;
#X connect 35 0 42 1;
#X connect 36 0 34 0;
#X connect 36 1 41 0;
#X connect 37 0 38 0;
#X connect 37 0 36 0;
#X connect 38 0 37 1;
#X connect 39 0 37 1;
#X connect 40 0 37 0;
#X connect 41 0 40 1;
#X connect 41 0 42 0;
#X connect 42 0 3 0;
#X connect 43 0 2 0;
#X connect 43 1 14 0;
#X connect 44 0 12 0;
#X connect 46 0 32 0;
