#N canvas 739 233 627 347 12;
#X declare -path else;
#X obj 70 37 inlet;
#X obj 70 263 outlet;
#X obj 163 138 * 100;
#X obj 163 176 else/add;
#X obj 70 78 trigger bang list bang, f 27;
#X msg 256 132 0;
#X obj 163 109 else/iterate;
#X obj 70 220 else/group;
#X text 321 147 Part of ELSE \; https://github.com/porres/pd-else;
#X text 323 128 Alexandre Torres Porres (2021);
#X obj 347 89 declare -path else;
#X connect 0 0 4 0;
#X connect 2 0 3 0;
#X connect 3 0 7 0;
#X connect 4 0 3 0;
#X connect 4 0 7 0;
#X connect 4 1 6 0;
#X connect 4 2 5 0;
#X connect 5 0 3 0;
#X connect 6 0 2 0;
#X connect 7 0 1 0;
