#N canvas 721 149 567 319 10;
#X declare -path else;
#X obj 347 214 v last_\$0;
#X obj 106 150 v lo_\$0;
#X obj 161 151 v hi_\$0;
#X obj 106 41 inlet;
#X obj 193 108 f \$1;
#X obj 234 108 f \$2;
#X obj 160 42 inlet;
#X obj 59 41 inlet;
#X obj 59 244 outlet;
#X obj 59 192 expr last_\$0 = ($f1 > lo_\$0 && ($f1 >= hi_\$0 || last_\$0))
;
#X text 299 130 Part of ELSE \; https://github.com/porres/pd-else;
#X text 301 111 Alexandre Torres Porres (2017);
#X obj 59 218 change;
#X obj 234 69 lb -init;
#X obj 336 80 declare -path else;
#X connect 3 0 1 0;
#X connect 4 0 1 0;
#X connect 5 0 2 0;
#X connect 6 0 2 0;
#X connect 7 0 9 0;
#X connect 9 0 12 0;
#X connect 12 0 8 0;
#X connect 13 0 4 0;
#X connect 13 0 5 0;
