#N canvas 437 23 533 308 12;
#X declare -path else;
#X obj 66 213 outlet;
#X obj 44 27 inlet;
#X obj 303 210 outlet;
#X obj 198 213 outlet;
#X text 223 88 Part of ELSE \; https://github.com/porres/pd-else;
#X text 225 69 Alexandre Torres Porres (2022);
#N canvas 561 60 501 527 play 0;
#X obj 71 18 inlet;
#X obj 223 339 spigot;
#X obj 72 218 != 0;
#X msg 120 85 1;
#X msg 219 85 0;
#X msg 262 296 1;
#X obj 292 236 sel 1;
#X obj 292 210 v pause_\$0;
#X msg 269 148 1;
#X msg 215 148 0;
#X obj 292 476 outlet;
#X obj 418 476 outlet;
#X obj 269 181 &&;
#X obj 318 85 t b b;
#X obj 368 238 t b b;
#X obj 71 53 route float bang start stop pause continue play, f 50
;
#X msg 239 249 0;
#X obj 110 316 s \$0-rewind;
#X obj 42 317 t b b;
#X obj 72 286 sel 1 0, f 9;
#X obj 300 302 r \$0-next;
#X obj 102 341 s \$0-stop-delay;
#X connect 0 0 15 0;
#X connect 1 0 10 0;
#X connect 2 0 1 1;
#X connect 2 0 12 1;
#X connect 2 0 19 0;
#X connect 3 0 2 0;
#X connect 4 0 2 0;
#X connect 5 0 1 1;
#X connect 5 0 12 1;
#X connect 6 0 5 0;
#X connect 6 0 10 0;
#X connect 7 0 6 0;
#X connect 8 0 12 0;
#X connect 9 0 12 0;
#X connect 12 0 7 0;
#X connect 13 0 9 0;
#X connect 13 1 7 0;
#X connect 14 0 5 0;
#X connect 14 1 10 0;
#X connect 15 0 2 0;
#X connect 15 1 3 0;
#X connect 15 2 3 0;
#X connect 15 3 4 0;
#X connect 15 4 8 0;
#X connect 15 4 16 0;
#X connect 15 5 13 0;
#X connect 15 6 14 0;
#X connect 15 7 11 0;
#X connect 16 0 1 1;
#X connect 18 0 10 0;
#X connect 18 1 17 0;
#X connect 19 0 18 0;
#X connect 19 1 9 0;
#X connect 19 1 17 0;
#X connect 19 1 21 0;
#X connect 20 0 1 0;
#X restore 44 60 pd play;
#X f 14;
#X obj 407 213 outlet;
#X obj 407 182 r \$0-end;
#X text 295 233 score data;
#X text 64 236 event data;
#X text 205 236 dur;
#X text 411 236 end;
#N canvas 713 112 405 389 text-get 0;
#X obj 107 130 until;
#X obj 139 99 r \$0-stop;
#X obj 160 164 + 1;
#X msg 221 115 0;
#X obj 223 223 sel 2;
#X obj 107 163 float;
#X obj 165 233 != 2;
#X obj 126 262 spigot;
#X obj 126 339 outlet;
#X obj 107 28 inlet;
#X obj 221 84 r \$0-rewind;
#X obj 281 250 s \$0-stop;
#X obj 223 305 s \$0-end;
#X obj 246 277 s \$0-rewind;
#X obj 223 250 t b b b;
#X obj 277 222 v type_\$0;
#X obj 31 130 r \$0-rest;
#X obj 221 148 s \$0-route;
#X obj 107 193 text get \$0-score;
#X connect 0 0 5 0;
#X connect 1 0 0 1;
#X connect 2 0 5 1;
#X connect 3 0 5 1;
#X connect 3 0 17 0;
#X connect 4 0 14 0;
#X connect 4 1 15 0;
#X connect 5 0 2 0;
#X connect 5 0 18 0;
#X connect 6 0 7 1;
#X connect 7 0 8 0;
#X connect 9 0 0 0;
#X connect 10 0 3 0;
#X connect 14 0 12 0;
#X connect 14 1 13 0;
#X connect 14 2 11 0;
#X connect 16 0 5 0;
#X connect 18 0 7 0;
#X connect 18 1 4 0;
#X connect 18 1 6 0;
#X restore 44 90 pd text-get;
#X obj 198 182 r \$0-duration;
#X obj 66 181 r \$0-event-data;
#X obj 303 182 r \$0-data-out;
#N canvas 508 141 577 439 parse 0;
#X obj 241 107 list split 1, f 39;
#X obj 351 350 list;
#X obj 241 237 abs;
#X obj 327 281 moses;
#X obj 359 313 b, f 1;
#X msg 69 249 bar \$1;
#X obj 241 271 delay;
#X obj 241 197 trigger float float float;
#N canvas 378 37 988 593 get-tempo 0;
#X obj 455 17 inlet;
#X obj 297 402 -;
#X obj 265 371 t f f;
#X obj 265 314 * 60000;
#X obj 537 110 list split 2;
#X obj 537 194 list append;
#X obj 537 138 trigger bang list;
#X obj 537 168 v bpm_\$0;
#X obj 673 198 unpack f f f, f 18;
#X obj 191 176 else/add;
#X msg 337 370 0;
#X obj 42 17 inlet;
#X obj 560 345 s \$0-init;
#X obj 337 314 r \$0-init;
#X obj 79 142 else/router;
#X obj 191 85 r \$0-init;
#X msg 203 115 1;
#X obj 145 306 s \$0-finished;
#X obj 153 58 r \$0-finished;
#X msg 153 82 0;
#X obj 297 539 outlet;
#X obj 191 204 t f f;
#X obj 191 234 else/router;
#X obj 113 271 t f b;
#X obj 411 424 else/bpm;
#X obj 79 474 *;
#X obj 42 106 * 4;
#X obj 455 79 route float list, f 24;
#X obj 455 48 route tempo;
#X obj 903 345 v Q_\$0;
#X obj 771 345 v ln_Q_\$0;
#X obj 640 345 v T_\$0;
#X obj 817 199 v N_\$0;
#X obj 734 227 v S2_\$0;
#X obj 673 227 v S1_\$0;
#X obj 265 205 expr $f1 <= N_\$0;
#X obj 265 258 expr T_\$0 / ln_Q_\$0 * ln(($f1 * ln_Q_\$0 / (T_\$0
* S1_\$0 ))+1), f 21;
#X obj 640 286 expr N_\$0 * ln_Q_\$0 / (S2_\$0 - S1_\$0) \; ln(Q_\$0)
\; S2_\$0/S1_\$0;
#X obj 100 203 abs;
#X obj 100 177 t f f;
#X obj 132 220 v n_\$0;
#X obj 297 479 expr copysign($f1 \, n_\$0);
#X obj 113 397 expr copysign($f1 - N_\$0 \, n_\$0), f 17;
#X text 272 114 considering tempos that sum up to N exactly, f 18
;
#X msg 511 443 tempo \$1;
#X obj 802 256 v delta_\$0;
#X obj 537 288 sel 1;
#X obj 537 224 t b l;
#X obj 537 256 expr (delta_\$0 = S2_\$0 - S1_\$0) != 0;
#X obj 537 315 t b b b;
#N canvas 727 73 506 519 beats 0;
#X obj 131 22 inlet;
#X obj 202 335 -;
#X obj 170 304 t f f;
#X obj 170 275 * 60000;
#X msg 238 335 0;
#X obj 238 308 r \$0-init;
#X obj 170 219 expr T_\$0 / ln_Q_\$0 * ln(($f1 * ln_Q_\$0 / (T_\$0
* S1_\$0 ))+1), f 21;
#X obj 202 108 r N_\$0;
#X obj 149 84 r \$0-init;
#X obj 131 140 f;
#X obj 170 149 + 1;
#X obj 170 180 moses;
#X obj 202 142 + 1;
#X obj 342 183 v S2_\$0;
#X msg 149 108 0;
#X obj 119 375 delay;
#X obj 202 375 else/bpm;
#X obj 366 230 v bpm_\$0;
#X obj 406 469 outlet;
#X obj 342 150 b;
#X obj 342 470 outlet;
#X obj 33 281 r \$0-stop-delay;
#X msg 33 315 stop;
#X obj 119 438 s \$0-next-beat-mono;
#X obj 143 52 r \$0-next-beat-mono;
#X connect 0 0 9 0;
#X connect 1 0 15 0;
#X connect 1 0 16 0;
#X connect 2 0 1 1;
#X connect 2 1 1 0;
#X connect 3 0 2 0;
#X connect 4 0 1 1;
#X connect 5 0 4 0;
#X connect 6 0 3 0;
#X connect 7 0 12 0;
#X connect 8 0 14 0;
#X connect 9 0 10 0;
#X connect 10 0 9 1;
#X connect 10 0 11 0;
#X connect 11 0 6 0;
#X connect 11 1 19 0;
#X connect 12 0 11 1;
#X connect 13 0 17 0;
#X connect 13 0 18 0;
#X connect 13 0 20 0;
#X connect 14 0 9 1;
#X connect 15 0 23 0;
#X connect 16 0 18 0;
#X connect 19 0 13 0;
#X connect 21 0 22 0;
#X connect 22 0 15 0;
#X connect 24 0 9 0;
#X restore 537 379 pd beats;
#X obj 796 227 s N_\$0;
#X obj 511 476 s \$0-data-out;
#X obj 550 48 s \$0-data-out;
#X obj 42 73 v frac_\$0;
#X obj 42 43 b;
#X connect 0 0 28 0;
#X connect 1 0 41 0;
#X connect 2 0 1 1;
#X connect 2 1 1 0;
#X connect 3 0 2 0;
#X connect 4 0 6 0;
#X connect 5 0 47 0;
#X connect 6 0 7 0;
#X connect 6 1 5 1;
#X connect 7 0 5 0;
#X connect 8 0 34 0;
#X connect 8 1 33 0;
#X connect 8 2 51 0;
#X connect 9 0 21 0;
#X connect 10 0 1 1;
#X connect 11 0 55 0;
#X connect 13 0 10 0;
#X connect 14 0 25 0;
#X connect 14 1 39 0;
#X connect 15 0 16 0;
#X connect 15 0 9 0;
#X connect 16 0 14 1;
#X connect 18 0 19 0;
#X connect 19 0 14 1;
#X connect 21 0 22 0;
#X connect 21 1 35 0;
#X connect 22 0 23 0;
#X connect 22 1 36 0;
#X connect 23 0 42 0;
#X connect 23 1 17 0;
#X connect 24 0 25 1;
#X connect 25 0 20 0;
#X connect 26 0 14 0;
#X connect 27 0 24 0;
#X connect 27 0 7 0;
#X connect 27 0 44 0;
#X connect 27 1 4 0;
#X connect 28 0 27 0;
#X connect 28 1 53 0;
#X connect 35 0 22 1;
#X connect 36 0 3 0;
#X connect 37 0 31 0;
#X connect 37 1 30 0;
#X connect 37 2 29 0;
#X connect 38 0 9 0;
#X connect 39 0 38 0;
#X connect 39 1 40 0;
#X connect 41 0 20 0;
#X connect 42 0 25 0;
#X connect 44 0 52 0;
#X connect 46 0 49 0;
#X connect 47 0 48 0;
#X connect 47 1 8 0;
#X connect 48 0 46 0;
#X connect 49 0 50 0;
#X connect 49 1 12 0;
#X connect 49 2 37 0;
#X connect 50 0 24 0;
#X connect 50 1 44 0;
#X connect 54 0 26 0;
#X connect 55 0 54 0;
#X restore 241 162 pd get-tempo;
#N canvas 194 235 384 321 bar_count 0;
#X msg 154 164 reset;
#X obj 154 211 else/count -reset 1;
#X obj 154 122 r \$0-rewind;
#X obj 105 147 b;
#X obj 105 75 inlet;
#X obj 154 254 outlet;
#X connect 0 0 1 0;
#X connect 1 0 5 0;
#X connect 2 0 0 0;
#X connect 3 0 1 0;
#X connect 4 0 3 0;
#X restore 69 221 pd bar_count;
#X obj 69 107 else/routeall | tempo;
#X obj 413 250 s \$0-duration;
#X obj 351 379 s \$0-event-data;
#X obj 134 279 s \$0-data-out;
#X obj 118 29 inlet;
#N canvas 597 23 465 442 route-check 0;
#X obj 151 215 v type_\$0;
#X obj 151 278 sel 1;
#X obj 77 101 else/router;
#X obj 151 246 t f f;
#X obj 205 249 == 1;
#X obj 205 277 s \$0-route;
#X obj 151 75 r \$0-route;
#X obj 151 304 s \$0-rest;
#X obj 77 344 outlet;
#X text 79 367 data;
#X obj 286 344 outlet;
#X text 288 367 event;
#X obj 151 146 trigger bang anything, f 24;
#X obj 77 33 inlet;
#X obj 316 213 s \$0-event-data;
#N canvas 255 47 579 457 check 0;
#X obj 125 118 route bang;
#X msg 192 147 \$1;
#X obj 192 173 else/frac2dec;
#X obj 63 24 inlet;
#X obj 63 262 else/router, f 38;
#X msg 277 206 1;
#X msg 326 208 0;
#X obj 63 373 outlet;
#X obj 326 373 outlet;
#X obj 63 67 trigger list list bang, f 27;
#X obj 63 317 list trim;
#X obj 358 336 s \$0-stop;
#X obj 326 302 t l b;
#X obj 192 229 v frac_\$0;
#X connect 0 1 1 0;
#X connect 1 0 2 0;
#X connect 2 0 5 0;
#X connect 2 0 13 0;
#X connect 3 0 9 0;
#X connect 4 0 10 0;
#X connect 4 1 12 0;
#X connect 5 0 4 1;
#X connect 6 0 4 1;
#X connect 9 0 4 0;
#X connect 9 1 0 0;
#X connect 9 2 6 0;
#X connect 10 0 7 0;
#X connect 12 0 8 0;
#X connect 12 1 11 0;
#X restore 77 145 pd check;
#X obj 163 183 trigger bang list, f 18;
#X connect 0 0 3 0;
#X connect 1 0 7 0;
#X connect 2 0 15 0;
#X connect 2 1 12 0;
#X connect 3 0 1 0;
#X connect 3 1 4 0;
#X connect 4 0 5 0;
#X connect 6 0 2 1;
#X connect 12 0 0 0;
#X connect 12 1 14 0;
#X connect 13 0 2 0;
#X connect 15 0 8 0;
#X connect 15 1 16 0;
#X connect 16 0 0 0;
#X connect 16 1 10 0;
#X restore 118 68 pd route-check;
#X f 18;
#X obj 241 303 s \$0-next;
#X connect 0 0 8 0;
#X connect 0 1 1 1;
#X connect 1 0 12 0;
#X connect 2 0 6 0;
#X connect 3 1 4 0;
#X connect 4 0 1 0;
#X connect 5 0 13 0;
#X connect 6 0 16 0;
#X connect 7 0 2 0;
#X connect 7 1 3 0;
#X connect 7 2 11 0;
#X connect 8 0 7 0;
#X connect 9 0 5 0;
#X connect 10 0 9 0;
#X connect 10 1 8 1;
#X connect 10 2 13 0;
#X connect 14 0 15 0;
#X connect 15 0 10 0;
#X connect 15 1 0 0;
#X restore 44 122 pd parse;
#N canvas 491 149 659 346 score 0;
#X msg 271 165 click;
#X obj 271 124 else/click;
#X msg 204 168 close;
#X obj 80 27 inlet;
#X obj 450 245 s \$0-text;
#X obj 418 127 list;
#X obj 418 186 moses;
#X msg 450 216 line \$1;
#X obj 271 255 text define \$0-score;
#X f 22;
#X obj 418 156 text search \$0-score;
#N canvas 386 71 510 382 init 0;
#X obj 98 37 loadbang;
#X obj 98 61 else/args;
#X obj 98 88 route symbol;
#X obj 98 264 outlet;
#X obj 98 160 else/canvas.file 1;
#X msg 221 192 \$1 file not found;
#X obj 221 222 print [score2];
#X msg 98 220 read \$1;
#X connect 0 0 1 0;
#X connect 1 0 2 0;
#X connect 2 0 4 0;
#X connect 4 0 7 0;
#X connect 4 1 5 0;
#X connect 5 0 6 0;
#X connect 7 0 3 0;
#X restore 294 224 pd init;
#N canvas 454 23 286 477 save 0;
#X obj 136 215 pdcontrol;
#X msg 136 188 dir 1;
#X obj 136 241 pack s s;
#X obj 136 161 t b s, f 10;
#X obj 55 213 savepanel;
#X obj 55 97 route bang, f 12;
#X msg 55 253 write \$1;
#X obj 136 133 symbol;
#X obj 55 182 pdcontrol;
#X msg 55 155 dir 1;
#X obj 136 312 outlet;
#X msg 136 267 write \$1/\$2;
#X obj 55 56 inlet;
#X connect 0 0 2 0;
#X connect 1 0 0 0;
#X connect 2 0 11 0;
#X connect 3 0 1 0;
#X connect 3 1 2 1;
#X connect 4 0 6 0;
#X connect 5 0 9 0;
#X connect 5 1 7 0;
#X connect 6 0 10 0;
#X connect 7 0 3 0;
#X connect 8 0 4 0;
#X connect 9 0 8 0;
#X connect 11 0 10 0;
#X connect 12 0 5 0;
#X restore 80 167 pd save;
#N canvas 183 76 286 477 open 0;
#X obj 136 215 pdcontrol;
#X msg 136 188 dir 1;
#X obj 136 241 pack s s;
#X obj 136 161 t b s, f 10;
#X obj 55 97 route bang, f 12;
#X obj 136 133 symbol;
#X obj 55 182 pdcontrol;
#X msg 55 155 dir 1;
#X obj 136 312 outlet;
#X obj 55 56 inlet;
#X msg 55 253 read \$1;
#X msg 136 267 read \$1/\$2;
#X obj 55 213 openpanel;
#X connect 0 0 2 0;
#X connect 1 0 0 0;
#X connect 2 0 11 0;
#X connect 3 0 1 0;
#X connect 3 1 2 1;
#X connect 4 0 7 0;
#X connect 4 1 5 0;
#X connect 5 0 3 0;
#X connect 6 0 12 0;
#X connect 7 0 6 0;
#X connect 9 0 4 0;
#X connect 10 0 8 0;
#X connect 11 0 8 0;
#X connect 12 0 10 0;
#X restore 139 167 pd open;
#X obj 80 66 route save open show hide goto;
#X connect 0 0 8 0;
#X connect 1 0 0 0;
#X connect 2 0 8 0;
#X connect 3 0 13 0;
#X connect 5 0 9 0;
#X connect 6 1 7 0;
#X connect 7 0 4 0;
#X connect 9 0 6 0;
#X connect 10 0 8 0;
#X connect 11 0 8 0;
#X connect 12 0 8 0;
#X connect 13 0 11 0;
#X connect 13 1 12 0;
#X connect 13 2 0 0;
#X connect 13 3 2 0;
#X connect 13 4 5 0;
#X restore 139 90 pd score;
#X obj 266 136 declare -path else;
#X connect 1 0 6 0;
#X connect 6 0 13 0;
#X connect 6 1 18 0;
#X connect 8 0 7 0;
#X connect 13 0 17 0;
#X connect 14 0 3 0;
#X connect 15 0 0 0;
#X connect 16 0 2 0;
