#N canvas 586 235 795 442 12;
#X declare -path else;
#X obj 121 129 list length;
#X obj 66 160 t l l;
#X obj 121 182 until;
#X obj 66 353 outlet;
#X obj 171 355 outlet;
#X obj 66 38 inlet;
#X obj 121 154 trigger float float;
#N canvas 747 280 450 300 scramble 0;
#X msg 231 153 adddollar \$1;
#X obj 231 129 + 1;
#X msg 162 199 \$1 \$2;
#X msg 182 152 set;
#X obj 112 20 inlet;
#X obj 194 58 t l b;
#X obj 192 25 inlet;
#X obj 162 230 outlet;
#X obj 231 102 iterate;
#X connect 0 0 2 0;
#X connect 1 0 0 0;
#X connect 2 0 7 0;
#X connect 3 0 2 0;
#X connect 4 0 2 0;
#X connect 5 0 8 0;
#X connect 5 1 3 0;
#X connect 6 0 5 0;
#X connect 8 0 1 0;
#X restore 66 308 pd scramble;
#X obj 66 130 list;
#X obj 360 67 list length;
#X obj 297 78 t l l;
#X obj 360 120 until;
#X obj 360 92 trigger float float;
#N canvas 715 233 450 300 scramble 1;
#X msg 231 153 adddollar \$1;
#X obj 231 129 + 1;
#X msg 162 199 \$3 \$5 \$2 \$6 \$4 \$1;
#X msg 182 152 set;
#X obj 112 20 inlet;
#X obj 194 58 t l b;
#X obj 192 25 inlet;
#X obj 164 230 outlet;
#X obj 231 102 iterate;
#X connect 0 0 2 0;
#X connect 1 0 0 0;
#X connect 2 0 7 0;
#X connect 3 0 2 0;
#X connect 4 0 2 0;
#X connect 5 0 8 0;
#X connect 5 1 3 0;
#X connect 6 0 5 0;
#X connect 8 0 1 0;
#X restore 296 286 pd scramble;
#X obj 296 316 list;
#X obj 66 82 routetype anything bang;
#X obj 360 153 rand.seq;
#X obj 121 214 rand.seq;
#X text 452 262 Part of ELSE \; https://github.com/porres/pd-else;
#X text 454 243 Alexandre Torres Porres (2019);
#X obj 512 195 declare -path else;
#X obj 370 200 group;
#X obj 140 253 group;
#X connect 0 0 6 0;
#X connect 1 0 7 0;
#X connect 1 1 0 0;
#X connect 2 0 17 0;
#X connect 5 0 15 0;
#X connect 6 0 2 0;
#X connect 6 1 17 1;
#X connect 6 1 22 1;
#X connect 7 0 3 0;
#X connect 8 0 1 0;
#X connect 9 0 12 0;
#X connect 10 0 13 0;
#X connect 10 1 9 0;
#X connect 11 0 16 0;
#X connect 12 0 11 0;
#X connect 12 1 16 1;
#X connect 12 1 21 1;
#X connect 13 0 14 0;
#X connect 14 0 3 0;
#X connect 15 0 8 0;
#X connect 15 2 10 0;
#X connect 16 0 21 0;
#X connect 17 0 22 0;
#X connect 21 0 13 1;
#X connect 21 0 4 0;
#X connect 22 0 4 0;
#X connect 22 0 7 1;
