#N canvas 381 68 722 723 10;
#X declare -path else;
#X obj 44 348 route bang;
#X obj 141 417 list length;
#X obj 114 388 t l l;
#X obj 316 771 outlet;
#X obj 105 24 inlet;
#X obj 184 395 v i_\$0;
#X msg 184 311 0;
#X text 57 642 Part of ELSE \; https://github.com/porres/pd-else;
#X obj 214 363 - 1;
#X obj 214 311 clip 1;
#X obj 356 343 mod;
#X obj 356 312 + 1;
#X msg 285 390 0;
#X obj 419 530 list fromsymbol;
#X obj 419 554 t b l;
#X obj 481 624 sel 45;
#X obj 461 690 list tosymbol;
#X obj 316 454 route float symbol;
#X obj 126 527 text set \$0-seq;
#X obj 349 163 text define \$0-seq;
#X obj 285 328 v i_\$0;
#X obj 141 444 s \$0-mod;
#X obj 404 312 r \$0-mod;
#X obj 316 420 text get \$0-seq, f 8;
#X obj 304 174 t b f;
#X obj 165 226 list;
#X obj 32 128 list;
#X obj 32 153 list split 1;
#X obj 108 181 route bang;
#X obj 211 131 route goto, f 5;
#X obj 211 175 route float, f 5;
#X msg 108 206 -1;
#X obj 108 233 text delete \$0-seq, f 6;
#X obj 153 24 inlet;
#X obj 389 343 sel;
#X obj 389 370 s \$0-done;
#X obj 627 728 r \$0-done;
#X obj 627 771 outlet;
#X obj 575 771 outlet;
#X obj 44 325 else/args;
#X obj 461 658 else/group;
#X obj 446 575 else/iterate;
#X obj 461 719 else/symbol2any;
#X text 58 624 Alexandre Torres Porres (2018-2021);
#N canvas 297 403 403 397 bar_idx 0;
#X obj 267 131 sel |;
#X msg 267 162 1;
#X msg 294 162 0;
#X obj 233 193 spigot;
#X obj 233 85 else/order;
#X obj 233 107 else/unmerge;
#X obj 206 227 else/group, f 14;
#X obj 57 263 else/buffer bar_idx_\$0;
#X obj 50 225 array define bar_idx_\$0;
#X obj 206 259 list length;
#X obj 206 298 v size_\$0;
#X obj 206 58 t b a;
#X obj 206 33 inlet;
#X msg 287 267 0;
#X connect 0 0 1 0;
#X connect 0 1 2 0;
#X connect 1 0 3 1;
#X connect 2 0 3 1;
#X connect 3 0 6 0;
#X connect 4 0 5 0;
#X connect 5 0 3 0;
#X connect 5 1 0 0;
#X connect 6 0 7 1;
#X connect 6 0 9 0;
#X connect 6 1 13 0;
#X connect 9 0 10 0;
#X connect 11 0 6 0;
#X connect 11 1 4 0;
#X connect 12 0 11 0;
#X connect 13 0 10 0;
#X restore 113 555 pd bar_idx;
#N canvas 710 492 463 579 find-index 0;
#X obj 203 302 tabread bar_idx_\$0;
#X obj 212 438 + 1;
#X obj 157 434 +;
#X obj 212 340 <=, f 5;
#X msg 121 177 0;
#X obj 212 375 sel 1 0;
#X msg 79 313 pause;
#X obj 195 190 v size_\$0;
#X obj 202 250 else/loop;
#X obj 202 277 t f f, f 23;
#X obj 212 410 float, f 9;
#X obj 157 18 inlet;
#X obj 157 503 outlet;
#X obj 158 469 + 1;
#X obj 157 70 - 1;
#X obj 174 223 sel 0;
#X obj 313 254 +;
#X obj 282 218 else/hot;
#X obj 157 149 t f b f b, f 27;
#X connect 0 0 3 0;
#X connect 1 0 2 1;
#X connect 1 0 17 1;
#X connect 2 0 13 0;
#X connect 3 0 5 0;
#X connect 4 0 2 1;
#X connect 4 0 17 1;
#X connect 5 0 10 0;
#X connect 5 1 6 0;
#X connect 6 0 8 0;
#X connect 7 0 15 0;
#X connect 8 0 9 0;
#X connect 9 0 0 0;
#X connect 9 1 10 1;
#X connect 10 0 1 0;
#X connect 11 0 14 0;
#X connect 13 0 12 0;
#X connect 14 0 18 0;
#X connect 15 1 8 0;
#X connect 16 0 3 1;
#X connect 17 0 16 0;
#X connect 17 1 16 1;
#X connect 18 0 2 0;
#X connect 18 1 7 0;
#X connect 18 2 17 0;
#X connect 18 3 4 0;
#X restore 331 216 pd find-index;
#X obj 573 511 change -1;
#N canvas 554 533 435 486 find-bar# 0;
#X obj 194 224 tabread bar_idx_\$0;
#X obj 203 360 + 1;
#X obj 203 262 <=, f 5;
#X msg 110 128 0;
#X obj 203 297 sel 1 0;
#X msg 70 235 pause;
#X obj 166 127 v size_\$0;
#X obj 193 172 else/loop;
#X obj 193 199 t f f, f 23;
#X obj 203 332 float, f 9;
#X obj 148 20 inlet;
#X obj 148 425 outlet;
#X obj 166 148 sel 0;
#X obj 148 356 f;
#X obj 148 81 t b b b f, f 20;
#X obj 284 153 display;
#X obj 307 127 display;
#X connect 0 0 2 0;
#X connect 1 0 13 1;
#X connect 2 0 4 0;
#X connect 3 0 13 1;
#X connect 4 0 9 0;
#X connect 4 1 5 0;
#X connect 5 0 7 0;
#X connect 6 0 12 0;
#X connect 6 0 15 0;
#X connect 7 0 8 0;
#X connect 8 0 0 0;
#X connect 8 1 9 1;
#X connect 9 0 1 0;
#X connect 10 0 14 0;
#X connect 12 1 7 0;
#X connect 13 0 11 0;
#X connect 14 0 13 0;
#X connect 14 1 6 0;
#X connect 14 2 3 0;
#X connect 14 3 2 1;
#X connect 14 3 16 0;
#X restore 581 482 pd find-bar#;
#X obj 165 251 t l b b;
#X msg 573 312 set -1;
#X obj 165 85 else/routeall set goto bang float clear;
#X msg 349 134 clear;
#X obj 165 57 spigot 0;
#X obj 137 494 s \$0-spigot;
#X msg 137 474 1;
#X obj 403 134 s \$0-spigot;
#X msg 403 111 0;
#X obj 228 57 r \$0-spigot;
#X obj 461 600 else/nmess 1;
#X obj 368 478 sel _ | -;
#X obj 402 771 outlet;
#X obj 419 505 trigger symbol bang;
#X obj 285 355 t b f;
#X obj 44 302 else/lb;
#X obj 474 98 declare -path else;
#X connect 0 1 2 0;
#X connect 1 0 9 2;
#X connect 1 0 21 0;
#X connect 2 0 18 0;
#X connect 2 0 44 0;
#X connect 2 0 54 0;
#X connect 2 1 1 0;
#X connect 4 0 52 0;
#X connect 6 0 5 0;
#X connect 8 0 5 0;
#X connect 9 0 8 0;
#X connect 10 0 20 0;
#X connect 11 0 10 0;
#X connect 11 0 34 0;
#X connect 12 0 23 0;
#X connect 13 0 14 0;
#X connect 14 0 40 0;
#X connect 14 1 41 0;
#X connect 15 0 40 0;
#X connect 15 0 58 1;
#X connect 15 1 40 0;
#X connect 16 0 42 0;
#X connect 17 0 3 0;
#X connect 17 1 59 0;
#X connect 20 0 62 0;
#X connect 22 0 10 1;
#X connect 22 0 34 1;
#X connect 23 0 17 0;
#X connect 24 0 20 0;
#X connect 24 1 45 0;
#X connect 25 0 48 0;
#X connect 26 0 27 0;
#X connect 27 1 28 0;
#X connect 28 0 31 0;
#X connect 28 1 25 0;
#X connect 29 0 30 0;
#X connect 30 0 45 0;
#X connect 30 0 49 0;
#X connect 31 0 32 0;
#X connect 33 0 28 0;
#X connect 34 0 35 0;
#X connect 34 0 49 0;
#X connect 36 0 37 0;
#X connect 39 0 0 0;
#X connect 40 0 16 0;
#X connect 41 0 58 0;
#X connect 42 0 3 0;
#X connect 45 0 9 0;
#X connect 46 0 38 0;
#X connect 47 0 46 0;
#X connect 48 0 2 0;
#X connect 48 1 6 0;
#X connect 48 2 49 0;
#X connect 49 0 46 0;
#X connect 50 0 26 0;
#X connect 50 1 29 0;
#X connect 50 2 20 0;
#X connect 50 3 24 0;
#X connect 50 4 51 0;
#X connect 50 4 56 0;
#X connect 51 0 19 0;
#X connect 52 0 50 0;
#X connect 54 0 53 0;
#X connect 56 0 55 0;
#X connect 57 0 52 1;
#X connect 58 0 40 0;
#X connect 58 1 15 0;
#X connect 59 1 20 0;
#X connect 59 2 60 0;
#X connect 59 3 61 0;
#X connect 61 0 13 0;
#X connect 61 1 58 1;
#X connect 62 0 12 0;
#X connect 62 1 11 0;
#X connect 62 1 47 0;
#X connect 62 1 23 1;
#X connect 63 0 39 0;
