#N canvas 105 23 961 695 12;
#X declare -path else;
#X obj 128 507 -;
#X obj 96 476 t f f;
#X obj 96 447 * 60000;
#X obj 422 297 trigger bang list;
#X obj 422 344 v bpm_\$0;
#X obj 667 394 unpack f f f, f 18;
#X msg 164 507 0;
#X obj 601 592 s \$0-init;
#X obj 164 480 r \$0-init;
#X obj 368 657 outlet;
#X obj 368 182 route float list;
#X obj 886 559 v Q_\$0;
#X obj 779 559 v ln_Q_\$0;
#X obj 682 559 v T_\$0;
#X obj 790 423 v N_\$0;
#X obj 728 423 v S2_\$0;
#X obj 667 423 v S1_\$0;
#X obj 96 391 expr T_\$0 / ln_Q_\$0 * ln(($f1 * ln_Q_\$0 / (T_\$0 *
S1_\$0 ))+1), f 21;
#X obj 811 394 s N_\$0;
#X obj 128 237 r N_\$0;
#X obj 75 213 r \$0-init;
#X obj 57 269 f;
#X obj 96 278 + 1;
#X obj 96 309 moses;
#X obj 128 271 + 1;
#X obj 272 342 v S2_\$0;
#X obj 156 309 trigger bang bang;
#X msg 75 237 0;
#X obj 75 547 delay;
#X obj 75 581 s \$0-next;
#X obj 57 187 r \$0-next;
#X obj 525 592 s \$0-next;
#X obj 128 547 bpm;
#X obj 272 571 v bpm_\$0;
#X obj 496 204 list length;
#X obj 422 220 t l l;
#X obj 496 229 > 2;
#X obj 422 259 router;
#X obj 566 283 t l l;
#X msg 566 311 \$1;
#X obj 230 10 inlet;
#X obj 284 161 list;
#X obj 422 370 max 1;
#X msg 277 101 1;
#X obj 210 126 nmess;
#X obj 598 470 expr delta_\$0 = S2_\$0 - S1_\$0;
#X obj 818 470 v delta_\$0;
#X obj 598 496 != 0;
#X obj 598 520 sel 1;
#X obj 672 505 expr N_\$0 * ln_Q_\$0 / delta_\$0 \; ln(Q_\$0) \; S2_\$0/S1_\$0
;
#X obj 598 546 t b b b;
#X obj 598 443 t b l;
#X obj 513 401 list;
#X obj 709 320 v bpm_\$0;
#X obj 655 237 args;
#X obj 655 208 loadbang;
#X obj 655 261 route bang float;
#X obj 277 70 t b l;
#X obj 230 40 route bang set;
#X msg 655 290 120;
#X text 388 53 The speed change formula is taken from "On Musiquantics"
by Clarence Barlow \, see: http://clarlow.org/wp-content/uploads/2016/10/On-MusiquanticsA4.pdf
(figure 4)., f 76;
#X text 586 129 Part of ELSE \; https://github.com/porres/pd-else;
#X text 588 110 Alexandre Torres Porres (2022);
#X obj 672 657 outlet;
#X obj 672 627 * 60000;
#X obj 764 188 declare -path else;
#X connect 0 0 28 0;
#X connect 0 0 32 0;
#X connect 1 0 0 1;
#X connect 1 1 0 0;
#X connect 2 0 1 0;
#X connect 3 0 4 0;
#X connect 3 1 52 1;
#X connect 4 0 42 0;
#X connect 5 0 16 0;
#X connect 5 1 15 0;
#X connect 5 2 14 0;
#X connect 5 2 18 0;
#X connect 6 0 0 1;
#X connect 8 0 6 0;
#X connect 10 0 4 0;
#X connect 10 0 9 0;
#X connect 10 0 41 1;
#X connect 10 1 35 0;
#X connect 10 1 41 1;
#X connect 17 0 2 0;
#X connect 19 0 24 0;
#X connect 20 0 27 0;
#X connect 21 0 22 0;
#X connect 22 0 21 1;
#X connect 22 0 23 0;
#X connect 23 0 17 0;
#X connect 23 1 26 0;
#X connect 24 0 23 1;
#X connect 25 0 9 0;
#X connect 25 0 33 0;
#X connect 26 0 7 0;
#X connect 26 1 25 0;
#X connect 27 0 21 1;
#X connect 28 0 29 0;
#X connect 30 0 21 0;
#X connect 32 0 9 0;
#X connect 34 0 36 0;
#X connect 35 0 37 0;
#X connect 35 1 34 0;
#X connect 36 0 37 1;
#X connect 37 0 3 0;
#X connect 37 1 38 0;
#X connect 38 0 39 0;
#X connect 38 1 51 0;
#X connect 39 0 4 0;
#X connect 40 0 58 0;
#X connect 41 0 10 0;
#X connect 42 0 52 0;
#X connect 43 0 44 1;
#X connect 44 0 41 0;
#X connect 45 0 47 0;
#X connect 47 0 48 0;
#X connect 48 0 50 0;
#X connect 49 0 13 0;
#X connect 49 0 64 0;
#X connect 49 1 12 0;
#X connect 49 2 11 0;
#X connect 50 0 31 0;
#X connect 50 1 7 0;
#X connect 50 2 49 0;
#X connect 51 0 45 0;
#X connect 51 1 5 0;
#X connect 52 0 51 0;
#X connect 54 0 56 0;
#X connect 55 0 54 0;
#X connect 56 0 59 0;
#X connect 56 1 53 0;
#X connect 57 0 43 0;
#X connect 57 1 41 1;
#X connect 58 0 44 0;
#X connect 58 1 57 0;
#X connect 58 2 10 0;
#X connect 59 0 53 0;
#X connect 64 0 63 0;
