#N canvas 493 57 573 330 10;
#X declare -path else;
#X obj 177 156 == 0;
#X obj 249 129 == 0;
#X msg 249 155 set \$1;
#X obj 177 208 change;
#X obj 177 267 outlet;
#X obj 235 267 outlet;
#X obj 203 73 args;
#X obj 203 96 route bang float;
#X msg 203 128 -1;
#X obj 39 29 inlet;
#X text 310 162 Part of ELSE \; https://github.com/porres/pd-else;
#X text 312 143 Alexandre Torres Porres (2018);
#X obj 39 61 route change bang float;
#X obj 177 182 tgl 15 0 empty empty empty 17 7 0 10 -262144 -1 -1 0
1;
#X obj 177 230 select 0 1, f 20;
#X obj 203 51 lb -init;
#X obj 358 99 declare -path else;
#X connect 0 0 13 0;
#X connect 1 0 2 0;
#X connect 2 0 3 0;
#X connect 3 0 14 0;
#X connect 6 0 7 0;
#X connect 7 0 8 0;
#X connect 7 1 1 0;
#X connect 8 0 2 0;
#X connect 9 0 12 0;
#X connect 12 0 13 0;
#X connect 12 1 3 0;
#X connect 12 2 0 0;
#X connect 13 0 3 0;
#X connect 14 0 4 0;
#X connect 14 1 5 0;
#X connect 15 0 6 0;
