#N canvas 525 268 583 441 10;
#X obj 37 175 trigger bang bang;
#X obj 151 195 symbol;
#X obj 37 221 select symbol;
#X obj 37 195 symbol \$1;
#X obj 413 389 outlet;
#X obj 38 13 inlet;
#X obj 248 108 bang;
#X obj 249 154 purepd_error symbol_argument;
#X obj 37 285 trigger bang bang;
#X obj 151 305 symbol;
#X obj 37 331 select symbol;
#X obj 37 305 symbol \$2;
#X obj 38 74 route bang symbol;
#X obj 38 51 list;
#X msg 248 130 only accepts symbols;
#X connect 0 0 3 0;
#X connect 0 1 1 0;
#X connect 1 0 2 1;
#X connect 2 0 8 0;
#X connect 2 1 4 0;
#X connect 3 0 2 0;
#X connect 5 0 13 0;
#X connect 6 0 14 0;
#X connect 8 0 11 0;
#X connect 8 1 9 0;
#X connect 9 0 10 1;
#X connect 10 1 4 0;
#X connect 11 0 10 0;
#X connect 12 0 0 0;
#X connect 12 1 4 0;
#X connect 12 2 6 0;
#X connect 13 0 12 0;
#X connect 14 0 7 0;
