#N canvas 657 214 647 259 10;
#X obj 89 29 inlet;
#X text 426 128 Part of ELSE \; https://github.com/porres/pd-else;
#X text 428 109 Alexandre Torres Porres (2018);
#X obj 89 57 symbol;
#X obj 89 83 select clock tick start continue stop sensing reset;
#X msg 89 132 248;
#X msg 175 132 250;
#X msg 218 132 251;
#X msg 262 132 252;
#X msg 348 132 255;
#X msg 305 132 254;
#X obj 222 195 outlet;
#X msg 132 132 249;
#X connect 0 0 3 0;
#X connect 3 0 4 0;
#X connect 4 0 5 0;
#X connect 4 1 12 0;
#X connect 4 2 6 0;
#X connect 4 3 7 0;
#X connect 4 4 8 0;
#X connect 4 5 10 0;
#X connect 4 6 9 0;
#X connect 5 0 11 0;
#X connect 6 0 11 0;
#X connect 7 0 11 0;
#X connect 8 0 11 0;
#X connect 9 0 11 0;
#X connect 10 0 11 0;
#X connect 12 0 11 0;
