#N canvas 708 152 709 445 10;
#X declare -path else;
#X obj 186 258 *~;
#X obj 186 55 inlet~;
#X obj 251 55 inlet;
#X obj 69 389 outlet~;
#X obj 251 280 *~;
#X text 321 35 Depth;
#X obj 251 307 +~;
#X obj 322 321 expr~ 1 - $v1;
#X obj 322 54 inlet;
#X obj 322 270 clip 0 1;
#X text 253 35 Hz;
#X text 186 35 input;
#X text 441 252 Part of ELSE \; https://github.com/porres/pd-else;
#X text 443 233 Alexandre Torres Porres (2018);
#X obj 335 115 args;
#X obj 335 142 route bang float list;
#X obj 376 173 unpack;
#X msg 335 215 1;
#X obj 251 235 osc~;
#X obj 69 323 xselect~ 2 10 2;
#X obj 204 155 != 0;
#X obj 322 295 f2s~ 10;
#X obj 204 202 change;
#X obj 204 178 + 1;
#X obj 335 90 lb -init;
#X obj 475 201 declare -path else;
#X connect 0 0 19 1;
#X connect 1 0 0 0;
#X connect 1 0 19 0;
#X connect 2 0 18 0;
#X connect 2 0 20 0;
#X connect 4 0 6 0;
#X connect 6 0 0 1;
#X connect 7 0 6 1;
#X connect 8 0 9 0;
#X connect 9 0 21 0;
#X connect 14 0 15 0;
#X connect 15 0 17 0;
#X connect 15 1 16 0;
#X connect 15 2 16 0;
#X connect 16 0 18 0;
#X connect 16 0 20 0;
#X connect 16 1 9 0;
#X connect 17 0 9 0;
#X connect 18 0 4 0;
#X connect 19 0 3 0;
#X connect 20 0 23 0;
#X connect 21 0 7 0;
#X connect 21 0 4 1;
#X connect 22 0 19 0;
#X connect 23 0 22 0;
#X connect 24 0 14 0;
