#N canvas 696 205 555 265 10;
#X declare -path else;
#X obj 41 195 outlet~;
#X obj 144 85 noisegate~ -60 50, f 15;
#N canvas 213 23 302 293 route 0;
#X msg 142 180 all q \$1;
#X msg 61 172 \$1 freq \$2;
#X obj 61 147 order;
#X obj 108 54 inlet;
#X obj 142 221 outlet;
#X obj 164 59 inlet;
#X obj 192 114 route float;
#X obj 108 114 route freq q;
#X connect 0 0 4 0;
#X connect 1 0 4 0;
#X connect 2 0 1 0;
#X connect 3 0 7 0;
#X connect 5 0 6 0;
#X connect 6 0 0 0;
#X connect 7 0 2 0;
#X connect 7 1 0 0;
#X restore 248 78 pd route;
#X text 290 151 Part of ELSE \; https://github.com/porres/pd-else;
#X text 292 132 Alexandre Torres Porres (2018);
#X obj 144 33 inlet~;
#N canvas 818 42 399 373 args 0;
#X obj 87 63 args;
#X obj 186 320 outlet;
#X obj 87 173 unpack;
#X obj 87 93 break -;
#X obj 199 260 list prepend freq;
#X obj 199 287 list trim;
#X msg 186 175 50;
#N canvas 439 153 319 414 freq-list 0;
#X obj 83 36 inlet;
#X obj 104 117 until;
#X obj 141 147 +;
#X obj 156 116 expr 80/$f1;
#X obj 104 143 f;
#X obj 104 170 + 28;
#X obj 132 239 list;
#X obj 104 202 list prepend;
#X obj 83 245 list;
#X obj 83 289 outlet;
#X obj 83 69 t b f f;
#X connect 0 0 10 0;
#X connect 1 0 4 0;
#X connect 2 0 4 1;
#X connect 3 0 2 1;
#X connect 4 0 2 0;
#X connect 4 0 5 0;
#X connect 5 0 7 0;
#X connect 6 0 7 1;
#X connect 7 0 6 0;
#X connect 7 0 8 1;
#X connect 8 0 9 0;
#X connect 10 0 8 0;
#X connect 10 1 1 0;
#X connect 10 2 3 0;
#X restore 87 209 pd freq-list;
#X msg 186 206 q \$1;
#X obj 87 126 route float list -freq, f 11;
#X obj 87 30 loadbanger -init 2;
#X connect 0 0 3 0;
#X connect 2 0 7 0;
#X connect 2 1 8 0;
#X connect 3 0 9 0;
#X connect 4 0 5 0;
#X connect 5 0 1 0;
#X connect 6 0 8 0;
#X connect 7 0 4 0;
#X connect 8 0 1 0;
#X connect 9 0 2 0;
#X connect 9 1 2 0;
#X connect 9 2 4 0;
#X connect 10 0 0 0;
#X connect 10 1 6 0;
#X restore 247 45 pd args;
#X obj 41 131 clone \$1 vocoder.band_clone, f 35;
#X obj 41 162 norm~ -6;
#X obj 41 84 noisegate~ -60 50, f 15;
#X obj 41 33 inlet~ fwd;
#X obj 323 28 inlet;
#X obj 358 95 declare -path else;
#X connect 1 0 7 1;
#X connect 2 0 7 2;
#X connect 5 0 1 0;
#X connect 6 0 2 0;
#X connect 7 0 8 0;
#X connect 8 0 0 0;
#X connect 9 0 7 0;
#X connect 10 0 9 0;
#X connect 10 1 2 0;
#X connect 11 0 2 1;
