#N canvas 794 200 602 361 10;
#X declare -path else;
#X obj 209 41 inlet;
#X obj 147 268 *~;
#X obj 66 152 mtof;
#X obj 147 309 outlet~;
#X obj 41 40 inlet~;
#X obj 162 41 inlet~;
#X obj 209 72 route freq q;
#X obj 41 197 bandpass~;
#X obj 162 197 bandpass~;
#X text 308 172 Part of ELSE \; https://github.com/porres/pd-else;
#X text 312 216 This is an abstraction used on the [vocoder~] object
, f 27;
#X text 310 153 Alexandre Torres Porres (2018);
#X obj 162 228 mov.rms~ 512;
#X obj 357 118 declare -path else;
#X connect 0 0 6 0;
#X connect 1 0 3 0;
#X connect 2 0 7 1;
#X connect 2 0 8 1;
#X connect 4 0 7 0;
#X connect 5 0 8 0;
#X connect 6 0 2 0;
#X connect 6 1 8 2;
#X connect 6 1 7 2;
#X connect 7 0 1 0;
#X connect 8 0 12 0;
#X connect 12 0 1 1;
