#N canvas 521 83 649 492 12;
#X declare -path else;
#N canvas 390 32 472 400 control 0;
#X obj 198 138 phasor~;
#X obj 68 250 tabsend~ \$0-env;
#X obj 198 215 tabsend~ \$0-fb;
#X obj 69 275 table \$0-env 256;
#X obj 195 238 table \$0-fb 256;
#X obj 68 218 function~;
#X obj 198 183 function~;
#X obj 289 153 block~ 256;
#X obj 68 60 inlet;
#X obj 118 60 inlet;
#X obj 198 103 blocksize~ -hz;
#X connect 0 0 5 0;
#X connect 0 0 6 0;
#X connect 5 0 1 0;
#X connect 6 0 2 0;
#X connect 8 0 5 0;
#X connect 9 0 6 0;
#X connect 10 0 0 0;
#X coords 0 400 1 399 430 184 0;
#X restore 261 366 pd control;
#X obj 78 135 out~;
#N canvas 489 65 578 521 Feedback-Delay 0;
#X obj 136 136 block~ 512 4;
#X obj 82 40 inlet~;
#X obj 82 262 rfft~;
#X obj 202 366 rifft~;
#X obj 202 459 outlet~;
#X obj 202 396 /~ 768;
#X obj 378 278 *~;
#X obj 378 220 tabreceive~ \$0-fb;
#X obj 422 254 r \$0-feedback;
#X obj 361 126 r \$0-del-depth;
#X obj 275 89 tabreceive~ \$0-env;
#X obj 82 218 hann~;
#X obj 202 431 hann~;
#X obj 447 154 blocksize~ -ms;
#X obj 275 179 expr~ rint($v1*$v2) * $f3;
#X obj 361 151 f2s~ 10;
#X obj 422 278 f2s~ 100;
#X obj 82 327 comb.rev~ 2223 0 1 0;
#X obj 241 326 comb.rev~ 2223 0 1 0;
#X connect 1 0 11 0;
#X connect 2 0 17 0;
#X connect 2 1 18 0;
#X connect 3 0 5 0;
#X connect 5 0 12 0;
#X connect 6 0 17 4;
#X connect 6 0 18 4;
#X connect 7 0 6 0;
#X connect 8 0 16 0;
#X connect 9 0 15 0;
#X connect 10 0 14 0;
#X connect 11 0 2 0;
#X connect 12 0 4 0;
#X connect 13 0 14 2;
#X connect 14 0 17 1;
#X connect 14 0 18 1;
#X connect 15 0 14 1;
#X connect 16 0 6 1;
#X connect 17 0 3 0;
#X connect 18 0 3 1;
#X coords 0 0 1 1 230 100 0;
#X restore 78 88 pd Feedback-Delay;
#X obj 137 398 hsl 160 23 0 200 0 0 \$0-del-depth \$0-del-depth-set
Delay-Depth 15 11 0 19 -66577 -204800 -262144 0 0;
#X obj 347 397 hsl 160 23 0 1 0 0 \$0-feedback \$0-feedback-set Feedback
40 11 0 19 -66577 -204800 -262144 0 0;
#X obj 328 211 initmess 0 0.5 1 0.5 0;
#X text 242 99 As a variation of the last example \, we have also a
feedback line and use the [comb.rev~] object for both feedforward and
feedback lines. We also have an envelope for different feedback values
for each frequency bin., f 47;
#X obj 457 31 declare -path else;
#X obj 78 53 play.file~ guitar.wav 1 1;
#X obj 111 253 function 200 100 empty empty 0 1 220 220 220 50 50 50
0 0 0 0 0 0.5 1 0.5 0;
#X obj 328 253 function 200 100 empty empty 0 1 220 220 220 50 50 50
0 0 0 0 0 0.5 1 0.5 0;
#X connect 2 0 1 0;
#X connect 5 0 9 0;
#X connect 5 0 10 0;
#X connect 8 0 2 0;
#X connect 9 0 0 0;
#X connect 10 0 0 1;
#X coords 0 0 1 1 560 350 0;
