#N canvas 739 616 204 319 10;
#X obj 12 45 inlet~;
#X obj 94 97 inlet;
#X msg 134 54 1 \$1;
#X obj 134 75 /;
#X obj 134 12 inlet;
#X obj 12 265 *~;
#X obj 12 286 outlet~;
#X msg 134 96 1 \$1;
#X obj 134 117 -;
#X obj 134 33 max 1;
#X obj 32 71 env~ 512;
#X obj 32 92 - 100;
#X obj 32 155 min 0;
#X obj 32 133 * 2;
#X obj 32 113 - -20;
#X obj 32 197 line~;
#X obj 32 218 +~ 100;
#X obj 32 239 dbtorms~;
#X msg 32 176 \$1 11;
#X connect 0 0 5 0;
#X connect 0 0 10 0;
#X connect 1 0 14 1;
#X connect 2 0 3 0;
#X connect 3 0 7 0;
#X connect 4 0 9 0;
#X connect 5 0 6 0;
#X connect 7 0 8 0;
#X connect 8 0 13 1;
#X connect 9 0 2 0;
#X connect 10 0 11 0;
#X connect 11 0 14 0;
#X connect 12 0 18 0;
#X connect 13 0 12 0;
#X connect 14 0 13 0;
#X connect 15 0 16 0;
#X connect 16 0 17 0;
#X connect 17 0 5 1;
#X connect 18 0 15 0;
