#N canvas 882 413 533 269 10;
#X obj 12 114 t b b;
#X msg 39 140 stop;
#X msg 81 187 0;
#X obj 12 213 change;
#X msg 12 178 1;
#X obj 81 166 del 52;
#X obj 12 234 outlet;
#X obj 12 72 key;
#X obj 12 93 sel \$1;
#X obj 81 124 keyup;
#X obj 81 145 sel \$1;
#X connect 0 0 4 0;
#X connect 0 1 1 0;
#X connect 1 0 5 0;
#X connect 2 0 3 0;
#X connect 3 0 6 0;
#X connect 4 0 3 0;
#X connect 5 0 2 0;
#X connect 7 0 8 0;
#X connect 8 0 0 0;
#X connect 9 0 10 0;
#X connect 10 0 5 0;
