#N canvas 955 453 710 568 10;
#X obj 296 452 line~;
#X obj 296 473 outlet~;
#X obj 110 12 loadbang;
#X obj 110 33 f \$2;
#X obj 110 75 text get \$1-tune;
#X obj 110 117 unpack f f;
#X obj 110 154 -;
#X obj 12 149 / 127;
#X obj 12 170 *;
#X obj 179 186 +;
#X obj 179 207 mtof;
#X obj 110 54 - 1;
#X msg 110 97 \$2 \$1;
#X obj 167 138 t f f;
#X msg 296 431 \$1 23.22;
#X obj 276 274 ftom;
#X obj 276 295 + 0.5;
#X obj 276 316 i;
#X obj 179 258 t f f;
#X obj 179 358 f;
#X obj 276 358 f;
#X obj 296 208 t f f;
#X msg 276 379 1 \$1;
#X msg 179 379 0 \$1;
#X obj 296 410 route;
#X obj 227 248 sel 0 1;
#X obj 276 337 mtof;
#X obj 217 191 inlet;
#X obj 179 228 *;
#X obj 217 212 t b f;
#X text 217 171 pitch;
#X obj 12 128 r \$1-s-tune-\$2;
#X obj 296 187 r \$1-s-quantize;
#X connect 0 0 1 0;
#X connect 2 0 3 0;
#X connect 3 0 11 0;
#X connect 4 0 12 0;
#X connect 5 0 6 0;
#X connect 5 1 13 0;
#X connect 6 0 8 1;
#X connect 7 0 8 0;
#X connect 8 0 9 0;
#X connect 9 0 10 0;
#X connect 10 0 28 0;
#X connect 11 0 4 0;
#X connect 12 0 5 0;
#X connect 13 0 6 1;
#X connect 13 1 9 1;
#X connect 14 0 0 0;
#X connect 15 0 16 0;
#X connect 16 0 17 0;
#X connect 17 0 26 0;
#X connect 18 0 19 0;
#X connect 18 1 15 0;
#X connect 19 0 23 0;
#X connect 20 0 22 0;
#X connect 21 0 25 0;
#X connect 21 1 24 1;
#X connect 22 0 24 0;
#X connect 23 0 24 0;
#X connect 24 0 14 0;
#X connect 25 0 19 0;
#X connect 25 1 20 0;
#X connect 26 0 20 0;
#X connect 27 0 29 0;
#X connect 28 0 18 0;
#X connect 29 0 28 0;
#X connect 29 1 28 1;
#X connect 31 0 7 0;
#X connect 32 0 21 0;
