#N canvas 486 23 564 578 10;
#X obj 4 551 cnv 15 552 21 empty empty empty 20 12 0 14 #e0e0e0 #202020
0;
#X obj 4 330 cnv 3 550 3 empty empty inlets 8 12 0 13 #dcdcdc #000000
0;
#X obj 4 458 cnv 3 550 3 empty empty outlets 8 12 0 13 #dcdcdc #000000
0;
#X obj 4 489 cnv 3 550 3 empty empty arguments 8 12 0 13 #dcdcdc #000000
0;
#X obj 116 411 cnv 17 3 17 empty empty 1 5 9 0 16 #dcdcdc #9c9c9c 0
;
#X obj 116 434 cnv 17 3 17 empty empty 2 5 9 0 16 #dcdcdc #9c9c9c 0
;
#X obj 116 466 cnv 17 3 17 empty empty 0 5 9 0 16 #dcdcdc #9c9c9c 0
;
#X obj 116 339 cnv 17 3 66 empty empty 0 5 9 0 16 #dcdcdc #9c9c9c 0
;
#X text 193 467 signal - the filtered signal;
#X obj 131 162 noise~;
#X obj 175 194 *~;
#X obj 175 266 else/out~;
#X obj 4 4 cnv 15 301 42 empty empty allpass.rev~ 20 20 2 37 #e0e0e0
#000000 0;
#X obj 307 5 cnv 15 250 40 empty empty empty 12 13 0 18 #7c7c7c #e0e4dc
0;
#N canvas 0 22 450 278 (subpatch) 0;
#X coords 0 1 100 -1 302 42 1;
#X restore 3 4 graph;
#X obj 346 12 cnv 10 10 10 empty empty ELSE 0 15 2 30 #7c7c7c #e0e4dc
0;
#X obj 24 41 cnv 4 4 4 empty empty Allpass 0 28 2 18 #e0e0e0 #000000
0;
#X obj 86 41 cnv 4 4 4 empty empty reverberator 0 28 2 18 #e0e0e0 #000000
0;
#X obj 459 12 cnv 10 10 10 empty empty EL 0 6 2 13 #7c7c7c #e0e4dc
0;
#X obj 479 12 cnv 10 10 10 empty empty Locus 0 6 2 13 #7c7c7c #e0e4dc
0;
#X obj 516 12 cnv 10 10 10 empty empty Solus' 0 6 2 13 #7c7c7c #e0e4dc
0;
#X obj 465 27 cnv 10 10 10 empty empty ELSE 0 6 2 13 #7c7c7c #e0e4dc
0;
#X obj 503 27 cnv 10 10 10 empty empty library 0 6 2 13 #7c7c7c #e0e4dc
0;
#N canvas 0 22 450 278 (subpatch) 0;
#X coords 0 1 100 -1 252 42 1 0 0;
#X restore 306 4 graph;
#X obj 328 210 nbx 5 14 -1e+37 1e+37 0 0 empty empty empty 0 -8 0 10
#dcdcdc #000000 #000000 0 256;
#X obj 251 188 nbx 5 14 0 100 0 0 empty empty empty 0 -8 0 10 #dcdcdc
#000000 #000000 0 256;
#X text 191 338 signal - signal input to the filter, f 49;
#X text 307 188 Delay time (ms);
#X text 387 211 Decay time (ms);
#N canvas 522 182 855 362 Details 0;
#X text 172 254 D = Delay time in ms;
#X floatatom 553 209 5 0 1000 0 - - - 0;
#X floatatom 630 210 8 0 100 0 - - - 0;
#X obj 633 186 hsl 128 15 -1000 1000 0 0 empty empty empty -2 -8 0
10 #dcdcdc #000000 #000000 0 1;
#X obj 477 272 else/out~;
#X text 378 58 Negative values of t60 generate negative feedback of
the same absolute value as its absolute input., f 60;
#X obj 477 152 bng 15 250 50 0 empty empty empty 17 7 0 10 #dcdcdc
#000000 #000000;
#X obj 39 100 cnv 15 260 120 empty empty empty 20 12 0 14 #dcdcdc #404040
0;
#X text 89 113 |;
#X text 89 125 |;
#X text 89 137 |;
#X text 70 148 |;
#X text 112 148 |;
#X text 112 168 |;
#X text 70 168 |;
#X text 73 139 _______;
#X text 73 168 _______;
#X text 118 157 -----;
#X text 89 140 v;
#X text 144 139 |;
#X text 144 151 |;
#X text 144 115 |;
#X text 144 127 |;
#X text 144 114 ^;
#X text 230 113 |;
#X text 230 125 |;
#X text 230 137 |;
#X text 211 148 |;
#X text 253 148 |;
#X text 253 168 |;
#X text 211 168 |;
#X text 214 139 _______;
#X text 214 168 _______;
#X text 230 140 v;
#X text 175 139 |;
#X text 175 151 |;
#X text 175 115 |;
#X text 175 127 |;
#X text 175 114 ^;
#X text 251 104 >;
#X text 177 157 -(*a)-;
#X text 70 158 | z^-D |;
#X text 211 158 | z^-D |;
#X text 53 196 y(n) = -a * x(n) + x(n-D) + a * y(n-D);
#X text 49 105 x[n] ---(*-a)--(+)--(+)----------- y[n];
#X text 36 27 An "All Pass Filter" passes all frequencies without altering
their gain \, but affects the phase response., f 44;
#X text 36 73 Here's All Pass filter diagram and equation:;
#X text 653 185 decay time (ms);
#X text 693 209 (t60);
#X text 526 208 (D);
#X text 36 291 For a delay time of 0 \, The object is bypassed!;
#X msg 415 205 size \$1;
#X msg 425 180 100;
#X msg 415 155 1000;
#X text 378 138 change delay size:, f 13;
#X text 378 89 The [apass2~] object performs a simple linear interpolation
for delay time that falls in between sample values.;
#X obj 477 176 else/impseq~;
#X text 377 14 By default \, the 'a' coefficient is calculated in [apass2~]
from the decay time parameter (t60) and delay time (D) according to
the expression: a = exp(log(0.001) * D/t60).;
#X text 172 238 a = gain coefficient;
#X obj 477 234 else/allpass.rev~ 100 1000;
#X connect 1 0 59 1;
#X connect 2 0 59 2;
#X connect 3 0 2 0;
#X connect 6 0 56 0;
#X connect 51 0 59 0;
#X connect 52 0 51 0;
#X connect 53 0 51 0;
#X connect 56 0 59 0;
#X connect 59 0 4 0;
#X restore 438 287 pd Details and \; Filter Equation;
#X text 156 411 float/signal - delay time (in ms), f 54;
#X text 156 436 float/signal - decay time (in ms), f 54;
#X text 111 495 1) float - maximum and initial delay time in ms (default
0), f 60;
#X text 111 512 2) float - decay time in ms (default 0), f 60;
#X text 240 354 - changes the maximum delay size (in ms), f 42;
#X text 147 354 size <float>;
#X text 198 371 clear - clears the delay buffer, f 48;
#X obj 190 162 else/pulse~ 1 0.25;
#X obj 251 208 sig~ 10;
#X text 240 388 - non-0 sets to gain mode;
#X text 111 529 3) float - non-0 sets to gain mode (default 0), f
60;
#N canvas 680 207 505 310 gain 0;
#X obj 207 141 else/impseq~;
#X obj 207 114 bng 15 250 50 0 empty empty empty 17 7 0 10 #dcdcdc
#000000 #000000;
#X obj 207 218 else/out~;
#X obj 139 118 tgl 15 0 empty empty empty 17 7 0 10 #dcdcdc #000000
#000000 0 1;
#X msg 139 141 gain \$1;
#X text 30 23 By default \, the reverberation/decay time is in "t60"
\, which is the time in ms that the impulse takes to fall 60dB in energy.
You can change this parameter to a gain coefficient value with the
third argument \, where a non zero value sets to "gain mode". You can
also change that with the "gain" message., f 72;
#X obj 207 175 else/allpass.rev~ 10 0.9 1;
#X connect 0 0 6 0;
#X connect 1 0 0 0;
#X connect 3 0 4 0;
#X connect 4 0 6 0;
#X connect 6 0 2 0;
#X restore 459 262 pd gain mode;
#X text 146 388 gain <float>;
#X obj 175 232 else/allpass.rev~ 100 1000;
#X text 61 89 Use [allpass.rev~] as a reverberator \, allpass filter
and delay. By default \, you can set a delay time and a reverberation/decay
time in ms ("t60") \, which is the time the impulse takes to fall 60dB
in energy (but you can change this parameter to a gain coefficient).
, f 67;
#X connect 9 0 10 0;
#X connect 10 0 43 0;
#X connect 24 0 43 2;
#X connect 25 0 38 0;
#X connect 37 0 10 1;
#X connect 38 0 43 1;
#X connect 43 0 11 0;
