#N canvas 394 23 561 605 10;
#X obj 3 3 cnv 15 301 42 empty empty Autotune 20 20 2 37 #e0e0e0 #000000
0;
#X obj 306 4 cnv 15 250 40 empty empty empty 12 13 0 18 #7c7c7c #e0e4dc
0;
#N canvas 0 22 450 278 (subpatch) 1;
#N canvas 0 22 450 278 (subpatch) 0;
#X text 0 0 plugdatainfo;
#X coords 0 1 100 -1 1 1 1;
#X restore 0 0 graph;
#X coords 0 1 100 -1 302 42 1 0 0;
#X restore 3 3 graph;
#N canvas 382 141 749 319 (subpatch) 1;
#N canvas 0 22 450 278 (subpatch) 0;
#X text 0 0 plugdatainfo;
#X coords 0 1 100 -1 1 1 1;
#X restore 0 0 graph;
#X coords 0 -1 1 1 252 42 2 100 100;
#X restore 305 3 pd;
#X obj 345 11 cnv 10 10 10 empty empty ELSE 0 15 2 30 #7c7c7c #e0e4dc
0;
#X obj 23 40 cnv 4 4 4 empty empty Retune 0 28 2 18 #e0e0e0 #000000
0;
#X obj 458 11 cnv 10 10 10 empty empty EL 0 6 2 13 #7c7c7c #e0e4dc
0;
#X obj 478 11 cnv 10 10 10 empty empty Locus 0 6 2 13 #7c7c7c #e0e4dc
0;
#X obj 515 11 cnv 10 10 10 empty empty Solus' 0 6 2 13 #7c7c7c #e0e4dc
0;
#X obj 464 26 cnv 10 10 10 empty empty ELSE 0 6 2 13 #7c7c7c #e0e4dc
0;
#X obj 502 26 cnv 10 10 10 empty empty library 0 6 2 13 #7c7c7c #e0e4dc
0;
#X obj 84 40 cnv 4 4 4 empty empty to 0 28 2 18 #e0e0e0 #000000 0;
#X obj 217 40 cnv 4 4 4 empty empty step 0 28 2 18 #e0e0e0 #000000
0;
#X obj 107 40 cnv 4 4 4 empty empty a 0 28 2 18 #e0e0e0 #000000 0;
#X obj 126 40 cnv 4 4 4 empty empty close 0 28 2 18 #e0e0e0 #000000
0;
#X obj 4 396 cnv 3 550 4 empty empty inlets 8 12 0 13 #dcdcdc #000000
0;
#X obj 4 477 cnv 3 550 4 empty empty outlets 8 12 0 13 #dcdcdc #000000
0;
#X obj 4 548 cnv 3 550 4 empty empty arguments 8 12 0 13 #dcdcdc #000000
0;
#X obj 139 486 cnv 17 4 17 empty empty 0 5 9 0 16 #dcdcdc #9c9c9c 0
;
#X obj 4 578 cnv 15 552 21 empty empty empty 20 12 0 14 #e0e0e0 #202020
0;
#X obj 139 403 cnv 17 4 42 empty empty 0 5 9 0 16 #dcdcdc #9c9c9c 0
;
#X text 210 403 float;
#X obj 139 452 cnv 17 4 17 empty empty 1 5 9 0 16 #dcdcdc #9c9c9c 0
;
#X text 249 402 - MIDI pitch to be retuned;
#X text 215 454 list;
#X text 249 453 - scale in cents;
#X text 168 417 base <float>;
#X text 249 416 - MIDI pitch base;
#X obj 4 512 cnv 3 550 4 empty empty flags 8 12 0 13 #dcdcdc #000000
0;
#X text 150 524 -base <float>: base MIDI pitch (default 60);
#X text 130 556 1) list - scale in cents (default: equal temperament)
;
#X obj 172 40 cnv 4 4 4 empty empty scale 0 28 2 18 #e0e0e0 #000000
0;
#X obj 131 149 keyboard 17 80 2 3 0 0 empty empty;
#X floatatom 131 265 4 -3.40282e+38 3.40282e+38 0 empty - - 0;
#X obj 131 240 stripnote;
#X obj 429 179 mtof;
#X obj 429 210 osc~;
#X obj 429 241 out~;
#X obj 429 155 r \$0-pitch;
#X obj 131 363 s \$0-pitch;
#X text 353 347 see also:;
#X obj 422 344 retune;
#X obj 131 333 display 6;
#X floatatom 61 220 5 -3.40282e+38 3.40282e+38 0 empty - - 0;
#X msg 61 240 base \$1, f 10;
#X text 59 90 [autotune] receives a scale as a list of steps in cents
and a base MIDI pitch value (default 60). It then retunes incoming
MIDI pitches to the closest step in the scale., f 67;
#X obj 131 291 autotune -base 57 0 110 190 320 410 480 590 610 690
805 895 990 1110 1200, f 40;
#X obj 422 323 autotune2;
#X obj 422 365 frac2dec;
#X floatatom 81 287 5 -3.40282e+38 3.40282e+38 0 empty - - 0;
#X msg 226 264 bypass \$1, f 13;
#X obj 226 242 tgl 15 0 empty empty empty 17 7 0 10 #fcfcfc #000000
#000000 0 1;
#X text 156 431 bypass <float>;
#X text 249 430 - non zero sets to bypass mode;
#N canvas 0 22 450 278 (subpatch) 0;
#X text 0 0 plugdatainfo <?xml version="1.0" encoding="UTF-8"?> <PlugDataInfo/>
;
#X coords 0 1 100 -1 1 1 1;
#X restore 0 0 graph;
#X text 216 486 float;
#X text 249 486 - tuned MIDI pitch;
#X connect 32 0 34 0;
#X connect 33 0 46 0;
#X connect 34 0 33 0;
#X connect 35 0 36 0;
#X connect 36 0 37 0;
#X connect 38 0 35 0;
#X connect 42 0 39 0;
#X connect 43 0 44 0;
#X connect 44 0 46 0;
#X connect 46 0 42 0;
#X connect 49 0 42 0;
#X connect 50 0 46 0;
#X connect 51 0 50 0;
