#N canvas 476 61 562 465 10;
#X obj 3 3 cnv 15 301 42 empty empty Autotune2 20 20 2 37 #e0e0e0 #000000
0;
#X obj 306 4 cnv 15 250 40 empty empty empty 12 13 0 18 #7c7c7c #e0e4dc
0;
#N canvas 0 22 450 278 (subpatch) 0;
#X coords 0 1 100 -1 302 42 1 0 0;
#X restore 3 3 graph;
#N canvas 382 141 749 319 (subpatch) 0;
#X coords 0 -1 1 1 252 42 2 100 100;
#X restore 305 3 pd;
#X obj 345 11 cnv 10 10 10 empty empty ELSE 0 15 2 30 #7c7c7c #e0e4dc
0;
#X obj 23 40 cnv 4 4 4 empty empty Retune 0 28 2 18 #e0e0e0 #000000
0;
#X obj 458 11 cnv 10 10 10 empty empty EL 0 6 2 13 #7c7c7c #e0e4dc
0;
#X obj 478 11 cnv 10 10 10 empty empty Locus 0 6 2 13 #7c7c7c #e0e4dc
0;
#X obj 515 11 cnv 10 10 10 empty empty Solus' 0 6 2 13 #7c7c7c #e0e4dc
0;
#X obj 464 26 cnv 10 10 10 empty empty ELSE 0 6 2 13 #7c7c7c #e0e4dc
0;
#X obj 502 26 cnv 10 10 10 empty empty library 0 6 2 13 #7c7c7c #e0e4dc
0;
#X obj 84 40 cnv 4 4 4 empty empty to 0 28 2 18 #e0e0e0 #000000 0;
#X obj 217 40 cnv 4 4 4 empty empty step 0 28 2 18 #e0e0e0 #000000
0;
#X obj 107 40 cnv 4 4 4 empty empty a 0 28 2 18 #e0e0e0 #000000 0;
#X obj 126 40 cnv 4 4 4 empty empty close 0 28 2 18 #e0e0e0 #000000
0;
#X obj 4 293 cnv 3 550 3 empty empty inlets 8 12 0 13 #dcdcdc #000000
0;
#X obj 4 370 cnv 3 550 3 empty empty outlets 8 12 0 13 #dcdcdc #000000
0;
#X obj 4 404 cnv 3 550 3 empty empty arguments 8 12 0 13 #dcdcdc #000000
0;
#X obj 135 378 cnv 17 3 17 empty empty 0 5 9 0 16 #dcdcdc #9c9c9c 0
;
#X obj 4 436 cnv 15 552 21 empty empty empty 20 12 0 14 #e0e0e0 #202020
0;
#X obj 133 301 cnv 17 3 34 empty empty 0 5 9 0 16 #dcdcdc #9c9c9c 0
;
#X text 223 379 list;
#X text 256 379 - scale in cents;
#X text 217 302 float;
#X obj 133 344 cnv 17 3 17 empty empty 1 5 9 0 16 #dcdcdc #9c9c9c 0
;
#X text 222 345 list;
#X text 130 412 1) list - scale in cents (default: equal temperament)
;
#X obj 172 40 cnv 4 4 4 empty empty scale 0 28 2 18 #e0e0e0 #000000
0;
#X floatatom 138 170 0 0 0 0 - - - 0;
#X obj 386 195 osc~;
#X obj 386 223 out~;
#X text 17 227 see also:;
#X obj 16 247 else/autotune;
#X obj 141 142 hsl 200 18 -2400 2400 0 0 empty empty empty -2 -8 0
10 #dcdcdc #000000 #000000 0 1;
#X obj 138 235 nbx 8 14 -1e+37 1e+37 0 0 empty empty empty 0 -8 0 12
#dcdcdc #000000 #000000 0 256;
#X obj 138 258 s \$0-cents;
#X obj 386 147 r \$0-cents;
#X obj 386 168 expr mtof(($f1/100) + 69);
#X text 59 90 [autotune2] receives a scale as a list of steps in cents
and then retunes incoming cents values to the closest step in the scale.
, f 67;
#X text 256 344 - scale in cents;
#X text 256 301 - cents value to be retuned;
#X obj 138 196 else/autotune2 0 110 190 320 410 480 590 610 690 805
895 990 1110 1200, f 36;
#X text 163 319 bypass <float>;
#X text 256 319 - non zero sets to bypass mode;
#X msg 60 163 bypass \$1;
#X obj 60 141 tgl 15 0 empty empty empty 17 7 0 10 #fcfcfc #000000
#000000 0 1;
#X connect 28 0 41 0;
#X connect 29 0 30 0;
#X connect 33 0 28 0;
#X connect 34 0 35 0;
#X connect 36 0 37 0;
#X connect 37 0 29 0;
#X connect 41 0 34 0;
#X connect 44 0 41 0;
#X connect 45 0 44 0;
