#N canvas 563 34 561 475 10;
#X obj 23 40 cnv 4 4 4 empty empty Midi 0 28 2 18 #e0e0e0 #000000 0
;
#X obj 66 40 cnv 4 4 4 empty empty pitch 0 28 2 18 #e0e0e0 #000000
0;
#X obj 3 3 cnv 15 301 42 empty empty bend.in 20 20 2 37 #e0e0e0 #000000
0;
#N canvas 0 22 450 278 (subpatch) 0;
#X coords 0 1 100 -1 302 42 1 0 0;
#X restore 3 3 graph;
#X obj 2 263 cnv 3 550 3 empty empty inlets 8 12 0 13 #dcdcdc #000000
0;
#X obj 2 320 cnv 3 550 3 empty empty outlets 8 12 0 13 #dcdcdc #000000
0;
#X obj 2 409 cnv 3 550 3 empty empty arguments 8 12 0 13 #dcdcdc #000000
0;
#X obj 154 274 cnv 17 3 17 empty empty 0 5 9 0 16 #dcdcdc #9c9c9c 0
;
#X obj 2 442 cnv 15 552 21 empty empty empty 20 12 0 14 #e0e0e0 #202020
0;
#X text 209 419 -;
#X text 151 419 1) float;
#X text 193 276 float;
#X text 238 276 - raw MIDI data stream;
#X text 238 355 -;
#X text 198 355 float;
#X text 253 355 MIDI channel, f 31;
#X obj 153 40 cnv 4 4 4 empty empty input 0 28 2 18 #e0e0e0 #000000
0;
#X obj 154 330 cnv 17 3 17 empty empty 0 5 9 0 16 #dcdcdc #9c9c9c 0
;
#X text 238 330 -;
#X text 198 330 float;
#X obj 154 352 cnv 17 3 17 empty empty 1 5 9 0 16 #dcdcdc #9c9c9c 0
;
#X obj 306 4 cnv 15 250 40 empty empty empty 12 13 0 18 #7c7c7c #e0e4dc
0;
#N canvas 382 141 749 319 (subpatch) 0;
#X coords 0 -1 1 1 252 42 2 100 100;
#X restore 305 3 pd;
#X obj 345 11 cnv 10 10 10 empty empty ELSE 0 15 2 30 #7c7c7c #e0e4dc
0;
#X obj 458 11 cnv 10 10 10 empty empty EL 0 6 2 13 #7c7c7c #e0e4dc
0;
#X obj 478 11 cnv 10 10 10 empty empty Locus 0 6 2 13 #7c7c7c #e0e4dc
0;
#X obj 515 11 cnv 10 10 10 empty empty Solus' 0 6 2 13 #7c7c7c #e0e4dc
0;
#X obj 464 26 cnv 10 10 10 empty empty ELSE 0 6 2 13 #7c7c7c #e0e4dc
0;
#X obj 502 26 cnv 10 10 10 empty empty library 0 6 2 13 #7c7c7c #e0e4dc
0;
#N canvas 782 189 448 247 channel 0;
#X text 87 202 Pitch Bend;
#X msg 240 131 1;
#X msg 273 131 5;
#X text 303 131 <= channel;
#X msg 222 105 0;
#X text 250 105 <= omni;
#X obj 159 131 midiin;
#X text 20 9 An argument sets the channel number. If so \, only MIDI
messages that correspond to that channel are sent. If no channel is
given \, it loads "0" as the default and the object operates in omni
mode \, where the objects outputs values from all channels and the
channel number is output in the right outlet. You can also change the
channel with the right inlet (0 sets to omni)., f 67;
#X obj 159 169 else/bend.in 5;
#X obj 159 199 else/display;
#X connect 1 0 8 1;
#X connect 2 0 8 1;
#X connect 4 0 8 1;
#X connect 6 0 8 0;
#X connect 8 0 9 0;
#X restore 473 206 pd channel;
#X text 253 329 MIDI pitch bend (from -1 to 1), f 31;
#X obj 110 40 cnv 4 4 4 empty empty bend 0 28 2 18 #e0e0e0 #000000
0;
#X text 223 419 sets channel number (default 0 - OMNI);
#X text 238 299 -;
#X text 198 299 float;
#X text 253 299 MIDI channel, f 31;
#X obj 154 296 cnv 17 3 17 empty empty 1 5 9 0 16 #dcdcdc #9c9c9c 0
;
#X obj 2 378 cnv 3 550 3 empty empty flags 8 12 0 13 #dcdcdc #000000
0;
#X text 164 387 -raw: sets to raw output mode (from 0-16383);
#N canvas 812 241 447 234 raw 0;
#X text 34 17 With the -raw flag \, the pitch bend values are output
as integers from 0 to 16383 \, whereas the default behaviour is a normalized
output (floats from -1 to 1), f 67;
#X obj 156 88 nbx 5 14 -1e+37 1e+37 0 0 empty empty empty 0 -8 0 10
#dcdcdc #000000 #000000 0 256;
#X obj 156 115 else/bend.out -raw;
#X obj 156 143 else/bend.in -raw;
#X obj 156 177 else/display;
#X connect 1 0 2 0;
#X connect 2 0 3 0;
#X connect 3 0 4 0;
#X restore 496 230 pd raw;
#X text 226 198 MIDI channel =>;
#X text 168 229 Pitch Bend =>;
#X obj 253 147 midiin;
#X text 25 201 see also:;
#X obj 32 223 else/bend.out;
#X obj 253 174 else/bend.in;
#X text 70 85 [bend.in] extracts MIDI Pitch Bend information from raw
MIDI input (such as from [midiin]). By default \, output values are
normalized to floats from -1 to 1 \, but you can change it to "raw"
mode (output integers from 0 to 16383)., f 66;
#X obj 253 228 else/display;
#X obj 322 195 else/display;
#X connect 42 0 45 0;
#X connect 45 0 47 0;
#X connect 45 1 48 0;
