#N canvas 482 52 572 321 10;
#X obj 4 190 cnv 3 550 3 empty empty inlets 8 12 0 13 #dcdcdc #000000
0;
#X obj 4 227 cnv 3 550 3 empty empty outlets 8 12 0 13 #dcdcdc #000000
0;
#X obj 4 260 cnv 3 550 3 empty empty arguments 8 12 0 13 #dcdcdc #000000
0;
#X obj 5 290 cnv 15 552 21 empty empty empty 20 12 0 14 #e0e0e0 #202020
0;
#X obj 109 198 cnv 17 3 17 empty empty 0 5 9 0 16 #dcdcdc #9c9c9c 0
;
#X obj 89 40 cnv 4 4 4 empty empty plot 0 28 2 18 #e0e0e0 #000000 0
;
#X obj 25 40 cnv 4 4 4 empty empty Biquad 0 28 2 18 #e0e0e0 #000000
0;
#X obj 2 3 cnv 15 301 42 empty empty biplot 20 20 2 37 #e0e0e0 #000000
0;
#N canvas 0 22 450 278 (subpatch) 0;
#X coords 0 1 100 -1 302 42 1;
#X restore 2 3 graph;
#X text 137 198 list;
#X text 177 198 - list of coefficients as taken by [biquad~];
#N canvas 449 143 920 451 example 0;
#X obj 127 35 nbx 5 14 0.01 1 1 0 empty empty empty 0 -8 0 10 #dcdcdc
#000000 #000000 0 256;
#X obj 201 36 nbx 5 14 -24 24 0 0 empty empty empty 0 -8 0 10 #dcdcdc
#000000 #000000 0 256;
#X obj 54 36 nbx 5 14 20 20000 1 0 empty empty empty 0 -8 0 10 #dcdcdc
#000000 #000000 0 256;
#X text 65 19 Freq;
#X text 133 18 Q;
#X obj 27 36 bng 15 250 50 0 empty empty empty 17 7 0 10 #dcdcdc #000000
#000000;
#X text 209 16 gain;
#X obj 6 132 else/biplot;
#X obj 54 70 else/bicoeff2 eq 500 10 24;
#X text 341 25 The [biplot] object takes a list of biquad coefficients
in the same order and format as the [biquad~] object from vanilla.
Therefore \, it can plot any biquad filter.;
#X text 342 73 In this example \, we use the [bicoeff2] object \, that
generates biquad coefficients.;
#X connect 0 0 8 1;
#X connect 1 0 8 2;
#X connect 2 0 8 0;
#X connect 5 0 8 0;
#X connect 8 0 7 0;
#X restore 198 134 pd example;
#X text 269 135 <= click to open and check;
#X text 181 269 (none);
#X obj 305 4 cnv 15 250 40 empty empty empty 12 13 0 18 #7c7c7c #e0e4dc
0;
#X obj 344 11 cnv 10 10 10 empty empty ELSE 0 15 2 30 #7c7c7c #e0e4dc
0;
#X obj 457 11 cnv 10 10 10 empty empty EL 0 6 2 13 #7c7c7c #e0e4dc
0;
#X obj 477 11 cnv 10 10 10 empty empty Locus 0 6 2 13 #7c7c7c #e0e4dc
0;
#X obj 514 11 cnv 10 10 10 empty empty Solus' 0 6 2 13 #7c7c7c #e0e4dc
0;
#X obj 463 26 cnv 10 10 10 empty empty ELSE 0 6 2 13 #7c7c7c #e0e4dc
0;
#X obj 501 26 cnv 10 10 10 empty empty library 0 6 2 13 #7c7c7c #e0e4dc
0;
#N canvas 0 22 450 278 (subpatch) 0;
#X coords 0 1 100 -1 252 42 1 0 0;
#X restore 304 3 graph;
#X obj 109 238 cnv 17 3 17 empty empty 0 5 9 0 16 #dcdcdc #9c9c9c 0
;
#X text 137 238 list;
#X text 177 238 - list of coefficients is passed through;
#N canvas 345 214 920 451 cascade 0;
#X obj 9 132 else/biplot;
#X obj 9 54 else/bicoeff2 eq 500 10 24;
#X obj 90 82 else/bicoeff2 eq 900 10 24;
#X obj 9 29 else/lb 2, f 14;
#X obj 9 84 list;
#X text 340 49 The [biplot] object can also take list you send to the
[biquads~] object with multiples of 5! In this way \, the object plots
the result of the cascading.;
#X connect 1 0 4 0;
#X connect 2 0 4 1;
#X connect 3 0 1 0;
#X connect 3 1 2 0;
#X connect 4 0 0 0;
#X restore 198 162 pd cascade;
#X text 76 87 [biplot] plots the filter response from biquad coefficients
\, the ones you send to [biquad~] or [else/biquads~]., f 61;
#X text 269 162 <= click to open and check;
