#N canvas 500 74 562 433 10;
#X obj 306 4 cnv 15 250 40 empty empty empty 12 13 0 18 #7c7c7c #e0e4dc 0;
#N canvas 382 141 749 319 (subpatch) 0;
#X coords 0 -1 1 1 252 42 2 0 0;
#X restore 305 3 pd;
#X obj 345 11 cnv 10 10 10 empty empty ELSE 0 15 2 30 #7c7c7c #e0e4dc 0;
#X obj 121 40 cnv 4 4 4 empty empty impulse 0 28 2 18 #e0e0e0 #000000 0;
#X obj 458 11 cnv 10 10 10 empty empty EL 0 6 2 13 #7c7c7c #e0e4dc 0;
#X obj 478 11 cnv 10 10 10 empty empty Locus 0 6 2 13 #7c7c7c #e0e4dc 0;
#X obj 515 11 cnv 10 10 10 empty empty Solus' 0 6 2 13 #7c7c7c #e0e4dc 0;
#X obj 464 26 cnv 10 10 10 empty empty ELSE 0 6 2 13 #7c7c7c #e0e4dc 0;
#X obj 502 26 cnv 10 10 10 empty empty library 0 6 2 13 #7c7c7c #e0e4dc 0;
#X obj 193 40 cnv 4 4 4 empty empty oscillator 0 28 2 18 #e0e0e0 #000000 0;
#X obj 3 377 cnv 3 550 3 empty empty arguments 8 12 0 13 #dcdcdc #000000 0;
#X obj 3 408 cnv 15 552 21 empty empty empty 20 12 0 14 #e0e0e0 #202020 0;
#X obj 229 130 nbx 5 14 -1e+37 1e+37 0 0 empty empty empty 0 -8 0 10 #dcdcdc #000000 #000000 0 256;
#X obj 3 3 cnv 15 301 42 empty empty bl.imp~ 20 20 2 37 #e0e0e0 #000000 0;
#N canvas 0 22 450 278 (subpatch) 0;
#X coords 0 1 100 -1 302 42 1;
#X restore 2 3 graph;
#X obj 22 40 cnv 4 4 4 empty empty Bandlimited 0 28 2 18 #e0e0e0 #000000 0;
#X text 30 144 see also:;
#X obj 30 166 else/imp~;
#X obj 3 252 cnv 3 550 3 empty empty inlets 8 12 0 13 #dcdcdc #000000 0;
#X obj 3 301 cnv 3 550 3 empty empty outlets 8 12 0 13 #dcdcdc #000000 0;
#X obj 104 310 cnv 17 3 17 empty empty 0 5 9 0 16 #dcdcdc #9c9c9c 0;
#X text 178 310 signal -;
#X obj 104 262 cnv 17 3 30 empty empty 0 5 9 0 16 #dcdcdc #9c9c9c 0;
#X text 135 263 float/signal -;
#X text 239 263 frequency in hz;
#X text 239 310 impulse oscillator signal;
#X obj 229 186 else/out~;
#X text 141 386 1) float;
#X text 60 87 [bl.imp~] is an impulse oscillator like [else/imp~] \, but it is bandlimited.;
#X obj 30 187 else/bl.imp2~;
#X obj 30 208 else/blip~;
#X obj 229 155 else/bl.imp~ 200;
#X text 135 280 midi <float> -;
#X text 239 280 non zero sets to frequency input in MIDI pitch;
#X obj 3 337 cnv 3 550 3 empty empty flags 8 12 0 13 #dcdcdc #000000 0;
#X text 207 386 - frequency in midi pitch or hertz (default 0);
#N canvas 670 106 449 354 midi 0;
#X msg 150 150 midi \$1;
#X obj 150 121 tgl 19 0 empty empty empty 0 -8 0 10 #dfdfdf #000000 #000000 0 1;
#X floatatom 174 186 7 0 0 0 - - - 0;
#X obj 150 250 else/out~;
#X obj 150 219 else/bl.imp~ -midi 60;
#X text 40 27 By default \, frequency input is in hertz \, but if you use the 'midi' message or '-midi' flag you can change it to MIDI pitch input \, where it is not really bound to the 0 to 127 range \, neither it has to be integers. This is just like using [mtof~]...;
#X connect 0 0 4 0;
#X connect 1 0 0 0;
#X connect 2 0 4 0;
#X connect 4 0 3 0;
#X restore 476 215 pd midi;
#X text 289 129 <-- frequency;
#X text 143 353 -midi: sets frequency input in MIDI pitch (default hertz);
#X connect 12 0 31 0;
#X connect 31 0 26 0;
