#N canvas 439 44 568 512 10;
#X obj 306 6 cnv 15 250 40 empty empty empty 12 13 0 18 #7c7c7c #e0e4dc
0;
#N canvas 382 141 749 319 (subpatch) 0;
#X coords 0 -1 1 1 252 42 2 0 0;
#X restore 305 5 pd;
#X obj 345 13 cnv 10 10 10 empty empty ELSE 0 15 2 30 #7c7c7c #e0e4dc
0;
#X obj 121 42 cnv 4 4 4 empty empty triangular 0 28 2 18 #e0e0e0 #000000
0;
#X obj 458 13 cnv 10 10 10 empty empty EL 0 6 2 13 #7c7c7c #e0e4dc
0;
#X obj 478 13 cnv 10 10 10 empty empty Locus 0 6 2 13 #7c7c7c #e0e4dc
0;
#X obj 515 13 cnv 10 10 10 empty empty Solus' 0 6 2 13 #7c7c7c #e0e4dc
0;
#X obj 464 28 cnv 10 10 10 empty empty ELSE 0 6 2 13 #7c7c7c #e0e4dc
0;
#X obj 502 28 cnv 10 10 10 empty empty library 0 6 2 13 #7c7c7c #e0e4dc
0;
#X obj 203 42 cnv 4 4 4 empty empty oscillator 0 28 2 18 #e0e0e0 #000000
0;
#X obj 3 480 cnv 15 552 21 empty empty empty 20 12 0 14 #e0e0e0 #202020
0;
#X obj 229 189 nbx 5 14 -1e+37 1e+37 0 0 empty empty empty 0 -8 0 10
#dcdcdc #000000 #000000 0 256;
#X text 289 188 <= hz;
#X obj 3 5 cnv 15 301 42 empty empty bl.tri~ 20 20 2 37 #e0e0e0 #000000
0;
#N canvas 0 22 450 278 (subpatch) 0;
#X coords 0 1 100 -1 302 42 1;
#X restore 2 5 graph;
#X obj 22 42 cnv 4 4 4 empty empty Bandlimited 0 28 2 18 #e0e0e0 #000000
0;
#X text 60 142 Because this is an abstraction and Pd is still limited
in the way it handles it \, this object does not have any arguments.
, f 67;
#X text 452 245 see also:;
#X obj 229 249 else/out~;
#X obj 3 427 cnv 3 550 3 empty empty arguments 8 12 0 13 #dcdcdc #000000
0;
#X obj 452 267 else/tri~;
#X obj 3 315 cnv 3 550 3 empty empty inlets 8 12 0 13 #dcdcdc #000000
0;
#X obj 3 389 cnv 3 550 3 empty empty outlets 8 12 0 13 #dcdcdc #000000
0;
#X obj 122 398 cnv 17 3 17 empty empty 0 5 9 0 16 #dcdcdc #9c9c9c 0
;
#X obj 123 323 cnv 17 3 17 empty empty 0 5 9 0 16 #dcdcdc #9c9c9c 0
;
#X text 165 324 float/signal -;
#X text 269 324 frequency in hz;
#X obj 122 345 cnv 17 3 17 empty empty 1 5 9 0 16 #dcdcdc #9c9c9c 0
;
#X text 165 366 float/signal -;
#X obj 122 365 cnv 17 3 17 empty empty 2 5 9 0 16 #dcdcdc #9c9c9c 0
;
#X text 206 398 signal -;
#X text 270 366 phase offset (modulation input);
#X text 270 346 phase sync (ressets internal phase);
#X text 165 346 float/signal -;
#X text 267 398 triangular wave signal;
#X text 60 89 [bl.tri~] is a triangular oscillator like [else/tri~]
\, but it is bandlimited with the upsampling/filtering technique. This
makes the object quite inefficient CPU wise \, but is an easy way to
implement a bandlimited oscillator., f 67;
#X text 184 437 1) float;
#X text 243 456 - initial phase offset (default 0);
#X text 243 437 - frequency in hertz (default 0);
#X text 184 456 2) float;
#X obj 229 214 else/bl.tri~ 400;
#X connect 11 0 40 0;
#X connect 40 0 18 0;
