#N canvas 528 32 563 603 10;
#X obj 306 6 cnv 15 250 40 empty empty empty 12 13 0 18 #7c7c7c #e0e4dc 0;
#N canvas 382 141 749 319 (subpatch) 1;
#N canvas 0 50 450 250 (subpatch) 0;
#X text 0 0 plugdatainfo <?xml version="1.0" encoding="UTF-8"?> <plugdatainfo/>;
#X coords 0 1 100 -1 1 1 1;
#X restore 0 0 graph;
#X coords 0 -1 1 1 252 42 2 0 0;
#X restore 305 5 pd;
#X obj 345 13 cnv 10 10 10 empty empty ELSE 0 15 2 30 #7c7c7c #e0e4dc 0;
#X obj 458 13 cnv 10 10 10 empty empty EL 0 6 2 13 #7c7c7c #e0e4dc 0;
#X obj 478 13 cnv 10 10 10 empty empty Locus 0 6 2 13 #7c7c7c #e0e4dc 0;
#X obj 515 13 cnv 10 10 10 empty empty Solus' 0 6 2 13 #7c7c7c #e0e4dc 0;
#X obj 464 28 cnv 10 10 10 empty empty ELSE 0 6 2 13 #7c7c7c #e0e4dc 0;
#X obj 502 28 cnv 10 10 10 empty empty library 0 6 2 13 #7c7c7c #e0e4dc 0;
#X obj 202 41 cnv 4 4 4 empty empty oscillator 0 28 2 18 #e0e0e0 #000000 0;
#X obj 3 575 cnv 15 552 21 empty empty empty 20 12 0 14 #e0e0e0 #202020 0;
#X obj 239 166 nbx 5 14 -1e+37 1e+37 0 0 empty empty empty 0 -8 0 10 #dcdcdc #000000 #000000 0 256;
#X text 299 165 <= hz;
#X obj 3 5 cnv 15 301 42 empty empty bl.wavetable~ 20 20 2 37 #e0e0e0 #000000 0;
#N canvas 0 22 450 278 (subpatch) 1;
#N canvas 0 50 450 250 (subpatch) 0;
#X text 0 0 plugdatainfo <?xml version="1.0" encoding="UTF-8"?> <plugdatainfo/>;
#X coords 0 1 100 -1 1 1 1;
#X restore 0 0 graph;
#X coords 0 1 100 -1 302 42 1;
#X restore 2 5 graph;
#X obj 22 42 cnv 4 4 4 empty empty Bandlimited 0 28 2 18 #e0e0e0 #000000 0;
#X text 452 234 see also:;
#X obj 239 226 else/out~;
#X obj 3 519 cnv 3 550 3 empty empty arguments 8 12 0 13 #dcdcdc #000000 0;
#X obj 3 292 cnv 3 550 3 empty empty inlets 8 12 0 13 #dcdcdc #000000 0;
#X obj 3 483 cnv 3 550 3 empty empty outlets 8 12 0 13 #dcdcdc #000000 0;
#X text 154 298 float/signal - frequency in hz, f 60;
#X obj 121 41 cnv 4 4 4 empty empty wavetable 0 28 2 18 #e0e0e0 #000000 0;
#X text 158 527 1) symbol;
#X text 218 527 - array name (required \, default none), f 43;
#N canvas 811 254 411 420 table 1;
#X obj 33 158 cnv 15 298 198 empty empty empty 20 12 0 14 #e0e0e0 #404040 0;
#N canvas 0 22 450 278 (subpatch) 0;
#X array \$0-table 4096 float 0;
#X coords 0 1 4095 -1 300 200 1 0 0;
#X restore 32 158 graph;
#X obj 135 43 else/loop 4096;
#X obj 164 114 tabwrite \$0-table;
#X obj 135 71 expr -2 * ($f1 / 4095) + 1 \; $f1;
#X obj 135 16 loadbang;
#X connect 2 0 4 0;
#X connect 4 0 3 0;
#X connect 4 1 3 1;
#X connect 5 0 2 0;
#X restore 115 258 pd table;
#X text 27 258 check table =>;
#X obj 113 494 cnv 17 3 17 empty empty 0 5 9 0 16 #dcdcdc #9c9c9c 0;
#X text 191 495 signal;
#X text 233 495 - a periodically repeating waveform;
#X obj 113 441 cnv 17 3 17 empty empty 1 5 9 0 16 #dcdcdc #9c9c9c 0;
#X obj 113 461 cnv 17 3 17 empty empty 2 5 9 0 16 #dcdcdc #9c9c9c 0;
#X text 155 442 float/signal - phase sync (ressets internal phase);
#X text 155 462 float/signal - phase offset (modulation input), f 50;
#X text 164 556 3) float;
#X text 218 541 - sets frequency in Hz (default 0), f 43;
#X text 218 556 - sets phase offset (default 0), f 43;
#X text 164 541 2) float;
#X obj 239 191 else/bl.wavetable~ \$0-table 400;
#X text 154 313 set <symbol> - sets an entire array to be used as a waveform;
#X obj 113 299 cnv 17 3 133 empty empty 0 5 9 0 16 #dcdcdc #9c9c9c 0;
#X text 60 89 [bl.wavetable~] is a wavetable oscillator like [else/wavetable~] \, but it is bandlimited with the upsampling/filtering technique. This makes the object quite inefficient CPU wise \, but is an easy way to implement a bandlimited oscillator. This object also minimizes aliasing caused by hard sync and phase modulation., f 74;
#X text 142 328 size <float> - sets size in number of points, f 62;
#X text 130 343 offset <float> - sets offset in table, f 64;
#X text 190 358 none - sets to no interpolation mode, f 54;
#X text 196 373 lin - sets to linear interpolation mode, f 53;
#X text 196 388 cos - sets to cosine interpolation mode, f 53;
#X text 166 403 lagrange - sets to lagrange interpolation mode, f 58;
#X text 178 418 spline - sets to spline interpolation mode (default), f 56;
#N canvas 0 50 450 250 (subpatch) 0;
#X text 0 0 plugdatainfo <?xml version="1.0" encoding="UTF-8"?> <plugdatainfo/>;
#X coords 0 1 100 -1 1 1 1;
#X restore 0 0 graph;
#X obj 432 256 wavetable~;
#X connect 10 0 37 0;
#X connect 37 0 16 0;
