#N canvas 392 23 564 582 10;
#X obj 4 278 cnv 3 550 3 empty empty inlets 8 12 0 13 #dcdcdc #000000
0;
#X obj 4 380 cnv 3 550 3 empty empty outlets 8 12 0 13 #dcdcdc #000000
0;
#X obj 4 503 cnv 3 550 3 empty empty arguments 8 12 0 13 #dcdcdc #000000
0;
#X obj 80 389 cnv 17 3 17 empty empty 0 5 9 0 16 #dcdcdc #9c9c9c 0
;
#X obj 80 286 cnv 17 3 90 empty empty 0 5 9 0 16 #dcdcdc #9c9c9c 0
;
#X text 141 286 signal;
#X text 140 389 signal;
#X obj 3 3 cnv 15 301 42 empty empty bpbank~ 20 20 2 37 #e0e0e0 #000000
0;
#N canvas 0 22 450 278 (subpatch) 0;
#X coords 0 1 100 -1 302 42 1;
#X restore 3 3 graph;
#X obj 24 40 cnv 4 4 4 empty empty Bank 0 28 2 18 #e0e0e0 #000000 0
;
#X obj 169 40 cnv 4 4 4 empty empty filters 0 28 2 18 #e0e0e0 #000000
0;
#X obj 96 40 cnv 4 4 4 empty empty bandpass 0 28 2 18 #e0e0e0 #000000
0;
#X obj 69 40 cnv 4 4 4 empty empty of 0 28 2 18 #e0e0e0 #000000 0;
#X obj 206 148 noise~;
#X obj 206 216 else/out~;
#X text 135 529 2) float - ramp time in ms (default 10), f 57;
#X text 111 301 freq <list>;
#X text 117 331 amp <list>;
#X text 111 346 ramp <list>;
#X text 188 301 - list of frequencies for all filters in the bank;
#X text 188 331 - list of amplitudes for all filters in the bank;
#X text 188 346 - list of ramp time for all filters in the bank;
#N canvas 654 189 492 397 example 0;
#X obj 72 301 else/out~;
#X obj 183 115 loadbang;
#X text 259 102 click on the messages below to alter between them,
f 27;
#X obj 72 157 else/brown~;
#X obj 72 264 else/bpbank~ 8 2000;
#X msg 183 138 freq 100 250 300 370 420 510 590 650 \, q 2.5 9.5 15.5
9.5 10.5 8.5 1.5 9.5 \, amp 1.9 1 2.9 2 3.8 2.9 1.7 5, f 38;
#X msg 189 187 freq 240 490 510 630 790 980 1090 1250 \, q 7.5 5.5
10.5 5.5 20.5 9.5 4.5 5.5 \, amp 2.8 1 3.7 2 4.9 2.8 3.9 7, f 39;
#X text 196 263 <- number of filters / ramp time;
#X text 65 31 A ramp time as the second argument sets a transition
time in ms between parameter changes of resonant frequency \, Q and
amplitude. By default \, this is set to 10 ms. You can also send a
list of ramp time for each filter in the bank.;
#X connect 1 0 5 0;
#X connect 3 0 4 0;
#X connect 4 0 0 0;
#X connect 5 0 4 0;
#X connect 6 0 4 0;
#X restore 469 248 pd example;
#X text 129 316 q <list>;
#X text 188 316 - list of resonance (Q) for all filters in the bank
;
#X obj 5 551 cnv 15 552 21 empty empty empty 20 12 0 14 #e0e0e0 #202020
0;
#X obj 5 415 cnv 3 550 3 empty empty flags 8 12 0 13 #dcdcdc #000000
0;
#X text 104 421 -freq <list>: sets list of frequencies for all filters
, f 57;
#X obj 305 4 cnv 15 250 40 empty empty empty 12 13 0 18 #7c7c7c #e0e4dc
0;
#X obj 344 11 cnv 10 10 10 empty empty ELSE 0 15 2 30 #7c7c7c #e0e4dc
0;
#X obj 457 11 cnv 10 10 10 empty empty EL 0 6 2 13 #7c7c7c #e0e4dc
0;
#X obj 477 11 cnv 10 10 10 empty empty Locus 0 6 2 13 #7c7c7c #e0e4dc
0;
#X obj 514 11 cnv 10 10 10 empty empty Solus' 0 6 2 13 #7c7c7c #e0e4dc
0;
#X obj 463 26 cnv 10 10 10 empty empty ELSE 0 6 2 13 #7c7c7c #e0e4dc
0;
#X obj 501 26 cnv 10 10 10 empty empty library 0 6 2 13 #7c7c7c #e0e4dc
0;
#N canvas 0 22 450 278 (subpatch) 0;
#X coords 0 1 100 -1 252 42 1 0 0;
#X restore 304 3 graph;
#X text 104 436 -amp <list>: sets list of amplitudes for all filters
, f 57;
#X text 104 452 -q <list>: sets list of phases for all filters, f
57;
#X text 104 467 -ramp <list>: sets list of ramp time for all filters
, f 57;
#X text 104 483 -rampall <float>: sets ramp time for all filters,
f 57;
#X text 93 361 rampall float>;
#X text 188 361 - sets ramp time for all filters in the bank;
#X obj 206 177 else/bpbank~ -freq 200 500 900 1700 -q 1.5 5 20 9 -amp
2 1.5 2 1, f 36;
#X text 27 218 see also:;
#X obj 29 240 else/resonbank~;
#X text 50 85 [bpbank~] is a bank made of [bandpass~] objects. You
can set any number of filters with the first argument and control the
parameters for each copy. If you use flags \, the number of elements
in the list (such as the frequency list) sets the number of filters
in the bank (you shouldn't use arguments if you use flags)., f 75
;
#X text 135 511 1) float - number of bandpass filters (default 1),
f 57;
#X text 189 286 - signal to be filtered via a bank of bandpass filters
;
#X text 189 389 - the signal filtered by the bank of filters;
#X connect 13 0 42 0;
#X connect 42 0 14 0;
