#N canvas 513 97 562 382 10;
#X obj 1 254 cnv 3 550 3 empty empty inlets 8 12 0 13 #dcdcdc #000000
0;
#X obj 1 287 cnv 3 550 3 empty empty outlets 8 12 0 13 #dcdcdc #000000
0;
#X obj 1 322 cnv 3 550 3 empty empty arguments 8 12 0 13 #dcdcdc #000000
0;
#X obj 185 297 cnv 17 3 17 empty empty 0 5 9 0 16 #dcdcdc #9c9c9c 0
;
#X obj 224 188 tgl 18 0 empty empty empty 0 -6 0 8 #d0d0d0 #404040
#000000 0 1;
#X obj 1 355 cnv 15 552 21 empty empty empty 20 12 0 14 #e0e0e0 #202020
0;
#X text 217 298 float -;
#X text 181 190 status;
#X obj 307 6 cnv 15 250 40 empty empty empty 12 13 0 18 #7c7c7c #e0e4dc
0;
#X obj 346 13 cnv 10 10 10 empty empty ELSE 0 15 2 30 #7c7c7c #e0e4dc
0;
#X obj 24 42 cnv 4 4 4 empty empty Report 0 28 2 18 #e0e0e0 #000000
0;
#X obj 82 42 cnv 4 4 4 empty empty zoom 0 28 2 18 #e0e0e0 #000000 0
;
#X obj 459 13 cnv 10 10 10 empty empty EL 0 6 2 13 #7c7c7c #e0e4dc
0;
#X obj 479 13 cnv 10 10 10 empty empty Locus 0 6 2 13 #7c7c7c #e0e4dc
0;
#X obj 516 13 cnv 10 10 10 empty empty Solus' 0 6 2 13 #7c7c7c #e0e4dc
0;
#X obj 465 28 cnv 10 10 10 empty empty ELSE 0 6 2 13 #7c7c7c #e0e4dc
0;
#X obj 503 28 cnv 10 10 10 empty empty library 0 6 2 13 #7c7c7c #e0e4dc
0;
#N canvas 0 22 450 278 (subpatch) 0;
#X coords 0 1 100 -1 252 42 1 0 0;
#X restore 306 5 graph;
#X obj 130 42 cnv 4 4 4 empty empty status 0 28 2 18 #e0e0e0 #000000
0;
#X text 140 331 1) float - depth \, default 0 (current window);
#X text 482 194 example:;
#N canvas 800 286 473 314 depth 0;
#X obj 82 126 tgl 18 0 empty empty empty 0 -6 0 8 #d0d0d0 #404040 #000000
0 1;
#X obj 82 153 sel 0 1;
#X obj 266 127 tgl 18 0 empty empty empty 0 -6 0 8 #d0d0d0 #404040
#000000 0 1;
#X obj 266 154 sel 0 1;
#X obj 266 227 print parent-status;
#X obj 82 226 print subpatch-status;
#X text 78 36 You can also query the parent status with the depth argument
(1 goes up to the parent patch \, 2 queries the parent's parent and
so on)., f 46;
#X msg 82 177 not in zoom mode;
#X msg 101 200 in zoom mode;
#X msg 266 178 not in zoom mode;
#X msg 285 202 in zoom mode;
#X obj 82 106 else/canvas.zoom;
#X obj 266 107 else/canvas.zoom 1;
#X connect 0 0 1 0;
#X connect 1 0 7 0;
#X connect 1 1 8 0;
#X connect 2 0 3 0;
#X connect 3 0 9 0;
#X connect 3 1 10 0;
#X connect 7 0 5 0;
#X connect 8 0 5 0;
#X connect 9 0 4 0;
#X connect 10 0 4 0;
#X connect 11 0 0 0;
#X connect 12 0 2 0;
#X restore 483 217 pd depth;
#X obj 224 216 else/display;
#X obj 224 165 else/canvas.zoom;
#X text 272 297 zoom status;
#X obj 4 5 cnv 15 301 42 empty empty canvas.zoom 20 20 2 37 #e0e0e0
#000000 0;
#N canvas 0 22 450 278 (subpatch) 0;
#X coords 0 1 100 -1 302 42 1;
#X restore 3 5 graph;
#X obj 224 141 bng 15 250 50 0 empty empty empty 17 7 0 10 #dcdcdc
#000000 #000000;
#X obj 185 263 cnv 17 3 17 empty empty 0 5 9 0 16 #dcdcdc #9c9c9c 0
;
#X text 223 264 bang -;
#X text 272 263 report zoom status;
#X text 79 91 The [canvas.zoom] object outputs zoom status at loadtime
and when it changes - it outputs 1 when the window is in zoom mode
and 0 when it is not. You can also query with a bang.;
#X connect 4 0 22 0;
#X connect 23 0 4 0;
#X connect 27 0 23 0;
