#N canvas 555 129 562 374 10;
#X obj 3 247 cnv 3 550 3 empty empty inlets 8 12 0 13 -228856 -1 0
;
#X obj 3 280 cnv 3 550 3 empty empty outlets 8 12 0 13 -228856 -1 0
;
#X obj 3 314 cnv 3 550 3 empty empty arguments 8 12 0 13 -228856 -1
0;
#X obj 137 290 cnv 17 3 17 empty empty 0 5 9 0 16 -228856 -162280 0
;
#X obj 3 347 cnv 15 552 21 empty empty empty 20 12 0 14 -233017 -33289
0;
#X obj 4 5 cnv 15 301 42 empty empty canvas.pos 20 20 2 37 -233017
-1 0;
#X obj 307 6 cnv 15 250 40 empty empty empty 12 13 0 18 -128992 -233080
0;
#N canvas 0 22 450 278 (subpatch) 0;
#X coords 0 1 100 -1 302 42 1;
#X restore 3 5 graph;
#X obj 346 13 cnv 10 10 10 empty empty ELSE 0 15 2 30 -128992 -233080
0;
#X obj 24 42 cnv 4 4 4 empty empty Report 0 28 2 18 -233017 -1 0;
#X obj 459 13 cnv 10 10 10 empty empty EL 0 6 2 13 -128992 -233080
0;
#X obj 479 13 cnv 10 10 10 empty empty Locus 0 6 2 13 -128992 -233080
0;
#X obj 516 13 cnv 10 10 10 empty empty Solus' 0 6 2 13 -128992 -233080
0;
#X obj 465 28 cnv 10 10 10 empty empty ELSE 0 6 2 13 -128992 -233080
0;
#X obj 503 28 cnv 10 10 10 empty empty library 0 6 2 13 -128992 -233080
0;
#N canvas 0 22 450 278 (subpatch) 0;
#X coords 0 1 100 -1 252 42 1 0 0;
#X restore 306 5 graph;
#X obj 82 42 cnv 4 4 4 empty empty canvas 0 28 2 18 -233017 -1 0;
#X obj 150 42 cnv 4 4 4 empty empty position 0 28 2 18 -233017 -1 0
;
#X text 152 323 1) float - depth \, default 0 (current window);
#N canvas 761 302 427 348 subpatch 0;
#X obj 162 130 else/display;
#X obj 162 103 else/canvas.pos;
#X obj 162 76 bng 15 250 50 0 empty empty empty 17 7 0 10 -228856 -1
-1;
#X text 97 135 position:;
#X text 60 23 Here \, [canvas.pos] reports the position of this subpatch's
canvas in the parent patch., f 43;
#X obj 99 255 else/display;
#X obj 99 201 bng 15 250 50 0 empty empty empty 17 7 0 10 -228856 -1
-1;
#X obj 99 228 else/canvas.pos 1;
#X text 215 227 <= parent \; s position;
#X connect 1 0 0 0;
#X connect 2 0 1 0;
#X connect 6 0 7 0;
#X connect 7 0 5 0;
#X restore 454 211 pd subpatch;
#X text 391 210 examples:;
#X obj 217 204 else/display;
#X obj 137 257 cnv 17 3 17 empty empty 0 5 9 0 16 -228856 -162280 0
;
#X text 173 258 bang -;
#X obj 217 153 bng 15 250 50 0 empty empty empty 17 7 0 10 -228856
-1 -1;
#X text 64 88 The [canvas.pos] object outputs the position of a subwindow
canvas in the parent canvas. The output is the x/y coordinates. It
can also query the parent status with the depth argument (1 goes up
to the parent patch \, 2 queries the parent's parent and so on).,
f 71;
#X obj 217 177 else/canvas.pos;
#X text 89 202 if not a subwindow the output is (0 0), f 19;
#X text 224 257 query for position;
#X text 173 291 list -;
#X text 224 290 canvas position x/y coordinates;
#X connect 24 0 26 0;
#X connect 26 0 21 0;
