#N canvas 467 70 562 457 10;
#X obj 1 268 cnv 3 550 3 empty empty inlets 8 12 0 13 #dcdcdc #000000
0;
#X obj 1 330 cnv 3 550 3 empty empty outlets 8 12 0 13 #dcdcdc #000000
0;
#X obj 1 394 cnv 3 550 3 empty empty arguments 8 12 0 13 #dcdcdc #000000
0;
#X obj 90 279 cnv 17 3 17 empty empty 0 5 9 0 16 #dcdcdc #9c9c9c 0
;
#X obj 90 305 cnv 17 3 17 empty empty 1 5 9 0 16 #dcdcdc #9c9c9c 0
;
#X obj 90 364 cnv 17 3 17 empty empty 1 5 9 0 16 #dcdcdc #9c9c9c 0
;
#X obj 91 341 cnv 17 3 17 empty empty 0 5 9 0 16 #dcdcdc #9c9c9c 0
;
#X obj 1 429 cnv 15 552 21 empty empty empty 20 12 0 14 #e0e0e0 #202020
0;
#X text 198 404 (none), f 7;
#X text 151 232 Amplitude;
#X text 265 202 Phase;
#X text 175 146 Real;
#X text 367 146 Imaginary;
#X obj 215 147 nbx 5 14 -1e+37 1e+37 0 0 empty empty empty 0 -8 0 10
#dcdcdc #000000 #000000 0 256;
#X obj 308 147 nbx 5 14 -1e+37 1e+37 0 0 empty empty empty 0 -8 0 10
#dcdcdc #000000 #000000 0 256;
#X text 209 342 - amplitude of the polar form, f 32;
#X text 209 365 - phase in radians (-pi to pi) of the polar form,
f 51;
#X text 208 279 - real part from the cartesian coordinates, f 43;
#X text 209 307 - imaginary part from the cartesian coordinates, f
48;
#X obj 4 5 cnv 15 301 42 empty empty car2pol~ 20 20 2 37 #e0e0e0 #000000
0;
#X obj 307 6 cnv 15 250 40 empty empty empty 12 13 0 18 #7c7c7c #e0e4dc
0;
#N canvas 0 22 450 278 (subpatch) 0;
#X coords 0 1 100 -1 302 42 1;
#X restore 3 5 graph;
#X obj 346 13 cnv 10 10 10 empty empty ELSE 0 15 2 30 #7c7c7c #e0e4dc
0;
#X obj 24 42 cnv 4 4 4 empty empty Cartesian 0 28 2 18 #e0e0e0 #000000
0;
#X obj 99 42 cnv 4 4 4 empty empty to 0 28 2 18 #e0e0e0 #000000 0;
#X obj 459 13 cnv 10 10 10 empty empty EL 0 6 2 13 #7c7c7c #e0e4dc
0;
#X obj 479 13 cnv 10 10 10 empty empty Locus 0 6 2 13 #7c7c7c #e0e4dc
0;
#X obj 516 13 cnv 10 10 10 empty empty Solus' 0 6 2 13 #7c7c7c #e0e4dc
0;
#X obj 465 28 cnv 10 10 10 empty empty ELSE 0 6 2 13 #7c7c7c #e0e4dc
0;
#X obj 503 28 cnv 10 10 10 empty empty library 0 6 2 13 #7c7c7c #e0e4dc
0;
#N canvas 0 22 450 278 (subpatch) 0;
#X coords 0 1 100 -1 252 42 1 0 0;
#X restore 306 5 graph;
#X obj 121 42 cnv 4 4 4 empty empty polar 0 28 2 18 #e0e0e0 #000000
0;
#X obj 166 42 cnv 4 4 4 empty empty conversion 0 28 2 18 #e0e0e0 #000000
0;
#X obj 215 171 else/car2pol~, f 16;
#X obj 308 198 else/display~;
#X obj 215 228 else/display~;
#X text 124 279 float/signal;
#X text 124 307 float/signal;
#X text 80 90 [car2pol~] converts cartesian coordinates (real / imaginary)
to polar coordinates (amplitude / phase).;
#X obj 491 84 else/setdsp~;
#X text 159 342 signal;
#X text 159 365 signal;
#N canvas 714 162 534 482 spectral 0;
#X obj 98 244 cnv 15 300 100 empty empty polar: 6 10 0 14 #e0e0e0 #404040
0;
#X obj 229 152 rfft~;
#X obj 228 431 rifft~;
#X text 291 375 back to cartesian;
#X text 275 175 <= imaginary;
#X text 121 288 amplitude =>;
#X text 290 287 <= phase;
#X text 213 274 spectral;
#X text 207 293 processing;
#X text 213 311 in here;
#X text 166 177 real =>;
#X text 287 215 to polar form;
#X text 214 257 Do some;
#X text 86 27 [car2pol~] is useful for spectral processing in the more
intuitive polar form (with amplitude and phase values). This is because
when performing spectral analysis in Pd \, the signal is in the cartesian
form \, so we need [car2pol~] and [pol2car~] to convert to and from
the polar form in order to perform the FFT and iFFT. Here's the general
idea:, f 57;
#X obj 203 215 else/car2pol~;
#X obj 203 374 else/pol2car~;
#X connect 1 0 14 0;
#X connect 1 1 14 1;
#X connect 14 0 15 0;
#X connect 14 1 15 1;
#X connect 15 0 2 0;
#X connect 15 1 2 1;
#X restore 458 218 pd spectral \; processing;
#X text 21 164 see also:;
#X obj 25 209 else/mag~;
#X obj 25 230 else/pol2car~;
#X obj 25 187 else/car2pol;
#X connect 13 0 33 0;
#X connect 14 0 33 1;
#X connect 33 0 35 0;
#X connect 33 1 34 0;
