#N struct 1483-point float x0 float y0 float size float fg float in
float grid;
#N struct 1502-point float x0 float y0 float size float fg float in
float grid;
#N canvas 496 61 561 491 10;
#X obj 1 287 cnv 3 550 3 empty empty inlets 8 12 0 13 #dcdcdc #000000
0;
#X obj 1 365 cnv 3 550 3 empty empty outlets 8 12 0 13 #dcdcdc #000000
0;
#X obj 1 429 cnv 3 550 3 empty empty arguments 8 12 0 13 #dcdcdc #000000
0;
#X obj 100 296 cnv 17 3 35 empty empty 0 5 9 0 16 #dcdcdc #9c9c9c 0
;
#X obj 100 340 cnv 17 3 17 empty empty 1 5 9 0 16 #dcdcdc #9c9c9c 0
;
#X obj 100 399 cnv 17 3 17 empty empty 1 5 9 0 16 #dcdcdc #9c9c9c 0
;
#X obj 100 376 cnv 17 3 17 empty empty 0 5 9 0 16 #dcdcdc #9c9c9c 0
;
#X obj 1 462 cnv 15 552 21 empty empty empty 20 12 0 14 #e0e0e0 #202020
0;
#X text 198 439 (none), f 7;
#X text 134 314 float;
#X text 134 342 float;
#X text 134 377 float;
#X text 134 400 float;
#X text 118 249 Amplitude;
#X text 370 248 Phase;
#X obj 190 250 nbx 8 14 -1e+37 1e+37 0 0 empty empty empty 0 -8 0 10
#dcdcdc #000000 #000000 0 256;
#X obj 283 249 nbx 8 14 -1e+37 1e+37 0 0 empty empty empty 0 -8 0 10
#dcdcdc #000000 #000000 0 256;
#X text 150 142 Real;
#X text 330 142 Imaginary;
#X obj 190 143 nbx 5 14 -1e+37 1e+37 0 0 empty empty empty 0 -8 0 10
#dcdcdc #000000 #000000 0 256;
#X obj 271 143 nbx 5 14 -1e+37 1e+37 0 0 empty empty empty 0 -8 0 10
#dcdcdc #000000 #000000 0 256;
#X text 189 377 - amplitude of the polar form, f 32;
#X text 189 400 - phase in radians (-pi to pi) of the polar form,
f 51;
#X text 188 314 - real part from the cartesian coordinates, f 43;
#X text 189 342 - imaginary part from the cartesian coordinates, f
48;
#X text 140 297 bang;
#X text 188 297 - converts the last received coordinates pair;
#X obj 214 185 t bang float;
#X text 80 89 [car2pol] converts cartesian coordinates (real / imaginary)
to polar coordinates (amplitude / phase).;
#X obj 4 4 cnv 15 301 42 empty empty car2pol 20 20 2 37 #e0e0e0 #000000
0;
#X obj 307 5 cnv 15 250 40 empty empty empty 12 13 0 18 #7c7c7c #e0e4dc
0;
#N canvas 0 22 450 278 (subpatch) 0;
#X coords 0 1 100 -1 302 42 1;
#X restore 3 4 graph;
#X obj 346 12 cnv 10 10 10 empty empty ELSE 0 15 2 30 #7c7c7c #e0e4dc
0;
#X obj 24 41 cnv 4 4 4 empty empty Cartesian 0 28 2 18 #e0e0e0 #000000
0;
#X obj 99 41 cnv 4 4 4 empty empty to 0 28 2 18 #e0e0e0 #000000 0;
#X obj 459 12 cnv 10 10 10 empty empty EL 0 6 2 13 #7c7c7c #e0e4dc
0;
#X obj 479 12 cnv 10 10 10 empty empty Locus 0 6 2 13 #7c7c7c #e0e4dc
0;
#X obj 516 12 cnv 10 10 10 empty empty Solus' 0 6 2 13 #7c7c7c #e0e4dc
0;
#X obj 465 27 cnv 10 10 10 empty empty ELSE 0 6 2 13 #7c7c7c #e0e4dc
0;
#X obj 503 27 cnv 10 10 10 empty empty library 0 6 2 13 #7c7c7c #e0e4dc
0;
#N canvas 0 22 450 278 (subpatch) 0;
#X coords 0 1 100 -1 252 42 1 0 0;
#X restore 306 4 graph;
#X obj 121 41 cnv 4 4 4 empty empty polar 0 28 2 18 #e0e0e0 #000000
0;
#X obj 166 41 cnv 4 4 4 empty empty conversion 0 28 2 18 #e0e0e0 #000000
0;
#X obj 190 217 else/car2pol, f 16;
#X obj 19 250 else/mag;
#N canvas 920 123 538 605 example 0;
#X obj 101 197 else/display;
#X obj 101 237 else/car2pol;
#X obj 170 275 nbx 5 14 -1e+37 1e+37 0 0 empty empty empty 0 -8 0 10
#dcdcdc #000000 #000000 0 256;
#X obj 101 276 nbx 5 14 -1e+37 1e+37 0 0 empty empty empty 0 -8 0 10
#dcdcdc #000000 #000000 0 256;
#X obj 101 306 else/pol2car;
#X obj 101 343 pack;
#X text 63 12 cartesian x polar conversion;
#X text 238 112 <= click/drag;
#X obj 101 58 else/circle 127 -1 1 -1 1 1 255 255 255 255 255 255 0
0 0 1 0 0 63.5 63.5 empty empty 1;
#X obj 101 375 else/circle 127 -1 1 -1 1 1 255 255 255 255 255 255
0 0 0 1 0 0 63.5 63.5 empty empty 1;
#X text 57 276 amp =>;
#X obj 200 330 nbx 8 14 -1e+37 1e+37 0 0 empty empty empty 0 -8 0 10
#dcdcdc #000000 #000000 0 256;
#X text 231 274 <= phase (in radians);
#X text 281 329 <= phase (in degrees);
#X obj 200 305 else/rad2deg;
#X connect 0 0 1 0;
#X connect 1 0 3 0;
#X connect 1 1 2 0;
#X connect 2 0 4 1;
#X connect 2 0 14 0;
#X connect 3 0 4 0;
#X connect 4 0 5 0;
#X connect 4 1 5 1;
#X connect 5 0 9 0;
#X connect 8 0 0 0;
#X connect 14 0 11 0;
#X restore 461 248 pd example;
#X text 19 184 see also:;
#X obj 19 206 else/car2pol~;
#X obj 19 229 else/pol2car;
#X connect 19 0 43 0;
#X connect 20 0 27 0;
#X connect 27 0 43 0;
#X connect 27 1 43 1;
#X connect 43 0 15 0;
#X connect 43 1 16 0;
