#N canvas 551 23 565 433 10;
#X obj 4 3 cnv 15 301 42 empty empty chance~ 20 20 2 37 #e0e0e0 #000000
0;
#N canvas 0 22 450 278 (subpatch) 0;
#X coords 0 1 100 -1 302 42 1 0 0;
#X restore 4 3 graph;
#X obj 25 40 cnv 4 4 4 empty empty Weighted 0 28 2 18 #e0e0e0 #000000
0;
#X obj 103 39 cnv 4 4 4 empty empty random 0 28 2 18 #e0e0e0 #000000
0;
#X obj 5 406 cnv 15 552 21 empty empty empty 20 12 0 14 #e0e0e0 #202020
0;
#X obj 6 298 cnv 3 550 3 empty empty outlets 8 12 0 13 #dcdcdc #000000
0;
#X obj 6 364 cnv 3 550 3 empty empty arguments 8 12 0 13 #dcdcdc #000000
0;
#X obj 94 308 cnv 17 3 17 empty empty n 5 9 0 16 #dcdcdc #9c9c9c 0
;
#X obj 94 259 cnv 17 3 35 empty empty 0 5 9 0 16 #dcdcdc #9c9c9c 0
;
#X obj 6 249 cnv 3 550 3 empty empty inlets 8 12 0 13 #dcdcdc #000000
0;
#X text 218 258 - a bang to be passed or not;
#X text 126 274 seed <float>;
#X text 157 219 50%;
#N canvas 1296 154 416 393 default 0;
#X text 54 18 If no argument is given \, the chances are 50/50!;
#X text 58 185 If just one float is given \, it is considered as a
percentage value and the secnd bang outle has "100 - argument" number
of chances., f 47;
#X text 139 143 50%;
#X obj 116 114 else/trig2bang~;
#X obj 116 141 bng 18 250 50 0 empty empty empty 17 7 0 10 #dcdcdc
#000000 #000000;
#X obj 221 114 else/trig2bang~;
#X obj 221 141 bng 18 250 50 0 empty empty empty 17 7 0 10 #dcdcdc
#000000 #000000;
#X obj 116 90 else/chance~, f 18;
#X text 244 143 50%;
#X obj 132 305 else/trig2bang~;
#X obj 132 332 bng 18 250 50 0 empty empty empty 17 7 0 10 #dcdcdc
#000000 #000000;
#X obj 237 305 else/trig2bang~;
#X obj 237 332 bng 18 250 50 0 empty empty empty 17 7 0 10 #dcdcdc
#000000 #000000;
#X text 155 334 70%;
#X text 260 334 30%;
#X obj 132 258 else/imp~ 4;
#X obj 132 281 else/chance~ 50, f 18;
#X obj 116 67 else/imp~ 1;
#X connect 3 0 4 0;
#X connect 5 0 6 0;
#X connect 7 0 3 0;
#X connect 7 1 5 0;
#X connect 9 0 10 0;
#X connect 11 0 12 0;
#X connect 15 0 16 0;
#X connect 16 0 9 0;
#X connect 16 1 11 0;
#X connect 17 0 7 0;
#X restore 475 194 pd default;
#X text 118 373 1) list -;
#X text 183 373 list of probabilities (default 50 50). Check [pd default]
for more info if only one float is given;
#X obj 306 4 cnv 15 250 40 empty empty empty 12 13 0 18 #7c7c7c #e0e4dc
0;
#X obj 345 11 cnv 10 10 10 empty empty ELSE 0 15 2 30 #7c7c7c #e0e4dc
0;
#X obj 458 11 cnv 10 10 10 empty empty EL 0 6 2 13 #7c7c7c #e0e4dc
0;
#X obj 478 11 cnv 10 10 10 empty empty Locus 0 6 2 13 #7c7c7c #e0e4dc
0;
#X obj 515 11 cnv 10 10 10 empty empty Solus' 0 6 2 13 #7c7c7c #e0e4dc
0;
#X obj 464 26 cnv 10 10 10 empty empty ELSE 0 6 2 13 #7c7c7c #e0e4dc
0;
#X obj 502 26 cnv 10 10 10 empty empty library 0 6 2 13 #7c7c7c #e0e4dc
0;
#N canvas 0 22 450 278 (subpatch) 0;
#X coords 0 1 100 -1 252 42 1 0 0;
#X restore 305 3 graph;
#X text 70 87 When [chance~] receives an impulse \, it outputs it to
an outlet according to its chance (probability weight). The total number
of chances is the sum of all arguments., f 62;
#X obj 134 166 else/chance~ 50 25 25, f 34;
#X obj 490 71 else/setdsp~;
#X obj 134 190 else/trig2bang~;
#X obj 134 217 bng 18 250 50 0 empty empty empty 17 7 0 10 #dcdcdc
#000000 #000000;
#X obj 234 190 else/trig2bang~;
#X obj 234 217 bng 18 250 50 0 empty empty empty 17 7 0 10 #dcdcdc
#000000 #000000;
#X text 257 219 25%;
#X obj 335 190 else/trig2bang~;
#X obj 335 217 bng 18 250 50 0 empty empty empty 17 7 0 10 #dcdcdc
#000000 #000000;
#X text 358 219 25%;
#X text 163 259 signal;
#X obj 134 143 else/imp~ 4;
#X text 162 307 signal;
#X text 218 307 - impulse according to a chance;
#X obj 6 332 cnv 3 550 3 empty empty flags 8 12 0 13 #dcdcdc #000000
0;
#X text 135 341 -seed <float>: seed value (default: unique internal)
;
#X text 218 273 - a float sets seed \, no float sets a unique internal
;
#N canvas 529 124 742 381 seed 0;
#X text 26 21 Pseudo random number generators aren't true random number
generators. Instead \, an algorithm is used to provide a sequence of
numbers that seems random. The same sequence can be reproduced if you
set a "seed" value \, which can be any integer number., f 52;
#X text 370 24 You can set a seed with the '-seed' flag. If you don't
supply it \, each object gets its own seed internal seed. If you send
a 'seed' message without float \, the object also gets a unique seed
value., f 52;
#X msg 557 143 seed;
#X msg 547 114 seed 123;
#X obj 547 176 s \$0-chance;
#X text 82 311 50%;
#X obj 59 282 else/trig2bang~;
#X obj 59 309 bng 18 500 50 0 empty empty empty 17 7 0 10 #dcdcdc #000000
#000000;
#X obj 159 282 else/trig2bang~;
#X text 182 311 25%;
#X obj 260 282 else/trig2bang~;
#X text 283 311 25%;
#X text 411 312 50%;
#X obj 388 283 else/trig2bang~;
#X obj 488 283 else/trig2bang~;
#X text 511 312 25%;
#X obj 589 283 else/trig2bang~;
#X text 612 312 25%;
#X obj 409 212 r \$0-chance;
#X obj 79 212 r \$0-chance;
#X obj 59 238 else/chance~ -seed 123 50 25 25, f 34;
#X obj 388 238 else/chance~ -seed 123 50 25 25, f 34;
#X obj 59 185 else/imp~ 1;
#X obj 388 185 else/imp~ 1;
#X obj 159 309 bng 18 500 50 0 empty empty empty 17 7 0 10 #dcdcdc
#000000 #000000;
#X obj 260 309 bng 18 500 50 0 empty empty empty 17 7 0 10 #dcdcdc
#000000 #000000;
#X obj 388 310 bng 18 500 50 0 empty empty empty 17 7 0 10 #dcdcdc
#000000 #000000;
#X obj 488 310 bng 18 500 50 0 empty empty empty 17 7 0 10 #dcdcdc
#000000 #000000;
#X obj 589 310 bng 18 500 50 0 empty empty empty 17 7 0 10 #dcdcdc
#000000 #000000;
#X text 26 100 Seeds are kept locally \, which means that if two [chance~]
objects are seeded the same they will have the same output. Conversely
\, you can seed the same [chance~] object twice with the same seed
to repeat the output., f 52;
#X connect 2 0 4 0;
#X connect 3 0 4 0;
#X connect 6 0 7 0;
#X connect 8 0 24 0;
#X connect 10 0 25 0;
#X connect 13 0 26 0;
#X connect 14 0 27 0;
#X connect 16 0 28 0;
#X connect 18 0 21 0;
#X connect 19 0 20 0;
#X connect 20 0 6 0;
#X connect 20 1 8 0;
#X connect 20 2 10 0;
#X connect 21 0 13 0;
#X connect 21 1 14 0;
#X connect 21 2 16 0;
#X connect 22 0 20 0;
#X connect 23 0 21 0;
#X restore 493 217 pd seed;
#X text 13 190 see also:;
#X obj 13 210 else/chance;
#X connect 25 0 27 0;
#X connect 25 1 29 0;
#X connect 25 2 32 0;
#X connect 27 0 28 0;
#X connect 29 0 30 0;
#X connect 32 0 33 0;
#X connect 36 0 25 0;
