#N canvas 484 91 559 452 10;
#X obj 4 296 cnv 3 550 3 empty empty inlets 8 12 0 13 #dcdcdc #000000
0;
#X obj 4 351 cnv 3 550 3 empty empty outlets 8 12 0 13 #dcdcdc #000000
0;
#X obj 4 384 cnv 3 550 3 empty empty arguments 8 12 0 13 #dcdcdc #000000
0;
#X obj 4 414 cnv 15 552 21 empty empty empty 20 12 0 14 #e0e0e0 #202020
0;
#X obj 216 184 else/changed~ 0.5;
#X obj 117 360 cnv 17 3 17 empty empty 0 5 9 0 16 #dcdcdc #9c9c9c 0
;
#X obj 117 304 cnv 17 3 17 empty empty 0 5 9 0 16 #dcdcdc #9c9c9c 0
;
#X text 169 304 signal;
#X text 169 360 signal;
#X obj 117 327 cnv 17 3 17 empty empty 1 5 9 0 16 #dcdcdc #9c9c9c 0
;
#X text 169 328 signal;
#X text 211 304 - signal to detect changes;
#X text 211 328 - threshold value;
#X text 61 86 [changed~] sends an impulse whenever an input value changes
and the change is equal or greater than a given threshold. If the threshold
is 0 \, then any change is detected.;
#X obj 216 224 else/out~;
#X text 157 390 1) float - threshold (default 0);
#X obj 2 3 cnv 15 301 42 empty empty changed~ 20 20 2 37 #e0e0e0 #000000
0;
#N canvas 0 22 450 278 (subpatch) 0;
#X coords 0 1 100 -1 302 42 1;
#X restore 2 3 graph;
#X obj 23 40 cnv 4 4 4 empty empty Detect 0 28 2 18 #e0e0e0 #000000
0;
#X obj 132 40 cnv 4 4 4 empty empty changes 0 28 2 18 #e0e0e0 #000000
0;
#X obj 79 40 cnv 4 4 4 empty empty signal 0 28 2 18 #e0e0e0 #000000
0;
#X obj 216 149 else/lfnoise~ 5;
#X text 211 360 - impulse when a change is detected;
#X obj 306 4 cnv 15 250 40 empty empty empty 12 13 0 18 #7c7c7c #e0e4dc
0;
#N canvas 382 141 749 319 (subpatch) 0;
#X coords 0 -1 1 1 252 42 2 100 100;
#X restore 305 3 pd;
#X obj 345 11 cnv 10 10 10 empty empty ELSE 0 15 2 30 #7c7c7c #e0e4dc
0;
#X obj 458 11 cnv 10 10 10 empty empty EL 0 6 2 13 #7c7c7c #e0e4dc
0;
#X obj 478 11 cnv 10 10 10 empty empty Locus 0 6 2 13 #7c7c7c #e0e4dc
0;
#X obj 515 11 cnv 10 10 10 empty empty Solus' 0 6 2 13 #7c7c7c #e0e4dc
0;
#X obj 464 26 cnv 10 10 10 empty empty ELSE 0 6 2 13 #7c7c7c #e0e4dc
0;
#X obj 502 26 cnv 10 10 10 empty empty library 0 6 2 13 #7c7c7c #e0e4dc
0;
#X connect 4 0 14 0;
#X connect 21 0 4 0;
