#N canvas 527 58 560 464 10;
#X obj 3 4 cnv 15 301 42 empty empty combine 20 20 2 37 #e0e0e0 #000000
0;
#X obj 306 5 cnv 15 250 40 empty empty empty 12 13 0 18 #7c7c7c #e0e4dc
0;
#N canvas 0 22 450 278 (subpatch) 0;
#X coords 0 1 100 -1 302 42 1;
#X restore 2 4 graph;
#X obj 345 12 cnv 10 10 10 empty empty ELSE 0 15 2 30 #7c7c7c #e0e4dc
0;
#X obj 23 41 cnv 4 4 4 empty empty Combine\\\ data\\\ received\\\ close\\\ together
0 28 2 18 #e0e0e0 #000000 0;
#X obj 458 12 cnv 10 10 10 empty empty EL 0 6 2 13 #7c7c7c #e0e4dc
0;
#X obj 478 12 cnv 10 10 10 empty empty Locus 0 6 2 13 #7c7c7c #e0e4dc
0;
#X obj 515 12 cnv 10 10 10 empty empty Solus' 0 6 2 13 #7c7c7c #e0e4dc
0;
#X obj 464 27 cnv 10 10 10 empty empty ELSE 0 6 2 13 #7c7c7c #e0e4dc
0;
#X obj 502 27 cnv 10 10 10 empty empty library 0 6 2 13 #7c7c7c #e0e4dc
0;
#N canvas 0 22 450 278 (subpatch) 0;
#X coords 0 1 100 -1 252 42 1 0 0;
#X restore 305 4 graph;
#X obj 1 300 cnv 3 550 3 empty empty inlets 8 12 0 13 #dcdcdc #000000
0;
#X obj 1 361 cnv 3 550 3 empty empty outlets 8 12 0 13 #dcdcdc #000000
0;
#X obj 1 402 cnv 3 550 3 empty empty arguments 8 12 0 13 #dcdcdc #000000
0;
#X obj 96 311 cnv 17 3 17 empty empty 0 5 9 0 16 #dcdcdc #9c9c9c 0
;
#X obj 96 373 cnv 17 3 17 empty empty 0 5 9 0 16 #dcdcdc #9c9c9c 0
;
#X obj 96 335 cnv 17 3 17 empty empty 1 5 9 0 16 #dcdcdc #9c9c9c 0
;
#X obj 1 439 cnv 1 550 1 empty empty empty 0 0 0 4 #fcfcfc #fcfcfc
0;
#X obj 1 435 cnv 15 552 21 empty empty empty 20 12 0 14 #e0e0e0 #202020
0;
#X text 177 374 -;
#X text 177 336 -;
#X text 137 336 float;
#X text 208 413 -;
#X text 149 413 1) float, f 9;
#X text 192 336 time interval for combining items to a list;
#X obj 198 160 bng 17 250 50 0 empty empty empty 17 7 0 10 #dcdcdc
#000000 #000000;
#X obj 198 188 else/loop 10;
#X text 123 313 anything -;
#X text 190 313 message to be combined with another input close in
time;
#X text 119 374 anything;
#X text 192 374 combined (or not) messages, f 33;
#X obj 198 245 else/display;
#N canvas 1091 366 464 309 example 0;
#X obj 100 49 bng 18 250 50 0 empty empty empty 17 7 0 10 #dcdcdc #000000
#000000;
#X obj 111 111 delay 45;
#X obj 100 136 random 1000;
#X msg 127 82 45;
#X msg 187 82 55;
#X floatatom 187 148 5 0 0 0 - - - 0;
#X msg 156 82 50;
#X text 225 145 <= set another time interval;
#X text 223 81 <= change delay time;
#X text 126 50 <= check if delayed messages can be packed together
;
#X obj 100 177 else/combine 50;
#X obj 100 248 print;
#X obj 100 208 else/display;
#X connect 0 0 1 0;
#X connect 0 0 2 0;
#X connect 1 0 2 0;
#X connect 2 0 10 0;
#X connect 3 0 1 1;
#X connect 4 0 1 1;
#X connect 5 0 10 1;
#X connect 6 0 1 1;
#X connect 10 0 12 0;
#X connect 12 0 11 0;
#X restore 464 262 pd example;
#X text 221 413 initial time in ms (default 0);
#X obj 198 218 else/combine;
#X text 44 87 [combine] collects messages (with one or more elements)
into a single list if they come within a certain given amount of time
\, but not if greater than it. A "0" time is possible if messages are
sent in a sequence usch as from a [loop] object. Each item or list
is appended to the previous stored items. A negative time value will
not combine anythng., f 74;
#X msg 287 190 0;
#X msg 287 218 -1;
#X obj 198 275 print;
#X connect 25 0 26 0;
#X connect 26 0 34 0;
#X connect 31 0 38 0;
#X connect 34 0 31 0;
#X connect 36 0 34 1;
#X connect 37 0 34 1;
