#N canvas 503 42 562 470 10;
#X obj 6 432 cnv 15 552 21 empty empty empty 20 12 0 14 #e0e0e0 #202020
0;
#X obj 7 290 cnv 3 550 3 empty empty inlets 8 12 0 13 #dcdcdc #000000
0;
#X obj 7 337 cnv 3 550 3 empty empty outlets 8 12 0 13 #dcdcdc #000000
0;
#X obj 7 370 cnv 3 550 3 empty empty arguments 8 12 0 13 #dcdcdc #000000
0;
#X obj 7 401 cnv 3 550 3 empty empty more_info 8 12 0 13 #dcdcdc #000000
0;
#X obj 117 299 cnv 17 3 32 empty empty 0 5 9 0 16 #dcdcdc #9c9c9c 0
;
#X obj 117 345 cnv 17 3 17 empty empty 0 5 9 0 16 #dcdcdc #9c9c9c 0
;
#X text 184 345 signal;
#X obj 2 3 cnv 15 301 42 empty empty crackle~ 20 20 2 37 #e0e0e0 #000000
0;
#X obj 306 4 cnv 15 250 40 empty empty empty 12 13 0 18 #7c7c7c #e0e4dc
0;
#N canvas 0 22 450 278 (subpatch) 0;
#X coords 0 1 100 -1 302 42 1 0 0;
#X restore 2 3 graph;
#N canvas 382 141 749 319 (subpatch) 0;
#X coords 0 -1 1 1 252 42 2 100 100;
#X restore 305 3 pd;
#X obj 345 11 cnv 10 10 10 empty empty ELSE 0 15 2 30 #7c7c7c #e0e4dc
0;
#X obj 158 40 cnv 4 4 4 empty empty generator 0 28 2 18 #e0e0e0 #000000
0;
#X obj 458 11 cnv 10 10 10 empty empty EL 0 6 2 13 #7c7c7c #e0e4dc
0;
#X obj 478 11 cnv 10 10 10 empty empty Locus 0 6 2 13 #7c7c7c #e0e4dc
0;
#X obj 464 26 cnv 10 10 10 empty empty ELSE 0 6 2 13 #7c7c7c #e0e4dc
0;
#X obj 109 40 cnv 4 4 4 empty empty Noise 0 28 2 18 #e0e0e0 #000000
0;
#X obj 221 147 hsl 128 15 0 1 0 0 empty empty empty -2 -8 0 10 #dcdcdc
#000000 #000000 0 1;
#X obj 218 225 else/out~;
#X obj 218 196 else/crackle~;
#X msg 168 167 clear;
#X text 237 345 - crackle noise;
#X text 193 315 clear - clear filter's memory;
#X obj 218 173 nbx 5 14 -1e+37 1e+37 0 0 empty empty empty 0 -8 0 10
#dcdcdc #000000 #000000 0 256;
#X text 239 146 'p' parameter;
#X text 151 299 float/signal - chaotic parameter 'p' (from 0 to 1)
;
#X text 180 378 1) float - 'p' parameter (default 0.5);
#X obj 43 40 cnv 4 4 4 empty empty Crackle 0 28 2 18 #e0e0e0 #000000
0;
#X text 105 88 [crackle~] generates noise based on a chaotic function
\, defined by the difference equation \; y[n] = (p + 1) * y[n-1] -
y[n-2] - 0.05;
#X text 150 409 Object inspired on SuperCollider's "Crackle" UGEN.
, f 51;
#X connect 18 0 24 0;
#X connect 20 0 19 0;
#X connect 21 0 20 0;
#X connect 24 0 20 0;
