#N canvas 465 25 559 549 10;
#X obj 226 169 hsl 128 15 44.1 44100 1 0 empty empty empty -2 -8 0
10 #dcdcdc #000000 #000000 0 1;
#X obj 306 4 cnv 15 250 40 empty empty empty 12 13 0 18 #7c7c7c #e0e4dc
0;
#N canvas 382 141 749 319 (subpatch) 0;
#X coords 0 -1 1 1 252 42 2 100 100;
#X restore 305 3 pd;
#X obj 345 11 cnv 10 10 10 empty empty ELSE 0 15 2 30 #7c7c7c #e0e4dc
0;
#X obj 23 40 cnv 4 4 4 empty empty Cusp 0 28 2 18 #e0e0e0 #000000 0
;
#X obj 458 11 cnv 10 10 10 empty empty EL 0 6 2 13 #7c7c7c #e0e4dc
0;
#X obj 478 11 cnv 10 10 10 empty empty Locus 0 6 2 13 #7c7c7c #e0e4dc
0;
#X obj 464 26 cnv 10 10 10 empty empty ELSE 0 6 2 13 #7c7c7c #e0e4dc
0;
#X obj 112 40 cnv 4 4 4 empty empty chaotic 0 28 2 18 #e0e0e0 #000000
0;
#X obj 3 509 cnv 15 552 21 empty empty empty 20 12 0 14 #e0e0e0 #202020
0;
#X obj 3 306 cnv 3 550 3 empty empty inlets 8 12 0 13 #dcdcdc #000000
0;
#X obj 3 356 cnv 3 550 3 empty empty outlets 8 12 0 13 #dcdcdc #000000
0;
#X obj 3 392 cnv 3 550 3 empty empty arguments 8 12 0 13 #dcdcdc #000000
0;
#X obj 94 365 cnv 17 3 17 empty empty 0 5 9 0 16 #dcdcdc #9c9c9c 0
;
#X obj 92 316 cnv 17 3 33 empty empty 0 5 9 0 16 #dcdcdc #9c9c9c 0
;
#X text 160 366 signal;
#X text 147 399 1) float;
#X obj 223 193 nbx 5 14 -1e+37 1e+37 0 0 empty empty empty 0 -8 0 10
#dcdcdc #000000 #000000 0 256;
#X text 124 316 float/signal;
#X text 207 316 - frequency in hertz (negative values accepted);
#X obj 173 40 cnv 4 4 4 empty empty generator 0 28 2 18 #e0e0e0 #000000
0;
#X text 282 193 rate in Hz;
#X obj 223 243 else/out~;
#X text 172 333 list;
#X text 83 135 The output rate of the equation is given in hertz (default:
nyquist).;
#X text 147 416 2) float;
#X text 147 433 3) float;
#X obj 7 477 cnv 3 550 3 empty empty more_info 8 12 0 13 #dcdcdc #000000
0;
#X text 207 399 - sets frequency in hertz (default: nyquist);
#X obj 69 40 cnv 4 4 4 empty empty map 0 28 2 18 #e0e0e0 #000000 0
;
#X text 207 453 - sets initial value of y[n-1] (default 0);
#X obj 223 218 else/cusp~;
#X msg 160 192 1.3 1.5;
#X obj 2 3 cnv 15 301 42 empty empty cusp~ 20 20 2 37 #e0e0e0 #000000
0;
#N canvas 0 22 450 278 (subpatch) 0;
#X coords 0 1 100 -1 302 42 1 0 0;
#X restore 2 3 graph;
#X text 84 90 [cusp~] is a chaotic generator using the difference equation
\; y[n] = a - b * sqrt(abs(y[n-1]));
#X text 147 453 4) float;
#X text 153 485 Object based on SuperCollider's "CuspN" UGEN.;
#X text 207 416 - sets 'a' (default 1);
#X text 207 433 - sets 'b' (default 0.19);
#X text 207 334 - 3 floats sets 'a' \, 'b' and y[n-1];
#X text 207 367 - cusp map chaotic signal;
#X text 90 193 setting => 'a' & 'b', f 10;
#X connect 0 0 17 0;
#X connect 17 0 31 0;
#X connect 31 0 22 0;
#X connect 32 0 31 0;
