#N canvas 566 23 564 416 10;
#X obj 4 274 cnv 3 550 3 empty empty inlets 8 12 0 13 #dcdcdc #000000
0;
#X obj 4 308 cnv 3 550 3 empty empty outlets 8 12 0 13 #dcdcdc #000000
0;
#X obj 4 339 cnv 3 550 3 empty empty arguments 8 12 0 13 #dcdcdc #000000
0;
#X obj 4 387 cnv 15 552 21 empty empty empty 20 12 0 14 #e0e0e0 #202020
0;
#X obj 129 282 cnv 17 3 17 empty empty 0 5 9 0 16 #dcdcdc #9c9c9c 0
;
#X obj 2 2 cnv 15 301 42 empty empty display 20 20 2 37 #e0e0e0 #000000
0;
#N canvas 0 22 450 278 (subpatch) 0;
#X coords 0 1 100 -1 302 42 1;
#X restore 2 2 graph;
#X obj 23 39 cnv 4 4 4 empty empty Display 0 28 2 18 #e0e0e0 #000000
0;
#X obj 93 39 cnv 4 4 4 empty empty messages 0 28 2 18 #e0e0e0 #000000
0;
#X obj 306 3 cnv 15 250 40 empty empty empty 12 13 0 18 #7c7c7c #e0e4dc
0;
#N canvas 382 141 749 319 (subpatch) 0;
#X coords 0 -1 1 1 252 42 2 100 100;
#X restore 305 2 pd;
#X obj 345 10 cnv 10 10 10 empty empty ELSE 0 15 2 30 #7c7c7c #e0e4dc
0;
#X obj 458 10 cnv 10 10 10 empty empty EL 0 6 2 13 #7c7c7c #e0e4dc
0;
#X obj 478 10 cnv 10 10 10 empty empty Locus 0 6 2 13 #7c7c7c #e0e4dc
0;
#X obj 515 10 cnv 10 10 10 empty empty Solus' 0 6 2 13 #7c7c7c #e0e4dc
0;
#X obj 464 25 cnv 10 10 10 empty empty ELSE 0 6 2 13 #7c7c7c #e0e4dc
0;
#X obj 502 25 cnv 10 10 10 empty empty library 0 6 2 13 #7c7c7c #e0e4dc
0;
#X text 115 345 1) float - number of characters (default: 0 - not fixed)
;
#X text 168 282 anything;
#X text 231 282 - any message to be displayed;
#X obj 129 315 cnv 17 3 17 empty empty 0 5 9 0 16 #dcdcdc #9c9c9c 0
;
#X text 168 315 anything;
#X text 231 315 - any input is passed through;
#X text 115 365 2) float - refresh rate in ms (default 100);
#X text 61 84 [display] can display a message just like [print]. The
1st argument specifies a fixed number of characters to display. If
"0" or no argument is given \, the display automatically resizes according
to the input message. If a message is larger than the fixed number
of characters \, the displayed message is truncated.;
#X obj 249 157 loadbang;
#X msg 142 183 any message;
#X msg 249 183 list a b c;
#X text 155 238 [else/display] =>;
#X floatatom 273 207 5 0 0 0 - - - 0;
#X symbolatom 323 208 10 0 0 0 - - - 0;
#X obj 273 235 else/display 0 7;
#X obj 224 183 bng 15 250 50 0 empty empty empty 17 7 0 10 #fcfcfc
#000000 #000000;
#X connect 25 0 27 0;
#X connect 26 0 31 0;
#X connect 27 0 31 0;
#X connect 29 0 31 0;
#X connect 30 0 31 0;
#X connect 32 0 31 0;
#X coords 0 416 1 415 85 22 0;
