#N canvas 555 23 563 559 10;
#X text 149 475 1) float;
#X text 149 493 2) float;
#X text 205 509 - sets maximum value (default 127);
#X text 205 493 - sets minimum value (default 0);
#X obj 109 267 cnv 17 3 77 empty empty 0 5 9 0 16 #dcdcdc #9c9c9c 0
;
#X obj 109 407 cnv 17 3 17 empty empty 0 5 9 0 16 #dcdcdc #9c9c9c 0
;
#X text 210 266 -;
#X text 210 282 -;
#X text 132 314 seed <float> -;
#X text 225 314 seeds the internal random number generator, f 50;
#X text 149 509 3) float;
#X text 150 330 p <float> -;
#X obj 306 4 cnv 15 250 40 empty empty empty 12 13 0 18 #7c7c7c #e0e4dc
0;
#X obj 345 11 cnv 10 10 10 empty empty ELSE 0 15 2 30 #7c7c7c #e0e4dc
0;
#X obj 458 11 cnv 10 10 10 empty empty EL 0 6 2 13 #7c7c7c #e0e4dc
0;
#X obj 478 11 cnv 10 10 10 empty empty Locus 0 6 2 13 #7c7c7c #e0e4dc
0;
#X obj 515 11 cnv 10 10 10 empty empty Solus' 0 6 2 13 #7c7c7c #e0e4dc
0;
#X obj 464 26 cnv 10 10 10 empty empty ELSE 0 6 2 13 #7c7c7c #e0e4dc
0;
#X obj 502 26 cnv 10 10 10 empty empty library 0 6 2 13 #7c7c7c #e0e4dc
0;
#N canvas 0 22 450 278 (subpatch) 0;
#X coords 0 1 100 -1 252 42 1 0 0;
#X restore 305 3 graph;
#X obj 22 40 cnv 4 4 4 empty empty Drunkard's 0 28 2 18 #e0e0e0 #000000
0;
#X obj 111 40 cnv 4 4 4 empty empty walk 0 28 2 18 #e0e0e0 #000000
0;
#X obj 3 3 cnv 15 301 42 empty empty drunkard~ 20 20 2 37 #e0e0e0 #000000
0;
#N canvas 0 22 450 278 (subpatch) 0;
#X coords 0 1 100 -1 302 42 1;
#X restore 2 3 graph;
#X obj 153 40 cnv 4 4 4 empty empty algorithm 0 28 2 18 #e0e0e0 #000000
0;
#X obj 4 529 cnv 15 552 21 empty empty empty 20 12 0 14 #e0e0e0 #202020
0;
#X obj 6 258 cnv 3 550 3 empty empty inlets 8 12 0 13 #dcdcdc #000000
0;
#X obj 6 398 cnv 3 550 3 empty empty outlets 8 12 0 13 #dcdcdc #000000
0;
#X obj 5 464 cnv 3 550 3 empty empty arguments 8 12 0 13 #dcdcdc #000000
0;
#X obj 6 433 cnv 3 550 3 empty empty flags 8 12 0 13 #dcdcdc #000000
0;
#X text 89 444 -seed <float> - sets seed | -p <float> - sets probability
(default 70), f 70;
#X text 225 330 sets probability of a positive step in %, f 50;
#X text 205 475 - sets step range (default 1);
#X text 132 298 step <float> -;
#X text 225 298 sets step range, f 50;
#X obj 206 226 hsl 128 15 -1 1 0 0 empty empty empty -2 -8 0 10 #dcdcdc
#000000 #000000 0 1;
#X obj 479 77 else/setdsp~;
#X text 67 93 [drunkard~] generates random nvalues within a given step
range from the last output. When reaching the bounds \, the values
get wrapped., f 63;
#X text 166 266 signal;
#X text 225 266 impulses triggers a random output, f 50;
#X text 165 410 signal;
#X text 210 410 - random value as result of the random walk;
#X text 178 282 list;
#X text 225 282 two floats set lower and upper bound, f 50;
#X obj 203 174 else/drunkard~;
#X obj 203 201 else/s2f~;
#X obj 203 142 else/impulse~ 50;
#X obj 109 350 cnv 17 3 17 empty empty 1 5 9 0 16 #dcdcdc #9c9c9c 0
;
#X obj 109 374 cnv 17 3 17 empty empty 2 5 9 0 16 #dcdcdc #9c9c9c 0
;
#X text 174 350 float -;
#X text 225 350 sets lower bound, f 50;
#X text 174 374 float -;
#X text 225 374 sets upper bound, f 50;
#X connect 44 0 45 0;
#X connect 45 0 35 0;
#X connect 46 0 44 0;
