#N canvas 318 73 792 523 10;
#X floatatom 165 73 5 0 7 0 - ampdist - 0;
#X floatatom 220 73 5 0 7 0 - durdist - 0;
#X floatatom 275 73 5 0 0 2 - minfreq - 0;
#X floatatom 330 73 5 0 0 0 - maxfreq - 0;
#X floatatom 385 73 5 0 1 0 - ampparam - 0;
#X floatatom 447 73 5 0 1 0 - ampscale - 0;
#X floatatom 500 73 5 0 1 0 - durparam - 0;
#X floatatom 564 73 5 0 1 0 - durscale - 0;
#X floatatom 123 73 5 1 128 0 - knum - 0;
#X obj 460 182 loadbang;
#X obj 330 361 out~;
#X obj 330 210 meter~;
#X msg 123 98 n \$1;
#X msg 165 98 ampd \$1;
#X msg 220 98 durd \$1;
#X msg 275 98 minf \$1;
#X msg 330 98 maxf \$1;
#X msg 385 98 ampp \$1;
#X msg 447 98 amp \$1;
#X msg 500 98 durp \$1;
#X msg 564 98 dur \$1;
#X msg 598 326 dist dur 3 0.7;
#X text 581 299 create 'dist' message;
#X obj 52 249 graph~ 441 50 -1 1 200 140 #dfdfdf 0 1;
#X msg 61 199 skip 50;
#X floatatom 310 43 5 0 0 0 - - - 0;
#X text 614 157 phase sync;
#X text 613 184 audio input;
#X msg 263 38 10;
#X msg 356 44 0.01;
#X text 605 216 freq changes at each segment, f 15;
#X msg 634 122 interp \$1;
#X obj 634 99 tgl 16 0 empty empty empty 0 -8 0 10 #fcfcfc #000000 #000000 0 1;
#X msg 460 213 \; minfreq 30 \; maxfreq 100 \; durdist 1 \; ampdist 1 \; ampparam 1 \; ampscale 0.3 \; durparam 1 \; durscale 0.05 \; knum 5 \;;
#X obj 476 354 loadbang;
#X msg 476 385 \; minfreq 120 \; maxfreq 440 \; durdist 0 \; ampdist 0 \; ampparam 0 \; ampscale 0.1 \; durparam 0 \; durscale 0.2 \; knum 32 \;;
#X obj 330 172 dss~, f 9;
#X connect 0 0 13 0;
#X connect 1 0 14 0;
#X connect 2 0 15 0;
#X connect 3 0 16 0;
#X connect 4 0 17 0;
#X connect 5 0 18 0;
#X connect 6 0 19 0;
#X connect 7 0 20 0;
#X connect 8 0 12 0;
#X connect 11 0 10 0;
#X connect 12 0 36 0;
#X connect 13 0 36 0;
#X connect 14 0 36 0;
#X connect 15 0 36 0;
#X connect 16 0 36 0;
#X connect 17 0 36 0;
#X connect 18 0 36 0;
#X connect 19 0 36 0;
#X connect 20 0 36 0;
#X connect 24 0 23 0;
#X connect 25 0 16 0;
#X connect 25 0 15 0;
#X connect 28 0 25 0;
#X connect 29 0 25 0;
#X connect 31 0 36 0;
#X connect 32 0 31 0;
#X connect 34 0 35 0;
#X connect 36 0 11 0;
#X connect 36 0 23 0;
