#N canvas 629 34 563 466 10;
#X obj 3 3 cnv 15 301 42 empty empty dust2~ 20 20 2 37 -233017 -1 0
;
#X obj 307 4 cnv 15 250 40 empty empty empty 12 13 0 18 -128992 -233080
0;
#N canvas 0 22 450 278 (subpatch) 0;
#X coords 0 1 100 -1 302 42 1 0 0;
#X restore 3 3 graph;
#N canvas 382 141 749 319 (subpatch) 0;
#X coords 0 -1 1 1 252 42 2 100 100;
#X restore 306 3 pd;
#X obj 346 11 cnv 10 10 10 empty empty ELSE 0 15 2 30 -128992 -233080
0;
#X obj 24 40 cnv 4 4 4 empty empty Random 0 28 2 18 -233017 -1 0;
#X obj 459 11 cnv 10 10 10 empty empty EL 0 6 2 13 -128992 -233080
0;
#X obj 479 11 cnv 10 10 10 empty empty Locus 0 6 2 13 -128992 -233080
0;
#X obj 465 26 cnv 10 10 10 empty empty ELSE 0 6 2 13 -128992 -233080
0;
#X obj 93 40 cnv 4 4 4 empty empty impulses 0 28 2 18 -233017 -1 0
;
#X obj 212 160 hsl 128 15 1 5000 1 0 empty empty empty -2 -8 0 10 -228856
-1 -1 0 1;
#X obj 209 257 else/out~;
#X obj 3 439 cnv 15 552 21 empty empty empty 20 12 0 14 -233017 -33289
0;
#X obj 3 317 cnv 3 550 3 empty empty inlets 8 12 0 13 -228856 -1 0
;
#X obj 3 366 cnv 3 550 3 empty empty outlets 8 12 0 13 -228856 -1 0
;
#X obj 3 403 cnv 3 550 3 empty empty arguments 8 12 0 13 -228856 -1
0;
#X obj 126 375 cnv 17 3 17 empty empty 0 5 9 0 16 -228856 -162280 0
;
#X obj 125 326 cnv 17 3 33 empty empty 0 5 9 0 16 -228856 -162280 0
;
#X text 188 375 signal;
#X text 176 415 1) float;
#X obj 209 189 nbx 8 14 -1e+37 1e+37 0 0 empty empty empty 0 -8 0 10
-228856 -1 -1 0 256;
#X text 293 190 density;
#X text 237 376 - random impulses;
#X text 237 326 - density (rate) of random impulses;
#X text 237 414 - density (default 0);
#X text 152 327 float/signal;
#X text 152 345 seed <float>;
#X text 236 345 - sets seed value;
#N canvas 837 234 357 286 seed 0;
#X text 60 23 Sync [dust2~] objects with a seed value;
#X obj 43 221 else/display~;
#X obj 193 221 else/display~;
#X text 254 84 <= set seed;
#X msg 193 85 seed 507;
#X obj 193 63 loadbang;
#X obj 43 177 else/trighold~;
#X obj 193 180 else/trighold~;
#X obj 43 143 else/dust2~ 1;
#X obj 193 143 else/dust2~ 1;
#X connect 4 0 8 0;
#X connect 4 0 9 0;
#X connect 5 0 4 0;
#X connect 6 0 1 0;
#X connect 7 0 2 0;
#X connect 8 0 6 0;
#X connect 9 0 7 0;
#X restore 465 280 pd seed;
#X obj 209 215 else/dust2~ 1;
#X obj 451 232 else/dust~;
#X text 452 210 see also:;
#X text 92 87 [dust~] is based on SuperCollider's "Dust2" UGEN and
outputs random impulse values (from -1 to 1) at random times according
to a density parameter. The difference to SuperCollider's is that it
only produces actual impulses (one non zero value in between 0 valued
samples)., f 63;
#X connect 10 0 20 0;
#X connect 20 0 29 0;
#X connect 29 0 11 0;
