#N canvas 478 60 564 386 10;
#X msg 224 131 7/20 7/24;
#X obj 4 234 cnv 3 550 3 empty empty inlets 8 12 0 13 #dcdcdc #000000
0;
#X obj 4 289 cnv 3 550 3 empty empty outlets 8 12 0 13 #dcdcdc #000000
0;
#X obj 4 326 cnv 3 550 3 empty empty arguments 8 12 0 13 #dcdcdc #000000
0;
#X obj 119 298 cnv 17 3 17 empty empty 0 5 9 0 16 #dcdcdc #9c9c9c 0
;
#X obj 4 359 cnv 15 552 21 empty empty empty 20 12 0 14 #e0e0e0 #202020
0;
#X obj 3 2 cnv 15 301 42 empty empty frac.add 20 20 2 37 #e0e0e0 #000000
0;
#X obj 306 4 cnv 15 250 40 empty empty empty 12 13 0 18 #7c7c7c #e0e4dc
0;
#N canvas 0 22 450 278 (subpatch) 0;
#X coords 0 1 100 -1 302 42 1 0 0;
#X restore 2 3 graph;
#N canvas 382 141 749 319 (subpatch) 0;
#X coords 0 -1 1 1 252 42 2 100 100;
#X restore 305 3 pd;
#X obj 345 11 cnv 10 10 10 empty empty ELSE 0 15 2 30 #7c7c7c #e0e4dc
0;
#X obj 23 40 cnv 4 4 4 empty empty Add\\\ fractions 0 28 2 18 #e0e0e0
#000000 0;
#X obj 458 11 cnv 10 10 10 empty empty EL 0 6 2 13 #7c7c7c #e0e4dc
0;
#X obj 478 11 cnv 10 10 10 empty empty Locus 0 6 2 13 #7c7c7c #e0e4dc
0;
#X obj 515 11 cnv 10 10 10 empty empty Solus' 0 6 2 13 #7c7c7c #e0e4dc
0;
#X obj 464 26 cnv 10 10 10 empty empty ELSE 0 6 2 13 #7c7c7c #e0e4dc
0;
#X obj 502 26 cnv 10 10 10 empty empty library 0 6 2 13 #7c7c7c #e0e4dc
0;
#X obj 117 243 cnv 17 3 17 empty empty 0 5 9 0 16 #dcdcdc #9c9c9c 0
;
#X text 255 335 none;
#X text 47 159 see also:;
#X obj 38 180 else/frac2dec;
#X obj 224 195 else/display;
#X text 161 244 anything;
#X text 172 298 symbol;
#X text 223 298 - added fraction;
#X obj 117 265 cnv 17 3 17 empty empty 1 5 9 0 16 #dcdcdc #9c9c9c 0
;
#X text 161 266 anything;
#X msg 299 131 1/2;
#X msg 178 131 13/7;
#X text 224 244 - fractional value to add to right input;
#X text 224 266 - fractional value to add to leftt input;
#X obj 38 200 else/frac.mul;
#X obj 224 166 else/frac.add;
#X text 61 86 Use [frac.add] to add two fractions. The output is also
a fraction.;
#X connect 0 0 32 0;
#X connect 27 0 32 1;
#X connect 28 0 32 0;
#X connect 32 0 21 0;
