#N canvas 471 61 563 432 10;
#X obj 6 277 cnv 3 550 3 empty empty inlets 8 12 0 13 #dcdcdc #000000
0;
#X obj 6 335 cnv 3 550 3 empty empty outlets 8 12 0 13 #dcdcdc #000000
0;
#X obj 6 367 cnv 3 550 3 empty empty arguments 8 12 0 13 #dcdcdc #000000
0;
#X obj 118 343 cnv 17 3 17 empty empty 0 5 9 0 16 #dcdcdc #9c9c9c 0
;
#X obj 6 403 cnv 15 552 21 empty empty empty 20 12 0 14 #e0e0e0 #202020
0;
#X obj 118 285 cnv 17 3 17 empty empty 0 5 9 0 16 #dcdcdc #9c9c9c 0
;
#X obj 118 311 cnv 17 3 17 empty empty 1 5 9 0 16 #dcdcdc #9c9c9c 0
;
#X text 176 344 signal;
#X obj 25 40 cnv 4 4 4 empty empty Hold 0 28 2 18 #e0e0e0 #000000 0
;
#X obj 70 40 cnv 4 4 4 empty empty gate 0 28 2 18 #e0e0e0 #000000 0
;
#X obj 117 40 cnv 4 4 4 empty empty values 0 28 2 18 #e0e0e0 #000000
0;
#X obj 5 3 cnv 15 301 42 empty empty gatehold~ 20 20 2 37 #e0e0e0 #000000
0;
#N canvas 0 22 450 278 (subpatch) 0;
#X coords 0 1 100 -1 302 42 1 0 0;
#X restore 4 3 graph;
#X obj 307 4 cnv 15 250 40 empty empty empty 12 13 0 18 #7c7c7c #e0e4dc
0;
#N canvas 382 141 749 319 (subpatch) 0;
#X coords 0 -1 1 1 252 42 2 100 100;
#X restore 306 3 pd;
#X obj 347 11 cnv 10 10 10 empty empty ELSE 0 15 2 30 #7c7c7c #e0e4dc
0;
#X obj 460 11 cnv 10 10 10 empty empty EL 0 6 2 13 #7c7c7c #e0e4dc
0;
#X obj 480 11 cnv 10 10 10 empty empty Locus 0 6 2 13 #7c7c7c #e0e4dc
0;
#X obj 517 11 cnv 10 10 10 empty empty Solus' 0 6 2 13 #7c7c7c #e0e4dc
0;
#X obj 466 26 cnv 10 10 10 empty empty ELSE 0 6 2 13 #7c7c7c #e0e4dc
0;
#X obj 504 26 cnv 10 10 10 empty empty library 0 6 2 13 #7c7c7c #e0e4dc
0;
#N canvas 207 34 366 264 (subpatch) 0;
#X obj 51 101 tgl 42 0 \$0-tgl-s \$0-tgl-r empty 1 8 1 9 #4a4f51 #cde5c3
#fcfcfc 0 1;
#X obj 215 68 route dsp;
#X obj 215 37 receive pd;
#N canvas 977 77 379 291 set_color 0;
#X obj 47 30 inlet;
#X obj 147 200 s \$0-cnv;
#X obj 47 83 select 0 1;
#X obj 47 220 s \$0-tgl-r;
#N canvas 0 22 712 637 off 0;
#X obj 490 220 * -1;
#X obj 424 300 +;
#X obj 409 325 +;
#X obj 347 219 * -65536;
#X obj 424 220 * -256;
#X obj 409 356 - 1;
#X obj 390 189 unpack f f f;
#X obj 225 295 +;
#X obj 210 320 +;
#X obj 148 214 * -65536;
#X obj 225 215 * -256;
#X obj 291 215 * -1;
#X obj 210 351 - 1;
#X obj 191 184 unpack f f f;
#X obj 379 423 pack;
#X msg 395 152 124 124 124;
#X msg 203 154 220 220 220;
#X obj 238 121 t b b;
#X obj 238 81 inlet;
#X obj 378 485 outlet;
#X connect 0 0 1 1;
#X connect 1 0 2 1;
#X connect 2 0 5 0;
#X connect 3 0 2 0;
#X connect 4 0 1 0;
#X connect 5 0 14 1;
#X connect 6 0 3 0;
#X connect 6 1 4 0;
#X connect 6 2 0 0;
#X connect 7 0 8 1;
#X connect 8 0 12 0;
#X connect 9 0 8 0;
#X connect 10 0 7 0;
#X connect 11 0 7 1;
#X connect 12 0 14 0;
#X connect 13 0 9 0;
#X connect 13 1 10 0;
#X connect 13 2 11 0;
#X connect 14 0 19 0;
#X connect 15 0 6 0;
#X connect 16 0 13 0;
#X connect 17 0 16 0;
#X connect 17 1 15 0;
#X connect 18 0 17 0;
#X restore 47 113 pd off;
#X msg 47 180 color \$1 \$2 0;
#X msg 147 131 -4.86997e+06 -1.34937e+07;
#X msg 147 171 color \$1 0 \$2;
#X connect 0 0 2 0;
#X connect 2 0 4 0;
#X connect 2 1 6 0;
#X connect 4 0 5 0;
#X connect 4 0 7 0;
#X connect 5 0 3 0;
#X connect 6 0 7 0;
#X connect 6 0 5 0;
#X connect 7 0 1 0;
#X restore 215 165 pd set_color;
#X obj 135 122 r \$0-tgl-s;
#N canvas 121 482 450 300 (subpatch) 0;
#X obj 101 101 cnv 25 40 25 empty \$0-cnv DSP 3 13 0 20 #4a4f51 #cde5c3
0;
#X coords 0 -1 1 1 42 27 1 100 100;
#X restore 51 144 pd;
#X obj 226 139 s \$0-tgl-r;
#X msg 226 115 set \$1;
#X msg 135 177 \; pd dsp \$1;
#N canvas 256 32 278 194 load_check 0;
#X obj 136 53 sig~ 1;
#X obj 74 24 loadbang;
#X obj 136 86 snapshot~;
#X obj 91 52 del 5;
#X obj 136 151 outlet;
#X obj 74 103 tgl 15 0 empty empty empty 17 7 0 10 #fcfcfc #000000
#000000 0 1;
#X obj 74 126 switch~;
#X connect 0 0 2 0;
#X connect 1 0 3 0;
#X connect 1 0 5 0;
#X connect 2 0 4 0;
#X connect 3 0 2 0;
#X connect 3 0 5 0;
#X connect 5 0 6 0;
#X restore 51 72 pd load_check;
#X connect 1 0 3 0;
#X connect 1 0 7 0;
#X connect 2 0 1 0;
#X connect 4 0 8 0;
#X connect 4 0 3 0;
#X connect 7 0 6 0;
#X connect 9 0 0 0;
#X coords 0 -1 1 1 44 72 2 50 100;
#X restore 507 71 pd;
#X text 176 285 signal;
#X text 224 285 - impulse trigger with the gate value;
#N canvas 639 96 517 475 example 0;
#X obj 125 163 else/sine~ 50;
#X obj 81 278 else/sine~ 200;
#X obj 162 246 *~;
#X obj 278 334 *~;
#X obj 177 201 else/adsr~ 400 200 0.5 1000, f 14;
#X obj 293 198 else/gatehold~ 500;
#X obj 293 225 else/adsr~ 100 100 0.5 750;
#X text 76 21 [gatehold~] allows the one gate to have a different duration
to control a separate parameter.;
#X text 77 56 In this example we have a gate controlling two independent
envelopes (one that controls the phase modulation index and another
that controls the amplitude). The envelope that controls the amplitude
has its sustain period enlarged by 500 ms because of the [gatehold~]
object.;
#X obj 293 153 else/pulse~ 0.2 0.25;
#X obj 278 375 else/out~;
#X connect 0 0 2 0;
#X connect 1 0 3 0;
#X connect 2 0 1 2;
#X connect 3 0 10 0;
#X connect 4 0 2 1;
#X connect 5 0 6 0;
#X connect 6 0 3 1;
#X connect 9 0 4 0;
#X connect 9 0 5 0;
#X restore 476 243 pd example;
#X text 224 312 - hold time in ms;
#X text 224 344 - held gate;
#X text 139 376 1) float - hold time in ms (default 0 \, no hold);
#X obj 246 207 else/gatehold~ 500;
#X obj 351 183 nbx 5 14 -1e+37 1e+37 0 0 empty empty empty 0 -8 0 10
#dcdcdc #000000 #000000 0 256;
#X text 184 312 float;
#X text 408 183 hold time;
#X obj 246 146 else/randpulse~ 0.5 0.25;
#X text 70 88 [gatehold~] holds a gate value for a certain amount of
time (specified in ms) after the gate has closed. If a new gate starts
before the hold time is finished \, the object is retriggered.;
#X obj 88 212 else/gatehold~ 500;
#X obj 88 164 else/imp~ 1;
#X obj 88 188 *~;
#X obj 123 188 noise~;
#X obj 246 239 else/numbox~ 6 12 100 #c0c0c4 #440008 10 0 0 0;
#X obj 88 239 else/numbox~ 6 12 100 #c0c0c4 #440008 10 0 0 0;
#X obj 246 173 else/numbox~ 6 12 100 #c0c0c4 #440008 10 0 0 0;
#X connect 28 0 38 0;
#X connect 29 0 28 1;
#X connect 32 0 40 0;
#X connect 34 0 39 0;
#X connect 35 0 36 0;
#X connect 36 0 34 0;
#X connect 37 0 36 1;
#X connect 40 0 28 0;
