#N canvas 524 101 562 361 10;
#X obj 4 230 cnv 3 550 3 empty empty inlets 8 12 0 13 #dcdcdc #000000
0;
#X obj 4 265 cnv 3 550 3 empty empty outlets 8 12 0 13 #dcdcdc #000000
0;
#X obj 4 300 cnv 3 550 3 empty empty arguments 8 12 0 13 #dcdcdc #000000
0;
#X obj 137 239 cnv 17 3 17 empty empty 0 5 9 0 16 #dcdcdc #9c9c9c 0
;
#X obj 4 333 cnv 15 552 21 empty empty empty 20 12 0 14 #e0e0e0 #202020
0;
#X obj 306 5 cnv 15 250 40 empty empty empty 12 13 0 18 #7c7c7c #e0e4dc
0;
#N canvas 382 141 749 319 (subpatch) 0;
#X coords 0 -1 1 1 252 42 2 100 100;
#X restore 305 4 pd;
#X obj 345 12 cnv 10 10 10 empty empty ELSE 0 15 2 30 #7c7c7c #e0e4dc
0;
#X obj 23 41 cnv 4 4 4 empty empty Run 0 28 2 18 #e0e0e0 #000000 0
;
#X obj 62 41 cnv 4 4 4 empty empty gui 0 28 2 18 #e0e0e0 #000000 0
;
#X obj 458 12 cnv 10 10 10 empty empty EL 0 6 2 13 #7c7c7c #e0e4dc
0;
#X obj 478 12 cnv 10 10 10 empty empty Locus 0 6 2 13 #7c7c7c #e0e4dc
0;
#X obj 515 12 cnv 10 10 10 empty empty Solus' 0 6 2 13 #7c7c7c #e0e4dc
0;
#X obj 464 27 cnv 10 10 10 empty empty ELSE 0 6 2 13 #7c7c7c #e0e4dc
0;
#X obj 502 27 cnv 10 10 10 empty empty library 0 6 2 13 #7c7c7c #e0e4dc
0;
#X obj 91 41 cnv 4 4 4 empty empty commands 0 28 2 18 #e0e0e0 #000000
0;
#X obj 3 4 cnv 15 301 42 empty empty gui 20 20 2 37 #e0e0e0 #000000
0;
#N canvas 0 22 450 278 (subpatch) 0;
#X coords 0 1 100 -1 302 42 1 0 0;
#X restore 3 4 graph;
#X text 207 309 none;
#X text 207 275 none;
#X text 240 240 - gui command;
#N canvas 855 44 491 355 system 0;
#X text 81 236 (note: because you can't use open and close braces in
Pd \, this can be very awkward. It is perhaps best to define tcl/tk
functions in a "gui plug-in" that can be called eastil from Pd. Also
\, O/S variations will make it hard to make perfectly portable patches
using system commands.), f 52;
#X text 55 33 You can also run system commands via the gui. What commands
you can run depends on your operating system. If you're in linux or
Mac OS you can get the time and date like this:;
#X obj 179 141 r date;
#X obj 179 169 else/display;
#X obj 94 138 else/gui;
#X msg 94 106 pdsend [concat date [exec date]];
#X connect 2 0 3 0;
#X connect 5 0 4 0;
#X restore 487 180 pd system;
#X obj 182 193 else/gui;
#X text 66 88 [gui] sends a command directly to the tcl/tk interpreter
(via 'sys_gui') used for Pd's gui.;
#X text 183 240 anything;
#X msg 182 161 ::pd_menucommands::menu_aboutpd;
#X msg 142 138 menu_helpbrowser;
#N canvas 384 110 724 619 example 0;
#X obj 357 178 bng 15 250 50 0 empty empty empty 17 7 0 10 #dcdcdc
#000000 #000000;
#X obj 357 200 else/colors -hex;
#X obj 145 308 else/display;
#X msg 401 251 black;
#X msg 391 229 green;
#X obj 145 353 else/gui;
#X msg 573 246 60;
#X msg 556 223 30;
#X msg 535 199 10;
#X text 77 164 Setting a border color and thickness:;
#X obj 145 276 else/pack2 s configure -highlightcolor black -highlightthickness
10, f 69;
#X obj 145 201 loadbang;
#X msg 145 251 set \$1;
#X obj 104 250 bng 15 250 50 0 empty empty empty 17 7 0 10 #dcdcdc
#000000 #000000;
#X text 80 232 click:;
#X text 178 84 You can find things to mess with by looking through
the Pd code. Search for "sys_gui" and "sys_vgui" \, which are Tcl/Tk
commands. See also the tcl/tk manual at:;
#X obj 145 227 else/canvas.name;
#X symbolatom 520 466 0 0 0 0 - - - 0;
#X obj 318 433 pack float symbol;
#X obj 321 407 hsl 128 15 1 0.1 0 0 empty empty empty -2 -8 0 10 #dcdcdc
#000000 #000000 0 1;
#X floatatom 269 461 5 0 0 0 - - - 0;
#X msg 318 462 wm attributes \$2 -alpha \$1;
#X obj 318 495 else/gui;
#X text 300 387 change this window' alpha:;
#X obj 520 438 else/canvas.name -w;
#X obj 520 401 loadbang;
#X obj 426 112 else/openfile -h http://tcl.tk/man/;
#X connect 0 0 1 0;
#X connect 1 0 10 3;
#X connect 2 0 5 0;
#X connect 3 0 10 3;
#X connect 4 0 10 3;
#X connect 6 0 10 5;
#X connect 7 0 10 5;
#X connect 8 0 10 5;
#X connect 10 0 2 0;
#X connect 11 0 16 0;
#X connect 12 0 10 0;
#X connect 13 0 10 0;
#X connect 16 0 12 0;
#X connect 18 0 21 0;
#X connect 19 0 20 0;
#X connect 19 0 18 0;
#X connect 21 0 22 0;
#X connect 24 0 17 0;
#X connect 24 0 18 1;
#X connect 25 0 24 0;
#X restore 481 203 pd example;
#X connect 25 0 22 0;
#X connect 26 0 22 0;
#X coords 0 361 1 360 94 40 0;
