#N canvas 620 47 566 486 10;
#X obj 5 301 cnv 3 550 3 empty empty inlets 8 12 0 13 #dcdcdc #000000
0;
#X obj 5 378 cnv 3 550 3 empty empty outlets 8 12 0 13 #dcdcdc #000000
0;
#X obj 5 409 cnv 3 550 3 empty empty arguments 8 12 0 13 #dcdcdc #000000
0;
#X obj 117 386 cnv 17 3 17 empty empty 0 5 9 0 16 #dcdcdc #9c9c9c 0
;
#X obj 5 455 cnv 15 552 21 empty empty empty 20 12 0 14 #e0e0e0 #202020
0;
#X obj 4 4 cnv 15 301 42 empty empty hip.bw~ 20 20 2 37 #e0e0e0 #000000
0;
#X obj 307 6 cnv 15 250 40 empty empty empty 12 13 0 18 #7c7c7c #e0e4dc
0;
#N canvas 0 22 450 278 (subpatch) 0;
#X coords 0 1 100 -1 302 42 1;
#X restore 3 5 graph;
#X obj 346 13 cnv 10 10 10 empty empty ELSE 0 15 2 30 #7c7c7c #e0e4dc
0;
#X obj 24 42 cnv 4 4 4 empty empty Highpass 0 28 2 18 #e0e0e0 #000000
0;
#X obj 459 13 cnv 10 10 10 empty empty EL 0 6 2 13 #7c7c7c #e0e4dc
0;
#X obj 479 13 cnv 10 10 10 empty empty Locus 0 6 2 13 #7c7c7c #e0e4dc
0;
#X obj 516 13 cnv 10 10 10 empty empty Solus' 0 6 2 13 #7c7c7c #e0e4dc
0;
#X obj 465 28 cnv 10 10 10 empty empty ELSE 0 6 2 13 #7c7c7c #e0e4dc
0;
#X obj 503 28 cnv 10 10 10 empty empty library 0 6 2 13 #7c7c7c #e0e4dc
0;
#N canvas 0 22 450 278 (subpatch) 0;
#X coords 0 1 100 -1 252 42 1 0 0;
#X restore 306 5 graph;
#X obj 98 42 cnv 4 4 4 empty empty butterworth 0 28 2 18 #e0e0e0 #000000
0;
#X text 177 309 signal;
#X text 184 331 float;
#X text 222 331 - cutoff frequency in hertz, f 43;
#X obj 117 310 cnv 17 3 17 empty empty 0 5 9 0 16 #dcdcdc #9c9c9c 0
;
#X obj 117 332 cnv 17 3 17 empty empty 1 5 9 0 16 #dcdcdc #9c9c9c 0
;
#X text 174 387 signal;
#X text 222 387 - the filtered signal;
#X text 130 419 1) float;
#X obj 208 155 noise~;
#X obj 266 170 nbx 5 14 -1e+37 1e+37 0 0 empty empty empty 0 -8 0 10
#dcdcdc #000000 #000000 0 256;
#X obj 208 234 else/out~;
#X obj 269 146 hsl 128 15 100 22000 1 0 empty empty empty -2 -8 0 10
#dcdcdc #000000 #000000 0 1;
#X text 323 171 cuttof;
#X obj 190 42 cnv 4 4 4 empty empty filter 0 28 2 18 #e0e0e0 #000000
0;
#X text 222 309 - the signal to be filtered, f 43;
#X text 184 352 float;
#X obj 117 353 cnv 17 3 17 empty empty 2 5 9 0 16 #dcdcdc #9c9c9c 0
;
#X text 222 352 - order of the filter, f 43;
#X text 195 418 - cutoff in hertz (default 0);
#X text 130 436 1) float;
#X text 195 435 - order of the filter from 2 to 100 (default 2);
#X obj 208 197 else/hip.bw~ 1500 10;
#X text 63 91 [hip.bw~] is a highpass butterworth filter abstraction
based on [else/biquads~]. You can specify the cuttoff frequency and
the order of the filter (from 2nd order to 100th order).;
#X connect 25 0 38 0;
#X connect 26 0 38 1;
#X connect 28 0 26 0;
#X connect 38 0 27 0;
