#N canvas 509 26 564 561 10;
#X obj 4 364 cnv 3 550 3 empty empty inlets 8 12 0 13 #dcdcdc #000000
0;
#X obj 4 460 cnv 3 550 3 empty empty outlets 8 12 0 13 #dcdcdc #000000
0;
#X obj 4 493 cnv 3 550 3 empty empty arguments 8 12 0 13 #dcdcdc #000000
0;
#X obj 6 535 cnv 15 552 21 empty empty empty 20 12 0 14 #e0e0e0 #202020
0;
#X obj 129 469 cnv 17 3 17 empty empty 0 5 9 0 16 #dcdcdc #9c9c9c 0
;
#X obj 129 372 cnv 17 3 35 empty empty 0 5 9 0 16 #dcdcdc #9c9c9c 0
;
#X text 191 469 signal;
#X obj 129 415 cnv 17 3 17 empty empty 1 5 9 0 16 #dcdcdc #9c9c9c 0
;
#X text 155 415 float/signal;
#X obj 184 294 else/out~;
#X obj 184 250 *~;
#X obj 148 173 else/brown~;
#X obj 304 247 vsl 18 100 0 1 0 0 ewtwet wefwert empty 0 -9 0 10 #dcdcdc
#000000 #000000 0 1;
#X text 327 340 0;
#X text 327 241 1;
#X obj 242 160 else/pulse~ 0.5;
#X text 240 372 - input signal;
#N canvas 716 92 505 349 example 0;
#X obj 80 185 osc~;
#X obj 80 232 else/out~;
#X obj 80 54 else/stepnoise~ 1;
#X obj 80 97 else/rescale~ 200 800;
#X text 194 53 <= random numbers generated once a second;
#X text 218 97 <= values rescaled to 200-800 range;
#X text 200 143 <= values are slewed \, generating a portamento;
#X obj 80 143 else/lag2~ 1000 500;
#X connect 0 0 1 0;
#X connect 2 0 3 0;
#X connect 3 0 7 0;
#X connect 7 0 0 0;
#X restore 463 328 pd example;
#X text 197 390 reset;
#X text 155 372 float/signal;
#X obj 304 219 else/s2f~;
#X text 240 390 - resets the filter;
#X obj 129 437 cnv 17 3 17 empty empty 2 5 9 0 16 #dcdcdc #9c9c9c 0
;
#X text 155 437 float/signal;
#X text 25 257 see also:;
#X obj 26 303 else/glide2~;
#X obj 23 40 cnv 4 4 4 empty empty non-linear 0 28 2 18 #e0e0e0 #000000
0;
#X obj 107 40 cnv 4 4 4 empty empty lag 0 28 2 18 #e0e0e0 #000000 0
;
#X obj 1 3 cnv 15 301 42 empty empty lag2~ 20 20 2 37 #e0e0e0 #000000
0;
#X obj 305 4 cnv 15 250 40 empty empty empty 12 13 0 18 #7c7c7c #e0e4dc
0;
#N canvas 382 141 749 319 (subpatch) 0;
#X coords 0 -1 1 1 252 42 2 0 0;
#X restore 304 3 pd;
#X obj 344 11 cnv 10 10 10 empty empty ELSE 0 15 2 30 #7c7c7c #e0e4dc
0;
#X obj 457 11 cnv 10 10 10 empty empty EL 0 6 2 13 #7c7c7c #e0e4dc
0;
#X obj 477 11 cnv 10 10 10 empty empty Locus 0 6 2 13 #7c7c7c #e0e4dc
0;
#X obj 514 11 cnv 10 10 10 empty empty Solus' 0 6 2 13 #7c7c7c #e0e4dc
0;
#X obj 463 26 cnv 10 10 10 empty empty ELSE 0 6 2 13 #7c7c7c #e0e4dc
0;
#X obj 501 26 cnv 10 10 10 empty empty library 0 6 2 13 #7c7c7c #e0e4dc
0;
#N canvas 0 22 450 278 (subpatch) 0;
#X coords 0 1 100 -1 302 42 1;
#X restore 2 3 graph;
#X text 52 87 [lag2~] is like [lag~] but has a different time for ramp
up and ramp down. The lag time in ms is how long it takes for the signal
to converge to within 0.01% of the target value. Note that the rising
ramp is different than the descending ramp \, unlike [glide2~]., f
73;
#X obj 242 188 else/lag2~ 1000 500;
#X obj 27 281 else/lag~;
#X text 185 499 1) float - lag uptime in ms (default 0);
#X text 185 514 1) float - lag downtime in ms (default 0);
#X text 239 414 - lag uptime in ms;
#X text 239 436 - lag downtime in ms;
#X text 240 469 - lagged signal;
#X obj 26 325 else/slew2~;
#X connect 10 0 9 0;
#X connect 11 0 10 0;
#X connect 15 0 39 0;
#X connect 20 0 12 0;
#X connect 39 0 10 1;
#X connect 39 0 20 0;
