#N canvas 566 54 563 429 10;
#X obj 4 270 cnv 3 550 3 empty empty inlets 8 12 0 13 #dcdcdc #000000
0;
#X obj 4 331 cnv 3 550 3 empty empty outlets 8 12 0 13 #dcdcdc #000000
0;
#X obj 4 366 cnv 3 550 3 empty empty arguments 8 12 0 13 #dcdcdc #000000
0;
#X obj 118 340 cnv 17 3 17 empty empty 0 5 9 0 16 #dcdcdc #9c9c9c 0
;
#X obj 119 279 cnv 17 3 17 empty empty 0 5 9 0 16 #dcdcdc #9c9c9c 0
;
#X obj 4 397 cnv 15 552 21 empty empty empty 20 12 0 14 #e0e0e0 #202020
0;
#X obj 306 4 cnv 15 250 40 empty empty empty 12 13 0 18 #7c7c7c #e0e4dc
0;
#N canvas 382 141 749 319 (subpatch) 0;
#X coords 0 -1 1 1 252 42 2 100 100;
#X restore 305 3 pd;
#X obj 345 11 cnv 10 10 10 empty empty ELSE 0 15 2 30 #7c7c7c #e0e4dc
0;
#X obj 23 40 cnv 4 4 4 empty empty 1st\\\ order\\\ lowpass\\\ filter
0 28 2 18 #e0e0e0 #000000 0;
#X obj 458 11 cnv 10 10 10 empty empty EL 0 6 2 13 #7c7c7c #e0e4dc
0;
#X obj 478 11 cnv 10 10 10 empty empty Locus 0 6 2 13 #7c7c7c #e0e4dc
0;
#X obj 515 11 cnv 10 10 10 empty empty Solus' 0 6 2 13 #7c7c7c #e0e4dc
0;
#X obj 464 26 cnv 10 10 10 empty empty ELSE 0 6 2 13 #7c7c7c #e0e4dc
0;
#X obj 502 26 cnv 10 10 10 empty empty library 0 6 2 13 #7c7c7c #e0e4dc
0;
#X obj 245 152 nbx 7 14 -1e+37 1e+37 0 0 empty empty empty 0 -8 0 10
#dcdcdc #000000 #000000 0 256;
#X obj 3 3 cnv 15 301 42 empty empty lop2~ 20 20 2 37 #e0e0e0 #000000
0;
#N canvas 0 22 450 278 (subpatch) 0;
#X coords 0 1 100 -1 302 42 1 0 0;
#X restore 3 3 graph;
#X obj 164 142 noise~;
#X obj 164 203 else/out~;
#X obj 248 130 hsl 128 15 20 20000 1 0 empty empty empty -2 -8 0 10
#dfdfdf #000000 #000000 0 1;
#X text 322 152 cutoff;
#X text 77 91 [lop2~] is a 1st order lowpass filter (1-pole \, 1-zero).
;
#X obj 119 303 cnv 17 3 17 empty empty 1 5 9 0 16 #dcdcdc #9c9c9c 0
;
#X text 179 280 signal;
#X text 143 304 float/signal;
#X text 223 280 - signal to be filtered;
#X text 223 304 - cutoff frequency;
#X text 163 375 1) float - cutoff frequency (default 0);
#X text 179 341 signal;
#X text 223 341 - filtered signal;
#X obj 164 178 else/lop2~ 500;
#X text 23 196 see also:;
#X obj 23 215 else/lowpass~;
#N canvas 340 57 924 510 formula/response 0;
#X obj 470 34 hsl 128 15 20 20000 1 0 empty \$0-Hz-set empty -2 -8
0 10 #dcdcdc #000000 #000000 0 1;
#X obj 386 42 noise~;
#X obj 386 131 else/out~;
#X obj 467 61 nbx 7 14 20 20000 0 0 \$0-Hz empty empty 0 -8 0 10 #dcdcdc
#000000 #000000 0 256;
#X text 487 34 center frequency;
#X text 109 92 Change the parameters and check the filter response
below. The graph considers a sample rate of 44.1Khz., f 35;
#N canvas 169 31 234 289 coeff 0;
#X obj 72 121 expr 1 - $f1 \; $f1;
#X obj 147 156 / 2;
#X obj 72 185 pack f 0 f f 0;
#X obj 72 99 clip 0 2;
#X obj 72 77 else/hz2rad;
#X obj 72 216 outlet;
#X obj 72 40 r \$0-Hz;
#X connect 0 0 2 0;
#X connect 0 1 1 0;
#X connect 1 0 2 2;
#X connect 1 0 2 3;
#X connect 2 0 5 0;
#X connect 3 0 0 0;
#X connect 4 0 3 0;
#X connect 6 0 4 0;
#X restore 13 173 pd coeff;
#X obj 13 200 else/biplot;
#X text 107 43 This filter has a zero fixes at -1 on the z-plane \,
which means Nyquist is always filtered out., f 35;
#X obj 386 95 else/lop2~ 100;
#X text 531 108 As you reach nyquist \, it is like the filter has no
action and the output is the same as the input., f 32;
#X connect 0 0 3 0;
#X connect 1 0 9 0;
#X connect 3 0 9 1;
#X connect 6 0 7 0;
#X connect 9 0 2 0;
#X restore 424 235 pd formula/response;
#X connect 15 0 31 1;
#X connect 18 0 31 0;
#X connect 20 0 15 0;
#X connect 31 0 19 0;
