#N canvas 406 32 560 512 10;
#X floatatom 273 261 6 0 0 0 - - - 0;
#X msg 175 178 69 127 1;
#X obj 4 351 cnv 3 550 3 empty empty inlets 8 12 0 13 #dcdcdc #000000
0;
#X obj 4 416 cnv 3 550 3 empty empty outlets 8 12 0 13 #dcdcdc #000000
0;
#X obj 4 451 cnv 3 550 3 empty empty arguments 8 12 0 13 #dcdcdc #000000
0;
#X obj 136 425 cnv 17 3 17 empty empty 0 5 9 0 16 #dcdcdc #9c9c9c 0
;
#X obj 137 360 cnv 17 3 17 empty empty 0 5 9 0 16 #dcdcdc #9c9c9c 0
;
#X obj 4 484 cnv 15 552 21 empty empty empty 20 12 0 14 #e0e0e0 #202020
0;
#X obj 306 4 cnv 15 250 40 empty empty empty 12 13 0 18 #7c7c7c #e0e4dc
0;
#N canvas 382 141 749 319 (subpatch) 0;
#X coords 0 -1 1 1 252 42 2 100 100;
#X restore 305 3 pd;
#X obj 345 11 cnv 10 10 10 empty empty ELSE 0 15 2 30 #7c7c7c #e0e4dc
0;
#X obj 23 40 cnv 4 4 4 empty empty [makenote]\\\ variation 0 28 2 18
#e0e0e0 #000000 0;
#X obj 458 11 cnv 10 10 10 empty empty EL 0 6 2 13 #7c7c7c #e0e4dc
0;
#X obj 478 11 cnv 10 10 10 empty empty Locus 0 6 2 13 #7c7c7c #e0e4dc
0;
#X obj 515 11 cnv 10 10 10 empty empty Solus' 0 6 2 13 #7c7c7c #e0e4dc
0;
#X obj 464 26 cnv 10 10 10 empty empty ELSE 0 6 2 13 #7c7c7c #e0e4dc
0;
#X obj 502 26 cnv 10 10 10 empty empty library 0 6 2 13 #7c7c7c #e0e4dc
0;
#X obj 3 3 cnv 15 301 42 empty empty makenote2 20 20 2 37 #e0e0e0 #000000
0;
#N canvas 0 22 450 278 (subpatch) 0;
#X coords 0 1 100 -1 302 42 1 0 0;
#X restore 3 3 graph;
#X obj 27 312 makenote;
#X text 24 291 see also:;
#X obj 174 316 else/display;
#X msg 188 205 C4 127 0.5 1;
#X text 274 206 becomes a list in the output;
#X obj 137 386 cnv 17 3 17 empty empty 1 5 9 0 16 #dcdcdc #9c9c9c 0
;
#X text 168 361 list;
#X text 59 89 Similarly to [makenote] \, [makenote2] takes a list with
pitch \, velocity and duration. Extra information is possible in this
list \, like a float for MIDI channel or whatever \, but a list with
at least 3 elements is necessary. The duration is in beats and the
BPM is set via the argument or right inlet. The first item on the list
(pitch) can be a symbol (like 'C4'). If you want the duration to specify
a value in ms \, use '60.000' as the bpm value!, f 75;
#X msg 197 231 60 127 1.5 x whatever 1 2 3;
#X text 162 387 float;
#X text 201 387 - BPM for duration;
#X text 201 361 - with at least pitch \, velocity and duration in beats
;
#X text 168 426 list;
#X text 201 426 - note on and off messages;
#X obj 174 288 else/makenote2 60;
#X text 167 460 1) float - BPM (default 120 \, minimum 1);
#X connect 0 0 33 1;
#X connect 1 0 33 0;
#X connect 22 0 33 0;
#X connect 27 0 33 0;
#X connect 33 0 21 0;
