#N canvas 552 67 560 478 10;
#X obj 3 4 cnv 15 301 42 empty empty match~ 20 20 2 37 #e0e0e0 #000000
0;
#X obj 306 5 cnv 15 250 40 empty empty empty 12 13 0 18 #7c7c7c #e0e4dc
0;
#N canvas 0 22 450 278 (subpatch) 0;
#X coords 0 1 100 -1 302 42 1;
#X restore 2 4 graph;
#X obj 23 41 cnv 4 4 4 empty empty Compare 0 28 2 18 #e0e0e0 #000000
0;
#X obj 97 41 cnv 4 4 4 empty empty signal 0 28 2 18 #e0e0e0 #000000
0;
#X obj 306 5 cnv 15 250 40 empty empty empty 12 13 0 18 #7c7c7c #e0e4dc
0;
#N canvas 382 141 749 319 (subpatch) 0;
#X coords 0 -1 1 1 252 42 2 0 0;
#X restore 305 4 pd;
#X obj 345 12 cnv 10 10 10 empty empty ELSE 0 15 2 30 #7c7c7c #e0e4dc
0;
#X obj 458 12 cnv 10 10 10 empty empty EL 0 6 2 13 #7c7c7c #e0e4dc
0;
#X obj 478 12 cnv 10 10 10 empty empty Locus 0 6 2 13 #7c7c7c #e0e4dc
0;
#X obj 515 12 cnv 10 10 10 empty empty Solus' 0 6 2 13 #7c7c7c #e0e4dc
0;
#X obj 464 27 cnv 10 10 10 empty empty ELSE 0 6 2 13 #7c7c7c #e0e4dc
0;
#X obj 502 27 cnv 10 10 10 empty empty library 0 6 2 13 #7c7c7c #e0e4dc
0;
#X obj 3 314 cnv 3 550 3 empty empty inlets 8 12 0 13 #dcdcdc #000000
0;
#X obj 3 364 cnv 3 550 3 empty empty outlets 8 12 0 13 #dcdcdc #000000
0;
#X obj 3 420 cnv 3 550 3 empty empty arguments 8 12 0 13 #dcdcdc #000000
0;
#X obj 92 373 cnv 17 3 17 empty empty n 5 9 0 16 #dcdcdc #9c9c9c 0
;
#X obj 93 322 cnv 17 3 37 empty empty 0 5 9 0 16 #dcdcdc #9c9c9c 0
;
#X obj 3 451 cnv 15 552 21 empty empty empty 20 12 0 14 #e0e0e0 #202020
0;
#X text 157 373 signal -;
#X obj 149 41 cnv 4 4 4 empty empty to 0 28 2 18 #e0e0e0 #000000 0
;
#X obj 170 41 cnv 4 4 4 empty empty numbers 0 28 2 18 #e0e0e0 #000000
0;
#N canvas 207 34 366 264 (subpatch) 0;
#X obj 51 101 tgl 42 0 \$0-tgl-s \$0-tgl-r empty 1 8 1 9 #dcdcdc #7c7c7c
#fcfcfc 0 1;
#X obj 215 68 route dsp;
#X obj 215 37 receive pd;
#N canvas 977 77 379 291 set_color 0;
#X obj 47 30 inlet;
#X obj 147 200 s \$0-cnv;
#X obj 47 83 select 0 1;
#X obj 47 220 s \$0-tgl-r;
#N canvas 0 22 712 637 off 0;
#X obj 490 220 * -1;
#X obj 424 300 +;
#X obj 409 325 +;
#X obj 347 219 * -65536;
#X obj 424 220 * -256;
#X obj 409 356 - 1;
#X obj 390 189 unpack f f f;
#X obj 225 295 +;
#X obj 210 320 +;
#X obj 148 214 * -65536;
#X obj 225 215 * -256;
#X obj 291 215 * -1;
#X obj 210 351 - 1;
#X obj 191 184 unpack f f f;
#X obj 379 423 pack;
#X msg 395 152 124 124 124;
#X msg 203 154 220 220 220;
#X obj 238 121 t b b;
#X obj 238 81 inlet;
#X obj 378 485 outlet;
#X connect 0 0 1 1;
#X connect 1 0 2 1;
#X connect 2 0 5 0;
#X connect 3 0 2 0;
#X connect 4 0 1 0;
#X connect 5 0 14 1;
#X connect 6 0 3 0;
#X connect 6 1 4 0;
#X connect 6 2 0 0;
#X connect 7 0 8 1;
#X connect 8 0 12 0;
#X connect 9 0 8 0;
#X connect 10 0 7 0;
#X connect 11 0 7 1;
#X connect 12 0 14 0;
#X connect 13 0 9 0;
#X connect 13 1 10 0;
#X connect 13 2 11 0;
#X connect 14 0 19 0;
#X connect 15 0 6 0;
#X connect 16 0 13 0;
#X connect 17 0 16 0;
#X connect 17 1 15 0;
#X connect 18 0 17 0;
#X restore 47 113 pd off;
#X msg 47 180 color \$1 \$2 0;
#X msg 147 131 -4.86997e+06 -1.34937e+07;
#X msg 147 171 color \$1 0 \$2;
#X connect 0 0 2 0;
#X connect 2 0 4 0;
#X connect 2 1 6 0;
#X connect 4 0 5 0;
#X connect 4 0 7 0;
#X connect 5 0 3 0;
#X connect 6 0 7 0;
#X connect 6 0 5 0;
#X connect 7 0 1 0;
#X restore 215 165 pd set_color;
#X obj 135 122 r \$0-tgl-s;
#N canvas 121 482 450 300 (subpatch) 0;
#X obj 101 101 cnv 25 40 25 empty \$0-cnv DSP 3 13 0 20 #dcdcdc #7c7c7c
0;
#X coords 0 -1 1 1 42 27 1 100 100;
#X restore 51 144 pd;
#X obj 226 139 s \$0-tgl-r;
#X msg 226 115 set \$1;
#X msg 135 177 \; pd dsp \$1;
#N canvas 256 32 278 194 load_check 0;
#X obj 136 53 sig~ 1;
#X obj 74 24 loadbang;
#X obj 136 86 snapshot~;
#X obj 91 52 del 5;
#X obj 136 151 outlet;
#X obj 74 103 tgl 15 0 empty empty empty 17 7 0 10 #fcfcfc #000000
#000000 0 1;
#X obj 74 126 switch~;
#X connect 0 0 2 0;
#X connect 1 0 3 0;
#X connect 1 0 5 0;
#X connect 2 0 4 0;
#X connect 3 0 2 0;
#X connect 3 0 5 0;
#X connect 5 0 6 0;
#X restore 51 72 pd load_check;
#X connect 1 0 3 0;
#X connect 1 0 7 0;
#X connect 2 0 1 0;
#X connect 4 0 8 0;
#X connect 4 0 3 0;
#X connect 7 0 6 0;
#X connect 9 0 0 0;
#X coords 0 -1 1 1 44 72 2 50 100;
#X restore 506 74 pd;
#X obj 182 281 bng 19 250 50 0 empty empty empty 17 7 0 10 #dcdcdc
#000000 #000000;
#X obj 182 255 else/trig2bang~;
#X obj 287 256 else/trig2bang~;
#X text 210 324 the signal to be matched;
#X text 147 429 1) list;
#X text 206 428 - values to match to (default 0);
#X text 101 271 matches argument =>, f 12;
#X text 311 284 <= unmatched;
#X obj 92 395 cnv 17 3 17 empty empty r 5 9 0 16 #dcdcdc #9c9c9c 0
;
#X text 218 374 impulse when signal matches an argument;
#X text 157 395 signal -;
#X text 218 396 impulse when signal doesn't match arguments;
#N canvas 697 133 526 370 example 0;
#X obj 81 183 bng 15 250 50 0 empty empty empty 17 7 0 10 #dcdcdc #000000
#000000;
#X obj 81 159 else/trig2bang~;
#X obj 193 159 else/trig2bang~;
#X obj 193 182 bng 15 250 50 0 empty empty empty 17 7 0 10 #dcdcdc
#000000 #000000;
#X obj 69 130 else/match~ 1 2 3, f 57;
#X obj 69 56 *~ 4;
#X obj 69 78 else/ceil~;
#X obj 310 161 else/trig2bang~;
#X obj 310 184 bng 15 250 50 0 empty empty empty 17 7 0 10 #dcdcdc
#000000 #000000;
#X obj 408 160 else/trig2bang~;
#X obj 408 183 bng 15 250 50 0 empty empty empty 17 7 0 10 #dcdcdc
#000000 #000000;
#X obj 295 214 else/resonant~ 2500 1000, f 14;
#X obj 70 212 else/resonant~ 1000 500, f 14;
#X obj 182 213 else/resonant~ 1500 750, f 14;
#X text 214 70 A sequencer patch;
#X obj 69 32 phasor~ 0.75;
#X obj 182 281 else/out~;
#X obj 69 103 else/numbox~ 6 12 100 #c0c0c4 #440008 10 0 0 0;
#X connect 1 0 0 0;
#X connect 2 0 3 0;
#X connect 4 0 1 0;
#X connect 4 0 12 0;
#X connect 4 1 2 0;
#X connect 4 1 13 0;
#X connect 4 2 7 0;
#X connect 4 2 11 0;
#X connect 4 3 9 0;
#X connect 5 0 6 0;
#X connect 6 0 17 0;
#X connect 7 0 8 0;
#X connect 9 0 10 0;
#X connect 11 0 16 1;
#X connect 12 0 16 0;
#X connect 13 0 16 0;
#X connect 13 0 16 1;
#X connect 15 0 5 0;
#X connect 17 0 4 0;
#X restore 463 257 pd example;
#X obj 182 227 else/match~ 1, f 18;
#X text 62 92 [match~] is quite similar to pd vanilla's [select] object
\, but is signal based and sends impulses instead of bangs.;
#X text 62 123 When a signal value corresponds to one of the arguments
\, an impulse is sent to its corresponding outlet. Otherwise \, the
rightmost outlet sends an impulse., f 58;
#X obj 182 174 else/pulse~ 1;
#X text 157 324 signal -;
#X text 169 343 list;
#X text 199 342 - one or more floats reset argument values;
#X obj 182 199 else/numbox~ 6 12 100 #c0c0c4 #440008 10 0 0 0;
#X obj 287 281 bng 19 250 50 0 empty empty empty 17 7 0 10 #dcdcdc
#000000 #000000;
#X connect 24 0 23 0;
#X connect 25 0 44 0;
#X connect 36 0 24 0;
#X connect 36 1 25 0;
#X connect 39 0 43 0;
#X connect 43 0 36 0;
