#N canvas 552 23 563 381 10;
#X obj 3 255 cnv 3 550 3 empty empty inlets 8 12 0 13 #dcdcdc #000000
0;
#X obj 3 288 cnv 3 550 3 empty empty outlets 8 12 0 13 #dcdcdc #000000
0;
#X obj 3 322 cnv 3 550 3 empty empty arguments 8 12 0 13 #dcdcdc #000000
0;
#X obj 123 298 cnv 17 3 17 empty empty 0 5 9 0 16 #dcdcdc #9c9c9c 0
;
#X obj 3 352 cnv 15 552 21 empty empty empty 20 12 0 14 #e0e0e0 #202020
0;
#X obj 201 144 hsl 180 15 0 1000 0 0 empty empty empty -2 -8 0 10 #dcdcdc
#000000 #000000 0 1;
#X obj 198 168 nbx 5 14 0 1000 0 0 empty empty empty 0 -8 0 10 #dcdcdc
#000000 #000000 0 256;
#X obj 3 3 cnv 15 301 42 empty empty ms2samps 20 20 2 37 #e0e0e0 #000000
0;
#X obj 306 4 cnv 15 250 40 empty empty empty 12 13 0 18 #7c7c7c #e0e4dc
0;
#N canvas 0 22 450 278 (subpatch) 0;
#X coords 0 1 100 -1 302 42 1 0 0;
#X restore 2 3 graph;
#N canvas 382 141 749 319 (subpatch) 0;
#X coords 0 -1 1 1 252 42 2 100 100;
#X restore 305 3 pd;
#X obj 345 11 cnv 10 10 10 empty empty ELSE 0 15 2 30 #7c7c7c #e0e4dc
0;
#X obj 458 11 cnv 10 10 10 empty empty EL 0 6 2 13 #7c7c7c #e0e4dc
0;
#X obj 478 11 cnv 10 10 10 empty empty Locus 0 6 2 13 #7c7c7c #e0e4dc
0;
#X obj 515 11 cnv 10 10 10 empty empty Solus' 0 6 2 13 #7c7c7c #e0e4dc
0;
#X obj 464 26 cnv 10 10 10 empty empty ELSE 0 6 2 13 #7c7c7c #e0e4dc
0;
#X obj 502 26 cnv 10 10 10 empty empty library 0 6 2 13 #7c7c7c #e0e4dc
0;
#X obj 198 224 nbx 8 14 -1e+37 1e+37 0 0 empty empty empty 0 -8 0 10
#dcdcdc #000000 #000000 0 256;
#X obj 23 40 cnv 4 4 4 empty empty Convert 0 28 2 18 #e0e0e0 #000000
0;
#X obj 150 40 cnv 4 4 4 empty empty samples 0 28 2 18 #e0e0e0 #000000
0;
#X obj 126 40 cnv 4 4 4 empty empty to 0 28 2 18 #e0e0e0 #000000 0
;
#X obj 91 40 cnv 4 4 4 empty empty ms 0 28 2 18 #e0e0e0 #000000 0;
#X obj 124 265 cnv 17 3 17 empty empty 0 5 9 0 16 #dcdcdc #9c9c9c 0
;
#X text 96 85 [ms2samps] is a simple abstraction that converts time
values from ms to number of samples., f 53;
#X text 96 116 Conversion expression: samps = ms * samplerate/1000.
;
#X text 176 168 ms;
#X obj 198 197 else/ms2samps;
#X text 146 224 Samples;
#X text 153 331 (none);
#X text 202 298 - converted value in number of samples;
#X text 206 265 - time value in ms;
#X text 159 298 float;
#X text 159 265 float;
#X connect 5 0 6 0;
#X connect 6 0 26 0;
#X connect 26 0 17 0;
