#N canvas 487 105 563 433 10;
#X obj 4 314 cnv 3 550 3 empty empty inlets 8 12 0 13 -228856 -1 0
;
#X obj 4 350 cnv 3 550 3 empty empty outlets 8 12 0 13 -228856 -1 0
;
#X obj 4 381 cnv 3 550 3 empty empty flags 8 12 0 13 -228856 -1 0;
#X obj 142 358 cnv 17 3 17 empty empty 0 5 9 0 16 -228856 -162280 0
;
#X obj 142 323 cnv 17 3 17 empty empty 0 5 9 0 16 -228856 -162280 0
;
#X obj 4 410 cnv 15 552 21 empty empty empty 20 12 0 14 -233017 -33289
0;
#X obj 306 4 cnv 15 250 40 empty empty empty 12 13 0 18 -128992 -233080
0;
#N canvas 382 141 749 319 (subpatch) 0;
#X coords 0 -1 1 1 252 42 2 100 100;
#X restore 305 3 pd;
#X obj 345 11 cnv 10 10 10 empty empty ELSE 0 15 2 30 -128992 -233080
0;
#X obj 23 40 cnv 4 4 4 empty empty Convert 0 28 2 18 -233017 -1 0;
#X obj 458 11 cnv 10 10 10 empty empty EL 0 6 2 13 -128992 -233080
0;
#X obj 478 11 cnv 10 10 10 empty empty Locus 0 6 2 13 -128992 -233080
0;
#X obj 515 11 cnv 10 10 10 empty empty Solus' 0 6 2 13 -128992 -233080
0;
#X obj 464 26 cnv 10 10 10 empty empty ELSE 0 6 2 13 -128992 -233080
0;
#X obj 502 26 cnv 10 10 10 empty empty library 0 6 2 13 -128992 -233080
0;
#X obj 88 40 cnv 4 4 4 empty empty note 0 28 2 18 -233017 -1 0;
#X obj 3 3 cnv 15 301 42 empty empty note2pitch 20 20 2 37 -233017
-1 0;
#N canvas 0 22 450 278 (subpatch) 0;
#X coords 0 1 100 -1 302 42 1 0 0;
#X restore 3 3 graph;
#X text 189 358 float;
#X obj 224 285 else/display;
#X msg 224 164 C#4;
#X msg 185 164 E#5;
#X symbolatom 261 164 10 0 0 0 - - -;
#X obj 127 40 cnv 4 4 4 empty empty name 0 28 2 18 -233017 -1 0;
#X obj 176 40 cnv 4 4 4 empty empty to 0 28 2 18 -233017 -1 0;
#X obj 200 40 cnv 4 4 4 empty empty MIDI 0 28 2 18 -233017 -1 0;
#X obj 250 40 cnv 4 4 4 empty empty pitch 0 28 2 18 -233017 -1 0;
#X text 227 323 - note name to convert to MIDI pitch;
#X text 227 358 - MIDI pitch value;
#X text 34 258 see also:;
#X obj 27 277 else/pitch2note;
#X text 171 323 anything;
#X floatatom 305 232 5 0 0 0 - - -;
#X text 342 232 <= floats are passed through, f 14;
#X msg 159 201 D♯4;
#X msg 126 201 E♭3;
#N canvas 821 146 516 489 unicode 0;
#X text 80 79 More importantly \, these musical symbols are supported
by Pd's default font \, so you should be able to see them if nothing
is wrong in your system/setup/installation., f 63;
#X msg 90 145 symbol #;
#X obj 90 179 list fromsymbol;
#X obj 90 204 else/display;
#X obj 90 237 list tosymbol;
#X symbolatom 90 261 10 0 0 0 - - -;
#X obj 228 178 list fromsymbol;
#X obj 228 203 else/display;
#X obj 228 236 list tosymbol;
#X symbolatom 228 260 10 0 0 0 - - -;
#X msg 228 144 symbol ♯;
#X text 290 144 <= unicode U+266F;
#X text 320 207 <= UTF-8 encoding;
#X obj 90 335 list fromsymbol;
#X obj 90 360 else/display;
#X obj 90 393 list tosymbol;
#X symbolatom 90 417 10 0 0 0 - - -;
#X obj 228 334 list fromsymbol;
#X obj 228 359 else/display;
#X obj 228 392 list tosymbol;
#X symbolatom 228 416 10 0 0 0 - - -;
#X text 320 363 <= UTF-8 encoding;
#X msg 228 300 symbol ♭;
#X msg 90 301 symbol b;
#X text 290 300 <= unicode U+266D;
#X text 80 18 Please note the object also supports special unicode
characters for "sharp" and "flat" from the Miscellaneous Symbols block.
You can the easily available characters from regular keyboards: "#"
(number sign \, ASCII value 35) and "b" (lower case b letter) instead
\, but the object also supports "♯" and "♭"., f 63;
#X connect 1 0 2 0;
#X connect 2 0 3 0;
#X connect 3 0 4 0;
#X connect 4 0 5 0;
#X connect 6 0 7 0;
#X connect 7 0 8 0;
#X connect 8 0 9 0;
#X connect 10 0 6 0;
#X connect 13 0 14 0;
#X connect 14 0 15 0;
#X connect 15 0 16 0;
#X connect 17 0 18 0;
#X connect 18 0 19 0;
#X connect 19 0 20 0;
#X connect 22 0 17 0;
#X connect 23 0 13 0;
#X restore 473 263 pd unicode;
#X text 68 200 unicode:;
#N canvas 877 207 459 319 double-accidentals 0;
#X text 49 75 So \, in this object's notation \, you can use "x" for
double sharps and "bb" for double flats., f 63;
#X obj 160 240 else/display;
#X msg 160 126 Cx 5;
#X msg 196 126 D 5;
#X msg 211 165 C 5;
#X msg 248 165 Dbb 5;
#X text 49 24 Unfortunately Pd's default font doesn't have the appropriate
symbols for double sharps and double flats. And while we're at it \,
neither microtones. Anyway \, double sharps/flats are to be rarely
used \, mostly by music theory geeks like me :), f 63;
#X obj 160 212 else/note2pitch -list;
#X connect 2 0 7 0;
#X connect 3 0 7 0;
#X connect 4 0 7 0;
#X connect 5 0 7 0;
#X connect 7 0 1 0;
#X restore 407 283 pd double-accidentals;
#X obj 224 260 else/note2pitch;
#X msg 272 186 list F4 C5 G#2 Bb4;
#X msg 285 209 E4 Db4 A4;
#X text 60 86 [note2pitch] converts note names (such as 'C4') to MIDI
pitch values. All enharmonic names are included (even unusual ones
like Cb and double sharps/flats). It takes symbols \, lists or anythings
that end with an octave number \, in a way that C4 represents middle
C (MIDI pitch = 60). Range is from C0 to B8., f 71;
#X text 188 389 -list: sets to list mode;
#N canvas 823 306 382 293 list-mode 0;
#X msg 92 103 C 5;
#X msg 127 103 list Ab 4;
#X obj 92 220 else/display;
#X obj 92 195 else/note2pitch -list;
#X text 46 30 In list mode \, [note2pitch] expects that every note
name is represented as a list of two elements \, the note name and
the octave number., f 50;
#X msg 144 130 list Gb 3 A# 4 C# 5 G 3;
#X msg 159 156 C 8 B 7 A 7;
#X connect 0 0 3 0;
#X connect 1 0 3 0;
#X connect 3 0 2 0;
#X connect 5 0 3 0;
#X connect 6 0 3 0;
#X restore 461 242 pd list-mode;
#X connect 20 0 39 0;
#X connect 21 0 39 0;
#X connect 22 0 39 0;
#X connect 32 0 39 0;
#X connect 34 0 39 0;
#X connect 35 0 39 0;
#X connect 39 0 19 0;
#X connect 40 0 39 0;
#X connect 41 0 39 0;
