#N canvas 682 68 563 496 10;
#X obj 23 40 cnv 4 4 4 empty empty Midi 0 28 2 18 #e0e0e0 #000000 0
;
#X obj 66 40 cnv 4 4 4 empty empty pitch 0 28 2 18 #e0e0e0 #000000
0;
#X obj 3 3 cnv 15 301 42 empty empty note.out 20 20 2 37 #e0e0e0 #000000
0;
#N canvas 0 22 450 278 (subpatch) 0;
#X coords 0 1 100 -1 302 42 1 0 0;
#X restore 3 3 graph;
#X obj 2 243 cnv 3 550 3 empty empty inlets 8 12 0 13 #dcdcdc #000000
0;
#X obj 2 353 cnv 3 550 3 empty empty outlets 8 12 0 13 #dcdcdc #000000
0;
#X obj 2 435 cnv 3 550 3 empty empty arguments 8 12 0 13 #dcdcdc #000000
0;
#X obj 154 254 cnv 17 3 17 empty empty 0 5 9 0 16 #dcdcdc #9c9c9c 0
;
#X obj 2 468 cnv 15 552 21 empty empty empty 20 12 0 14 #e0e0e0 #202020
0;
#X text 209 445 -;
#X text 151 445 1) float;
#X text 198 256 float;
#X obj 113 40 cnv 4 4 4 empty empty output 0 28 2 18 #e0e0e0 #000000
0;
#X obj 154 363 cnv 17 3 17 empty empty 0 5 9 0 16 #dcdcdc #9c9c9c 0
;
#X text 238 363 -;
#X text 198 363 float;
#X obj 306 4 cnv 15 250 40 empty empty empty 12 13 0 18 #7c7c7c #e0e4dc
0;
#N canvas 382 141 749 319 (subpatch) 0;
#X coords 0 -1 1 1 252 42 2 100 100;
#X restore 305 3 pd;
#X obj 345 11 cnv 10 10 10 empty empty ELSE 0 15 2 30 #7c7c7c #e0e4dc
0;
#X obj 458 11 cnv 10 10 10 empty empty EL 0 6 2 13 #7c7c7c #e0e4dc
0;
#X obj 478 11 cnv 10 10 10 empty empty Locus 0 6 2 13 #7c7c7c #e0e4dc
0;
#X obj 515 11 cnv 10 10 10 empty empty Solus' 0 6 2 13 #7c7c7c #e0e4dc
0;
#X obj 464 26 cnv 10 10 10 empty empty ELSE 0 6 2 13 #7c7c7c #e0e4dc
0;
#X obj 502 26 cnv 10 10 10 empty empty library 0 6 2 13 #7c7c7c #e0e4dc
0;
#X text 238 279 -;
#X text 198 279 float;
#X obj 154 276 cnv 17 3 17 empty empty 1 5 9 0 16 #dcdcdc #9c9c9c 0
;
#X obj 2 390 cnv 3 550 3 empty empty flags 8 12 0 13 #dcdcdc #000000
0;
#X text 253 363 raw MIDI stream, f 31;
#X text 223 445 sets channel number (default 1);
#X text 25 181 see also:;
#X obj 218 213 midiout;
#X obj 218 147 nbx 3 14 -1e+37 1e+37 0 0 empty empty empty 0 -8 0 10
#dcdcdc #000000 #000000 0 256;
#X obj 261 147 nbx 3 14 -1e+37 1e+37 0 0 empty empty empty 0 -8 0 10
#dcdcdc #000000 #000000 0 256;
#X obj 305 146 nbx 3 14 -1e+37 1e+37 0 0 empty empty empty 0 -8 0 10
#dcdcdc #000000 #000000 0 256;
#X text 217 127 pitch;
#X text 266 127 vel;
#X text 302 127 ch;
#X text 70 85 [pitchout] formats and sends raw MIDI pitch messages.
An argument sets channel number (the default is 1)., f 66;
#X obj 154 300 cnv 17 3 17 empty empty 2 5 9 0 16 #dcdcdc #9c9c9c 0
;
#X text 198 302 float;
#X text 238 325 -;
#X text 198 325 float;
#X obj 154 322 cnv 17 3 17 empty empty 3 5 9 0 16 #dcdcdc #9c9c9c 0
;
#X text 238 256 - pitch values;
#X text 253 279 velocity values, f 31;
#X text 238 302 - note on/off flag (if -rel flagis given);
#X text 253 325 rightmost inlet is MIDI channel;
#X text 189 399 sets the object to output release velocity and note
on/off flag, f 46;
#X text 142 399 -rel: -;
#N canvas 553 175 813 464 release 0;
#X msg 103 77 144 \, 68 \, 120;
#X text 192 85 Note On (raw MIDI data);
#X text 207 131 Note Off (raw MIDI data);
#X obj 138 221 else/display;
#X obj 103 191 else/display;
#X msg 131 131 128 \, 68 \, 88;
#X obj 208 280 else/display;
#X obj 173 250 else/display;
#X text 73 399 Release velocity is very rare in today's controllers
\, but it used to be a real thing., f 54;
#X obj 103 356 print;
#X obj 103 162 else/note.in -rel;
#X obj 103 324 else/note.out -rel;
#X msg 116 98 144 \, 68 \, 0;
#X text 48 194 pitch =>;
#X text 54 224 velocity ==>;
#X text 226 282 <== channel;
#X text 188 253 <== flag (1 is note on \, 0 is note off);
#X msg 543 133 144 \, 68 \, 120;
#X text 632 141 Note On (raw MIDI data);
#X text 647 187 Note Off (raw MIDI data);
#X obj 577 277 else/display;
#X obj 543 247 else/display;
#X msg 571 187 128 \, 68 \, 88;
#X obj 613 306 else/display;
#X obj 540 382 print;
#X msg 556 154 144 \, 68 \, 0;
#X text 488 250 pitch =>;
#X text 493 280 velocity ==>;
#X obj 540 350 else/note.out;
#X obj 543 218 else/note.in;
#X text 628 309 <== channel;
#X text 29 18 With the -rel flag \, you can set a release velocity
value and there's an extra inlet for the note on/off flag. The default
behaviour is that a velocity value of "0" represents a note off.,
f 61;
#X text 448 50 Note that when we don't have the -rel flag \, raw input
data that represents "note off" messages are converted to "note on"
messages with a velocity of 0 in [note.in]!, f 47;
#X connect 0 0 10 0;
#X connect 3 0 11 1;
#X connect 4 0 11 0;
#X connect 5 0 10 0;
#X connect 6 0 11 3;
#X connect 7 0 11 2;
#X connect 10 0 4 0;
#X connect 10 1 3 0;
#X connect 10 2 7 0;
#X connect 10 3 6 0;
#X connect 11 0 9 0;
#X connect 12 0 10 0;
#X connect 17 0 29 0;
#X connect 20 0 28 1;
#X connect 21 0 28 0;
#X connect 22 0 29 0;
#X connect 23 0 28 2;
#X connect 25 0 29 0;
#X connect 28 0 24 0;
#X connect 29 0 21 0;
#X connect 29 1 20 0;
#X connect 29 2 23 0;
#X restore 473 208 pd release;
#X obj 32 203 else/note.in;
#X obj 218 180 else/note.out 4;
#X connect 32 0 52 0;
#X connect 33 0 52 1;
#X connect 34 0 52 2;
#X connect 52 0 31 0;
