#N canvas 635 59 561 503 10;
#X obj 4 304 cnv 3 550 3 empty empty inlets 8 12 0 13 #dcdcdc #000000
0;
#X obj 4 376 cnv 3 550 3 empty empty outlets 8 12 0 13 #dcdcdc #000000
0;
#X obj 4 411 cnv 3 550 3 empty empty arguments 8 12 0 13 #dcdcdc #000000
0;
#X obj 85 385 cnv 17 3 17 empty empty 0 5 9 0 16 #dcdcdc #9c9c9c 0
;
#X obj 4 464 cnv 15 552 21 empty empty empty 20 12 0 14 #e0e0e0 #202020
0;
#X obj 306 4 cnv 15 250 40 empty empty empty 12 13 0 18 #7c7c7c #e0e4dc
0;
#N canvas 382 141 749 319 (subpatch) 0;
#X coords 0 -1 1 1 252 42 2 100 100;
#X restore 305 3 pd;
#X obj 345 11 cnv 10 10 10 empty empty ELSE 0 15 2 30 #7c7c7c #e0e4dc
0;
#X obj 23 40 cnv 4 4 4 empty empty Split 0 28 2 18 #e0e0e0 #000000
0;
#X obj 65 40 cnv 4 4 4 empty empty and 0 28 2 18 #e0e0e0 #000000 0
;
#X obj 458 11 cnv 10 10 10 empty empty EL 0 6 2 13 #7c7c7c #e0e4dc
0;
#X obj 478 11 cnv 10 10 10 empty empty Locus 0 6 2 13 #7c7c7c #e0e4dc
0;
#X obj 515 11 cnv 10 10 10 empty empty Solus' 0 6 2 13 #7c7c7c #e0e4dc
0;
#X obj 464 26 cnv 10 10 10 empty empty ELSE 0 6 2 13 #7c7c7c #e0e4dc
0;
#X obj 502 26 cnv 10 10 10 empty empty library 0 6 2 13 #7c7c7c #e0e4dc
0;
#X obj 97 40 cnv 4 4 4 empty empty index 0 28 2 18 #e0e0e0 #000000
0;
#X obj 221 154 bng 15 250 50 0 empty empty empty 17 7 0 10 #dcdcdc
#000000 #000000;
#X obj 3 3 cnv 15 301 42 empty empty order 20 20 2 37 #e0e0e0 #000000
0;
#N canvas 0 22 450 278 (subpatch) 0;
#X coords 0 1 100 -1 302 42 1 0 0;
#X restore 2 3 graph;
#X obj 85 313 cnv 17 3 55 empty empty 0 5 9 0 16 #dcdcdc #9c9c9c 0
;
#X obj 221 274 print;
#X obj 145 40 cnv 4 4 4 empty empty list 0 28 2 18 #e0e0e0 #000000
0;
#X obj 177 40 cnv 4 4 4 empty empty elements 0 28 2 18 #e0e0e0 #000000
0;
#N canvas 890 173 444 235 different 0;
#X obj 138 99 bng 15 250 50 0 empty empty empty 17 7 0 10 #dcdcdc #000000
#000000;
#X msg 138 123 1 2 3 4 5 6 7 8 9 10;
#X obj 138 183 print;
#X obj 138 153 else/order 3;
#X text 47 30 If an input list is smaller than the given size \, the
list is output anyway. If the last bit of the broken list is smaller
than the split size \, it is also output.;
#X connect 0 0 1 0;
#X connect 1 0 3 0;
#X connect 3 0 2 0;
#X restore 429 249 pd different sizes;
#X text 135 313 anything;
#X text 194 313 - any number of elements to be split and ordered;
#X text 129 333 n <float>;
#X text 99 351 offset <float>;
#X text 140 438 2) float - index offset (default 0);
#X text 194 351 - index offset;
#X msg 233 210 offset 1;
#X msg 188 210 n 2;
#X text 194 333 - number of elements in each ordered list;
#X text 159 385 list;
#X text 194 385 - ordered lists \, with the split elements preceded
by index;
#X msg 221 178 1 2 3 4 5 6 7 8 9;
#X obj 221 244 else/order;
#X text 140 421 1) float - 'n' number of elements to be ordered (default
1);
#X text 66 86 [order] splits a list into successive lists of a given
size (default 1 element) and tags each of them with ordered indexes.
This is useful for sending values to all instances of an object loaded
in [clone]!;
#N canvas 590 258 335 188 example 0;
#X obj 132 71 else/resonbank~ 1;
#X text 40 23 The [order] object is used inside objects in the else
library that use the [clone] object \, such as:, f 47;
#X obj 133 99 else/resonbank2~ 1;
#X obj 134 147 else/oscbank~ 1;
#X obj 133 123 else/bpbank~ 1;
#X restore 477 274 pd example;
#X connect 16 0 35 0;
#X connect 30 0 36 0;
#X connect 31 0 36 0;
#X connect 35 0 36 0;
#X connect 36 0 20 0;
