#N canvas 484 28 562 611 10;
#X obj 4 445 cnv 3 550 3 empty empty inlets 8 12 0 13 #dcdcdc #000000 0;
#X obj 4 500 cnv 3 550 3 empty empty outlets 8 12 0 13 #dcdcdc #000000 0;
#X obj 4 532 cnv 3 550 3 empty empty arguments 8 12 0 13 #dcdcdc #000000 0;
#X obj 94 453 cnv 17 3 37 empty empty 0 5 9 0 16 #dcdcdc #9c9c9c 0;
#X obj 4 583 cnv 15 552 21 empty empty empty 20 12 0 14 #e0e0e0 #202020 0;
#X obj 306 4 cnv 15 250 40 empty empty empty 12 13 0 18 #7c7c7c #e0e4dc 0;
#N canvas 382 141 749 319 (subpatch) 0;
#X coords 0 -1 1 1 252 42 2 100 100;
#X restore 305 3 pd;
#X obj 345 11 cnv 10 10 10 empty empty ELSE 0 15 2 30 #7c7c7c #e0e4dc 0;
#X obj 23 40 cnv 4 4 4 empty empty Send\ OSC\ messages 0 28 2 18 #e0e0e0 #000000 0;
#X obj 458 11 cnv 10 10 10 empty empty EL 0 6 2 13 #7c7c7c #e0e4dc 0;
#X obj 478 11 cnv 10 10 10 empty empty Locus 0 6 2 13 #7c7c7c #e0e4dc 0;
#X obj 515 11 cnv 10 10 10 empty empty Solus' 0 6 2 13 #7c7c7c #e0e4dc 0;
#X obj 464 26 cnv 10 10 10 empty empty ELSE 0 6 2 13 #7c7c7c #e0e4dc 0;
#X obj 502 26 cnv 10 10 10 empty empty library 0 6 2 13 #7c7c7c #e0e4dc 0;
#X obj 3 3 cnv 15 301 42 empty empty osc.send 20 20 2 37 #e0e0e0 #000000 0;
#N canvas 0 22 450 278 (subpatch) 0;
#X coords 0 1 100 -1 302 42 1 0 0;
#X restore 3 3 graph;
#X text 23 336 see also:;
#X obj 386 235 else/display;
#X obj 192 306 hsl 136 16 0 1 0 0 empty empty empty -2 -8 0 10 #dfdfdf #000000 #000000 0 1;
#X obj 21 402 else/osc.route;
#X obj 21 380 else/osc.parse;
#X msg 189 329 /slider \$1;
#X obj 93 508 cnv 17 3 17 empty empty 0 5 9 0 16 #dcdcdc #9c9c9c 0;
#X obj 386 206 else/osc.receive 8004;
#X text 242 274 close connection;
#X msg 172 273 disconnect;
#X msg 89 200 connect localhost 8004;
#X obj 172 383 tgl 19 0 empty empty empty 0 -8 0 10 #dfdfdf #000000 #000000 0 1;
#X text 198 385 <-- connection status;
#X text 186 456 disconnect;
#X text 251 456 - disconnects from network;
#X text 210 509 float;
#X text 252 509 - connection status;
#X text 226 541 address (optional \, default 'localhost');
#X text 158 557 2) float -;
#X text 227 557 port (obrigatory \, no default);
#X text 252 474 - connects to address/port (address optional);
#X msg 119 221 connect 127.0.0.1 8005;
#X obj 386 309 else/display;
#X obj 386 280 else/osc.receive 8005;
#X msg 146 243 connect 8006;
#X obj 389 385 else/display;
#X obj 389 356 else/osc.receive 8006;
#X text 102 474 connect <symbol \, float>;
#X text 152 541 1) symbol -;
#X text 55 89 [osc.send] sends OSC messages over the network and is an abstraction based on [osc.format] and [netsend]. A connect message expects a list with address and port. The port is a symbol (either 'localhost' or an IP address) but it's optional. If no address is given \, it defaults to 'localhost'. A connect message will disconnect and reconnect to the new address/port and a 'disconnect' message closes the connection. The [osc.send] object sends OSC messages to [osc.receive] objects with a matching port., f 70;
#X obj 172 361 else/osc.send 8004;
#X obj 172 413 print status;
#X obj 20 358 else/osc.receive;
#X connect 18 0 21 0;
#X connect 21 0 46 0;
#X connect 23 0 17 0;
#X connect 25 0 46 0;
#X connect 26 0 46 0;
#X connect 27 0 47 0;
#X connect 37 0 46 0;
#X connect 39 0 38 0;
#X connect 40 0 46 0;
#X connect 42 0 41 0;
#X connect 46 0 27 0;
