#N canvas 429 23 560 372 10;
#X obj 23 40 cnv 4 4 4 empty empty Midi 0 28 2 18 #e0e0e0 #000000 0
;
#X obj 65 40 cnv 4 4 4 empty empty program 0 28 2 18 #e0e0e0 #000000
0;
#X obj 3 3 cnv 15 301 42 empty empty pgm.out 20 20 2 37 #e0e0e0 #000000
0;
#N canvas 0 22 450 278 (subpatch) 0;
#X coords 0 1 100 -1 302 42 1 0 0;
#X restore 3 3 graph;
#X obj 131 40 cnv 4 4 4 empty empty output 0 28 2 18 #e0e0e0 #000000
0;
#X obj 306 4 cnv 15 250 40 empty empty empty 12 13 0 18 #7c7c7c #e0e4dc
0;
#N canvas 382 141 749 319 (subpatch) 0;
#X coords 0 -1 1 1 252 42 2 100 100;
#X restore 305 3 pd;
#X obj 345 11 cnv 10 10 10 empty empty ELSE 0 15 2 30 #7c7c7c #e0e4dc
0;
#X obj 458 11 cnv 10 10 10 empty empty EL 0 6 2 13 #7c7c7c #e0e4dc
0;
#X obj 478 11 cnv 10 10 10 empty empty Locus 0 6 2 13 #7c7c7c #e0e4dc
0;
#X obj 515 11 cnv 10 10 10 empty empty Solus' 0 6 2 13 #7c7c7c #e0e4dc
0;
#X obj 464 26 cnv 10 10 10 empty empty ELSE 0 6 2 13 #7c7c7c #e0e4dc
0;
#X obj 502 26 cnv 10 10 10 empty empty library 0 6 2 13 #7c7c7c #e0e4dc
0;
#X obj 2 223 cnv 3 550 3 empty empty inlets 8 12 0 13 #dcdcdc #000000
0;
#X obj 2 278 cnv 3 550 3 empty empty outlets 8 12 0 13 #dcdcdc #000000
0;
#X obj 2 315 cnv 3 550 3 empty empty arguments 8 12 0 13 #dcdcdc #000000
0;
#X obj 154 234 cnv 17 3 17 empty empty 0 5 9 0 16 #dcdcdc #9c9c9c 0
;
#X obj 2 344 cnv 15 552 21 empty empty empty 20 12 0 14 #e0e0e0 #202020
0;
#X text 237 323 -;
#X text 179 323 1) float;
#X text 198 236 float;
#X obj 154 288 cnv 17 3 17 empty empty 0 5 9 0 16 #dcdcdc #9c9c9c 0
;
#X text 238 288 -;
#X text 198 288 float;
#X obj 154 256 cnv 17 3 17 empty empty 1 5 9 0 16 #dcdcdc #9c9c9c 0
;
#X text 253 288 raw MIDI stream, f 31;
#X text 251 323 sets channel number (default 1);
#X text 27 170 see also:;
#X obj 228 202 midiout;
#X obj 228 142 nbx 3 14 -1e+37 1e+37 0 0 empty empty empty 0 -8 0 10
#dcdcdc #000000 #000000 0 256;
#X obj 309 142 nbx 3 14 -1e+37 1e+37 0 0 empty empty empty 0 -8 0 10
#dcdcdc #000000 #000000 0 256;
#X text 238 255 -;
#X text 198 255 float;
#X text 238 236 - pitch values;
#X text 173 141 program;
#X text 253 255 MIDI channel;
#X obj 228 169 else/pgm.out 4;
#X obj 34 192 else/pgm.in;
#X text 69 86 [pgm.out] formats and sends raw MIDI program messages.
An argument sets channel number (the default is 1). Unlike vanilla's
[pgmin] and [pgmout] \, the program change values are from 0 to 127!
, f 66;
#X text 349 141 channel;
#X connect 29 0 36 0;
#X connect 30 0 36 1;
#X connect 36 0 28 0;
