#N canvas 477 43 568 416 10;
#X obj 4 265 cnv 3 550 3 empty empty inlets 8 12 0 13 #dcdcdc #000000
0;
#X obj 4 321 cnv 3 550 3 empty empty outlets 8 12 0 13 #dcdcdc #000000
0;
#X obj 4 356 cnv 3 550 3 empty empty arguments 8 12 0 13 #dcdcdc #000000
0;
#X obj 146 330 cnv 17 3 17 empty empty 0 5 9 0 16 #dcdcdc #9c9c9c 0
;
#X obj 147 274 cnv 17 3 17 empty empty 0 5 9 0 16 #dcdcdc #9c9c9c 0
;
#X obj 4 389 cnv 15 552 21 empty empty empty 20 12 0 14 #e0e0e0 #202020
0;
#X obj 306 4 cnv 15 250 40 empty empty empty 12 13 0 18 #7c7c7c #e0e4dc
0;
#N canvas 382 141 749 319 (subpatch) 0;
#X coords 0 -1 1 1 252 42 2 100 100;
#X restore 305 3 pd;
#X obj 345 11 cnv 10 10 10 empty empty ELSE 0 15 2 30 #7c7c7c #e0e4dc
0;
#X obj 23 40 cnv 4 4 4 empty empty Pick 0 28 2 18 #e0e0e0 #000000 0
;
#X obj 458 11 cnv 10 10 10 empty empty EL 0 6 2 13 #7c7c7c #e0e4dc
0;
#X obj 478 11 cnv 10 10 10 empty empty Locus 0 6 2 13 #7c7c7c #e0e4dc
0;
#X obj 515 11 cnv 10 10 10 empty empty Solus' 0 6 2 13 #7c7c7c #e0e4dc
0;
#X obj 464 26 cnv 10 10 10 empty empty ELSE 0 6 2 13 #7c7c7c #e0e4dc
0;
#X obj 502 26 cnv 10 10 10 empty empty library 0 6 2 13 #7c7c7c #e0e4dc
0;
#X obj 315 180 nbx 3 14 -1e+37 1e+37 0 0 empty empty empty 0 -8 0 10
#dcdcdc #000000 #000000 0 256;
#X obj 65 40 cnv 4 4 4 empty empty element 0 28 2 18 #e0e0e0 #000000
0;
#X obj 129 40 cnv 4 4 4 empty empty from 0 28 2 18 #e0e0e0 #000000
0;
#X obj 172 40 cnv 4 4 4 empty empty message 0 28 2 18 #e0e0e0 #000000
0;
#X obj 3 3 cnv 15 301 42 empty empty pick 20 20 2 37 #e0e0e0 #000000
0;
#N canvas 0 22 450 278 (subpatch) 0;
#X coords 0 1 100 -1 302 42 1 0 0;
#X restore 3 3 graph;
#X msg 240 165 a b c d e;
#X msg 214 137 10 20 30 40;
#X obj 147 297 cnv 17 3 17 empty empty 1 5 9 0 16 #dcdcdc #9c9c9c 0
;
#X text 233 275 - input message;
#X text 193 298 float;
#X text 175 275 anything;
#X text 233 298 - element number;
#X msg 315 155 -2;
#X msg 347 155 2;
#X obj 240 205 else/pick -2, f 13;
#X obj 240 234 else/display;
#X text 176 330 anything;
#X text 233 330 - the element from the input message;
#X text 159 365 1) float - element number (default 0 \, none);
#X text 62 85 [pick] picks an element from an input message according
to an element number. Negative values count from last to the first
element. If you ask for an element number out of the range \, nothing
is output., f 63;
#X text 357 180 <= set element;
#X connect 15 0 30 1;
#X connect 21 0 30 0;
#X connect 22 0 30 0;
#X connect 28 0 15 0;
#X connect 29 0 15 0;
#X connect 30 0 31 0;
