#N canvas 623 23 565 699 10;
#X obj 244 200 bng 15 250 50 0 empty empty empty 17 7 0 10 #dcdcdc
#000000 #000000;
#X msg 125 209 start;
#X msg 173 209 stop;
#X msg 205 174 loop \$1;
#X obj 205 154 tgl 15 0 empty empty empty 17 7 0 10 #dcdcdc #000000
#000000 0 1;
#X obj 306 5 cnv 15 250 40 empty empty empty 12 13 0 18 #7c7c7c #e0e4dc
0;
#X obj 345 12 cnv 10 10 10 empty empty ELSE 0 15 2 30 #7c7c7c #e0e4dc
0;
#X obj 23 41 cnv 4 4 4 empty empty Play 0 28 2 18 #e0e0e0 #000000 0
;
#X obj 119 41 cnv 4 4 4 empty empty files 0 28 2 18 #e0e0e0 #000000
0;
#X obj 458 12 cnv 10 10 10 empty empty EL 0 6 2 13 #7c7c7c #e0e4dc
0;
#X obj 478 12 cnv 10 10 10 empty empty Locus 0 6 2 13 #7c7c7c #e0e4dc
0;
#X obj 515 12 cnv 10 10 10 empty empty Solus' 0 6 2 13 #7c7c7c #e0e4dc
0;
#X obj 464 27 cnv 10 10 10 empty empty ELSE 0 6 2 13 #7c7c7c #e0e4dc
0;
#X obj 502 27 cnv 10 10 10 empty empty library 0 6 2 13 #7c7c7c #e0e4dc
0;
#N canvas 0 22 450 278 (subpatch) 0;
#X coords 0 1 100 -1 252 42 1 0 0;
#X restore 305 4 graph;
#X obj 3 4 cnv 15 301 42 empty empty play.file~ 20 20 2 37 #e0e0e0
#000000 0;
#N canvas 0 22 450 278 (subpatch) 0;
#X coords 0 1 100 -1 302 42 1;
#X restore 2 4 graph;
#X obj 7 675 cnv 15 552 21 empty empty empty 20 12 0 14 #e0e0e0 #202020
0;
#X obj 7 354 cnv 3 550 3 empty empty inlets 8 12 0 13 #dcdcdc #000000
0;
#X obj 7 495 cnv 3 550 3 empty empty outlets 8 12 0 13 #dcdcdc #000000
0;
#X obj 7 553 cnv 3 550 3 empty empty arguments 8 12 0 13 #dcdcdc #000000
0;
#X obj 91 504 cnv 17 3 17 empty empty n 5 9 0 16 #dcdcdc #9c9c9c 0
;
#X obj 90 359 cnv 17 3 130 empty empty 0 5 9 0 16 #dcdcdc #9c9c9c 0
;
#X text 169 378 start - same as bang, f 49;
#X text 176 394 stop - stop playing the sample, f 48;
#X text 122 430 open <symbol> -;
#X text 128 474 loop <float> -;
#X text 222 474 loop on <1> or off <0>, f 50;
#X obj 221 291 else/out~;
#X obj 221 200 tgl 15 0 empty empty empty 17 7 0 10 #dcdcdc #000000
#000000 0 1;
#X text 175 362 bang - (re)start playing the sample;
#X text 170 412 float - non-0 (re)starts playing \, zero stops, f
59;
#N canvas 760 138 588 508 multi-channel 0;
#X obj 175 332 else/meter2~;
#X obj 340 364 else/out~;
#X msg 106 215 open violin.wav;
#X text 123 115 If you have a file with less channels than specified
(like a mono file in a stereo sampler) \, the extra channels are silent.
Conversely \, a file with more channels than specified (like a stereo
file in a mono sampler) has its remaining channels ignored.;
#X obj 62 212 tgl 20 0 empty empty empty 17 7 0 10 #dcdcdc #000000
#000000 0 1;
#X obj 340 286 tgl 20 0 empty empty empty 17 7 0 10 #dcdcdc #000000
#000000 0 1;
#X obj 251 294 bng 15 250 50 0 empty empty empty 17 7 0 10 #dcdcdc
#000000 #000000;
#X obj 541 350 bng 15 250 50 0 empty empty empty 17 7 0 10 #dcdcdc
#000000 #000000;
#X msg 120 240 open stereo.wav;
#X text 122 30 If you give an optional float argumewnt as the first
argument \, it specifies the number of channels. If no float argument
and no sound file are given \, then the default number of channels
is 1 (mono). But if the first optional argument is not given and a
file name is given \, then the number of channels is the same as the
sound file's. The maximum number is 64 channels.;
#X text 208 213 <= mono file;
#X text 221 239 <= stereo file;
#X obj 62 332 else/out~;
#X obj 62 268 else/play.file~ -loop stereo.wav;
#X obj 340 319 else/play.file~ -loop 1 stereo.wav;
#X connect 2 0 13 0;
#X connect 4 0 13 0;
#X connect 5 0 14 0;
#X connect 8 0 13 0;
#X connect 13 0 12 0;
#X connect 13 0 0 0;
#X connect 13 1 0 1;
#X connect 13 1 12 1;
#X connect 13 2 6 0;
#X connect 14 0 1 0;
#X connect 14 1 7 0;
#X restore 443 320 pd multi-channel;
#X obj 7 645 cnv 3 550 3 empty empty flags 8 12 0 13 #dcdcdc #000000
0;
#X text 204 652 -loop: turns loop mode on;
#X obj 398 287 bng 15 250 50 0 empty empty empty 17 7 0 10 #dcdcdc
#000000 #000000;
#X text 417 287 finished;
#X obj 91 530 cnv 17 3 17 empty empty n+1 5 9 0 16 #dcdcdc #9c9c9c
0;
#X text 153 505 signal - the sample signal of the corresponding channel
;
#X text 165 531 bang - a bang when finishing playing the sample;
#X text 193 561 (optional) channels (default 1 if no file is given
\, or sound file's if given \, max 64), f 44;
#X text 116 588 2) symbol;
#X text 182 588 - the name of the file to open (default none);
#X text 116 605 3) float;
#X text 182 605 - autostart <1: on \, 0: off> (default 0), f 45;
#X text 116 620 4) float;
#X text 182 621 - loop <1: on \, 0: off> (default 0), f 45;
#X text 116 563 1) float;
#X text 180 562 -;
#X text 222 429 opens a file with the symbol name (no symbol opens
dialog box) and starts playing, f 50;
#X text 35 299 see also:;
#X obj 39 317 else/player~;
#X text 55 259 click: opens a new file =>;
#X obj 64 41 cnv 4 4 4 empty empty sound 0 28 2 18 #e0e0e0 #000000
0;
#X text 128 459 set <symbol> -;
#X text 222 458 sets a file to open next time it starts playing, f
50;
#X msg 279 229 open;
#X text 58 89 [play.file~] is a convenient abstraction based on [readsf~]
to read files from your computer. Note that the file sample needs to
be at the same sample rate as Pd's. The object can open files with
absolute paths and is also able to search for files relative to the
parent patch., f 69;
#X msg 270 201 open MouthBow.wav;
#X obj 221 258 else/play.file~ violin.wav 1 1;
#X text 314 230 <= opens dialog;
#X connect 0 0 59 0;
#X connect 1 0 59 0;
#X connect 2 0 59 0;
#X connect 3 0 59 0;
#X connect 4 0 3 0;
#X connect 29 0 59 0;
#X connect 56 0 59 0;
#X connect 58 0 59 0;
#X connect 59 0 28 0;
#X connect 59 1 35 0;
