#N canvas 475 23 560 459 10;
#X obj 306 4 cnv 15 250 40 empty empty empty 12 13 0 18 #7c7c7c #e0e4dc
0;
#N canvas 382 141 749 319 (subpatch) 0;
#X coords 0 -1 1 1 252 42 2 0 0;
#X restore 305 3 pd;
#X obj 345 11 cnv 10 10 10 empty empty ELSE 0 15 2 30 #7c7c7c #e0e4dc
0;
#X obj 95 40 cnv 4 4 4 empty empty pulses 0 28 2 18 #e0e0e0 #000000
0;
#X obj 458 11 cnv 10 10 10 empty empty EL 0 6 2 13 #7c7c7c #e0e4dc
0;
#X obj 478 11 cnv 10 10 10 empty empty Locus 0 6 2 13 #7c7c7c #e0e4dc
0;
#X obj 515 11 cnv 10 10 10 empty empty Solus' 0 6 2 13 #7c7c7c #e0e4dc
0;
#X obj 464 26 cnv 10 10 10 empty empty ELSE 0 6 2 13 #7c7c7c #e0e4dc
0;
#X obj 502 26 cnv 10 10 10 empty empty library 0 6 2 13 #7c7c7c #e0e4dc
0;
#X obj 3 335 cnv 3 550 3 empty empty outlets 8 12 0 13 #dcdcdc #000000
0;
#X obj 3 371 cnv 3 550 3 empty empty arguments 8 12 0 13 #dcdcdc #000000
0;
#X obj 122 344 cnv 17 3 17 empty empty 0 5 9 0 16 #dcdcdc #9c9c9c 0
;
#X obj 3 434 cnv 15 552 21 empty empty empty 20 12 0 14 #e0e0e0 #202020
0;
#X text 200 344 signal -;
#X text 187 379 1) float;
#X text 187 396 2) float;
#X obj 251 141 nbx 5 14 -50 50 0 0 empty empty empty 0 -8 0 10 #dcdcdc
#000000 #000000 0 256;
#X text 311 139 <= hz;
#X obj 3 3 cnv 15 301 42 empty empty randpulse 20 20 2 37 #e0e0e0 #000000
0;
#N canvas 0 22 450 278 (subpatch) 0;
#X coords 0 1 100 -1 302 42 1;
#X restore 2 3 graph;
#X text 256 379 - frequency in hertz (default 0);
#X text 256 396 - initial pulse width (default 0.5);
#X obj 3 239 cnv 3 550 3 empty empty inlets 8 12 0 13 #dcdcdc #000000
0;
#X obj 123 247 cnv 17 3 37 empty empty 0 5 9 0 16 #dcdcdc #9c9c9c 0
;
#X obj 122 289 cnv 17 3 17 empty empty 1 5 9 0 16 #dcdcdc #9c9c9c 0
;
#X obj 122 309 cnv 17 3 17 empty empty 2 5 9 0 16 #dcdcdc #9c9c9c 0
;
#X text 165 289 float/signal - pulse width (from 0 to 1);
#X text 164 248 float/signal - frequency in hz;
#X text 164 311 float/signal - phase sync (ressets internal phase)
;
#X obj 24 40 cnv 4 4 4 empty empty Random 0 28 2 18 #e0e0e0 #000000
0;
#X text 163 267 seed <float>;
#X text 243 266 - sets seed value;
#X text 255 344 random pulse signal;
#X text 254 414 - seed (default \, internal);
#X text 187 414 3) float;
#X obj 251 168 else/randpulse 1;
#X obj 251 200 else/display;
#X text 59 87 [randpulse] is a random pulse oscillator (which alternates
between a random value and 0 \, or on/off) at control rate with a default
resolution of 1 ms). It accepts negative frequencies \, has inlets
for pulse width and sync., f 67;
#N canvas 414 239 721 374 rate 0;
#X obj 204 159 else/display;
#X obj 204 127 else/sr~ -ms;
#X obj 498 214 else/status;
#X obj 513 250 timer;
#X msg 498 112 rate \$1;
#X obj 498 86 nbx 5 14 -1e+37 1e+37 0 0 empty empty empty 0 -8 0 10
#dcdcdc #000000 #000000 0 256;
#X obj 501 60 hsl 128 15 0.1 100 1 0 empty empty empty -2 -8 0 10 #dcdcdc
#000000 #000000 0 1;
#X obj 498 175 tgl 15 0 empty empty empty 17 7 0 10 #fcfcfc #000000
#000000 0 1;
#X obj 513 283 nbx 5 16 -1e+37 1e+37 0 0 empty empty empty 0 -8 0 12
#dcdcdc #000000 #000000 0 256;
#X text 37 279 You can change the rate with the -rate flag or the "rate"
message. This affects the period resolution, f 55;
#X obj 498 139 else/randpulse 3 -rate 20;
#X text 36 36 [randpulse] is an actual oscillator with a running phase
\, which runs at a given rate. A signal oscillator runs at the sample
rate which has a period in ms given by the [sr~] object., f 55;
#X text 37 205 By default \, [randpulse] runs at a rate whose period
is 1 ms and the minimum rate is 0.1 ms. The maximum frequency that
[pulse] can run is half the frequency of the given rate (500 hz default).
, f 55;
#X connect 1 0 0 0;
#X connect 2 0 3 0;
#X connect 2 1 3 1;
#X connect 3 0 8 0;
#X connect 4 0 10 0;
#X connect 5 0 4 0;
#X connect 6 0 5 0;
#X connect 7 0 2 0;
#X connect 10 0 7 0;
#X restore 483 214 pd rate;
#X text 44 177 see also:;
#X obj 44 200 else/randpulse~;
#X connect 16 0 35 0;
#X connect 35 0 36 0;
