#N canvas 501 23 562 444 10;
#X obj 2 4 cnv 15 301 42 empty empty range~ 20 20 2 37 #e0e0e0 #000000
0;
#N canvas 0 22 450 278 (subpatch) 0;
#X coords 0 1 100 -1 302 42 1 0 0;
#X restore 2 4 graph;
#X obj 23 41 cnv 4 4 4 empty empty Analyze 0 28 2 18 #e0e0e0 #000000
0;
#X obj 90 41 cnv 4 4 4 empty empty range 0 28 2 18 #e0e0e0 #000000
0;
#X obj 306 5 cnv 15 250 40 empty empty empty 12 13 0 18 #7c7c7c #e0e4dc
0;
#N canvas 382 141 749 319 (subpatch) 0;
#X coords 0 -1 1 1 252 42 2 100 100;
#X restore 305 4 pd;
#X obj 345 12 cnv 10 10 10 empty empty ELSE 0 15 2 30 #7c7c7c #e0e4dc
0;
#X obj 458 12 cnv 10 10 10 empty empty EL 0 6 2 13 #7c7c7c #e0e4dc
0;
#X obj 478 12 cnv 10 10 10 empty empty Locus 0 6 2 13 #7c7c7c #e0e4dc
0;
#X obj 515 12 cnv 10 10 10 empty empty Solus' 0 6 2 13 #7c7c7c #e0e4dc
0;
#X obj 464 27 cnv 10 10 10 empty empty ELSE 0 6 2 13 #7c7c7c #e0e4dc
0;
#X obj 502 27 cnv 10 10 10 empty empty library 0 6 2 13 #7c7c7c #e0e4dc
0;
#X obj 4 416 cnv 15 552 21 empty empty empty 20 12 0 14 #e0e0e0 #202020
0;
#X obj 4 326 cnv 3 550 3 empty empty outlets 8 12 0 13 #dcdcdc #000000
0;
#X obj 4 386 cnv 3 550 3 empty empty arguments 8 12 0 13 #dcdcdc #000000
0;
#X obj 111 336 cnv 17 3 17 empty empty 0 5 9 0 16 #dcdcdc #9c9c9c 0
;
#X obj 111 258 cnv 17 3 35 empty empty 0 5 9 0 16 #dcdcdc #9c9c9c 0
;
#X obj 4 248 cnv 3 550 3 empty empty inlets 8 12 0 13 #dcdcdc #000000
0;
#X obj 111 300 cnv 17 3 17 empty empty 1 5 9 0 16 #dcdcdc #9c9c9c 0
;
#X obj 190 181 else/range~, f 21;
#X text 265 394 none;
#X obj 111 360 cnv 17 3 17 empty empty 1 5 9 0 16 #dcdcdc #9c9c9c 0
;
#X text 187 336 signal;
#X text 153 258 float/signal;
#X text 237 257 - input signal to analyze;
#X text 152 301 float/signal;
#X text 237 337 - minimum range;
#X text 237 360 - maximum range;
#X text 187 361 signal;
#X obj 190 147 else/stepnoise~ 5;
#X obj 489 66 else/setdsp~;
#X obj 313 148 else/impseq~;
#X obj 313 125 bng 17 250 50 0 empty empty empty 17 7 0 10 #dcdcdc
#000000 #000000;
#X text 237 301 - impulse resets at signal rate;
#X text 163 215 min;
#X text 287 215 max;
#X obj 159 146 bng 17 250 50 0 empty empty empty 17 7 0 10 #dcdcdc
#000000 #000000;
#X text 119 145 reset;
#X text 201 278 bang;
#X text 237 277 - resets minimum and maximum values;
#X text 71 88 [range~] analyzes and outputs the signal's range (minimum
and maximum) values.;
#X obj 313 215 else/numbox~ 6 12 100 #c0c0c4 #440008 10 0 0 0;
#X obj 190 215 else/numbox~ 6 12 100 #c0c0c4 #440008 10 0 0 0;
#X connect 19 0 42 0;
#X connect 19 1 41 0;
#X connect 29 0 19 0;
#X connect 31 0 19 1;
#X connect 32 0 31 0;
#X connect 36 0 19 0;
