#N canvas 429 23 563 389 10;
#X obj 2 4 cnv 15 301 42 empty empty range 20 20 2 37 #e0e0e0 #000000
0;
#N canvas 0 22 450 278 (subpatch) 0;
#X coords 0 1 100 -1 302 42 1 0 0;
#X restore 2 4 graph;
#X obj 23 41 cnv 4 4 4 empty empty Analyze 0 28 2 18 #e0e0e0 #000000
0;
#X obj 90 41 cnv 4 4 4 empty empty range 0 28 2 18 #e0e0e0 #000000
0;
#X obj 306 5 cnv 15 250 40 empty empty empty 12 13 0 18 #7c7c7c #e0e4dc
0;
#N canvas 382 141 749 319 (subpatch) 0;
#X coords 0 -1 1 1 252 42 2 100 100;
#X restore 305 4 pd;
#X obj 345 12 cnv 10 10 10 empty empty ELSE 0 15 2 30 #7c7c7c #e0e4dc
0;
#X obj 458 12 cnv 10 10 10 empty empty EL 0 6 2 13 #7c7c7c #e0e4dc
0;
#X obj 478 12 cnv 10 10 10 empty empty Locus 0 6 2 13 #7c7c7c #e0e4dc
0;
#X obj 515 12 cnv 10 10 10 empty empty Solus' 0 6 2 13 #7c7c7c #e0e4dc
0;
#X obj 464 27 cnv 10 10 10 empty empty ELSE 0 6 2 13 #7c7c7c #e0e4dc
0;
#X obj 502 27 cnv 10 10 10 empty empty library 0 6 2 13 #7c7c7c #e0e4dc
0;
#X obj 4 364 cnv 15 552 21 empty empty empty 20 12 0 14 #e0e0e0 #202020
0;
#X obj 4 274 cnv 3 550 3 empty empty outlets 8 12 0 13 #dcdcdc #000000
0;
#X obj 4 334 cnv 3 550 3 empty empty arguments 8 12 0 13 #dcdcdc #000000
0;
#X obj 111 284 cnv 17 3 17 empty empty 0 5 9 0 16 #dcdcdc #9c9c9c 0
;
#X obj 111 228 cnv 17 3 35 empty empty 0 5 9 0 16 #dcdcdc #9c9c9c 0
;
#X obj 4 218 cnv 3 550 3 empty empty inlets 8 12 0 13 #dcdcdc #000000
0;
#X text 194 342 none;
#X obj 111 308 cnv 17 3 17 empty empty 1 5 9 0 16 #dcdcdc #9c9c9c 0
;
#X text 187 284 signal;
#X text 195 248 reset;
#X text 153 228 float/signal;
#X text 237 227 - input signal to analyze;
#X text 237 247 - resets object;
#X text 237 285 - minimum range;
#X text 237 308 - maximum range;
#X text 187 309 signal;
#X msg 161 122 reset;
#X text 71 88 [range~] analyxes a float input's range values.;
#X obj 218 155 else/range, f 15;
#X obj 218 183 else/display;
#X obj 305 183 else/display;
#X obj 218 121 else/lfnoise 1;
#X connect 28 0 30 0;
#X connect 30 0 31 0;
#X connect 30 1 32 0;
#X connect 33 0 30 0;
