#N canvas 559 23 562 420 10;
#X obj 4 265 cnv 3 550 3 empty empty inlets 8 12 0 13 #dcdcdc #000000
0;
#X obj 4 323 cnv 3 550 3 empty empty outlets 8 12 0 13 #dcdcdc #000000
0;
#X obj 4 358 cnv 3 550 3 empty empty arguments 8 12 0 13 #dcdcdc #000000
0;
#X obj 129 332 cnv 17 3 17 empty empty 0 5 9 0 16 #dcdcdc #9c9c9c 0
;
#X obj 130 273 cnv 17 3 40 empty empty 0 5 9 0 16 #dcdcdc #9c9c9c 0
;
#X obj 4 391 cnv 15 552 21 empty empty empty 20 12 0 14 #e0e0e0 #202020
0;
#X obj 306 4 cnv 15 250 40 empty empty empty 12 13 0 18 #7c7c7c #e0e4dc
0;
#N canvas 382 141 749 319 (subpatch) 0;
#X coords 0 -1 1 1 252 42 2 100 100;
#X restore 305 3 pd;
#X obj 345 11 cnv 10 10 10 empty empty ELSE 0 15 2 30 #7c7c7c #e0e4dc
0;
#X obj 23 40 cnv 4 4 4 empty empty Receive 0 28 2 18 #e0e0e0 #000000
0;
#X obj 458 11 cnv 10 10 10 empty empty EL 0 6 2 13 #7c7c7c #e0e4dc
0;
#X obj 478 11 cnv 10 10 10 empty empty Locus 0 6 2 13 #7c7c7c #e0e4dc
0;
#X obj 515 11 cnv 10 10 10 empty empty Solus' 0 6 2 13 #7c7c7c #e0e4dc
0;
#X obj 464 26 cnv 10 10 10 empty empty ELSE 0 6 2 13 #7c7c7c #e0e4dc
0;
#X obj 502 26 cnv 10 10 10 empty empty library 0 6 2 13 #7c7c7c #e0e4dc
0;
#X obj 89 40 cnv 4 4 4 empty empty messages 0 28 2 18 #e0e0e0 #000000
0;
#X obj 3 3 cnv 15 301 42 empty empty receiver 20 20 2 37 #e0e0e0 #000000
0;
#N canvas 0 22 450 278 (subpatch) 0;
#X coords 0 1 100 -1 302 42 1 0 0;
#X restore 3 3 graph;
#X floatatom 218 234 5 0 0 0 - - - 0;
#X text 176 332 anything;
#X text 194 302 clear;
#X msg 307 177 clear;
#X symbolatom 218 152 8 0 0 0 - - - 0;
#X obj 101 211 send;
#X floatatom 79 174 5 0 0 0 - - - 0;
#X text 188 367 1) list - receive names;
#X text 231 272 - set receive names;
#X text 231 302 - clears the receive names;
#X obj 122 128 else/initmess symbol \$0-x;
#X obj 218 174 else/dollsym;
#X text 158 272 symbol/list;
#N canvas 1000 246 477 346 two-names 0;
#X floatatom 51 129 5 0 0 0 - - - 0;
#X floatatom 161 185 5 0 0 0 - - - 0;
#X floatatom 52 182 5 0 0 0 - - - 0;
#X obj 51 156 s \$0-a;
#X obj 52 209 s \$0-b;
#X floatatom 379 133 5 0 0 0 - - - 0;
#X floatatom 381 186 5 0 0 0 - - - 0;
#X obj 143 87 bng 17 250 50 0 empty empty empty 17 7 0 10 #dcdcdc #000000
#000000;
#X text 45 26 [receiver] can have up to two receive names. Hence \,
it receives data sent for two different addresses. This is useful if
you want to send a message to a group of objects and also individually.
, f 65;
#X obj 379 160 s \$0-a1;
#X obj 381 213 s \$0-a2;
#X floatatom 383 245 5 0 0 0 - - - 0;
#X obj 383 272 s \$0-a3;
#X floatatom 52 238 5 0 0 0 - - - 0;
#X obj 52 265 s \$0-c;
#X floatatom 144 294 5 0 0 0 - - - 0;
#X obj 144 214 bng 17 250 50 0 empty empty empty 17 7 0 10 #dcdcdc
#000000 #000000;
#X obj 161 120 else/message list \$0-a1 \$0-a2;
#X obj 144 239 else/message list \$0-a1 \$0-a3;
#X obj 161 155 else/receiver \$0-a \$0-b;
#X obj 144 264 else/receiver \$0-a \$0-c;
#X text 42 92 1st test here:, f 8;
#X text 165 90 <= now change;
#X text 374 98 and test here:, f 8;
#X connect 0 0 3 0;
#X connect 2 0 4 0;
#X connect 5 0 9 0;
#X connect 6 0 10 0;
#X connect 7 0 17 0;
#X connect 7 0 16 0;
#X connect 11 0 12 0;
#X connect 13 0 14 0;
#X connect 16 0 18 0;
#X connect 17 0 19 0;
#X connect 18 0 20 0;
#X connect 19 0 1 0;
#X connect 20 0 15 0;
#X restore 469 233 pd two-names;
#X text 67 88 [receiver] is much like vanilla's [receive] \, but can
have up to two names and has an inlet to set the receive names.;
#X text 277 151 <= if you type "\$0" \, you need [dollsym];
#X obj 218 204 else/receiver;
#X text 200 287 bang;
#X text 231 287 - spits receive names;
#X text 231 332 - any received message (or receive names at bangs)
;
#X connect 21 0 34 0;
#X connect 22 0 29 0;
#X connect 24 0 23 0;
#X connect 28 0 23 1;
#X connect 28 0 34 0;
#X connect 29 0 23 1;
#X connect 29 0 34 0;
#X connect 34 0 18 0;
