#N canvas 503 46 564 493 10;
#X obj 6 463 cnv 15 552 21 empty empty empty 20 12 0 14 #e0e0e0 #202020
0;
#X obj 6 335 cnv 3 550 3 empty empty outlets 8 12 0 13 #dcdcdc #000000
0;
#X obj 6 399 cnv 3 550 3 empty empty arguments 8 12 0 13 #dcdcdc #000000
0;
#X obj 113 249 cnv 17 3 50 empty empty 0 5 9 0 16 #dcdcdc #9c9c9c 0
;
#X obj 114 346 cnv 17 3 17 empty empty 0 5 9 0 16 #dcdcdc #9c9c9c 0
;
#X obj 6 240 cnv 3 550 3 empty empty inlets 8 12 0 13 #dcdcdc #000000
0;
#X text 176 249 signal - value to perform the scaling function on;
#N canvas 207 34 366 264 (subpatch) 0;
#X obj 51 101 tgl 42 0 \$0-tgl-s \$0-tgl-r empty 1 8 1 9 #4a4f51 #cde5c3
#fcfcfc 0 1;
#X obj 215 68 route dsp;
#X obj 215 37 receive pd;
#N canvas 977 77 379 291 set_color 0;
#X obj 47 30 inlet;
#X obj 147 200 s \$0-cnv;
#X obj 47 83 select 0 1;
#X obj 47 220 s \$0-tgl-r;
#N canvas 0 22 712 637 off 0;
#X obj 490 220 * -1;
#X obj 424 300 +;
#X obj 409 325 +;
#X obj 347 219 * -65536;
#X obj 424 220 * -256;
#X obj 409 356 - 1;
#X obj 390 189 unpack f f f;
#X obj 225 295 +;
#X obj 210 320 +;
#X obj 148 214 * -65536;
#X obj 225 215 * -256;
#X obj 291 215 * -1;
#X obj 210 351 - 1;
#X obj 191 184 unpack f f f;
#X obj 379 423 pack;
#X msg 395 152 124 124 124;
#X msg 203 154 220 220 220;
#X obj 238 121 t b b;
#X obj 238 81 inlet;
#X obj 378 485 outlet;
#X connect 0 0 1 1;
#X connect 1 0 2 1;
#X connect 2 0 5 0;
#X connect 3 0 2 0;
#X connect 4 0 1 0;
#X connect 5 0 14 1;
#X connect 6 0 3 0;
#X connect 6 1 4 0;
#X connect 6 2 0 0;
#X connect 7 0 8 1;
#X connect 8 0 12 0;
#X connect 9 0 8 0;
#X connect 10 0 7 0;
#X connect 11 0 7 1;
#X connect 12 0 14 0;
#X connect 13 0 9 0;
#X connect 13 1 10 0;
#X connect 13 2 11 0;
#X connect 14 0 19 0;
#X connect 15 0 6 0;
#X connect 16 0 13 0;
#X connect 17 0 16 0;
#X connect 17 1 15 0;
#X connect 18 0 17 0;
#X restore 47 113 pd off;
#X msg 47 180 color \$1 \$2 0;
#X msg 147 131 -4.86997e+06 -1.34937e+07;
#X msg 147 171 color \$1 0 \$2;
#X connect 0 0 2 0;
#X connect 2 0 4 0;
#X connect 2 1 6 0;
#X connect 4 0 5 0;
#X connect 4 0 7 0;
#X connect 5 0 3 0;
#X connect 6 0 7 0;
#X connect 6 0 5 0;
#X connect 7 0 1 0;
#X restore 215 165 pd set_color;
#X obj 135 122 r \$0-tgl-s;
#N canvas 121 482 450 300 (subpatch) 0;
#X obj 101 101 cnv 25 40 25 empty \$0-cnv DSP 3 13 0 20 #4a4f51 #cde5c3
0;
#X coords 0 -1 1 1 42 27 1 100 100;
#X restore 51 144 pd;
#X obj 226 139 s \$0-tgl-r;
#X msg 226 115 set \$1;
#X msg 135 177 \; pd dsp \$1;
#N canvas 256 32 278 194 load_check 0;
#X obj 136 53 sig~ 1;
#X obj 74 24 loadbang;
#X obj 136 86 snapshot~;
#X obj 91 52 del 5;
#X obj 136 151 outlet;
#X obj 74 103 tgl 15 0 empty empty empty 17 7 0 10 #fcfcfc #000000
#000000 0 1;
#X obj 74 126 switch~;
#X connect 0 0 2 0;
#X connect 1 0 3 0;
#X connect 1 0 5 0;
#X connect 2 0 4 0;
#X connect 3 0 2 0;
#X connect 3 0 5 0;
#X connect 5 0 6 0;
#X restore 51 72 pd load_check;
#X connect 1 0 3 0;
#X connect 1 0 7 0;
#X connect 2 0 1 0;
#X connect 4 0 8 0;
#X connect 4 0 3 0;
#X connect 7 0 6 0;
#X connect 9 0 0 0;
#X coords 0 -1 1 1 44 72 2 50 100;
#X restore 504 71 pd;
#X text 230 268 sets exponential factor;
#X obj 2 3 cnv 15 301 42 empty empty rescale~ 20 20 2 37 #e0e0e0 #000000
0;
#X obj 306 4 cnv 15 250 40 empty empty empty 12 13 0 18 #7c7c7c #e0e4dc
0;
#N canvas 0 22 450 278 (subpatch) 0;
#X coords 0 1 100 -1 302 42 1 0 0;
#X restore 2 3 graph;
#N canvas 382 141 749 319 (subpatch) 0;
#X coords 0 -1 1 1 252 42 2 100 100;
#X restore 305 3 pd;
#X obj 345 11 cnv 10 10 10 empty empty ELSE 0 15 2 30 #7c7c7c #e0e4dc
0;
#X obj 23 40 cnv 4 4 4 empty empty Rescale 0 28 2 18 #e0e0e0 #000000
0;
#X obj 88 40 cnv 4 4 4 empty empty audio 0 28 2 18 #e0e0e0 #000000
0;
#X obj 458 11 cnv 10 10 10 empty empty EL 0 6 2 13 #7c7c7c #e0e4dc
0;
#X obj 478 11 cnv 10 10 10 empty empty Locus 0 6 2 13 #7c7c7c #e0e4dc
0;
#X obj 515 11 cnv 10 10 10 empty empty Solus' 0 6 2 13 #7c7c7c #e0e4dc
0;
#X obj 464 26 cnv 10 10 10 empty empty ELSE 0 6 2 13 #7c7c7c #e0e4dc
0;
#X obj 502 26 cnv 10 10 10 empty empty library 0 6 2 13 #7c7c7c #e0e4dc
0;
#X obj 242 178 else/rescale~;
#X text 103 211 rescaled to 0-1 range;
#X text 78 85 By default \, [rescale~] rescales input values from -1
to 1 into another range of values (0-1 by default). You can also set
an exponential factor (1 by default - linear). All these parameters
can be changed by arguments.;
#X obj 242 148 osc~ 0.1;
#X obj 113 311 cnv 17 3 17 empty empty n 5 9 0 16 #dcdcdc #9c9c9c 0
;
#X text 237 311 - range parameters \, see [pd arguments];
#X text 146 268 exp <float> -;
#X text 152 311 float/signal;
#X text 178 347 signal - the rescaled signal;
#X text 108 409 1) list -;
#N canvas 293 150 948 550 arguments 0;
#X obj 42 117 hsl 180 15 -1 1 0 0 empty empty empty -2 -8 0 10 #dcdcdc
#000000 #000000 0 1;
#X obj 39 145 nbx 8 14 -1e+37 1e+37 0 0 empty empty empty 0 -8 0 10
#dcdcdc #000000 #000000 0 256;
#X obj 97 188 nbx 4 14 -1e+37 1e+37 0 0 empty empty empty 0 -8 0 10
#dcdcdc #000000 #000000 0 256;
#X obj 156 189 nbx 4 14 -1e+37 1e+37 0 0 empty empty empty 0 -8 0 10
#dcdcdc #000000 #000000 0 256;
#X text 95 169 min-out;
#X text 155 169 max-out;
#X obj 273 110 hsl 180 15 0 1 0 0 empty empty empty -2 -8 0 10 #dcdcdc
#000000 #000000 0 1;
#X obj 270 138 nbx 8 14 -1e+37 1e+37 0 0 empty empty empty 0 -8 0 10
#dcdcdc #000000 #000000 0 256;
#X obj 429 176 nbx 4 14 -1e+37 1e+37 0 0 empty empty empty 0 -8 0 10
#dcdcdc #000000 #000000 0 256;
#X obj 483 177 nbx 4 14 -1e+37 1e+37 0 0 empty empty empty 0 -8 0 10
#dcdcdc #000000 #000000 0 256;
#X text 427 157 min-out;
#X text 482 157 max-out;
#X obj 323 176 nbx 4 14 -1e+37 1e+37 0 0 empty empty empty 0 -8 0 10
#dcdcdc #000000 #000000 0 256;
#X obj 376 176 nbx 4 14 -1e+37 1e+37 0 0 empty empty empty 0 -8 0 10
#dcdcdc #000000 #000000 0 256;
#X text 321 157 min-in;
#X text 375 157 max-in;
#X obj 39 215 else/rescale~ -10 10;
#X obj 270 203 else/rescale~ 0 1 -10 10, f 36;
#X text 51 25 If you give [rescale~] up to 3 arguments \, it'll only
have 3 inlets and you can set the minimum and maximum output via the
rightmost inlets. But if you give 4 or more arguments \, [rescale~]
is initialized with more inlets so you can set all range parameters.
, f 74;
#X obj 270 174 sig~;
#X obj 39 191 sig~;
#N canvas 207 34 366 264 (subpatch) 0;
#X obj 51 101 tgl 42 0 \$0-tgl-s \$0-tgl-r empty 1 8 1 9 #4a4f51 #cde5c3
#fcfcfc 0 1;
#X obj 215 68 route dsp;
#X obj 215 37 receive pd;
#N canvas 977 77 379 291 set_color 0;
#X obj 47 30 inlet;
#X obj 147 200 s \$0-cnv;
#X obj 47 83 select 0 1;
#X obj 47 220 s \$0-tgl-r;
#N canvas 0 22 712 637 off 0;
#X obj 490 220 * -1;
#X obj 424 300 +;
#X obj 409 325 +;
#X obj 347 219 * -65536;
#X obj 424 220 * -256;
#X obj 409 356 - 1;
#X obj 390 189 unpack f f f;
#X obj 225 295 +;
#X obj 210 320 +;
#X obj 148 214 * -65536;
#X obj 225 215 * -256;
#X obj 291 215 * -1;
#X obj 210 351 - 1;
#X obj 191 184 unpack f f f;
#X obj 379 423 pack;
#X msg 395 152 124 124 124;
#X msg 203 154 220 220 220;
#X obj 238 121 t b b;
#X obj 238 81 inlet;
#X obj 378 485 outlet;
#X connect 0 0 1 1;
#X connect 1 0 2 1;
#X connect 2 0 5 0;
#X connect 3 0 2 0;
#X connect 4 0 1 0;
#X connect 5 0 14 1;
#X connect 6 0 3 0;
#X connect 6 1 4 0;
#X connect 6 2 0 0;
#X connect 7 0 8 1;
#X connect 8 0 12 0;
#X connect 9 0 8 0;
#X connect 10 0 7 0;
#X connect 11 0 7 1;
#X connect 12 0 14 0;
#X connect 13 0 9 0;
#X connect 13 1 10 0;
#X connect 13 2 11 0;
#X connect 14 0 19 0;
#X connect 15 0 6 0;
#X connect 16 0 13 0;
#X connect 17 0 16 0;
#X connect 17 1 15 0;
#X connect 18 0 17 0;
#X restore 47 113 pd off;
#X msg 47 180 color \$1 \$2 0;
#X msg 147 131 -4.86997e+06 -1.34937e+07;
#X msg 147 171 color \$1 0 \$2;
#X connect 0 0 2 0;
#X connect 2 0 4 0;
#X connect 2 1 6 0;
#X connect 4 0 5 0;
#X connect 4 0 7 0;
#X connect 5 0 3 0;
#X connect 6 0 7 0;
#X connect 6 0 5 0;
#X connect 7 0 1 0;
#X restore 215 165 pd set_color;
#X obj 135 122 r \$0-tgl-s;
#N canvas 121 482 450 300 (subpatch) 0;
#X obj 101 101 cnv 25 40 25 empty \$0-cnv DSP 3 13 0 20 #4a4f51 #cde5c3
0;
#X coords 0 -1 1 1 42 27 1 100 100;
#X restore 51 144 pd;
#X obj 226 139 s \$0-tgl-r;
#X msg 226 115 set \$1;
#X msg 135 177 \; pd dsp \$1;
#N canvas 256 32 278 194 load_check 0;
#X obj 136 53 sig~ 1;
#X obj 74 24 loadbang;
#X obj 136 86 snapshot~;
#X obj 91 52 del 5;
#X obj 136 151 outlet;
#X obj 74 103 tgl 15 0 empty empty empty 17 7 0 10 #fcfcfc #000000
#000000 0 1;
#X obj 74 126 switch~;
#X connect 0 0 2 0;
#X connect 1 0 3 0;
#X connect 1 0 5 0;
#X connect 2 0 4 0;
#X connect 3 0 2 0;
#X connect 3 0 5 0;
#X connect 5 0 6 0;
#X restore 51 72 pd load_check;
#X connect 1 0 3 0;
#X connect 1 0 7 0;
#X connect 2 0 1 0;
#X connect 4 0 8 0;
#X connect 4 0 3 0;
#X connect 7 0 6 0;
#X connect 9 0 0 0;
#X coords 0 -1 1 1 44 72 2 50 100;
#X restore 578 142 pd;
#X obj 88 371 hsl 180 15 -2 2 0 0 empty empty empty -2 -8 0 10 #dcdcdc
#000000 #000000 0 1;
#X obj 85 399 nbx 8 14 -1e+37 1e+37 0 0 empty empty empty 0 -8 0 10
#dcdcdc #000000 #000000 0 256;
#X obj 161 442 nbx 4 14 -1e+37 1e+37 0 0 empty empty empty 0 -8 0 10
#dcdcdc #000000 #000000 0 256;
#X obj 238 443 nbx 4 14 -1e+37 1e+37 0 0 empty empty empty 0 -8 0 10
#dcdcdc #000000 #000000 0 256;
#X text 159 423 min-out;
#X text 237 423 max-out;
#X obj 85 443 sig~;
#X msg 330 408 clip \$1;
#X obj 330 383 tgl 17 0 empty empty empty 17 7 0 10 #dcdcdc #000000
#000000 0 1;
#X obj 401 365 hsl 180 15 -1 1 0 0 empty empty empty -2 -8 0 10 #dcdcdc
#000000 #000000 0 1;
#X obj 398 393 nbx 8 14 -1e+37 1e+37 0 0 empty empty empty 0 -8 0 10
#dcdcdc #000000 #000000 0 256;
#X obj 398 458 else/rescale~ 0 1 -10 10;
#X obj 398 429 sig~;
#X obj 668 356 cnv 15 198 138 empty empty empty 20 12 0 14 #e0e0e0
#404040 0;
#N canvas 0 22 450 278 (subpatch) 0;
#X array \$0-exponential 441 float 0;
#X coords 0 1 440 0 200 140 1 0 0;
#X restore 667 355 graph;
#X text 874 485 0;
#X text 872 353 1;
#X obj 684 292 tabwrite~ \$0-exponential;
#X obj 699 263 else/rescale~;
#X msg 699 197 -1 \, 1 10;
#X floatatom 684 139 9 1 1.2 0 - - - 0;
#X obj 687 115 hsl 128 15 0.1 10 1 0 empty empty empty -2 -8 0 10 #dcdcdc
#000000 #000000 0 1;
#X text 695 115 exponential factor;
#X obj 684 164 trigger bang float;
#X obj 699 226 vline~;
#X text 547 23 The third or fifth argument and the "exp" message specify
the exponential factor (must be greater than 0) where 1 gives you linear
scaling (no exponential). It's like raising to the power of the given
exponential \, try it below (with values from 0.1 to 10).;
#X msg 789 219 exp \$1;
#X text 95 297 The -clip flag or clip message clips the output into
the output range. By default \, [rescale~] will not clip the values
to the output range but keep scaling outside that boundary with the
same conversion parameters., f 71;
#X obj 85 469 else/rescale~ -clip -10 10;
#X obj 270 233 else/numbox~ 6 12 100 #c0c0c4 #440008 10 0 0 0;
#X obj 39 250 else/numbox~ 6 12 100 #c0c0c4 #440008 10 0 0 0;
#X obj 85 504 else/numbox~ 6 12 100 #c0c0c4 #440008 10 0 0 0;
#X obj 398 488 else/numbox~ 6 12 100 #c0c0c4 #440008 10 0 0 0;
#X connect 0 0 1 0;
#X connect 1 0 20 0;
#X connect 2 0 16 1;
#X connect 3 0 16 2;
#X connect 6 0 7 0;
#X connect 7 0 19 0;
#X connect 8 0 17 3;
#X connect 9 0 17 4;
#X connect 12 0 17 1;
#X connect 13 0 17 2;
#X connect 16 0 52 0;
#X connect 17 0 51 0;
#X connect 19 0 17 0;
#X connect 20 0 16 0;
#X connect 22 0 23 0;
#X connect 23 0 28 0;
#X connect 24 0 50 1;
#X connect 25 0 50 2;
#X connect 28 0 50 0;
#X connect 29 0 33 0;
#X connect 30 0 29 0;
#X connect 31 0 32 0;
#X connect 32 0 34 0;
#X connect 33 0 54 0;
#X connect 34 0 33 0;
#X connect 40 0 39 0;
#X connect 41 0 46 0;
#X connect 42 0 45 0;
#X connect 43 0 42 0;
#X connect 45 0 41 0;
#X connect 45 0 39 0;
#X connect 45 1 48 0;
#X connect 46 0 40 0;
#X connect 48 0 40 0;
#X connect 50 0 53 0;
#X restore 465 170 pd arguments;
#X text 140 285 clip <float> -;
#X text 230 285 <1> turns clipping on \, <0> off;
#X obj 6 371 cnv 3 550 3 empty empty flags 8 12 0 13 #dcdcdc #000000
0;
#X text 188 380 -clip: sets clipping on (default off);
#N canvas 812 293 488 296 inverted 0;
#X obj 186 83 hsl 128 15 -1 1 0 0 empty empty empty -2 -8 0 10 #dcdcdc
#000000 #000000 0 1;
#X obj 183 138 nbx 5 14 -1e+37 1e+37 0 0 empty empty empty 0 -8 0 10
#dcdcdc #000000 #000000 0 256;
#X text 58 17 The scaling can be inverted by reversing one of the ranges
(input or output);
#X obj 62 134 nbx 5 14 -1e+37 1e+37 0 0 empty empty empty 0 -8 0 10
#dcdcdc #000000 #000000 0 256;
#X obj 62 160 sig~;
#X text 183 246 Inverted;
#X obj 183 160 sig~;
#X obj 62 188 else/rescale~ 0 1;
#N canvas 207 34 366 264 (subpatch) 0;
#X obj 51 101 tgl 42 0 \$0-tgl-s \$0-tgl-r empty 1 8 1 9 #4a4f51 #cde5c3
#fcfcfc 0 1;
#X obj 215 68 route dsp;
#X obj 215 37 receive pd;
#N canvas 977 77 379 291 set_color 0;
#X obj 47 30 inlet;
#X obj 147 200 s \$0-cnv;
#X obj 47 83 select 0 1;
#X obj 47 220 s \$0-tgl-r;
#N canvas 0 22 712 637 off 0;
#X obj 490 220 * -1;
#X obj 424 300 +;
#X obj 409 325 +;
#X obj 347 219 * -65536;
#X obj 424 220 * -256;
#X obj 409 356 - 1;
#X obj 390 189 unpack f f f;
#X obj 225 295 +;
#X obj 210 320 +;
#X obj 148 214 * -65536;
#X obj 225 215 * -256;
#X obj 291 215 * -1;
#X obj 210 351 - 1;
#X obj 191 184 unpack f f f;
#X obj 379 423 pack;
#X msg 395 152 124 124 124;
#X msg 203 154 220 220 220;
#X obj 238 121 t b b;
#X obj 238 81 inlet;
#X obj 378 485 outlet;
#X connect 0 0 1 1;
#X connect 1 0 2 1;
#X connect 2 0 5 0;
#X connect 3 0 2 0;
#X connect 4 0 1 0;
#X connect 5 0 14 1;
#X connect 6 0 3 0;
#X connect 6 1 4 0;
#X connect 6 2 0 0;
#X connect 7 0 8 1;
#X connect 8 0 12 0;
#X connect 9 0 8 0;
#X connect 10 0 7 0;
#X connect 11 0 7 1;
#X connect 12 0 14 0;
#X connect 13 0 9 0;
#X connect 13 1 10 0;
#X connect 13 2 11 0;
#X connect 14 0 19 0;
#X connect 15 0 6 0;
#X connect 16 0 13 0;
#X connect 17 0 16 0;
#X connect 17 1 15 0;
#X connect 18 0 17 0;
#X restore 47 113 pd off;
#X msg 47 180 color \$1 \$2 0;
#X msg 147 131 -4.86997e+06 -1.34937e+07;
#X msg 147 171 color \$1 0 \$2;
#X connect 0 0 2 0;
#X connect 2 0 4 0;
#X connect 2 1 6 0;
#X connect 4 0 5 0;
#X connect 4 0 7 0;
#X connect 5 0 3 0;
#X connect 6 0 7 0;
#X connect 6 0 5 0;
#X connect 7 0 1 0;
#X restore 215 165 pd set_color;
#X obj 135 122 r \$0-tgl-s;
#N canvas 121 482 450 300 (subpatch) 0;
#X obj 101 101 cnv 25 40 25 empty \$0-cnv DSP 3 13 0 20 #4a4f51 #cde5c3
0;
#X coords 0 -1 1 1 42 27 1 100 100;
#X restore 51 144 pd;
#X obj 226 139 s \$0-tgl-r;
#X msg 226 115 set \$1;
#X msg 135 177 \; pd dsp \$1;
#N canvas 256 32 278 194 load_check 0;
#X obj 136 53 sig~ 1;
#X obj 74 24 loadbang;
#X obj 136 86 snapshot~;
#X obj 91 52 del 5;
#X obj 136 151 outlet;
#X obj 74 103 tgl 15 0 empty empty empty 17 7 0 10 #fcfcfc #000000
#000000 0 1;
#X obj 74 126 switch~;
#X connect 0 0 2 0;
#X connect 1 0 3 0;
#X connect 1 0 5 0;
#X connect 2 0 4 0;
#X connect 3 0 2 0;
#X connect 3 0 5 0;
#X connect 5 0 6 0;
#X restore 51 72 pd load_check;
#X connect 1 0 3 0;
#X connect 1 0 7 0;
#X connect 2 0 1 0;
#X connect 4 0 8 0;
#X connect 4 0 3 0;
#X connect 7 0 6 0;
#X connect 9 0 0 0;
#X coords 0 -1 1 1 44 72 2 50 100;
#X restore 381 117 pd;
#X obj 183 189 else/rescale~ 1 0;
#X obj 183 219 else/numbox~ 6 12 100 #c0c0c4 #440008 10 0 0 0;
#X obj 62 219 else/numbox~ 6 12 100 #c0c0c4 #440008 10 0 0 0;
#X connect 0 0 1 0;
#X connect 0 0 3 0;
#X connect 1 0 6 0;
#X connect 3 0 4 0;
#X connect 4 0 7 0;
#X connect 6 0 9 0;
#X connect 7 0 11 0;
#X connect 9 0 10 0;
#X restore 471 211 pd inverted;
#N canvas 637 123 608 520 negative-exponential 0;
#N canvas 207 34 366 264 (subpatch) 0;
#X obj 51 101 tgl 42 0 \$0-tgl-s \$0-tgl-r empty 1 8 1 9 #4a4f51 #cde5c3
#fcfcfc 0 1;
#X obj 215 68 route dsp;
#X obj 215 37 receive pd;
#N canvas 977 77 379 291 set_color 0;
#X obj 47 30 inlet;
#X obj 147 200 s \$0-cnv;
#X obj 47 83 select 0 1;
#X obj 47 220 s \$0-tgl-r;
#N canvas 0 22 712 637 off 0;
#X obj 490 220 * -1;
#X obj 424 300 +;
#X obj 409 325 +;
#X obj 347 219 * -65536;
#X obj 424 220 * -256;
#X obj 409 356 - 1;
#X obj 390 189 unpack f f f;
#X obj 225 295 +;
#X obj 210 320 +;
#X obj 148 214 * -65536;
#X obj 225 215 * -256;
#X obj 291 215 * -1;
#X obj 210 351 - 1;
#X obj 191 184 unpack f f f;
#X obj 379 423 pack;
#X msg 395 152 124 124 124;
#X msg 203 154 220 220 220;
#X obj 238 121 t b b;
#X obj 238 81 inlet;
#X obj 378 485 outlet;
#X connect 0 0 1 1;
#X connect 1 0 2 1;
#X connect 2 0 5 0;
#X connect 3 0 2 0;
#X connect 4 0 1 0;
#X connect 5 0 14 1;
#X connect 6 0 3 0;
#X connect 6 1 4 0;
#X connect 6 2 0 0;
#X connect 7 0 8 1;
#X connect 8 0 12 0;
#X connect 9 0 8 0;
#X connect 10 0 7 0;
#X connect 11 0 7 1;
#X connect 12 0 14 0;
#X connect 13 0 9 0;
#X connect 13 1 10 0;
#X connect 13 2 11 0;
#X connect 14 0 19 0;
#X connect 15 0 6 0;
#X connect 16 0 13 0;
#X connect 17 0 16 0;
#X connect 17 1 15 0;
#X connect 18 0 17 0;
#X restore 47 113 pd off;
#X msg 47 180 color \$1 \$2 0;
#X msg 147 131 -4.86997e+06 -1.34937e+07;
#X msg 147 171 color \$1 0 \$2;
#X connect 0 0 2 0;
#X connect 2 0 4 0;
#X connect 2 1 6 0;
#X connect 4 0 5 0;
#X connect 4 0 7 0;
#X connect 5 0 3 0;
#X connect 6 0 7 0;
#X connect 6 0 5 0;
#X connect 7 0 1 0;
#X restore 215 165 pd set_color;
#X obj 135 122 r \$0-tgl-s;
#N canvas 121 482 450 300 (subpatch) 0;
#X obj 101 101 cnv 25 40 25 empty \$0-cnv DSP 3 13 0 20 #4a4f51 #cde5c3
0;
#X coords 0 -1 1 1 42 27 1 100 100;
#X restore 51 144 pd;
#X obj 226 139 s \$0-tgl-r;
#X msg 226 115 set \$1;
#X msg 135 177 \; pd dsp \$1;
#N canvas 256 32 278 194 load_check 0;
#X obj 136 53 sig~ 1;
#X obj 74 24 loadbang;
#X obj 136 86 snapshot~;
#X obj 91 52 del 5;
#X obj 136 151 outlet;
#X obj 74 103 tgl 15 0 empty empty empty 17 7 0 10 #fcfcfc #000000
#000000 0 1;
#X obj 74 126 switch~;
#X connect 0 0 2 0;
#X connect 1 0 3 0;
#X connect 1 0 5 0;
#X connect 2 0 4 0;
#X connect 3 0 2 0;
#X connect 3 0 5 0;
#X connect 5 0 6 0;
#X restore 51 72 pd load_check;
#X connect 1 0 3 0;
#X connect 1 0 7 0;
#X connect 2 0 1 0;
#X connect 4 0 8 0;
#X connect 4 0 3 0;
#X connect 7 0 6 0;
#X connect 9 0 0 0;
#X coords 0 -1 1 1 44 72 2 50 100;
#X restore 470 156 pd;
#X obj 66 351 cnv 15 198 138 empty empty empty 20 12 0 14 #e0e0e0 #404040
0;
#N canvas 0 22 450 278 (subpatch) 0;
#X array \$0-positive 441 float 0;
#X coords 0 1 440 0 200 140 1 0 0;
#X restore 65 350 graph;
#X text 272 480 0;
#X text 270 348 1;
#X obj 109 251 else/rescale~;
#X msg 109 185 -1 \, 1 10;
#X obj 94 152 trigger bang float;
#X obj 109 214 vline~;
#X msg 199 207 exp \$1;
#X obj 337 351 cnv 15 198 138 empty empty empty 20 12 0 14 #e0e0e0
#404040 0;
#N canvas 0 22 450 278 (subpatch) 0;
#X array \$0-negative 441 float 0;
#X coords 0 1 440 0 200 140 1 0 0;
#X restore 336 350 graph;
#X text 543 480 0;
#X text 541 348 1;
#X obj 307 257 else/rescale~;
#X msg 307 191 -1 \, 1 10;
#X floatatom 292 93 0 1 1.2 0 - - - 0;
#X obj 295 69 hsl 128 15 0.1 10 1 0 empty empty empty -2 -8 0 10 #dcdcdc
#000000 #000000 0 1;
#X text 303 69 exponential factor;
#X obj 292 158 trigger bang float;
#X obj 307 220 vline~;
#X msg 397 213 exp \$1;
#X obj 94 280 tabwrite~ \$0-positive;
#X obj 292 286 tabwrite~ \$0-negative;
#X obj 292 127 * -1;
#X text 113 19 Negative exponentials are allowed. In this casde \,
it's like the curve shape has been mirrored in reverse.;
#X connect 5 0 22 0;
#X connect 6 0 8 0;
#X connect 7 0 6 0;
#X connect 7 0 22 0;
#X connect 7 1 9 0;
#X connect 8 0 5 0;
#X connect 9 0 5 0;
#X connect 14 0 23 0;
#X connect 15 0 20 0;
#X connect 16 0 24 0;
#X connect 16 0 7 0;
#X connect 17 0 16 0;
#X connect 19 0 15 0;
#X connect 19 0 23 0;
#X connect 19 1 21 0;
#X connect 20 0 14 0;
#X connect 21 0 14 0;
#X connect 24 0 19 0;
#X restore 399 190 pd negative-exponential;
#X text 173 409 up to 3 arguments set: minimum output \, maximum output
\, exponential factor. 4 arguments set minimum input \, maximum input
\, minimum output \, maximum output and 5 fifth argument sets the exponential
factor - default (0 \, 127 \, 0 \, 1 \, 1);
#X obj 242 211 else/numbox~ 6 12 100 #c0c0c4 #440008 10 0 0 0;
#X connect 21 0 39 0;
#X connect 24 0 21 0;
