#N canvas 447 23 567 635 10;
#X obj 4 291 cnv 3 550 3 empty empty inlets 8 12 0 13 #dcdcdc #000000
0;
#X obj 4 413 cnv 3 550 3 empty empty outlets 8 12 0 13 #dcdcdc #000000
0;
#X obj 4 556 cnv 3 550 3 empty empty arguments 8 12 0 13 #dcdcdc #000000
0;
#X obj 87 422 cnv 17 3 17 empty empty 0 5 9 0 16 #dcdcdc #9c9c9c 0
;
#X obj 87 301 cnv 17 3 105 empty empty 0 5 9 0 16 #dcdcdc #9c9c9c 0
;
#X text 147 299 signal;
#X text 147 422 signal;
#X obj 3 3 cnv 15 301 42 empty empty resonbank2~ 20 20 2 37 #e0e0e0
#000000 0;
#X obj 307 4 cnv 15 250 40 empty empty empty 12 13 0 18 #7c7c7c #e0e4dc
0;
#N canvas 0 22 450 278 (subpatch) 0;
#X coords 0 1 100 -1 302 42 1;
#X restore 3 3 graph;
#N canvas 382 141 749 319 (subpatch) 0;
#X coords 0 -1 1 1 252 42 2 0 0;
#X restore 306 3 pd;
#X obj 346 11 cnv 10 10 10 empty empty ELSE 0 15 2 30 #7c7c7c #e0e4dc
0;
#X obj 24 40 cnv 4 4 4 empty empty Bank 0 28 2 18 #e0e0e0 #000000 0
;
#X obj 166 40 cnv 4 4 4 empty empty filters 0 28 2 18 #e0e0e0 #000000
0;
#X obj 459 11 cnv 10 10 10 empty empty EL 0 6 2 13 #7c7c7c #e0e4dc
0;
#X obj 479 11 cnv 10 10 10 empty empty Locus 0 6 2 13 #7c7c7c #e0e4dc
0;
#X obj 465 26 cnv 10 10 10 empty empty ELSE 0 6 2 13 #7c7c7c #e0e4dc
0;
#X obj 96 40 cnv 4 4 4 empty empty resonant 0 28 2 18 #e0e0e0 #000000
0;
#X obj 69 40 cnv 4 4 4 empty empty of 0 28 2 18 #e0e0e0 #000000 0;
#X obj 187 230 else/out~;
#X text 142 582 2) float - ramp time in ms (default 10), f 57;
#X text 117 315 freq <list>;
#X text 111 345 decay <list>;
#X text 123 360 amp <list>;
#X text 117 375 ramp <list>;
#X text 195 315 - list of frequencies for all filters in the bank;
#X text 195 345 - list of decay time for all filters in the bank;
#X text 195 360 - list of amplitudes for all filters in the bank;
#X text 195 375 - list of ramp time for all filters in the bank;
#X text 196 299 - signal to be filtered via a bank of resonators;
#N canvas 800 121 521 487 example 0;
#X obj 68 336 else/out~;
#X obj 177 121 loadbang;
#X obj 68 152 else/dust~ 5;
#X text 258 108 click on the messages below to alter between them,
f 27;
#X text 81 416 If you do not set attack times \, [resonbank2~] will
behave in the same way as [resonbank~] \, but it will be less efficient.
;
#X msg 177 144 freq 100 250 300 370 420 510 590 650 \, attack 200 100
150 75 200 100 150 100 \, decay 800 900 1500 900 2000 800 1500 900
\, amp 0.9 0.5 0.9 1 0.8 0.9 0.7 1, f 41;
#X msg 189 212 freq 140 290 310 330 490 580 690 750 \, attack 100 150
200 50 100 150 100 200 \, decay 900 800 2500 700 500 1200 1700 900
\, amp 0.9 0.5 0.9 1 0.8 0.9 0.7 1, f 41;
#X obj 68 299 else/resonbank2~ 8 2000;
#X text 68 23 A ramp time as the second argument sets a transition
time in ms between parameter changes of resonant frequency \, attack
time \, decay time and amplitude. By default \, this is set to 10 ms.
You can also send a list of ramp time for each filter in the bank.
;
#X text 215 298 <- number of filters / ramp time.;
#X connect 1 0 5 0;
#X connect 2 0 7 0;
#X connect 5 0 7 0;
#X connect 6 0 7 0;
#X connect 7 0 0 0;
#X restore 465 258 pd example;
#X text 142 564 1) float - number of resonant filters (default 1),
f 57;
#X text 196 422 - the bank filtered signal;
#X text 105 330 attack <list>;
#X text 195 330 - list of attack time for all filters in the bank;
#X obj 187 146 else/imp~ 1;
#X obj 6 606 cnv 15 552 21 empty empty empty 20 12 0 14 #e0e0e0 #202020
0;
#X obj 6 447 cnv 3 550 3 empty empty flags 8 12 0 13 #dcdcdc #000000
0;
#X text 100 453 -freq <list>: sets list of frequencies for all resonators
;
#X text 100 519 -ramp <list>: sets ramp time for all resonators, f
57;
#X text 100 504 -amp <list>: sets list of amplitudes for all resonators
, f 57;
#X text 100 488 -decay <list>: sets list of decay time for all resonators
;
#X text 100 470 -attack <list>: sets list of attack time for all resonators
;
#X obj 187 174 else/resonbank2~ 4 -freq 110 220 330 440 -attack 50
100 50 100 -decay 2500 2800 2300 2400, f 31;
#X text 29 191 see also:;
#X obj 29 211 else/resonbank~;
#X obj 29 231 else/bpbank~;
#X obj 29 251 else/oscbank~;
#X text 99 390 rampall float>;
#X text 194 390 - sets ramp time for all filters in the bank;
#X text 100 535 -rampall <float>: sets ramp time for all filters,
f 57;
#X text 40 86 [resonbank2~] is a bank made of [resonant2~] objects.
You can set any number of filters and control their parameters. If
you use flags \, the number of elements in the list (such as the frequency
list) sets the number of filters in the bank (you shouldn't use arguments
if you use flags)., f 80;
#X connect 35 0 43 0;
#X connect 43 0 19 0;
