#N canvas 570 23 566 600 10;
#X obj 3 291 cnv 3 550 3 empty empty inlets 8 12 0 13 #dcdcdc #000000
0;
#X obj 3 397 cnv 3 550 3 empty empty outlets 8 12 0 13 #dcdcdc #000000
0;
#X obj 3 523 cnv 3 550 3 empty empty arguments 8 12 0 13 #dcdcdc #000000
0;
#X obj 87 406 cnv 17 3 17 empty empty 0 5 9 0 16 #dcdcdc #9c9c9c 0
;
#X text 147 299 signal;
#X text 147 406 signal;
#X obj 2 3 cnv 15 301 42 empty empty resonbank~ 20 20 2 37 #e0e0e0
#000000 0;
#X obj 306 4 cnv 15 250 40 empty empty empty 12 13 0 18 #7c7c7c #e0e4dc
0;
#N canvas 0 22 450 278 (subpatch) 0;
#X coords 0 1 100 -1 302 42 1;
#X restore 2 3 graph;
#N canvas 382 141 749 319 (subpatch) 0;
#X coords 0 -1 1 1 252 42 2 0 0;
#X restore 305 3 pd;
#X obj 345 11 cnv 10 10 10 empty empty ELSE 0 15 2 30 #7c7c7c #e0e4dc
0;
#X obj 23 40 cnv 4 4 4 empty empty Bank 0 28 2 18 #e0e0e0 #000000 0
;
#X obj 165 40 cnv 4 4 4 empty empty filters 0 28 2 18 #e0e0e0 #000000
0;
#X obj 458 11 cnv 10 10 10 empty empty EL 0 6 2 13 #7c7c7c #e0e4dc
0;
#X obj 478 11 cnv 10 10 10 empty empty Locus 0 6 2 13 #7c7c7c #e0e4dc
0;
#X obj 464 26 cnv 10 10 10 empty empty ELSE 0 6 2 13 #7c7c7c #e0e4dc
0;
#X obj 95 40 cnv 4 4 4 empty empty resonant 0 28 2 18 #e0e0e0 #000000
0;
#X obj 68 40 cnv 4 4 4 empty empty of 0 28 2 18 #e0e0e0 #000000 0;
#X obj 191 229 else/out~;
#X text 142 549 2) float - ramp time in ms (default 10), f 57;
#X text 117 314 freq <list>;
#X text 111 330 decay <list>;
#X text 123 345 amp <list>;
#X text 117 360 ramp <list>;
#X text 195 314 - list of frequencies for all filters in the bank;
#X text 195 330 - list of decay time for all filters in the bank;
#X text 195 345 - list of amplitudes for all filters in the bank;
#X text 195 360 - list of ramp time for all filters in the bank;
#X text 196 299 - signal to be filtered via a bank of resonators;
#N canvas 732 194 516 377 example 0;
#X obj 173 112 loadbang;
#X text 254 99 click on the messages below to alter between them,
f 27;
#X msg 173 135 freq 100 250 300 370 420 510 590 650 \, decay 2000 900
1500 900 2000 800 1500 900 \, amp 0.9 1 0.9 1 0.8 0.9 0.7 1, f 42
;
#X msg 184 190 freq 140 290 310 330 490 580 690 750 \, decay 1000 800
2500 700 500 1200 1700 900 \, amp 1 1 1 1 0.9 0.8 0.9 1, f 42;
#X obj 64 254 else/resonbank~ 8 2000;
#X obj 64 289 else/out~ 5;
#X obj 64 152 else/dust~ 5;
#X text 207 254 <- number of filters / ramp time.;
#X text 58 25 A ramp time as the second argument sets a transition
time in ms between parameter changes of resonant frequency \, decay
time and amplitude. By default \, this is set to 10 ms. You can also
send a list of ramp time for each filter in the bank.;
#X connect 0 0 2 0;
#X connect 2 0 4 0;
#X connect 3 0 4 0;
#X connect 4 0 5 0;
#X connect 6 0 4 0;
#X restore 469 255 pd example;
#X text 142 531 1) float - number of resonant filters (default 1),
f 57;
#X text 196 406 - the bank filtered signal;
#X obj 191 147 else/brown~;
#X text 23 183 see also:;
#X obj 5 573 cnv 15 552 21 empty empty empty 20 12 0 14 #e0e0e0 #202020
0;
#X obj 5 432 cnv 3 550 3 empty empty flags 8 12 0 13 #dcdcdc #000000
0;
#X text 114 438 -freq <list>: sets list of frequencies for all resonators
;
#X text 114 484 -ramp <list>: sets ramp time for all resonators, f
57;
#X text 114 469 -amp <list>: sets list of amplitudes for all resonators
, f 57;
#X text 114 453 -decay <list>: sets list of decay time for all resonators
;
#X obj 22 206 else/resonbank2~;
#X obj 23 228 else/bpbank~;
#X obj 23 250 else/oscbank~;
#X obj 191 177 else/resonbank~ -freq 200 300 700 800 -decay 900 800
700 900 -amp 0.4 0.3 0.2 0.2, f 28;
#X text 99 375 rampall float>;
#X text 194 375 - sets ramp time for all filters in the bank;
#X obj 87 299 cnv 17 3 90 empty empty 0 5 9 0 16 #dcdcdc #9c9c9c 0
;
#X text 114 500 -rampall <float>: sets ramp time for all filters,
f 57;
#X text 59 86 [resonbank~] is a bank made of [resonant~] objects. You
can set any number of filters and control their parameters. If you
use flags \, the number of elements in the list (such as the frequency
list) sets the number of filters in the bank (you shouldn't use arguments
if you use flags)., f 74;
#X connect 32 0 43 0;
#X connect 43 0 18 0;
