#N canvas 666 52 563 391 10;
#X obj 305 4 cnv 15 250 40 empty empty empty 12 13 0 18 -128992 -233080
0;
#X obj 344 11 cnv 10 10 10 empty empty ELSE 0 15 2 30 -128992 -233080
0;
#X obj 22 40 cnv 4 4 4 empty empty Rounds 0 28 2 18 -233017 -1 0;
#X obj 86 40 cnv 4 4 4 empty empty to 0 28 2 18 -233017 -1 0;
#X obj 457 11 cnv 10 10 10 empty empty EL 0 6 2 13 -128992 -233080
0;
#X obj 477 11 cnv 10 10 10 empty empty Locus 0 6 2 13 -128992 -233080
0;
#X obj 514 11 cnv 10 10 10 empty empty Solus' 0 6 2 13 -128992 -233080
0;
#X obj 463 26 cnv 10 10 10 empty empty ELSE 0 6 2 13 -128992 -233080
0;
#X obj 501 26 cnv 10 10 10 empty empty library 0 6 2 13 -128992 -233080
0;
#N canvas 0 22 450 278 (subpatch) 0;
#X coords 0 1 100 -1 252 42 1;
#X restore 304 3 graph;
#X obj 2 2 cnv 15 301 42 empty empty rint~ 20 20 2 37 -233017 -1 0
;
#N canvas 0 22 450 278 (subpatch) 0;
#X coords 0 1 100 -1 302 42 1;
#X restore 2 3 graph;
#X obj 5 364 cnv 15 552 21 empty empty empty 20 12 0 14 -233017 -33289
0;
#X obj 5 259 cnv 3 550 3 empty empty inlets 8 12 0 13 -228856 -1 0
;
#X obj 5 296 cnv 3 550 3 empty empty outlets 8 12 0 13 -228856 -1 0
;
#X obj 5 332 cnv 3 550 3 empty empty arguments 8 12 0 13 -228856 -1
0;
#X obj 136 270 cnv 17 3 17 empty empty 0 5 9 0 16 -228856 -162280 0
;
#X obj 472 92 else/setdsp~;
#X text 191 341 (none);
#X obj 136 307 cnv 17 3 17 empty empty 0 5 9 0 16 -228856 -162280 0
;
#X obj 207 40 cnv 4 4 4 empty empty integer 0 28 2 18 -233017 -1 0
;
#X obj 145 40 cnv 4 4 4 empty empty nearest 0 28 2 18 -233017 -1 0
;
#X text 170 308 signal - rounded integer signal;
#X text 73 89 [rint~] takes a float input and rounds it to the nearest
integer value.;
#X obj 110 40 cnv 4 4 4 empty empty the 0 28 2 18 -233017 -1 0;
#X obj 207 131 hsl 180 16 -10 10 0 0 empty empty empty -2 -8 0 10 -228856
-1 -1 0 1;
#X obj 204 157 else/display~ 8;
#X obj 204 222 else/display~ 8;
#X obj 204 193 else/rint~;
#X text 168 271 signal - signal input;
#X text 41 189 see also:;
#X obj 37 214 else/rint;
#X connect 25 0 26 0;
#X connect 26 0 28 0;
#X connect 28 0 27 0;
