#N canvas 564 108 562 379 10;
#X obj 3 255 cnv 3 550 3 empty empty inlets 8 12 0 13 -228856 -1 0
;
#X obj 3 288 cnv 3 550 3 empty empty outlets 8 12 0 13 -228856 -1 0
;
#X obj 3 322 cnv 3 550 3 empty empty arguments 8 12 0 13 -228856 -1
0;
#X obj 133 298 cnv 17 3 17 empty empty 0 5 9 0 16 -228856 -162280 0
;
#X obj 3 352 cnv 15 552 21 empty empty empty 20 12 0 14 -233017 -33289
0;
#X obj 201 144 hsl 180 15 0 44100 0 0 empty empty empty -2 -8 0 10
-228856 -1 -1 0 1;
#X obj 198 168 nbx 5 14 0 44100 0 0 empty empty empty 0 -8 0 10 -228856
-1 -1 0 256;
#X obj 3 3 cnv 15 301 42 empty empty samps2ms 20 20 2 37 -233017 -1
0;
#X obj 306 4 cnv 15 250 40 empty empty empty 12 13 0 18 -128992 -233080
0;
#N canvas 0 22 450 278 (subpatch) 0;
#X coords 0 1 100 -1 302 42 1 0 0;
#X restore 2 3 graph;
#N canvas 382 141 749 319 (subpatch) 0;
#X coords 0 -1 1 1 252 42 2 100 100;
#X restore 305 3 pd;
#X obj 345 11 cnv 10 10 10 empty empty ELSE 0 15 2 30 -128992 -233080
0;
#X obj 458 11 cnv 10 10 10 empty empty EL 0 6 2 13 -128992 -233080
0;
#X obj 478 11 cnv 10 10 10 empty empty Locus 0 6 2 13 -128992 -233080
0;
#X obj 515 11 cnv 10 10 10 empty empty Solus' 0 6 2 13 -128992 -233080
0;
#X obj 464 26 cnv 10 10 10 empty empty ELSE 0 6 2 13 -128992 -233080
0;
#X obj 502 26 cnv 10 10 10 empty empty library 0 6 2 13 -128992 -233080
0;
#X obj 198 224 nbx 8 14 -1e+37 1e+37 0 0 empty empty empty 0 -8 0 10
-228856 -1 -1 0 256;
#X obj 23 40 cnv 4 4 4 empty empty Convert 0 28 2 18 -233017 -1 0;
#X obj 90 40 cnv 4 4 4 empty empty samples 0 28 2 18 -233017 -1 0;
#X obj 156 40 cnv 4 4 4 empty empty to 0 28 2 18 -233017 -1 0;
#X obj 181 40 cnv 4 4 4 empty empty ms 0 28 2 18 -233017 -1 0;
#X obj 134 265 cnv 17 3 17 empty empty 0 5 9 0 16 -228856 -162280 0
;
#X text 176 223 ms;
#X text 147 167 Samples;
#X text 163 331 (none);
#X text 169 298 float;
#X text 169 265 float;
#X text 96 85 [samps2ms] is a simple abstraction that converts time
values number of samples to ms., f 53;
#X text 96 116 Conversion expression: ms = 1000*samps/ samplerate.
;
#X text 216 265 - time value in number of samples;
#X text 212 298 - converted value in ms;
#X obj 198 197 else/samps2ms;
#X connect 5 0 6 0;
#X connect 6 0 32 0;
#X connect 32 0 17 0;
