#N canvas 514 62 560 361 10;
#X obj 179 197 display;
#X obj 4 234 cnv 3 550 3 empty empty inlets 8 12 0 13 #dcdcdc #000000 0;
#X obj 4 266 cnv 3 550 3 empty empty outlets 8 12 0 13 #dcdcdc #000000 0;
#X obj 4 303 cnv 3 550 3 empty empty arguments 8 12 0 13 #dcdcdc #000000 0;
#X obj 119 275 cnv 17 3 17 empty empty 0 5 9 0 16 #dcdcdc #9c9c9c 0;
#X obj 4 336 cnv 15 552 21 empty empty empty 20 12 0 14 #e0e0e0 #202020 0;
#X obj 3 3 cnv 15 301 42 empty empty scale2cents 20 20 2 37 #e0e0e0 #000000 0;
#X obj 306 4 cnv 15 250 40 empty empty empty 12 13 0 18 #7c7c7c #e0e4dc 0;
#N canvas 0 22 450 278 (subpatch) 0;
#X coords 0 1 100 -1 302 42 1 0 0;
#X restore 2 3 graph;
#N canvas 382 141 749 319 (subpatch) 0;
#X coords 0 -1 1 1 252 42 2 100 100;
#X restore 305 3 pd;
#X obj 345 11 cnv 10 10 10 empty empty ELSE 0 15 2 30 #7c7c7c #e0e4dc 0;
#X obj 23 40 cnv 4 4 4 empty empty Scale/Cents 0 28 2 18 #e0e0e0 #000000 0;
#X obj 118 40 cnv 4 4 4 empty empty conversion 0 28 2 18 #e0e0e0 #000000 0;
#X obj 458 11 cnv 10 10 10 empty empty EL 0 6 2 13 #7c7c7c #e0e4dc 0;
#X obj 478 11 cnv 10 10 10 empty empty Locus 0 6 2 13 #7c7c7c #e0e4dc 0;
#X obj 515 11 cnv 10 10 10 empty empty Solus' 0 6 2 13 #7c7c7c #e0e4dc 0;
#X obj 464 26 cnv 10 10 10 empty empty ELSE 0 6 2 13 #7c7c7c #e0e4dc 0;
#X obj 502 26 cnv 10 10 10 empty empty library 0 6 2 13 #7c7c7c #e0e4dc 0;
#X obj 117 243 cnv 17 3 17 empty empty 0 5 9 0 16 #dcdcdc #9c9c9c 0;
#X text 235 312 none;
#X text 156 275 list;
#X text 156 244 list;
#X text 23 128 see also:;
#X text 61 86 Use [scale2cents] to convert a scale defined as scale steps in semitones to cents.;
#X msg 179 138 2 2 1 2 2 2 1;
#X obj 179 164 else/scale2cents;
#X obj 24 150 else/cents2scale;
#X text 189 244 - scale steps;
#X text 189 275 - converted cents values;
#X obj 25 173 else/scale2freq;
#X obj 25 197 else/scales;
#X connect 24 0 25 0;
#X connect 25 0 0 0;
