#N canvas 536 52 563 429 10;
#X obj 4 238 cnv 3 550 3 empty empty inlets 8 12 0 13 #dcdcdc #000000
0;
#X obj 4 309 cnv 3 550 3 empty empty outlets 8 12 0 13 #dcdcdc #000000
0;
#X obj 4 366 cnv 3 550 3 empty empty arguments 8 12 0 13 #dcdcdc #000000
0;
#X obj 106 318 cnv 17 3 17 empty empty 0 5 9 0 16 #dcdcdc #9c9c9c 0
;
#X obj 3 398 cnv 15 552 21 empty empty empty 20 12 0 14 #e0e0e0 #202020
0;
#X obj 25 40 cnv 4 4 4 empty empty Signal 0 28 2 18 #e0e0e0 #000000
0;
#X obj 106 245 cnv 17 3 60 empty empty 0 5 9 0 16 #dcdcdc #9c9c9c 0
;
#X text 160 259 bang;
#X text 148 318 signal;
#X obj 3 3 cnv 15 301 42 empty empty sequencer~ 20 20 2 37 #e0e0e0
#000000 0;
#N canvas 0 22 450 278 (subpatch) 0;
#X coords 0 1 100 -1 302 42 1 0 0;
#X restore 2 3 graph;
#X obj 305 4 cnv 15 250 40 empty empty empty 12 13 0 18 #7c7c7c #e0e4dc
0;
#N canvas 382 141 749 319 (subpatch) 0;
#X coords 0 -1 1 1 252 42 2 100 100;
#X restore 304 3 pd;
#X obj 345 11 cnv 10 10 10 empty empty ELSE 0 15 2 30 #7c7c7c #e0e4dc
0;
#X obj 458 11 cnv 10 10 10 empty empty EL 0 6 2 13 #7c7c7c #e0e4dc
0;
#X obj 478 11 cnv 10 10 10 empty empty Locus 0 6 2 13 #7c7c7c #e0e4dc
0;
#X obj 515 11 cnv 10 10 10 empty empty Solus' 0 6 2 13 #7c7c7c #e0e4dc
0;
#X obj 464 26 cnv 10 10 10 empty empty ELSE 0 6 2 13 #7c7c7c #e0e4dc
0;
#X obj 502 26 cnv 10 10 10 empty empty library 0 6 2 13 #7c7c7c #e0e4dc
0;
#X obj 79 40 cnv 4 4 4 empty empty sequencer 0 28 2 18 #e0e0e0 #000000
0;
#X text 124 289 set <list>;
#X text 148 245 signal;
#X text 68 89 When receiving a signal trigger (0 to non-0 transition)
or a bang \, [sequencer~] sends a signal value from a given sequence.
, f 66;
#X text 191 318 - values from a sequence;
#X text 144 375 1) list - list of floats sets the sequence (default
0);
#X obj 503 71 else/setdsp~;
#X text 17 174 see also:;
#X obj 18 193 else/impseq~;
#N canvas 659 33 574 682 example 0;
#X obj 145 55 tgl 15 0 empty empty empty 17 7 0 10 #dcdcdc #000000
#000000 0 1;
#X obj 146 246 else/out~;
#X obj 146 204 else/resonant2~ 500 100 1000;
#X obj 145 146 else/impseq~ 1 0.5 1 0.5 0 1 0.5 0.25 0;
#X obj 201 178 else/sequencer~ 500 900 300 700 200 600 400 800;
#X text 193 55 [sequencer~] can be used in conjunction with [impseq~]
;
#X obj 145 81 else/tempo~ 180;
#X obj 120 334 tgl 15 0 empty empty empty 17 7 0 10 #dcdcdc #000000
#000000 0 1;
#X obj 120 601 else/out~;
#X obj 120 559 else/resonant2~ 500 100 1000;
#X obj 120 366 else/tempo~ 180;
#X obj 175 434 else/trig2bang~;
#X obj 175 469 else/rand.i 1 8;
#X msg 175 492 goto \$1;
#X obj 120 395 else/impseq~ 1 0.5 1 0.5 0 1 0.5 0.25 0, f 20;
#X obj 175 528 else/sequencer~ 500 900 300 700 200 600 400 800;
#X text 249 365 A way to randomize the values;
#X obj 279 441 loadbang;
#X obj 85 124 sel 0;
#X msg 85 147 goto 1;
#X connect 0 0 6 0;
#X connect 0 0 18 0;
#X connect 2 0 1 0;
#X connect 3 0 2 0;
#X connect 3 0 4 0;
#X connect 4 0 2 1;
#X connect 6 0 3 0;
#X connect 7 0 10 0;
#X connect 9 0 8 0;
#X connect 10 0 14 0;
#X connect 11 0 12 0;
#X connect 12 0 13 0;
#X connect 13 0 15 0;
#X connect 14 0 9 0;
#X connect 14 0 11 0;
#X connect 14 0 15 0;
#X connect 15 0 9 1;
#X connect 17 0 12 0;
#X connect 18 0 19 0;
#X connect 19 0 3 0;
#X connect 19 0 4 0;
#X restore 479 208 pd example;
#X text 194 273 - goes to a position index in the sequence (from 1)
, f 55;
#X text 194 288 - sets a new sequence;
#X text 194 245 - signal trigger to generate value from sequence,
f 55;
#X text 194 259 - control trigger to generate value from sequence,
f 55;
#N canvas 890 147 472 334 text 0;
#X obj 193 107 vradio 15 1 0 3 empty empty empty 0 -8 0 10 #dcdcdc
#000000 #000000 0;
#X obj 193 187 else/insert set;
#X obj 193 81 loadbang;
#X text 86 35 Use [text] to store many sequence presets.;
#X obj 61 246 else/sequencer~;
#X obj 243 128 text define -k \$0-presets;
#A set 100 200 300 400 500 \; 40 50 60 70 \; 3 4 5 6;
#X obj 193 164 text get \$0-presets;
#X obj 193 212 else/display;
#X obj 61 157 else/tempo~ -on 60;
#X obj 61 274 else/numbox~ 6 12 100 #c0c0c4 #440008 0 0 10 0;
#X connect 0 0 6 0;
#X connect 1 0 7 0;
#X connect 2 0 0 0;
#X connect 4 0 9 0;
#X connect 6 0 1 0;
#X connect 7 0 4 0;
#X connect 8 0 4 0;
#X restore 497 187 pd text;
#X text 112 274 goto <float>;
#X obj 337 185 else/trig2bang~;
#X obj 337 208 bng 17 250 50 0 empty empty empty 17 7 0 10 #dfdfdf
#000000 #000000;
#X text 361 210 done;
#X obj 106 341 cnv 17 3 17 empty empty 1 5 9 0 16 #dcdcdc #9c9c9c 0
;
#X text 148 341 signal;
#X text 192 341 - impulse when reaching end of sequence;
#X obj 130 161 else/sequencer~ 10 5 0 2 3 7 9 1 11;
#X obj 130 130 else/impulse~ 2;
#X obj 130 202 else/numbox~ 6 12 100 #c0c0c4 #440008 0 0 10 0;
#X connect 35 0 36 0;
#X connect 41 0 43 0;
#X connect 41 1 35 0;
#X connect 42 0 41 0;
