#N canvas 405 23 561 565 10;
#X obj 4 324 cnv 3 550 3 empty empty inlets 8 12 0 13 #dcdcdc #000000
0;
#X obj 4 428 cnv 3 550 3 empty empty outlets 8 12 0 13 #dcdcdc #000000
0;
#X obj 4 498 cnv 3 550 3 empty empty arguments 8 12 0 13 #dcdcdc #000000
0;
#X obj 6 538 cnv 15 552 21 empty empty empty 20 12 0 14 #e0e0e0 #202020
0;
#X obj 119 437 cnv 17 3 17 empty empty 0 5 9 0 16 #dcdcdc #9c9c9c 0
;
#X obj 119 331 cnv 17 3 47 empty empty 0 5 9 0 16 #dcdcdc #9c9c9c 0
;
#X obj 23 40 cnv 4 4 4 empty empty Control 0 28 2 18 #e0e0e0 #000000
0;
#X obj 87 40 cnv 4 4 4 empty empty slew 0 28 2 18 #e0e0e0 #000000 0
;
#X obj 119 382 cnv 17 3 17 empty empty 1 5 9 0 16 #dcdcdc #9c9c9c 0
;
#X obj 1 3 cnv 15 301 42 empty empty slew2 20 20 2 37 #e0e0e0 #000000
0;
#N canvas 0 22 450 278 (subpatch) 0;
#X coords 0 1 100 -1 302 42 1;
#X restore 2 3 graph;
#N canvas 716 92 494 369 example 0;
#X obj 78 236 osc~;
#X obj 78 283 else/out~;
#X text 185 44 <= random numbers generated once a second;
#X text 212 87 <= values rescaled to 200-800 range;
#X obj 78 45 else/stepnoise 1;
#X obj 78 88 else/rescale 200 800;
#X floatatom 78 203 8 0 0 0 - - - 0;
#X text 200 174 <= values are limited \, generating a portamento;
#X msg 103 140 rate \$1;
#X floatatom 103 118 5 0 0 0 - - - 0;
#X text 140 117 <= increasing refresh rate generates steps;
#X obj 78 174 else/slew2 4000 800;
#X connect 0 0 1 0;
#X connect 4 0 5 0;
#X connect 5 0 11 0;
#X connect 6 0 0 0;
#X connect 8 0 11 0;
#X connect 9 0 8 0;
#X connect 11 0 6 0;
#X restore 477 289 pd example;
#X obj 305 4 cnv 15 250 40 empty empty empty 12 13 0 18 #7c7c7c #e0e4dc
0;
#N canvas 382 141 749 319 (subpatch) 0;
#X coords 0 -1 1 1 252 42 2 0 0;
#X restore 304 3 pd;
#X obj 344 11 cnv 10 10 10 empty empty ELSE 0 15 2 30 #7c7c7c #e0e4dc
0;
#X obj 457 11 cnv 10 10 10 empty empty EL 0 6 2 13 #7c7c7c #e0e4dc
0;
#X obj 477 11 cnv 10 10 10 empty empty Locus 0 6 2 13 #7c7c7c #e0e4dc
0;
#X obj 514 11 cnv 10 10 10 empty empty Solus' 0 6 2 13 #7c7c7c #e0e4dc
0;
#X obj 463 26 cnv 10 10 10 empty empty ELSE 0 6 2 13 #7c7c7c #e0e4dc
0;
#X obj 501 26 cnv 10 10 10 empty empty library 0 6 2 13 #7c7c7c #e0e4dc
0;
#X text 26 240 see also:;
#X obj 130 39 cnv 4 4 4 empty empty limiter 0 28 2 18 #e0e0e0 #000000
0;
#X obj 173 292 hsl 128 15 0 1 0 0 empty empty empty -2 -8 0 10 #dcdcdc
#000000 #000000 0 1;
#X floatatom 118 225 6 0 0 0 - - - 0;
#X obj 118 202 else/rand.f 0 1;
#X obj 118 178 bng 17 250 50 0 empty empty empty 17 7 0 10 #dcdcdc
#000000 #000000;
#X text 187 332 float;
#X text 187 383 float;
#X text 187 438 float;
#X obj 4 465 cnv 3 550 3 empty empty flags 8 12 0 13 #dcdcdc #000000
0;
#X text 145 364 rate <float>;
#X text 230 364 - refresh rate in ms, f 46;
#X text 151 348 set <float>;
#X text 230 438 - slew limited values;
#X text 230 332 - values to be slew limited, f 46;
#N canvas 849 83 455 434 rate 0;
#X floatatom 225 300 5 0 0 0 - - - 0;
#X msg 234 252 0;
#X msg 242 274 -1;
#X obj 116 375 hsl 128 15 0 1 0 0 empty empty empty -2 -8 0 10 #dcdcdc
#000000 #000000 0 1;
#X floatatom 113 311 7 0 0 0 - - - 0;
#X obj 113 282 else/rand.f 0 1;
#X obj 113 258 bng 17 250 50 0 empty empty empty 17 7 0 10 #dcdcdc
#000000 #000000;
#X msg 193 224 0.1;
#X text 42 16 When new values come in \, the object limits the change
to a maximum step until it reaches the new value. A speed of "1" means
that it takes one second to move to a difference of 1 in amplitue.
The actual step between subsequent changes depend on this speed and
the refresh rate \, which is the rate that the values are given.,
f 61;
#X msg 47 313 rate \$1;
#X msg 47 213 1;
#X msg 57 236 100;
#X msg 66 260 250;
#X floatatom 47 291 7 0 0 0 - - - 0;
#X text 42 148 You can change the refresh rate with the -rate flag
or the rate message. If you change the rate \, the step limit changes
\, but the speed remains the same., f 61;
#X msg 225 224 0.5;
#X floatatom 338 296 5 0 0 0 - - - 0;
#X msg 347 248 0;
#X msg 355 270 -1;
#X msg 306 220 0.1;
#X msg 338 220 0.5;
#X text 42 92 By default \, the refresh rate is 5 ms \, so we have
200 values in a second. If the speed is then "1" \, this means that
the step value is 1/200 (0.005). So a shift between 0 and 1 takes 200
steps of 0.005 and a second to reach 1!, f 61;
#X obj 113 347 else/slew2 0.1 0.5 -rate 100, f 38;
#X connect 0 0 22 1;
#X connect 1 0 0 0;
#X connect 2 0 0 0;
#X connect 4 0 22 0;
#X connect 5 0 4 0;
#X connect 6 0 5 0;
#X connect 7 0 0 0;
#X connect 9 0 22 0;
#X connect 10 0 13 0;
#X connect 11 0 13 0;
#X connect 12 0 13 0;
#X connect 13 0 9 0;
#X connect 15 0 0 0;
#X connect 16 0 22 2;
#X connect 17 0 16 0;
#X connect 18 0 16 0;
#X connect 19 0 16 0;
#X connect 20 0 16 0;
#X connect 22 0 3 0;
#X restore 495 267 pd rate;
#X msg 181 243 set 0;
#X msg 170 223 set 1;
#X text 230 348 - sets new start point and goes back to target;
#X text 114 474 -rate <float>: sets refresh rate in ms (default 5 \,
minimum 1), f 61;
#X obj 28 264 else/slew;
#X floatatom 323 246 5 0 0 0 - - - 0;
#X msg 332 201 0;
#X msg 340 222 -1;
#X msg 291 174 0.1;
#X text 365 222 <= no limit;
#X text 372 184 per second), f 22;
#X text 354 173 <= speed limit (amplitude;
#X text 359 201 <= 0 speed (stopped);
#X floatatom 246 245 5 0 0 0 - - - 0;
#X msg 255 200 0;
#X msg 263 221 -1;
#X msg 214 173 0.1;
#X msg 246 173 0.5;
#X msg 323 174 0.5;
#X obj 170 265 else/slew2 1 1, f 26;
#X obj 119 404 cnv 17 3 17 empty empty 2 5 9 0 16 #dcdcdc #9c9c9c 0
;
#X text 187 405 float;
#X text 46 86 [slew2] is a slew limiter like [slew] \, but has a different
speed for up and down changes. It takes an amplitude limit per second
and an incoming value to be 'slew limited'. It then generates a line
towards the incoming value. The difference between [slew] and [line]
is that [slew] has a fixed speed \, not a fixed period. A limit of
zero stops the line generation and a negative value turns the limiter
off., f 77;
#X obj 27 286 else/slew2~;
#X text 227 152 up;
#X text 312 153 down;
#X text 230 383 - up speed limit (negative values = no limit);
#X text 230 405 - down speed limit (negative values = no limit);
#X text 165 505 1) float - up slew limit speed (default 0);
#X text 165 520 2) float - down slew limit speed (default 0);
#X connect 23 0 55 0;
#X connect 24 0 23 0;
#X connect 25 0 24 0;
#X connect 36 0 55 0;
#X connect 37 0 55 0;
#X connect 41 0 55 2;
#X connect 42 0 41 0;
#X connect 43 0 41 0;
#X connect 44 0 41 0;
#X connect 49 0 55 1;
#X connect 50 0 49 0;
#X connect 51 0 49 0;
#X connect 52 0 49 0;
#X connect 53 0 49 0;
#X connect 54 0 41 0;
#X connect 55 0 22 0;
