#N canvas 451 23 566 515 10;
#X obj 306 5 cnv 15 250 40 empty empty empty 12 13 0 18 #7c7c7c #e0e4dc
0;
#X obj 345 12 cnv 10 10 10 empty empty ELSE 0 15 2 30 #7c7c7c #e0e4dc
0;
#X obj 23 41 cnv 4 4 4 empty empty Change\\\ bpm\\\ speed\\\ over\\\ amount\\\ of\\\ beats
0 28 2 18 #e0e0e0 #000000 0;
#X obj 458 12 cnv 10 10 10 empty empty EL 0 6 2 13 #7c7c7c #e0e4dc
0;
#X obj 478 12 cnv 10 10 10 empty empty Locus 0 6 2 13 #7c7c7c #e0e4dc
0;
#X obj 515 12 cnv 10 10 10 empty empty Solus' 0 6 2 13 #7c7c7c #e0e4dc
0;
#X obj 464 27 cnv 10 10 10 empty empty ELSE 0 6 2 13 #7c7c7c #e0e4dc
0;
#X obj 502 27 cnv 10 10 10 empty empty library 0 6 2 13 #7c7c7c #e0e4dc
0;
#N canvas 0 22 450 278 (subpatch) 0;
#X coords 0 1 100 -1 252 42 1 0 0;
#X restore 305 4 graph;
#X obj 3 4 cnv 15 301 42 empty empty speed 20 20 2 37 #e0e0e0 #000000
0;
#N canvas 0 22 450 278 (subpatch) 0;
#X coords 0 1 100 -1 302 42 1;
#X restore 2 4 graph;
#X obj 7 486 cnv 15 552 21 empty empty empty 20 12 0 14 #e0e0e0 #202020
0;
#X obj 7 310 cnv 3 550 3 empty empty inlets 8 12 0 13 #dcdcdc #000000
0;
#X obj 7 396 cnv 3 550 3 empty empty outlets 8 12 0 13 #dcdcdc #000000
0;
#X obj 7 452 cnv 3 550 3 empty empty arguments 8 12 0 13 #dcdcdc #000000
0;
#X obj 78 406 cnv 17 3 17 empty empty 0 5 9 0 16 #dcdcdc #9c9c9c 0
;
#X obj 78 318 cnv 17 3 73 empty empty 0 5 9 0 16 #dcdcdc #9c9c9c 0
;
#X obj 190 278 else/display;
#X text 131 318 float -;
#X text 132 407 float -;
#X obj 190 253 else/speed 60;
#X text 180 407 bpm change.;
#X text 137 461 1) float - initial bpm (default 120);
#X floatatom 149 185 5 0 0 0 - - - 0;
#X msg 203 184 60 90 4;
#X text 137 333 list -;
#X text 184 333 two floats set target and amount of beats and three
floats set start \, target and number of beats;
#X text 184 318 sets bpm immediately, f 58;
#X text 101 359 set <list> -;
#X text 184 359 floats/lists precede by 'set' waits for a bang to trigger
, f 58;
#X text 137 375 bang -;
#X text 184 375 triggers the object after a 'set' message, f 58;
#X text 256 184 go from 60 to 90 in 4 beats;
#X text 228 161 go from 60 in 4 beats;
#X msg 190 162 120 4;
#X msg 216 208 set 60 6;
#X text 275 210 set the object;
#X obj 224 230 bng 15 250 50 0 empty empty empty 17 7 0 10 #dfdfdf
#000000 #000000;
#X text 242 230 trigger after 'set' message;
#X text 78 179 float sets immediately, f 10;
#N canvas 878 172 381 390 example 0;
#X msg 128 108 tempo \$1 permin;
#X obj 52 102 tgl 20 0 empty empty empty 17 7 0 10 #dfdfdf #000000
#000000 0 1;
#X obj 52 151 metro 1 60 permin;
#X obj 234 242 display;
#X obj 52 177 bng 17 250 50 0 empty empty empty 17 7 0 10 #dfdfdf #000000
#000000;
#X msg 255 185 set 60 4;
#X msg 246 162 set 90 4;
#X msg 234 141 set 60 90 4;
#X obj 234 213 else/speed 60;
#X obj 52 229 else/impseq~;
#X obj 52 293 else/out~;
#X obj 52 258 else/resonant~ 800 500;
#X text 63 20 In this example we use [speed] to implement accellerando
or ritardando with [metro]. We use the 'set' message to arm the object
and wait for a bang to trigger it., f 43;
#X connect 0 0 2 0;
#X connect 1 0 2 0;
#X connect 2 0 4 0;
#X connect 4 0 9 0;
#X connect 4 0 8 0;
#X connect 5 0 8 0;
#X connect 6 0 8 0;
#X connect 7 0 8 0;
#X connect 8 0 3 0;
#X connect 8 0 0 0;
#X connect 9 0 11 0;
#X connect 11 0 10 0;
#X restore 447 275 pd example;
#X obj 265 278 else/display;
#X obj 78 427 cnv 17 3 17 empty empty 1 5 9 0 16 #dcdcdc #9c9c9c 0
;
#X text 132 428 float -;
#X text 180 428 total time in ms.;
#X text 42 85 [speed] is somewhat related to [line]. You give it a
target bpm value and an amount of time in beats to reach it (speeding
up or down). Then \, the overall tempo in ms is outpu (via the right
outlet) and bpm values are given for each beat until it reaches the
target (left outlet) \, which correctly emulates an accelerando or
ritardando., f 77;
#X connect 20 0 17 0;
#X connect 20 1 41 0;
#X connect 23 0 20 0;
#X connect 24 0 20 0;
#X connect 34 0 20 0;
#X connect 35 0 20 0;
#X connect 37 0 20 0;
