#N canvas 394 35 573 404 10;
#X obj 9 268 cnv 3 550 3 empty empty inlets 8 12 0 13 #dcdcdc #000000
0;
#X obj 7 299 cnv 3 550 3 empty empty outlets 8 12 0 13 #dcdcdc #000000
0;
#X obj 8 332 cnv 3 550 3 empty empty arguments 8 12 0 13 #dcdcdc #000000
0;
#X text 210 310 signal;
#X obj 181 275 cnv 17 3 17 empty empty n 5 9 0 16 #dcdcdc #9c9c9c 0
;
#X text 138 339 1) float;
#X text 138 356 2) float;
#X obj 2 3 cnv 15 301 42 empty empty spread~ 20 20 2 37 #e0e0e0 #000000
0;
#X obj 305 4 cnv 15 250 40 empty empty empty 12 13 0 18 #7c7c7c #e0e4dc
0;
#N canvas 0 22 450 278 (subpatch) 0;
#X coords 0 1 100 -1 302 42 1 0 0;
#X restore 2 3 graph;
#N canvas 382 141 749 319 (subpatch) 0;
#X coords 0 -1 1 1 252 42 2 100 100;
#X restore 304 3 pd;
#X obj 344 11 cnv 10 10 10 empty empty ELSE 0 15 2 30 #7c7c7c #e0e4dc
0;
#X obj 22 40 cnv 4 4 4 empty empty Spread 0 28 2 18 #e0e0e0 #000000
0;
#X obj 83 40 cnv 4 4 4 empty empty inputs 0 28 2 18 #e0e0e0 #000000
0;
#X obj 457 11 cnv 10 10 10 empty empty EL 0 6 2 13 #7c7c7c #e0e4dc
0;
#X obj 477 11 cnv 10 10 10 empty empty Locus 0 6 2 13 #7c7c7c #e0e4dc
0;
#X obj 514 11 cnv 10 10 10 empty empty Solus' 0 6 2 13 #7c7c7c #e0e4dc
0;
#X obj 463 26 cnv 10 10 10 empty empty ELSE 0 6 2 13 #7c7c7c #e0e4dc
0;
#X obj 501 26 cnv 10 10 10 empty empty library 0 6 2 13 #7c7c7c #e0e4dc
0;
#X obj 135 40 cnv 4 4 4 empty empty to 0 28 2 18 #e0e0e0 #000000 0
;
#X obj 8 376 cnv 15 552 21 empty empty empty 20 12 0 14 #e0e0e0 #202020
0;
#X obj 155 140 sig~ 1;
#X obj 231 140 sig~ 2;
#X obj 155 224 else/numbox~ 3 10 100 #c0c0c4 #440008 10 0 0 0;
#X obj 200 224 else/numbox~ 6 10 100 #C0C0C4 #440008 10 0 0 0;
#X obj 266 224 else/numbox~ 6 10 100 #C0C0C4 #440008 10 0 0 0;
#X obj 331 224 else/numbox~ 3 10 100 #c0c0c4 #440008 10 0 0 0;
#X obj 155 176 else/spread~ 3 4, f 28;
#X obj 308 140 sig~ 3;
#X obj 182 307 cnv 17 3 17 empty empty n 5 9 0 16 #dcdcdc #9c9c9c 0
;
#X obj 155 40 cnv 4 4 4 empty empty outputs 0 28 2 18 #e0e0e0 #000000
0;
#X obj 480 71 else/setdsp~;
#N canvas 740 190 538 455 example 0;
#X obj 155 329 else/spread~ 4 2;
#X obj 75 122 else/pulsecount~ 4;
#X obj 75 153 else/match~ 1 2 3 4, f 48;
#X obj 146 249 else/resonant~ 800 200;
#X obj 75 288 else/resonant~ 600 400;
#X obj 217 220 else/resonant~ 900 400;
#X obj 288 191 else/resonant~ 1100 100;
#X text 107 50 It's good to test this example with headphones.;
#X obj 160 367 else/out~;
#X obj 75 93 else/tempo~ -on 160;
#X connect 0 0 8 0;
#X connect 0 1 8 1;
#X connect 1 0 2 0;
#X connect 2 0 4 0;
#X connect 2 1 3 0;
#X connect 2 2 5 0;
#X connect 2 3 6 0;
#X connect 3 0 0 1;
#X connect 4 0 0 0;
#X connect 5 0 0 2;
#X connect 6 0 0 3;
#X connect 9 0 1 0;
#X restore 457 225 pd example;
#X text 210 274 signal;
#X text 262 274 - input channels, f 17;
#X text 262 309 - output channels;
#X text 196 339 - 'n' number of inputs (2 to 512 \, default 2);
#X text 196 356 - 'n' number of outputs (2 to 512 \, default 2);
#X text 64 90 [spread~] spreads any number of input channels across
any number of output channels with equal power panning., f 55;
#X connect 21 0 27 0;
#X connect 22 0 27 1;
#X connect 27 0 23 0;
#X connect 27 1 24 0;
#X connect 27 2 25 0;
#X connect 27 3 26 0;
#X connect 28 0 27 2;
