#N canvas 450 23 561 453 10;
#X obj 4 302 cnv 3 550 3 empty empty inlets 8 12 0 13 #dcdcdc #000000
0;
#X obj 4 337 cnv 3 550 3 empty empty outlets 8 12 0 13 #dcdcdc #000000
0;
#X obj 4 398 cnv 3 550 3 empty empty arguments 8 12 0 13 #dcdcdc #000000
0;
#X obj 4 428 cnv 15 552 21 empty empty empty 20 12 0 14 #e0e0e0 #202020
0;
#X obj 306 4 cnv 15 250 40 empty empty empty 12 13 0 18 #7c7c7c #e0e4dc
0;
#N canvas 382 141 749 319 (subpatch) 0;
#X coords 0 -1 1 1 252 42 2 0 0;
#X restore 305 3 pd;
#X obj 345 11 cnv 10 10 10 empty empty ELSE 0 15 2 30 #7c7c7c #e0e4dc
0;
#X obj 23 40 cnv 4 4 4 empty empty Report 0 28 2 18 #e0e0e0 #000000
0;
#X obj 83 40 cnv 4 4 4 empty empty 0/non-0 0 28 2 18 #e0e0e0 #000000
0;
#X obj 458 11 cnv 10 10 10 empty empty EL 0 6 2 13 #7c7c7c #e0e4dc
0;
#X obj 478 11 cnv 10 10 10 empty empty Locus 0 6 2 13 #7c7c7c #e0e4dc
0;
#X obj 515 11 cnv 10 10 10 empty empty Solus' 0 6 2 13 #7c7c7c #e0e4dc
0;
#X obj 464 26 cnv 10 10 10 empty empty ELSE 0 6 2 13 #7c7c7c #e0e4dc
0;
#X obj 502 26 cnv 10 10 10 empty empty library 0 6 2 13 #7c7c7c #e0e4dc
0;
#X text 150 212 0 to non-0;
#X text 308 212 non-0 to 0;
#X obj 130 313 cnv 17 3 17 empty empty 0 5 9 0 16 #dcdcdc #9c9c9c 0
;
#X obj 129 345 cnv 17 3 17 empty empty 0 5 9 0 16 #dcdcdc #9c9c9c 0
;
#X obj 129 366 cnv 17 3 17 empty empty 1 5 9 0 16 #dcdcdc #9c9c9c 0
;
#X text 198 313 -;
#X text 198 347 -;
#X text 198 366 -;
#X text 153 347 signal;
#X text 153 366 signal;
#X text 213 347 impulse if a zero to non-zero transition is detected
;
#X text 213 366 impulse if a non-zero to zero transition is detected
;
#X text 152 313 signal;
#X text 213 313 signal to detect transitions from;
#X obj 155 40 cnv 4 4 4 empty empty transitions 0 28 2 18 #e0e0e0 #000000
0;
#X obj 3 3 cnv 15 301 42 empty empty status~ 20 20 2 37 #e0e0e0 #000000
0;
#N canvas 0 22 450 278 (subpatch) 0;
#X coords 0 1 100 -1 302 42 1;
#X restore 2 3 graph;
#X obj 221 139 else/randpulse~ 1;
#X obj 221 196 else/status~;
#X text 168 404 1) float - initial status value (default 0);
#X text 61 86 [status~] is a signal version of [status]. It sends an
impulse in the left outlet for "zero to non-zero" transitions and an
impulse in the right outlet for "non-zero to zero" transitions., f
66;
#X text 444 247 see also:;
#X obj 437 269 else/status;
#X obj 214 237 else/out~;
#X obj 221 164 else/numbox~ 6 12 100 #c0c0c4 #440008 10 0 0 0;
#X connect 31 0 38 0;
#X connect 32 0 37 0;
#X connect 32 1 37 1;
#X connect 38 0 32 0;
