#N canvas 423 32 563 410 10;
#X obj 4 238 cnv 3 550 3 empty empty inlets 8 12 0 13 #dcdcdc #000000
0;
#X obj 4 296 cnv 3 550 3 empty empty outlets 8 12 0 13 #dcdcdc #000000
0;
#X obj 4 352 cnv 3 550 3 empty empty arguments 8 12 0 13 #dcdcdc #000000
0;
#X obj 4 383 cnv 15 552 21 empty empty empty 20 12 0 14 #e0e0e0 #202020
0;
#X obj 306 4 cnv 15 250 40 empty empty empty 12 13 0 18 #7c7c7c #e0e4dc
0;
#N canvas 382 141 749 319 (subpatch) 0;
#X coords 0 -1 1 1 252 42 2 0 0;
#X restore 305 3 pd;
#X obj 345 11 cnv 10 10 10 empty empty ELSE 0 15 2 30 #7c7c7c #e0e4dc
0;
#X obj 23 40 cnv 4 4 4 empty empty Report 0 28 2 18 #e0e0e0 #000000
0;
#X obj 83 40 cnv 4 4 4 empty empty 0/non-0 0 28 2 18 #e0e0e0 #000000
0;
#X obj 458 11 cnv 10 10 10 empty empty EL 0 6 2 13 #7c7c7c #e0e4dc
0;
#X obj 478 11 cnv 10 10 10 empty empty Locus 0 6 2 13 #7c7c7c #e0e4dc
0;
#X obj 515 11 cnv 10 10 10 empty empty Solus' 0 6 2 13 #7c7c7c #e0e4dc
0;
#X obj 464 26 cnv 10 10 10 empty empty ELSE 0 6 2 13 #7c7c7c #e0e4dc
0;
#X obj 502 26 cnv 10 10 10 empty empty library 0 6 2 13 #7c7c7c #e0e4dc
0;
#X text 174 203 0 to non-0;
#X text 328 202 non-0 to 0;
#X obj 114 246 cnv 17 3 45 empty empty 0 5 9 0 16 #dcdcdc #9c9c9c 0
;
#X text 198 246 -;
#X obj 155 40 cnv 4 4 4 empty empty transitions 0 28 2 18 #e0e0e0 #000000
0;
#X obj 3 3 cnv 15 301 42 empty empty status 20 20 2 37 #e0e0e0 #000000
0;
#N canvas 0 22 450 278 (subpatch) 0;
#X coords 0 1 100 -1 302 42 1;
#X restore 2 3 graph;
#X text 61 86 [status] sends a bang in the left outlet for "zero to
non-zero" transitions and a bang in the right outlet for "non-zero
to zero" transitions., f 66;
#X obj 245 178 else/status;
#X obj 245 202 bng 16 250 50 0 empty empty empty 17 7 0 10 #dcdcdc
#000000 #000000;
#X obj 245 152 tgl 17 0 empty empty empty 17 7 0 10 #dcdcdc #000000
#000000 0 1;
#X msg 245 130 0;
#X msg 214 130 1;
#X obj 308 202 bng 16 250 50 0 empty empty empty 17 7 0 10 #dcdcdc
#000000 #000000;
#X obj 112 306 cnv 17 3 17 empty empty 0 5 9 0 16 #dcdcdc #9c9c9c 0
;
#X obj 112 327 cnv 17 3 17 empty empty 1 5 9 0 16 #dcdcdc #9c9c9c 0
;
#X text 198 307 -;
#X text 165 307 bang;
#X text 198 327 -;
#X text 165 327 bang;
#X text 213 307 if a zero to non-zero transition is detected, f 47
;
#X text 213 327 if a non-zero to zero transition is detected, f 47
;
#X text 159 246 float;
#X msg 284 152 change;
#X obj 219 155 bng 15 250 50 0 empty empty empty 17 7 0 10 #dcdcdc
#000000 #000000;
#X text 198 261 -;
#X text 213 246 number to check for transitions, f 40;
#X text 165 261 bang;
#X text 213 261 resends bang according to current status;
#X text 198 276 -;
#X text 153 276 change;
#X text 213 276 changes internal status, f 40;
#X text 146 359 1) float - initial status value (default no status)
;
#X text 454 175 see also:;
#X obj 445 197 else/status~;
#X connect 22 0 23 0;
#X connect 22 1 27 0;
#X connect 24 0 22 0;
#X connect 25 0 24 0;
#X connect 26 0 24 0;
#X connect 37 0 22 0;
#X connect 38 0 22 0;
