#N canvas 454 41 560 472 10;
#X obj 23 41 cnv 4 4 4 empty empty Midi 0 28 2 18 #e0e0e0 #000000 0
;
#X obj 65 41 cnv 4 4 4 empty empty aftertouch 0 28 2 18 #e0e0e0 #000000
0;
#X obj 3 4 cnv 15 301 42 empty empty touch.in 20 20 2 37 #e0e0e0 #000000
0;
#N canvas 0 22 450 278 (subpatch) 0;
#X coords 0 1 100 -1 302 42 1 0 0;
#X restore 3 4 graph;
#X obj 2 258 cnv 3 550 3 empty empty inlets 8 12 0 13 #dcdcdc #000000
0;
#X obj 2 315 cnv 3 550 3 empty empty outlets 8 12 0 13 #dcdcdc #000000
0;
#X obj 2 411 cnv 3 550 3 empty empty arguments 8 12 0 13 #dcdcdc #000000
0;
#X obj 155 269 cnv 17 3 17 empty empty 0 5 9 0 16 #dcdcdc #9c9c9c 0
;
#X obj 2 444 cnv 15 552 21 empty empty empty 20 12 0 14 #e0e0e0 #202020
0;
#X text 210 420 -;
#X text 152 420 1) float;
#X text 194 271 float;
#X text 239 271 - raw MIDI data stream;
#X text 240 352 -;
#X text 200 352 float;
#X obj 146 41 cnv 4 4 4 empty empty input 0 28 2 18 #e0e0e0 #000000
0;
#X obj 155 325 cnv 17 3 17 empty empty L 5 9 0 16 #dcdcdc #9c9c9c 0
;
#X text 239 325 -;
#X text 199 325 float;
#X obj 155 349 cnv 17 3 17 empty empty R 5 9 0 16 #dcdcdc #9c9c9c 0
;
#X obj 306 5 cnv 15 250 40 empty empty empty 12 13 0 18 #7c7c7c #e0e4dc
0;
#N canvas 382 141 749 319 (subpatch) 0;
#X coords 0 -1 1 1 252 42 2 100 100;
#X restore 305 4 pd;
#X obj 345 12 cnv 10 10 10 empty empty ELSE 0 15 2 30 #7c7c7c #e0e4dc
0;
#X obj 458 12 cnv 10 10 10 empty empty EL 0 6 2 13 #7c7c7c #e0e4dc
0;
#X obj 478 12 cnv 10 10 10 empty empty Locus 0 6 2 13 #7c7c7c #e0e4dc
0;
#X obj 515 12 cnv 10 10 10 empty empty Solus' 0 6 2 13 #7c7c7c #e0e4dc
0;
#X obj 464 27 cnv 10 10 10 empty empty ELSE 0 6 2 13 #7c7c7c #e0e4dc
0;
#X obj 502 27 cnv 10 10 10 empty empty library 0 6 2 13 #7c7c7c #e0e4dc
0;
#N canvas 792 220 453 261 channel 0;
#X msg 224 141 1;
#X msg 257 141 5;
#X text 287 141 <= channel;
#X msg 206 115 0;
#X text 234 115 <= omni;
#X obj 149 141 midiin;
#X text 19 15 An argument sets the channel number. If so \, only MIDI
messages that correspond to that channel are sent. If no channel is
given \, it loads "0" as the default and the object operates in omni
mode \, where the objects outputs values from all channels and the
channel number is output in the right outlet. You can also change the
channel with the right inlet (0 sets to omni)., f 67;
#X obj 149 179 else/touch.in;
#X obj 224 203 else/display;
#X obj 149 203 else/display;
#X connect 0 0 7 1;
#X connect 1 0 7 1;
#X connect 3 0 7 1;
#X connect 5 0 7 0;
#X connect 7 0 9 0;
#X connect 7 1 8 0;
#X restore 473 196 pd channel;
#X text 224 420 sets channel number (default 0 - OMNI);
#X text 239 294 -;
#X text 199 294 float;
#X text 254 294 MIDI channel, f 31;
#X obj 155 291 cnv 17 3 17 empty empty 1 5 9 0 16 #dcdcdc #9c9c9c 0
;
#X obj 171 146 midiin;
#X text 321 218 MIDI channel;
#X obj 302 214 else/display;
#X obj 227 217 else/display;
#X text 20 194 see also:;
#X msg 227 136 212 \, 100;
#X msg 253 163 215 \, 45;
#X text 284 135 Aftertouch message (raw MIDI data);
#X text 152 221 Aftertouch;
#N canvas 846 321 455 328 poly 0;
#X text 252 201 Pitch;
#X obj 220 198 else/display;
#X obj 165 232 else/display;
#X text 301 173 MIDI channel;
#X obj 276 170 else/display;
#X text 195 236 Aftertouch;
#X text 21 12 With the -poly flag \, the polyphonic aftertouch is retrieved
\, where you get a separate aftertouch values for each pitch \, so
we have an extra outlet., f 67;
#X text 96 273 Polyphonic aftertouch is very rare in today's controllers
\, but it used to be a real thing., f 45;
#X msg 193 116 164 \, 68 \, 88;
#X msg 165 92 170 \, 120 \, 60;
#X text 62 73 Polyphonic Aftertouch (raw MIDI data), f 21;
#X obj 165 147 else/touch.in -poly;
#X connect 8 0 11 0;
#X connect 9 0 11 0;
#X connect 11 0 2 0;
#X connect 11 1 1 0;
#X connect 11 2 4 0;
#X restore 491 219 pd poly;
#X text 255 352 Rightmost outlet is MIDI channel;
#X obj 2 377 cnv 3 550 3 empty empty flags 8 12 0 13 #dcdcdc #000000
0;
#X text 132 386 -poly: -;
#X text 189 386 sets the object to output polyphonic aftertouch, f
48;
#X text 254 326 Leftmost outlet(s): MIDI Aftertouch;
#X text 69 86 [touch.in] extracts MIDI Aftertouch information from
raw MIDI input (such as from [midiin])., f 61;
#X obj 227 192 else/touch.in;
#X obj 22 213 else/touch.out;
#X connect 34 0 50 0;
#X connect 39 0 50 0;
#X connect 40 0 50 0;
#X connect 50 0 37 0;
#X connect 50 1 36 0;
