#N canvas 467 33 562 394 10;
#X obj 5 265 cnv 3 550 3 empty empty inlets 8 12 0 13 #dcdcdc #000000
0;
#X obj 5 299 cnv 3 550 3 empty empty outlets 8 12 0 13 #dcdcdc #000000
0;
#X obj 5 334 cnv 3 550 3 empty empty arguments 8 12 0 13 #dcdcdc #000000
0;
#X obj 118 308 cnv 17 3 17 empty empty 0 5 9 0 16 #dcdcdc #9c9c9c 0
;
#X obj 5 367 cnv 15 552 21 empty empty empty 20 12 0 14 #e0e0e0 #202020
0;
#X obj 26 41 cnv 4 4 4 empty empty Trigger 0 28 2 18 #e0e0e0 #000000
0;
#X obj 118 273 cnv 17 3 17 empty empty 0 5 9 0 16 #dcdcdc #9c9c9c 0
;
#X obj 88 41 cnv 4 4 4 empty empty to 0 28 2 18 #e0e0e0 #000000 0;
#X obj 306 5 cnv 15 250 40 empty empty empty 12 13 0 18 #7c7c7c #e0e4dc
0;
#N canvas 382 141 749 319 (subpatch) 0;
#X coords 0 -1 1 1 252 42 2 100 100;
#X restore 305 4 pd;
#X obj 346 12 cnv 10 10 10 empty empty ELSE 0 15 2 30 #7c7c7c #e0e4dc
0;
#X obj 459 12 cnv 10 10 10 empty empty EL 0 6 2 13 #7c7c7c #e0e4dc
0;
#X obj 479 12 cnv 10 10 10 empty empty Locus 0 6 2 13 #7c7c7c #e0e4dc
0;
#X obj 516 12 cnv 10 10 10 empty empty Solus' 0 6 2 13 #7c7c7c #e0e4dc
0;
#X obj 465 27 cnv 10 10 10 empty empty ELSE 0 6 2 13 #7c7c7c #e0e4dc
0;
#X obj 503 27 cnv 10 10 10 empty empty library 0 6 2 13 #7c7c7c #e0e4dc
0;
#X obj 140 166 else/imp~ 1;
#X obj 140 228 bng 17 250 50 0 empty empty empty 17 7 0 10 #dcdcdc
#000000 #000000;
#N canvas 207 34 366 264 (subpatch) 0;
#X obj 51 101 tgl 42 0 \$0-tgl-s \$0-tgl-r empty 1 8 1 9 #dcdcdc #7c7c7c
#fcfcfc 0 1;
#X obj 215 68 route dsp;
#X obj 215 37 receive pd;
#N canvas 977 77 379 291 set_color 0;
#X obj 47 30 inlet;
#X obj 147 200 s \$0-cnv;
#X obj 47 83 select 0 1;
#X obj 47 220 s \$0-tgl-r;
#N canvas 0 22 712 637 off 0;
#X obj 490 220 * -1;
#X obj 424 300 +;
#X obj 409 325 +;
#X obj 347 219 * -65536;
#X obj 424 220 * -256;
#X obj 409 356 - 1;
#X obj 390 189 unpack f f f;
#X obj 225 295 +;
#X obj 210 320 +;
#X obj 148 214 * -65536;
#X obj 225 215 * -256;
#X obj 291 215 * -1;
#X obj 210 351 - 1;
#X obj 191 184 unpack f f f;
#X obj 379 423 pack;
#X msg 395 152 124 124 124;
#X msg 203 154 220 220 220;
#X obj 238 121 t b b;
#X obj 238 81 inlet;
#X obj 378 485 outlet;
#X connect 0 0 1 1;
#X connect 1 0 2 1;
#X connect 2 0 5 0;
#X connect 3 0 2 0;
#X connect 4 0 1 0;
#X connect 5 0 14 1;
#X connect 6 0 3 0;
#X connect 6 1 4 0;
#X connect 6 2 0 0;
#X connect 7 0 8 1;
#X connect 8 0 12 0;
#X connect 9 0 8 0;
#X connect 10 0 7 0;
#X connect 11 0 7 1;
#X connect 12 0 14 0;
#X connect 13 0 9 0;
#X connect 13 1 10 0;
#X connect 13 2 11 0;
#X connect 14 0 19 0;
#X connect 15 0 6 0;
#X connect 16 0 13 0;
#X connect 17 0 16 0;
#X connect 17 1 15 0;
#X connect 18 0 17 0;
#X restore 47 113 pd off;
#X msg 47 180 color \$1 \$2 0;
#X msg 147 131 -4.86997e+06 -1.34937e+07;
#X msg 147 171 color \$1 0 \$2;
#X connect 0 0 2 0;
#X connect 2 0 4 0;
#X connect 2 1 6 0;
#X connect 4 0 5 0;
#X connect 4 0 7 0;
#X connect 5 0 3 0;
#X connect 6 0 7 0;
#X connect 6 0 5 0;
#X connect 7 0 1 0;
#X restore 215 165 pd set_color;
#X obj 135 122 r \$0-tgl-s;
#N canvas 121 482 450 300 (subpatch) 0;
#X obj 101 101 cnv 25 40 25 empty \$0-cnv DSP 3 13 0 20 #dcdcdc #7c7c7c
0;
#X coords 0 -1 1 1 42 27 1 100 100;
#X restore 51 144 pd;
#X obj 226 139 s \$0-tgl-r;
#X msg 226 115 set \$1;
#X msg 135 177 \; pd dsp \$1;
#N canvas 256 32 278 194 load_check 0;
#X obj 136 53 sig~ 1;
#X obj 74 24 loadbang;
#X obj 136 86 snapshot~;
#X obj 91 52 del 5;
#X obj 136 151 outlet;
#X obj 74 103 tgl 15 0 empty empty empty 17 7 0 10 #fcfcfc #000000
#000000 0 1;
#X obj 74 126 switch~;
#X connect 0 0 2 0;
#X connect 1 0 3 0;
#X connect 1 0 5 0;
#X connect 2 0 4 0;
#X connect 3 0 2 0;
#X connect 3 0 5 0;
#X connect 5 0 6 0;
#X restore 51 72 pd load_check;
#X connect 1 0 3 0;
#X connect 1 0 7 0;
#X connect 2 0 1 0;
#X connect 4 0 8 0;
#X connect 4 0 3 0;
#X connect 7 0 6 0;
#X connect 9 0 0 0;
#X coords 0 -1 1 1 44 72 2 50 100;
#X restore 505 61 pd;
#X text 167 343 (none);
#X text 179 308 bang;
#X text 165 273 signal;
#X obj 140 198 else/trig2bang~;
#X obj 111 41 cnv 4 4 4 empty empty bang 0 28 2 18 #e0e0e0 #000000
0;
#X obj 156 41 cnv 4 4 4 empty empty conversion 0 28 2 18 #e0e0e0 #000000
0;
#X obj 292 226 bng 17 250 50 0 empty empty empty 17 7 0 10 #dcdcdc
#000000 #000000;
#X obj 292 196 else/trig2bang~;
#X obj 292 164 else/pulse~ 1;
#X text 213 308 - when detecting zero to non-zero transitions;
#X text 69 97 [trig2bang~] detects zero to non-zero transitions. This
can be used to detect and convert trigger signals (impulses and gate)
to a bang.;
#X obj 4 4 cnv 15 301 42 empty empty trig2bang~ 20 20 2 37 #e0e0e0
#000000 0;
#N canvas 0 22 450 278 (subpatch) 0;
#X coords 0 1 100 -1 302 42 1 0 0;
#X restore 3 4 graph;
#X text 213 273 - signal to detect triggers;
#X connect 16 0 22 0;
#X connect 22 0 17 0;
#X connect 26 0 25 0;
#X connect 27 0 26 0;
