#N canvas 426 23 564 371 10;
#X obj 4 243 cnv 3 550 3 empty empty inlets 8 12 0 13 #dcdcdc #000000
0;
#X obj 4 277 cnv 3 550 3 empty empty outlets 8 12 0 13 #dcdcdc #000000
0;
#X obj 4 312 cnv 3 550 3 empty empty arguments 8 12 0 13 #dcdcdc #000000
0;
#X obj 117 286 cnv 17 3 17 empty empty 0 5 9 0 16 #dcdcdc #9c9c9c 0
;
#X obj 4 345 cnv 15 552 21 empty empty empty 20 12 0 14 #e0e0e0 #202020
0;
#X obj 25 40 cnv 4 4 4 empty empty Trigger 0 28 2 18 #e0e0e0 #000000
0;
#X obj 117 251 cnv 17 3 17 empty empty 0 5 9 0 16 #dcdcdc #9c9c9c 0
;
#X obj 87 40 cnv 4 4 4 empty empty to 0 28 2 18 #e0e0e0 #000000 0;
#X obj 305 4 cnv 15 250 40 empty empty empty 12 13 0 18 #7c7c7c #e0e4dc
0;
#N canvas 382 141 749 319 (subpatch) 0;
#X coords 0 -1 1 1 252 42 2 100 100;
#X restore 304 3 pd;
#X obj 345 11 cnv 10 10 10 empty empty ELSE 0 15 2 30 #7c7c7c #e0e4dc
0;
#X obj 458 11 cnv 10 10 10 empty empty EL 0 6 2 13 #7c7c7c #e0e4dc
0;
#X obj 478 11 cnv 10 10 10 empty empty Locus 0 6 2 13 #7c7c7c #e0e4dc
0;
#X obj 515 11 cnv 10 10 10 empty empty Solus' 0 6 2 13 #7c7c7c #e0e4dc
0;
#X obj 464 26 cnv 10 10 10 empty empty ELSE 0 6 2 13 #7c7c7c #e0e4dc
0;
#X obj 502 26 cnv 10 10 10 empty empty library 0 6 2 13 #7c7c7c #e0e4dc
0;
#X obj 211 204 bng 17 250 50 0 empty empty empty 17 7 0 10 #dcdcdc
#000000 #000000;
#X text 166 321 (none);
#X text 178 286 bang;
#X obj 110 40 cnv 4 4 4 empty empty bang 0 28 2 18 #e0e0e0 #000000
0;
#X obj 155 40 cnv 4 4 4 empty empty conversion 0 28 2 18 #e0e0e0 #000000
0;
#X text 212 286 - when detecting zero to non-zero transitions;
#X obj 3 3 cnv 15 301 42 empty empty trig2bang 20 20 2 37 #e0e0e0 #000000
0;
#N canvas 0 22 450 278 (subpatch) 0;
#X coords 0 1 100 -1 302 42 1 0 0;
#X restore 2 3 graph;
#X text 212 251 - signal to detect triggers;
#X text 171 251 float;
#X obj 211 174 else/trig2bang;
#X msg 211 146 0;
#X msg 280 146 1;
#X msg 247 146 -1;
#X text 68 96 [trig2bang] detects zero to non-zero transitions. This
can be used to detect and convert triggers (a gate) to a bang.;
#X connect 26 0 16 0;
#X connect 27 0 26 0;
#X connect 28 0 26 0;
#X connect 29 0 26 0;
