#N canvas 531 23 561 609 10;
#X obj 2 3 cnv 15 301 42 empty empty voices 20 20 2 37 #e0e0e0 #000000
0;
#N canvas 0 22 450 278 (subpatch) 0;
#X coords 0 1 100 -1 302 42 1;
#X restore 2 3 graph;
#X obj 306 4 cnv 15 250 40 empty empty empty 12 13 0 18 #7c7c7c #e0e4dc
0;
#X obj 345 11 cnv 10 10 10 empty empty ELSE 0 15 2 30 #7c7c7c #e0e4dc
0;
#X obj 458 11 cnv 10 10 10 empty empty EL 0 6 2 13 #7c7c7c #e0e4dc
0;
#X obj 478 11 cnv 10 10 10 empty empty Locus 0 6 2 13 #7c7c7c #e0e4dc
0;
#X obj 515 11 cnv 10 10 10 empty empty Solus' 0 6 2 13 #7c7c7c #e0e4dc
0;
#X obj 464 26 cnv 10 10 10 empty empty ELSE 0 6 2 13 #7c7c7c #e0e4dc
0;
#X obj 502 26 cnv 10 10 10 empty empty library 0 6 2 13 #7c7c7c #e0e4dc
0;
#N canvas 0 22 450 278 (subpatch) 0;
#X coords 0 1 100 -1 252 42 1;
#X restore 305 3 graph;
#X obj 22 39 cnv 4 4 4 empty empty Polyphonic 0 28 2 18 #e0e0e0 #000000
0;
#X obj 110 39 cnv 4 4 4 empty empty voice 0 28 2 18 #e0e0e0 #000000
0;
#X obj 155 39 cnv 4 4 4 empty empty allocator 0 28 2 18 #e0e0e0 #000000
0;
#X obj 4 581 cnv 15 552 21 empty empty empty 20 12 0 14 #e0e0e0 #202020
0;
#X obj 6 287 cnv 3 550 3 empty empty inlets 8 12 0 13 #dcdcdc #000000
0;
#X obj 4 450 cnv 3 550 3 empty empty outlets 8 12 0 13 #dcdcdc #000000
0;
#X obj 4 482 cnv 3 550 3 empty empty arguments 8 12 0 13 #dcdcdc #000000
0;
#X obj 102 458 cnv 17 3 17 empty empty n 5 9 0 16 #dcdcdc #9c9c9c 0
;
#X obj 103 295 cnv 17 3 110 empty empty 0 5 9 0 16 #dcdcdc #9c9c9c
0;
#X obj 4 524 cnv 3 550 3 empty empty flags 8 12 0 13 #dcdcdc #000000
0;
#X obj 103 409 cnv 17 3 17 empty empty 1 5 9 0 16 #dcdcdc #9c9c9c 0
;
#X text 185 293 list - MIDI note messages (note and velocity pair)
, f 56;
#X text 125 349 retrig <float> - non zero sets to retrigger mode.,
f 66;
#X text 179 363 clear - clears memory without output, f 57;
#X text 179 377 flush - clears memory and output hanging notes, f
57;
#X text 125 335 offset <float> - sets index offset (in the context
of "list" mode), f 66;
#X obj 200 234 else/display;
#X obj 258 234 else/display;
#X obj 317 233 else/display;
#X text 185 458 list - note messages, f 57;
#X text 179 307 float - note pitch values, f 57;
#X text 179 409 float - note velocity values, f 57;
#X text 161 489 1) float - sets number of voices (default 1);
#X text 161 504 2) float - non zero sets voice stealing (default 0)
;
#X obj 200 208 else/voices 2, f 20;
#X text 180 262 voice 1;
#X text 241 262 voice 2;
#N canvas 779 126 443 445 steal 0;
#X obj 151 282 else/display;
#X obj 209 282 else/display;
#X obj 268 281 else/display;
#X obj 151 256 else/voices 2, f 20;
#X text 150 311 voice 1;
#X text 211 311 voice 2;
#X obj 69 187 tgl 15 0 empty empty empty 17 7 0 10 #dcdcdc #000000
#000000 0 127;
#X msg 69 212 steal \$1;
#X text 39 19 In regular mode \, [voices] allocates the given number
of voices and extra voices are sent to its rightmost outlet. After
a voice is allocated \, the object needs to receive a corresponding
note-off message so that voice can be used again.;
#X text 39 84 But you can set the object to "voice stealing" mode with
the second argument or the "steal" message. This mode forces a note
off message on the first allocated voice so the extra incoming voice
"steals" it.;
#X text 269 311 extra;
#X text 44 340 The rightmost outlet can still send messages when in
"voice stealing" mode. This happens when a voice has been stolen but
you haven't sent the object a note off message. Then \, when you eventually
send a note off message \, the object won't find a corresponding note
on message and will output that message as an "extra".;
#X obj 151 160 else/keyboard 25 80 1 4 1 0 empty empty;
#X connect 3 0 0 0;
#X connect 3 1 1 0;
#X connect 3 2 2 0;
#X connect 6 0 7 0;
#X connect 7 0 3 0;
#X connect 12 0 3 0;
#X restore 492 186 pd steal;
#X text 302 262 extra;
#N canvas 667 236 521 308 retrigger 0;
#X text 107 69 - retrig <0>:;
#X text 107 95 - retrig <1>:;
#X text 191 95 retrigger on the same voice allocation, f 43;
#X text 107 110 - retrig <2>:;
#X text 191 110 retrigger on a new voice allocation, f 43;
#X text 191 69 (default) don't retrigger and send repeated notes ons
to "extra" outlet, f 43;
#X text 23 23 [voices] has 3 different retrigger modes \, which are
ways of handling repeated note on messages. In this context \, a repeated
note on is a note that hasn't had a note off message to free its voice
allocation. The modes are:, f 77;
#N canvas 767 131 463 458 retrig_0 0;
#X obj 130 353 else/display;
#X obj 185 353 else/display;
#X obj 241 353 else/display;
#X obj 130 124 else/keyboard 17 80 1 4 0 0 empty empty;
#X obj 265 183 tgl 17 0 empty empty empty 17 7 0 10 #dcdcdc #000000
#000000 0 2;
#X text 290 182 sustain;
#X obj 130 247 pack float float;
#X obj 130 217 else/suspedal -retrig 3;
#X obj 265 156 loadbang;
#X obj 130 280 else/display;
#X text 123 385 voice 1;
#X text 177 385 voice 2;
#X text 239 386 extra;
#X obj 130 323 else/voices 2, f 19;
#X text 39 32 The first example below is the default behaviour (retrig
0). For that \, we use [suspedal] in retrig mode 3 \, which sends note
off for all repeated note ons when the sustain is switched off. This
setting allows you to route repeated notes to a different patch. Test
with [keyboard] by pressing the same note., f 63;
#X connect 3 0 7 0;
#X connect 4 0 7 2;
#X connect 6 0 9 0;
#X connect 7 0 6 0;
#X connect 7 1 6 1;
#X connect 8 0 4 0;
#X connect 9 0 13 0;
#X connect 13 0 0 0;
#X connect 13 1 1 0;
#X connect 13 2 2 0;
#X restore 229 194 pd retrig_0;
#X text 32 149 See examples in the subpatches below:;
#N canvas 616 116 479 392 retrig_1 0;
#X obj 147 98 else/keyboard 17 80 1 4 0 0 empty empty;
#X obj 282 157 tgl 17 0 empty empty empty 17 7 0 10 #dcdcdc #000000
#000000 0 2;
#X text 307 156 sustain;
#X obj 147 315 else/display;
#X obj 214 315 else/display;
#X obj 282 315 else/display;
#X obj 147 247 else/display;
#X obj 147 221 pack float float;
#X obj 282 130 loadbang;
#X obj 147 191 else/suspedal -retrig 1;
#X text 28 22 For mode "1" \, we use [suspedal] also in retrigger mode
1 \, because [voices] sends repeated note on messages to the same output
and when the sustain pedal is switched off \, a single note off message
will be sent to free this allocated voice., f 70;
#X text 145 341 voice 1;
#X text 211 341 voice 2;
#X text 285 342 extra;
#X obj 147 285 else/voices -retrig 1 2;
#X connect 0 0 9 0;
#X connect 1 0 9 2;
#X connect 6 0 14 0;
#X connect 7 0 6 0;
#X connect 8 0 1 0;
#X connect 9 0 7 0;
#X connect 9 1 7 1;
#X connect 14 0 3 0;
#X connect 14 1 4 0;
#X connect 14 2 5 0;
#X restore 229 225 pd retrig_1;
#N canvas 755 189 509 397 retrig_2 0;
#X obj 174 99 else/keyboard 17 80 1 4 0 0 empty empty;
#X obj 309 158 tgl 17 0 empty empty empty 17 7 0 10 #dcdcdc #000000
#000000 0 2;
#X text 334 157 sustain;
#X obj 174 316 else/display;
#X obj 247 316 else/display;
#X obj 321 316 else/display;
#X obj 174 248 else/display;
#X obj 174 222 pack float float;
#X obj 309 131 loadbang;
#X text 172 342 voice 1;
#X text 244 342 voice 2;
#X text 324 343 extra;
#X obj 174 192 else/suspedal -retrig 3;
#X text 20 23 For mode "2" \, we use [suspedal] in retrigger mode 3
This example also uses "voice stealing". Now \, each repeated note
alternates between the allocated voices. When the sustain pedal is
switched off \, note off messages for all note ons are given., f 70
;
#X obj 174 286 else/voices -retrig 2 2 1;
#X connect 0 0 12 0;
#X connect 1 0 12 2;
#X connect 6 0 14 0;
#X connect 7 0 6 0;
#X connect 8 0 1 0;
#X connect 12 0 7 0;
#X connect 12 1 7 1;
#X connect 14 0 3 0;
#X connect 14 1 4 0;
#X connect 14 2 5 0;
#X restore 229 256 pd retrig_2;
#X restore 468 207 pd retrigger;
#N canvas 886 147 480 352 release 0;
#X obj 92 273 else/display;
#X obj 151 273 else/display;
#X obj 92 130 else/keyboard 17 80 1 4 0 0 empty empty;
#X obj 210 273 else/display;
#X obj 269 273 else/display;
#X obj 329 273 else/display;
#X obj 258 160 tgl 17 0 empty empty empty 17 7 0 10 #dcdcdc #000000
#000000 0 1000;
#X obj 258 188 nbx 4 14 -1e+37 1e+37 0 0 empty empty empty 0 -8 0 10
#dcdcdc #000000 #000000 0 256;
#X msg 258 210 rel \$1;
#X obj 329 206 nbx 4 14 -1e+37 1e+37 0 0 empty empty empty 0 -8 0 10
#dcdcdc #000000 #000000 0 256;
#X text 41 23 You can set a release time to prevent a note off from
freeing a voice allocation (and keep it allocated for that period of
time after a note off is sent)., f 65;
#X text 41 65 This is useful if you want to wait for a release envelope
to finish before using that voice allocation for a new note. Set the
release time in ms with the '-rel' flag \, 'rel' message or right inlet.
, f 65;
#X obj 92 246 else/voices -rel 1000 4, f 40;
#X connect 2 0 12 0;
#X connect 6 0 7 0;
#X connect 7 0 8 0;
#X connect 8 0 12 0;
#X connect 9 0 12 2;
#X connect 12 0 0 0;
#X connect 12 1 1 0;
#X connect 12 2 3 0;
#X connect 12 3 4 0;
#X connect 12 4 5 0;
#X restore 480 228 pd release;
#N canvas 590 63 627 508 list 0;
#X obj 142 319 else/display;
#X msg 99 202 60 \$1;
#X obj 99 170 tgl 15 0 empty empty empty 17 7 0 10 #dcdcdc #000000
#000000 0 127;
#X obj 142 244 else/display;
#X obj 142 170 tgl 15 0 empty empty empty 17 7 0 10 #dcdcdc #000000
#000000 0 127;
#X obj 186 170 tgl 15 0 empty empty empty 17 7 0 10 #dcdcdc #000000
#000000 0 127;
#X obj 232 170 tgl 15 0 empty empty empty 17 7 0 10 #dcdcdc #000000
#000000 0 127;
#X msg 142 202 61 \$1;
#X msg 186 202 62 \$1;
#X msg 232 202 63 \$1;
#X obj 353 316 else/display;
#X obj 488 216 tgl 17 0 empty empty empty 17 7 0 10 #dcdcdc #000000
#000000 0 1;
#X obj 353 144 else/keyboard 17 80 1 3 0 0 empty empty;
#X obj 353 245 else/suspedal -retrig 3;
#X text 344 341 voices;
#X obj 548 316 else/display;
#X text 539 341 extra;
#X msg 51 250 offset \$1;
#X obj 51 227 nbx 3 14 -1e+37 1e+37 0 0 empty empty empty 0 -8 0 10
#dcdcdc #000000 #000000 0 256;
#N canvas 719 64 505 333 clone_example 0;
#X obj 40 77 else/keyboard 17 80 2 4 0 0 empty empty;
#X text 211 175 In this subpatch we have [voices] feeding [clone] \,
which loads 4 instances of a patch named "voice.pd"., f 43;
#X text 211 267 check clone's help file and lick on in to open the
patch., f 43;
#N canvas 470 55 378 320 random 0;
#X obj 86 246 pack f f;
#X obj 86 283 outlet;
#X obj 50 19 inlet;
#X obj 50 44 expr random(60 \, 72) \; random(90 \, 127) \; random(750
\, 1250);
#X obj 86 221 makenote;
#X obj 183 116 expr $f1 + random(2 \, 5);
#X obj 199 140 expr $f1 + random(2 \, 5);
#X obj 217 164 expr $f1 + random(2 \, 5);
#X connect 0 0 1 0;
#X connect 2 0 3 0;
#X connect 3 0 4 0;
#X connect 3 0 5 0;
#X connect 3 1 4 1;
#X connect 3 2 4 2;
#X connect 4 0 0 0;
#X connect 4 1 0 1;
#X connect 5 0 6 0;
#X connect 5 0 4 0;
#X connect 6 0 7 0;
#X connect 6 0 4 0;
#X connect 7 0 4 0;
#X restore 40 49 pd random chords;
#X obj 40 19 bng 18 250 50 0 empty empty empty 17 7 0 10 #dcdcdc #000000
#000000;
#X text 211 215 According to the voice index (the first element in
the list sent by [voices]) \, the MIDI note messages are routed to
different instances of "voice.pd"., f 43;
#X obj 40 211 clone 4 voice 4;
#X obj 41 248 else/out~;
#X obj 40 182 else/voices -list 4 1;
#X connect 0 0 8 0;
#X connect 3 0 0 0;
#X connect 4 0 3 0;
#X connect 6 0 7 0;
#X connect 6 1 7 1;
#X connect 8 0 6 0;
#X restore 364 428 pd clone_example;
#X msg 206 265 voices \$1;
#X msg 206 239 2;
#X msg 246 239 4;
#X text 87 27 You can set [voices] to operate in "list mode" with the
-list flag. This mode makes it more like [poly] \, where it outputs
a list with voice index \, pitch and velocity. You can also change
the number of voices in this mode \, which causes the object to flush
and clear its memory., f 72;
#X obj 253 317 else/display;
#X text 84 407 This mode is particularly useful for using with [clone]
to implement polyphonic synths \, check the subpatch ==========================>
, f 46;
#X obj 142 291 else/voices -list 4;
#X obj 353 289 else/voices -retrig 2 -list 1 4 1;
#X text 87 81 The index offset is 0 by default and you can set a different
one with the "offset" message (only possible in the context of "list
mode")., f 72;
#X connect 1 0 3 0;
#X connect 2 0 1 0;
#X connect 3 0 26 0;
#X connect 4 0 7 0;
#X connect 5 0 8 0;
#X connect 6 0 9 0;
#X connect 7 0 3 0;
#X connect 8 0 3 0;
#X connect 9 0 3 0;
#X connect 11 0 13 2;
#X connect 12 0 13 0;
#X connect 13 0 27 0;
#X connect 13 1 27 1;
#X connect 17 0 26 0;
#X connect 18 0 17 0;
#X connect 20 0 26 0;
#X connect 21 0 20 0;
#X connect 22 0 20 0;
#X connect 26 0 0 0;
#X connect 26 1 24 0;
#X connect 27 0 10 0;
#X connect 27 1 15 0;
#X restore 497 250 pd list;
#X text 174 546 -retrig: sets to retrigger mode <0 \, 1 or 2> (default
0);
#X obj 138 151 notein;
#X obj 138 175 pack;
#X text 143 531 -rel <float>: sets release time in ms (default 0);
#X text 143 321 rel <float> - sets a release time in ms, f 63;
#X text 125 391 voices <float> - sets number of voices (in list mode
only), f 66;
#X text 46 223 see also:;
#X obj 47 246 else/mono;
#X obj 200 136 else/keyboard 22 60 1 4 1 0 empty empty;
#X obj 103 430 cnv 17 3 17 empty empty 2 5 9 0 16 #dcdcdc #9c9c9c 0
;
#X text 179 430 float - release time in ms, f 57;
#X text 43 84 [voices] is used to implement polyphonic synths. It's
like Pd Vanilla's [poly] object \, but with more functionalities. By
default \, it routes the voices to different outlets \, but it also
has a list mode similar to [poly]., f 75;
#X text 137 564 -list <float>: sets to list mode, f 61;
#X connect 34 0 26 0;
#X connect 34 1 27 0;
#X connect 34 2 28 0;
#X connect 43 0 44 0;
#X connect 43 1 44 1;
#X connect 44 0 34 0;
#X connect 50 0 34 0;
