#N canvas 531 23 560 624 10;
#X obj 306 4 cnv 15 250 40 empty empty empty 12 13 0 18 #7c7c7c #e0e4dc
0;
#N canvas 382 141 749 319 (subpatch) 0;
#X coords 0 -1 1 1 252 42 2 0 0;
#X restore 305 3 pd;
#X obj 345 11 cnv 10 10 10 empty empty ELSE 0 15 2 30 #7c7c7c #e0e4dc
0;
#X obj 458 11 cnv 10 10 10 empty empty EL 0 6 2 13 #7c7c7c #e0e4dc
0;
#X obj 478 11 cnv 10 10 10 empty empty Locus 0 6 2 13 #7c7c7c #e0e4dc
0;
#X obj 515 11 cnv 10 10 10 empty empty Solus' 0 6 2 13 #7c7c7c #e0e4dc
0;
#X obj 464 26 cnv 10 10 10 empty empty ELSE 0 6 2 13 #7c7c7c #e0e4dc
0;
#X obj 502 26 cnv 10 10 10 empty empty library 0 6 2 13 #7c7c7c #e0e4dc
0;
#X obj 77 40 cnv 4 4 4 empty empty modulation 0 28 2 18 #e0e0e0 #000000
0;
#X obj 3 287 cnv 3 550 3 empty empty inlets 8 12 0 13 #dcdcdc #000000
0;
#X obj 3 418 cnv 3 550 3 empty empty outlets 8 12 0 13 #dcdcdc #000000
0;
#X obj 3 505 cnv 3 550 3 empty empty arguments 8 12 0 13 #dcdcdc #000000
0;
#X obj 122 427 cnv 17 3 17 empty empty 0 5 9 0 16 #dcdcdc #9c9c9c 0
;
#X obj 122 295 cnv 17 3 52 empty empty 0 5 9 0 16 #dcdcdc #9c9c9c 0
;
#X obj 3 596 cnv 15 552 21 empty empty empty 20 12 0 14 #e0e0e0 #202020
0;
#X text 165 296 float/signal -;
#X obj 122 373 cnv 17 3 17 empty empty 2 5 9 0 16 #dcdcdc #9c9c9c 0
;
#X text 165 374 float/signal -;
#X obj 122 395 cnv 17 3 17 empty empty 3 5 9 0 16 #dcdcdc #9c9c9c 0
;
#X text 200 427 signal -;
#X text 154 514 1) float;
#X obj 145 150 nbx 5 14 -1e+37 1e+37 0 0 empty empty empty 0 -8 0 10
#dcdcdc #000000 #000000 0 256;
#N canvas 207 34 366 264 (subpatch) 0;
#X obj 51 101 tgl 42 0 \$0-tgl-s \$0-tgl-r empty 1 8 1 9 #dcdcdc #7c7c7c
#fcfcfc 0 1;
#X obj 215 68 route dsp;
#X obj 215 37 receive pd;
#N canvas 977 77 379 291 set_color 0;
#X obj 47 30 inlet;
#X obj 147 200 s \$0-cnv;
#X obj 47 83 select 0 1;
#X obj 47 220 s \$0-tgl-r;
#N canvas 0 22 712 637 off 0;
#X obj 490 220 * -1;
#X obj 424 300 +;
#X obj 409 325 +;
#X obj 347 219 * -65536;
#X obj 424 220 * -256;
#X obj 409 356 - 1;
#X obj 390 189 unpack f f f;
#X obj 225 295 +;
#X obj 210 320 +;
#X obj 148 214 * -65536;
#X obj 225 215 * -256;
#X obj 291 215 * -1;
#X obj 210 351 - 1;
#X obj 191 184 unpack f f f;
#X obj 379 423 pack;
#X msg 395 152 124 124 124;
#X msg 203 154 220 220 220;
#X obj 238 121 t b b;
#X obj 238 81 inlet;
#X obj 378 485 outlet;
#X connect 0 0 1 1;
#X connect 1 0 2 1;
#X connect 2 0 5 0;
#X connect 3 0 2 0;
#X connect 4 0 1 0;
#X connect 5 0 14 1;
#X connect 6 0 3 0;
#X connect 6 1 4 0;
#X connect 6 2 0 0;
#X connect 7 0 8 1;
#X connect 8 0 12 0;
#X connect 9 0 8 0;
#X connect 10 0 7 0;
#X connect 11 0 7 1;
#X connect 12 0 14 0;
#X connect 13 0 9 0;
#X connect 13 1 10 0;
#X connect 13 2 11 0;
#X connect 14 0 19 0;
#X connect 15 0 6 0;
#X connect 16 0 13 0;
#X connect 17 0 16 0;
#X connect 17 1 15 0;
#X connect 18 0 17 0;
#X restore 47 113 pd off;
#X msg 47 180 color \$1 \$2 0;
#X msg 147 131 -4.86997e+06 -1.34937e+07;
#X msg 147 171 color \$1 0 \$2;
#X connect 0 0 2 0;
#X connect 2 0 4 0;
#X connect 2 1 6 0;
#X connect 4 0 5 0;
#X connect 4 0 7 0;
#X connect 5 0 3 0;
#X connect 6 0 7 0;
#X connect 6 0 5 0;
#X connect 7 0 1 0;
#X restore 215 165 pd set_color;
#X obj 135 122 r \$0-tgl-s;
#N canvas 121 482 450 300 (subpatch) 0;
#X obj 101 101 cnv 25 40 25 empty \$0-cnv DSP 3 13 0 20 #dcdcdc #7c7c7c
0;
#X coords 0 -1 1 1 42 27 1 100 100;
#X restore 51 144 pd;
#X obj 226 139 s \$0-tgl-r;
#X msg 226 115 set \$1;
#X msg 135 177 \; pd dsp \$1;
#N canvas 256 32 278 194 load_check 0;
#X obj 136 53 sig~ 1;
#X obj 74 24 loadbang;
#X obj 136 86 snapshot~;
#X obj 91 52 del 5;
#X obj 136 151 outlet;
#X obj 74 103 tgl 15 0 empty empty empty 17 7 0 10 #fcfcfc #000000
#000000 0 1;
#X obj 74 126 switch~;
#X connect 0 0 2 0;
#X connect 1 0 3 0;
#X connect 1 0 5 0;
#X connect 2 0 4 0;
#X connect 3 0 2 0;
#X connect 3 0 5 0;
#X connect 5 0 6 0;
#X restore 51 72 pd load_check;
#X connect 1 0 3 0;
#X connect 1 0 7 0;
#X connect 2 0 1 0;
#X connect 4 0 8 0;
#X connect 4 0 3 0;
#X connect 7 0 6 0;
#X connect 9 0 0 0;
#X coords 0 -1 1 1 44 72 2 50 100;
#X restore 505 71 pd;
#X obj 3 3 cnv 15 301 42 empty empty xmod~ 20 20 2 37 #e0e0e0 #000000
0;
#N canvas 0 22 450 278 (subpatch) 0;
#X coords 0 1 100 -1 302 42 1;
#X restore 2 3 graph;
#X text 154 533 2) float;
#X obj 25 40 cnv 4 4 4 empty empty Cross 0 28 2 18 #e0e0e0 #000000
0;
#X obj 122 352 cnv 17 3 17 empty empty 1 5 9 0 16 #dcdcdc #9c9c9c 0
;
#X text 165 353 float/signal -;
#X text 154 553 3) float;
#X text 154 573 4) float;
#X obj 207 150 nbx 5 14 -1e+37 1e+37 0 0 empty empty empty 0 -8 0 10
#dcdcdc #000000 #000000 0 256;
#X obj 266 150 nbx 5 14 -1e+37 1e+37 0 0 empty empty empty 0 -8 0 10
#dcdcdc #000000 #000000 0 256;
#X obj 324 150 nbx 5 14 -1e+37 1e+37 0 0 empty empty empty 0 -8 0 10
#dcdcdc #000000 #000000 0 256;
#X obj 122 447 cnv 17 3 17 empty empty 1 5 9 0 16 #dcdcdc #9c9c9c 0
;
#X text 200 447 signal -;
#X text 165 396 float/signal -;
#X text 262 354 modulation index 1;
#X text 262 396 modulation index 2;
#X text 261 297 frequency of oscillator 1;
#X text 261 374 frequency of oscillator 2;
#X text 261 427 output of oscillator 1;
#X text 261 447 output of oscillator 2;
#X text 213 514 - frequency of oscillator 1 in hertz (default 0);
#X text 213 553 - frequency of oscillator 2 in hertz (default 0);
#X text 213 533 - modulation index 1 (default 0);
#X text 213 573 - modulation index 2 (default 0);
#X text 150 131 freq1;
#X text 208 130 index1;
#X text 271 130 freq2;
#X text 328 130 index2;
#N canvas 768 65 533 627 details 0;
#X obj 141 110 hsl 128 15 1 1000 1 0 empty index1 empty -2 -8 0 10
#dcdcdc #000000 #000000 0 1;
#X obj 138 137 nbx 5 14 -1e+37 1e+37 0 0 empty empty empty 0 -8 0 10
#dcdcdc #000000 #000000 0 256;
#X obj 73 136 nbx 5 14 -1e+37 1e+37 0 0 empty freq1 empty 0 -8 0 10
#dcdcdc #000000 #000000 0 256;
#X obj 352 111 hsl 128 15 1 1000 1 0 empty index2 empty -2 -8 0 10
#b8b8b8 #000000 #000000 0 1;
#X obj 349 138 nbx 5 14 -1e+37 1e+37 0 0 empty empty empty 0 -8 0 10
#b8b8b8 #000000 #000000 0 256;
#X obj 282 137 nbx 5 14 -1e+37 1e+37 0 0 empty freq2 empty 0 -8 0 10
#b8b8b8 #000000 #000000 0 256;
#X text 379 110 index 2;
#X text 169 109 index 1;
#X text 81 117 Freq 1;
#X text 290 118 Freq 2;
#X text 122 28 You can find the details on how [xmod~] is implemented
in with the subpatches below \, compare., f 32;
#N canvas 951 255 553 491 Cross_Phase_Modulation 0;
#X obj 298 57 inlet~;
#X obj 377 57 inlet~;
#X obj 44 56 inlet~;
#X obj 113 56 inlet~;
#X obj 298 434 outlet~;
#X obj 425 247 block~ 1;
#X obj 98 240 *~;
#X obj 362 343 *~;
#X obj 352 366 cnv 15 150 40 empty empty empty 20 12 0 14 #e0e0e0 #404040
0;
#X obj 362 380 delwrite~ \$0-pm_fb 1;
#X obj 132 104 cnv 15 150 40 empty empty empty 20 12 0 14 #e0e0e0 #404040
0;
#X obj 144 113 delread~ \$0-pm_fb 0;
#X text 166 85 feedback;
#X obj 44 424 outlet~;
#X obj 44 178 else/sine~;
#X obj 298 299 else/sine~;
#X text 111 35 index 1;
#X text 373 31 index 2;
#X text 301 32 freq 2;
#X text 45 35 freq 1;
#X connect 0 0 15 0;
#X connect 1 0 7 1;
#X connect 2 0 14 0;
#X connect 3 0 6 1;
#X connect 6 0 15 2;
#X connect 7 0 9 0;
#X connect 11 0 14 2;
#X connect 14 0 6 0;
#X connect 14 0 13 0;
#X connect 15 0 7 0;
#X connect 15 0 4 0;
#X restore 72 467 pd Cross_Phase_Modulation;
#X obj 140 361 hsl 128 15 0.01 1 1 0 empty index1 empty -2 -8 0 10
#dcdcdc #000000 #000000 0 1;
#X obj 137 388 nbx 5 14 -1e+37 1e+37 0 0 empty empty empty 0 -8 0 10
#dcdcdc #000000 #000000 0 256;
#X obj 72 387 nbx 5 14 -1e+37 1e+37 0 0 empty freq1 empty 0 -8 0 10
#dcdcdc #000000 #000000 0 256;
#X obj 351 362 hsl 128 15 0.01 1 1 0 empty index2 empty -2 -8 0 10
#b8b8b8 #000000 #000000 0 1;
#X obj 348 389 nbx 5 14 -1e+37 1e+37 0 0 empty empty empty 0 -8 0 10
#b8b8b8 #000000 #000000 0 256;
#X obj 281 388 nbx 5 14 -1e+37 1e+37 0 0 empty freq2 empty 0 -8 0 10
#b8b8b8 #000000 #000000 0 256;
#X text 378 361 index 2;
#X text 168 360 index 1;
#X text 80 368 Freq 1;
#X text 289 369 Freq 2;
#N canvas 1033 154 475 470 Cross_Freq_Modulation 0;
#X obj 275 47 inlet~;
#X obj 339 47 inlet~;
#X obj 41 46 inlet~;
#X obj 110 46 inlet~;
#X obj 260 424 outlet~;
#X obj 370 227 block~ 1;
#X obj 95 230 *~;
#X obj 324 333 *~;
#X obj 125 95 cnv 15 130 30 empty empty empty 20 12 0 14 #e0e0e0 #404040
0;
#X text 140 75 feedback;
#X obj 41 414 outlet~;
#X obj 41 168 else/sine~;
#X obj 260 289 else/sine~;
#X text 108 25 index 1;
#X text 335 21 index 2;
#X text 278 22 freq 2;
#X text 42 25 freq 1;
#X obj 131 103 delread~ \$0-fm_fb 0;
#X obj 260 262 +~;
#X obj 41 139 +~;
#X obj 316 363 cnv 15 140 30 empty empty empty 20 12 0 14 #e0e0e0 #404040
0;
#X obj 324 370 delwrite~ \$0-fm_fb 1;
#X connect 0 0 18 1;
#X connect 1 0 7 1;
#X connect 2 0 19 0;
#X connect 3 0 6 1;
#X connect 6 0 18 0;
#X connect 7 0 21 0;
#X connect 11 0 6 0;
#X connect 11 0 10 0;
#X connect 12 0 7 0;
#X connect 12 0 4 0;
#X connect 17 0 19 1;
#X connect 18 0 12 0;
#X connect 19 0 11 0;
#X restore 73 216 pd Cross_Freq_Modulation;
#X obj 264 468 else/xmod~ -pm;
#X obj 244 217 else/xmod~;
#X obj 103 508 else/out~;
#X obj 263 508 else/out~;
#X obj 235 257 else/out~;
#X obj 100 258 else/out~;
#X connect 0 0 1 0;
#X connect 1 0 22 1;
#X connect 1 0 24 1;
#X connect 2 0 22 0;
#X connect 2 0 24 0;
#X connect 3 0 4 0;
#X connect 4 0 22 3;
#X connect 4 0 24 3;
#X connect 5 0 22 2;
#X connect 5 0 24 2;
#X connect 11 0 25 0;
#X connect 11 1 25 1;
#X connect 12 0 13 0;
#X connect 13 0 11 1;
#X connect 13 0 23 1;
#X connect 14 0 11 0;
#X connect 14 0 23 0;
#X connect 15 0 16 0;
#X connect 16 0 11 3;
#X connect 16 0 23 3;
#X connect 17 0 11 2;
#X connect 17 0 23 2;
#X connect 22 0 28 0;
#X connect 22 1 28 1;
#X connect 23 0 26 0;
#X connect 23 1 26 1;
#X connect 24 0 27 0;
#X connect 24 1 27 1;
#X restore 480 253 pd details;
#X obj 3 472 cnv 3 550 3 empty empty flags 8 12 0 13 #dcdcdc #000000
0;
#X text 225 316 pm -;
#X text 261 317 sets to phase modulation;
#X text 225 333 fm -;
#X text 261 334 sets to frequency modulation;
#X text 101 483 -pm: sets to phase modulation (default is frequency
modulation), f 63;
#X text 60 86 [xmod~] performs cross modulation of two sine oscillators.
It can perform either frequency (default) or phase modulation., f
61;
#X obj 160 182 else/xmod~ 150 400 305 350;
#X obj 196 218 else/out~;
#X connect 21 0 59 0;
#X connect 31 0 59 1;
#X connect 32 0 59 2;
#X connect 33 0 59 3;
#X connect 59 0 60 0;
#X connect 59 1 60 1;
