#N canvas 487 40 561 515 10;
#X obj 4 303 cnv 3 550 3 empty empty inlets 8 12 0 13 #dcdcdc #000000
0;
#X obj 4 375 cnv 3 550 3 empty empty outlets 8 12 0 13 #dcdcdc #000000
0;
#X obj 4 428 cnv 3 550 3 empty empty arguments 8 12 0 13 #dcdcdc #000000
0;
#X obj 4 487 cnv 15 552 21 empty empty empty 20 12 0 14 #e0e0e0 #202020
0;
#X obj 97 384 cnv 17 3 17 empty empty 0 5 9 0 16 #dcdcdc #9c9c9c 0
;
#X obj 97 352 cnv 17 3 17 empty empty n 5 9 0 16 #dcdcdc #9c9c9c 0
;
#X text 147 351 signal;
#X text 147 384 signal;
#X obj 200 231 else/out~;
#X obj 2 3 cnv 15 301 42 empty empty xselect~ 20 20 2 37 #e0e0e0 #000000
0;
#N canvas 0 22 450 278 (subpatch) 0;
#X coords 0 1 100 -1 302 42 1;
#X restore 2 3 graph;
#X obj 23 40 cnv 4 4 4 empty empty Select 0 28 2 18 #e0e0e0 #000000
0;
#X obj 123 40 cnv 4 4 4 empty empty with 0 28 2 18 #e0e0e0 #000000
0;
#X obj 76 40 cnv 4 4 4 empty empty input 0 28 2 18 #e0e0e0 #000000
0;
#X obj 167 40 cnv 4 4 4 empty empty crossfade 0 28 2 18 #e0e0e0 #000000
0;
#X obj 200 114 vradio 15 1 0 3 empty empty empty 0 -8 0 10 #dcdcdc
#000000 #000000 0;
#X obj 97 311 cnv 17 3 33 empty empty 0 5 9 0 16 #dcdcdc #9c9c9c 0
;
#X text 153 311 float;
#X floatatom 200 169 3 0 0 0 - - - 0;
#X text 220 113 0: none;
#X msg 139 168 time \$1;
#X text 118 141 ms;
#X text 111 329 time <float>;
#X text 189 329 - crossfade time in ms;
#X obj 139 142 nbx 4 14 -1e+37 1e+37 0 0 empty empty empty 0 -8 0 10
#dcdcdc #000000 #000000 0 256;
#X text 78 164 crossfade duration, f 9;
#X text 189 384 - selected inlet/channel;
#X text 136 451 2) float - crossfade time in ms (default 0 - no crossfade)
;
#X text 136 467 3) float - initially selected channel (default 0: none)
;
#X obj 306 4 cnv 15 250 40 empty empty empty 12 13 0 18 #7c7c7c #e0e4dc
0;
#N canvas 382 141 749 319 (subpatch) 0;
#X coords 0 -1 1 1 252 42 2 0 0;
#X restore 305 3 pd;
#X obj 345 11 cnv 10 10 10 empty empty ELSE 0 15 2 30 #7c7c7c #e0e4dc
0;
#X obj 458 11 cnv 10 10 10 empty empty EL 0 6 2 13 #7c7c7c #e0e4dc
0;
#X obj 478 11 cnv 10 10 10 empty empty Locus 0 6 2 13 #7c7c7c #e0e4dc
0;
#X obj 515 11 cnv 10 10 10 empty empty Solus' 0 6 2 13 #7c7c7c #e0e4dc
0;
#X obj 464 26 cnv 10 10 10 empty empty ELSE 0 6 2 13 #7c7c7c #e0e4dc
0;
#X obj 502 26 cnv 10 10 10 empty empty library 0 6 2 13 #7c7c7c #e0e4dc
0;
#X text 61 86 [xselect~] selects between multiple inputs with equal
power crossfading.;
#X text 189 311 - selected input (0 is none);
#X text 220 129 1: input 1;
#X text 220 144 2: input 2;
#X text 189 351 - inputs to select from;
#X obj 97 406 cnv 17 3 17 empty empty 1 5 9 0 16 #dcdcdc #9c9c9c 0
;
#X text 160 406 list;
#X obj 200 200 else/xselect~ 2 1000 1;
#X text 136 434 1) float - number of inputs (default 1 \, max 512)
;
#N canvas 603 150 633 378 status 0;
#X obj 182 261 else/out~;
#X obj 182 44 vradio 15 1 0 3 empty empty empty 0 -8 0 10 #dcdcdc #000000
#000000 0;
#X floatatom 182 99 3 0 2 0 - - - 0;
#X text 202 43 0: none;
#X msg 97 131 time \$1;
#X text 76 104 ms;
#X obj 97 105 nbx 4 14 -1e+37 1e+37 0 0 empty empty empty 0 -8 0 10
#dcdcdc #000000 #000000 0 256;
#X text 36 127 crossfade duration, f 9;
#X text 202 59 1: input 1;
#X text 202 74 2: input 2;
#X obj 299 260 else/display;
#X text 379 216 you can use status to feed [switch~] objects, f 18
;
#X obj 299 315 s \$0-status;
#X text 373 203 <= open and see how;
#X obj 182 129 s \$0-input;
#X obj 182 165 r \$0-input;
#N canvas 285 106 496 331 input-1 0;
#X obj 118 226 outlet~;
#X obj 279 110 r \$0-status;
#X obj 279 131 route 1;
#X obj 279 191 switch~;
#X obj 233 86 r \$0-input;
#X obj 233 110 sel 1;
#X msg 233 131 1;
#X obj 279 166 tgl 15 0 empty empty empty 17 7 0 10 #fcfcfc #000000
#000000 0 1;
#X obj 118 123 osc~ 330;
#X connect 1 0 2 0;
#X connect 2 0 7 0;
#X connect 4 0 5 0;
#X connect 5 0 6 0;
#X connect 6 0 7 0;
#X connect 7 0 3 0;
#X connect 8 0 0 0;
#X restore 205 203 pd input-1;
#N canvas 285 106 496 331 input-2 0;
#X obj 118 226 outlet~;
#X obj 279 110 r \$0-status;
#X obj 279 191 switch~;
#X obj 233 86 r \$0-input;
#X msg 233 131 1;
#X obj 279 166 tgl 15 0 empty empty empty 17 7 0 10 #fcfcfc #000000
#000000 0 1;
#X obj 233 110 sel 2;
#X obj 279 131 route 2;
#X obj 118 123 osc~ 370;
#X connect 1 0 7 0;
#X connect 3 0 6 0;
#X connect 4 0 5 0;
#X connect 5 0 2 0;
#X connect 6 0 4 0;
#X connect 7 0 5 0;
#X connect 8 0 0 0;
#X restore 299 205 pd input-2;
#X obj 182 230 else/xselect~ 2 20, f 20;
#X text 296 71 You can use the off status report from the right outlet
to turn a subpatch off. But in order to turn it on you need to use
the float input. Open the subpatches below to see how this works.,
f 43;
#X obj 307 291 print off-status;
#X connect 1 0 2 0;
#X connect 2 0 14 0;
#X connect 4 0 18 0;
#X connect 6 0 4 0;
#X connect 10 0 12 0;
#X connect 10 0 20 0;
#X connect 15 0 18 0;
#X connect 16 0 18 0;
#X connect 17 0 18 1;
#X connect 18 0 0 0;
#X connect 18 1 10 0;
#X restore 472 260 pd status \; switch;
#X text 189 406 - reports input number and off status;
#X obj 242 173 osc~ 330;
#X obj 329 174 osc~ 440;
#X connect 15 0 18 0;
#X connect 18 0 44 0;
#X connect 20 0 44 0;
#X connect 24 0 20 0;
#X connect 44 0 8 0;
#X connect 48 0 44 0;
#X connect 49 0 44 1;
