#N canvas 507 58 561 333 10;
#X obj 4 163 cnv 3 550 3 empty empty inlets 8 12 0 13 #dcdcdc #000000
0;
#X obj 4 240 cnv 3 550 3 empty empty outlets 8 12 0 13 #dcdcdc #000000
0;
#X obj 4 273 cnv 3 550 3 empty empty arguments 8 12 0 13 #dcdcdc #000000
0;
#X obj 5 303 cnv 15 552 21 empty empty empty 20 12 0 14 #e0e0e0 #202020
0;
#X obj 92 171 cnv 17 3 40 empty empty 0 5 9 0 16 #dcdcdc #9c9c9c 0
;
#X obj 149 40 cnv 4 4 4 empty empty plot 0 28 2 18 #e0e0e0 #000000
0;
#X obj 85 40 cnv 4 4 4 empty empty Biquad 0 28 2 18 #e0e0e0 #000000
0;
#X obj 2 3 cnv 15 301 42 empty empty zbiplot 20 20 2 37 #e0e0e0 #000000
0;
#N canvas 0 22 450 278 (subpatch) 0;
#X coords 0 1 100 -1 302 42 1;
#X restore 2 3 graph;
#X text 197 171 - list of coefficients as taken by [biquad~];
#N canvas 680 83 565 632 example 0;
#X obj 127 35 nbx 5 14 0.01 1 1 0 empty empty empty 0 -8 0 10 #dcdcdc
#000000 #000000 0 256;
#X obj 201 36 nbx 5 14 -24 24 0 0 empty empty empty 0 -8 0 10 #dcdcdc
#000000 #000000 0 256;
#X obj 54 36 nbx 5 14 20 20000 1 0 empty empty empty 0 -8 0 10 #dcdcdc
#000000 #000000 0 256;
#X text 65 19 Freq;
#X text 133 18 Q;
#X obj 27 36 bng 15 250 50 0 empty empty empty 17 7 0 10 #dcdcdc #000000
#000000;
#X text 209 16 gain;
#X obj 54 70 else/bicoeff2 eq 500 10 24;
#X obj 54 131 else/zbiplot;
#X obj 399 31 nbx 5 14 0.01 1 1 0 empty empty empty 0 -8 0 10 #dcdcdc
#000000 #000000 0 256;
#X obj 491 32 nbx 5 14 -24 24 0 0 empty empty empty 0 -8 0 10 #dcdcdc
#000000 #000000 0 256;
#X obj 308 32 nbx 5 14 20 20000 1 0 empty empty empty 0 -8 0 10 #dcdcdc
#000000 #000000 0 256;
#X text 319 15 Freq;
#X obj 281 32 bng 15 250 50 0 empty empty empty 17 7 0 10 #dcdcdc #000000
#000000;
#X text 499 12 gain;
#X obj 308 87 else/coeff2pz;
#X obj 308 65 else/bicoeff2 lowshelf 500 10 24;
#X text 405 14 Slope;
#X obj 54 96 else/insert coeff;
#X connect 0 0 7 1;
#X connect 1 0 7 2;
#X connect 2 0 7 0;
#X connect 5 0 7 0;
#X connect 7 0 18 0;
#X connect 9 0 16 1;
#X connect 10 0 16 2;
#X connect 11 0 16 0;
#X connect 13 0 16 0;
#X connect 15 0 8 0;
#X connect 15 1 8 1;
#X connect 16 0 15 0;
#X connect 18 0 8 0;
#X restore 165 131 pd example;
#X text 236 132 <= click to open and check;
#X text 231 282 (none);
#X obj 305 4 cnv 15 250 40 empty empty empty 12 13 0 18 #7c7c7c #e0e4dc
0;
#X obj 344 11 cnv 10 10 10 empty empty ELSE 0 15 2 30 #7c7c7c #e0e4dc
0;
#X obj 457 11 cnv 10 10 10 empty empty EL 0 6 2 13 #7c7c7c #e0e4dc
0;
#X obj 477 11 cnv 10 10 10 empty empty Locus 0 6 2 13 #7c7c7c #e0e4dc
0;
#X obj 514 11 cnv 10 10 10 empty empty Solus' 0 6 2 13 #7c7c7c #e0e4dc
0;
#X obj 463 26 cnv 10 10 10 empty empty ELSE 0 6 2 13 #7c7c7c #e0e4dc
0;
#X obj 501 26 cnv 10 10 10 empty empty library 0 6 2 13 #7c7c7c #e0e4dc
0;
#N canvas 0 22 450 278 (subpatch) 0;
#X coords 0 1 100 -1 252 42 1 0 0;
#X restore 304 3 graph;
#X obj 18 40 cnv 4 4 4 empty empty Z-plane 0 28 2 18 #e0e0e0 #000000
0;
#X text 76 87 [zbiplot] plots the biquad coefficients as poles and
zeros on the Z-Plane., f 52;
#X obj 92 216 cnv 17 3 17 empty empty 1 5 9 0 16 #dcdcdc #9c9c9c 0
;
#X text 165 216 list;
#X text 165 191 list;
#X text 197 191 - list of poles coordinates;
#X text 197 216 - list of zeros coordinates;
#X text 231 251 (none);
#X text 117 171 coeff <list>;
