#N canvas 411 54 899 636 12;
#X declare -path else;
#N canvas 9 255 1099 569 (subpatch) 0;
#N canvas 649 293 231 309 freq-response 0;
#N canvas 324 327 712 441 init 0;
#X obj 148 54 loadbang;
#X obj 149 305 s \$0-dbrange;
#X obj 333 129 samplerate~;
#X obj 333 152 v sr_\$0;
#X msg 186 241 400;
#X obj 496 189 table re1_\$0 400;
#X obj 496 209 table im1_\$0 400;
#X obj 496 229 table re2_\$0 400;
#X obj 496 249 table im2_\$0 400;
#N canvas 699 151 382 450 get-complex-freqs 0;
#X msg 232 232 resize \$1;
#X obj 281 276 s re1_\$0;
#X obj 267 301 s im1_\$0;
#X obj 256 332 s re2_\$0;
#X obj 247 362 s im2_\$0;
#X obj 12 299 tabwrite re1_\$0;
#X obj 108 394 tabwrite im2_\$0;
#X obj 232 393 s amp_\$0;
#X obj 50 80 change;
#X obj 251 171 v table_size_\$0;
#X obj 50 113 trigger bang float;
#X obj 232 206 change 400;
#X obj 50 43 inlet;
#X obj 76 363 tabwrite re2_\$0;
#X obj 43 335 tabwrite im1_\$0;
#X obj 50 182 expr cos($f1) \; sin($f1) \; cos($f1 * 2) \; sin($f1
* 2) \; $f2;
#N canvas 11 46 935 668 loop 0;
#X obj 106 192 until;
#X obj 144 241 + 1;
#X msg 124 216 0;
#X obj 106 95 t f f;
#X obj 483 216 until;
#X obj 529 265 + 1;
#X msg 501 241 0;
#X obj 106 270 t f f;
#X obj 211 355 +;
#X obj 106 370 mtof;
#X obj 106 144 t f b f;
#X obj 483 191 t f b f;
#X obj 483 326 /;
#X obj 106 31 inlet;
#X obj 106 574 outlet;
#X obj 259 583 outlet;
#X obj 483 144 expr table_size_\$0 - $f1;
#X obj 483 265 f;
#X obj 483 379 expr pow($f1 \, 0.4);
#X obj 106 241 f;
#X obj 483 296 trigger f f;
#X obj 106 63 expr rint(table_size_\$0 * 0.98);
#X obj 483 407 * 20.6017;
#X text 556 407 MIDI 16;
#X obj 483 498 expr $f1 * (2 * -pi_\$0) / 44100;
#X obj 106 465 expr $f1 * (2 * -pi_\$0) / 44100;
#X obj 86 33 bng 15 250 50 0 empty empty empty 17 7 0 10 -262144 -1
-1;
#X obj 106 298 expr (($f1 + 1) * (midi_range_\$0 / $f2)) + 16;
#X connect 0 0 19 0;
#X connect 1 0 19 1;
#X connect 2 0 19 1;
#X connect 3 0 10 0;
#X connect 3 1 16 0;
#X connect 4 0 17 0;
#X connect 5 0 17 1;
#X connect 6 0 17 1;
#X connect 7 0 27 0;
#X connect 7 1 8 0;
#X connect 8 0 15 0;
#X connect 9 0 25 0;
#X connect 10 0 0 0;
#X connect 10 1 2 0;
#X connect 10 2 27 1;
#X connect 11 0 4 0;
#X connect 11 1 6 0;
#X connect 11 2 12 1;
#X connect 12 0 18 0;
#X connect 13 0 21 0;
#X connect 16 0 8 1;
#X connect 16 0 11 0;
#X connect 17 0 5 0;
#X connect 17 0 20 0;
#X connect 18 0 22 0;
#X connect 19 0 1 0;
#X connect 19 0 7 0;
#X connect 20 0 12 0;
#X connect 20 1 15 0;
#X connect 21 0 3 0;
#X connect 22 0 24 0;
#X connect 24 0 14 0;
#X connect 25 0 14 0;
#X connect 26 0 21 0;
#X connect 27 0 9 0;
#X restore 50 143 pd loop;
#X connect 0 0 1 0;
#X connect 0 0 2 0;
#X connect 0 0 3 0;
#X connect 0 0 4 0;
#X connect 0 0 7 0;
#X connect 8 0 10 0;
#X connect 10 0 16 0;
#X connect 10 1 9 0;
#X connect 10 1 11 0;
#X connect 11 0 0 0;
#X connect 12 0 8 0;
#X connect 15 0 5 0;
#X connect 15 1 14 0;
#X connect 15 2 13 0;
#X connect 15 3 6 0;
#X connect 15 4 5 1;
#X connect 15 4 14 1;
#X connect 15 4 13 1;
#X connect 15 4 6 1;
#X connect 16 0 15 0;
#X connect 16 1 15 1;
#X restore 186 269 pd get-complex-freqs;
#X text 216 241 array size;
#X obj 148 90 trigger b b b;
#X msg 149 272 24;
#X obj 324 231 v midi_range_\$0;
#X obj 324 205 ftom;
#X msg 324 179 8750.55;
#X obj 316 262 expr atan(1) * 4;
#X obj 317 293 v pi_\$0;
#X obj 436 86 s \$0-gain;
#X msg 436 63 0.35;
#X obj 41 381 s \$0-Q-set;
#X obj 79 350 s \$0-freq-set;
#X msg 80 325 500;
#X msg 44 352 5;
#X msg 116 302 12;
#X obj 116 327 s \$0-gain-set;
#X connect 0 0 11 0;
#X connect 2 0 3 0;
#X connect 4 0 9 0;
#X connect 11 0 23 0;
#X connect 11 0 22 0;
#X connect 11 0 24 0;
#X connect 11 1 4 0;
#X connect 11 1 12 0;
#X connect 11 2 2 0;
#X connect 11 2 15 0;
#X connect 11 2 16 0;
#X connect 11 2 19 0;
#X connect 12 0 1 0;
#X connect 14 0 13 0;
#X connect 15 0 14 0;
#X connect 16 0 17 0;
#X connect 19 0 18 0;
#X connect 22 0 21 0;
#X connect 23 0 20 0;
#X connect 24 0 25 0;
#X restore 125 107 pd init \; tables;
#N canvas 67 23 1040 236 Z-Transform 0;
#X obj 45 19 inlet;
#X obj 45 200 outlet;
#X obj 45 164 expr sqrt($f1*$f1 + $f2*$f2) / sqrt($f3*$f3 + $f4*$f4)
;
#X text 340 44 (a1) a2 (b1) b2 b3;
#X obj 45 74 expr $f4 + ($f5 * re1_\$0[$f1]) + ($f6 * re2_\$0[$f1])
\; ($f5 * im1_\$0[$f1]) + ($f6 * im2_\$0[$f1]) \; 1 - ($f2 * re1_\$0[$f1])
- ($f3 * re2_\$0[$f1]) \; 0 - ($f2 * im1_\$0[$f1]) - ($f3 * im2_\$0[$f1])
;
#X text 428 75 b1 + (b2 * re1) + (b3 * re2) = reI;
#X text 463 90 (b2 * im1) + (b3 * im2) = imI;
#X text 435 105 1 - (a1 * re1) + (a2 * re2) = reII;
#X text 435 119 0 - (a1 * im1) + (a2 * im2) = imII;
#X text 20 144 reI;
#X text 143 143 imI;
#X text 256 143 reII;
#X text 384 142 imII;
#X text 439 166 ampI / ampII;
#X obj 211 45 unpack f f f f f;
#X obj 211 18 inlet;
#X text 92 20 index;
#X text 260 18 coefficientes;
#X obj 698 68 cnv 15 320 90 empty empty empty 20 12 0 14 -233017 -66577
0;
#X text 728 97 H(z) = b1 + (b2 * z^-1) + (b3 * z^-2);
#X text 768 103 _________________________________;
#X text 785 119 1 + (a1 * z^-1) + (a2 * z^-2);
#X text 711 75 Z-Transform:;
#X connect 0 0 4 0;
#X connect 2 0 1 0;
#X connect 4 0 2 0;
#X connect 4 1 2 1;
#X connect 4 2 2 2;
#X connect 4 3 2 3;
#X connect 14 0 4 1;
#X connect 14 1 4 2;
#X connect 14 2 4 3;
#X connect 14 3 4 4;
#X connect 14 4 4 5;
#X connect 15 0 14 0;
#X restore 27 196 pd Z-Transform;
#X obj 27 169 trigger float float;
#X obj 27 97 t bang list;
#N canvas 0 22 181 220 loop 0;
#X obj 28 100 until;
#X obj 68 138 + 1;
#X msg 72 100 0;
#X obj 28 137 f;
#X obj 28 13 inlet;
#X obj 28 173 outlet;
#X obj 28 42 trigger b b;
#X obj 28 71 v table_size_\$0;
#X connect 0 0 3 0;
#X connect 1 0 3 1;
#X connect 2 0 3 1;
#X connect 3 0 1 0;
#X connect 3 0 5 0;
#X connect 4 0 6 0;
#X connect 6 0 7 0;
#X connect 6 1 2 0;
#X connect 7 0 0 0;
#X restore 27 131 pd loop;
#N canvas 121 22 226 277 db-range 0;
#X obj 42 31 inlet;
#X obj 42 61 rmstodb;
#X obj 42 90 - 100;
#X obj 98 61 r \$0-dbrange;
#X obj 108 109 * -1;
#X obj 41 147 clip;
#X obj 80 183 /;
#X obj 80 216 outlet;
#X connect 0 0 1 0;
#X connect 1 0 2 0;
#X connect 2 0 5 0;
#X connect 3 0 4 0;
#X connect 3 0 5 2;
#X connect 3 0 6 1;
#X connect 4 0 5 1;
#X connect 5 0 6 0;
#X connect 6 0 7 0;
#X restore 27 226 pd db-range;
#X obj 34 256 tabwrite \$0-response;
#X obj 93 30 r \$0-Q;
#X obj 27 29 r \$0-freq;
#X obj 27 77 changed;
#X obj 27 56 bicoeff2 eq 500 5 12;
#X obj 145 33 r \$0-gain;
#X connect 1 0 5 0;
#X connect 2 0 1 0;
#X connect 2 1 6 1;
#X connect 3 0 4 0;
#X connect 3 1 1 1;
#X connect 4 0 2 0;
#X connect 5 0 6 0;
#X connect 7 0 10 1;
#X connect 8 0 10 0;
#X connect 9 0 3 0;
#X connect 10 0 9 0;
#X connect 11 0 10 2;
#X restore 114 66 pd freq-response;
#X obj 101 100 cnv 15 848 400 empty empty empty 18 9 1 16 -262144 -1
0;
#X obj 434 109 cnv 15 15 15 empty empty Kilohertz 18 9 1 16 -262144
-1 0;
#X obj 108 148 cnv 15 798 85 empty empty empty 20 12 0 14 -257983 -66577
0;
#X obj 108 232 cnv 15 798 85 empty empty empty 20 12 0 14 -241340 -66577
0;
#X obj 108 318 cnv 15 798 85 empty empty empty 20 12 0 14 -257983 -66577
0;
#X obj 108 403 cnv 15 798 85 empty empty empty 20 12 0 14 -241340 -66577
0;
#N canvas 0 22 450 278 (subpatch) 0;
#X coords 0 1 100 -1 77 170 1;
#X restore 226 148 graph;
#N canvas 0 22 450 278 (subpatch) 0;
#X coords 0 1 100 -1 80 170 1;
#X restore 303 148 graph;
#N canvas 0 22 450 278 (subpatch) 0;
#X coords 0 1 100 -1 102 170 1;
#X restore 383 148 graph;
#N canvas 0 22 450 278 (subpatch) 0;
#X coords 0 1 100 -1 78 170 1;
#X restore 485 148 graph;
#N canvas 0 22 450 278 (subpatch) 0;
#X coords 0 1 100 -1 78 170 1;
#X restore 563 148 graph;
#N canvas 0 22 450 278 (subpatch) 0;
#X coords 0 1 100 -1 103 170 1;
#X restore 641 148 graph;
#N canvas 0 22 450 278 (subpatch) 0;
#X coords 0 1 100 -1 78 170 1;
#X restore 744 148 graph;
#N canvas 0 22 450 278 (subpatch) 0;
#X coords 0 1 100 -1 78 170 1;
#X restore 822 148 graph;
#N canvas 0 22 450 278 (subpatch) 0;
#X coords 0 1 100 -1 100 170 1;
#X restore 126 148 graph;
#N canvas 0 22 450 278 (subpatch) 0;
#X coords 0 1 100 -1 77 170 1;
#X restore 226 318 graph;
#N canvas 0 22 450 278 (subpatch) 0;
#X coords 0 1 100 -1 80 170 1;
#X restore 303 318 graph;
#N canvas 0 22 450 278 (subpatch) 0;
#X coords 0 1 100 -1 102 170 1;
#X restore 383 318 graph;
#N canvas 0 22 450 278 (subpatch) 0;
#X coords 0 1 100 -1 78 170 1;
#X restore 485 318 graph;
#N canvas 0 22 450 278 (subpatch) 0;
#X coords 0 1 100 -1 78 170 1;
#X restore 563 318 graph;
#N canvas 0 22 450 278 (subpatch) 0;
#X coords 0 1 100 -1 103 170 1;
#X restore 641 318 graph;
#N canvas 0 22 450 278 (subpatch) 0;
#X coords 0 1 100 -1 78 170 1;
#X restore 744 318 graph;
#N canvas 0 22 450 278 (subpatch) 0;
#X coords 0 1 100 -1 78 170 1;
#X restore 822 318 graph;
#N canvas 0 22 450 278 (subpatch) 0;
#X coords 0 1 100 -1 800 170 1;
#X restore 107 148 graph;
#X text 814 130 10;
#X text 891 131 20;
#X text 739 130 5;
#X text 636 130 2;
#X text 558 131 1;
#X text 472 131 0.5;
#X text 370 131 0.2;
#X text 290 131 0.1;
#X text 213 131 0.05;
#X text 113 131 0.02;
#N canvas 391 118 975 563 (subpatch) 0;
#X array \$0-response 400 float 0;
#X coords 0 1 399 -1 800 340 1;
#X restore 107 148 graph;
#N canvas 0 22 450 278 (subpatch) 0;
#X coords 0 1 100 -1 100 170 1;
#X restore 126 318 graph;
#N canvas 0 22 450 278 (subpatch) 0;
#X coords 0 1 100 -1 800 170 1;
#X restore 107 318 graph;
#X obj 103 132 cnv 15 810 15 empty empty empty 18 9 1 16 -262144 -1
0;
#X text 911 478 -24;
#X obj 907 309 cnv 15 15 15 empty empty dB 18 9 1 17 -262144 -1 0;
#X text 911 393 -12;
#X text 911 223 12;
#X text 910 140 24;
#X text 912 309 0;
#N canvas 0 22 450 300 (subpatch) 0;
#X coords 0 1 100 -1 850 402 1;
#X restore 100 100 graph;
#N canvas 0 22 450 278 (subpatch) 0;
#X coords 0 1 100 -1 800 170 1;
#X restore 107 232 graph;
#X text 815 128 10;
#X text 892 129 20;
#X text 740 128 5;
#X text 637 128 2;
#X text 559 129 1;
#X text 474 129 0.5;
#X text 372 129 0.2;
#X text 292 129 0.1;
#X text 215 129 0.05;
#X text 115 129 0.02;
#X coords 0 -1 1 1 850 402 1 100 100;
#X restore 21 222 pd;
#X obj 530 24 hsl 140 17 20 20000 1 0 empty \$0-freq-set empty 5 9
0 10 -228856 -1 -1 6477 0;
#X obj 557 74 hsl 128 17 0.1 10 1 0 empty \$0-Q-set empty 5 9 0 10
-228856 -1 -1 10788 0;
#X obj 554 96 nbx 8 14 -1e+37 1e+37 0 0 \$0-Q empty empty 0 -8 0 10
-228856 -1 -1 5 256;
#X obj 527 52 nbx 5 14 -1e+37 1e+37 0 0 \$0-freq empty empty 0 -8 0
10 -228856 -1 -1 500 256;
#X obj 456 62 noise~;
#X text 538 24 Resonant Frequency;
#X text 583 75 Q/Resonance;
#X obj 500 121 eq~ 500 5 12;
#X obj 651 105 hsl 128 17 -24 24 0 0 empty \$0-gain-set empty 5 9 0
10 -228856 -1 -1 9525 0;
#X obj 648 127 nbx 8 14 -1e+37 1e+37 0 0 \$0-gain empty empty 0 -8
0 10 -228856 -1 -1 12 256;
#X text 690 108 Gain;
#X text 37 74 The [eq~] object from ELSE is sort of an "equalizer".
It can boost or attenuate a given frequency with a gain parameter.
The resonance/Q parameter sets the bandwidth. When filtering out frequencies
with high attenuations \, this type of filter also behaves like a bandreject/notch.
Check its help file for more details., f 54;
#X obj 733 26 declare -path else;
#X obj 500 155 out~;
#X connect 1 0 4 0;
#X connect 2 0 3 0;
#X connect 3 0 8 2;
#X connect 4 0 8 1;
#X connect 5 0 8 0;
#X connect 8 0 14 0;
#X connect 9 0 10 0;
#X connect 10 0 8 3;
