#N canvas 454 51 529 668 12;
#X declare -path else;
#X obj 352 209 status~;
#X obj 40 239 toggleff~;
#X obj 352 171 pulse~ 1;
#X obj 266 238 trig2bang~;
#X obj 352 236 trig2bang~;
#X obj 398 267 trig2bang~;
#X obj 40 196 impulse~ 1;
#X obj 124 239 timed.gate~ 500;
#X text 40 174 impulse to pulse:;
#X text 286 147 pulse to impulse:;
#X obj 266 208 gate2imp~;
#X obj 337 23 declare -path else;
#X obj 89 462 bng 19 250 50 0 empty empty empty 17 7 0 10 #dcdcdc #000000 #000000;
#X obj 89 497 timed.gate 500;
#X obj 227 497 trig2bang;
#X obj 227 471 nbx 3 14 -1e+37 1e+37 0 0 empty empty empty 0 -8 0 10 #dcdcdc #000000 #000000 0 256;
#X obj 227 531 bng 18 250 50 0 empty empty empty 17 7 0 10 #dcdcdc #000000 #000000;
#X obj 89 527 display;
#X obj 340 479 impseq~;
#X obj 340 448 bng 18 250 50 0 empty empty empty 17 7 0 10 #dcdcdc #000000 #000000;
#X obj 340 515 out~;
#X text 65 593 the [impseq~] object is actually an impulse sequencer with many features as we'll see later \, but it can be used to convert a bang to an impulse., f 53;
#X obj 40 268 numbox~ 6 12 100 #C0C0C4 #440008 10 0 0 0;
#X obj 124 267 numbox~ 6 12 100 #C0C0C4 #440008 10 0 0 0;
#X obj 398 297 bng 19 250 50 0 empty empty empty 17 7 0 10 #dcdcdc #000000 #000000;
#X obj 266 268 bng 19 250 50 0 empty empty empty 17 7 0 10 #dcdcdc #000000 #000000;
#X obj 352 268 bng 19 250 50 0 empty empty empty 17 7 0 10 #dcdcdc #000000 #000000;
#X text 34 337 The [toggleff~] changes its state from an impulse input. The [timed.gate~] object sends a timed gate specified by its argument (500 ms in the example above)., f 64;
#X obj 443 206 trig2bang~;
#X obj 443 236 bng 19 250 50 0 empty empty empty 17 7 0 10 #dcdcdc #000000 #000000;
#X text 26 60 Other objects from the ELSE library convert pulses (or gates) into impulses and vice versa. The [status~] object sends an impulse when the gate is on to the left outlet and another impulse to the right outlet when the gate is off. The [gate2imp~] simply converts a pulse to an impulse. The [trig2bang~] object converts impulses or pulses to a bang. See below., f 66;
#X text 34 398 There are also the control version [timed.gate] and [trig2bang]., f 64;
#X connect 0 0 4 0;
#X connect 0 1 5 0;
#X connect 1 0 22 0;
#X connect 2 0 0 0;
#X connect 2 0 10 0;
#X connect 2 0 28 0;
#X connect 3 0 25 0;
#X connect 4 0 26 0;
#X connect 5 0 24 0;
#X connect 6 0 1 0;
#X connect 6 0 7 0;
#X connect 7 0 23 0;
#X connect 10 0 3 0;
#X connect 12 0 13 0;
#X connect 13 0 17 0;
#X connect 14 0 16 0;
#X connect 15 0 14 0;
#X connect 18 0 20 0;
#X connect 19 0 18 0;
#X connect 28 0 29 0;
