#N canvas 376 23 814 680 12;
#X declare -path else;
#X obj 615 33 declare -path else;
#X obj 44 156 out~;
#X obj 57 122 zerocross~;
#X obj 57 90 rampnoise~ 10;
#X obj 58 393 stepnoise~ 5;
#X obj 58 427 changed~ 0.3;
#X obj 58 462 out~;
#X text 187 417 [changed~] outputs an impulse when the signal above a given difference threshold (0 by default)., f 25;
#X obj 51 270 status~;
#X obj 48 311 out~;
#X obj 51 233 randpulse~ 1;
#X text 177 94 [zerocross~] outputs impulses when a signal crosses from negative to positive (left outlet) or positive to negative (mid outlet). Right outlet outputs both transitions., f 26;
#X obj 62 609 out~;
#X text 198 554 [changed2~] sends an impulse whenever an input value changes its direction., f 20;
#X obj 62 574 changed2~;
#X obj 62 540 rampnoise~ 5;
#X obj 462 109 above~ 0.1;
#X obj 462 77 randpulse~ 1;
#X obj 450 145 out~;
#X text 569 85 [above~] sends an impulse when a signal raises above a given threshold (left outlet) and an impulse when it falls back (right outlet)., f 29;
#X obj 450 237 rampnoise~ 5;
#X obj 450 271 schmitt~ -0.5 0.5;
#X text 597 221 [schmitt~] is a Schmitt trigger. When the input is greater than or equal to the high threshold level \, the output is 1 and becomes 0 when the signal is equal to or less than the reset level (low threshold)., f 26;
#X text 179 237 [status~] sends an impulse in the left outlet for "zero to non-zero" transitions and an impulse in the right outlet for "non-zero to zero" transitions. This can be used as in the last example to convert gate to impulses., f 28;
#X obj 471 440 out~;
#X obj 471 399 match~ 0 1;
#X obj 471 367 pulse~ 1;
#X text 573 388 [match~] is like select and sends impulses at corresponding outlets., f 23;
#X obj 474 571 pulsecount~;
#X obj 474 541 impulse~ 1;
#X text 588 553 [pulsecount~] counts the number of trigger inputs, f 24;
#X obj 450 302 numbox~ 6 12 100 #C0C0C4 #440008 10 0 0 0;
#X obj 474 603 numbox~ 6 12 100 #C0C0C4 #440008 10 0 0 0;
#X text 31 16 Many objects in ELSE generate impulses or pulses as a result of a signal analysis. See examples below and check the help files of all objects., f 50;
#X connect 2 0 1 0;
#X connect 2 1 1 1;
#X connect 3 0 2 0;
#X connect 4 0 5 0;
#X connect 5 0 6 0;
#X connect 8 0 9 0;
#X connect 8 1 9 1;
#X connect 10 0 8 0;
#X connect 14 0 12 0;
#X connect 15 0 14 0;
#X connect 16 0 18 0;
#X connect 16 1 18 1;
#X connect 17 0 16 0;
#X connect 20 0 21 0;
#X connect 21 0 31 0;
#X connect 25 0 24 0;
#X connect 25 1 24 1;
#X connect 26 0 25 0;
#X connect 28 0 32 0;
#X connect 29 0 28 0;
