#N canvas 793 164 505 289 12;
#X declare -path else;
#X obj 50 36 inlet;
#X obj 49 214 outlet~;
#X obj 249 209 outlet~;
#X obj 319 162 declare -path else;
#X text 172 98 Part of ELSE \; https://github.com/porres/pd-else;
#X text 174 79 Alexandre Torres Porres (2020);
#N canvas 845 238 333 378 route 0;
#X obj 207 237 insert all;
#X obj 207 318 outlet;
#X obj 49 26 inlet;
#X msg 82 225 \$1 bang;
#X obj 82 199 loop 16;
#X obj 128 158 r \$0-n;
#X obj 128 132 s \$0-n;
#X obj 128 104 clip 1 256;
#X obj 49 68 route bang float, f 23;
#X connect 0 0 1 0;
#X connect 2 0 8 0;
#X connect 3 0 1 0;
#X connect 4 0 3 0;
#X connect 5 0 4 1;
#X connect 5 0 0 0;
#X connect 7 0 6 0;
#X connect 8 0 4 0;
#X connect 8 1 7 0;
#X connect 8 2 0 0;
#X restore 50 85 pd route;
#N canvas 216 167 1625 575 init 0;
#X obj 153 315 dollsym 1;
#X obj 770 508 outlet;
#X obj 132 257 symbol;
#X obj 210 284 insert all amp;
#X obj 315 284 insert all size;
#X obj 428 284 insert all dur;
#X obj 660 284 insert all pan;
#X msg 153 341 all set \$1;
#X obj 161 220 unpack f s;
#X obj 908 284 insert all scale;
#X obj 1029 284 insert all base, f 16;
#X obj 766 284 insert all autotune;
#X obj 75 85 lb -init;
#X obj 106 375 message;
#X obj 106 405 route bang;
#X obj 24 274 del 0;
#X obj 98 124 args -;
#X obj 1149 284 insert all pos, f 16;
#X msg 1270 284 all sync 1;
#X obj 75 295 s \$0-n;
#X obj 75 257 clip 1 256, f 5;
#X obj 1357 284 insert all rev, f 16;
#X obj 533 284 insert all transp;
#X obj 98 154 route float symbol list -amp -size -dur -transp -pan
-autotune -scale -base -pos -sync -rev -env, f 150;
#X obj 1479 284 insert all env, f 16;
#X connect 0 0 7 0;
#X connect 2 0 0 0;
#X connect 3 0 1 0;
#X connect 4 0 1 0;
#X connect 5 0 1 0;
#X connect 6 0 1 0;
#X connect 7 0 13 1;
#X connect 8 0 20 0;
#X connect 8 1 0 0;
#X connect 9 0 1 0;
#X connect 10 0 1 0;
#X connect 11 0 1 0;
#X connect 12 0 15 0;
#X connect 12 0 16 0;
#X connect 13 0 14 0;
#X connect 14 1 1 0;
#X connect 15 0 13 0;
#X connect 16 0 23 0;
#X connect 17 0 1 0;
#X connect 18 0 1 0;
#X connect 20 0 19 0;
#X connect 21 0 1 0;
#X connect 22 0 1 0;
#X connect 23 0 20 0;
#X connect 23 1 2 0;
#X connect 23 2 8 0;
#X connect 23 3 3 0;
#X connect 23 4 4 0;
#X connect 23 5 5 0;
#X connect 23 6 22 0;
#X connect 23 7 6 0;
#X connect 23 8 11 0;
#X connect 23 9 9 0;
#X connect 23 10 10 0;
#X connect 23 11 17 0;
#X connect 23 12 18 0;
#X connect 23 13 21 0;
#X connect 23 14 24 0;
#X connect 24 0 1 0;
#X restore 72 132 pd init;
#X obj 49 167 clone grain.sampler.grain 256;
#X connect 0 0 6 0;
#X connect 6 0 8 0;
#X connect 7 0 8 0;
#X connect 8 0 1 0;
#X connect 8 1 2 0;
