#N canvas 613 281 498 222 10;
#X declare -path else;
#X obj 81 23 inlet;
#X obj 167 175 outlet;
#X text 246 107 Part of ELSE \; https://github.com/porres/pd-else;
#X text 248 88 Alexandre Torres Porres (2017);
#X obj 167 23 inlet;
#X obj 80 114 router 2 1;
#X obj 167 140 list trim;
#N canvas 350 149 301 524 iter 0;
#X obj 184 436 list store;
#X obj 61 56 route bang;
#X obj 151 161 list length;
#X obj 151 190 v size_\$0;
#X obj 165 311 until;
#X obj 165 339 f;
#X obj 214 339 + 1;
#X msg 208 311 0, f 2;
#X msg 165 408 get \$1 1;
#X obj 61 212 v dir_\$0;
#X obj 61 242 select 0 1;
#X obj 165 283 t b b;
#X obj 61 334 until;
#X obj 61 362 f;
#X obj 61 279 v size_\$0;
#X obj 61 306 t f f;
#X obj 106 333 - 1;
#X obj 100 362 - 1;
#X obj 118 86 trigger bang anything;
#X obj 61 24 inlet;
#X obj 184 467 outlet;
#X connect 0 0 20 0;
#X connect 0 1 4 1;
#X connect 1 0 9 0;
#X connect 1 1 18 0;
#X connect 2 0 3 0;
#X connect 4 0 5 0;
#X connect 5 0 6 0;
#X connect 5 0 8 0;
#X connect 6 0 5 1;
#X connect 7 0 5 1;
#X connect 8 0 0 0;
#X connect 9 0 10 0;
#X connect 10 0 14 0;
#X connect 10 1 11 0;
#X connect 11 0 4 0;
#X connect 11 1 7 0;
#X connect 12 0 13 0;
#X connect 13 0 17 0;
#X connect 13 0 8 0;
#X connect 14 0 15 0;
#X connect 15 0 12 0;
#X connect 15 1 16 0;
#X connect 16 0 13 1;
#X connect 17 0 13 1;
#X connect 18 0 9 0;
#X connect 18 1 0 1;
#X connect 18 1 2 0;
#X connect 19 0 1 0;
#X restore 80 82 pd iter;
#N canvas 212 238 295 292 set 0;
#X obj 162 31 inlet;
#X obj 73 93 args -;
#X obj 162 191 v dir_\$0;
#X obj 162 156 >= 0;
#X obj 73 123 route -trim, f 12;
#X msg 73 152 2;
#X obj 73 229 outlet;
#X obj 73 68 lb -init;
#X connect 0 0 3 0;
#X connect 1 0 4 0;
#X connect 3 0 2 0;
#X connect 4 0 5 0;
#X connect 4 1 3 0;
#X connect 5 0 6 0;
#X connect 7 0 1 0;
#X restore 167 82 pd set;
#X obj 283 59 declare -path else;
#X connect 0 0 7 0;
#X connect 4 0 8 0;
#X connect 5 0 1 0;
#X connect 5 1 6 0;
#X connect 6 0 1 0;
#X connect 7 0 5 0;
#X connect 8 0 5 1;
