#N canvas 636 188 716 405 10;
#X declare -path else;
#X text 369 185 Part of ELSE \; https://github.com/porres/pd-else;
#X text 369 164 Alexandre Torres Porres (2017);
#N canvas 395 118 610 621 load_args 0;
#X obj 81 366 order;
#X obj 162 367 order;
#X obj 241 368 order;
#X obj 327 368 order;
#X obj 452 380 sel 0;
#X obj 135 230 break -;
#X obj 379 302 list split 1;
#X msg 413 408 10;
#X obj 413 354 moses 0;
#X msg 413 453 all \$1;
#X obj 413 331 route float;
#X msg 31 360 all 1;
#X obj 135 204 trigger anything bang;
#X obj 414 494 outlet;
#X obj 241 491 outlet;
#X obj 161 489 outlet;
#X obj 81 490 outlet;
#X obj 78 161 route bang;
#X obj 78 130 args;
#X obj 135 255 route -ratio -phase -amp -ramp -freq;
#X obj 303 291 s \$0-freq;
#X obj 78 99 lb -init;
#X connect 0 0 16 0;
#X connect 1 0 15 0;
#X connect 2 0 14 0;
#X connect 3 0 13 0;
#X connect 4 0 7 0;
#X connect 4 1 9 0;
#X connect 5 0 19 0;
#X connect 6 1 10 0;
#X connect 7 0 9 0;
#X connect 8 0 7 0;
#X connect 8 1 4 0;
#X connect 9 0 13 0;
#X connect 10 0 8 0;
#X connect 11 0 16 0;
#X connect 11 0 14 0;
#X connect 12 0 5 0;
#X connect 12 1 11 0;
#X connect 17 0 11 0;
#X connect 17 0 7 0;
#X connect 17 1 12 0;
#X connect 18 0 17 0;
#X connect 19 0 0 0;
#X connect 19 1 1 0;
#X connect 19 2 2 0;
#X connect 19 3 3 0;
#X connect 19 4 20 0;
#X connect 19 5 6 0;
#X connect 21 0 18 0;
#X restore 233 183 pd load_args;
#N canvas 284 164 483 412 route 0;
#X obj 83 184 order;
#X obj 164 185 order;
#X obj 243 186 order;
#X obj 329 186 order;
#X obj 328 280 outlet;
#X obj 243 273 outlet;
#X obj 168 273 outlet;
#X obj 93 279 outlet;
#X obj 138 120 route ratio phase amp ramp;
#X obj 137 83 inlet;
#X connect 0 0 7 0;
#X connect 1 0 6 0;
#X connect 2 0 5 0;
#X connect 3 0 4 0;
#X connect 8 0 0 0;
#X connect 8 1 1 0;
#X connect 8 2 2 0;
#X connect 8 3 3 0;
#X connect 9 0 8 0;
#X restore 155 183 pd route;
#X obj 104 287 outlet~;
#X obj 104 241 clone -x \$1 oscclone \$1;
#X obj 88 93 inlet~ fwd;
#X obj 88 66 r \$0-freq;
#X obj 397 118 declare -path else;
#X connect 2 0 5 1;
#X connect 2 1 5 2;
#X connect 2 2 5 3;
#X connect 2 3 5 4;
#X connect 3 0 5 1;
#X connect 3 1 5 2;
#X connect 3 2 5 3;
#X connect 3 3 5 4;
#X connect 5 0 4 0;
#X connect 6 0 5 0;
#X connect 6 1 3 0;
#X connect 7 0 6 0;
