#N canvas 689 239 467 404 10;
#X declare -path else;
#X obj 14 106 hsl 66 20 0 1 0 0 \$0-slider \$0-set-slider volume 19
7 1 13 -228856 -1 -1 0 1;
#X obj 83 94 tgl 16 0 \$0-dsp-toggle \$0-dsp-toggle-set off 3 6 1 9
-228856 -128992 -66577 0 1;
#X obj 83 110 bng 16 500 50 0 \$0-mute-bng \$0-mute empty 0 9 2 8 -228856
-91674 -195568;
#X obj 22 263 block~ 64;
#X obj 142 29 inlet~;
#X obj 162 186 *~;
#X obj 214 28 inlet~;
#X obj 234 184 *~;
#X obj 142 71 hip~ 3;
#X obj 214 69 hip~ 3;
#X obj 268 26 inlet;
#X obj 307 261 outlet;
#X obj 234 261 outlet~;
#X obj 162 261 outlet~;
#X obj 307 229 r \$0-slider;
#N canvas 627 117 614 293 set_GUI 0;
#X obj 66 243 s \$0-set-slider;
#X obj 98 18 inlet;
#X obj 66 209 clip 0 1;
#X obj 129 209 s \$0-dsp-toggle-set;
#X msg 160 182 0;
#X msg 129 179 1;
#X obj 223 159 s \$0-dac;
#X obj 254 137 s \$0-mode;
#X obj 318 165 s \$0-max_gain;
#X obj 318 119 moses 0;
#X obj 318 97 * -1;
#X obj 318 141 * -1;
#X obj 98 52 route float on off mute dac mode gain ramp;
#X obj 376 105 s \$0-ramp;
#X obj 376 84 max 5;
#X obj 191 182 s \$0-mute;
#X connect 1 0 12 0;
#X connect 2 0 0 0;
#X connect 4 0 3 0;
#X connect 5 0 3 0;
#X connect 9 0 11 0;
#X connect 10 0 9 0;
#X connect 11 0 8 0;
#X connect 12 0 2 0;
#X connect 12 1 5 0;
#X connect 12 2 4 0;
#X connect 12 3 15 0;
#X connect 12 4 6 0;
#X connect 12 5 7 0;
#X connect 12 6 10 0;
#X connect 12 7 14 0;
#X connect 14 0 13 0;
#X restore 268 69 pd set_GUI;
#X obj 214 138 *~;
#X obj 142 141 *~;
#N canvas 599 50 439 352 dac 0;
#X obj 94 320 dac~;
#X obj 53 22 inlet~;
#X obj 115 21 inlet~;
#X obj 153 69 r \$0-dac;
#X obj 115 275 *~;
#X obj 54 208 *~;
#X obj 153 181 line~;
#X obj 153 211 *~;
#X obj 153 242 *~;
#X msg 153 160 \$1 50;
#X obj 203 120 sel 0 1;
#X msg 222 143 1;
#X obj 307 239 switch~;
#X msg 203 215 0;
#X obj 203 186 delay 50;
#X obj 307 209 change;
#X connect 1 0 5 0;
#X connect 2 0 4 0;
#X connect 3 0 9 0;
#X connect 3 0 10 0;
#X connect 4 0 0 1;
#X connect 5 0 0 0;
#X connect 6 0 7 0;
#X connect 6 0 7 1;
#X connect 7 0 8 0;
#X connect 7 0 8 1;
#X connect 8 0 4 1;
#X connect 8 0 5 1;
#X connect 9 0 6 0;
#X connect 10 0 14 0;
#X connect 10 1 11 0;
#X connect 11 0 15 0;
#X connect 13 0 15 0;
#X connect 14 0 13 0;
#X connect 15 0 12 0;
#X restore 247 230 pd dac;
#N canvas 329 100 340 226 gain 0;
#N canvas 251 205 450 331 quartic 0;
#X obj 100 126 line~;
#X obj 100 158 *~;
#X obj 100 186 *~;
#X obj 100 92 inlet;
#X obj 100 252 outlet~;
#X obj 100 217 *~;
#X obj 221 54 r \$0-mode;
#X msg 250 104 0;
#X obj 269 157 switch~;
#X msg 221 104 1;
#X obj 197 179 line~;
#X msg 197 157 \$1 50;
#X obj 273 132 pipe 50;
#X obj 221 79 sel 0;
#X connect 0 0 1 0;
#X connect 0 0 1 1;
#X connect 1 0 2 0;
#X connect 1 0 2 1;
#X connect 2 0 5 0;
#X connect 3 0 0 0;
#X connect 5 0 4 0;
#X connect 6 0 13 0;
#X connect 7 0 11 0;
#X connect 7 0 12 0;
#X connect 9 0 8 0;
#X connect 9 0 11 0;
#X connect 10 0 5 1;
#X connect 11 0 10 0;
#X connect 12 0 8 0;
#X connect 13 0 9 0;
#X connect 13 1 7 0;
#X restore 37 85 pd quartic;
#X obj 116 172 outlet~;
#N canvas 251 205 450 300 dB 0;
#X obj 69 130 line~;
#X obj 69 26 inlet;
#X obj 99 255 outlet~;
#X obj 69 160 *~ 100;
#X obj 69 188 dbtorms~;
#X obj 166 56 r \$0-mode;
#X msg 193 106 0;
#X obj 193 175 switch~;
#X msg 164 106 1;
#X obj 166 81 sel 1;
#X obj 137 187 line~;
#X obj 99 223 *~;
#X msg 137 165 \$1 50;
#X obj 193 140 pipe 50;
#X connect 0 0 3 0;
#X connect 1 0 0 0;
#X connect 3 0 4 0;
#X connect 4 0 11 0;
#X connect 5 0 9 0;
#X connect 6 0 12 0;
#X connect 6 0 13 0;
#X connect 8 0 7 0;
#X connect 8 0 12 0;
#X connect 9 0 8 0;
#X connect 9 1 6 0;
#X connect 10 0 11 1;
#X connect 11 0 2 0;
#X connect 12 0 10 0;
#X connect 13 0 7 0;
#X restore 116 85 pd dB;
#N canvas 251 205 450 300 linear 0;
#X obj 136 65 line~;
#X obj 136 31 inlet;
#X obj 139 241 outlet~;
#X obj 260 54 r \$0-mode;
#X msg 289 104 0;
#X obj 308 157 switch~;
#X msg 260 104 1;
#X obj 236 179 line~;
#X msg 236 157 \$1 50;
#X obj 312 132 pipe 50;
#X obj 260 79 sel 2;
#X obj 131 187 *~;
#X connect 0 0 11 0;
#X connect 1 0 0 0;
#X connect 3 0 10 0;
#X connect 4 0 8 0;
#X connect 4 0 9 0;
#X connect 6 0 5 0;
#X connect 6 0 8 0;
#X connect 7 0 11 1;
#X connect 8 0 7 0;
#X connect 9 0 5 0;
#X connect 10 0 6 0;
#X connect 10 1 4 0;
#X connect 11 0 2 0;
#X restore 172 85 pd linear;
#N canvas 661 142 329 221 max_gain 0;
#X obj 46 35 inlet~;
#X obj 46 171 outlet~;
#X obj 46 100 *~;
#X obj 105 91 expr if($f1 <= 0 \, 1 \, $f1);
#X obj 105 65 r \$0-max_gain;
#X obj 105 141 line~;
#X msg 105 116 \$1 50;
#X msg 159 142 1;
#X obj 159 118 lb -init;
#X connect 0 0 2 0;
#X connect 2 0 1 0;
#X connect 3 0 6 0;
#X connect 4 0 3 0;
#X connect 5 0 2 1;
#X connect 6 0 5 0;
#X connect 7 0 5 0;
#X connect 8 0 7 0;
#X restore 116 136 pd max_gain;
#X obj 116 35 inlet;
#X connect 0 0 4 0;
#X connect 2 0 4 0;
#X connect 3 0 4 0;
#X connect 4 0 1 0;
#X connect 5 0 2 0;
#X connect 5 0 3 0;
#X connect 5 0 0 0;
#X restore 289 135 pd gain;
#N canvas 495 50 450 300 mute 0;
#X obj 121 167 line~;
#X obj 121 196 *~;
#X obj 121 221 *~;
#X obj 121 114 expr 1 - $f1;
#X msg 121 140 \$1 50;
#X msg 206 140 1;
#X obj 121 245 outlet~;
#X obj 284 88 select 0 1;
#X msg 284 37 0;
#N canvas 186 185 358 434 off 0;
#X obj 154 221 +;
#X obj 139 246 +;
#X obj 77 140 * -65536;
#X obj 154 141 * -256;
#X obj 220 141 * -1;
#X obj 139 277 - 1;
#X obj 120 110 unpack f f f;
#X obj 120 47 inlet;
#X obj 139 351 outlet;
#X msg 120 80 220 220 220;
#X msg 139 309 label volume \, color \$1 -1 -1;
#X connect 0 0 1 1;
#X connect 1 0 5 0;
#X connect 2 0 1 0;
#X connect 3 0 0 0;
#X connect 4 0 0 1;
#X connect 5 0 10 0;
#X connect 6 0 2 0;
#X connect 6 1 3 0;
#X connect 6 2 4 0;
#X connect 7 0 9 0;
#X connect 9 0 6 0;
#X connect 10 0 8 0;
#X restore 284 127 pd off;
#N canvas 398 340 311 325 on 0;
#X obj 112 157 +;
#X obj 97 182 +;
#X obj 35 122 * -65536;
#X obj 112 123 * -256;
#X obj 178 123 * -1;
#X obj 97 213 - 1;
#X obj 78 92 unpack f f f;
#X obj 78 32 inlet;
#X obj 97 284 outlet;
#X msg 78 62 89 96 100;
#X msg 97 246 label muted \, color \$1 0 0;
#X connect 0 0 1 1;
#X connect 1 0 5 0;
#X connect 2 0 1 0;
#X connect 3 0 0 0;
#X connect 4 0 0 1;
#X connect 5 0 10 0;
#X connect 6 0 2 0;
#X connect 6 1 3 0;
#X connect 6 2 4 0;
#X connect 7 0 9 0;
#X connect 9 0 6 0;
#X connect 10 0 8 0;
#X restore 344 127 pd on;
#X obj 285 207 s \$0-set-slider;
#X obj 284 65 tgl 15 0 empty \$0-mute-bng empty 17 7 0 10 -262144 -1
-1 0 1;
#X obj 205 9 lb -init;
#X connect 0 0 1 0;
#X connect 0 0 1 1;
#X connect 1 0 2 0;
#X connect 1 0 2 1;
#X connect 2 0 6 0;
#X connect 3 0 4 0;
#X connect 4 0 0 0;
#X connect 5 0 0 0;
#X connect 7 0 9 0;
#X connect 7 1 10 0;
#X connect 8 0 12 0;
#X connect 9 0 11 0;
#X connect 10 0 11 0;
#X connect 12 0 7 0;
#X connect 12 0 3 0;
#X connect 13 0 8 0;
#X connect 13 0 5 0;
#X restore 229 102 pd mute;
#N canvas 1033 328 407 422 Gui_control 0;
#X msg 242 154 0;
#X msg 29 303 \; pd dsp 1;
#X obj 56 97 value slider_\$0;
#X obj 57 189 value slider_\$0;
#X obj 270 220 value slider_\$0;
#X obj 242 126 select 0 1;
#N canvas 824 206 392 422 DSP_state 0;
#X obj 204 156 route dsp;
#X obj 204 129 receive pd;
#X obj 184 21 inlet;
#X obj 118 395 outlet;
#X obj 184 51 sel 0 1;
#X msg 203 85 \; pd dsp 1;
#X msg 185 221 0;
#X msg 67 179 set 0;
#X msg 40 214 \; pd dsp 0;
#X obj 40 153 t b b;
#X obj 70 395 outlet;
#X obj 201 296 value dsp_state_\$0;
#X obj 70 361 b;
#X msg 118 152 1;
#X obj 118 221 change -1;
#X obj 40 128 delay 150;
#X msg 131 330 set \$1;
#N canvas 555 532 340 222 set_color 0;
#X obj 47 30 inlet;
#N canvas 0 50 712 637 off 0;
#X obj 389 164 * -1;
#X obj 323 244 +;
#X obj 308 269 +;
#X obj 246 163 * -65536;
#X obj 323 164 * -256;
#X obj 308 300 - 1;
#X obj 289 133 unpack f f f;
#X obj 124 239 +;
#X obj 109 264 +;
#X obj 47 158 * -65536;
#X obj 124 159 * -256;
#X obj 190 159 * -1;
#X obj 109 295 - 1;
#X obj 90 128 unpack f f f;
#X msg 289 97 124 124 124;
#X msg 90 98 220 220 220;
#X obj 90 25 inlet;
#X obj 287 405 outlet;
#X obj 287 344 pack;
#X obj 90 65 trigger bang bang;
#X msg 287 371 color \$1 \$2 2 \, label off;
#X connect 0 0 1 1;
#X connect 1 0 2 1;
#X connect 2 0 5 0;
#X connect 3 0 2 0;
#X connect 4 0 1 0;
#X connect 5 0 18 1;
#X connect 6 0 3 0;
#X connect 6 1 4 0;
#X connect 6 2 0 0;
#X connect 7 0 8 1;
#X connect 8 0 12 0;
#X connect 9 0 8 0;
#X connect 10 0 7 0;
#X connect 11 0 7 1;
#X connect 12 0 18 0;
#X connect 13 0 9 0;
#X connect 13 1 10 0;
#X connect 13 2 11 0;
#X connect 14 0 6 0;
#X connect 15 0 13 0;
#X connect 16 0 19 0;
#X connect 18 0 20 0;
#X connect 19 0 15 0;
#X connect 19 1 14 0;
#X connect 20 0 17 0;
#X restore 47 113 pd off;
#X obj 47 83 select 0 1;
#X obj 96 160 send \$0-dsp-toggle-set;
#X msg 96 114 color -4.86997e+06 -4.86997e+06 0 \, label on;
#X connect 0 0 2 0;
#X connect 1 0 3 0;
#X connect 2 0 1 0;
#X connect 2 1 4 0;
#X connect 4 0 3 0;
#X restore 185 330 pd set_color;
#X obj 131 361 send \$0-dsp-toggle-set;
#N canvas 116 23 288 228 dsp_check 0;
#X obj 59 60 sig~ 1;
#X obj 59 119 snapshot~;
#X obj 149 143 switch~;
#X msg 168 117 1;
#X msg 135 117 0;
#X obj 108 85 delay 5;
#X obj 59 149 outlet;
#X obj 168 45 lb -init;
#X connect 0 0 1 0;
#X connect 1 0 6 0;
#X connect 3 0 2 0;
#X connect 4 0 2 0;
#X connect 5 0 1 0;
#X connect 5 0 4 0;
#X connect 7 0 3 0;
#X connect 7 0 5 0;
#X restore 213 181 pd dsp_check;
#X connect 0 0 14 0;
#X connect 1 0 0 0;
#X connect 2 0 4 0;
#X connect 4 0 6 0;
#X connect 4 0 15 0;
#X connect 4 1 5 0;
#X connect 4 1 13 0;
#X connect 6 0 16 0;
#X connect 6 0 17 0;
#X connect 6 0 11 0;
#X connect 6 0 12 0;
#X connect 7 0 14 0;
#X connect 9 0 8 0;
#X connect 9 1 7 0;
#X connect 12 0 10 0;
#X connect 13 0 14 0;
#X connect 14 0 3 0;
#X connect 14 0 11 0;
#X connect 14 0 16 0;
#X connect 14 0 17 0;
#X connect 15 0 9 0;
#X connect 16 0 18 0;
#X connect 19 0 14 0;
#X restore 173 63 pd DSP_state;
#X obj 29 133 value dsp_state_\$0;
#X obj 29 72 t b f;
#X obj 29 162 select 0 1;
#X obj 29 38 receive \$0-slider;
#X obj 173 36 receive \$0-dsp-toggle;
#X msg 270 245 0 \, \$1 100;
#X obj 173 372 outlet;
#X msg 173 119 0 150;
#X obj 57 238 pack f 20;
#X obj 108 214 r \$0-ramp;
#X connect 0 0 13 0;
#X connect 3 0 15 0;
#X connect 4 0 12 0;
#X connect 5 0 0 0;
#X connect 5 1 4 0;
#X connect 6 0 14 0;
#X connect 6 1 5 0;
#X connect 7 0 9 0;
#X connect 8 0 7 0;
#X connect 8 1 2 0;
#X connect 9 0 1 0;
#X connect 9 1 3 0;
#X connect 10 0 8 0;
#X connect 11 0 6 0;
#X connect 12 0 13 0;
#X connect 14 0 13 0;
#X connect 15 0 13 0;
#X connect 16 0 15 1;
#X restore 289 102 pd Gui_control;
#N canvas 1045 306 266 322 load_args 0;
#X obj 125 252 s \$0-mode;
#X obj 158 228 s \$0-dac;
#X msg 84 174 1;
#X msg 51 175 0;
#X msg 84 62 args;
#X obj 84 92 pdcontrol;
#X obj 84 121 route bang float list;
#X obj 125 151 unpack;
#X obj 84 36 loadbang;
#X connect 2 0 1 0;
#X connect 3 0 0 0;
#X connect 4 0 5 0;
#X connect 5 0 6 0;
#X connect 6 0 3 0;
#X connect 6 0 2 0;
#X connect 6 1 7 0;
#X connect 6 2 7 0;
#X connect 7 0 0 0;
#X connect 7 1 1 0;
#X connect 8 0 4 0;
#X restore 303 182 pd load_args;
#X text 164 329 Part of ELSE \; https://github.com/porres/pd-else;
#X text 166 310 Alexandre Torres Porres (2017-2020);
#X obj 228 368 declare -path else;
#X connect 4 0 8 0;
#X connect 5 0 13 0;
#X connect 5 0 18 0;
#X connect 6 0 9 0;
#X connect 7 0 12 0;
#X connect 7 0 18 1;
#X connect 8 0 17 0;
#X connect 9 0 16 0;
#X connect 10 0 15 0;
#X connect 14 0 11 0;
#X connect 16 0 7 0;
#X connect 17 0 5 0;
#X connect 19 0 7 1;
#X connect 19 0 5 1;
#X connect 20 0 16 1;
#X connect 20 0 17 1;
#X connect 21 0 19 0;
#X coords 0 -1 1 1 90 40 1 10 90;
