#N canvas 691 318 448 310 10;
#X declare -path else;
#X obj 54 227 *~;
#X obj 105 36 inlet~;
#X obj 106 226 *~;
#X obj 274 58 block~ 64;
#N canvas 627 117 636 328 set_GUI 0;
#X obj 66 225 s \$0-set-slider;
#X obj 98 18 inlet;
#X obj 66 191 clip 0 1;
#X obj 129 191 s \$0-dsp-toggle-set;
#X msg 162 164 0;
#X msg 129 161 1;
#X obj 226 120 s \$0-mode;
#X obj 310 165 s \$0-max_gain;
#X obj 310 119 moses 0;
#X obj 310 97 * -1;
#X obj 310 141 * -1;
#X obj 368 118 s \$0-ramp;
#X obj 368 97 max 5;
#X obj 464 190 s \$0-max_gain;
#X obj 496 161 s \$0-mode;
#X text 462 79 Load args;
#X obj 194 164 s \$0-mute-bng-set;
#X obj 98 52 route set on off mute mode gain ramp;
#X obj 496 139 f \$2;
#X obj 464 152 f \$1;
#X obj 464 112 lb -init;
#X connect 1 0 17 0;
#X connect 2 0 0 0;
#X connect 4 0 3 0;
#X connect 5 0 3 0;
#X connect 8 0 10 0;
#X connect 9 0 8 0;
#X connect 10 0 7 0;
#X connect 12 0 11 0;
#X connect 17 0 2 0;
#X connect 17 1 5 0;
#X connect 17 2 4 0;
#X connect 17 3 16 0;
#X connect 17 4 6 0;
#X connect 17 5 9 0;
#X connect 17 6 12 0;
#X connect 18 0 14 0;
#X connect 19 0 13 0;
#X connect 20 0 18 0;
#X connect 20 0 19 0;
#X restore 159 77 pd set_GUI;
#N canvas 965 168 332 251 GUI 0;
#X obj 103 116 hsl 89 20 0 1 0 0 \$0-slider \$0-set-slider volume 17
9 0 14 -228856 -1 -1 0 1;
#N canvas 565 338 514 332 DSP 0;
#X obj 100 100 tgl 16 0 \$0-dsp-toggle \$0-dsp-toggle-set empty 19
8 0 12 -228856 -128992 -262144 0 1;
#X obj 117 101 cnv 5 24 14 empty \$0-cnv_dsp dsp 2 6 0 12 -228856 -91542
0;
#X coords 0 -1 1 1 42 16 2 100 100;
#X restore 100 100 pd DSP;
#N canvas 830 23 409 332 mute 0;
#X obj 101 101 cnv 5 34 14 empty \$0-cnv_mute mute 4 6 0 12 -228856
-91542 0;
#X obj 64 133 tgl 16 0 \$0-mute \$0-mute-set empty 19 7 0 12 -228856
-128992 -262144 0 1;
#X obj 130 162 select 0 1;
#N canvas 612 446 324 271 set_tgl_color 0;
#X obj 47 30 inlet;
#N canvas 0 22 712 637 off 0;
#X obj 490 220 * -1;
#X obj 424 300 +;
#X obj 409 325 +;
#X obj 347 219 * -65536;
#X obj 424 220 * -256;
#X obj 409 356 - 1;
#X obj 390 189 unpack f f f;
#X obj 225 295 +;
#X obj 210 320 +;
#X obj 148 214 * -65536;
#X obj 225 215 * -256;
#X obj 291 215 * -1;
#X obj 210 351 - 1;
#X obj 191 184 unpack f f f;
#X obj 379 423 pack;
#X msg 395 152 124 124 124;
#X msg 203 154 220 220 220;
#X obj 238 121 t b b;
#X obj 238 81 inlet;
#X obj 378 485 outlet;
#X msg 378 447 color \$1 \$2 0;
#X connect 0 0 1 1;
#X connect 1 0 2 1;
#X connect 2 0 5 0;
#X connect 3 0 2 0;
#X connect 4 0 1 0;
#X connect 5 0 14 1;
#X connect 6 0 3 0;
#X connect 6 1 4 0;
#X connect 6 2 0 0;
#X connect 7 0 8 1;
#X connect 8 0 12 0;
#X connect 9 0 8 0;
#X connect 10 0 7 0;
#X connect 11 0 7 1;
#X connect 12 0 14 0;
#X connect 13 0 9 0;
#X connect 13 1 10 0;
#X connect 13 2 11 0;
#X connect 14 0 20 0;
#X connect 15 0 6 0;
#X connect 16 0 13 0;
#X connect 17 0 16 0;
#X connect 17 1 15 0;
#X connect 18 0 17 0;
#X connect 20 0 19 0;
#X restore 47 113 pd off;
#X obj 47 83 select 0 1;
#X obj 96 148 s \$0-mute-set;
#X msg 96 114 color -4.86997e+06 -1.34937e+07 0;
#X connect 0 0 2 0;
#X connect 1 0 3 0;
#X connect 2 0 1 0;
#X connect 2 1 4 0;
#X connect 4 0 3 0;
#X restore 64 262 pd set_tgl_color;
#X msg 64 72 0;
#N canvas 186 185 358 434 off 0;
#X obj 154 221 +;
#X obj 139 246 +;
#X obj 77 140 * -65536;
#X obj 154 141 * -256;
#X obj 220 141 * -1;
#X obj 139 277 - 1;
#X obj 120 110 unpack f f f;
#X obj 120 47 inlet;
#X obj 139 351 outlet;
#X msg 120 80 220 220 220;
#X msg 139 313 color \$1 -1 -1;
#X connect 0 0 1 1;
#X connect 1 0 5 0;
#X connect 2 0 1 0;
#X connect 3 0 0 0;
#X connect 4 0 0 1;
#X connect 5 0 10 0;
#X connect 6 0 2 0;
#X connect 6 1 3 0;
#X connect 6 2 4 0;
#X connect 7 0 9 0;
#X connect 9 0 6 0;
#X connect 10 0 8 0;
#X restore 257 200 pd off;
#N canvas 398 340 689 469 on 0;
#X obj 127 232 +;
#X obj 112 257 +;
#X obj 50 151 * -65536;
#X obj 127 152 * -256;
#X obj 193 152 * -1;
#X obj 112 288 - 1;
#X obj 93 121 unpack f f f;
#X obj 93 36 inlet;
#X obj 226 412 outlet;
#X msg 93 91 89 96 100;
#X obj 305 254 +;
#X obj 290 279 +;
#X obj 228 183 * -65536;
#X obj 305 174 * -256;
#X obj 368 174 * -1;
#X obj 290 310 - 1;
#X obj 271 143 unpack f f f;
#X obj 484 225 +;
#X obj 469 250 +;
#X obj 407 144 * -65536;
#X obj 484 145 * -256;
#X obj 550 145 * -1;
#X obj 469 281 - 1;
#X obj 450 114 unpack f f f;
#X msg 226 374 color \$1 \$2 \$3;
#X msg 450 90 125 125 125;
#X msg 271 120 50 50 50;
#X obj 226 344 pack float float float;
#X obj 93 65 trigger bang bang bang, f 60;
#X connect 0 0 1 1;
#X connect 1 0 5 0;
#X connect 2 0 1 0;
#X connect 3 0 0 0;
#X connect 4 0 0 1;
#X connect 5 0 27 0;
#X connect 6 0 2 0;
#X connect 6 1 3 0;
#X connect 6 2 4 0;
#X connect 7 0 28 0;
#X connect 9 0 6 0;
#X connect 10 0 11 1;
#X connect 11 0 15 0;
#X connect 12 0 11 0;
#X connect 13 0 10 0;
#X connect 14 0 10 1;
#X connect 15 0 27 1;
#X connect 16 0 12 0;
#X connect 16 1 13 0;
#X connect 16 2 14 0;
#X connect 17 0 18 1;
#X connect 18 0 22 0;
#X connect 19 0 18 0;
#X connect 20 0 17 0;
#X connect 21 0 17 1;
#X connect 22 0 27 2;
#X connect 23 0 19 0;
#X connect 23 1 20 0;
#X connect 23 2 21 0;
#X connect 24 0 8 0;
#X connect 25 0 23 0;
#X connect 26 0 16 0;
#X connect 27 0 24 0;
#X connect 28 0 9 0;
#X connect 28 1 26 0;
#X connect 28 2 25 0;
#X restore 310 198 pd on;
#X obj 267 233 s \$0-set-slider;
#X obj 136 100 bng 16 500 250 0 \$0-mute-bng \$0-mute-bng-set empty
17 7 0 10 -228856 -1 -1;
#X obj 64 48 lb -init;
#X connect 1 0 2 0;
#X connect 1 0 3 0;
#X connect 2 0 5 0;
#X connect 2 1 6 0;
#X connect 4 0 1 0;
#X connect 5 0 7 0;
#X connect 6 0 7 0;
#X connect 8 0 1 0;
#X connect 9 0 4 0;
#X coords 0 -1 1 1 52 16 2 100 100;
#X restore 142 100 pd mute;
#X coords 0 -1 1 1 94 36 2 100 100;
#X restore 260 105 pd GUI;
#N canvas 977 100 407 422 Gui_control 0;
#X msg 242 154 0;
#X msg 29 303 \; pd dsp 1;
#X obj 56 97 value slider_\$0;
#X obj 57 189 value slider_\$0;
#X obj 270 220 value slider_\$0;
#X obj 242 126 select 0 1;
#N canvas 236 232 411 424 DSP_state 0;
#X obj 266 183 route dsp;
#X obj 266 156 receive pd;
#N canvas 0 22 560 312 set_GUI 0;
#X msg 187 138 set \$1;
#N canvas 555 532 340 222 set_color 0;
#X obj 47 30 inlet;
#N canvas 0 22 712 637 off 0;
#X obj 490 220 * -1;
#X obj 424 300 +;
#X obj 409 325 +;
#X obj 347 219 * -65536;
#X obj 424 220 * -256;
#X obj 409 356 - 1;
#X obj 390 189 unpack f f f;
#X obj 225 295 +;
#X obj 210 320 +;
#X obj 148 214 * -65536;
#X obj 225 215 * -256;
#X obj 291 215 * -1;
#X obj 210 351 - 1;
#X obj 191 184 unpack f f f;
#X obj 379 423 pack;
#X msg 395 152 124 124 124;
#X msg 203 154 220 220 220;
#X obj 238 121 t b b;
#X obj 238 81 inlet;
#X obj 378 485 outlet;
#X msg 378 447 color \$1 \$2 0;
#X connect 0 0 1 1;
#X connect 1 0 2 1;
#X connect 2 0 5 0;
#X connect 3 0 2 0;
#X connect 4 0 1 0;
#X connect 5 0 14 1;
#X connect 6 0 3 0;
#X connect 6 1 4 0;
#X connect 6 2 0 0;
#X connect 7 0 8 1;
#X connect 8 0 12 0;
#X connect 9 0 8 0;
#X connect 10 0 7 0;
#X connect 11 0 7 1;
#X connect 12 0 14 0;
#X connect 13 0 9 0;
#X connect 13 1 10 0;
#X connect 13 2 11 0;
#X connect 14 0 20 0;
#X connect 15 0 6 0;
#X connect 16 0 13 0;
#X connect 17 0 16 0;
#X connect 17 1 15 0;
#X connect 18 0 17 0;
#X connect 20 0 19 0;
#X restore 47 113 pd off;
#X obj 47 83 select 0 1;
#X obj 96 160 send \$0-dsp-toggle-set;
#X msg 96 114 color -4.86997e+06 -1.34937e+07 0;
#X connect 0 0 2 0;
#X connect 1 0 3 0;
#X connect 2 0 1 0;
#X connect 2 1 4 0;
#X connect 4 0 3 0;
#X restore 93 159 pd set_color;
#X obj 187 99 inlet;
#X obj 187 169 send \$0-dsp-toggle-set;
#X connect 0 0 3 0;
#X connect 2 0 0 0;
#X connect 2 0 1 0;
#X restore 278 271 pd set_GUI;
#N canvas 116 23 288 228 dsp_check 0;
#X obj 59 60 sig~ 1;
#X obj 59 119 snapshot~;
#X obj 149 143 switch~;
#X msg 168 117 1;
#X msg 135 117 0;
#X obj 108 85 delay 5;
#X obj 59 149 outlet;
#X obj 168 45 lb -init;
#X connect 0 0 1 0;
#X connect 1 0 6 0;
#X connect 3 0 2 0;
#X connect 4 0 2 0;
#X connect 5 0 1 0;
#X connect 5 0 4 0;
#X connect 7 0 3 0;
#X connect 7 0 5 0;
#X restore 253 132 pd dsp_check;
#X obj 160 25 inlet;
#X obj 211 363 outlet;
#X msg 210 87 \; pd dsp 1;
#X msg 278 240 0;
#X msg 99 198 set 0;
#X msg 72 233 \; pd dsp 0;
#X obj 72 172 t b b;
#X obj 160 363 outlet;
#X obj 234 300 value dsp_state_\$0;
#X msg 188 197 1;
#X obj 211 240 change -1;
#X obj 72 147 delay 150;
#X obj 160 54 select 0 1;
#X connect 0 0 14 0;
#X connect 1 0 0 0;
#X connect 3 0 14 0;
#X connect 4 0 16 0;
#X connect 7 0 2 0;
#X connect 7 0 12 0;
#X connect 8 0 14 0;
#X connect 10 0 9 0;
#X connect 10 1 8 0;
#X connect 13 0 14 0;
#X connect 14 0 2 0;
#X connect 14 0 5 0;
#X connect 14 0 12 0;
#X connect 15 0 10 0;
#X connect 16 0 7 0;
#X connect 16 0 15 0;
#X connect 16 0 11 0;
#X connect 16 1 6 0;
#X connect 16 1 13 0;
#X restore 173 63 pd DSP_state;
#X obj 29 133 value dsp_state_\$0;
#X obj 29 72 t b f;
#X obj 29 162 select 0 1;
#X obj 29 38 receive \$0-slider;
#X obj 173 36 receive \$0-dsp-toggle;
#X msg 270 245 0 \, \$1 100;
#X obj 173 372 outlet;
#X msg 173 119 0 150;
#X obj 57 238 pack f 20;
#X obj 108 214 r \$0-ramp;
#X connect 0 0 13 0;
#X connect 3 0 15 0;
#X connect 4 0 12 0;
#X connect 5 0 0 0;
#X connect 5 1 4 0;
#X connect 6 0 14 0;
#X connect 6 1 5 0;
#X connect 7 0 9 0;
#X connect 8 0 7 0;
#X connect 8 1 2 0;
#X connect 9 0 1 0;
#X connect 9 1 3 0;
#X connect 10 0 8 0;
#X connect 11 0 6 0;
#X connect 12 0 13 0;
#X connect 14 0 13 0;
#X connect 15 0 13 0;
#X connect 16 0 15 1;
#X restore 156 106 pd Gui_control;
#X obj 85 261 dac~;
#N canvas 341 432 366 298 gain-mute 0;
#N canvas 251 205 450 331 quartic 0;
#X obj 100 126 line~;
#X obj 100 158 *~;
#X obj 100 186 *~;
#X obj 100 92 inlet;
#X obj 100 252 outlet~;
#X obj 100 217 *~;
#X obj 221 54 r \$0-mode;
#X msg 250 104 0;
#X obj 269 157 switch~;
#X msg 221 104 1;
#X obj 197 179 line~;
#X msg 197 157 \$1 50;
#X obj 273 132 pipe 50;
#X obj 221 79 sel 0;
#X connect 0 0 1 0;
#X connect 0 0 1 1;
#X connect 1 0 2 0;
#X connect 1 0 2 1;
#X connect 2 0 5 0;
#X connect 3 0 0 0;
#X connect 5 0 4 0;
#X connect 6 0 13 0;
#X connect 7 0 11 0;
#X connect 7 0 12 0;
#X connect 9 0 8 0;
#X connect 9 0 11 0;
#X connect 10 0 5 1;
#X connect 11 0 10 0;
#X connect 12 0 8 0;
#X connect 13 0 9 0;
#X connect 13 1 7 0;
#X restore 37 85 pd quartic;
#X obj 116 239 outlet~;
#N canvas 743 262 450 300 dB 0;
#X obj 129 110 line~;
#X obj 129 76 inlet;
#X obj 159 235 outlet~;
#X obj 129 140 *~ 100;
#X obj 129 168 dbtorms~;
#X obj 221 54 r \$0-mode;
#X msg 250 104 0;
#X obj 269 157 switch~;
#X msg 221 104 1;
#X obj 221 79 sel 1;
#X obj 197 179 line~;
#X obj 159 203 *~;
#X msg 197 157 \$1 50;
#X obj 273 132 pipe 50;
#X connect 0 0 3 0;
#X connect 1 0 0 0;
#X connect 3 0 4 0;
#X connect 4 0 11 0;
#X connect 5 0 9 0;
#X connect 6 0 12 0;
#X connect 6 0 13 0;
#X connect 8 0 7 0;
#X connect 8 0 12 0;
#X connect 9 0 8 0;
#X connect 9 1 6 0;
#X connect 10 0 11 1;
#X connect 11 0 2 0;
#X connect 12 0 10 0;
#X connect 13 0 7 0;
#X restore 116 85 pd dB;
#N canvas 251 205 450 300 linear 0;
#X obj 136 65 line~;
#X obj 136 31 inlet;
#X obj 139 241 outlet~;
#X obj 260 54 r \$0-mode;
#X msg 289 104 0;
#X obj 308 157 switch~;
#X msg 260 104 1;
#X obj 236 179 line~;
#X msg 236 157 \$1 50;
#X obj 312 132 pipe 50;
#X obj 260 79 sel 2;
#X obj 131 187 *~;
#X connect 0 0 11 0;
#X connect 1 0 0 0;
#X connect 3 0 10 0;
#X connect 4 0 8 0;
#X connect 4 0 9 0;
#X connect 6 0 5 0;
#X connect 6 0 8 0;
#X connect 7 0 11 1;
#X connect 8 0 7 0;
#X connect 9 0 5 0;
#X connect 10 0 6 0;
#X connect 10 1 4 0;
#X connect 11 0 2 0;
#X restore 172 85 pd linear;
#N canvas 661 142 329 221 max_gain 0;
#X obj 46 35 inlet~;
#X obj 46 171 outlet~;
#X obj 46 100 *~;
#X obj 105 91 expr if($f1 <= 0 \, 1 \, $f1);
#X obj 105 65 r \$0-max_gain;
#X msg 105 116 \$1 15;
#X obj 105 141 line~;
#X connect 0 0 2 0;
#X connect 2 0 1 0;
#X connect 3 0 5 0;
#X connect 4 0 3 0;
#X connect 5 0 6 0;
#X connect 6 0 2 1;
#X restore 116 136 pd max_gain;
#X obj 116 35 inlet;
#X obj 116 208 *~;
#N canvas 116 118 450 300 mute 0;
#X obj 222 51 r \$0-mute;
#X obj 121 167 line~;
#X obj 121 196 *~;
#X obj 121 221 *~;
#X obj 121 114 expr 1 - $f1;
#X msg 121 140 \$1 50;
#X msg 206 140 1;
#X obj 121 245 outlet~;
#X obj 294 98 select 0 1;
#N canvas 186 185 484 417 off 0;
#X obj 154 221 +;
#X obj 139 246 +;
#X obj 77 140 * -65536;
#X obj 154 141 * -256;
#X obj 220 141 * -1;
#X obj 139 277 - 1;
#X obj 120 110 unpack f f f;
#X obj 120 47 inlet;
#X obj 139 351 outlet;
#X msg 120 80 220 220 220;
#X msg 139 309 label volume \, color \$1 -1 -1 \, label_pos 17 9;
#X connect 0 0 1 1;
#X connect 1 0 5 0;
#X connect 2 0 1 0;
#X connect 3 0 0 0;
#X connect 4 0 0 1;
#X connect 5 0 10 0;
#X connect 6 0 2 0;
#X connect 6 1 3 0;
#X connect 6 2 4 0;
#X connect 7 0 9 0;
#X connect 9 0 6 0;
#X connect 10 0 8 0;
#X restore 294 137 pd off;
#N canvas 398 340 374 323 on 0;
#X obj 112 157 +;
#X obj 97 182 +;
#X obj 35 122 * -65536;
#X obj 112 123 * -256;
#X obj 178 123 * -1;
#X obj 97 213 - 1;
#X obj 78 92 unpack f f f;
#X obj 78 32 inlet;
#X obj 97 284 outlet;
#X msg 78 62 89 96 100;
#X msg 97 246 label muted \, color \$1 0 0 \, label_pos 23 9;
#X connect 0 0 1 1;
#X connect 1 0 5 0;
#X connect 2 0 1 0;
#X connect 3 0 0 0;
#X connect 4 0 0 1;
#X connect 5 0 10 0;
#X connect 6 0 2 0;
#X connect 6 1 3 0;
#X connect 6 2 4 0;
#X connect 7 0 9 0;
#X connect 9 0 6 0;
#X connect 10 0 8 0;
#X restore 354 137 pd on;
#X obj 295 217 s \$0-set-slider;
#X obj 206 114 lb -init;
#X connect 0 0 4 0;
#X connect 0 0 8 0;
#X connect 1 0 2 0;
#X connect 1 0 2 1;
#X connect 2 0 3 0;
#X connect 2 0 3 1;
#X connect 3 0 7 0;
#X connect 4 0 5 0;
#X connect 5 0 1 0;
#X connect 6 0 1 0;
#X connect 8 0 9 0;
#X connect 8 1 10 0;
#X connect 9 0 11 0;
#X connect 10 0 11 0;
#X connect 12 0 6 0;
#X restore 131 172 pd mute;
#X connect 0 0 4 0;
#X connect 2 0 4 0;
#X connect 3 0 4 0;
#X connect 4 0 6 0;
#X connect 5 0 2 0;
#X connect 5 0 3 0;
#X connect 5 0 0 0;
#X connect 6 0 1 0;
#X connect 7 0 6 1;
#X restore 156 132 pd gain-mute;
#X text 165 234 Part of ELSE \; https://github.com/porres/pd-else;
#X obj 23 36 inlet~ fwd;
#N canvas 347 63 385 245 switch 0;
#X obj 87 122 *~;
#X obj 225 30 inlet~;
#X obj 67 30 inlet~;
#X obj 67 188 outlet~;
#X obj 225 188 outlet~;
#X obj 102 96 op~ == 10000;
#X obj 240 96 op~ != 10000;
#X obj 225 122 *~;
#X connect 0 0 4 0;
#X connect 1 0 5 0;
#X connect 1 0 6 0;
#X connect 1 0 7 0;
#X connect 2 0 0 0;
#X connect 2 0 3 0;
#X connect 5 0 0 1;
#X connect 6 0 7 1;
#X connect 7 0 4 0;
#X restore 54 73 pd switch;
#X obj 105 12 initmess 10000;
#X obj 105 104 hip~ 3;
#X obj 54 105 hip~ 3;
#X text 167 215 Alexandre Torres Porres (2016-2020);
#X obj 263 169 declare -path else;
#X connect 0 0 7 0;
#X connect 1 0 11 1;
#X connect 2 0 7 1;
#X connect 6 0 8 0;
#X connect 8 0 2 1;
#X connect 8 0 0 1;
#X connect 10 0 11 0;
#X connect 10 1 4 0;
#X connect 11 0 14 0;
#X connect 11 1 13 0;
#X connect 12 0 1 0;
#X connect 13 0 2 0;
#X connect 14 0 0 0;
#X coords 0 0 1 1 94 51 1 260 90;
