#N canvas 486 231 762 445 12;
#X declare -path else;
#X obj 93 277 +~;
#X obj 135 276 +~;
#X obj 153 246 *~;
#X obj 306 182 / 2;
#X obj 153 198 delread4~ \$0-ping;
#X obj 306 328 delread4~ \$0-pong;
#X obj 369 197 f2s~ 50;
#X obj 93 31 inlet~;
#X obj 153 174 f2s~ 50;
#X obj 306 297 f2s~ 50;
#X obj 93 388 outlet~;
#X obj 306 380 outlet~;
#X obj 306 116 max 0;
#X text 468 206 Part of ELSE \; https://github.com/porres/pd-else;
#X text 470 187 Alexandre Torres Porres (2018);
#X obj 369 31 inlet;
#X obj 306 31 inlet;
#X obj 306 90 f \$1;
#X obj 369 93 f \$2;
#X obj 369 160 clip -1 1;
#X obj 135 306 delwrite~ \$0-pong 5000;
#X obj 104 334 delwrite~ \$0-ping 5000;
#X obj 429 61 lb -init;
#X obj 554 126 declare -path else;
#X connect 0 0 10 0;
#X connect 0 0 21 0;
#X connect 1 0 20 0;
#X connect 2 0 0 1;
#X connect 2 0 1 1;
#X connect 3 0 9 0;
#X connect 4 0 2 0;
#X connect 5 0 11 0;
#X connect 6 0 2 1;
#X connect 7 0 0 0;
#X connect 7 0 1 0;
#X connect 8 0 4 0;
#X connect 9 0 5 0;
#X connect 12 0 3 0;
#X connect 12 0 8 0;
#X connect 15 0 18 0;
#X connect 16 0 17 0;
#X connect 17 0 12 0;
#X connect 18 0 19 0;
#X connect 19 0 6 0;
#X connect 22 0 18 0;
#X connect 22 0 17 0;
