#N canvas 565 228 911 601 10;
#X declare -path else;
#X obj 129 201 hsl 128 15 0 1 0 0 empty empty empty -2 -8 0 10 -262144
-262144 -262144 0 0;
#X obj 34 35 inlet;
#N canvas 525 239 460 647 guts 0;
#X obj 38 29 inlet;
#X obj 38 573 outlet;
#X obj 52 351 s \$0-set.values;
#X obj 52 367 r \$0-set.values;
#N canvas 1065 284 336 520 draw 0;
#X obj 149 130 r \$0-width;
#X obj 193 254 r \$0-height;
#X obj 177 175 - 4;
#X obj 149 152 t b f;
#X obj 128 275 -;
#X obj 128 248 swap;
#X obj 64 249 t f f;
#X obj 64 44 inlet;
#X obj 149 224 i;
#X obj 64 224 i;
#X obj 64 107 clip 0 1;
#X obj 123 107 clip 0 1;
#X msg 64 379 pos \$1 202 \, vis_size \$2 \$3;
#X obj 64 72 unpack;
#X obj 64 275 + 127;
#X obj 64 408 s \$0-cnv;
#X obj 163 328 v width_\$0;
#X obj 149 201 *;
#X obj 64 201 *;
#X obj 64 302 pack float float float;
#X obj 193 275 - 4;
#X connect 0 0 3 0;
#X connect 1 0 20 0;
#X connect 2 0 17 1;
#X connect 2 0 18 1;
#X connect 3 0 17 0;
#X connect 3 0 18 0;
#X connect 3 1 2 0;
#X connect 4 0 19 1;
#X connect 4 0 16 0;
#X connect 5 0 4 0;
#X connect 5 1 4 1;
#X connect 6 0 14 0;
#X connect 6 1 5 0;
#X connect 7 0 13 0;
#X connect 8 0 5 1;
#X connect 9 0 6 0;
#X connect 10 0 18 0;
#X connect 11 0 17 0;
#X connect 12 0 15 0;
#X connect 13 0 10 0;
#X connect 13 1 11 0;
#X connect 14 0 19 0;
#X connect 17 0 8 0;
#X connect 18 0 9 0;
#X connect 19 0 12 0;
#X connect 20 0 19 2;
#X restore 52 395 pd draw;
#X obj 137 419 r \$0-max;
#X obj 112 397 r \$0-min;
#X obj 75 285 sort;
#X obj 38 441 rescale 0 1 0 127;
#N canvas 681 159 356 278 list 0;
#X obj 101 47 inlet;
#X obj 101 191 outlet;
#X obj 159 114 r \$0-max;
#X obj 130 93 r \$0-min;
#X obj 101 138 rescale 0 0 0 1;
#X connect 0 0 4 0;
#X connect 2 0 4 2;
#X connect 3 0 4 1;
#X connect 4 0 1 0;
#X restore 75 203 pd list;
#X obj 307 67 r \$0-mode;
#X obj 238 141 route 0 1 2 3;
#N canvas 764 182 458 657 expand 0;
#X obj 155 32 inlet;
#X obj 155 87 spigot 1;
#X msg 200 64 1;
#X msg 215 88 0;
#X obj 211 279 r \$0-width;
#X obj 211 305 - 4;
#X obj 196 342 /;
#X obj 318 260 r \$0-set.values;
#X obj 212 535 clip 0 1;
#X obj 191 123 trigger bang bang bang bang;
#X obj 292 464 +;
#X obj 297 330 unpack f f;
#X obj 212 431 swap;
#X obj 212 401 t f f;
#X obj 292 535 clip 0 1;
#X obj 212 461 -;
#X obj 339 449 +;
#X obj 339 476 / 2;
#X obj 297 297 list;
#X obj 196 375 * -0.5;
#X obj 43 198 sel 0;
#X msg 101 174 zero;
#X obj 158 299 spigot;
#X msg 43 228 0;
#X msg 235 196 1;
#X obj 271 605 outlet;
#X obj 271 576 pack;
#X obj 99 199 canvas.mouse 3;
#X connect 0 0 1 0;
#X connect 1 0 9 0;
#X connect 2 0 1 1;
#X connect 3 0 1 1;
#X connect 4 0 5 0;
#X connect 5 0 6 1;
#X connect 6 0 19 0;
#X connect 7 0 18 1;
#X connect 8 0 26 0;
#X connect 9 0 24 0;
#X connect 9 1 21 0;
#X connect 9 2 18 0;
#X connect 9 3 3 0;
#X connect 10 0 14 0;
#X connect 11 0 12 1;
#X connect 11 0 16 0;
#X connect 11 1 10 1;
#X connect 11 1 16 1;
#X connect 12 0 15 0;
#X connect 12 1 15 1;
#X connect 13 0 12 0;
#X connect 13 1 10 0;
#X connect 14 0 26 1;
#X connect 15 0 8 0;
#X connect 16 0 17 0;
#X connect 17 0 14 1;
#X connect 17 0 8 2;
#X connect 18 0 11 0;
#X connect 19 0 13 0;
#X connect 20 0 23 0;
#X connect 20 0 2 0;
#X connect 21 0 27 0;
#X connect 22 0 6 0;
#X connect 23 0 22 1;
#X connect 24 0 22 1;
#X connect 26 0 25 0;
#X connect 27 0 20 0;
#X connect 27 2 22 0;
#X restore 294 166 pd expand;
#N canvas 298 66 500 694 extend 0;
#X obj 144 16 inlet;
#X obj 71 281 sel 0;
#X obj 144 80 spigot 1;
#X msg 204 82 0;
#X obj 229 484 +;
#X obj 174 373 r \$0-width;
#X obj 174 397 - 4;
#X obj 158 436 /;
#X msg 130 223 zero;
#X msg 189 54 1;
#X obj 144 112 trigger bang bang float float bang;
#X obj 229 526 clip 0 1;
#N canvas 434 182 410 317 farthest.edge 0;
#X obj 52 19 inlet;
#X obj 241 51 r \$0-set.values;
#X obj 241 78 unpack f f;
#X obj 142 125 expr abs($f1-$f2);
#X obj 262 125 expr abs($f1-$f2);
#X obj 52 125 list;
#X obj 142 275 outlet;
#X obj 142 161 <;
#X msg 142 216 set \, adddollar \$1;
#X obj 142 190 + 1;
#X msg 142 251 \$1;
#X obj 52 51 trigger bang float float;
#X connect 0 0 11 0;
#X connect 1 0 2 0;
#X connect 1 0 5 1;
#X connect 2 0 3 1;
#X connect 2 1 4 1;
#X connect 3 0 7 0;
#X connect 4 0 7 1;
#X connect 5 0 10 0;
#X connect 7 0 9 0;
#X connect 8 0 10 0;
#X connect 9 0 8 0;
#X connect 10 0 6 0;
#X connect 11 0 5 0;
#X connect 11 1 3 0;
#X connect 11 2 4 0;
#X restore 329 599 pd farthest.edge;
#X obj 294 571 t f f;
#X obj 158 349 spigot, f 8;
#X msg 71 309 0;
#X msg 265 250 1;
#X obj 294 598 pack;
#X obj 294 642 outlet;
#X obj 112 248 canvas.mouse 3;
#X connect 0 0 2 0;
#X connect 1 0 9 0;
#X connect 1 0 15 0;
#X connect 2 0 10 0;
#X connect 3 0 2 1;
#X connect 4 0 11 0;
#X connect 5 0 6 0;
#X connect 6 0 7 1;
#X connect 7 0 4 0;
#X connect 8 0 19 0;
#X connect 9 0 2 1;
#X connect 10 0 16 0;
#X connect 10 1 8 0;
#X connect 10 2 4 1;
#X connect 10 3 13 0;
#X connect 10 4 3 0;
#X connect 11 0 17 0;
#X connect 12 0 17 1;
#X connect 13 0 17 0;
#X connect 13 1 12 0;
#X connect 14 0 7 0;
#X connect 15 0 14 1;
#X connect 16 0 14 1;
#X connect 17 0 18 0;
#X connect 19 0 1 0;
#X connect 19 1 14 0;
#X restore 275 196 pd extend;
#N canvas 656 272 516 756 shift 0;
#X obj 123 40 inlet;
#X obj 123 158 spigot 1;
#X msg 168 135 1;
#X msg 183 159 0;
#X obj 211 351 r \$0-width;
#X obj 211 377 - 4;
#X obj 196 414 /;
#X obj 196 449 t f f;
#X obj 199 486 -;
#X obj 321 398 r \$0-set.values;
#X obj 276 570 clip 0 1;
#X obj 321 450 spigot 1;
#X obj 199 516 +;
#X msg 230 492 \$1;
#X obj 276 598 t f f;
#X obj 303 625 +;
#X obj 150 194 trigger bang bang bang bang;
#X msg 249 431 0;
#X msg 366 427 1;
#X msg 381 451 0;
#X obj 47 314 sel 0;
#X msg 100 265 zero;
#X obj 114 394 spigot;
#X msg 65 350 0;
#X msg 219 291 1;
#X floatatom 114 435 5 0 0 0 - - -;
#X obj 402 576 v r_\$0;
#X obj 276 685 outlet;
#X obj 276 656 pack;
#X obj 321 533 expr 1 - r_\$0 \; $f2 - $f1;
#X obj 95 291 canvas.mouse 3;
#X connect 0 0 1 0;
#X connect 1 0 16 0;
#X connect 2 0 1 1;
#X connect 3 0 1 1;
#X connect 4 0 5 0;
#X connect 5 0 6 1;
#X connect 6 0 7 0;
#X connect 7 0 8 1;
#X connect 7 1 8 0;
#X connect 8 0 12 0;
#X connect 9 0 11 0;
#X connect 9 0 13 0;
#X connect 10 0 14 0;
#X connect 11 0 29 0;
#X connect 12 0 10 0;
#X connect 13 0 12 1;
#X connect 14 0 28 0;
#X connect 14 1 15 0;
#X connect 15 0 28 1;
#X connect 16 0 24 0;
#X connect 16 1 21 0;
#X connect 16 2 17 0;
#X connect 16 3 3 0;
#X connect 16 3 19 0;
#X connect 17 0 8 1;
#X connect 18 0 11 1;
#X connect 19 0 11 1;
#X connect 20 0 23 0;
#X connect 20 0 2 0;
#X connect 20 0 18 0;
#X connect 21 0 30 0;
#X connect 22 0 6 0;
#X connect 22 0 25 0;
#X connect 23 0 22 1;
#X connect 24 0 22 1;
#X connect 28 0 27 0;
#X connect 29 0 10 2;
#X connect 29 1 15 1;
#X connect 29 1 26 0;
#X connect 30 0 20 0;
#X connect 30 1 22 0;
#X restore 238 256 pd shift;
#N canvas 845 47 433 643 select 0;
#X obj 116 61 inlet;
#X obj 59 284 sel 0;
#X obj 273 490 t f f;
#X obj 116 122 spigot 1;
#X msg 176 124 0;
#X obj 173 426 +;
#X obj 189 335 r \$0-width;
#X obj 189 359 - 4;
#X obj 173 398 /;
#X msg 98 235 zero;
#X msg 161 96 1;
#X obj 116 154 trigger bang bang float float bang;
#X obj 173 468 clip 0 1;
#X obj 139 364 spigot;
#X msg 59 314 0;
#X msg 169 291 1;
#X obj 273 515 pack;
#X obj 273 541 outlet;
#X obj 98 260 canvas.mouse 3;
#X connect 0 0 3 0;
#X connect 1 0 10 0;
#X connect 1 0 14 0;
#X connect 2 0 16 0;
#X connect 2 1 16 1;
#X connect 3 0 11 0;
#X connect 4 0 3 1;
#X connect 5 0 12 0;
#X connect 6 0 7 0;
#X connect 7 0 8 1;
#X connect 8 0 5 0;
#X connect 9 0 18 0;
#X connect 10 0 3 1;
#X connect 11 0 15 0;
#X connect 11 1 9 0;
#X connect 11 2 5 1;
#X connect 11 3 2 0;
#X connect 11 4 4 0;
#X connect 12 0 16 0;
#X connect 13 0 8 0;
#X connect 14 0 13 1;
#X connect 15 0 13 1;
#X connect 16 0 17 0;
#X connect 18 0 1 0;
#X connect 18 1 13 0;
#X restore 256 226 pd select;
#N canvas 414 122 475 344 hot-keys 0;
#X obj 53 58 keyname;
#X obj 92 83 select Shift_L;
#X msg 92 106 1;
#X obj 53 144 &&;
#X obj 53 168 change;
#X msg 129 108 0;
#X obj 86 199 sel 0;
#X obj 196 29 keyname;
#X msg 235 78 1;
#X obj 196 106 &&;
#X obj 196 130 change;
#X msg 272 80 0;
#X obj 232 161 sel 0;
#X obj 324 92 keyname;
#X msg 363 141 1;
#X obj 324 169 &&;
#X obj 324 193 change;
#X msg 400 143 0;
#X obj 364 224 sel 0;
#X obj 363 117 select Alt_L;
#X obj 196 162 * 2;
#X obj 324 225 * 3;
#X obj 53 275 change;
#X obj 53 304 s \$0-mode;
#X obj 235 54 select Control_L Meta_L;
#X connect 0 0 3 0;
#X connect 0 1 1 0;
#X connect 1 0 2 0;
#X connect 2 0 3 1;
#X connect 3 0 4 0;
#X connect 4 0 6 0;
#X connect 4 0 22 0;
#X connect 5 0 3 1;
#X connect 6 0 5 0;
#X connect 7 0 9 0;
#X connect 7 1 24 0;
#X connect 8 0 9 1;
#X connect 9 0 10 0;
#X connect 10 0 12 0;
#X connect 10 0 20 0;
#X connect 11 0 9 1;
#X connect 12 0 11 0;
#X connect 13 0 15 0;
#X connect 13 1 19 0;
#X connect 14 0 15 1;
#X connect 15 0 16 0;
#X connect 16 0 18 0;
#X connect 16 0 21 0;
#X connect 17 0 15 1;
#X connect 18 0 17 0;
#X connect 19 0 14 0;
#X connect 20 0 22 0;
#X connect 21 0 22 0;
#X connect 22 0 23 0;
#X connect 24 0 8 0;
#X connect 24 1 8 0;
#X restore 279 401 pd hot-keys;
#X obj 38 145 route bang list set;
#N canvas 873 112 394 500 set 0;
#X obj 116 48 inlet;
#X obj 217 138 r \$0-min;
#X obj 256 165 r \$0-max;
#X obj 235 195 swap;
#X obj 202 195 -;
#X obj 115 195 -;
#X obj 241 225 -;
#X obj 226 301 /;
#X obj 115 301 /;
#X obj 137 428 s \$0-set.values;
#X obj 115 335 expr min($f1 \, $f2) \; max($f1 \, $f2);
#X obj 115 381 pack;
#X obj 116 138 unpack;
#X obj 138 101 r \$0-range;
#X obj 117 460 outlet;
#X connect 0 0 12 0;
#X connect 1 0 3 0;
#X connect 1 0 4 1;
#X connect 1 0 5 1;
#X connect 2 0 3 1;
#X connect 3 0 6 0;
#X connect 3 1 6 1;
#X connect 4 0 7 0;
#X connect 5 0 8 0;
#X connect 6 0 7 1;
#X connect 6 0 8 1;
#X connect 7 0 10 1;
#X connect 8 0 10 0;
#X connect 10 0 11 0;
#X connect 10 1 11 1;
#X connect 11 0 9 0;
#X connect 11 0 14 0;
#X connect 12 0 5 0;
#X connect 12 1 4 0;
#X connect 13 0 12 0;
#X restore 138 203 pd set;
#N canvas 387 363 675 353 flags 0;
#X obj 125 72 inlet;
#X obj 248 144 route width height range mode bgcolor fgcolor send receive
, f 59;
#N canvas 819 209 645 629 size 0;
#X obj 210 302 - 7;
#X obj 243 301 - 2;
#X msg 210 351 size \$1 \$2;
#X obj 210 377 s \$0-slider.r;
#X obj 182 76 inlet;
#X obj 104 234 s \$0-width;
#X obj 336 232 s \$0-height;
#X obj 319 74 inlet;
#X obj 183 234 pack2 135 17;
#X obj 183 185 max 15;
#X obj 318 183 max 8;
#X obj 183 545 s \$0-this-patch;
#X obj 210 327 pack;
#X obj 210 279 unpack;
#X msg 183 514 donecanvasdialog 1 -1 2 0 -1 \$1 \$2 \$1 \$2 125 200
\, dirty 0;
#X obj 44 259 s \$0-set-width;
#X obj 443 250 s \$0-set-height;
#X msg 44 239 set \$1;
#X msg 443 226 set \$1;
#X obj 319 355 s \$0-cnv;
#X obj 319 284 v width_\$0;
#X msg 319 331 vis_size \$1 \$2;
#X obj 424 282 - 2;
#X obj 319 309 pack float float;
#X obj 319 258 trigger bang float;
#X obj 182 143 change;
#X obj 319 145 change;
#X obj 213 112 r \$0-set-width;
#X obj 345 116 r \$0-set-height;
#X obj 184 471 message;
#X obj 184 442 del 0;
#X obj 182 419 t b a;
#X connect 0 0 12 0;
#X connect 1 0 12 1;
#X connect 2 0 3 0;
#X connect 4 0 25 0;
#X connect 7 0 26 0;
#X connect 8 0 13 0;
#X connect 8 0 31 0;
#X connect 9 0 5 0;
#X connect 9 0 8 0;
#X connect 9 0 17 0;
#X connect 10 0 6 0;
#X connect 10 0 8 1;
#X connect 10 0 18 0;
#X connect 10 0 24 0;
#X connect 12 0 2 0;
#X connect 13 0 0 0;
#X connect 13 1 1 0;
#X connect 14 0 11 0;
#X connect 17 0 15 0;
#X connect 18 0 16 0;
#X connect 20 0 23 0;
#X connect 21 0 19 0;
#X connect 22 0 23 1;
#X connect 23 0 21 0;
#X connect 24 0 20 0;
#X connect 24 1 22 0;
#X connect 25 0 9 0;
#X connect 26 0 10 0;
#X connect 27 0 25 0;
#X connect 28 0 26 0;
#X connect 29 0 14 0;
#X connect 30 0 29 0;
#X connect 31 0 30 0;
#X connect 31 1 29 1;
#X restore 253 210 pd size;
#N canvas 718 437 554 409 range 0;
#X obj 130 41 inlet;
#X obj 194 168 s \$0-min;
#X obj 281 168 s \$0-max;
#X obj 390 89 r \$0-set.values;
#X obj 130 246 list;
#N canvas 734 23 245 242 not.zero.len 0;
#X obj 78 37 inlet;
#X obj 78 64 t l l;
#X obj 111 133 +;
#X obj 66 167 outlet;
#X obj 111 167 outlet;
#X obj 126 104 ==;
#X obj 78 103 unpack;
#X connect 0 0 1 0;
#X connect 1 0 6 0;
#X connect 1 1 5 0;
#X connect 2 0 4 0;
#X connect 5 0 2 1;
#X connect 6 0 3 0;
#X connect 6 1 2 0;
#X restore 194 131 pd not.zero.len;
#X obj 130 106 trigger bang list bang;
#X obj 474 147 r \$0-max;
#X obj 441 122 r \$0-min;
#X obj 345 170 rescale 0 1 0 127;
#X obj 130 332 s \$0-range;
#X obj 345 118 list 0 0;
#X obj 231 298 s \$0-set-range;
#X obj 231 272 insert set;
#X obj 231 243 pack;
#X obj 130 76 changed;
#X obj 233 52 r \$0-set-range;
#X obj 233 75 route set;
#X connect 0 0 15 0;
#X connect 3 0 11 1;
#X connect 4 0 10 0;
#X connect 5 0 1 0;
#X connect 5 0 14 0;
#X connect 5 1 2 0;
#X connect 5 1 14 1;
#X connect 6 0 4 0;
#X connect 6 1 5 0;
#X connect 6 2 11 0;
#X connect 7 0 9 4;
#X connect 8 0 9 3;
#X connect 9 0 4 1;
#X connect 11 0 9 0;
#X connect 13 0 12 0;
#X connect 14 0 13 0;
#X connect 15 0 6 0;
#X connect 16 0 17 0;
#X connect 17 0 15 1;
#X restore 336 268 pd range;
#N canvas 198 175 330 353 mode 0;
#X obj 120 50 inlet;
#X obj 120 115 clip 0 3;
#X obj 120 93 i;
#X obj 120 256 s \$0-mode;
#X msg 141 196 set \$1;
#X obj 142 219 s \$0-set-mode;
#X obj 189 129 r \$0-set-mode;
#X obj 120 162 change;
#X connect 0 0 2 0;
#X connect 1 0 7 0;
#X connect 2 0 1 0;
#X connect 4 0 5 0;
#X connect 6 0 7 0;
#X connect 7 0 4 0;
#X connect 7 0 3 0;
#X restore 381 239 pd mode;
#N canvas 229 359 770 458 colors 0;
#X obj 120 59 inlet;
#X obj 458 60 inlet;
#X obj 120 119 changed;
#X obj 119 335 s \$0-slider.r;
#X msg 120 241 rgb \$1 \$2 \$3;
#X obj 144 205 s \$0-set-bgcolor;
#X obj 144 177 insert set;
#X obj 458 131 changed;
#X msg 458 252 rgb \$1 \$2 \$3;
#X msg 458 302 color \$1 \$1;
#X obj 478 180 insert set;
#X obj 458 340 s \$0-cnv;
#X obj 478 211 s \$0-set-fgcolor;
#X obj 228 106 r \$0-set-bgcolor;
#X obj 228 132 route set;
#X obj 566 141 route set;
#X obj 566 115 r \$0-set-fgcolor;
#X msg 119 307 color \$1 \$1 \$1;
#X obj 120 267 colors;
#X obj 458 278 colors;
#X connect 0 0 2 0;
#X connect 1 0 7 0;
#X connect 2 0 6 0;
#X connect 2 0 4 0;
#X connect 4 0 18 0;
#X connect 6 0 5 0;
#X connect 7 0 10 0;
#X connect 7 0 8 0;
#X connect 8 0 19 0;
#X connect 9 0 11 0;
#X connect 10 0 12 0;
#X connect 13 0 14 0;
#X connect 14 0 2 1;
#X connect 15 0 7 1;
#X connect 16 0 15 0;
#X connect 17 0 3 0;
#X connect 18 0 17 0;
#X connect 19 0 9 0;
#X restore 418 208 pd colors;
#N canvas 633 353 1002 527 send 0;
#X obj 174 51 inlet;
#X obj 632 51 inlet;
#X obj 280 351 s \$0-s-sym;
#X obj 746 331 s \$0-r-sym;
#X obj 174 202 symbol;
#X obj 632 182 symbol;
#X obj 280 269 dollsym 1;
#X obj 746 249 dollsym 1;
#X obj 632 215 sel empty;
#X obj 174 235 sel empty;
#X obj 298 321 s \$0-set-s-sym;
#X obj 766 305 s \$0-set-r-sym;
#X msg 766 279 set \$1;
#X msg 300 298 set \$1;
#X obj 164 390 s \$0-s-spigot;
#X msg 164 351 0;
#X msg 206 350 1;
#X msg 611 327 0;
#X msg 653 326 1;
#X obj 611 366 s \$0-r-spigot;
#X obj 173 165 changed;
#X obj 242 139 route set;
#X obj 243 111 r \$0-set-s-sym;
#X obj 629 143 changed;
#X obj 698 117 route set;
#X obj 699 89 r \$0-set-r-sym;
#X connect 0 0 20 0;
#X connect 1 0 23 0;
#X connect 4 0 9 0;
#X connect 5 0 8 0;
#X connect 6 0 2 0;
#X connect 6 0 13 0;
#X connect 7 0 3 0;
#X connect 7 0 12 0;
#X connect 8 0 17 0;
#X connect 8 1 7 0;
#X connect 8 1 18 0;
#X connect 9 0 15 0;
#X connect 9 1 6 0;
#X connect 9 1 16 0;
#X connect 12 0 11 0;
#X connect 13 0 10 0;
#X connect 15 0 14 0;
#X connect 16 0 14 0;
#X connect 17 0 19 0;
#X connect 18 0 19 0;
#X connect 20 0 4 0;
#X connect 21 0 20 1;
#X connect 22 0 21 0;
#X connect 23 0 5 0;
#X connect 24 0 23 1;
#X connect 25 0 24 0;
#X restore 511 204 pd send \; receive;
#X obj 125 145 s \$0-setarg;
#X obj 125 114 trigger bang anything;
#X connect 0 0 8 0;
#X connect 1 0 2 0;
#X connect 1 1 2 1;
#X connect 1 2 3 0;
#X connect 1 3 4 0;
#X connect 1 4 5 0;
#X connect 1 5 5 1;
#X connect 1 6 6 0;
#X connect 1 7 6 1;
#X connect 8 0 7 0;
#X connect 8 1 1 0;
#X restore 149 170 pd flags;
#X obj 238 90 list prepend;
#X obj 238 29 inlet;
#X obj 38 323 message, f 17;
#X obj 209 344 canvas.setname \$0-this-patch 1;
#X obj 209 364 canvas.setname \$0-parent 2;
#N canvas 521 341 696 500 init 0;
#X obj 61 118 args -;
#N canvas 444 172 664 593 size 0;
#X obj 210 302 - 7;
#X obj 243 301 - 2;
#X msg 210 351 size \$1 \$2;
#X obj 210 377 s \$0-slider.r;
#X obj 182 76 inlet;
#X obj 104 234 s \$0-width;
#X obj 336 232 s \$0-height;
#X obj 319 74 inlet;
#X obj 183 234 pack2 135 17;
#X obj 183 185 max 15;
#X obj 318 183 max 8;
#X obj 183 535 s \$0-this-patch;
#X obj 210 327 pack;
#X obj 210 279 unpack;
#X msg 183 504 donecanvasdialog 1 -1 2 0 -1 \$1 \$2 \$1 \$2 125 200
\, dirty 0;
#X obj 44 259 s \$0-set-width;
#X obj 443 250 s \$0-set-height;
#X msg 44 239 set \$1;
#X msg 443 226 set \$1;
#X obj 319 355 s \$0-cnv;
#X obj 319 284 v width_\$0;
#X msg 319 331 vis_size \$1 \$2;
#X obj 424 282 - 2;
#X obj 319 309 pack float float;
#X obj 319 258 trigger bang float;
#X obj 184 471 message;
#X obj 184 442 del 0;
#X obj 182 419 t b a;
#X connect 0 0 12 0;
#X connect 1 0 12 1;
#X connect 2 0 3 0;
#X connect 4 0 9 0;
#X connect 7 0 10 0;
#X connect 8 0 13 0;
#X connect 8 0 27 0;
#X connect 9 0 5 0;
#X connect 9 0 8 0;
#X connect 9 0 17 0;
#X connect 10 0 6 0;
#X connect 10 0 8 1;
#X connect 10 0 18 0;
#X connect 10 0 24 0;
#X connect 12 0 2 0;
#X connect 13 0 0 0;
#X connect 13 1 1 0;
#X connect 14 0 11 0;
#X connect 17 0 15 0;
#X connect 18 0 16 0;
#X connect 20 0 23 0;
#X connect 21 0 19 0;
#X connect 22 0 23 1;
#X connect 23 0 21 0;
#X connect 24 0 20 0;
#X connect 24 1 22 0;
#X connect 25 0 14 0;
#X connect 26 0 25 0;
#X connect 27 0 26 0;
#X connect 27 1 25 1;
#X restore 93 372 pd size;
#N canvas 68 412 511 390 range 0;
#X obj 60 31 inlet;
#X obj 124 158 s \$0-min;
#X obj 211 158 s \$0-max;
#X obj 296 84 r \$0-set.values;
#X obj 60 236 list;
#N canvas 734 23 245 242 not.zero.len 0;
#X obj 78 37 inlet;
#X obj 78 64 t l l;
#X obj 111 133 +;
#X obj 66 167 outlet;
#X obj 111 167 outlet;
#X obj 126 104 ==;
#X obj 78 103 unpack;
#X connect 0 0 1 0;
#X connect 1 0 6 0;
#X connect 1 1 5 0;
#X connect 2 0 4 0;
#X connect 5 0 2 1;
#X connect 6 0 3 0;
#X connect 6 1 2 0;
#X restore 124 121 pd not.zero.len;
#X obj 60 96 trigger bang list bang;
#X obj 404 137 r \$0-max;
#X obj 371 112 r \$0-min;
#X obj 275 160 rescale 0 1 0 127;
#X obj 60 322 s \$0-range;
#X obj 275 108 list 0 0;
#X obj 250 56 bng 15 250 50 0 empty empty empty 17 7 0 10 -262144 -1
-1;
#X obj 145 278 s \$0-set-range;
#X obj 145 255 insert set;
#X obj 161 233 pack;
#X connect 0 0 6 0;
#X connect 3 0 11 1;
#X connect 4 0 10 0;
#X connect 5 0 1 0;
#X connect 5 0 15 0;
#X connect 5 1 2 0;
#X connect 5 1 15 1;
#X connect 6 0 4 0;
#X connect 6 1 5 0;
#X connect 6 2 11 0;
#X connect 7 0 9 4;
#X connect 8 0 9 3;
#X connect 9 0 4 1;
#X connect 11 0 9 0;
#X connect 12 0 11 0;
#X connect 14 0 13 0;
#X connect 15 0 14 0;
#X restore 168 372 pd range;
#N canvas 198 175 330 353 mode 0;
#X obj 96 62 inlet;
#X obj 96 144 clip 0 3;
#X obj 96 105 i;
#X obj 96 268 s \$0-mode;
#X msg 117 208 set \$1;
#X obj 118 231 s \$0-set-mode;
#X connect 0 0 2 0;
#X connect 1 0 4 0;
#X connect 1 0 3 0;
#X connect 2 0 1 0;
#X connect 4 0 5 0;
#X restore 237 372 pd mode;
#N canvas 577 185 600 409 colors 0;
#X obj 129 59 inlet;
#X obj 354 64 inlet;
#X msg 129 188 rgb \$1 \$2 \$3;
#X msg 354 203 rgb \$1 \$2 \$3;
#X msg 354 253 color \$1 \$1;
#X obj 153 152 s \$0-set-bgcolor;
#X obj 153 124 insert set;
#X obj 374 131 insert set;
#X obj 354 291 s \$0-cnv;
#X obj 374 162 s \$0-set-fgcolor;
#X obj 128 283 s \$0-slider.r;
#X msg 128 255 color \$1 \$1 \$1;
#X obj 129 214 colors;
#X obj 354 229 colors;
#X connect 0 0 2 0;
#X connect 0 0 6 0;
#X connect 1 0 3 0;
#X connect 1 0 7 0;
#X connect 2 0 12 0;
#X connect 3 0 13 0;
#X connect 4 0 8 0;
#X connect 6 0 5 0;
#X connect 7 0 9 0;
#X connect 11 0 10 0;
#X connect 12 0 11 0;
#X connect 13 0 4 0;
#X restore 314 372 pd colors;
#N canvas 347 415 450 322 send 0;
#X obj 60 44 inlet;
#X obj 233 44 inlet;
#X obj 111 224 s \$0-s-sym;
#X obj 284 224 s \$0-r-sym;
#X obj 60 75 symbol;
#X obj 233 75 symbol;
#X obj 111 142 dollsym 1;
#X obj 284 142 dollsym 1;
#X obj 233 108 sel empty;
#X obj 60 108 sel empty;
#X obj 131 194 s \$0-set-s-sym;
#X obj 304 198 s \$0-set-r-sym;
#X msg 304 172 set \$1;
#X msg 131 171 set \$1;
#X connect 0 0 4 0;
#X connect 1 0 5 0;
#X connect 4 0 9 0;
#X connect 5 0 8 0;
#X connect 6 0 2 0;
#X connect 6 0 13 0;
#X connect 7 0 3 0;
#X connect 7 0 12 0;
#X connect 8 1 7 0;
#X connect 9 1 6 0;
#X connect 12 0 11 0;
#X connect 13 0 10 0;
#X restore 420 371 pd send \; receive;
#X obj 149 263 pack;
#X obj 214 263 pack f f f;
#X obj 284 263 pack f f f;
#X obj 61 143 t a b;
#N canvas 489 48 602 334 set-args 0;
#X obj 190 88 r \$0-set-range;
#X obj 133 39 r \$0-set-width;
#X obj 161 65 r \$0-set-height;
#X obj 248 113 r \$0-set-mode;
#X obj 276 137 r \$0-set-bgcolor;
#X obj 363 167 r \$0-set-fgcolor;
#X obj 449 193 r \$0-set-s-sym;
#X obj 478 216 r \$0-set-r-sym;
#X obj 133 242 pack2 135 17 0 127 0 255 255 255 96 96 96 empty empty
;
#X obj 134 275 outlet;
#X obj 52 145 r \$0-setarg;
#X connect 0 0 8 2;
#X connect 1 0 8 0;
#X connect 2 0 8 1;
#X connect 3 0 8 4;
#X connect 4 0 8 5;
#X connect 5 0 8 8;
#X connect 6 0 8 11;
#X connect 7 0 8 12;
#X connect 8 0 9 0;
#X connect 10 0 8 0;
#X restore 71 95 pd set-args;
#X obj 61 167 route bang list, f 5;
#X obj 399 181 t b a;
#X obj 449 209 s \$0-setarg;
#X obj 36 87 bng 15 250 50 0 empty empty empty 17 7 0 10 -262144 -1
-1;
#X obj 103 230 unpack float float float float float float float float
float float float symbol symbol float, f 51;
#X obj 426 230 route -width -height -range -mode -bgcolor -fgcolor
-send -receive, f 38;
#X msg 192 108 135 17 0 127 0 255 255 255 96 96 96 empty empty;
#X msg 103 143 135 17 0 127 0 255 255 255 96 96 96 empty empty;
#X obj 61 71 lb -init;
#X connect 0 0 9 0;
#X connect 6 0 2 0;
#X connect 7 0 4 0;
#X connect 8 0 4 1;
#X connect 9 0 11 0;
#X connect 9 1 18 0;
#X connect 10 0 0 0;
#X connect 11 1 15 0;
#X connect 11 2 12 0;
#X connect 12 0 13 0;
#X connect 12 1 16 0;
#X connect 14 0 0 0;
#X connect 15 0 1 0;
#X connect 15 1 1 1;
#X connect 15 2 6 0;
#X connect 15 3 6 1;
#X connect 15 4 3 0;
#X connect 15 5 7 0;
#X connect 15 6 7 1;
#X connect 15 7 7 2;
#X connect 15 8 8 0;
#X connect 15 9 8 1;
#X connect 15 10 8 2;
#X connect 15 11 5 0;
#X connect 15 12 5 1;
#X connect 16 0 1 0;
#X connect 16 1 1 1;
#X connect 16 2 2 0;
#X connect 16 3 3 0;
#X connect 16 4 4 0;
#X connect 16 5 4 1;
#X connect 16 6 5 0;
#X connect 16 7 5 1;
#X connect 18 0 15 0;
#X connect 19 0 0 0;
#X restore 291 437 pd init;
#N canvas 68 23 450 300 send 0;
#X obj 134 180 r \$0-s-sym;
#X obj 113 203 send;
#X obj 113 132 spigot;
#X obj 108 50 inlet;
#X obj 147 101 r \$0-s-spigot;
#X connect 0 0 1 1;
#X connect 2 0 1 0;
#X connect 3 0 2 0;
#X connect 4 0 2 1;
#X restore 57 475 pd send;
#N canvas 68 23 450 392 receive 0;
#X obj 115 139 receiver;
#X obj 115 71 r \$0-r-sym;
#X obj 117 204 spigot;
#X obj 115 265 outlet;
#X connect 0 0 2 0;
#X connect 1 0 0 0;
#X connect 2 0 3 0;
#X restore 66 105 pd receive;
#X obj 298 301 declare -path else;
#X connect 0 0 17 0;
#X connect 3 0 4 0;
#X connect 5 0 8 4;
#X connect 6 0 8 3;
#X connect 7 0 22 0;
#X connect 8 0 1 0;
#X connect 8 0 26 0;
#X connect 9 0 7 0;
#X connect 10 0 20 1;
#X connect 11 0 14 0;
#X connect 11 1 15 0;
#X connect 11 2 13 0;
#X connect 11 3 12 0;
#X connect 12 0 7 0;
#X connect 13 0 7 0;
#X connect 14 0 7 0;
#X connect 15 0 7 0;
#X connect 17 0 22 0;
#X connect 17 1 9 0;
#X connect 17 2 18 0;
#X connect 17 3 19 0;
#X connect 18 0 22 1;
#X connect 20 0 11 0;
#X connect 21 0 20 0;
#X connect 22 0 2 0;
#X connect 22 0 8 0;
#X connect 27 0 17 0;
#X restore 34 263 pd guts;
#X obj 34 523 outlet;
#X text 86 101 Part of ELSE \; https://github.com/porres/pd-else;
#X text 85 82 Alexandre Torres Porres (2019);
#X obj 126 169 r \$0-slider.r;
#X obj 127 202 cnv 1 1 13 empty \$0-cnv empty 20 12 0 14 -99865 -66577
0;
#X connect 0 0 2 1;
#X connect 1 0 2 0;
#X connect 2 0 3 0;
#X connect 6 0 0 0;
#X coords 0 -1 135 17 135 17 2 125 200;
