#N canvas 458 348 604 317 10;
#X declare -path else;
#X obj 192 281 outlet~;
#X obj 79 20 inlet;
#X obj 29 20 inlet~;
#X obj 120 21 inlet;
#X obj 56 134 resonant~;
#X obj 207 20 inlet;
#X obj 192 179 *~;
#X obj 251 17 inlet;
#X text 375 131 Part of ELSE \; https://github.com/porres/pd-else;
#X text 377 112 Alexandre Torres Porres (2017);
#X text 379 176 This is an abstraction used on the [resonbank~] object
, f 27;
#X obj 279 226 sel 0;
#X msg 279 250 1;
#X obj 207 148 float2sig~;
#X obj 79 98 float2sig~;
#X obj 92 59 float2sig~;
#X obj 279 203 f \$1;
#X obj 192 226 /~ \$1;
#X obj 279 179 lb -init;
#X obj 393 66 declare -path else;
#X connect 1 0 14 0;
#X connect 2 0 4 0;
#X connect 3 0 15 0;
#X connect 4 0 6 0;
#X connect 5 0 13 0;
#X connect 6 0 17 0;
#X connect 7 0 13 1;
#X connect 7 0 14 1;
#X connect 7 0 15 1;
#X connect 11 0 12 0;
#X connect 12 0 17 1;
#X connect 13 0 6 1;
#X connect 14 0 4 1;
#X connect 15 0 4 2;
#X connect 16 0 11 0;
#X connect 17 0 0 0;
#X connect 18 0 16 0;
