#N canvas 709 269 582 312 10;
#X declare -path else;
#X text 307 141 Part of ELSE \; https://github.com/porres/pd-else;
#X text 309 122 Alexandre Torres Porres (2017);
#N canvas 505 98 698 549 load_args 0;
#X obj 95 268 order;
#X obj 176 269 order;
#X obj 255 270 order;
#X obj 341 270 order;
#X obj 473 280 sel 0;
#X obj 149 132 break -;
#X obj 387 209 list split 1;
#X msg 427 310 10;
#X obj 427 256 moses 0;
#X msg 429 334 all \$1;
#X obj 427 233 route float;
#X msg 383 113 all 1;
#X obj 149 106 trigger anything bang;
#X obj 428 396 outlet;
#X obj 317 382 outlet;
#X obj 215 361 outlet;
#X obj 136 363 outlet;
#X obj 149 157 route -freq -decay -amp -ramp;
#X obj 145 60 route bang;
#X obj 145 33 inlet;
#X connect 0 0 16 0;
#X connect 1 0 15 0;
#X connect 2 0 14 0;
#X connect 3 0 13 0;
#X connect 4 0 7 0;
#X connect 4 1 9 0;
#X connect 5 0 17 0;
#X connect 6 1 10 0;
#X connect 7 0 9 0;
#X connect 8 0 7 0;
#X connect 8 1 4 0;
#X connect 9 0 13 0;
#X connect 10 0 8 0;
#X connect 11 0 14 0;
#X connect 12 0 5 0;
#X connect 12 1 11 0;
#X connect 17 0 0 0;
#X connect 17 1 1 0;
#X connect 17 2 2 0;
#X connect 17 3 3 0;
#X connect 17 4 6 0;
#X connect 18 0 11 0;
#X connect 18 0 7 0;
#X connect 18 1 12 0;
#X connect 19 0 18 0;
#X restore 190 117 pd load_args;
#N canvas 1037 468 483 412 route 0;
#X obj 83 184 order;
#X obj 164 185 order;
#X obj 243 186 order;
#X obj 329 186 order;
#X obj 328 280 outlet;
#X obj 243 273 outlet;
#X obj 168 273 outlet;
#X obj 93 279 outlet;
#X obj 137 83 inlet;
#X obj 138 120 route freq decay amp ramp;
#X connect 0 0 7 0;
#X connect 1 0 6 0;
#X connect 2 0 5 0;
#X connect 3 0 4 0;
#X connect 8 0 9 0;
#X connect 9 0 0 0;
#X connect 9 1 1 0;
#X connect 9 2 2 0;
#X connect 9 3 3 0;
#X restore 112 117 pd route;
#X obj 61 221 outlet~;
#X obj 190 93 args;
#X obj 61 175 clone -x \$1 resonclone \$1;
#X obj 53 34 inlet~ fwd;
#X obj 190 62 lb -init;
#X obj 334 86 declare -path else;
#X connect 2 0 6 1;
#X connect 2 1 6 2;
#X connect 2 2 6 3;
#X connect 2 3 6 4;
#X connect 3 0 6 1;
#X connect 3 1 6 2;
#X connect 3 2 6 3;
#X connect 3 3 6 4;
#X connect 5 0 2 0;
#X connect 6 0 4 0;
#X connect 7 0 6 0;
#X connect 7 1 3 0;
#X connect 8 0 5 0;
