#N canvas 739 259 598 342 10;
#X declare -path else;
#N canvas 404 536 523 256 guts 0;
#X obj 243 67 bng 15 250 50 0 empty empty empty 17 7 0 10 -228856 -1
-1;
#X text 261 66 before saving;
#X obj 74 40 inlet~;
#X obj 138 41 inlet;
#X obj 243 36 inlet;
#X obj 243 113 s pd-\$0-array-cnv;
#X msg 243 91 clear;
#X obj 130 196 tabwrite~;
#X obj 146 173 r \$0-set-array;
#N canvas 568 407 343 422 metro 0;
#X obj 83 329 outlet;
#X obj 108 293 metro;
#X obj 83 89 v rate_\$0;
#X obj 129 179 v rate_\$0;
#X msg 129 232 1;
#X msg 96 232 0;
#X obj 83 150 select 0 1;
#X obj 83 51 r \$0-set-metro;
#X obj 83 120 > 0;
#X obj 129 205 trigger bang float;
#X obj 108 255 change;
#X connect 1 0 0 0;
#X connect 2 0 8 0;
#X connect 3 0 9 0;
#X connect 4 0 10 0;
#X connect 5 0 10 0;
#X connect 6 0 5 0;
#X connect 6 0 0 0;
#X connect 6 1 3 0;
#X connect 7 0 2 0;
#X connect 8 0 6 0;
#X connect 9 0 4 0;
#X connect 9 1 1 1;
#X connect 10 0 1 0;
#X restore 130 152 pd metro;
#X obj 138 94 r \$0-block;
#N canvas 538 297 228 176 amp 0;
#X obj 72 24 inlet~;
#N canvas 836 126 450 300 lin 0;
#X obj 95 145 clip~ 0 0.5;
#X obj 218 121 r \$0-scale-mode;
#X obj 95 103 inlet~;
#X obj 102 192 outlet~;
#X obj 220 150 == 0;
#X obj 223 178 switch~;
#X connect 0 0 3 0;
#X connect 1 0 4 0;
#X connect 2 0 0 0;
#X connect 4 0 5 0;
#X restore 72 61 pd lin;
#N canvas 64 23 450 300 db 0;
#X obj 218 121 r \$0-scale-mode;
#X obj 95 74 inlet~;
#X obj 102 192 outlet~;
#X obj 223 178 switch~;
#X obj 220 150 == 1;
#X obj 94 107 rmstodb~;
#X obj 95 145 clip~ 0 100;
#X connect 0 0 4 0;
#X connect 1 0 5 0;
#X connect 4 0 3 0;
#X connect 5 0 6 0;
#X connect 6 0 2 0;
#X restore 119 61 pd db;
#X obj 89 115 outlet~;
#X connect 0 0 1 0;
#X connect 0 0 2 0;
#X connect 1 0 3 0;
#X connect 2 0 3 0;
#X restore 74 148 pd amp;
#N canvas 516 157 269 184 freq 0;
#N canvas 212 91 469 251 log 0;
#X obj 44 56 inlet~;
#X obj 44 130 outlet~;
#N canvas 124 143 450 300 write-table 0;
#X obj 37 121 tabsend~ \$0-Amp;
#X obj 35 78 inlet~;
#X obj 87 216 outlet~;
#X connect 1 0 0 0;
#X restore 44 79 pd write-table;
#N canvas 64 23 450 300 read-table 0;
#X obj 36 196 tabreceive~ \$0-log_index;
#X obj 36 228 tabread4~ \$0-Amp;
#X obj 55 133 inlet~;
#X obj 52 265 outlet~;
#X connect 0 0 1 0;
#X connect 1 0 3 0;
#X restore 44 102 pd read-table;
#N canvas 290 445 600 444 set 0;
#X obj 109 224 tabwrite \$0-log_index;
#X obj 109 254 table \$0-log_index 1024;
#X obj 110 284 table \$0-Amp 1024;
#X obj 230 49 r \$0-fft-size;
#X obj 230 89 t f f;
#X obj 403 143 v size_\$0;
#X obj 406 204 s \$0-log_index;
#X msg 393 170 resize \$1;
#X obj 393 233 s \$0-Amp;
#X obj 392 116 * 0.5;
#X obj 109 152 loop;
#X obj 109 180 expr pow(size_\$0 - 1 \, $f1/( size_\$0 - 2)) \; $f1
+ 1;
#X connect 3 0 4 0;
#X connect 4 0 10 0;
#X connect 4 1 9 0;
#X connect 7 0 6 0;
#X connect 7 0 8 0;
#X connect 9 0 7 0;
#X connect 9 0 5 0;
#X connect 10 0 11 0;
#X connect 11 0 0 0;
#X connect 11 1 0 1;
#X restore 149 91 pd set tables;
#X obj 278 126 switch~;
#X obj 275 98 == 1;
#X obj 273 70 r \$0-log;
#X connect 0 0 2 0;
#X connect 2 0 3 0;
#X connect 3 0 1 0;
#X connect 6 0 5 0;
#X connect 7 0 6 0;
#X restore 143 75 pd log;
#N canvas 212 134 313 193 lin 0;
#X obj 47 56 inlet~;
#X obj 45 96 outlet~;
#X obj 144 115 switch~;
#X obj 139 59 r \$0-log;
#X obj 141 87 == 0;
#X connect 0 0 1 0;
#X connect 3 0 4 0;
#X connect 4 0 2 0;
#X restore 57 76 pd lin;
#X obj 98 114 outlet~;
#X obj 103 35 inlet~;
#X connect 0 0 2 0;
#X connect 1 0 2 0;
#X connect 3 0 1 0;
#X connect 3 0 0 0;
#X restore 74 119 pd freq;
#N canvas 480 150 355 236 fft 0;
#X obj 61 68 rfft~;
#X obj 61 96 mag~;
#X obj 105 124 r \$0-fft-size;
#X obj 61 24 inlet~;
#X obj 61 187 outlet~;
#X obj 61 137 *~ 0;
#X text 230 146 normalization;
#X obj 61 46 hann~;
#X obj 105 147 expr 1./($f1*0.25);
#X connect 0 0 1 0;
#X connect 0 1 1 1;
#X connect 1 0 5 0;
#X connect 2 0 8 0;
#X connect 3 0 7 0;
#X connect 5 0 4 0;
#X connect 7 0 0 0;
#X connect 8 0 5 1;
#X restore 74 92 pd fft;
#N canvas 834 210 643 645 set 0;
#X obj 85 46 inlet;
#X obj 336 525 s \$0-scale-mode;
#X obj 336 501 != 0;
#X obj 267 501 != 0;
#N canvas 557 180 454 284 set-array 0;
#N canvas 64 23 381 397 init-name 0;
#X obj 176 68 expr \$0 * 1000 + 1 \; \$0 * 1000 + 2;
#X obj 225 175 t b f;
#X obj 195 219 list split;
#X obj 223 241 list split 1;
#X obj 176 131 t f f;
#X obj 176 153 div 2;
#X obj 225 153 mod 2;
#X msg 195 197 32 160;
#X obj 101 274 list tosymbol;
#X obj 176 109 trigger float bang, f 19;
#X obj 223 263 list append, f 15;
#X obj 223 287 trigger list;
#X obj 106 237 list append;
#X obj 106 195 sel 0;
#X obj 75 29 inlet;
#X obj 75 80 t b b;
#X obj 101 312 s \$0-name;
#X obj 75 344 outlet;
#X text 163 314 invisible name;
#X connect 0 0 9 0;
#X connect 1 0 7 0;
#X connect 1 1 2 1;
#X connect 2 1 3 0;
#X connect 3 0 10 0;
#X connect 4 0 5 0;
#X connect 4 1 6 0;
#X connect 5 0 13 0;
#X connect 6 0 1 0;
#X connect 7 0 2 0;
#X connect 8 0 16 0;
#X connect 9 0 4 0;
#X connect 9 1 10 1;
#X connect 10 0 11 0;
#X connect 11 0 10 1;
#X connect 11 0 12 1;
#X connect 12 0 8 0;
#X connect 13 0 12 0;
#X connect 13 1 4 0;
#X connect 14 0 15 0;
#X connect 15 0 17 0;
#X connect 15 1 0 0;
#X restore 70 115 pd init-name;
#X obj 70 139 pack \$0 symbol;
#X obj 128 90 s pd-\$0-array-cnv;
#X obj 70 89 t b b;
#X msg 128 67 clear;
#X obj 151 115 r \$0-name;
#X obj 70 34 inlet;
#X obj 263 78 r pd-dsp-stopped;
#X msg 263 101 const 0;
#X obj 263 126 send;
#X obj 298 126 r \$0-name;
#X obj 48 62 bng 15 250 50 0 empty empty empty 17 7 0 10 -262144 -1
-1;
#X msg 70 165 \; pd-\$1-array-cnv graph \$1-graph \; pd-\$1-graph pop
\, array \$2 0 float 1 \; \$1-set-array set \$2, f 46;
#X connect 0 0 1 0;
#X connect 1 0 12 0;
#X connect 3 0 0 0;
#X connect 3 1 4 0;
#X connect 4 0 2 0;
#X connect 5 0 1 1;
#X connect 6 0 3 0;
#X connect 7 0 8 0;
#X connect 8 0 9 0;
#X connect 10 0 9 1;
#X connect 11 0 3 0;
#X restore 362 144 pd set-array;
#N canvas 837 117 459 468 set-size 0;
#X obj 147 38 inlet;
#X obj 164 227 s \$0-fft-size;
#X obj 175 192 s \$0-block;
#X obj 147 79 log 2;
#X obj 147 101 int;
#X obj 147 122 max 7;
#X obj 147 144 expr pow(2 \, $f1);
#X obj 147 272 * 0.5;
#X msg 147 312 resize \$1;
#X obj 46 284 * 0.125;
#X msg 46 312 xticks \$1 \$1 1;
#X obj 249 265 r \$0-scale-mode;
#X obj 164 338 pack2 bounds 0 0.5 512 0;
#X obj 249 288 expr if($f1 == 0 \, 0.5 \, 100);
#X obj 147 395 send;
#X obj 168 372 r \$0-name;
#X floatatom 296 388 5 0 0 0 - - -;
#X msg 175 169 set \$1;
#X connect 0 0 3 0;
#X connect 3 0 4 0;
#X connect 4 0 5 0;
#X connect 5 0 6 0;
#X connect 6 0 1 0;
#X connect 6 0 17 0;
#X connect 6 0 7 0;
#X connect 6 0 9 0;
#X connect 7 0 8 0;
#X connect 7 0 12 3;
#X connect 7 0 16 0;
#X connect 8 0 14 0;
#X connect 9 0 10 0;
#X connect 10 0 14 0;
#X connect 11 0 13 0;
#X connect 12 0 14 0;
#X connect 13 0 12 2;
#X connect 15 0 14 1;
#X connect 17 0 2 0;
#X restore 116 525 pd set-size;
#N canvas 70 34 724 296 set-args 0;
#X msg 96 130 set \$1;
#X msg 192 130 set \$1;
#X obj 84 50 inlet;
#X obj 84 196 outlet;
#X msg 360 130 set \$1 \$2;
#X obj 360 106 r \$0-set-dim;
#X msg 301 130 set \$1;
#X obj 96 106 r \$0-fft-size;
#X obj 192 106 r \$0-scale-mode;
#X obj 301 106 r \$0-log;
#X obj 84 158 pack2 0 0 0 0 0 100, f 74;
#X obj 524 111 r \$0-set-rate;
#X msg 524 135 set \$1;
#X connect 0 0 10 0;
#X connect 1 0 10 1;
#X connect 2 0 10 0;
#X connect 4 0 10 3;
#X connect 5 0 4 0;
#X connect 6 0 10 2;
#X connect 7 0 0 0;
#X connect 8 0 1 0;
#X connect 9 0 6 0;
#X connect 10 0 3 0;
#X connect 11 0 12 0;
#X connect 12 0 10 5;
#X restore 85 117 pd set-args;
#X obj 85 82 trigger bang anything;
#X obj 142 230 route float list, f 26;
#X obj 85 200 route bang;
#X obj 85 172 args -;
#X text 454 170 default;
#X obj 226 297 pack;
#X obj 267 525 s \$0-log;
#N canvas 455 250 488 498 set-dim 0;
#X obj 186 303 s \$0-bgcnv;
#X msg 186 282 vis_size \$1 \$2;
#X obj 62 389 pack;
#X obj 251 249 send pd-\$0-array-cnv;
#X obj 62 440 send \$0-patch;
#X msg 62 416 coords 0 1 100 -1 \$1 \$2 2 51 100;
#X msg 251 227 coords 0 1 100 -1 \$1 \$2 2 99 19;
#X obj 173 379 send pd-\$0-graph;
#X obj 149 98 max 50;
#X obj 206 98 max 50;
#X obj 251 201 pack;
#X obj 173 255 pack f f;
#X obj 62 128 trigger float float;
#X obj 149 68 unpack f f;
#X obj 149 11 inlet;
#X obj 173 231 - 4;
#X obj 218 231 - 4;
#X obj 296 179 - 2;
#X obj 251 179 - 2;
#X obj 299 295 r \$0-fft-size;
#X obj 299 320 / 2;
#X msg 173 357 coords 0 0.5 \$3 0 \$1 \$2 2 50 100;
#X obj 163 42 s \$0-set-dim;
#X obj 173 329 list append 512;
#X connect 1 0 0 0;
#X connect 2 0 5 0;
#X connect 5 0 4 0;
#X connect 6 0 3 0;
#X connect 8 0 12 0;
#X connect 9 0 16 0;
#X connect 9 0 17 0;
#X connect 9 0 2 1;
#X connect 10 0 6 0;
#X connect 11 0 1 0;
#X connect 11 0 23 0;
#X connect 12 0 2 0;
#X connect 12 1 15 0;
#X connect 12 1 18 0;
#X connect 13 0 8 0;
#X connect 13 1 9 0;
#X connect 14 0 13 0;
#X connect 14 0 22 0;
#X connect 15 0 11 0;
#X connect 16 0 11 1;
#X connect 17 0 10 1;
#X connect 18 0 10 0;
#X connect 19 0 20 0;
#X connect 20 0 23 1;
#X connect 21 0 7 0;
#X connect 23 0 21 0;
#X restore 194 525 pd set-dim;
#N canvas 879 344 951 533 route 0;
#X obj 245 411 s \$0-scale-mode;
#X obj 198 208 != 0;
#X obj 365 201 != 0;
#X obj 79 138 route size db log dim, f 96;
#X obj 98 200 r \$0-fft-size;
#X obj 79 256 change;
#X msg 97 226 set \$1;
#X msg 245 224 set \$1;
#X obj 245 198 r \$0-scale-mode;
#X msg 412 206 set \$1;
#X obj 412 411 s \$0-log;
#X obj 412 180 r \$0-log;
#X obj 578 193 r \$0-set-dim;
#X obj 509 232 changed;
#X obj 79 82 inlet;
#X obj 245 254 change;
#X obj 412 236 change;
#X obj 81 416 s \$0-to-setsize;
#X obj 512 414 s \$0-to-setdim;
#X obj 686 214 route float;
#X obj 713 293 changed;
#X obj 782 270 r \$0-set-rate;
#X obj 765 318 v rate_\$0;
#X obj 713 318 t b f;
#X obj 713 380 s \$0-set-metro;
#X obj 686 181 route rate bang;
#X obj 782 214 s \$0-set-metro;
#X obj 686 249 moses;
#X msg 686 269 0;
#X obj 740 349 s \$0-set-rate;
#X connect 1 0 15 0;
#X connect 2 0 16 0;
#X connect 3 0 5 0;
#X connect 3 1 1 0;
#X connect 3 2 2 0;
#X connect 3 3 13 0;
#X connect 3 4 25 0;
#X connect 4 0 6 0;
#X connect 5 0 17 0;
#X connect 6 0 5 0;
#X connect 7 0 15 0;
#X connect 8 0 7 0;
#X connect 9 0 16 0;
#X connect 11 0 9 0;
#X connect 12 0 13 1;
#X connect 13 0 18 0;
#X connect 14 0 3 0;
#X connect 15 0 0 0;
#X connect 16 0 10 0;
#X connect 19 0 27 0;
#X connect 20 0 23 0;
#X connect 21 0 20 1;
#X connect 23 0 24 0;
#X connect 23 1 22 0;
#X connect 23 1 29 0;
#X connect 25 0 19 0;
#X connect 25 1 26 0;
#X connect 27 0 28 0;
#X connect 27 1 20 0;
#X connect 28 0 20 0;
#X restore 208 110 pd route;
#X obj 399 331 r \$0-to-setsize;
#X obj 428 376 r \$0-to-setdim;
#X obj 306 143 t b b b;
#X obj 306 120 delay 0;
#X obj 306 99 loadbanger -init;
#X msg 336 468 1;
#X msg 267 470 1;
#X obj 142 264 unpack float float float float float float, f 23;
#X obj 295 264 route -size -db -log -dim -rate, f 15;
#X msg 325 170 1024 0 0 300 140 100;
#N canvas 1155 303 741 493 rate 0;
#X obj 127 60 inlet;
#X obj 127 98 t b f;
#X obj 128 245 s \$0-set-metro;
#X obj 154 124 moses;
#X msg 154 148 0;
#X obj 189 206 s \$0-set-rate;
#X obj 201 184 v rate_\$0;
#X connect 0 0 1 0;
#X connect 1 0 2 0;
#X connect 1 1 3 0;
#X connect 3 0 4 0;
#X connect 3 1 6 0;
#X connect 3 1 5 0;
#X connect 4 0 5 0;
#X connect 4 0 6 0;
#X restore 442 524 pd rate;
#X connect 0 0 7 0;
#X connect 2 0 1 0;
#X connect 3 0 13 0;
#X connect 6 0 10 0;
#X connect 7 0 6 0;
#X connect 7 1 15 0;
#X connect 8 0 23 0;
#X connect 8 1 23 0;
#X connect 8 2 24 0;
#X connect 9 1 8 0;
#X connect 10 0 9 0;
#X connect 12 0 14 0;
#X connect 16 0 5 0;
#X connect 17 0 14 0;
#X connect 18 0 10 0;
#X connect 18 1 25 0;
#X connect 18 2 4 0;
#X connect 19 0 18 0;
#X connect 20 0 19 0;
#X connect 21 0 2 0;
#X connect 22 0 3 0;
#X connect 23 0 5 0;
#X connect 23 1 2 0;
#X connect 23 2 3 0;
#X connect 23 3 12 0;
#X connect 23 4 12 1;
#X connect 23 5 26 0;
#X connect 24 0 5 0;
#X connect 24 1 21 0;
#X connect 24 2 22 0;
#X connect 24 3 14 0;
#X connect 24 4 26 0;
#X connect 25 0 8 0;
#X restore 138 68 pd set;
#X obj 319 176 canvas.setname \$0-patch 1;
#X obj 319 196 canvas.setname \$0-parent 2;
#X obj 138 115 block~ 1024;
#X obj 343 149 declare -path else;
#X connect 0 0 6 0;
#X connect 2 0 13 0;
#X connect 3 0 14 0;
#X connect 4 0 0 0;
#X connect 6 0 5 0;
#X connect 8 0 7 0;
#X connect 9 0 7 0;
#X connect 10 0 17 0;
#X connect 11 0 7 0;
#X connect 12 0 11 0;
#X connect 13 0 12 0;
#X restore 103 67 pd guts;
#X text 215 46 Part of ELSE \; https://github.com/porres/pd-else;
#X text 214 32 Alexandre Torres Porres (2017-2018);
#X obj 142 41 bng 15 250 50 0 empty empty empty 17 7 0 10 -262144 -1
-1;
#X obj 54 103 cnv 15 296 136 empty \$0-bgcnv empty 20 12 0 14 -166768
-66577 0;
#N canvas 444 284 552 544 \$0-array-cnv 0;
#X coords 0 1 100 -1 298 138 2 99 19;
#X restore 52 101 pd \$0-array-cnv;
#X obj 65 31 inlet~ fwd;
#X connect 3 0 0 2;
#X connect 6 0 0 0;
#X connect 6 1 0 1;
#X coords 0 1 100 -1 300 140 2 51 100;
