#N canvas 602 115 829 690 12;
#X declare -path else;
#X obj 156 272 f 1;
#X msg 291 512 0;
#X obj 357 140 args;
#X obj 291 469 delay 0;
#X obj 54 33 inlet;
#X obj 337 33 inlet;
#X text 422 438 Part of ELSE \; https://github.com/porres/pd-else;
#X text 424 419 Alexandre Torres Porres (2019);
#X obj 272 592 outlet;
#X obj 156 299 t b b f;
#X obj 54 476 spigot 1;
#X msg 107 438 0;
#X msg 158 512 1;
#X obj 357 179 unpack f f f;
#X obj 438 300 == 0;
#X obj 107 411 spigot 1;
#X obj 97 91 route bang float retrigger ms;
#X obj 357 111 lb -init;
#X obj 554 236 declare -path else;
#X connect 0 0 9 0;
#X connect 1 0 8 0;
#X connect 2 0 13 0;
#X connect 3 0 1 0;
#X connect 3 0 12 0;
#X connect 4 0 10 0;
#X connect 5 0 3 1;
#X connect 9 0 3 0;
#X connect 9 1 15 0;
#X connect 9 2 8 0;
#X connect 10 0 16 0;
#X connect 11 0 10 1;
#X connect 12 0 10 1;
#X connect 13 0 3 1;
#X connect 13 1 0 1;
#X connect 13 2 14 0;
#X connect 14 0 15 1;
#X connect 15 0 11 0;
#X connect 16 0 0 0;
#X connect 16 1 0 0;
#X connect 16 2 14 0;
#X connect 16 3 3 1;
#X connect 17 0 2 0;
