#N canvas 336 28 813 681 12;
#X declare -path else;
#X obj 584 47 declare -path else;
#X obj 87 139 keyboard 17 80 2 3 0 0 empty empty;
#X listbox 87 233 13 0 0 0 - - - 0;
#X obj 87 266 unpack;
#X obj 87 303 - 60;
#X obj 87 336 /~ 60;
#X obj 87 370 numbox~ 6 12 100 #C0C0C4 #440008 10 0 0 0;
#X obj 183 318 /~ 127;
#X obj 183 359 numbox~ 6 12 100 #C0C0C4 #440008 10 0 0 0;
#X obj 96 486 hsl 162 19 0 127 0 0 empty empty empty -2 -10 0 12 #dfdfdf #000000 #000000 0 1;
#X obj 93 539 rescale -1 1;
#X obj 93 598 numbox~ 6 12 100 #C0C0C4 #440008 10 0 0 0;
#X obj 93 567 f2s~ 10 -1;
#X obj 183 402 dac~ 4;
#X obj 87 402 dac~ 3;
#X obj 93 629 dac~ 5;
#X text 47 18 A convesion from MIDI to CV would look like this and you can send it via a regular [dac~] output. You just need proper gear such as a DC coupled audio interface or a specialized module. Calibration is also needed to get the right value in and out of Pd., f 45;
#X text 83 431 CV out;
#X text 183 431 Gate out;
#X text 210 560 A simpler conversion from any MIDI controller, f 13;
#X floatatom 93 514 11 0 0 0 - - - 0;
#X obj 416 201 keyboard 17 80 3 3 0 0 empty empty;
#X listbox 416 295 13 0 0 0 - - - 0;
#X obj 416 365 - 60;
#X obj 416 492 numbox~ 6 12 100 #C0C0C4 #440008 10 0 0 0;
#X text 420 516 V/oct;
#X obj 416 328 stripnote;
#X obj 416 424 /~ 12;
#X text 504 404 Let's consider a -5V to +5V range. All we need is to multiply by 5 \, or divide by 12 instead!, f 23;
#X text 504 363 0 Volts reference value is "60"., f 17;
#X text 503 487 Now we have 1 volt per octave values!, f 22;
#X obj 310 284 setdsp~;
#X text 444 102 A convesion from MIDI to CV in the usual volt range is basically the same but you need to rescale to the proper used range. Here we consider the -5V to +5V standard., f 42;
#X connect 1 0 2 0;
#X connect 2 0 3 0;
#X connect 3 0 4 0;
#X connect 3 1 7 0;
#X connect 4 0 5 0;
#X connect 5 0 6 0;
#X connect 6 0 14 0;
#X connect 7 0 8 0;
#X connect 8 0 13 0;
#X connect 9 0 20 0;
#X connect 10 0 12 0;
#X connect 11 0 15 0;
#X connect 12 0 11 0;
#X connect 20 0 10 0;
#X connect 21 0 22 0;
#X connect 22 0 26 0;
#X connect 23 0 27 0;
#X connect 26 0 23 0;
#X connect 27 0 24 0;
