#N canvas 589 54 519 409 12;
#X declare -path else;
#X obj 237 158 bng 30 250 50 0 empty empty empty 17 7 0 10 -228856
-1 -1;
#N canvas 797 186 322 336 test 0;
#X obj 36 155 osc~;
#X obj 36 257 outlet~;
#X obj 36 211 *~;
#X obj 152 151 vline~;
#X obj 36 37 inlet;
#X obj 36 125 vline~;
#X obj 36 68 trigger bang bang;
#X msg 211 122 0 50;
#X obj 211 84 delay 500;
#X msg 36 97 440 \, 880 500;
#X msg 152 111 0.5 50;
#X connect 0 0 2 0;
#X connect 2 0 1 0;
#X connect 3 0 2 1;
#X connect 4 0 6 0;
#X connect 5 0 0 0;
#X connect 6 0 9 0;
#X connect 6 1 10 0;
#X connect 6 1 8 0;
#X connect 7 0 3 0;
#X connect 8 0 7 0;
#X connect 9 0 5 0;
#X connect 10 0 3 0;
#X restore 237 205 pd test;
#X obj 78 169 bng 30 250 50 0 empty empty empty 17 7 0 10 -228856 -1
-1;
#N canvas 797 186 322 336 test 0;
#X obj 36 155 osc~;
#X obj 36 257 outlet~;
#X obj 36 211 *~;
#X obj 152 151 vline~;
#X obj 36 37 inlet;
#X obj 36 125 vline~;
#X obj 36 68 trigger bang bang;
#X msg 211 122 0 50;
#X obj 211 84 delay 500;
#X msg 36 97 440 \, 880 500;
#X msg 152 111 0.5 50;
#X connect 0 0 2 0;
#X connect 2 0 1 0;
#X connect 3 0 2 1;
#X connect 4 0 6 0;
#X connect 5 0 0 0;
#X connect 6 0 9 0;
#X connect 6 1 10 0;
#X connect 6 1 8 0;
#X connect 7 0 3 0;
#X connect 8 0 7 0;
#X connect 9 0 5 0;
#X connect 10 0 3 0;
#X restore 78 212 pd test;
#X obj 77 260 out~;
#X msg 314 211 size \$1;
#X obj 317 163 hsl 128 15 0 1 0 0 empty empty empty -2 -8 0 10 -228856
-1 -1 0 1;
#X floatatom 314 185 5 0 0 0 - - -;
#X obj 237 284 stereo.rev~;
#X text 79 67 The [stereo.rev~] object from ELSE is a variation of
[mono.rev~] and contains two independent channels \, each with its
own matrix., f 52;
#X obj 311 256 *~ -1;
#X obj 309 22 declare -path else;
#X obj 237 316 out~;
#X connect 0 0 1 0;
#X connect 1 0 8 0;
#X connect 1 0 10 0;
#X connect 2 0 3 0;
#X connect 3 0 4 0;
#X connect 5 0 8 0;
#X connect 6 0 7 0;
#X connect 7 0 5 0;
#X connect 8 0 12 0;
#X connect 8 1 12 1;
#X connect 10 0 8 1;
