#N canvas 497 61 948 554 12;
#X declare -path else;
#X obj 762 223 +~;
#X obj 714 188 phasor~;
#X obj 762 252 cos~;
#X obj 780 188 phasor~;
#X obj 534 201 +~;
#X obj 655 439 phasor~;
#X obj 655 382 osc~;
#X obj 655 404 *~;
#X obj 534 264 out~;
#X obj 762 280 out~;
#X obj 579 479 out~;
#X obj 780 141 osc~;
#X obj 780 163 *~;
#X obj 827 142 nbx 4 14 0 1e+37 0 1 empty \$0-index empty 0 -8 0 10
#dcdcdc #000000 #000000 10 256;
#X obj 579 440 cosine~;
#X obj 552 150 osc~;
#X obj 552 172 *~;
#X obj 486 166 nbx 4 14 -1e+37 1e+37 0 1 empty \$0-carrier empty 0
-8 0 10 #dcdcdc #000000 #000000 400 256;
#X obj 552 128 nbx 4 14 -1e+37 1e+37 0 1 empty \$0-mod empty 0 -8 0
10 #dcdcdc #000000 #000000 1 256;
#X obj 116 371 phasor~;
#X obj 216 294 nbx 5 14 -1e+37 1e+37 0 1 phff2ssvlk3 \$0-hz2 empty
0 -8 0 10 #b8b8b8 #000000 #000000 -121 256;
#X obj 156 294 nbx 5 14 -1e+37 1e+37 0 1 phsfsdfg1 \$0-hz1 empty 0
-8 0 10 #dcdcdc #000000 #000000 440 256;
#X obj 198 371 +~;
#X obj 198 401 osc~;
#X text 160 392 =;
#X text 248 393 =;
#X obj 300 415 cos~;
#X obj 253 349 phasor~;
#X obj 300 384 +~;
#X obj 318 348 phasor~;
#X obj 183 130 phasor~ 440;
#X obj 70 400 cosine~;
#X obj 123 159 cosine~ 0;
#X obj 300 464 out~;
#X obj 198 464 out~;
#X obj 69 464 out~;
#X text 23 202 So it's like [cosine~] has a second frequency input
from the phase that gets added to the frequency. Below we can then
see three equivalent ways to sum frequencies and phase., f 59;
#X obj 534 229 cosine~;
#X text 485 145 Carrier;
#X text 602 127 Mod;
#X text 640 154 Index;
#X text 704 135 Carrier;
#X text 828 117 Mod;
#X text 874 142 Index;
#X text 707 360 Mod;
#X text 752 387 Index;
#X text 571 385 Carrier;
#X obj 591 175 f2s~ 10;
#X obj 827 162 f2s~ 10;
#X obj 705 408 f2s~ 10;
#X obj 774 20 declare -path else;
#X text 495 58 Let's now revise and see different frequency modulation
structures that are equivalent and take into account phase signals.
, f 55;
#X text 23 29 The [cosine~]'s right inlet (like other oscillators in
ELSE) is a phase input \, so we can connect a [phasor~] into it. The
frequency of the [phasor~] will then be summed to the [cosine~]'s -
which is 0 hz below \, so in practice it's only being driven by [phasor~]
at 440 hz.;
#X obj 714 157 nbx 4 14 -1e+37 1e+37 0 1 empty \$0-carrier empty 0
-8 0 10 #dcdcdc #000000 #000000 400 256;
#X obj 579 407 nbx 4 14 -1e+37 1e+37 0 1 empty \$0-carrier empty 0
-8 0 10 #dcdcdc #000000 #000000 400 256;
#X obj 780 119 nbx 4 14 -1e+37 1e+37 0 1 empty \$0-mod empty 0 -8 0
10 #dcdcdc #000000 #000000 1 256;
#X obj 655 360 nbx 4 14 -1e+37 1e+37 0 1 empty \$0-mod empty 0 -8 0
10 #dcdcdc #000000 #000000 1 256;
#X obj 591 155 nbx 4 14 0 1e+37 0 1 empty \$0-index empty 0 -8 0 10
#dcdcdc #000000 #000000 10 256;
#X obj 705 388 nbx 4 14 0 1e+37 0 1 empty \$0-index empty 0 -8 0 10
#dcdcdc #000000 #000000 10 256;
#N canvas 1373 443 215 143 init 0;
#X obj 37 28 initmess \; \$0-carrier 400 \; \$0-mod 1 \; \$0-index
10;
#X restore 683 21 pd init;
#X connect 0 0 2 0;
#X connect 1 0 0 0;
#X connect 2 0 9 0;
#X connect 3 0 0 1;
#X connect 4 0 37 0;
#X connect 5 0 14 2;
#X connect 6 0 7 0;
#X connect 7 0 5 0;
#X connect 11 0 12 0;
#X connect 12 0 3 0;
#X connect 13 0 48 0;
#X connect 14 0 10 0;
#X connect 15 0 16 0;
#X connect 16 0 4 1;
#X connect 17 0 4 0;
#X connect 18 0 15 0;
#X connect 19 0 31 2;
#X connect 20 0 19 0;
#X connect 20 0 22 1;
#X connect 20 0 29 0;
#X connect 21 0 22 0;
#X connect 21 0 27 0;
#X connect 21 0 31 0;
#X connect 22 0 23 0;
#X connect 23 0 34 0;
#X connect 26 0 33 0;
#X connect 27 0 28 0;
#X connect 28 0 26 0;
#X connect 29 0 28 1;
#X connect 30 0 32 2;
#X connect 31 0 35 0;
#X connect 37 0 8 0;
#X connect 47 0 16 1;
#X connect 48 0 12 1;
#X connect 49 0 7 1;
#X connect 53 0 1 0;
#X connect 54 0 14 0;
#X connect 55 0 11 0;
#X connect 56 0 6 0;
#X connect 57 0 47 0;
#X connect 58 0 49 0;
