#N canvas 286 43 1028 609 12;
#X declare -path else;
#X obj 201 157 pulse~ 1;
#X obj 535 35 dust~ 1;
#X obj 622 35 dust2~ 1;
#X obj 780 144 nbx 5 14 -50 50 0 0 empty empty empty 0 -8 0 10 #dcdcdc
#000000 #000000 0 256;
#X obj 780 169 randpulse~ 1;
#X obj 902 144 nbx 5 14 -50 50 0 0 empty empty empty 0 -8 0 10 #dcdcdc
#000000 #000000 0 256;
#X obj 902 169 randpulse2~ 1;
#X obj 84 158 impulse~ 1;
#X obj 377 524 impulse 1;
#X obj 471 524 pulse 1;
#X obj 377 558 bng 15 250 50 0 empty empty empty 17 7 0 10 #dcdcdc
#000000 #000000;
#X obj 471 558 tgl 15 0 empty empty empty 17 7 0 10 #dcdcdc #000000
#000000 0 1;
#X obj 201 184 rand.i~ 10 20;
#X obj 84 185 rand.i~ 10 20;
#X obj 361 159 setdsp~;
#X obj 832 28 declare -path else;
#X obj 814 271 randpulse2 1;
#X obj 698 271 randpulse 1;
#X floatatom 698 310 8 0 0 0 - - - 0;
#X obj 814 310 tgl 18 0 empty empty empty 17 7 0 10 #dcdcdc #000000
#000000 0 1;
#X obj 535 64 out~;
#X obj 184 371 imp~ 1;
#X obj 184 403 trig.delay~ 700;
#X obj 97 435 out~;
#X text 334 415 see also:;
#X obj 323 445 trig.delay2~;
#X text 545 283 Control versions are also available:, f 19;
#X text 516 154 [randpulse~] generates random gate values and [randpulse2~]
alternates between entre 0 e 1 at irregular time intervals, f 32;
#X obj 631 460 randpulse~ 0.5 0.25;
#X obj 631 521 gatehold~ 500;
#X obj 811 459 randpulse~ 0.5 0.25;
#X obj 811 520 trighold~ 500;
#X text 510 375 The [gatehold~] object holds (or 'delays') a gate value
for a certain amount of time (specified in ms) after the gate has closed.
On the other hand \, [trighold~] holds the value of a trigger. Check
the help files., f 69;
#X text 651 74 The [dust~] and [dust2~] objects generate impulses at
random intervals and with random values. Check their help files.,
f 50;
#X text 30 521 The ELSE library also provides control version objects
for impulse and pulse generators. In the case of [impulse] \, the output
is a bang., f 46;
#X text 24 251 The [rand.i~] object is triggered at positive to negative
or negative to positive transitions \, so you can use either an impulse
or a gate to trigger it. The [trig.delay~] object also responds to
impulses and gates. It is triggered by a non-positive (zero or negative)
to positive transition and sends an impulse delayed by a given time
in ms. Check its help file., f 68;
#X text 28 14 Pulse and Impulse generators are widely used to control
patches as "triggers". The ELSE library has many objects that respond
to them. An impulse (as given by the [impulse~] object) can be thought
of as a "bang" \, whereas pulses (as given by the [pulse~] object)
are called 'gates' \, which can be thought of as on/off switches \,
like a toggle. Below we have [impulse~] and [gate~] at a low frequency
of 1 Hz \, so they can be considered a kind of LFO (low frequency oscillator).
We'll see other kinds of LFOs next., f 64;
#X obj 631 553 numbox~ 6 12 100 #C0C0C4 #440008 10 0 0 0;
#X obj 811 552 numbox~ 6 12 100 #C0C0C4 #440008 10 0 0 0;
#X obj 631 487 numbox~ 6 12 100 #C0C0C4 #440008 10 0 0 0;
#X obj 811 486 numbox~ 6 12 100 #C0C0C4 #440008 10 0 0 0;
#X obj 780 203 numbox~ 6 12 100 #C0C0C4 #440008 10 0 0 0;
#X obj 902 203 numbox~ 6 12 100 #C0C0C4 #440008 10 0 0 0;
#X obj 201 211 numbox~ 6 12 100 #C0C0C4 #440008 10 0 0 0;
#X obj 84 212 numbox~ 6 12 100 #C0C0C4 #440008 10 0 0 0;
#X connect 0 0 12 0;
#X connect 1 0 20 0;
#X connect 2 0 20 1;
#X connect 3 0 4 0;
#X connect 4 0 41 0;
#X connect 5 0 6 0;
#X connect 6 0 42 0;
#X connect 7 0 13 0;
#X connect 8 0 10 0;
#X connect 9 0 11 0;
#X connect 12 0 43 0;
#X connect 13 0 44 0;
#X connect 16 0 19 0;
#X connect 17 0 18 0;
#X connect 21 0 22 0;
#X connect 21 0 23 0;
#X connect 22 0 23 1;
#X connect 28 0 39 0;
#X connect 29 0 37 0;
#X connect 30 0 40 0;
#X connect 31 0 38 0;
#X connect 39 0 29 0;
#X connect 40 0 31 0;
