#N canvas 344 144 728 602 12;
#X declare -path else;
#X obj 359 86 s \$0-set-decay;
#X obj 246 86 s \$0-set-attack;
#X obj 476 86 s \$0-set-sustain;
#X obj 609 86 s \$0-set-release;
#X obj 282 478 r \$0-release;
#N canvas 101 74 772 384 (subpatch) 0;
#X obj 112 112 cnv 15 234 143 empty empty empty 20 12 0 14 #dbdbdb #373737 0;
#X obj 176 155 knob 50 0 2000 2 0 \$0-decay \$0-set-decay #e4e4e4 #a8a8a8 #4d4d4d 0 0 0 0 1 270 0 0 0;
#X obj 233 155 knob 50 0 1 0 0 \$0-sustain \$0-set-sustain #e4e4e4 #a8a8a8 #4d4d4d 0 0 0 0 1 270 0 0 0;
#X obj 186 116 note 101 24 Inter empty 5 54 54 54 0 187 187 187 1 1 ADSR;
#X obj 119 155 knob 50 0 2000 2 0 \$0-attack \$0-set-attack #e4e4e4 #a8a8a8 #4d4d4d 0 0 0 0 1 270 0 0 0;
#X obj 232 231 note 51 10 Inter empty 5 55 55 55 0 223 223 223 1 1 Sustain;
#X obj 290 155 knob 50 0 2000 2 0 \$0-release \$0-set-release #e4e4e4 #a8a8a8 #4d4d4d 0 0 0 0 1 270 0 0 0;
#X obj 289 231 note 51 10 Inter empty 5 55 55 55 0 223 223 223 1 2 Release;
#X obj 118 231 note 51 10 Inter empty 5 55 55 55 0 223 223 223 1 1 Attack;
#X obj 175 231 note 50 10 Inter empty 5 55 55 55 0 223 223 223 1 1 Decay;
#X floatatom 119 209 7 0 0 0 - \$0-attack \$0-attack-number 0;
#X floatatom 176 209 7 0 0 0 - \$0-decay \$0-decay-number 0;
#X floatatom 233 209 7 0 0 0 - \$0-sustain \$0-sustain-number 0;
#X floatatom 290 209 7 0 0 0 - \$0-release \$0-release-number 0;
#X obj 297 122 tgl 19 0 \$0-lin \$0-set-lin empty 0 -10 0 12 #dfdfdf #000000 #000000 0 1;
#X text 316 123 lin;
#X obj 27 81 r \$0-reset;
#X obj 121 117 else/button 27 27 128 128 160 140 58 60 0;
#X obj 15 231 s \$0-button;
#X connect 16 0 6 0;
#X connect 16 0 2 0;
#X connect 16 0 1 0;
#X connect 16 0 4 0;
#X connect 17 0 18 0;
#X coords 0 1 100 -1 236 145 1 111 111;
#X restore 282 173 graph;
#N canvas 255 81 513 328 set 0;
#X obj 126 91 r \$0-attack-number;
#X msg 126 115 set \$1;
#X msg 295 114 set \$1;
#X msg 124 196 set \$1;
#X msg 293 195 set \$1;
#X obj 295 90 r \$0-decay-number;
#X obj 124 172 r \$0-sustain-number;
#X obj 293 171 r \$0-release-number;
#X obj 124 220 s \$0-set-sustain;
#X obj 293 219 s \$0-set-release;
#X obj 295 138 s \$0-set-decay;
#X obj 126 139 s \$0-set-attack;
#X connect 0 0 1 0;
#X connect 1 0 11 0;
#X connect 2 0 10 0;
#X connect 3 0 8 0;
#X connect 4 0 9 0;
#X connect 5 0 2 0;
#X connect 6 0 3 0;
#X connect 7 0 4 0;
#X restore 562 242 pd set;
#X obj 282 531 outlet;
#X obj 29 531 outlet~;
#X text 275 152 Gate;
#X text 370 152 A;
#X text 419 152 D;
#X text 467 152 S;
#X text 514 152 R;
#N canvas 243 43 544 391 preset 0;
#X obj 125 121 else/sender 1 \\\$0-presets;
#X msg 125 86 name \$1;
#X obj 90 171 else/receiver;
#X obj 123 220 route list;
#N canvas 596 76 469 447 id-name-init 0;
#X obj 165 113 + 1;
#X obj 257 76 symbol abs1-id_\\\$0;
#X obj 257 100 else/dollsym 1;
#X obj 141 80 value;
#X obj 141 252 outlet;
#X obj 141 51 else/loadbanger 2;
#X obj 141 166 else/format symbol \\\$0-adsr-%d;
#X obj 141 201 else/dollsym 1;
#X connect 0 0 3 0;
#X connect 1 0 2 0;
#X connect 2 0 3 1;
#X connect 3 0 0 0;
#X connect 3 0 6 0;
#X connect 5 0 3 0;
#X connect 5 1 1 0;
#X connect 6 0 7 0;
#X connect 7 0 4 0;
#X restore 90 39 pd id-name-init;
#X obj 90 311 else/var \$0-attack \$0-decay \$0-sustain \$0-release \$0-lin;
#X obj 123 257 else/dispatch \$0-set-attack \$0-set-decay \$0-set-sustain \$0-set-release \$0-set-lin, f 41;
#X connect 1 0 0 0;
#X connect 2 0 5 0;
#X connect 2 0 3 0;
#X connect 3 0 6 0;
#X connect 4 0 1 0;
#X connect 4 0 2 0;
#X restore 621 242 pd preset;
#X obj 153 201 r \$0-lin;
#N canvas 549 148 643 309 init-savestate 0;
#X obj 74 87 savestate;
#X obj 375 177 declare -path else;
#X obj 134 119 else/var \$0-attack \$0-decay \$0-sustain \$0-release \$0-lin;
#X obj 49 202 else/dispatch \$0-set-attack \$0-set-decay \$0-set-sustain \$0-set-release \$0-set-lin, f 40;
#X obj 49 125 list;
#X obj 49 161 else/default 10 20 0.5 50 0;
#X obj 49 43 loadbang;
#X connect 0 0 4 1;
#X connect 0 1 2 0;
#X connect 2 0 0 0;
#X connect 4 0 5 0;
#X connect 5 0 3 0;
#X connect 6 0 4 0;
#X restore 563 209 pd init-savestate;
#X obj 154 165 r \$0-button;
#X msg 153 225 lin \$1;
#X msg 42 258 gate \$1, f 4;
#X obj 68 73 route gate bang, f 7;
#X obj 29 475 else/adsr~, f 33;
#X obj 160 351 else/impseq~;
#X obj 188 392 r \$0-attack;
#X obj 197 417 r \$0-decay;
#X obj 211 442 r \$0-sustain;
#X text 320 152 Retr;
#X obj 29 35 inlet~ gate;
#X obj 139 35 inlet~ retrigger;
#X obj 246 35 inlet Attack;
#X obj 359 35 inlet Sustain;
#X obj 476 35 inlet Decay;
#X obj 609 35 inlet Release;
#X connect 4 0 7 0;
#X connect 4 0 21 5;
#X connect 15 0 18 0;
#X connect 17 0 19 0;
#X connect 18 0 21 0;
#X connect 19 0 21 0;
#X connect 20 0 19 0;
#X connect 20 1 22 0;
#X connect 21 0 8 0;
#X connect 22 0 21 1;
#X connect 23 0 21 2;
#X connect 24 0 21 3;
#X connect 25 0 21 4;
#X connect 27 0 21 0;
#X connect 27 1 20 0;
#X connect 28 0 21 1;
#X connect 29 0 1 0;
#X connect 30 0 0 0;
#X connect 31 0 2 0;
#X connect 32 0 3 0;
#X coords 0 1 100 -1 235 144 2 283 174;
