#N canvas 290 135 553 456 12;
#X declare -path else;
#N canvas 565 98 772 384 (subpatch) 0;
#X obj 176 112 cnv 15 235 190 empty empty empty 20 12 0 14 #dbdbdb #373737 0;
#X obj 240 155 knob 50 0 2000 2 0 \$0-decay \$0-set-decay #e4e4e4 #a8a8a8 #4d4d4d 0 0 0 0 1 270 0 0 0;
#X obj 297 155 knob 50 0 1 0 0 \$0-sustain \$0-set-sustain #e4e4e4 #a8a8a8 #4d4d4d 0 0 0 0 1 270 0 0 0;
#X obj 250 116 note 101 24 Inter empty 5 54 54 54 0 187 187 187 1 1 ADSR;
#X obj 183 155 knob 50 0 2000 2 0 \$0-attack \$0-set-attack #e4e4e4 #a8a8a8 #4d4d4d 0 0 0 0 1 270 0 0 0;
#X obj 296 231 note 51 10 Inter empty 5 55 55 55 0 223 223 223 1 1 Sustain;
#X obj 354 155 knob 50 0 2000 2 0 \$0-release \$0-set-release #e4e4e4 #a8a8a8 #4d4d4d 0 0 0 0 1 270 0 0 0;
#X obj 353 231 note 51 10 Inter empty 5 55 55 55 0 223 223 223 1 2 Release;
#X obj 182 231 note 51 10 Inter empty 5 55 55 55 0 223 223 223 1 1 Attack;
#X obj 239 231 note 50 10 Inter empty 5 55 55 55 0 223 223 223 1 1 Decay;
#X floatatom 183 209 7 0 0 0 - \$0-attack \$0-attack-number 0;
#X floatatom 240 209 7 0 0 0 - \$0-decay \$0-decay-number 0;
#X floatatom 297 209 7 0 0 0 - \$0-sustain \$0-sustain-number 0;
#X floatatom 354 209 7 0 0 0 - \$0-release \$0-release-number 0;
#X obj 363 122 tgl 19 0 \$0-lin \$0-set-lin empty 0 -10 0 12 #dfdfdf #000000 #000000 0 1;
#X text 383 123 lin;
#X obj 91 81 r \$0-reset;
#X obj 185 117 else/button 27 27 128 128 160 140 58 60 0;
#X obj 79 231 s \$0-button;
#X obj 190 251 else/knob 35 -1 1 0 0 \$0-att-A \$0-att-A-set #bbbbbb #7c7c7c black 0 0 0 0 1 320 0 0 0;
#X obj 247 251 else/knob 35 -1 1 0 0 \$0-att-D \$0-att-D-set #bbbbbb #7c7c7c black 0 0 0 0 1 320 0 0 0;
#X obj 304 251 else/knob 35 -1 1 0 0 \$0-att-S \$0-att-S-set #bbbbbb #7c7c7c black 0 0 0 0 1 320 0 0 0;
#X obj 361 251 else/knob 35 -1 1 0 0 \$0-att-R \$0-att-R-set #bbbbbb #7c7c7c black 0 0 0 0 1 320 0 0 0;
#X text 205 286 ----- Attenuverters -----;
#X connect 16 0 6 0;
#X connect 16 0 2 0;
#X connect 16 0 1 0;
#X connect 16 0 4 0;
#X connect 17 0 18 0;
#X coords 0 1 100 -1 237 192 1 175 111;
#X restore 257 173 graph;
#N canvas 255 81 513 328 set 0;
#X obj 126 91 r \$0-attack-number;
#X msg 126 115 set \$1;
#X msg 295 114 set \$1;
#X msg 124 196 set \$1;
#X msg 293 195 set \$1;
#X obj 295 90 r \$0-decay-number;
#X obj 124 172 r \$0-sustain-number;
#X obj 293 171 r \$0-release-number;
#X obj 124 220 s \$0-set-sustain;
#X obj 293 219 s \$0-set-release;
#X obj 295 138 s \$0-set-decay;
#X obj 126 139 s \$0-set-attack;
#X connect 0 0 1 0;
#X connect 1 0 11 0;
#X connect 2 0 10 0;
#X connect 3 0 8 0;
#X connect 4 0 9 0;
#X connect 5 0 2 0;
#X connect 6 0 3 0;
#X connect 7 0 4 0;
#X restore 80 252 pd set;
#X obj 29 35 inlet~;
#X text 250 152 Gate;
#X text 345 152 A;
#X text 394 152 D;
#X text 442 152 S;
#X text 489 152 R;
#N canvas 243 43 655 428 preset 0;
#X obj 125 121 else/sender 1 \\\$0-presets;
#X msg 125 86 name \$1;
#X obj 90 171 else/receiver;
#X obj 123 220 route list;
#N canvas 596 76 469 447 id-name-init 0;
#X obj 165 113 + 1;
#X obj 257 76 symbol abs1-id_\\\$0;
#X obj 257 100 else/dollsym 1;
#X obj 141 80 value;
#X obj 141 252 outlet;
#X obj 141 51 else/loadbanger 2;
#X obj 141 166 else/format symbol \\\$0-adsr-%d;
#X obj 141 201 else/dollsym 1;
#X connect 0 0 3 0;
#X connect 1 0 2 0;
#X connect 2 0 3 1;
#X connect 3 0 0 0;
#X connect 3 0 6 0;
#X connect 5 0 3 0;
#X connect 5 1 1 0;
#X connect 6 0 7 0;
#X connect 7 0 4 0;
#X restore 90 39 pd id-name-init;
#X obj 123 257 else/dispatch \$0-set-attack \$0-set-decay \$0-set-sustain \$0-set-release \$0-set-lin \$0-att-A-set \$0-att-D-set \$0-att-S-set \$0-att-R-set;
#X obj 90 321 else/var \$0-attack \$0-decay \$0-sustain \$0-release \$0-lin \$0-att-A \$0-att-D \$0-att-S \$0-att-R;
#X connect 1 0 0 0;
#X connect 2 0 3 0;
#X connect 2 0 6 0;
#X connect 3 0 5 0;
#X connect 4 0 1 0;
#X connect 4 0 2 0;
#X restore 139 252 pd preset;
#N canvas 549 148 643 309 init-savestate 0;
#X obj 74 77 savestate;
#X obj 364 163 declare -path else;
#X obj 49 125 list;
#X obj 49 43 loadbang;
#X obj 49 202 else/dispatch \$0-set-attack \$0-set-decay \$0-set-sustain \$0-set-release \$0-set-lin \$0-att-A-set \$0-att-D-set \$0-att-S-set \$0-att-R-set;
#X obj 134 109 else/var \$0-attack \$0-decay \$0-sustain \$0-release \$0-lin \$0-att-A \$0-att-D \$0-att-S \$0-att-R, f 49;
#X obj 49 161 else/default 10 20 0.5 50 0 0 0 0 0;
#X connect 0 0 2 1;
#X connect 0 1 5 0;
#X connect 2 0 6 0;
#X connect 3 0 2 0;
#X connect 5 0 0 0;
#X connect 6 0 4 0;
#X restore 81 219 pd init-savestate;
#X text 295 152 Retr;
#N canvas -76 178 910 553 guts 0;
#X obj 37 35 inlet~;
#X obj 37 511 outlet~;
#X obj 179 246 r \$0-lin;
#X obj 162 165 r \$0-button;
#X msg 179 270 lin \$1;
#X msg 162 204 gate \$1;
#X obj 37 455 else/adsr~, f 79;
#X obj 145 35 inlet~;
#X obj 281 15 inlet~;
#X obj 90 35 inlet;
#N canvas 97 121 508 403 set 0;
#X obj 64 29 inlet;
#X obj 141 300 s \$0-set-decay;
#X obj 119 326 s \$0-set-attack;
#X obj 163 273 s \$0-set-sustain;
#X obj 185 246 s \$0-set-release;
#X obj 211 194 != 0;
#X obj 211 218 s \$0-set-lin;
#X obj 64 73 route A D S R lin A_att D_att S_att R_att;
#X obj 262 189 s \$0-att-A-set;
#X obj 277 161 s \$0-att-D-set;
#X obj 295 133 s \$0-att-S-set;
#X obj 316 103 s \$0-att-R-set;
#X connect 0 0 7 0;
#X connect 5 0 6 0;
#X connect 7 0 2 0;
#X connect 7 1 1 0;
#X connect 7 2 3 0;
#X connect 7 3 4 0;
#X connect 7 4 5 0;
#X connect 7 5 8 0;
#X connect 7 6 9 0;
#X connect 7 7 10 0;
#X connect 7 8 11 0;
#X restore 161 125 pd set;
#X obj 281 318 *~;
#X obj 320 345 r \$0-attack;
#X obj 281 351 +~;
#X obj 320 369 else/f2s~;
#X obj 299 148 else/f2s~;
#X obj 431 15 inlet~;
#X obj 431 318 *~;
#X obj 431 351 +~;
#X obj 470 369 else/f2s~;
#X obj 449 148 else/f2s~;
#X obj 581 15 inlet~;
#X obj 581 318 *~;
#X obj 581 351 +~;
#X obj 620 369 else/f2s~;
#X obj 599 148 else/f2s~;
#X obj 731 15 inlet~;
#X obj 731 318 *~;
#X obj 731 351 +~;
#X obj 770 369 else/f2s~;
#X obj 749 148 else/f2s~;
#X obj 470 345 r \$0-decay;
#X obj 620 345 r \$0-sustain;
#X obj 770 345 r \$0-release;
#X obj 299 84 r \$0-att-A;
#X obj 449 84 r \$0-att-D;
#X obj 599 84 r \$0-att-S;
#X obj 749 84 r \$0-att-R;
#X obj 90 73 route bang gate, f 5;
#X obj 299 113 * 1000;
#X obj 449 114 * 1000;
#X obj 749 113 * 1000;
#X obj 599 113 / 2;
#X connect 0 0 6 0;
#X connect 2 0 4 0;
#X connect 3 0 5 0;
#X connect 4 0 6 0;
#X connect 5 0 6 0;
#X connect 6 0 1 0;
#X connect 7 0 6 1;
#X connect 8 0 11 0;
#X connect 9 0 38 0;
#X connect 11 0 13 0;
#X connect 12 0 14 0;
#X connect 13 0 6 2;
#X connect 14 0 13 1;
#X connect 15 0 11 1;
#X connect 16 0 17 0;
#X connect 17 0 18 0;
#X connect 18 0 6 3;
#X connect 19 0 18 1;
#X connect 20 0 17 1;
#X connect 21 0 22 0;
#X connect 22 0 23 0;
#X connect 23 0 6 4;
#X connect 24 0 23 1;
#X connect 25 0 22 1;
#X connect 26 0 27 0;
#X connect 27 0 28 0;
#X connect 28 0 6 5;
#X connect 29 0 28 1;
#X connect 30 0 27 1;
#X connect 31 0 19 0;
#X connect 32 0 24 0;
#X connect 33 0 29 0;
#X connect 34 0 39 0;
#X connect 35 0 40 0;
#X connect 36 0 42 0;
#X connect 37 0 41 0;
#X connect 38 0 6 0;
#X connect 38 1 5 0;
#X connect 38 2 10 0;
#X connect 39 0 15 0;
#X connect 40 0 20 0;
#X connect 41 0 30 0;
#X connect 42 0 25 0;
#X restore 29 102 pd guts;
#X f 48;
#X obj 161 373 r \$0-release;
#X obj 161 406 outlet;
#X obj 140 35 inlet~ retrigger;
#X obj 250 35 inlet~ attack;
#X obj 370 35 inlet~ decay;
#X obj 489 35 inlet~ sustain;
#X obj 591 35 inlet~ release;
#X obj 29 406 outlet~ signal out;
#X connect 2 0 11 0;
#X connect 2 1 11 1;
#X connect 11 0 19 0;
#X connect 12 0 13 0;
#X connect 14 0 11 2;
#X connect 15 0 11 3;
#X connect 16 0 11 4;
#X connect 17 0 11 5;
#X connect 18 0 11 6;
#X coords 0 1 100 -1 236 191 2 258 174;
