#N canvas 0 22 450 278 1;
#X obj 0 0 cnv 15 169 103 empty empty empty 20 12 0 14 #e9e9e9 #373737 0;
#X obj 4 28 cnv 15 161 71 empty empty empty 20 12 0 14 #dbdbdb #373737 0;
#X obj 94 52 knob 50 0 1 0 0 empty empty #e4e4e4 #a8a8a8 #4d4d4d 0 0 0 0 1 270 0 0;
#X obj 0 0 note 169 24 Inter empty 0 0 122 255 0 228 228 228 0 1 BITCRUSHER;
#X obj 11 32 note 74 13 Inter empty 0 55 55 55 0 228 228 228 0 0 BIT REDUCE;
#X obj 23 52 knob 50 0 1 0 0 empty empty #e4e4e4 #a8a8a8 #4d4d4d 0 0 0 0 1 270 0 0;
#X obj 84 32 note 66 13 Inter empty 0 55 55 55 0 228 228 228 0 0 DECIMATE;
#X obj 62 -93 inlet depth;
#X obj 5 -125 inlet rate;
#X obj -81 123 inlet~ signal in;
#X obj -73 216 outlet~ signal out;
#X obj 192 -42 unpack f f;
#X obj 0 164 crusher~;
#X obj 192 -69 loadmess 0.2 0.2;
#X connect 2 0 12 2 empty;
#X connect 5 0 12 1 empty;
#X connect 7 0 2 0 empty;
#X connect 8 0 5 0 empty;
#X connect 9 0 12 0 empty;
#X connect 11 0 5 0 empty;
#X connect 11 1 2 0 empty;
#X connect 12 0 10 0 empty;
#X connect 13 0 11 0 empty;
#X coords 0 1 100 -1 169 103 2 0 0;
