#N canvas 300 95 617 520 12;
#X declare -path else;
#N canvas 243 43 499 411 preset 0;
#X obj 125 121 else/sender 1 \\\$0-presets;
#X msg 125 86 name \$1;
#X obj 90 171 else/receiver;
#X obj 123 220 route list;
#N canvas 468 182 491 352 id-name-init 0;
#X obj 165 113 + 1;
#X obj 257 100 else/dollsym 1;
#X obj 141 80 value;
#X obj 141 252 outlet;
#X obj 141 51 else/loadbanger 2;
#X obj 141 201 else/dollsym 1;
#X obj 257 76 symbol chorus-id_\\\$0;
#X obj 141 166 else/format symbol \\\$0-chorus-%d;
#X connect 0 0 2 0;
#X connect 1 0 2 1;
#X connect 2 0 0 0;
#X connect 2 0 7 0;
#X connect 4 0 2 0;
#X connect 4 1 6 0;
#X connect 5 0 3 0;
#X connect 6 0 1 0;
#X connect 7 0 5 0;
#X restore 90 39 pd id-name-init;
#X obj 123 257 else/dispatch \$0-set-rate \$0-set-depth \$0-set-wet, f 25;
#X obj 90 311 else/var \$0-rate \$0-depth \$0-wet;
#X connect 1 0 0 0;
#X connect 2 0 3 0;
#X connect 2 0 6 0;
#X connect 3 0 5 0;
#X connect 4 0 1 0;
#X connect 4 0 2 0;
#X restore 501 224 pd preset;
#N canvas 171 120 601 317 init-savestate 0;
#X obj 74 87 savestate;
#X obj 320 171 declare -path else;
#X obj 49 125 list;
#X obj 49 43 loadbang;
#X obj 49 171 else/default 0 0 0 0;
#X obj 134 119 else/var \$0-rate \$0-depth \$0-wet;
#X obj 49 222 else/dispatch \$0-set-rate \$0-set-depth \$0-set-wet, f 50;
#X connect 0 0 2 1;
#X connect 0 1 5 0;
#X connect 2 0 4 0;
#X connect 3 0 2 0;
#X connect 4 0 6 0;
#X connect 5 0 0 0;
#X restore 443 191 pd init-savestate;
#N canvas 200 115 764 360 GUI 0;
#X obj 81 62 r \$0-wet;
#X msg 81 99 wet \$1;
#X msg 160 99 cutoff \$1;
#X obj 160 62 r \$0-cutoff;
#X obj 258 62 r \$0-clear;
#X msg 258 99 clear;
#X msg 494 222 set \$1;
#X obj 351 210 s \$0-rev;
#X obj 349 62 r \$0-pre;
#X msg 349 99 pre \$1;
#X obj 441 62 r \$0-damp;
#X msg 441 99 damp \$1;
#X obj 494 188 r \$0-pre-number;
#X obj 494 251 s \$0-set-pre;
#X msg 531 99 size \$1;
#X obj 531 62 r \$0-size;
#X connect 0 0 1 0;
#X connect 1 0 7 0;
#X connect 2 0 7 0;
#X connect 3 0 2 0;
#X connect 4 0 5 0;
#X connect 5 0 7 0;
#X connect 6 0 13 0;
#X connect 8 0 9 0;
#X connect 9 0 7 0;
#X connect 10 0 11 0;
#X connect 11 0 7 0;
#X connect 12 0 6 0;
#X connect 14 0 7 0;
#X connect 15 0 14 0;
#X restore 441 224 pd GUI;
#X text 201 129 IN;
#X obj 172 351 r \$0-rate;
#X obj 255 351 r \$0-depth;
#X obj 89 391 chorus~, f 36;
#X obj 338 351 r \$0-wet;
#N canvas 227 82 394 451 (subpatch) 0;
#X obj 112 112 cnv 15 175 135 empty empty empty 20 12 0 14 #dbdbdb #373737 0;
#X obj 136 121 note 118 24 Inter empty 5 54 54 54 0 187 187 187 1 1 CHORUS;
#X obj 121 187 else/knob 41 0.1 5 4 0.1 \$0-rate \$0-set-rate #dfdfdf #bbbbbb #000000 0 0 0 0 1 320 0 0 0.1;
#X obj 232 187 else/knob 41 0 1 0 0 \$0-wet \$0-set-wet #9f9f9f #afafaf black 0 0 0 0 1 320 0 0 0;
#X text 225 168 Dry/Wet;
#X text 126 168 Rate;
#X obj 171 187 else/knob 41 0 25 2 0 \$0-depth \$0-set-depth #dfdfdf #afafaf black 0 0 0 0 1 320 0 0 0;
#X text 174 168 Depth;
#X coords 0 1 100 -1 177 137 1 111 111;
#X restore 208 154 graph;
#N canvas 210 278 359 294 route 0;
#X obj 112 41 inlet;
#X obj 112 199 s \$0-set-rate;
#X obj 158 171 s \$0-set-depth;
#X obj 203 140 s \$0-set-wet;
#X obj 112 102 route rate depth wet;
#X connect 0 0 4 0;
#X connect 4 0 1 0;
#X connect 4 1 2 0;
#X connect 4 2 3 0;
#X restore 128 71 pd route;
#X obj 89 35 inlet~ signal in;
#X obj 89 453 outlet~ signal out;
#X connect 4 0 6 1;
#X connect 5 0 6 2;
#X connect 6 0 11 0;
#X connect 7 0 6 3;
#X connect 10 0 6 0;
#X connect 10 1 9 0;
#X coords 0 1 100 -1 176 136 2 209 155;
