#N canvas 0 22 450 278 8;
#X obj 0 0 cnv 15 114 37 empty empty empty 20 12 0 14 #dbdbdb #373737 0;
#X obj 150 212 makenote 100 500;
#X obj 240 269 pack f f f;
#X obj 205 379 outlet~ signal out;
#X obj 247 33 inlet;
#X obj 391 166 loadmess 10;
#X obj 403 287 loadmess open GS/GeneralUser_GS.sf3 @defer 1;
#X obj 210 339 sfont~;
#X obj 339 72 list length;
#X obj 286 124 router;
#X obj 286 61 t a a;
#X obj 324 99 - 1;
#X obj 310 162 unpack f f;
#X obj 21 7 note 73 18 Inter empty 5 54 54 54 0 187 187 187 1 1 DRUMS;
#X connect 1 0 2 0;
#X connect 1 1 2 1;
#X connect 2 0 7 0;
#X connect 4 0 10 0;
#X connect 5 0 2 2;
#X connect 6 0 7 0;
#X connect 7 0 3 0;
#X connect 8 0 11 0;
#X connect 9 0 1 0;
#X connect 9 1 12 0;
#X connect 10 0 9 0;
#X connect 10 1 8 0;
#X connect 11 0 9 1;
#X connect 12 0 2 0;
#X connect 12 1 2 1;
#X coords 0 1 100 -1 115 37 2 0 1;
