#N canvas 0 22 450 278 8;
#X obj 0 0 cnv 15 169 34 empty empty empty 20 12 0 14 #e9e9e9 #373737 0;
#X obj 0 0 note 169 24 Inter empty 0 84 192 120 0 228 228 228 0 1 E-PIANO;
#X obj 240 315 outlet~ signal out;
#X obj 446 114 loadmess open GS/GeneralUser_GS.sf3 @defer 1;
#X obj 245 275 sfont~;
#X msg 443 251 pgm 5;
#X obj 444 148 t b a;
#X obj 250 205 inlet;
#X connect 3 0 6 0;
#X connect 4 0 2 0;
#X connect 5 0 4 0;
#X connect 6 0 5 0;
#X connect 6 1 4 0;
#X connect 7 0 4 0;
#X coords 0 1 100 -1 171 33 2 -1 0;
