#N canvas 0 22 450 278 8;
#X obj 0 0 cnv 15 103 33 empty empty empty 20 12 0 14 #dbdbdb #373737 0;
#X obj 240 315 outlet~ signal out;
#X obj 446 114 loadmess open GS/GeneralUser_GS.sf3 @defer 1;
#X obj 245 275 sfont~;
#X msg 443 251 pgm 5;
#X obj 444 148 t b a;
#X obj 250 205 inlet;
#X obj 15 5 note 75 18 Inter empty 5 54 54 54 0 187 187 187 1 1 E-PIANO;
#X connect 2 0 5 0;
#X connect 3 0 1 0;
#X connect 4 0 3 0;
#X connect 5 0 4 0;
#X connect 5 1 3 0;
#X connect 6 0 3 0;
#X coords 0 1 100 -1 103 32 2 0 1;
