#N canvas 0 22 450 278 1;
#X obj 0 0 cnv 15 200 133 empty empty empty 20 12 0 14 #e9e9e9 #373737 0;
#X obj 0 0 note 200 24 Inter empty 0 255 133 0 0 228 228 228 0 1 EQ;
#X obj -118 122 inlet~ signal in;
#X obj 0 32 bicoeff 200 100 peaking;
#X obj -36 180 biquad~;
#X obj -112 253 outlet~ signal out;
#X connect 2 0 4 0 empty;
#X connect 3 0 4 0 empty;
#X connect 4 0 5 0 empty;
#X coords 0 1 100 -1 200 133 2 0 0;
