#N canvas 379 67 428 657 12;
#X declare -path else;
#N canvas 243 43 424 397 preset 0;
#X obj 125 121 else/sender 1 \\\$0-presets;
#X msg 125 86 name \$1;
#X obj 90 171 else/receiver;
#X obj 123 220 route list;
#N canvas 468 182 491 352 id-name-init 0;
#X obj 165 113 + 1;
#X obj 257 100 else/dollsym 1;
#X obj 141 80 value;
#X obj 141 252 outlet;
#X obj 141 51 else/loadbanger 2;
#X obj 141 201 else/dollsym 1;
#X obj 257 76 symbol gain-id_\\\$0;
#X obj 141 166 else/format symbol \\\$0-gain-%d;
#X connect 0 0 2 0;
#X connect 1 0 2 1;
#X connect 2 0 0 0;
#X connect 2 0 7 0;
#X connect 4 0 2 0;
#X connect 4 1 6 0;
#X connect 5 0 3 0;
#X connect 6 0 1 0;
#X connect 7 0 5 0;
#X restore 90 39 pd id-name-init;
#X obj 123 257 else/dispatch \$0-set-gain;
#X obj 90 311 else/var \$0-gain;
#X connect 1 0 0 0;
#X connect 2 0 3 0;
#X connect 2 0 6 0;
#X connect 3 0 5 0;
#X connect 4 0 1 0;
#X connect 4 0 2 0;
#X restore 250 469 pd preset;
#N canvas 171 120 601 317 init-savestate 0;
#X obj 74 87 savestate;
#X obj 191 174 declare -path else;
#X obj 49 125 list;
#X obj 49 43 loadbang;
#X obj 134 119 else/var \$0-gain;
#X obj 49 222 else/dispatch \$0-set-gain;
#X obj 49 171 else/default 0;
#X connect 0 0 2 1;
#X connect 0 1 4 0;
#X connect 2 0 6 0;
#X connect 3 0 2 0;
#X connect 4 0 0 0;
#X connect 6 0 5 0;
#X restore 192 436 pd init-savestate;
#N canvas 200 115 585 275 GUI 0;
#X obj 284 84 r \$0-gain;
#X obj 284 118 lin2db;
#X msg 284 152 set \$1;
#X obj 284 192 s \$0-set-db;
#X obj 395 84 r \$0-db;
#X obj 395 131 db2lin;
#X obj 395 192 s \$0-set-gain;
#X obj 58 116 r \$0-lin-nbx;
#X obj 58 156 s \$0-set-gain;
#X obj 198 226 s \$0-set-lin-nbx;
#X msg 203 161 set \$1;
#X connect 0 0 1 0;
#X connect 0 0 10 0;
#X connect 1 0 2 0;
#X connect 2 0 3 0;
#X connect 4 0 5 0;
#X connect 5 0 6 0;
#X connect 7 0 8 0;
#X connect 10 0 9 0;
#X restore 190 469 pd GUI;
#X text 200 125 IN;
#N canvas 227 82 302 415 (subpatch) 0;
#X obj 112 112 cnv 15 90 215 empty empty empty 20 12 0 14 #dbdbdb #373737 0;
#X obj 125 121 note 62 18 Inter empty 5 54 54 54 0 187 187 187 1 1 GAIN;
#X obj 126 155 else/knob 60 0.1 10 1 1 \$0-gain \$0-set-gain #000000 #404040 #ffffff 0 0 0 0 1 320 0 0 1;
#X floatatom 127 244 6 -20 20 0 - \$0-set-db \$0-db 16;
#X text 127 222 Decibels;
#X floatatom 127 294 6 0.1 10 0 - \$0-set-lin-nbx \$0-lin-nbx 16;
#X text 132 272 Linear;
#X coords 0 1 100 -1 92 217 1 111 111;
#X restore 209 145 graph;
#X obj 68 363 *~, f 5;
#X obj 93 321 f2s~;
#X obj 93 288 r \$0-gain;
#X obj 67 85 inlet~ signal in;
#X obj 69 583 outlet~ signal out;
#X connect 5 0 9 0;
#X connect 6 0 5 1;
#X connect 7 0 6 0;
#X connect 8 0 5 0;
#X coords 0 1 100 -1 91 216 2 210 146;
