#N canvas 593 183 596 436 12;
#X declare -path else;
#N canvas 55 174 664 330 GUI 0;
#X msg 318 129 set \$1;
#X msg 188 114 set \$1;
#X obj 188 83 r \$0-bw-nbx;
#X obj 318 88 r \$0-fstep-nbx;
#X msg 461 129 set \$1;
#X obj 461 88 r \$0-astep-nbx;
#X obj 188 145 s \$0-set-bw;
#X obj 318 160 s \$0-set-fstep;
#X obj 461 160 s \$0-set-astep;
#X connect 0 0 7 0;
#X connect 1 0 6 0;
#X connect 2 0 1 0;
#X connect 3 0 0 0;
#X connect 4 0 8 0;
#X connect 5 0 4 0;
#X restore 411 158 pd GUI;
#N canvas 948 263 330 402 (subpatch) 0;
#X obj 51 51 cnv 19 168 278 empty empty empty 20 12 0 12 #e0e0e0 #404040 0;
#X floatatom 73 173 6 -36 36 0 - \$0-bw \$0-bw-nbx 0;
#X obj 69 114 else/knob 50 0 2400 0 0 \$0-bw \$0-set-bw #dfdfdf #7c7c7c black 0 0 0 0 1 320 0 0 0;
#X obj 76 62 note 117 24 Inter empty 5 54 54 54 0 187 187 187 1 1 GENDYN;
#X text 82 191 BW;
#X obj 137 154 vradio 16 1 0 3 \$0-interp \$0-set-interp empty 0 -8 0 10 #dfdfdf #000000 #000000 0;
#X floatatom 137 108 4 1 128 0 - \$0-set-n \$0-n 0;
#X text 171 108 n;
#X floatatom 82 280 6 0 100 0 - \$0-fstep \$0-fstep-nbx 0;
#X obj 78 221 else/knob 50 0 100 0 0 \$0-fstep \$0-set-fstep #dfdfdf #7c7c7c black 0 0 0 0 1 320 0 0 0;
#X text 79 298 f-step;
#X floatatom 142 280 6 0 100 0 - \$0-astep \$0-astep-nbx 0;
#X obj 138 221 else/knob 50 0 100 0 0 \$0-astep \$0-set-astep #dfdfdf #7c7c7c black 0 0 0 0 1 320 0 0 0;
#X text 139 298 a-step;
#X text 157 154 none;
#X text 157 171 linear;
#X text 157 188 cosine;
#X text 136 130 (interp);
#X coords 0 1 100 -1 170 280 1 50 50;
#X restore 56 75 graph;
#N canvas 138 43 539 463 preset 0;
#X obj 121 133 else/sender 1 \\\$0-presets;
#X msg 121 98 name \$1;
#X obj 98 182 else/receiver;
#X obj 123 222 route list;
#N canvas 596 76 470 347 id-name-init 0;
#X obj 165 113 + 1;
#X obj 257 100 else/dollsym 1;
#X obj 141 80 value;
#X obj 141 252 outlet;
#X obj 141 51 else/loadbanger 2;
#X obj 141 201 else/dollsym 1;
#X obj 257 76 symbol gendyn-id_\\\$0;
#X obj 141 166 else/format symbol \\\$0-gendyn-%d;
#X connect 0 0 2 0;
#X connect 1 0 2 1;
#X connect 2 0 0 0;
#X connect 2 0 7 0;
#X connect 4 0 2 0;
#X connect 4 1 6 0;
#X connect 5 0 3 0;
#X connect 6 0 1 0;
#X connect 7 0 5 0;
#X restore 97 46 pd id-name-init;
#X obj 123 258 else/dispatch \$0-set-bw \$0-set-n \$0-set-interp \$0-set-fstep \$0-set-astep, f 40;
#X obj 98 331 else/var \$0-bw \$0-n \$0-interp \$0-fstep \$0-astep;
#X connect 1 0 0 0;
#X connect 2 0 3 0;
#X connect 2 0 6 0;
#X connect 3 0 5 0;
#X connect 4 0 1 0;
#X connect 4 0 2 0;
#X restore 469 158 pd preset;
#N canvas 99 315 613 345 init-savestate 0;
#X obj 110 106 savestate;
#X obj 300 195 declare -path else;
#X obj 85 67 loadbang;
#X obj 85 165 list;
#X obj 85 249 else/dispatch \$0-set-bw \$0-set-n \$0-set-interp \$0-set-fstep \$0-set-astep, f 46;
#X obj 170 142 else/var \$0-bw \$0-n \$0-interp \$0-fstep \$0-astep;
#X obj 85 205 else/default 50 8 1 10 10;
#X connect 0 0 3 1;
#X connect 0 1 5 0;
#X connect 2 0 3 0;
#X connect 3 0 6 0;
#X connect 5 0 0 0;
#X connect 6 0 4 0;
#X restore 412 120 pd init-savestate;
#X text 273 63 HZ;
#N canvas 132 191 845 429 set 0;
#X obj 200 184 t b f;
#X msg 232 223 resize \$1;
#X obj 200 126 else/nchs~;
#X obj 200 28 inlet~;
#X obj 232 300 outlet;
#X obj 383 93 r \$0-bw;
#X obj 522 92 r \$0-n;
#X obj 383 127 f;
#X obj 522 129 f;
#X msg 383 159 all bw \$1;
#X msg 522 160 all n \$1;
#X obj 642 129 f;
#X msg 642 160 all freq_step \$1;
#X obj 613 306 f;
#X obj 145 253 s \$0-bang;
#X obj 200 154 change;
#X obj 358 65 r \$0-bang;
#X obj 498 65 r \$0-bang;
#X obj 618 65 r \$0-bang;
#X obj 642 92 r \$0-fstep;
#X obj 461 311 f;
#X obj 437 247 r \$0-bang;
#X obj 383 193 s \$0-to-gendyn;
#X obj 522 193 s \$0-to-gendyn;
#X obj 642 193 s \$0-to-gendyn;
#X obj 461 377 s \$0-to-gendyn;
#X obj 613 369 s \$0-to-gendyn;
#X obj 251 259 r \$0-to-gendyn;
#X obj 461 273 r \$0-astep;
#X msg 461 342 all amp_step \$1;
#X obj 613 269 r \$0-interp;
#X msg 613 337 all interp \$1;
#X obj 587 243 r \$0-bang;
#X connect 0 0 14 0;
#X connect 0 1 1 0;
#X connect 1 0 4 0;
#X connect 2 0 15 0;
#X connect 3 0 2 0;
#X connect 5 0 7 0;
#X connect 6 0 8 0;
#X connect 7 0 9 0;
#X connect 8 0 10 0;
#X connect 9 0 22 0;
#X connect 10 0 23 0;
#X connect 11 0 12 0;
#X connect 12 0 24 0;
#X connect 13 0 31 0;
#X connect 15 0 0 0;
#X connect 16 0 7 0;
#X connect 17 0 8 0;
#X connect 18 0 11 0;
#X connect 19 0 11 0;
#X connect 20 0 29 0;
#X connect 21 0 20 0;
#X connect 27 0 4 0;
#X connect 28 0 20 0;
#X connect 29 0 25 0;
#X connect 30 0 13 0;
#X connect 31 0 26 0;
#X connect 32 0 13 0;
#X restore 322 166 pd set;
#X obj 274 227 clone -d gendyn.unit 1, f 25;
#X text 51 51 Pitch;
#X obj 274 166 mtof~;
#N canvas 378 45 368 364 route 0;
#X obj 104 71 inlet;
#X obj 127 263 s \$0-set-bw;
#X obj 138 234 s \$0-set-fstep;
#X obj 155 208 s \$0-set-astep;
#X obj 165 180 s \$0-set-interp;
#X obj 180 155 s \$0-set-n;
#X obj 104 105 route bw fstep astep interp n, f 14;
#X connect 0 0 6 0;
#X connect 6 0 1 0;
#X connect 6 1 2 0;
#X connect 6 2 3 0;
#X connect 6 3 4 0;
#X connect 6 4 5 0;
#X restore 313 116 pd route;
#X obj 274 84 inlet~ pitch;
#X obj 274 279 outlet~ signal out;
#X connect 5 0 6 0;
#X connect 6 0 11 0;
#X connect 8 0 6 0;
#X connect 10 0 5 0;
#X connect 10 0 8 0;
#X connect 10 1 9 0;
#X coords 0 -1 1 1 169 279 2 57 76;
