#N canvas 390 45 759 448 12;
#X declare -path else;
#X obj 321 313 outlet~;
#X text 501 52 sync;
#N canvas 144 385 664 330 GUI 0;
#X obj 105 149 clip 0 100;
#X msg 105 177 set \$1;
#X obj 105 211 s \$0-mod-set;
#X obj 105 123 r \$0-mod;
#X obj 247 35 r \$0-pitch;
#X obj 247 139 else/f2s~ 10;
#X obj 268 103 s \$0-knobpitch-set;
#X msg 268 72 set \$1;
#X obj 247 172 s~ \$0-transp;
#X obj 265 247 else/rint;
#X obj 265 218 r \$0-knobpitch;
#X obj 265 278 s \$0-pitch-set;
#X obj 420 131 r \$0-soft;
#X obj 420 195 s \$0-set;
#X msg 420 165 soft \$1;
#X connect 0 0 1 0;
#X connect 1 0 2 0;
#X connect 3 0 0 0;
#X connect 4 0 5 0;
#X connect 4 0 7 0;
#X connect 5 0 8 0;
#X connect 7 0 6 0;
#X connect 9 0 11 0;
#X connect 10 0 9 0;
#X connect 14 0 13 0;
#X restore 548 178 pd GUI;
#X text 207 50 SYNC;
#N canvas 286 77 358 387 (subpatch) 0;
#X obj 51 51 cnv 19 170 240 empty empty empty 20 12 0 12 #e0e0e0 #404040 0;
#X floatatom 66 171 7 -36 36 0 - \$0-hz \$0-hz-number 0;
#X obj 65 115 else/knob 50 0.1 20 1 0.1 \$0-hz \$0-hz-set #dfdfdf #7c7c7c black 0 0 0 0 1 320 0 0 0.1;
#X obj 141 309 tgl 22 0 \$0-soft \$0-soft-set empty 0 -10 0 12 #dfdfdf #000000 #000000 0 1;
#X obj 81 60 note 101 24 Inter empty 5 54 54 54 0 187 187 187 1 1 LFO;
#X obj 142 106 vradio 20 1 0 5 \$0-waveform \$0-set-waveform empty 0 -10 0 12 #dfdfdf #000000 #000000 0;
#X text 168 107 sine;
#X text 168 128 tri;
#X text 168 147 saw;
#X text 167 168 vsaw;
#X text 165 188 square;
#X obj 68 224 else/knob 41 -1 1 0 0 \$0-PWM \$0-set-PWM #dfdfdf #7c7c7c black 0 0 0 0 1 320 0 0 0;
#X text 76 268 PWM;
#X text 79 195 Hz;
#X obj 128 237 tgl 22 0 \$0-unipolar \$0-set-unipolar empty 0 -10 0 12 #dfdfdf #000000 #000000 0 1;
#X text 153 238 Unipolar;
#X text 186 330 Soft Sync;
#X coords 0 1 100 -1 172 242 1 50 50;
#X restore 58 74 graph;
#X text 50 52 Pitch;
#N canvas 319 45 558 422 preset 0;
#X obj 121 133 else/sender 1 \\\$0-presets;
#X msg 121 98 name \$1;
#X obj 98 182 else/receiver;
#X obj 123 222 route list;
#N canvas 596 76 470 347 id-name-init 0;
#X obj 165 113 + 1;
#X obj 257 100 else/dollsym 1;
#X obj 141 80 value;
#X obj 141 252 outlet;
#X obj 141 51 else/loadbanger 2;
#X obj 141 201 else/dollsym 1;
#X obj 141 166 else/format symbol \\\$0-vco-%d;
#X obj 257 76 symbol vco-id_\\\$0;
#X connect 0 0 2 0;
#X connect 1 0 2 1;
#X connect 2 0 0 0;
#X connect 2 0 6 0;
#X connect 4 0 2 0;
#X connect 4 1 7 0;
#X connect 5 0 3 0;
#X connect 6 0 5 0;
#X connect 7 0 1 0;
#X restore 97 46 pd id-name-init;
#X obj 123 258 else/dispatch \$0-pitch-set \$0-mod-set \$0-lin-set \$0-PM-set \$0-midi-set \$0-soft-set \$0-set-waveform \$0-set-PWM, f 49;
#X obj 98 331 else/var \$0-pitch \$0-mod \$0-lin \$0-PM \$0-midi \$0-soft \$0-waveform \$0-PWM, f 37;
#X connect 1 0 0 0;
#X connect 2 0 3 0;
#X connect 2 0 6 0;
#X connect 3 0 5 0;
#X connect 4 0 1 0;
#X connect 4 0 2 0;
#X restore 606 178 pd preset;
#N canvas 618 163 615 367 init-savestate 0;
#X obj 110 106 savestate;
#X obj 312 205 declare -path else;
#X obj 85 67 loadbang;
#X obj 85 165 list;
#X obj 170 142 else/var \$0-pitch \$0-mod \$0-lin \$0-PM \$0-midi \$0-soft \$0-waveform \$0-PWM \$0-unipolar, f 33;
#X obj 85 250 else/dispatch \$0-pitch-set \$0-mod-set \$0-lin-set \$0-PM-set \$0-midi-set \$0-soft-set \$0-set-waveform \$0-set-PWM \$0-set-unipolar, f 44;
#X obj 85 205 else/default 0 0 0 0 1 0 0 0 0;
#X connect 0 0 3 1;
#X connect 0 1 4 0;
#X connect 2 0 3 0;
#X connect 3 0 6 0;
#X connect 4 0 0 0;
#X connect 6 0 5 0;
#X restore 549 140 pd init-savestate;
#X text 427 57 PWM;
#N canvas 409 155 575 374 oscillators 0;
#N canvas 512 146 634 435 sine~ 0;
#X obj 131 200 else/sine~, f 16;
#X obj 30 133 r \$0-set;
#X obj 121 88 inlet~;
#X obj 272 88 inlet~;
#X text 280 66 sync;
#X obj 207 88 inlet~;
#X text 215 66 PM;
#X text 129 66 pitch;
#X obj 124 290 outlet~;
#X obj 452 198 switch~;
#X obj 452 144 r \$0-waveform;
#X obj 452 168 == 0;
#X connect 0 0 8 0;
#X connect 1 0 0 0;
#X connect 2 0 0 0;
#X connect 3 0 0 1;
#X connect 5 0 0 2;
#X connect 10 0 11 0;
#X connect 11 0 9 0;
#X restore 175 202 pd sine~;
#X obj 228 89 inlet~;
#X obj 413 89 inlet~;
#X text 421 69 sync;
#X text 236 67 pitch;
#X obj 356 89 inlet~;
#X text 367 68 PWM;
#X obj 175 315 outlet~;
#N canvas 512 146 518 442 tri~ 0;
#X obj 42 135 r \$0-set;
#X obj 163 88 inlet~;
#X obj 314 88 inlet~;
#X text 322 66 sync;
#X obj 249 88 inlet~;
#X text 257 66 PM;
#X text 171 66 pitch;
#X obj 174 349 outlet~;
#X obj 366 198 switch~;
#X obj 366 144 r \$0-waveform;
#X obj 366 168 == 1;
#X obj 173 260 tri~, f 20;
#X connect 0 0 11 0;
#X connect 1 0 11 0;
#X connect 2 0 11 1;
#X connect 4 0 11 2;
#X connect 9 0 10 0;
#X connect 10 0 8 0;
#X connect 11 0 7 0;
#X restore 245 201 pd tri~;
#N canvas 267 161 646 410 saw~ 0;
#X obj 257 92 inlet~;
#X obj 408 92 inlet~;
#X text 416 70 sync;
#X obj 343 92 inlet~;
#X text 351 70 PM;
#X text 265 70 pitch;
#X obj 260 294 outlet~;
#X obj 467 197 switch~;
#X obj 467 143 r \$0-waveform;
#X obj 467 167 == 2;
#X obj 150 127 r \$0-set;
#X obj 267 204 saw~, f 23;
#X connect 0 0 11 0;
#X connect 1 0 11 1;
#X connect 3 0 11 2;
#X connect 8 0 9 0;
#X connect 9 0 7 0;
#X connect 10 0 11 0;
#X connect 11 0 6 0;
#X restore 308 201 pd saw~;
#N canvas 512 146 627 426 square~ 0;
#X obj 164 88 inlet~;
#X obj 315 88 inlet~;
#X obj 250 88 inlet~;
#X obj 181 335 outlet~;
#X obj 373 91 inlet~;
#X text 377 59 sync;
#X text 255 59 PM;
#X text 175 57 pitch;
#X text 316 58 PWM;
#X obj 471 233 switch~;
#X obj 471 179 r \$0-waveform;
#X obj 471 203 == 4;
#X obj 309 121 +~ 0;
#X obj 397 129 r \$0-PWM;
#X obj 307 155 rescale~ 0.05 0.95;
#X obj 23 135 r \$0-set;
#X obj 182 265 square~, f 24;
#X connect 0 0 16 0;
#X connect 1 0 12 0;
#X connect 2 0 16 3;
#X connect 4 0 16 2;
#X connect 10 0 11 0;
#X connect 11 0 9 0;
#X connect 12 0 14 0;
#X connect 13 0 12 1;
#X connect 14 0 16 1;
#X connect 15 0 16 0;
#X connect 16 0 3 0;
#X restore 446 201 pd square~;
#N canvas 512 146 518 387 vsaw~ 0;
#X obj 133 88 inlet~;
#X obj 284 88 inlet~;
#X obj 219 88 inlet~;
#X obj 148 325 outlet~;
#X obj 341 88 inlet~;
#X text 339 50 sync;
#X text 224 50 PM;
#X text 154 48 pitch;
#X text 285 49 PWM;
#X obj 346 238 switch~;
#X obj 346 184 r \$0-waveform;
#X obj 346 208 == 3;
#X obj 275 154 rescale~;
#X obj 283 124 +~ 0;
#X obj 376 139 r \$0-PWM;
#X obj 15 136 r \$0-set;
#X obj 155 235 vsaw~, f 23;
#X connect 0 0 16 0;
#X connect 1 0 13 0;
#X connect 2 0 16 3;
#X connect 4 0 16 2;
#X connect 10 0 11 0;
#X connect 11 0 9 0;
#X connect 12 0 16 1;
#X connect 13 0 12 0;
#X connect 14 0 13 1;
#X connect 15 0 16 0;
#X connect 16 0 3 0;
#X restore 371 201 pd vsaw~;
#X obj 175 259 else/select~ 5 1, f 33;
#X obj 78 151 r \$0-waveform;
#X obj 78 180 + 1;
#X connect 0 0 12 0;
#X connect 1 0 0 0;
#X connect 1 0 8 0;
#X connect 1 0 9 0;
#X connect 1 0 11 0;
#X connect 1 0 10 0;
#X connect 2 0 0 2;
#X connect 2 0 8 2;
#X connect 2 0 9 2;
#X connect 2 0 11 3;
#X connect 2 0 10 3;
#X connect 5 0 11 2;
#X connect 5 0 10 2;
#X connect 8 0 12 1;
#X connect 9 0 12 2;
#X connect 10 0 12 4;
#X connect 11 0 12 3;
#X connect 12 0 7 0;
#X connect 13 0 14 0;
#X connect 14 0 12 0;
#X restore 321 160 pd oscillators;
#X f 15;
#X obj 321 109 r \$0-hz;
#X obj 402 270 rescale~;
#X obj 322 271 select~;
#X obj 409 197 r \$0-unipolar;
#X obj 409 221 + 1;
#X obj 416 78 inlet~ pitch;
#X obj 501 78 inlet~ sync;
#X connect 9 0 11 0;
#X connect 9 0 12 0;
#X connect 10 0 9 0;
#X connect 11 0 12 1;
#X connect 12 0 0 0;
#X connect 13 0 14 0;
#X connect 14 0 12 0;
#X connect 15 0 9 1;
#X connect 16 0 9 2;
#X coords 0 -1 1 1 171 241 2 59 75;
