#N canvas 342 158 731 395 12;
#X declare -path else;
#X text 469 62 sync;
#N canvas 189 344 345 256 GUI 0;
#X msg 85 70 set \$1;
#X obj 85 32 r \$0-hz;
#X obj 85 101 s \$0-set-hz-number;
#X obj 99 144 r \$0-hz-number;
#X obj 99 178 s \$0-hz-set;
#X connect 0 0 2 0;
#X connect 1 0 0 0;
#X connect 3 0 4 0;
#X restore 535 207 pd GUI;
#X text 207 50 SYNC;
#N canvas 286 77 427 473 (subpatch) 0;
#X obj 51 51 cnv 19 170 265 empty empty empty 20 12 0 12 #e0e0e0 #404040 0;
#X floatatom 66 162 7 -36 36 0 - \$0-set-hz-number \$0-hz-number 0;
#X obj 66 114 else/knob 45 0.1 20 1 0.1 \$0-hz \$0-hz-set #dfdfdf #7c7c7c black 0 0 0 0 1 320 0 0 0.1;
#X obj 284 253 tgl 22 0 \$0-soft \$0-soft-set empty 0 -10 0 12 #dfdfdf #000000 #000000 0 1;
#X obj 79 59 note 101 24 Inter empty 5 54 54 54 0 187 187 187 1 1 LFO;
#X obj 140 106 vradio 20 1 0 5 \$0-waveform \$0-set-waveform empty 0 -10 0 12 #dfdfdf #000000 #000000 0;
#X text 166 107 sine;
#X text 166 128 tri;
#X text 166 147 saw;
#X text 165 168 vsaw;
#X text 163 188 square;
#X obj 66 202 else/knob 45 -1 1 0 0 \$0-PWM \$0-set-PWM #dfdfdf #7c7c7c black 0 0 0 0 1 320 0 0 0;
#X text 75 184 PWM;
#X text 82 96 Hz;
#X obj 137 220 tgl 22 0 \$0-unipolar \$0-set-unipolar empty 0 -10 0 12 #dfdfdf #000000 #000000 0 1;
#X text 162 221 Unipolar;
#X text 329 274 Soft Sync;
#X obj 82 273 else/knob 35 -1 1 0 0 \$0-att-fm \$0-att-fm-set #bbbbbb #7c7c7c black 0 0 0 0 1 320 0 0 0;
#X obj 139 273 else/knob 35 -1 1 0 0 \$0-att-pwm \$0-att-pwm-set #bbbbbb #7c7c7c black 0 0 0 0 1 320 0 0 0;
#X text 80 253 Attenuverters;
#X text 58 282 FM;
#X text 182 282 PWM;
#X coords 0 1 100 -1 172 267 1 50 50;
#X restore 58 74 graph;
#N canvas 357 238 527 379 preset 0;
#X obj 121 133 else/sender 1 \\\$0-presets;
#X msg 121 98 name \$1;
#X obj 98 182 else/receiver;
#X obj 123 222 route list;
#N canvas 596 76 470 347 id-name-init 0;
#X obj 165 113 + 1;
#X obj 257 100 else/dollsym 1;
#X obj 141 80 value;
#X obj 141 252 outlet;
#X obj 141 51 else/loadbanger 2;
#X obj 141 201 else/dollsym 1;
#X obj 257 76 symbol lfo-id_\\\$0;
#X obj 141 166 else/format symbol \\\$0-lfo-%d;
#X connect 0 0 2 0;
#X connect 1 0 2 1;
#X connect 2 0 0 0;
#X connect 2 0 7 0;
#X connect 4 0 2 0;
#X connect 4 1 6 0;
#X connect 5 0 3 0;
#X connect 6 0 1 0;
#X connect 7 0 5 0;
#X restore 97 46 pd id-name-init;
#X obj 123 258 else/dispatch \$0-hz-set \$0-set-waveform \$0-set-PWM \$0-set-unipolar \$0-att-fm-set \$0-att-pwm-set;
#X obj 98 311 else/var \$0-set \$0-waveform \$0-PWM \$0-unipolar \$0-att-fm \$0-att-pwm, f 34;
#X connect 1 0 0 0;
#X connect 2 0 3 0;
#X connect 2 0 6 0;
#X connect 3 0 5 0;
#X connect 4 0 1 0;
#X connect 4 0 2 0;
#X restore 593 207 pd preset;
#N canvas 375 158 538 341 init-savestate 0;
#X obj 110 106 savestate;
#X obj 322 205 declare -path else;
#X obj 85 67 loadbang;
#X obj 85 165 list;
#X obj 85 250 else/dispatch \$0-hz-set \$0-set-waveform \$0-set-PWM \$0-set-unipolar \$0-att-fm-set \$0-att-pwm-set;
#X obj 85 205 else/default 0.1 0 0 0 0 0;
#X obj 170 142 else/var \$0-hz \$0-waveform \$0-PWM \$0-unipolar \$0-att-fm \$0-att-pwm, f 33;
#X connect 0 0 3 1;
#X connect 0 1 6 0;
#X connect 2 0 3 0;
#X connect 3 0 5 0;
#X connect 5 0 4 0;
#X connect 6 0 0 0;
#X restore 536 169 pd init-savestate;
#X text 389 62 PWM;
#N canvas 409 155 575 374 oscillators 0;
#N canvas 512 146 576 298 sine~ 0;
#X obj 139 169 else/sine~, f 16;
#X obj 63 107 r \$0-set;
#X obj 139 77 inlet~;
#X obj 270 77 inlet~;
#X obj 205 77 inlet~;
#X obj 139 220 outlet~;
#X obj 352 175 switch~;
#X obj 352 121 r \$0-waveform;
#X obj 352 145 == 0;
#X connect 0 0 5 0;
#X connect 1 0 0 0;
#X connect 2 0 0 0;
#X connect 3 0 0 1;
#X connect 4 0 0 0;
#X connect 7 0 8 0;
#X connect 8 0 6 0;
#X restore 175 202 pd sine~;
#X obj 480 50 inlet~;
#X text 488 30 sync;
#X text 233 17 pitch;
#X obj 423 50 inlet~;
#X text 434 29 PWM;
#X obj 175 315 outlet~;
#N canvas 512 146 518 442 tri~ 0;
#X obj 42 135 r \$0-set;
#X obj 163 88 inlet~;
#X obj 314 88 inlet~;
#X obj 249 88 inlet~;
#X obj 174 349 outlet~;
#X obj 366 198 switch~;
#X obj 366 144 r \$0-waveform;
#X obj 366 168 == 1;
#X obj 173 260 tri~, f 20;
#X connect 0 0 8 0;
#X connect 1 0 8 0;
#X connect 2 0 8 1;
#X connect 3 0 8 0;
#X connect 6 0 7 0;
#X connect 7 0 5 0;
#X connect 8 0 4 0;
#X restore 245 201 pd tri~;
#N canvas 267 161 646 410 saw~ 0;
#X obj 257 92 inlet~;
#X obj 408 92 inlet~;
#X obj 343 92 inlet~;
#X obj 260 294 outlet~;
#X obj 467 197 switch~;
#X obj 467 143 r \$0-waveform;
#X obj 467 167 == 2;
#X obj 150 127 r \$0-set;
#X obj 267 204 saw~, f 23;
#X connect 0 0 8 0;
#X connect 1 0 8 1;
#X connect 2 0 8 0;
#X connect 5 0 6 0;
#X connect 6 0 4 0;
#X connect 7 0 8 0;
#X connect 8 0 3 0;
#X restore 308 201 pd saw~;
#N canvas 447 258 628 376 square~ 0;
#X obj 243 77 inlet~;
#X obj 184 77 inlet~;
#X obj 135 324 outlet~;
#X obj 307 80 inlet~;
#X obj 445 222 switch~;
#X obj 445 168 r \$0-waveform;
#X obj 445 192 == 4;
#X obj 331 118 r \$0-PWM;
#X obj 172 182 r \$0-set;
#X obj 136 254 square~, f 24;
#X obj 243 110 +~;
#X obj 243 184 else/rescale~ 0.05 0.95;
#X obj 331 142 else/f2s~ 20;
#X obj 118 77 inlet~;
#X connect 0 0 10 0;
#X connect 1 0 9 0;
#X connect 3 0 9 2;
#X connect 5 0 6 0;
#X connect 6 0 4 0;
#X connect 7 0 12 0;
#X connect 8 0 9 0;
#X connect 9 0 2 0;
#X connect 10 0 11 0;
#X connect 11 0 9 1;
#X connect 12 0 10 1;
#X connect 13 0 9 0;
#X restore 446 201 pd square~;
#N canvas 512 146 518 387 vsaw~ 0;
#X obj 133 88 inlet~;
#X obj 284 88 inlet~;
#X obj 219 88 inlet~;
#X obj 148 325 outlet~;
#X obj 341 88 inlet~;
#X obj 346 238 switch~;
#X obj 346 184 r \$0-waveform;
#X obj 346 208 == 3;
#X obj 275 154 rescale~;
#X obj 283 124 +~ 0;
#X obj 376 139 r \$0-PWM;
#X obj 15 136 r \$0-set;
#X obj 155 235 vsaw~, f 23;
#X connect 0 0 12 0;
#X connect 1 0 9 0;
#X connect 2 0 12 0;
#X connect 4 0 12 2;
#X connect 6 0 7 0;
#X connect 7 0 5 0;
#X connect 8 0 12 1;
#X connect 9 0 8 0;
#X connect 10 0 9 1;
#X connect 11 0 12 0;
#X connect 12 0 3 0;
#X restore 371 201 pd vsaw~;
#X obj 175 259 else/select~ 5 1, f 33;
#X obj 78 151 r \$0-waveform;
#X obj 78 180 + 1;
#X obj 228 41 r \$0-hz;
#X obj 304 41 inlet~;
#X connect 0 0 11 0;
#X connect 1 0 0 2;
#X connect 1 0 7 2;
#X connect 1 0 8 2;
#X connect 1 0 10 3;
#X connect 1 0 9 3;
#X connect 4 0 10 2;
#X connect 4 0 9 2;
#X connect 7 0 11 1;
#X connect 8 0 11 2;
#X connect 9 0 11 4;
#X connect 10 0 11 3;
#X connect 11 0 6 0;
#X connect 12 0 13 0;
#X connect 13 0 11 0;
#X connect 14 0 0 0;
#X connect 14 0 10 0;
#X connect 14 0 8 0;
#X connect 14 0 7 0;
#X connect 14 0 9 0;
#X connect 15 0 0 1;
#X connect 15 0 7 1;
#X connect 15 0 8 1;
#X connect 15 0 10 1;
#X connect 15 0 9 1;
#X restore 321 160 pd oscillators;
#X f 20;
#X obj 338 206 rescale~;
#X obj 322 271 select~;
#X obj 409 197 r \$0-unipolar;
#X obj 409 221 + 1;
#X text 131 52 PWM;
#X text 50 52 FM;
#X text 329 62 FM;
#N canvas 123 97 435 371 route 0;
#X obj 73 56 inlet;
#X obj 129 270 s \$0-hz-set;
#X obj 147 245 s \$0-set-PWM;
#X obj 164 218 s \$0-set-unipolar;
#X obj 177 191 s \$0-set-waveform;
#X obj 204 136 s \$0-att-pwm-set;
#X obj 190 163 s \$0-att-fm-set;
#X obj 73 90 route hz pwm unipolar waveform att_fm att_pwm, f 23;
#X connect 0 0 7 0;
#X connect 7 0 1 0;
#X connect 7 1 2 0;
#X connect 7 2 3 0;
#X connect 7 3 4 0;
#X connect 7 4 6 0;
#X connect 7 5 5 0;
#X restore 378 124 pd route;
#N canvas 455 175 418 382 att 0;
#X obj 79 42 inlet~;
#X obj 229 42 inlet~;
#X obj 79 244 outlet~;
#X obj 229 244 outlet~;
#X obj 97 126 else/f2s~;
#X obj 79 166 *~;
#X obj 247 126 else/f2s~;
#X obj 229 166 *~;
#X obj 247 102 r \$0-att-pwm;
#X obj 97 102 r \$0-att-fm;
#X connect 0 0 5 0;
#X connect 1 0 7 0;
#X connect 4 0 5 1;
#X connect 5 0 2 0;
#X connect 6 0 7 1;
#X connect 7 0 3 0;
#X connect 8 0 6 0;
#X connect 9 0 4 0;
#X restore 321 123 pd att;
#X obj 321 83 inlet~ fm;
#X obj 379 83 inlet~ pwm;
#X obj 458 83 inlet~ sync;
#X obj 322 313 outlet~ lfo out;
#X connect 7 0 8 0;
#X connect 7 0 9 0;
#X connect 8 0 9 1;
#X connect 9 0 20 0;
#X connect 10 0 11 0;
#X connect 11 0 9 0;
#X connect 16 0 7 0;
#X connect 16 1 7 1;
#X connect 17 0 16 0;
#X connect 17 1 15 0;
#X connect 18 0 16 1;
#X connect 19 0 7 2;
#X coords 0 -1 1 1 171 266 2 59 75;
