#N canvas 0 22 450 278 1;
#X obj 0 0 cnv 15 170 105 empty empty empty 20 12 0 14 #e9e9e9 #373737 0;
#X obj 4 28 cnv 15 162 73 empty empty empty 20 12 0 14 #dbdbdb #373737 0;
#X obj 96 44 knob 50 0 1 0 0 empty empty #e4e4e4 #a8a8a8 #4d4d4d 0 0 0 0 1 270 0 0;
#X obj 0 0 note 170 24 Inter empty 0 255 133 0 0 228 228 228 0 1 LOWPASS;
#X obj 10 31 note 77 13 Inter empty 0 55 55 55 0 228 228 228 0 0 FREQUENCY;
#X obj 21 43 knob 50 20 20000 0 0 empty empty #e4e4e4 #a8a8a8 #4d4d4d 0 0 0 0 1 270 0 0;
#X obj 88 31 note 78 13 Inter empty 0 55 55 55 0 228 228 228 0 0 RESONANCE;
#X obj 192 -42 unpack f f f;
#X obj -81 123 inlet~ signal in;
#X obj -92 255 outlet~ signal out;
#X obj 21 143 sig~;
#X obj 96 144 sig~;
#X obj 192 -69 loadmess 500 0.2;
#X obj 5 -125 inlet time (ms);
#X obj 62 -93 inlet feedback;
#X obj 3 191 lores~;
#X connect 2 0 11 0 empty;
#X connect 5 0 10 0 empty;
#X connect 7 0 5 0 empty;
#X connect 7 1 2 0 empty;
#X connect 8 0 15 0 empty;
#X connect 10 0 15 1 empty;
#X connect 11 0 15 2 empty;
#X connect 12 0 7 0 empty;
#X connect 13 0 5 0 empty;
#X connect 14 0 2 0 empty;
#X connect 15 0 9 0 empty;
#X coords 0 1 100 -1 170 105 2 0 0;
