#N canvas 0 22 450 278 8;
#X obj 0 0 cnv 15 183 118 empty empty empty 20 12 0 14 #dbdbdb #373737 0;
#X obj 26 38 note 43 13 Inter empty 0 55 55 55 0 228 228 228 0 0 BPM;
#X obj 84 38 note 81 13 Inter empty 0 55 55 55 0 228 228 228 0 0 NOTE VALUE;
#X obj 192 -42 unpack f f;
#X obj 96 56 vradio 17 1 0 3 empty empty empty 0 -8 0 10 #dbdbdb #4d4d4d #373737 0;
#X text 120 54 1/4;
#X text 120 71 1/8;
#X text 120 88 1/16;
#X obj 13 63 nbx 6 30 -1e+37 1e+37 0 0 empty empty empty 0 -8 0 10 #dbdbdb #373737 #373737 0 256;
#X obj 5 -125 inlet bpm;
#X obj 62 -93 inlet note value;
#X obj 192 -69 loadmess 120 0;
#X obj -143 238 metro 1 120 permin, f 19;
#X msg -143 186 tempo \$1 permin;
#X obj 68 155 + 1;
#X obj 36 203 !/ 1;
#X obj -143 271 outlet;
#X obj 228 88 note 62 18 Inter empty 5 54 54 54 0 187 187 187 1 1 VCA;
#X obj 33 7 note 132 18 Inter empty 5 54 54 54 0 187 187 187 1 1 METRONOME;
#X obj 21 7 tgl 23 0 empty empty empty 17 7 0 10 #bbbbbb #4d4d4d #373737 0 1;
#X connect 3 0 8 0;
#X connect 3 1 4 0;
#X connect 4 0 14 0;
#X connect 8 0 13 0;
#X connect 9 0 19 0;
#X connect 10 0 4 0;
#X connect 11 0 3 0;
#X connect 12 0 16 0;
#X connect 13 0 12 0;
#X connect 14 0 15 0;
#X connect 15 0 12 1;
#X connect 19 0 12 0;
#X coords 0 1 100 -1 184 118 2 0 0;
