#N canvas 0 22 450 278 1;
#X obj 0 0 cnv 15 215 116 empty empty empty 20 12 0 14 #e9e9e9 #373737 0;
#X obj 4 28 cnv 15 206 84 empty empty empty 20 12 0 14 #dbdbdb #373737 0;
#X obj 0 0 note 216 24 Inter empty 0 145 17 225 0 228 228 228 0 1 MULTI OSC;
#X obj 28 35 note 77 13 Inter empty 0 55 55 55 0 228 228 228 0 0 NOTE;
#X obj 22 53 knob 50 0 127 0 0 empty empty #e4e4e4 #a8a8a8 #4d4d4d 0 0 0 0 1 270 0 0;
#X obj 159 316 outlet~ signal out;
#X obj 21 143 sig~;
#X obj 108 37 vradio 15 1 1 4 empty empty empty 0 -8 0 10 #dcdcdc #000000 #000000 0;
#X text 126 35 saw;
#X text 125 51 square;
#X text 125 66 triangle;
#X text 125 81 sine;
#X obj 158 276 selector~ 4;
#X obj 158 153 + 1;
#X obj 19 173 mtof~;
#X obj 22 -127 inlet note;
#X obj 117 -69 unpack f f;
#X obj 207 222 bl.saw~;
#X obj 273 222 bl.square~;
#X obj 354 222 bl.tri~;
#X obj 416 222 osc~;
#X obj 105 -146 inlet waveshape;
#X obj 124 -105 loadmess 48 0;
#X obj 23 -90 unpack f;
#X connect 4 0 6 0 empty;
#X connect 6 0 14 0 empty;
#X connect 7 0 13 0 empty;
#X connect 12 0 5 0 empty;
#X connect 13 0 12 0 empty;
#X connect 14 0 17 0 empty;
#X connect 14 0 18 0 empty;
#X connect 14 0 19 0 empty;
#X connect 14 0 20 0 empty;
#X connect 15 0 23 0 empty;
#X connect 16 0 4 0 empty;
#X connect 16 1 7 0 empty;
#X connect 17 0 12 1 empty;
#X connect 18 0 12 2 empty;
#X connect 19 0 12 3 empty;
#X connect 20 0 12 4 empty;
#X connect 21 0 7 0 empty;
#X connect 22 0 16 0 empty;
#X connect 23 0 4 0 empty;
#X coords 0 1 100 -1 215 116 2 0 0;
