#N canvas 0 22 450 278 8;
#X obj 0 0 cnv 15 152 115 empty empty empty 20 12 0 14 #dbdbdb #373737 0;
#X obj 159 316 outlet~ signal out;
#X obj 41 46 vradio 15 1 1 3 empty empty empty 0 -8 0 10 #dcdcdc #000000 #000000 0;
#X obj 158 153 + 1;
#X text 59 44 white;
#X text 58 60 pink;
#X text 58 75 brown;
#X obj 181 216 white~;
#X obj 242 216 pink~;
#X obj 294 214 brown~;
#X obj 158 276 selector~ 3;
#X obj 105 -146 inlet noise type;
#X obj 198 -81 loadmess 0;
#X obj 28 6 note 97 18 Inter empty 1 54 54 54 0 187 187 187 1 1 NOISE OSC;
#X connect 2 0 3 0;
#X connect 3 0 10 0;
#X connect 7 0 10 1;
#X connect 8 0 10 2;
#X connect 9 0 10 3;
#X connect 10 0 1 0;
#X connect 11 0 2 0;
#X connect 12 0 2 0;
#X coords 0 1 100 -1 152 116 2 0 0;
