#N canvas 0 22 450 278 1;
#X obj 0 -2 cnv 15 408 247 empty empty empty 20 12 0 14 #e9e9e9 #373737 0;
#X obj 4 28 cnv 15 400 215 empty empty empty 20 12 0 14 #dbdbdb #373737 0;
#X obj 0 0 note 408 24 Inter empty 0 244 0 8 0 228 228 228 0 1 NOTE SEQUENCER;
#X obj 60 213 hradio 19 1 0 16 empty empty empty 0 -8 0 10 #dbdbdb #f40008 #373737 0;
#X obj -114 -110 inlet pulse;
#X obj 60 34 vradio 21 1 0 8 empty empty empty 0 -8 0 10 #e4e4e4 #4d4d4d #373737 0;
#X obj 80 34 vradio 21 1 0 8 empty empty empty 0 -8 0 10 #e4e4e4 #4d4d4d #373737 0;
#X obj 100 34 vradio 21 1 0 8 empty empty empty 0 -8 0 10 #e4e4e4 #4d4d4d #373737 0;
#X obj 120 34 vradio 21 1 0 8 empty empty empty 0 -8 0 10 #e4e4e4 #4d4d4d #373737 0;
#X obj 140 34 vradio 21 1 0 8 empty empty empty 0 -8 0 10 #e4e4e4 #4d4d4d #373737 0;
#X obj 160 34 vradio 21 1 0 8 empty empty empty 0 -8 0 10 #e4e4e4 #4d4d4d #373737 0;
#X obj 180 34 vradio 21 1 0 8 empty empty empty 0 -8 0 10 #e4e4e4 #4d4d4d #373737 0;
#X obj 200 34 vradio 21 1 0 8 empty empty empty 0 -8 0 10 #e4e4e4 #4d4d4d #373737 0;
#X obj 220 34 vradio 21 1 0 8 empty empty empty 0 -8 0 10 #e4e4e4 #4d4d4d #373737 0;
#X obj 240 34 vradio 21 1 0 8 empty empty empty 0 -8 0 10 #e4e4e4 #4d4d4d #373737 0;
#X obj 260 34 vradio 21 1 0 8 empty empty empty 0 -8 0 10 #e4e4e4 #4d4d4d #373737 0;
#X obj 280 34 vradio 21 1 0 8 empty empty empty 0 -8 0 10 #e4e4e4 #4d4d4d #373737 0;
#X obj 300 34 vradio 21 1 0 8 empty empty empty 0 -8 0 10 #e4e4e4 #4d4d4d #373737 0;
#X obj 320 34 vradio 21 1 0 8 empty empty empty 0 -8 0 10 #e4e4e4 #4d4d4d #373737 0;
#X obj 340 34 vradio 21 1 0 8 empty empty empty 0 -8 0 10 #e4e4e4 #4d4d4d #373737 0;
#X obj 360 34 vradio 21 1 0 8 empty empty empty 0 -8 0 10 #e4e4e4 #4d4d4d #373737 0;
#X obj 177 365 int;
#X obj 219 366 int;
#X obj 257 366 int;
#X obj 297 367 int;
#X obj 343 368 int;
#X obj 385 369 int;
#X obj 423 369 int;
#X obj 463 370 int;
#X obj 178 403 int;
#X obj 220 404 int;
#X obj 258 404 int;
#X obj 298 405 int;
#X obj 344 406 int;
#X obj 386 407 int;
#X obj 424 407 int;
#X obj 464 408 int;
#X obj 416 238 sel 0 1 2 3 4 5 6 7 8 9 10 11 12 13 14 15;
#X obj 300 484 t f;
#X obj -112 -69 counter 15;
#X symbolatom 25 57 4 0 0 0 - - - 0;
#X symbolatom 25 81 4 0 0 0 - - - 0;
#X symbolatom 25 101 4 0 0 0 - - - 0;
#X symbolatom 25 123 4 0 0 0 - - - 0;
#X symbolatom 25 145 4 0 0 0 - - - 0;
#X symbolatom 25 168 4 0 0 0 - - - 0;
#X symbolatom 25 190 4 0 0 0 - - - 0;
#X symbolatom 25 33 4 0 0 0 - - - 0;
#X obj -96 316 pak s s s s s s s s;
#X obj 154 569 zl lookup;
#X obj -413 -79 loadmess S C4 D4 E4 F4 G4 A4 B4;
#X obj 154 601 note2pitch;
#X obj 155 634 outlet;
#X obj -410 -46 unpack s s s s s s s s;
#X connect 3 0 37 0 empty;
#X connect 4 0 39 0 empty;
#X connect 5 0 21 1 empty;
#X connect 6 0 22 1 empty;
#X connect 7 0 23 1 empty;
#X connect 8 0 24 1 empty;
#X connect 9 0 25 1 empty;
#X connect 10 0 26 1 empty;
#X connect 11 0 27 1 empty;
#X connect 12 0 28 1 empty;
#X connect 13 0 29 1 empty;
#X connect 14 0 30 1 empty;
#X connect 15 0 31 1 empty;
#X connect 16 0 32 1 empty;
#X connect 17 0 33 1 empty;
#X connect 18 0 34 1 empty;
#X connect 19 0 35 1 empty;
#X connect 20 0 36 1 empty;
#X connect 21 0 38 0 empty;
#X connect 22 0 38 0 empty;
#X connect 23 0 38 0 empty;
#X connect 24 0 38 0 empty;
#X connect 25 0 38 0 empty;
#X connect 26 0 38 0 empty;
#X connect 27 0 38 0 empty;
#X connect 28 0 38 0 empty;
#X connect 29 0 38 0 empty;
#X connect 30 0 38 0 empty;
#X connect 31 0 38 0 empty;
#X connect 32 0 38 0 empty;
#X connect 33 0 38 0 empty;
#X connect 34 0 38 0 empty;
#X connect 35 0 38 0 empty;
#X connect 36 0 38 0 empty;
#X connect 37 0 21 0 empty;
#X connect 37 1 22 0 empty;
#X connect 37 2 23 0 empty;
#X connect 37 3 24 0 empty;
#X connect 37 4 25 0 empty;
#X connect 37 5 26 0 empty;
#X connect 37 6 27 0 empty;
#X connect 37 7 28 0 empty;
#X connect 37 8 29 0 empty;
#X connect 37 9 30 0 empty;
#X connect 37 10 31 0 empty;
#X connect 37 11 32 0 empty;
#X connect 37 12 33 0 empty;
#X connect 37 13 34 0 empty;
#X connect 37 14 35 0 empty;
#X connect 37 15 36 0 empty;
#X connect 38 0 49 0 empty;
#X connect 39 0 3 0 32.................LC...zJ....y....sB...DO....;
#X connect 40 0 48 1 empty;
#X connect 41 0 48 2 empty;
#X connect 42 0 48 3 empty;
#X connect 43 0 48 4 empty;
#X connect 44 0 48 5 empty;
#X connect 45 0 48 6 empty;
#X connect 46 0 48 7 empty;
#X connect 47 0 48 0 empty;
#X connect 48 0 49 1 empty;
#X connect 49 0 51 0 empty;
#X connect 50 0 53 0 empty;
#X connect 51 0 52 0 empty;
#X connect 53 0 47 0 empty;
#X connect 53 1 40 0 empty;
#X connect 53 2 41 0 empty;
#X connect 53 3 42 0 empty;
#X connect 53 4 43 0 empty;
#X connect 53 5 44 0 empty;
#X connect 53 6 45 0 empty;
#X connect 53 7 46 0 empty;
#X coords 0 1 100 -1 408 247 2 0 0;
