#N canvas 0 22 450 278 8;
#X obj 0 0 cnv 15 123 30 empty empty empty 20 12 0 14 #dbdbdb #373737 0;
#X obj 240 315 outlet~ signal out;
#X obj 446 114 loadmess open GS/GeneralUser_GS.sf3 @defer 1;
#X obj 245 275 sfont~;
#X obj 444 148 t b a;
#X obj 458 42 bng 25 250 50 0 empty empty empty 17 7 0 10 #e4e4e4 #4d4d4d #373737;
#X msg 443 251 pgm 17;
#X obj 248 197 inlet;
#X obj 25 3 note 71 18 Inter empty 5 54 54 54 0 187 187 187 1 1 ORGAN;
#X connect 2 0 4 0;
#X connect 3 0 1 0;
#X connect 4 0 6 0;
#X connect 4 1 3 0;
#X connect 5 0 2 0;
#X connect 6 0 3 0;
#X connect 7 0 3 0;
#X coords 0 1 100 -1 124 30 2 0 0;
