#N canvas 379 67 577 579 12;
#X declare -path else;
#N canvas 227 82 394 451 (subpatch) 0;
#X obj 112 112 cnv 15 175 135 empty empty empty 20 12 0 14 #dbdbdb #373737 0;
#X obj 136 121 note 104 24 Inter empty 5 54 54 54 0 187 187 187 1 1 PHASER;
#X obj 121 187 else/knob 41 0.1 5 4 0.1 \$0-rate \$0-set-rate #dfdfdf #bbbbbb #000000 0 0 0 0 1 320 0 0 0.1;
#X obj 172 187 else/knob 41 5 0.1 -2 5 \$0-q \$0-set-q #dfdfdf #afafaf black 0 0 0 0 1 320 0 0 5;
#X obj 232 187 else/knob 41 0 1 0 0 \$0-wet \$0-set-wet #9f9f9f #afafaf black 0 0 0 0 1 320 0 0 0;
#X text 225 168 Dry/Wet;
#X text 126 168 Rate;
#X text 182 168 BW;
#X coords 0 1 100 -1 177 137 1 111 111;
#X restore 208 150 graph;
#N canvas 243 43 508 419 preset 0;
#X obj 125 121 else/sender 1 \\\$0-presets;
#X msg 125 86 name \$1;
#X obj 90 171 else/receiver;
#X obj 123 220 route list;
#N canvas 477 117 491 352 id-name-init 0;
#X obj 165 113 + 1;
#X obj 257 100 else/dollsym 1;
#X obj 141 80 value;
#X obj 141 252 outlet;
#X obj 141 51 else/loadbanger 2;
#X obj 141 201 else/dollsym 1;
#X obj 257 76 symbol phaser-id_\\\$0;
#X obj 141 166 else/format symbol \\\$0-phaser-%d;
#X connect 0 0 2 0;
#X connect 1 0 2 1;
#X connect 2 0 0 0;
#X connect 2 0 7 0;
#X connect 4 0 2 0;
#X connect 4 1 6 0;
#X connect 5 0 3 0;
#X connect 6 0 1 0;
#X connect 7 0 5 0;
#X restore 90 39 pd id-name-init;
#X obj 123 257 else/dispatch \$0-set-rate \$0-set-q \$0-set-wet;
#X obj 90 311 else/var \$0-rate \$0-q \$0-wet;
#X connect 1 0 0 0;
#X connect 2 0 3 0;
#X connect 2 0 6 0;
#X connect 3 0 5 0;
#X connect 4 0 1 0;
#X connect 4 0 2 0;
#X restore 286 69 pd preset;
#N canvas 171 120 601 317 init-savestate 0;
#X obj 74 87 savestate;
#X obj 320 171 declare -path else;
#X obj 49 125 list;
#X obj 49 43 loadbang;
#X obj 134 119 else/var \$0-rate \$0-q \$0-wet;
#X obj 49 222 else/dispatch \$0-set-rate \$0-set-q \$0-set-wet;
#X obj 49 171 else/default 0.1 3 0.5;
#X connect 0 0 2 1;
#X connect 0 1 4 0;
#X connect 2 0 6 0;
#X connect 3 0 2 0;
#X connect 4 0 0 0;
#X connect 6 0 5 0;
#X restore 228 36 pd init-savestate;
#N canvas 200 115 540 333 GUI 0;
#X obj 119 96 r \$0-wet;
#X obj 183 123 r \$0-q;
#X msg 119 121 wet \$1;
#X msg 183 148 q \$1;
#X obj 125 194 s \$0-phaser;
#X connect 0 0 2 0;
#X connect 1 0 3 0;
#X connect 2 0 4 0;
#X connect 3 0 4 0;
#X restore 226 69 pd GUI;
#X text 201 129 IN;
#X obj 231 401 r \$0-rate;
#X obj 89 451 phaser~ 6, f 12;
#X obj 231 498 mtof~;
#X obj 231 427 osc~;
#X obj 231 457 rescale~ 50 2000;
#X obj 111 403 r \$0-phaser;
#N canvas 202 189 278 259 route 0;
#X obj 56 30 inlet;
#X obj 69 170 s \$0-set-rate;
#X obj 97 140 s \$0-set-q;
#X obj 133 105 s \$0-set-wet;
#X obj 56 74 route rate bw wet;
#X connect 0 0 4 0;
#X connect 4 0 1 0;
#X connect 4 1 2 0;
#X connect 4 2 3 0;
#X restore 128 71 pd route;
#X obj 89 35 inlet~ signal in;
#X obj 89 522 outlet~ signal out;
#X connect 5 0 8 0;
#X connect 6 0 13 0;
#X connect 8 0 9 0;
#X connect 9 0 7 0;
#X connect 9 0 6 1;
#X connect 10 0 6 0;
#X connect 12 0 6 0;
#X connect 12 1 11 0;
#X coords 0 1 100 -1 176 136 2 209 151;
