#N canvas 0 22 450 278 1;
#X obj 0 0 cnv 15 169 120 empty empty empty 20 12 0 14 #e9e9e9 #373737 0;
#X obj 4 28 cnv 15 161 88 empty empty empty 20 12 0 14 #dbdbdb #373737 0;
#X obj 60 47 knob 50 5 10000 0 0 empty empty #e4e4e4 #a8a8a8 #4d4d4d 0 0 0 0 1 270 0 0;
#X obj 120 47 knob 50 1 2000 0 0 empty empty #e4e4e4 #a8a8a8 #4d4d4d 0 0 0 0 1 270 0 0;
#X obj 0 0 note 169 24 Inter empty 0 0 122 255 0 228 228 228 0 1 PHASER;
#X obj 6 31 note 38 13 Inter empty 0 55 55 55 0 228 228 228 0 0 RATE;
#X obj 1 47 knob 50 0 8 0 0 empty empty #e4e4e4 #a8a8a8 #4d4d4d 0 0 0 0 1 270 0 0;
#X obj 59 31 note 47 13 Inter empty 0 55 55 55 0 228 228 228 0 0 DEPTH;
#X obj 115 31 note 56 13 Inter empty 0 55 55 55 0 228 228 228 0 0 OFFSET;
#X obj 192 -42 unpack f f f;
#X obj 62 -93 inlet depth;
#X obj 5 -125 inlet rate;
#X obj -100 258 inlet~ signal in;
#X obj -100 359 outlet~ signal out;
#X obj -100 315 phaser~;
#X obj 22 293 else/rescale~ 100 1000;
#X obj 22 258 osc~ 0.33;
#X obj 132 135 sig~;
#X obj 80 135 sig~;
#X obj 146 247 +~;
#X obj 192 -69 loadmess 3 1000 100;
#X obj 35 147 sig~;
#X obj 120 -54 inlet offset;
#X connect 2 0 18 0 empty;
#X connect 3 0 17 0 empty;
#X connect 6 0 21 0 empty;
#X connect 9 0 6 0 empty;
#X connect 9 1 2 0 empty;
#X connect 9 2 3 0 empty;
#X connect 10 0 2 0 empty;
#X connect 11 0 6 0 empty;
#X connect 12 0 14 0 empty;
#X connect 14 0 13 0 empty;
#X connect 15 0 14 1 empty;
#X connect 16 0 15 0 empty;
#X connect 17 0 19 1 empty;
#X connect 17 0 15 1 empty;
#X connect 18 0 19 0 empty;
#X connect 19 0 15 2 empty;
#X connect 20 0 9 0 empty;
#X connect 21 0 16 0 empty;
#X connect 22 0 3 0 empty;
#X coords 0 1 100 -1 169 120 2 0 0;
