#N canvas 0 22 450 278 8;
#X obj -1 -1 cnv 15 119 33 empty empty empty 20 12 0 14 #dbdbdb #373737 0;
#X obj 239 413 outlet~ signal out;
#X obj 446 114 loadmess open GS/GeneralUser_GS.sf3 @defer 1;
#X obj 244 373 sfont~;
#X obj 242 205 inlet;
#X obj 28 4 note 62 18 Inter empty 5 54 54 54 0 187 187 187 1 1 PIANO;
#X connect 2 0 3 0;
#X connect 3 0 1 0;
#X connect 4 0 3 0;
#X coords 0 1 100 -1 119 32 2 0 0;
