#N canvas 262 144 850 422 12;
#X declare -path else;
#N canvas 370 63 507 325 (subpatch) 1;
#X obj 51 51 cnv 15 400 228 empty empty empty 20 12 0 14 #dbdbdb #373737 0;
#X obj 66 61 note 115 24 Inter empty 5 54 54 54 0 187 187 187 1 1 PLAITS;
#X obj 195 122 else/knob 50 0 1 0 0.5 \$0-harmonics \$0-set-harmonics #dfdfdf #7c7c7c black 0 0 0 0 1 320 0 0 0.5;
#X text 190 105 Harmonics;
#X obj 71 196 else/knob 50 0 1 0 0.5 \$0-timbre \$0-set-timbre #dfdfdf #7c7c7c black 0 0 0 0 1 320 0 0 0.5;
#X text 72 178 Timbre;
#X obj 195 196 else/knob 50 0 1 0 0.5 \$0-morph \$0-set-morph #dfdfdf #7c7c7c black 0 0 0 0 1 320 0 0 0.5;
#X text 201 178 Morph;
#X obj 71 122 else/knob 50 -24 24 0 0 \$0-freq \$0-set-freq #dfdfdf #7c7c7c black 0 0 0 0 1 320 0 0 0;
#X obj 131 102 vradio 18 1 0 8 \$0-radio-1 \$0-set-radio-1 empty 0 -8 0 10 #dfdfdf #00b1a5 #000000 0;
#X obj 149 102 vradio 18 1 0 8 \$0-radio-2 \$0-set-radio-2 empty 0 -8 0 10 #dfdfdf #dfdfdf #000000 0;
#X obj 167 102 vradio 18 1 0 8 \$0-radio-3 \$0-set-radio-3 empty 0 -8 0 10 #dfdfdf #dfdfdf #000000 0;
#X obj 60 255 else/note 197 12 Menlo \$0-label 4 0 0 0 0 223 223 223 1 1 Pair of classic waveforms;
#X obj 313 75 else/knob 45 0 1 0 0.5 \$0-cutoff \$0-set-cutoff #dfdfdf #7c7c7c black 0 0 0 0 1 320 0 0 0;
#X obj 373 75 else/knob 45 0 1 0 0.5 \$0-decay \$0-set-decay #dfdfdf #7c7c7c black 0 0 0 0 1 320 0 0 0;
#X text 311 57 Cutoff;
#X text 378 57 Decay;
#X text 281 87 LPG;
#X obj 313 149 knob 40 -1 1 0 0 \$0-timbre-att \$0-set-timbre-att #202020 #7c7c7c #ff0400 0 0 0 0 1 320 0 0 0;
#X obj 268 149 knob 40 -1 1 0 0 \$0-freq-att \$0-set-freq-att #202020 #7c7c7c #ff0400 0 0 0 0 1 320 0 0 0;
#X obj 358 149 knob 40 -1 1 0 0 \$0-harmonics-att \$0-set-harmonics-att #202020 #7c7c7c #ff0400 0 0 0 0 1 320 0 0 0;
#X obj 403 149 knob 40 -1 1 0 0 \$0-morph-att \$0-set-morph-att #202020 #7c7c7c #ff0400 0 0 0 0 1 320 0 0 0;
#X text 278 189 FM;
#X text 309 189 Timbre;
#X text 362 188 Harm;
#X text 402 188 Morph;
#X floatatom 361 217 3 1 32 0 - \$0-set-n-voices \$0-n-voices 16;
#X obj 278 217 tgl 23 0 \$0-midi-mode \$0-set-midi-mode empty 0 -10 0 12 #dfdfdf #ff0400 #000000 0 1;
#X obj 361 248 tgl 23 0 \$0-level-mode \$0-set-level-mode empty 0 -10 0 12 #dfdfdf #000000 #000000 0 1;
#X obj 278 248 tgl 23 0 \$0-trigger-mode \$0-set-trigger-mode empty 0 -10 0 12 #dfdfdf #000000 #000000 0 1;
#X text 303 219 MIDI, f 7;
#X text 303 250 Trigger;
#X text 390 250 Level;
#X text 397 219 Voices;
#X floatatom 209 78 3 0 0 0 - \$0-set-model-n \$0-model-n 0;
#X text 202 60 Mode:;
#X text 79 104 Freq;
#X text 267 127 ---- Attenuverters ----;
#X coords 0 1 100 -1 402 230 1 50 50;
#X restore 408 146 graph;
#X obj 78 387 outlet~;
#N canvas 243 43 837 403 preset 0;
#X obj 125 121 else/sender 1 \\\$0-presets;
#X msg 125 86 name \$1;
#X obj 90 161 else/receiver;
#X obj 123 210 route list;
#N canvas 596 76 491 352 id-name-init 0;
#X obj 165 113 + 1;
#X obj 257 100 else/dollsym 1;
#X obj 141 80 value;
#X obj 141 252 outlet;
#X obj 141 51 else/loadbanger 2;
#X obj 141 201 else/dollsym 1;
#X obj 257 76 symbol plaits-id_\\\$0;
#X obj 141 166 else/format symbol \\\$0-plaits-%d;
#X connect 0 0 2 0;
#X connect 1 0 2 1;
#X connect 2 0 0 0;
#X connect 2 0 7 0;
#X connect 4 0 2 0;
#X connect 4 1 6 0;
#X connect 5 0 3 0;
#X connect 6 0 1 0;
#X connect 7 0 5 0;
#X restore 90 39 pd id-name-init;
#X obj 122 247 else/dispatch \$0-set-freq \$0-set-harmonics \$0-set-timbre \$0-set-morph \$0-set-model \$0-set-cutoff \$0-set-decay \$0-set-freq-att \$0-set-timbre-att \$0-set-harmonics-att \$0-set-morph-att \$0-set-midi-mode \$0-set-n-voices \$0-set-trigger-mode \$0-set-level-mode, f 87;
#X obj 90 310 else/var \$0-freq \$0-harmonics \$0-timbre \$0-morph \$0-model \$0-cutoff \$0-decay \$0-freq-att \$0-timbre-att \$0-harmonics-att \$0-morph-att \$0-midi-mode \$0-n-voices \$0-trigger-mode \$0-level-mode, f 98;
#X connect 1 0 0 0;
#X connect 2 0 3 0;
#X connect 2 0 6 0;
#X connect 3 0 5 0;
#X connect 4 0 1 0;
#X connect 4 0 2 0;
#X restore 615 71 pd preset;
#N canvas 502 163 660 406 init-savestate 0;
#X obj 74 87 savestate;
#X obj 430 198 declare -path else;
#X obj 49 125 list;
#X obj 49 43 loadbang;
#X obj 49 242 else/dispatch \$0-set-freq \$0-set-harmonics \$0-set-timbre \$0-set-morph \$0-set-model \$0-set-cutoff \$0-set-decay \$0-set-freq-att \$0-set-timbre-att \$0-set-harmonics-att \$0-set-morph-att \$0-set-midi-mode \$0-set-n-voices \$0-set-trigger-mode \$0-set-level-mode, f 73;
#X obj 134 118 else/var \$0-freq \$0-harmonics \$0-timbre \$0-morph \$0-model \$0-cutoff \$0-decay \$0-freq-att \$0-timbre-att \$0-harmonics-att \$0-morph-att \$0-midi-mode \$0-n-voices \$0-trigger-mode \$0-level-mode, f 67;
#X obj 49 198 else/default 0 0.5 0.5 0.5 0 0.5 0.5 0 0 0 0 0 4 0 0;
#X connect 0 0 2 1;
#X connect 0 1 5 0;
#X connect 2 0 6 0;
#X connect 3 0 2 0;
#X connect 5 0 0 0;
#X connect 6 0 4 0;
#X restore 560 48 pd init-savestate;
#X obj 188 387 outlet~;
#N canvas 284 91 817 612 GUI 0;
#N canvas 181 203 498 298 radio-1 0;
#X obj 90 43 r \$0-radio-1;
#X msg 117 127 color #dfdfdf #dfdfdf #000000;
#X obj 90 71 t f b;
#X obj 125 153 s \$0-set-radio-2;
#X obj 132 95 s \$0-set-radio-1;
#X obj 90 204 outlet;
#X obj 117 176 s \$0-set-radio-3;
#X msg 214 23 color #dfdfdf #00ff00 #000000;
#X msg 132 71 color #dfdfdf #00b1a5 #000000;
#X connect 0 0 2 0;
#X connect 1 0 3 0;
#X connect 1 0 6 0;
#X connect 2 0 5 0;
#X connect 2 1 1 0;
#X connect 2 1 8 0;
#X connect 8 0 4 0;
#X restore 61 265 pd radio-1;
#N canvas 202 189 450 300 radio-2 0;
#X obj 85 98 t f b;
#X obj 85 231 outlet;
#X obj 85 40 r \$0-radio-2;
#X obj 127 122 s \$0-set-radio-2;
#X obj 85 68 + 8;
#X msg 112 154 color #dfdfdf #dfdfdf #000000;
#X obj 123 178 s \$0-set-radio-1;
#X obj 112 199 s \$0-set-radio-3;
#X msg 127 98 color #dfdfdf #ff518d #000000;
#X connect 0 0 1 0;
#X connect 0 1 5 0;
#X connect 0 1 8 0;
#X connect 2 0 4 0;
#X connect 4 0 0 0;
#X connect 5 0 6 0;
#X connect 5 0 7 0;
#X connect 8 0 3 0;
#X restore 87 289 pd radio-2;
#N canvas 202 189 450 300 radio-3 0;
#X obj 85 98 t f b;
#X obj 85 231 outlet;
#X obj 112 207 s \$0-set-radio-1;
#X msg 112 154 color #dfdfdf #dfdfdf #000000;
#X obj 85 40 r \$0-radio-3;
#X obj 85 68 + 16;
#X obj 130 182 s \$0-set-radio-2;
#X obj 127 122 s \$0-set-radio-3;
#X msg 127 98 color #dfdfdf #f4560a #000000;
#X connect 0 0 1 0;
#X connect 0 1 3 0;
#X connect 0 1 8 0;
#X connect 3 0 2 0;
#X connect 3 0 6 0;
#X connect 4 0 5 0;
#X connect 5 0 0 0;
#X connect 8 0 7 0;
#X restore 99 312 pd radio-3;
#X obj 87 348 s \$0-model;
#X obj 64 415 else/spread 8 16;
#X obj 74 167 symbol2any;
#X obj 74 218 s \$0-label;
#X obj 74 47 r \$0-name;
#X obj 74 71 route 0;
#X obj 74 95 route name;
#X obj 74 142 symbol;
#X obj 118 492 s \$0-set-radio-2;
#X obj 173 467 s \$0-set-radio-3;
#X obj 99 520 s \$0-set-radio-1;
#X obj 64 388 r \$0-set-model;
#X obj 118 444 - 8;
#X obj 173 442 - 16;
#X obj 74 192 else/insert set;
#X obj 74 119 else/changed;
#X obj 340 60 r \$0-model;
#X obj 395 258 r \$0-morph;
#X obj 356 125 r \$0-harmonics;
#X obj 406 323 r \$0-cutoff;
#X obj 419 387 r \$0-decay;
#X obj 381 190 r \$0-timbre;
#X msg 340 89 model \$1;
#X msg 356 154 harmonics \$1;
#X msg 381 219 timbre \$1;
#X msg 395 287 morph \$1;
#X msg 406 352 cutoff \$1;
#X msg 418 414 decay \$1;
#X obj 340 501 s \$0-to-plaits;
#X obj 340 471 else/insert all;
#X obj 557 122 r \$0-fm-in;
#X obj 510 23 r \$0-trig;
#X obj 533 72 r \$0-level;
#X obj 557 520 s \$0-to-plaits;
#X obj 557 493 else/insert all;
#X msg 557 144 freq_active \$1;
#X obj 574 172 r \$0-t-in;
#X msg 574 194 timbre_active \$1;
#X obj 598 275 r \$0-m-in;
#X msg 598 298 morph_active \$1;
#X obj 619 378 r \$0-timbre-att;
#X obj 609 326 r \$0-freq-att;
#X obj 628 429 r \$0-morph-att;
#X msg 609 348 freq_mod \$1;
#X msg 619 401 timbre_mod \$1;
#X msg 628 451 morph_mod \$1;
#X msg 510 45 tr_active \$1;
#X msg 533 94 lvl_active \$1;
#X obj 586 222 r \$0-midi-mode;
#X msg 586 243 midi_active \$1;
#X obj 657 26 r \$0-trigger-mode;
#X obj 657 77 r \$0-level-mode;
#X obj 657 102 s \$0-level;
#X obj 657 51 s \$0-trig;
#X msg 216 161 set \$1;
#X obj 216 191 s \$0-set-model-n;
#X obj 216 130 r \$0-model;
#X obj 215 304 r \$0-freq;
#X msg 215 334 transp \$1;
#X connect 0 0 3 0;
#X connect 1 0 3 0;
#X connect 2 0 3 0;
#X connect 4 0 13 0;
#X connect 4 1 15 0;
#X connect 4 2 16 0;
#X connect 5 0 17 0;
#X connect 7 0 8 0;
#X connect 8 0 9 0;
#X connect 9 0 18 0;
#X connect 10 0 5 0;
#X connect 14 0 4 0;
#X connect 15 0 11 0;
#X connect 16 0 12 0;
#X connect 17 0 6 0;
#X connect 18 0 10 0;
#X connect 19 0 25 0;
#X connect 20 0 28 0;
#X connect 21 0 26 0;
#X connect 22 0 29 0;
#X connect 23 0 30 0;
#X connect 24 0 27 0;
#X connect 25 0 32 0;
#X connect 26 0 32 0;
#X connect 27 0 32 0;
#X connect 28 0 32 0;
#X connect 29 0 32 0;
#X connect 30 0 32 0;
#X connect 32 0 31 0;
#X connect 33 0 38 0;
#X connect 34 0 49 0;
#X connect 35 0 50 0;
#X connect 37 0 36 0;
#X connect 38 0 37 0;
#X connect 39 0 40 0;
#X connect 40 0 37 0;
#X connect 41 0 42 0;
#X connect 42 0 37 0;
#X connect 43 0 47 0;
#X connect 44 0 46 0;
#X connect 45 0 48 0;
#X connect 46 0 37 0;
#X connect 47 0 37 0;
#X connect 48 0 37 0;
#X connect 49 0 37 0;
#X connect 50 0 37 0;
#X connect 51 0 52 0;
#X connect 52 0 37 0;
#X connect 53 0 56 0;
#X connect 54 0 55 0;
#X connect 57 0 58 0;
#X connect 59 0 57 0;
#X connect 60 0 61 0;
#X connect 61 0 32 0;
#X restore 560 71 pd GUI;
#N canvas 293 48 467 262 set 0;
#X obj 95 185 outlet;
#X obj 84 35 inlet~;
#X obj 95 147 r \$0-to-plaits;
#X obj 175 38 inlet;
#N canvas 161 164 571 476 resize 0;
#X obj 64 37 inlet~;
#X obj 64 268 t b f;
#X obj 64 198 change 0;
#X obj 64 88 else/nchs~;
#X obj 125 278 s \$0-to-plaits;
#X msg 125 253 resize \$1;
#X obj 64 116 spigot;
#X obj 156 116 == 0;
#X obj 266 77 r \$0-n;
#X obj 156 77 r \$0-midi-mode;
#X obj 218 145 spigot;
#X obj 64 322 else/var \$0-freq \$0-model \$0-harmonics \$0-timbre \$0-morph \$0-cutoff \$0-decay \$0-trig \$0-level \$0-fm-in \$0-t-in \$0-m-in \$0-freq-att \$0-timbre-att \$0-morph-att \$0-midi-mode;
#X obj 64 393 else/dispatch \$0-freq \$0-model \$0-harmonics \$0-timbre \$0-morph \$0-cutoff \$0-decay \$0-trig \$0-level \$0-fm-in \$0-t-in \$0-m-in \$0-freq-att \$0-timbre-att \$0-morph-att \$0-midi-mode, f 62;
#X connect 0 0 3 0;
#X connect 1 0 11 0;
#X connect 1 1 5 0;
#X connect 2 0 1 0;
#X connect 3 0 6 0;
#X connect 5 0 4 0;
#X connect 6 0 2 0;
#X connect 7 0 6 1;
#X connect 8 0 10 0;
#X connect 9 0 10 1;
#X connect 9 0 7 0;
#X connect 10 0 2 0;
#X connect 11 0 12 0;
#X restore 84 88 pd resize;
#N canvas 189 48 592 549 route 0;
#X obj 37 18 inlet;
#X obj 141 487 s \$0-set-freq;
#X obj 162 431 s \$0-set-harmonics;
#X obj 150 458 s \$0-set-timbre;
#X obj 182 403 s \$0-set-morph;
#X obj 203 375 s \$0-set-cutoff;
#X obj 221 347 s \$0-set-decay;
#X obj 238 323 s \$0-set-freq-att;
#X obj 254 296 s \$0-set-timbre-att;
#X obj 267 272 s \$0-set-harmonics-att;
#X obj 281 246 s \$0-set-morph-att;
#N canvas 133 232 467 494 list 0;
#X obj 86 245 else/router;
#X obj 197 299 else/mono;
#X obj 197 333 pack;
#X obj 197 367 list prepend 0;
#X obj 197 414 s \$0-to-plaits;
#X obj 185 71 r \$0-n-voices;
#X obj 185 119 int;
#X obj 274 204 s \$0-set-n-voices;
#X msg 274 177 set \$1;
#X obj 86 59 inlet;
#X obj 207 198 s \$0-n;
#X obj 132 182 == 1;
#X obj 66 309 else/voices 1 1;
#X obj 185 95 clip 1 32;
#X msg 185 250 n \$1;
#X connect 0 0 12 0;
#X connect 0 1 1 0;
#X connect 1 0 2 0;
#X connect 1 1 2 1;
#X connect 2 0 3 0;
#X connect 3 0 4 0;
#X connect 5 0 13 0;
#X connect 6 0 8 0;
#X connect 6 0 10 0;
#X connect 6 0 11 0;
#X connect 6 0 14 0;
#X connect 8 0 7 0;
#X connect 9 0 0 0;
#X connect 11 0 0 1;
#X connect 12 0 4 0;
#X connect 13 0 6 0;
#X connect 14 0 12 0;
#X restore 37 378 pd list;
#N canvas 123 97 762 358 mode 0;
#X obj 94 38 inlet;
#X obj 306 303 s \$0-set-model;
#X obj 94 138 int;
#X obj 94 162 clip 0 23;
#X obj 94 62 route mode up down right left, f 74;
#X obj 187 117 var \$0-model;
#X obj 306 117 var \$0-model;
#X obj 436 117 var \$0-model;
#X obj 436 148 + 8;
#X obj 562 117 var \$0-model;
#X obj 562 148 - 8;
#X obj 187 178 else/wrap2 0 24;
#X obj 306 178 else/wrap2 0 24;
#X obj 436 178 else/wrap2 0 24;
#X obj 562 178 else/wrap2 0 24;
#X obj 711 259 outlet;
#X obj 187 148 - 1;
#X obj 306 148 + 1;
#X obj 84 102 r \$0-model-n;
#X connect 0 0 4 0;
#X connect 2 0 3 0;
#X connect 3 0 1 0;
#X connect 4 0 2 0;
#X connect 4 1 5 0;
#X connect 4 2 6 0;
#X connect 4 3 7 0;
#X connect 4 4 9 0;
#X connect 4 5 15 0;
#X connect 5 0 16 0;
#X connect 6 0 17 0;
#X connect 7 0 8 0;
#X connect 8 0 13 0;
#X connect 9 0 10 0;
#X connect 10 0 14 0;
#X connect 11 0 1 0;
#X connect 12 0 1 0;
#X connect 13 0 1 0;
#X connect 14 0 1 0;
#X connect 16 0 11 0;
#X connect 17 0 12 0;
#X connect 18 0 2 0;
#X restore 440 101 pd mode;
#N canvas 149 120 708 477 midi 0;
#X obj 122 194 s \$0-set-midi-mode;
#X obj 94 294 s \$0-set-n-voices;
#X obj 122 166 != 0;
#X obj 118 24 inlet;
#X obj 98 252 route float;
#X obj 98 58 route voices midi trigger level, f 52;
#X obj 269 164 != 0;
#X obj 427 167 != 0;
#X obj 269 192 s \$0-set-trigger-mode;
#X obj 427 195 s \$0-set-level-mode;
#X obj 269 109 route float bang;
#X obj 427 112 route float bang;
#X obj 122 111 route float bang;
#X connect 2 0 0 0;
#X connect 3 0 5 0;
#X connect 4 0 1 0;
#X connect 5 0 4 0;
#X connect 5 1 12 0;
#X connect 5 2 10 0;
#X connect 5 3 11 0;
#X connect 6 0 8 0;
#X connect 7 0 9 0;
#X connect 10 0 6 0;
#X connect 10 1 8 0;
#X connect 11 0 7 0;
#X connect 11 1 9 0;
#X connect 12 0 2 0;
#X connect 12 1 0 0;
#X restore 440 135 pd midi;
#X obj 37 54 route list freq timbre harmonics morph cutoff decay fm_att timbre_att harm_att morph_att print;
#X obj 398 206 s \$0-to-plaits;
#X msg 398 180 0 print;
#X connect 0 0 14 0;
#X connect 12 0 13 0;
#X connect 14 0 11 0;
#X connect 14 1 1 0;
#X connect 14 2 3 0;
#X connect 14 3 2 0;
#X connect 14 4 4 0;
#X connect 14 5 5 0;
#X connect 14 6 6 0;
#X connect 14 7 7 0;
#X connect 14 8 8 0;
#X connect 14 9 9 0;
#X connect 14 10 10 0;
#X connect 14 11 16 0;
#X connect 14 12 12 0;
#X connect 16 0 15 0;
#X restore 175 88 pd route;
#X connect 1 0 4 0;
#X connect 2 0 0 0;
#X connect 3 0 5 0;
#X restore 21 205 pd set;
#X obj 299 346 s \$0-name;
#X obj 78 312 clone -d plaits.unit 1, f 32;
#N canvas 52 101 1125 413 check 0;
#X obj 44 63 inlet~;
#X obj 44 346 outlet~;
#X obj 80 105 else/pick~ 1;
#X obj 80 152 else/s2f~;
#X obj 80 185 change;
#X obj 80 128 else/op~ != 1e+06;
#X obj 80 273 s \$0-trig;
#X obj 44 301 else/select~ 1;
#X obj 217 58 inlet~;
#X obj 217 341 outlet~;
#X obj 253 100 else/pick~ 1;
#X obj 253 147 else/s2f~;
#X obj 253 180 change;
#X obj 253 123 else/op~ != 1e+06;
#X obj 217 296 else/select~ 1;
#X obj 253 248 s \$0-level;
#X obj 447 63 inlet~;
#X obj 447 346 outlet~;
#X obj 483 105 else/pick~ 1;
#X obj 483 152 else/s2f~;
#X obj 483 185 change;
#X obj 483 128 else/op~ != 1e+06;
#X obj 447 301 else/select~ 1;
#X obj 617 58 inlet~;
#X obj 617 341 outlet~;
#X obj 653 100 else/pick~ 1;
#X obj 653 147 else/s2f~;
#X obj 653 180 change;
#X obj 653 123 else/op~ != 1e+06;
#X obj 617 296 else/select~ 1;
#X obj 787 58 inlet~;
#X obj 787 341 outlet~;
#X obj 957 63 inlet~;
#X obj 957 346 outlet~;
#X obj 993 105 else/pick~ 1;
#X obj 993 152 else/s2f~;
#X obj 993 185 change;
#X obj 993 128 else/op~ != 1e+06;
#X obj 957 301 else/select~ 1;
#X obj 787 294 *~;
#X obj 483 273 s \$0-fm-in;
#X obj 653 248 s \$0-t-in;
#X obj 993 273 s \$0-m-in;
#X obj 815 203 else/f2s~;
#X obj 815 171 r \$0-harmonics-att;
#X text 36 35 trigger;
#X text 221 35 level;
#X text 451 35 FM;
#X text 619 32 timbre;
#X text 781 34 harmonics;
#X text 958 33 morph;
#X listbox 1103 93 20 0 0 0 - - - 0;
#X connect 0 0 2 0;
#X connect 0 0 7 0;
#X connect 2 0 5 0;
#X connect 3 0 4 0;
#X connect 4 0 7 0;
#X connect 4 0 6 0;
#X connect 5 0 3 0;
#X connect 7 0 1 0;
#X connect 8 0 10 0;
#X connect 8 0 14 0;
#X connect 10 0 13 0;
#X connect 11 0 12 0;
#X connect 12 0 14 0;
#X connect 12 0 15 0;
#X connect 13 0 11 0;
#X connect 14 0 9 0;
#X connect 16 0 18 0;
#X connect 16 0 22 0;
#X connect 18 0 21 0;
#X connect 19 0 20 0;
#X connect 20 0 22 0;
#X connect 20 0 40 0;
#X connect 21 0 19 0;
#X connect 22 0 17 0;
#X connect 23 0 25 0;
#X connect 23 0 29 0;
#X connect 25 0 28 0;
#X connect 26 0 27 0;
#X connect 27 0 29 0;
#X connect 27 0 41 0;
#X connect 28 0 26 0;
#X connect 29 0 24 0;
#X connect 30 0 39 0;
#X connect 32 0 34 0;
#X connect 32 0 38 0;
#X connect 34 0 37 0;
#X connect 35 0 36 0;
#X connect 36 0 38 0;
#X connect 36 0 42 0;
#X connect 37 0 35 0;
#X connect 38 0 33 0;
#X connect 39 0 31 0;
#X connect 43 0 39 1;
#X connect 44 0 43 0;
#X restore 232 247 pd check;
#X f 15;
#X obj 284 25 initmess 1e+06;
#X obj -36 74 inlet~ freq;
#X obj 52 74 inlet~ trigger;
#X obj 150 74 inlet~ level;
#X obj 233 74 inlet~ fm;
#X obj 321 74 inlet~ timbre;
#X obj 385 74 inlet~ harmonics;
#X obj 497 71 inlet~ morph;
#X connect 6 0 8 0;
#X connect 8 0 1 0;
#X connect 8 1 4 0;
#X connect 8 2 7 0;
#X connect 9 0 8 1;
#X connect 9 1 8 2;
#X connect 9 2 8 3;
#X connect 9 3 8 4;
#X connect 9 4 8 5;
#X connect 9 5 8 6;
#X connect 10 0 12 0;
#X connect 10 0 13 0;
#X connect 10 0 14 0;
#X connect 10 0 15 0;
#X connect 10 0 17 0;
#X connect 11 0 6 0;
#X connect 11 0 8 0;
#X connect 11 1 6 1;
#X connect 12 0 9 0;
#X connect 13 0 9 1;
#X connect 14 0 9 2;
#X connect 15 0 9 3;
#X connect 16 0 9 4;
#X connect 17 0 9 5;
#X coords 0 1 100 -1 402 230 2 408 146;
