#N canvas 608 120 483 512 12;
#X declare -path else;
#X obj 81 410 out~;
#X obj 50 34 player~ bubul.wav 1 1;
#X obj 50 98 plate.rev.m~;
#A saved 11.3943 0.463415 0.560975 0.451219 0.341463;
#X text 284 357 see -->;
#X obj 284 110 declare -path else;
#X obj 300 214 plate.rev~;
#X text 222 168 This is just a wrapper around [plate.rev~] from ELSE \, check it out., f 29;
#X obj 344 357 about.MERDA;
#X text 262 258 this is still a simple module \, with no CV input yet \, so kinda like a pedal still., f 22;
#N canvas 139 120 477 341 messages 0;
#X obj 183 243 outlet;
#X obj 306 49 else/knob 41 0 1 0 0 empty empty #dfdfdf #afafaf black 1 0 0 0 1 320 0 0 0;
#X obj 237 49 else/knob 41 0 1 0 0 empty empty #dfdfdf #bbbbbb #000000 1 0 0 0 1 320 0 0 0;
#X obj 33 49 else/knob 41 10 200 4 10 empty empty #dfdfdf #bbbbbb #000000 1 0 0 0 1 320 0 0 10;
#X obj 106 49 else/knob 41 0 1 0 0 empty empty #dfdfdf #afafaf black 1 0 0 0 1 320 0 0 0;
#X obj 388 49 else/knob 41 0 1 0 0.5 empty empty #9f9f9f #afafaf black 1 0 0 0 1 320 0 0 0.5;
#X floatatom 33 103 7 0 0 0 - - - 0;
#X floatatom 106 103 7 0 0 0 - - - 0;
#X msg 106 132 size \$1;
#X msg 33 132 pre \$1;
#X msg 183 132 clear;
#X floatatom 237 103 7 0 0 0 - - - 0;
#X msg 237 132 damp \$1;
#X floatatom 306 103 7 0 0 0 - - - 0;
#X msg 306 132 cutoff \$1;
#X msg 388 132 wet \$1;
#X floatatom 388 103 7 0 0 0 - - - 0;
#X connect 1 0 13 0;
#X connect 2 0 11 0;
#X connect 3 0 6 0;
#X connect 4 0 7 0;
#X connect 5 0 16 0;
#X connect 6 0 9 0;
#X connect 7 0 8 0;
#X connect 8 0 0 0;
#X connect 9 0 0 0;
#X connect 10 0 0 0;
#X connect 11 0 12 0;
#X connect 12 0 0 0;
#X connect 13 0 14 0;
#X connect 14 0 0 0;
#X connect 15 0 0 0;
#X connect 16 0 15 0;
#X restore 67 70 pd messages;
#X connect 1 0 2 0;
#X connect 2 0 0 0;
#X connect 2 1 0 1;
#X connect 9 0 2 0;
