#N canvas 285 177 797 388 12;
#X declare -path else;
#X obj 281 291 outlet~;
#N canvas 756 249 538 397 GUI 0;
#X obj 233 39 r \$0-cutoff;
#X msg 233 98 set \$1;
#X obj 233 129 s \$0-set-cutoff-nbx;
#X obj 57 87 log 30;
#X obj 57 60 / 500;
#X obj 57 114 expr $f1 * 2 -1;
#X obj 57 26 r \$0-cutoff-nbx;
#X obj 233 70 else/rescale -log -in -1 1 500 15000;
#X msg 233 285 set \$1;
#X obj 57 301 expr $f1 * 2 -1;
#X obj 233 226 r \$0-decay;
#X obj 233 316 s \$0-set-decay-nbx;
#X obj 57 213 r \$0-decay-nbx;
#X obj 233 257 else/rescale -log -in -1 1 100 10000;
#X obj 57 274 log 100;
#X obj 57 247 / 100;
#X obj 57 148 s \$0-set-cutoff;
#X obj 57 335 s \$0-set-decay;
#X connect 0 0 7 0;
#X connect 1 0 2 0;
#X connect 3 0 5 0;
#X connect 4 0 3 0;
#X connect 5 0 16 0;
#X connect 6 0 4 0;
#X connect 7 0 1 0;
#X connect 8 0 11 0;
#X connect 9 0 17 0;
#X connect 10 0 13 0;
#X connect 12 0 15 0;
#X connect 13 0 8 0;
#X connect 14 0 9 0;
#X connect 15 0 14 0;
#X restore 600 244 pd GUI;
#N canvas 438 147 301 372 (subpatch) 1;
#X obj 51 51 cnv 19 145 251 empty empty empty 20 12 0 12 #e0e0e0 #404040 0;
#X floatatom 67 160 6 100 10000 0 - \$0-set-decay-nbx \$0-decay-nbx 0;
#X obj 63 103 else/knob 50 -1 1 0 -1 \$0-decay \$0-set-decay #dfdfdf #7c7c7c black 0 0 0 0 1 320 0 0 -1;
#X obj 70 60 note 101 24 Inter empty 5 54 54 54 0 187 187 187 1 1 PLUCK;
#X floatatom 140 160 6 500 15000 0 - \$0-set-cutoff-nbx \$0-cutoff-nbx 0;
#X obj 136 103 else/knob 50 -1 1 0 -1 \$0-cutoff \$0-set-cutoff #dfdfdf #7c7c7c black 0 0 0 0 1 320 0 0 -1;
#X text 68 178 Decay;
#X text 137 178 Cutoff;
#X obj 144 206 else/knob 35 -1 1 0 0 \$0-att-cut \$0-att-cut-set #bbbbbb #7c7c7c black 0 0 0 0 1 320 0 0 0;
#X obj 71 206 else/knob 35 -1 1 0 0 \$0-att-decay \$0-att-decay-set #bbbbbb #7c7c7c black 0 0 0 0 1 320 0 0 0;
#X text 78 243 Attenuverters;
#X floatatom 117 272 3 1 32 0 - \$0-set-n-voices \$0-n-voices 16;
#X obj 87 272 tgl 23 0 \$0-midi-mode \$0-set-midi-mode empty 0 -10 0 12 #dfdfdf #ff0400 #000000 0 1;
#X text 55 273 MIDI;
#X text 151 275 Voices;
#X coords 0 1 100 -1 147 253 1 50 50;
#X restore 59 72 graph;
#N canvas 241 41 587 463 preset 0;
#X obj 121 133 else/sender 1 \\\$0-presets;
#X msg 121 98 name \$1;
#X obj 98 182 else/receiver;
#X obj 123 222 route list;
#N canvas 596 76 470 347 id-name-init 0;
#X obj 165 113 + 1;
#X obj 257 100 else/dollsym 1;
#X obj 141 80 value;
#X obj 141 252 outlet;
#X obj 141 51 else/loadbanger 2;
#X obj 141 201 else/dollsym 1;
#X obj 257 76 symbol pluck-id_\\\$0;
#X obj 141 166 else/format symbol \\\$0-pluck-%d;
#X connect 0 0 2 0;
#X connect 1 0 2 1;
#X connect 2 0 0 0;
#X connect 2 0 7 0;
#X connect 4 0 2 0;
#X connect 4 1 6 0;
#X connect 5 0 3 0;
#X connect 6 0 1 0;
#X connect 7 0 5 0;
#X restore 97 46 pd id-name-init;
#X obj 123 258 else/dispatch \$0-set-decay \$0-set-cutoff \$0-att-decay-set \$0-att-cut-set \$0-set-midi-mode \$0-set-n-voices;
#X obj 98 331 else/var \$0-decay \$0-cutoff \$0-att-decay \$0-att-cut \$0-midi-mode \$0-n-voices, f 41;
#X connect 1 0 0 0;
#X connect 2 0 3 0;
#X connect 2 0 6 0;
#X connect 3 0 5 0;
#X connect 4 0 1 0;
#X connect 4 0 2 0;
#X restore 656 244 pd preset;
#N canvas 444 163 596 364 init-savestate 0;
#X obj 110 106 savestate;
#X obj 287 206 declare -path else;
#X obj 85 67 loadbang;
#X obj 85 165 list;
#X obj 85 205 else/default 0 1;
#X obj 85 250 else/dispatch \$0-set-decay \$0-set-cutoff \$0-att-decay-set \$0-att-cut-set \$0-set-midi-mode \$0-set-n-voices;
#X obj 170 142 else/var \$0-decay \$0-cutoff \$0-att-decay \$0-att-cut \$0-midi-mode \$0-n-voices, f 40;
#X connect 0 0 3 1;
#X connect 0 1 6 0;
#X connect 2 0 3 0;
#X connect 3 0 4 0;
#X connect 4 0 5 0;
#X connect 6 0 0 0;
#X restore 600 215 pd init-savestate;
#N canvas 265 138 744 554 set 0;
#X obj 104 36 inlet~;
#X obj 376 500 outlet;
#X obj 376 36 inlet;
#N canvas 416 72 454 608 list 0;
#X obj 86 245 else/router;
#X obj 197 299 else/mono;
#X obj 197 333 pack;
#X obj 197 367 list prepend 0;
#X obj 185 71 r \$0-n-voices;
#X obj 185 119 int;
#X obj 274 204 s \$0-set-n-voices;
#X msg 274 177 set \$1;
#X obj 86 59 inlet;
#X obj 207 198 s \$0-n;
#X obj 132 182 == 1;
#X obj 66 309 else/voices 1 1;
#X obj 197 514 outlet;
#X obj 232 421 r \$0-midi-mode;
#X msg 232 455 all midi_active \$1;
#X obj 185 95 clip 1 32;
#X msg 185 250 n \$1;
#X connect 0 0 11 0;
#X connect 0 1 1 0;
#X connect 1 0 2 0;
#X connect 1 1 2 1;
#X connect 2 0 3 0;
#X connect 3 0 12 0;
#X connect 4 0 15 0;
#X connect 5 0 7 0;
#X connect 5 0 9 0;
#X connect 5 0 10 0;
#X connect 5 0 16 0;
#X connect 7 0 6 0;
#X connect 8 0 0 0;
#X connect 10 0 0 1;
#X connect 11 0 12 0;
#X connect 13 0 14 0;
#X connect 14 0 12 0;
#X connect 15 0 5 0;
#X connect 16 0 11 0;
#X restore 376 177 pd list;
#X obj 516 223 s \$0-set-decay;
#X obj 506 247 s \$0-set-cutoff;
#X obj 534 200 s \$0-att-cut-set;
#X obj 542 175 s \$0-att-decay-set;
#X obj 104 282 t b f, f 33;
#X obj 104 241 change 0;
#X obj 104 131 else/nchs~;
#X msg 332 321 resize \$1;
#X obj 104 159 spigot;
#X obj 196 159 == 0;
#X obj 306 120 r \$0-n;
#X obj 196 120 r \$0-midi-mode;
#X obj 258 188 spigot;
#X obj 104 323 else/var \$0-decay \$0-cutoff \$0-att-decay \$0-att-cut \$0-midi-mode, f 27;
#X obj 104 387 else/dispatch \$0-decay \$0-cutoff \$0-att-decay \$0-att-cut \$0-midi-mode, f 32;
#X obj 376 83 route list cutoff decay cutoff_att decay_att midi voices, f 32;
#X obj 553 151 s \$0-set-midi-mode;
#X obj 565 128 s \$0-set-n-voices;
#X connect 0 0 10 0;
#X connect 2 0 19 0;
#X connect 3 0 1 0;
#X connect 8 0 17 0;
#X connect 8 1 11 0;
#X connect 9 0 8 0;
#X connect 10 0 12 0;
#X connect 11 0 1 0;
#X connect 12 0 9 0;
#X connect 13 0 12 1;
#X connect 14 0 16 0;
#X connect 15 0 16 1;
#X connect 15 0 13 0;
#X connect 16 0 9 0;
#X connect 17 0 18 0;
#X connect 19 0 3 0;
#X connect 19 1 5 0;
#X connect 19 2 4 0;
#X connect 19 3 6 0;
#X connect 19 4 7 0;
#X connect 19 5 20 0;
#X connect 19 6 21 0;
#X restore 265 170 pd set;
#N canvas 249 235 764 419 att 0;
#X obj 491 185 r \$0-cutoff;
#X obj 491 215 else/f2s~;
#X obj 452 63 inlet~;
#X obj 452 296 outlet~;
#X obj 452 204 +~;
#X obj 452 251 else/rescale~ -log -in -1 1 500 15000;
#X obj 452 134 *~;
#X obj 491 149 else/f2s~;
#X obj 491 119 r \$0-att-cut;
#X obj 150 220 else/f2s~;
#X obj 111 68 inlet~;
#X obj 111 301 outlet~;
#X obj 111 209 +~;
#X obj 111 139 *~;
#X obj 150 154 else/f2s~;
#X obj 111 256 else/rescale~ -log -in -1 1 100 10000;
#X obj 150 190 r \$0-decay;
#X obj 150 124 r \$0-att-decay;
#X connect 0 0 1 0;
#X connect 1 0 4 1;
#X connect 2 0 6 0;
#X connect 4 0 5 0;
#X connect 5 0 3 0;
#X connect 6 0 4 0;
#X connect 7 0 6 1;
#X connect 8 0 7 0;
#X connect 9 0 12 1;
#X connect 10 0 13 0;
#X connect 12 0 15 0;
#X connect 13 0 12 0;
#X connect 14 0 13 1;
#X connect 15 0 11 0;
#X connect 16 0 9 0;
#X connect 17 0 14 0;
#X restore 412 170 pd att;
#X f 8;
#N canvas 703 293 464 411 check 0;
#X obj 113 54 inlet~;
#X obj 113 337 outlet~;
#X obj 149 96 else/pick~ 1;
#X obj 221 239 noise~;
#X obj 149 213 + 1;
#X obj 113 282 xselect~ 2 100 1;
#X obj 149 152 else/s2f~;
#X text 114 24 noise;
#X obj 149 184 change -1;
#X obj 149 124 else/op~ == 1e+06;
#X connect 0 0 2 0;
#X connect 0 0 5 0;
#X connect 2 0 9 0;
#X connect 3 0 5 1;
#X connect 4 0 5 0;
#X connect 5 0 1 0;
#X connect 6 0 8 0;
#X connect 8 0 4 0;
#X connect 9 0 6 0;
#X restore 573 170 pd check;
#X obj 588 72 initmess 1e+06;
#X obj 281 239 clone -d pluck.unit 1, f 38;
#X obj 242 106 inlet~ freq;
#X obj 325 106 inlet~ trigger;
#X obj 412 106 inlet~ decay;
#X obj 497 106 inlet~ cutoff;
#X obj 588 106 inlet~ in;
#X connect 5 0 9 0;
#X connect 6 0 9 2;
#X connect 6 1 9 3;
#X connect 7 0 9 4;
#X connect 8 0 14 0;
#X connect 9 0 0 0;
#X connect 10 0 5 0;
#X connect 10 0 9 0;
#X connect 10 1 5 1;
#X connect 11 0 9 1;
#X connect 12 0 6 0;
#X connect 13 0 6 1;
#X connect 14 0 7 0;
#X coords 0 -1 1 1 147 253 2 59 72;
