#N canvas 503 69 534 398 12;
#X obj 80 51 inlet;
#X obj 80 276 else/presets;
#A saved -empty- \; -empty- \; -empty- \; -empty- \; -empty- \; -empty- \; -empty- \; -empty- \; -empty- \; -empty- \; -empty- \; -empty- \; -empty- \; -empty- \; -empty- \; -empty- \; -empty- \; -empty- \; -empty- \; -empty- \; -empty- \; -empty- \; -empty- \; -empty- \; -empty- \; -empty- \; -empty- \; -empty- \; -empty- \; -empty- \; -empty- \; -empty- \; -empty- \; -empty- \; -empty- \; -empty- \; -empty- \; -empty- \; -empty- \; -empty- \; -empty- \; -empty- \; -empty- \; -empty- \; -empty- \; -empty- \; -empty- \; -empty- \; -empty- \; -empty- \; -empty- \; -empty- \; -empty- \; -empty- \; -empty- \; -empty- \; -empty- \; -empty- \; -empty- \; -empty- \; -empty- \; -empty- \; -empty- \; -empty- \;;
#N canvas 372 112 492 420 set-args 0;
#X obj 178 139 route name;
#X obj 177 110 else/receiver 1 \\\$0-presets;
#X obj 179 206 t l l;
#X obj 178 173 list prepend;
#X obj 104 248 else/insert args;
#X obj 104 193 list;
#X obj 104 311 s \$0-presets;
#X obj 104 63 else/loadbanger;
#X obj 104 116 del 0;
#X connect 0 0 3 0;
#X connect 1 0 0 0;
#X connect 2 0 5 1;
#X connect 2 1 3 1;
#X connect 3 0 2 0;
#X connect 4 0 6 0;
#X connect 5 0 4 0;
#X connect 7 0 8 0;
#X connect 8 0 5 0;
#X restore 264 290 pd set-args;
#N canvas 516 323 395 258 savestate 0;
#X obj 144 54 inlet;
#X obj 144 108 savestate;
#X msg 204 141 export;
#X obj 204 177 s \$0-presets;
#X connect 0 0 1 0;
#X connect 1 0 3 0;
#X connect 1 1 2 0;
#X connect 2 0 3 0;
#X restore 80 324 pd savestate;
#N canvas 101 74 483 468 gui 0;
#X obj 270 56 r \$0-radio2;
#X obj 335 135 s \$0-set-radio1;
#X obj 282 202 s \$0-set-radio2;
#X msg 336 103 color 0 0 2;
#X msg 281 175 color 0 2 2;
#X msg 122 94 color 0 0 2;
#X msg 67 166 color 0 2 2;
#X obj 56 47 r \$0-radio1;
#X obj 121 126 s \$0-set-radio2;
#X obj 68 193 s \$0-set-radio1;
#X obj 144 301 r \$0-radio1;
#X obj 165 329 r \$0-radio2;
#X obj 148 401 s \$0-set-n;
#X obj 120 354 + 1;
#X obj 165 353 + 5;
#X connect 0 0 4 0;
#X connect 0 0 3 0;
#X connect 3 0 1 0;
#X connect 4 0 2 0;
#X connect 5 0 8 0;
#X connect 6 0 9 0;
#X connect 7 0 6 0;
#X connect 7 0 5 0;
#X connect 10 0 13 0;
#X connect 11 0 14 0;
#X connect 13 0 12 0;
#X connect 14 0 12 0;
#X restore 374 285 pd gui;
#N canvas 162 143 448 407 set 0;
#X obj 193 198 else/click;
#X msg 193 222 show;
#X obj 190 56 r \$0-radio1;
#X obj 203 81 r \$0-radio2;
#X obj 203 105 + 4;
#X obj 190 153 s \$0-presets;
#X obj 209 254 r \$0-presets;
#X obj 193 355 outlet;
#X obj 234 304 r \$0-save;
#X connect 0 0 1 0;
#X connect 1 0 7 0;
#X connect 2 0 5 0;
#X connect 3 0 4 0;
#X connect 4 0 5 0;
#X connect 6 0 7 0;
#X connect 8 0 7 0;
#X restore 114 221 pd set;
#N canvas 358 139 457 455 (subpatch) 0;
#X obj 111 111 cnv 19 146 116 empty empty empty 20 12 0 12 #e0e0e0 #404040 0;
#X obj 124 171 hradio 21 1 0 4 \$0-radio1 \$0-set-radio1 empty 0 -10 0 12 #fcfcfc #404040 #404040 0;
#X obj 213 167 bng 23 250 50 0 \$0-save \$0-set-save empty 0 -10 0 12 #dfdfdf #000000 #000000;
#X obj 124 192 hradio 21 1 0 4 \$0-radio2 \$0-set-radio2 empty 0 -10 0 12 #fcfcfc #fcfcfc #404040 0;
#X obj 128 121 note 101 18 Inter empty 5 54 54 54 0 187 187 187 1 1 PRESETS;
#X floatatom 213 192 2 0 0 0 - \$0-set-n \$0-n 16;
#X text 211 150 save;
#X coords 0 1 100 -1 148 118 1 110 110;
#X restore 305 108 graph;
#X obj 182 191 bng 19 250 50 0 empty empty empty 0 -10 0 12 #fcfcfc #000000 #000000;
#X msg 185 238 clear;
#X obj 53 219 bng 19 250 50 0 empty empty empty 0 -10 0 12 #fcfcfc #000000 #000000;
#X connect 0 0 1 0;
#X connect 1 0 3 0;
#X connect 5 0 1 0;
#X connect 7 0 8 0;
#X connect 8 0 1 0;
#X connect 9 0 1 0;
#X coords 0 -1 1 1 147 117 2 306 109;
