#N canvas 0 22 450 278 1;
#X obj 0 0 cnv 15 251 116 empty empty empty 20 12 0 14 #e9e9e9 #373737 0;
#X obj 4 28 cnv 15 243 84 empty empty empty 20 12 0 14 #dbdbdb #373737 0;
#X obj 96 52 knob 50 0 1 0 0 empty empty #e4e4e4 #a8a8a8 #4d4d4d 0 0 0 0 1 270 0 0;
#X obj 0 0 note 241 24 Inter empty 0 255 133 0 0 228 228 228 0 1 SVF;
#X obj 16 35 note 77 13 Inter empty 0 55 55 55 0 228 228 228 0 0 FREQUENCY;
#X obj 22 53 knob 50 20 20000 2 0 empty empty #e4e4e4 #a8a8a8 #4d4d4d 0 0 0 0 1 270 0 0;
#X obj 88 35 note 81 13 Inter empty 0 55 55 55 0 228 228 228 0 0 RESONANCE;
#X obj -101 222 inlet~ signal in;
#X obj -112 354 outlet~ signal out;
#X obj 21 143 sig~;
#X obj 96 144 sig~;
#X obj 167 36 vradio 15 1 1 4 empty empty empty 0 -8 0 10 #dcdcdc #000000 #000000 3;
#X text 185 34 lowpass;
#X text 184 65 bandpass;
#X text 184 80 notch;
#X obj -8 273 cyclone/svf~ 800 0.5;
#X obj -54 274 + 1;
#X obj -54 312 cyclone/selector~ 4 1;
#X obj 62 -93 inlet resonance;
#X obj 5 -125 inlet frequency;
#X obj 192 -42 unpack f f;
#X obj 192 -69 loadmess 220 0.3;
#X text 184 50 highpass;
#X connect 2 0 10 0 empty;
#X connect 5 0 9 0 empty;
#X connect 7 0 15 0 empty;
#X connect 9 0 15 1 empty;
#X connect 10 0 15 2 empty;
#X connect 11 0 16 0 empty;
#X connect 15 0 17 1 empty;
#X connect 15 1 17 2 empty;
#X connect 15 2 17 3 empty;
#X connect 15 3 17 4 empty;
#X connect 16 0 17 0 empty;
#X connect 17 0 8 0 empty;
#X connect 18 0 2 0 empty;
#X connect 19 0 5 0 empty;
#X connect 20 0 5 0 empty;
#X connect 20 1 2 0 empty;
#X connect 21 0 20 0 empty;
#X coords 0 1 100 -1 251 116 2 0 0;
