#N canvas 219 23 571 377 12;
#X obj 112 270 outlet~;
#X obj 114 105 inlet~;
#X obj 112 214 bl.tri~, f 37;
#X obj 239 102 inlet~;
#X obj 360 106 inlet~;
#X connect 1 0 2 0;
#X connect 1 1 2 0;
#X connect 2 0 0 0;
#X connect 3 0 2 1;
#X connect 4 0 2 2;
