#N canvas 152 45 849 368 12;
#X declare -path else;
#X obj 398 266 outlet~;
#X text 454 79 FM;
#X text 630 79 sync;
#N canvas 144 385 664 330 GUI 0;
#X obj 105 149 clip 0 100;
#X msg 105 177 set \$1;
#X obj 105 211 s \$0-mod-set;
#X obj 105 123 r \$0-mod;
#X obj 247 35 r \$0-pitch;
#X obj 247 139 else/f2s~ 10;
#X obj 268 103 s \$0-knobpitch-set;
#X msg 268 72 set \$1;
#X obj 247 172 s~ \$0-transp;
#X obj 265 247 else/rint;
#X obj 265 218 r \$0-knobpitch;
#X obj 265 278 s \$0-pitch-set;
#X obj 420 131 r \$0-soft;
#X obj 420 195 s \$0-set;
#X msg 420 165 soft \$1;
#X connect 0 0 1 0;
#X connect 1 0 2 0;
#X connect 3 0 0 0;
#X connect 4 0 5 0;
#X connect 4 0 7 0;
#X connect 5 0 8 0;
#X connect 7 0 6 0;
#X connect 9 0 11 0;
#X connect 10 0 9 0;
#X connect 12 0 14 0;
#X connect 14 0 13 0;
#X restore 689 209 pd GUI;
#X text 117 54 FM;
#X text 187 54 PM;
#X text 310 54 SYNC;
#X text 515 79 PM;
#X text 384 79 pitch;
#N canvas 286 77 581 541 (subpatch) 0;
#X obj 51 51 cnv 19 273 187 empty empty empty 20 12 0 12 #e0e0e0 #404040 0;
#X floatatom 70 178 7 -36 36 0 - \$0-pitch-set \$0-pitch 0;
#X obj 216 86 tgl 19 0 \$0-lin \$0-lin-set empty 0 -10 0 12 #dfdfdf #000000 #000000 0 1;
#X floatatom 216 62 6 0 100 0 - \$0-mod-set \$0-mod 0;
#X obj 226 179 tgl 19 0 \$0-midi \$0-midi-set empty 0 -10 0 12 #dfdfdf #000000 #000000 0 1;
#X text 72 202 transp;
#X floatatom 216 112 6 0 100 0 - \$0-PM-set \$0-PM 0;
#X text 263 62 FM(%);
#X text 262 111 PM(%);
#X obj 69 122 else/knob 50 -36 36 0 0 \$0-knobpitch \$0-knobpitch-set #dfdfdf #7c7c7c black 0 0 0 0 1 320 0 0 0;
#X text 236 86 linear FM;
#X text 250 180 MIDI in;
#X obj 226 204 tgl 19 0 \$0-soft \$0-soft-set empty 0 -10 0 12 #dfdfdf #000000 #000000 0 1;
#X text 250 205 Soft Sync;
#X obj 81 60 note 101 24 Inter empty 5 54 54 54 0 187 187 187 1 1 VCO;
#X obj 139 119 vradio 20 1 0 5 \$0-waveform \$0-set-waveform empty 0 -10 0 12 #dfdfdf #000000 #000000 0;
#X text 165 120 sine;
#X text 165 141 tri;
#X text 165 160 saw;
#X text 164 181 vsaw;
#X text 162 201 square;
#X obj 217 137 else/knob 35 -1 1 0 0 \$0-PWM \$0-set-PWM #dfdfdf #7c7c7c black 0 0 0 0 1 320 0 0 0;
#X text 259 147 PWM;
#X coords 0 1 100 -1 275 189 1 50 50;
#X restore 57 84 graph;
#X text 50 54 Pitch;
#N canvas 138 43 558 422 preset 0;
#X obj 121 133 else/sender 1 \\\$0-presets;
#X msg 121 98 name \$1;
#X obj 98 182 else/receiver;
#X obj 123 222 route list;
#N canvas 596 76 470 347 id-name-init 0;
#X obj 165 113 + 1;
#X obj 257 100 else/dollsym 1;
#X obj 141 80 value;
#X obj 141 252 outlet;
#X obj 141 51 else/loadbanger 2;
#X obj 141 201 else/dollsym 1;
#X obj 141 166 else/format symbol \\\$0-vco-%d;
#X obj 257 76 symbol vco-id_\\\$0;
#X connect 0 0 2 0;
#X connect 1 0 2 1;
#X connect 2 0 0 0;
#X connect 2 0 6 0;
#X connect 4 0 2 0;
#X connect 4 1 7 0;
#X connect 5 0 3 0;
#X connect 6 0 5 0;
#X connect 7 0 1 0;
#X restore 97 46 pd id-name-init;
#X obj 123 258 else/dispatch \$0-pitch-set \$0-mod-set \$0-lin-set \$0-PM-set \$0-midi-set \$0-soft-set \$0-set-waveform \$0-set-PWM, f 49;
#X obj 98 331 else/var \$0-pitch \$0-mod \$0-lin \$0-PM \$0-midi \$0-soft \$0-waveform \$0-PWM, f 37;
#X connect 1 0 0 0;
#X connect 2 0 3 0;
#X connect 2 0 6 0;
#X connect 3 0 5 0;
#X connect 4 0 1 0;
#X connect 4 0 2 0;
#X restore 747 209 pd preset;
#N canvas 618 163 615 367 init-savestate 0;
#X obj 110 106 savestate;
#X obj 312 205 declare -path else;
#X obj 85 67 loadbang;
#X obj 85 165 list;
#X obj 170 142 else/var \$0-pitch \$0-mod \$0-lin \$0-PM \$0-midi \$0-soft \$0-waveform \$0-PWM, f 33;
#X obj 85 205 else/default 0 0 0 0 1 0 0 0;
#X obj 85 250 else/dispatch \$0-pitch-set \$0-mod-set \$0-lin-set \$0-PM-set \$0-midi-set \$0-soft-set \$0-set-waveform \$0-set-PWM, f 44;
#X connect 0 0 3 1;
#X connect 0 1 4 0;
#X connect 2 0 3 0;
#X connect 3 0 5 0;
#X connect 4 0 0 0;
#X connect 5 0 6 0;
#X restore 690 171 pd init-savestate;
#N canvas 280 23 827 635 inputs 0;
#X obj 95 49 inlet~;
#X obj 257 49 inlet~;
#X obj 175 368 mtof~;
#X obj 175 338 +~;
#X obj 95 243 +~;
#X obj 193 237 *~ 1;
#X obj 288 443 +~;
#X obj 257 309 *~ 0;
#X obj 282 117 r \$0-lin;
#X obj 218 208 == 0;
#X obj 193 266 *~ 60;
#X obj 324 184 / 100;
#X obj 324 210 else/f2s~ 10;
#X obj 193 312 *~;
#X obj 306 397 *~;
#X obj 257 339 *~ 1250;
#X obj 324 157 r \$0-mod;
#X obj 113 168 r~ \$0-transp;
#N canvas 137 120 311 304 pitch 0;
#X obj 59 36 inlet~;
#X obj 91 95 sel 0;
#X msg 91 119 60;
#X msg 123 159 0;
#X obj 91 71 r \$0-midi;
#X obj 66 236 outlet~;
#X obj 59 162 *~ 1;
#X obj 66 192 +~ 0;
#X connect 0 0 6 0;
#X connect 1 0 2 0;
#X connect 1 1 3 0;
#X connect 1 1 6 1;
#X connect 2 0 6 1;
#X connect 2 0 7 1;
#X connect 3 0 7 1;
#X connect 4 0 1 0;
#X connect 6 0 7 0;
#X connect 7 0 5 0;
#X restore 95 121 pd pitch;
#X obj 288 475 clip~ 0 22000;
#X obj 288 557 outlet~;
#X obj 457 49 inlet~;
#X obj 438 404 *~;
#X obj 491 377 r \$0-PM;
#X obj 491 425 /~ 100;
#X obj 491 401 else/f2s~ 10;
#X obj 703 48 inlet~;
#X obj 428 546 outlet~;
#X obj 659 552 outlet~;
#X obj 610 49 inlet~;
#X obj 590 551 outlet~;
#X connect 0 0 18 0;
#X connect 1 0 5 0;
#X connect 1 0 7 0;
#X connect 2 0 6 0;
#X connect 3 0 2 0;
#X connect 4 0 3 0;
#X connect 5 0 10 0;
#X connect 6 0 19 0;
#X connect 7 0 15 0;
#X connect 8 0 9 0;
#X connect 8 0 7 1;
#X connect 9 0 5 1;
#X connect 10 0 13 0;
#X connect 11 0 12 0;
#X connect 12 0 13 1;
#X connect 12 0 14 1;
#X connect 13 0 3 1;
#X connect 14 0 6 1;
#X connect 15 0 14 0;
#X connect 16 0 11 0;
#X connect 17 0 4 1;
#X connect 18 0 4 0;
#X connect 19 0 20 0;
#X connect 21 0 22 0;
#X connect 22 0 27 0;
#X connect 23 0 25 0;
#X connect 24 0 22 1;
#X connect 25 0 24 0;
#X connect 26 0 28 0;
#X connect 29 0 30 0;
#X restore 398 164 pd inputs;
#X f 31;
#X text 576 78 PWM;
#N canvas 409 155 575 374 oscillators 0;
#N canvas 512 146 634 435 sine~ 0;
#X obj 131 200 else/sine~, f 16;
#X obj 30 133 r \$0-set;
#X obj 121 88 inlet~;
#X obj 272 88 inlet~;
#X text 280 66 sync;
#X obj 207 88 inlet~;
#X text 215 66 PM;
#X text 129 66 pitch;
#X obj 124 290 outlet~;
#X obj 452 198 switch~;
#X obj 452 144 r \$0-waveform;
#X obj 452 168 == 0;
#X connect 0 0 8 0;
#X connect 1 0 0 0;
#X connect 2 0 0 0;
#X connect 3 0 0 1;
#X connect 5 0 0 2;
#X connect 10 0 11 0;
#X connect 11 0 9 0;
#X restore 175 202 pd sine~;
#X obj 228 89 inlet~;
#X obj 413 89 inlet~;
#X text 421 69 sync;
#X obj 298 89 inlet~;
#X text 306 69 PM;
#X text 236 67 pitch;
#X obj 356 89 inlet~;
#X text 367 68 PWM;
#X obj 175 315 outlet~;
#N canvas 512 146 518 442 tri~ 0;
#X obj 42 135 r \$0-set;
#X obj 163 88 inlet~;
#X obj 314 88 inlet~;
#X text 322 66 sync;
#X obj 249 88 inlet~;
#X text 257 66 PM;
#X text 171 66 pitch;
#X obj 174 349 outlet~;
#X obj 366 198 switch~;
#X obj 366 144 r \$0-waveform;
#X obj 366 168 == 1;
#X obj 190 136 nchs~;
#X obj 190 160 change;
#X msg 190 185 resize \$1;
#X obj 173 260 clone -d tri.unit 1;
#X obj 42 159 else/insert all;
#X connect 0 0 15 0;
#X connect 1 0 11 0;
#X connect 1 0 14 0;
#X connect 2 0 14 1;
#X connect 4 0 14 2;
#X connect 9 0 10 0;
#X connect 10 0 8 0;
#X connect 11 0 12 0;
#X connect 12 0 13 0;
#X connect 13 0 14 0;
#X connect 14 0 7 0;
#X connect 15 0 14 0;
#X restore 245 201 pd tri~;
#N canvas 267 161 646 410 saw~ 0;
#X obj 257 92 inlet~;
#X obj 408 92 inlet~;
#X text 416 70 sync;
#X obj 343 92 inlet~;
#X text 351 70 PM;
#X text 265 70 pitch;
#X obj 260 294 outlet~;
#X obj 467 197 switch~;
#X obj 467 143 r \$0-waveform;
#X obj 467 167 == 2;
#X obj 267 204 clone -d saw.unit 1;
#X obj 286 125 nchs~;
#X obj 286 149 change;
#X msg 286 174 resize \$1;
#X obj 113 127 r \$0-set;
#X obj 113 151 else/insert all;
#X connect 0 0 11 0;
#X connect 0 0 10 0;
#X connect 1 0 10 1;
#X connect 3 0 10 2;
#X connect 8 0 9 0;
#X connect 9 0 7 0;
#X connect 10 0 6 0;
#X connect 11 0 12 0;
#X connect 12 0 13 0;
#X connect 13 0 10 0;
#X connect 14 0 15 0;
#X connect 15 0 10 0;
#X restore 308 201 pd saw~;
#N canvas 512 146 627 426 square~ 0;
#X obj 164 88 inlet~;
#X obj 315 88 inlet~;
#X obj 250 88 inlet~;
#X obj 181 335 outlet~;
#X obj 373 91 inlet~;
#X text 377 59 sync;
#X text 255 59 PM;
#X text 175 57 pitch;
#X text 316 58 PWM;
#X obj 471 233 switch~;
#X obj 471 179 r \$0-waveform;
#X obj 471 203 == 4;
#X obj 182 265 clone -d square.unit 1;
#X obj 185 116 nchs~;
#X obj 185 140 change;
#X msg 185 165 resize \$1;
#X obj 309 121 +~ 0;
#X obj 397 129 r \$0-PWM;
#X obj 307 155 rescale~ 0.05 0.95;
#X obj 23 135 r \$0-set;
#X obj 23 159 else/insert all;
#X connect 0 0 13 0;
#X connect 0 0 12 0;
#X connect 1 0 16 0;
#X connect 2 0 12 3;
#X connect 4 0 12 2;
#X connect 10 0 11 0;
#X connect 11 0 9 0;
#X connect 12 0 3 0;
#X connect 13 0 14 0;
#X connect 14 0 15 0;
#X connect 15 0 12 0;
#X connect 16 0 18 0;
#X connect 17 0 16 1;
#X connect 18 0 12 1;
#X connect 19 0 20 0;
#X connect 20 0 12 0;
#X restore 446 201 pd square~;
#N canvas 512 146 518 387 vsaw~ 0;
#X obj 133 88 inlet~;
#X obj 284 88 inlet~;
#X obj 219 88 inlet~;
#X obj 148 325 outlet~;
#X obj 341 88 inlet~;
#X text 339 50 sync;
#X text 224 50 PM;
#X text 154 48 pitch;
#X text 285 49 PWM;
#X obj 346 238 switch~;
#X obj 346 184 r \$0-waveform;
#X obj 346 208 == 3;
#X obj 155 235 clone -d vsaw.unit 1;
#X obj 156 116 nchs~;
#X obj 156 140 change;
#X msg 156 165 resize \$1;
#X obj 275 154 rescale~;
#X obj 283 124 +~ 0;
#X obj 376 139 r \$0-PWM;
#X obj 15 136 r \$0-set;
#X obj 15 160 else/insert all;
#X connect 0 0 13 0;
#X connect 0 0 12 0;
#X connect 1 0 17 0;
#X connect 2 0 12 3;
#X connect 4 0 12 2;
#X connect 10 0 11 0;
#X connect 11 0 9 0;
#X connect 12 0 3 0;
#X connect 13 0 14 0;
#X connect 14 0 15 0;
#X connect 15 0 12 0;
#X connect 16 0 12 1;
#X connect 17 0 16 0;
#X connect 18 0 17 1;
#X connect 19 0 20 0;
#X connect 20 0 12 0;
#X restore 371 201 pd vsaw~;
#X obj 175 259 else/select~ 5 1, f 33;
#X obj 78 151 r \$0-waveform;
#X obj 78 180 + 1;
#X connect 0 0 14 0;
#X connect 1 0 0 0;
#X connect 1 0 10 0;
#X connect 1 0 11 0;
#X connect 1 0 13 0;
#X connect 1 0 12 0;
#X connect 2 0 0 2;
#X connect 2 0 10 2;
#X connect 2 0 11 2;
#X connect 2 0 13 3;
#X connect 2 0 12 3;
#X connect 4 0 0 1;
#X connect 4 0 10 1;
#X connect 4 0 11 1;
#X connect 4 0 13 1;
#X connect 4 0 12 1;
#X connect 7 0 13 2;
#X connect 7 0 12 2;
#X connect 10 0 14 1;
#X connect 11 0 14 2;
#X connect 12 0 14 4;
#X connect 13 0 14 3;
#X connect 14 0 9 0;
#X connect 15 0 16 0;
#X connect 16 0 14 0;
#X restore 398 220 pd oscillators;
#X f 33;
#X text 253 54 PWM;
#X obj 376 101 inlet~ pitch;
#X obj 454 101 inlet~ FM;
#X obj 515 101 inlet~ PM;
#X obj 565 99 inlet~ PWM;
#X obj 630 101 inlet~ sync;
#X connect 13 0 15 0;
#X connect 13 1 15 1;
#X connect 13 2 15 2;
#X connect 13 3 15 3;
#X connect 15 0 0 0;
#X connect 17 0 13 0;
#X connect 18 0 13 1;
#X connect 19 0 13 2;
#X connect 20 0 13 3;
#X connect 21 0 13 4;
#X coords 0 -1 1 1 274 188 2 58 85;
