#N canvas 670 46 555 558 12;
#X declare -path else;
#X obj 183 353 mtof;
#X obj 51 31 inlet;
#X obj 320 442 *~;
#X obj 320 368 noise~;
#N canvas 1119 320 411 293 feedback_&_Filter 0;
#X obj 177 27 inlet~;
#X obj 177 225 outlet~;
#X obj 63 146 block~ 1;
#X obj 38 27 inlet;
#X obj 226 110 r \$2-feedback;
#X obj 202 76 r \$2-cutoff;
#X obj 38 62 delread4~ \$0-delay;
#X obj 177 110 lop~;
#X obj 177 146 *~ 0;
#X obj 191 188 delwrite~ \$0-delay 100;
#X connect 0 0 7 0;
#X connect 3 0 6 0;
#X connect 4 0 8 1;
#X connect 5 0 7 1;
#X connect 6 0 7 0;
#X connect 7 0 8 0;
#X connect 8 0 1 0;
#X connect 8 0 9 0;
#X restore 183 472 pd feedback_&_Filter;
#X obj 236 353 / 127;
#X obj 183 410 /;
#X msg 183 382 1000 \$1;
#X obj 338 413 vline~;
#X obj 209 229 rand.i 50 128;
#X obj 183 512 outlet~;
#X obj 236 291 r \$2-width;
#X obj 363 51 declare -path else;
#X floatatom 183 441 8 0 0 0 - - -;
#X text 69 442 period in ms =>;
#X text 313 229 <= random velocity;
#X obj 183 326 makenote;
#X text 329 282 In this window \$2 gets the value of \$0 from the parent.
, f 28;
#X obj 51 150 trigger float bang bang;
#X floatatom 66 259 5 0 0 0 - - -;
#X floatatom 209 261 5 0 0 0 - - -;
#X obj 66 229 text get \$2-chords;
#X obj 107 182 float \$1;
#X text 212 195 a note from the chord, f 27;
#X text 177 181 <=== use instance number to pick;
#X obj 83 91 random 500;
#X obj 51 117 pipe;
#X text 163 93 <= attack at a random value im ms;
#X obj 51 63 t f b;
#X obj 434 467 display;
#X obj 458 152 f \$0;
#X obj 452 119 bng 15 250 50 0 empty empty empty 17 7 0 10 -262144
-1 -1;
#X floatatom 464 190 5 0 0 0 - - -;
#X obj 435 430 dollsym 1;
#X msg 434 390 symbol \\\$0-x;
#X symbolatom 413 355 10 0 0 0 - - -;
#X connect 0 0 7 0;
#X connect 1 0 28 0;
#X connect 2 0 4 1;
#X connect 3 0 2 0;
#X connect 4 0 10 0;
#X connect 5 0 8 0;
#X connect 6 0 13 0;
#X connect 7 0 6 0;
#X connect 8 0 2 1;
#X connect 9 0 20 0;
#X connect 11 0 16 2;
#X connect 13 0 4 0;
#X connect 16 0 0 0;
#X connect 16 1 5 0;
#X connect 18 0 21 0;
#X connect 18 1 22 0;
#X connect 18 2 9 0;
#X connect 19 0 16 0;
#X connect 20 0 16 1;
#X connect 21 0 19 0;
#X connect 22 0 21 1;
#X connect 25 0 26 1;
#X connect 26 0 18 0;
#X connect 28 0 26 0;
#X connect 28 1 25 0;
#X connect 30 0 32 0;
#X connect 31 0 30 0;
#X connect 33 0 29 0;
#X connect 34 0 33 0;
#X connect 35 0 33 0;
