#N canvas 611 123 487 365 12;
#X declare -path else;
#X obj 114 228 *~;
#X obj 56 118 mtof;
#X floatatom 56 148 5 0 0 0 - - - 0;
#X obj 56 29 inlet;
#X obj 56 60 unpack;
#X floatatom 132 93 5 0 0 0 - - - 0;
#X floatatom 56 91 5 0 0 0 - - - 0;
#X obj 114 294 outlet~;
#X obj 114 255 /~ \$2;
#X obj 56 183 bl.tri~;
#X obj 132 190 adsr~ 100 50 0.5 250;
#X text 208 93 This abstraction is loaded in the [clone] object in one of this series' example., f 29;
#X text 165 256 <= gain compensation with the argument, f 21;
#X obj 313 27 declare -path else;
#X connect 0 0 8 0;
#X connect 1 0 2 0;
#X connect 2 0 9 0;
#X connect 3 0 4 0;
#X connect 4 0 6 0;
#X connect 4 1 5 0;
#X connect 5 0 10 0;
#X connect 6 0 1 0;
#X connect 8 0 7 0;
#X connect 9 0 0 0;
#X connect 10 0 0 1;
