#N canvas 644 23 557 611 12;
#X declare -path else;
#X obj 273 37 declare -path else;
#X obj 127 194 keyboard 17 80 2 4 0 0 empty empty;
#X obj 126 503 out~;
#X msg 146 359 all size \$1 \, all loop 112128 130067;
#X obj 126 401 clone 6 sampvoice \$0-sample;
#X obj 146 333 sample~ \$0-sample Nose_flute.wav;
#X text 91 96 This example is the same as the previous one \, but adapted
to include [clone] loading an abstraction that holds one voice of the
sampler synth., f 51;
#X text 329 401 <= open to check it out.;
#X text 157 444 \$0-sample is sent as an argument so the abstraction
can load the buffer name., f 40;
#X obj 126 293 voices -list 6;
#X connect 1 0 9 0;
#X connect 3 0 4 0;
#X connect 4 0 2 0;
#X connect 5 0 3 0;
#X connect 9 0 4 0;
