#N canvas 62 354 450 300 10;
#X obj 131 74 f;
#X obj 79 74 f;
#X obj 102 46 t b b;
#X obj 127 100 t f f;
#X obj 74 98 t f f;
#X obj 133 190 &;
#X obj 74 188 &;
#X obj 102 225 |;
#X obj 122 132 * -1;
#X obj 86 132 * -1;
#X obj 122 154 - 1;
#X obj 86 156 - 1;
#X obj 146 15 inlet;
#X obj 87 16 inlet;
#X obj 101 261 outlet;
#X connect 0 0 3 0;
#X connect 1 0 4 0;
#X connect 2 0 1 0;
#X connect 2 1 0 0;
#X connect 3 0 9 0;
#X connect 3 1 5 1;
#X connect 4 0 6 0;
#X connect 4 1 8 0;
#X connect 5 0 7 1;
#X connect 6 0 7 0;
#X connect 7 0 14 0;
#X connect 8 0 10 0;
#X connect 9 0 11 0;
#X connect 10 0 5 0;
#X connect 11 0 6 1;
#X connect 12 0 0 1;
#X connect 12 0 2 0;
#X connect 13 0 1 1;
#X connect 13 0 2 0;
