#N canvas 679 101 496 340 10;
#X declare -path else;
#X obj 143 231 f;
#X obj 85 113 route float bang set;
#X obj 163 142 route float;
#X obj 124 199 f \$1;
#X obj 109 230 +;
#X obj 85 57 inlet;
#X obj 109 264 outlet;
#X text 205 198 Part of ELSE \; https://github.com/porres/pd-else;
#X text 207 179 Alexandre Torres Porres (2018);
#X obj 100 85 lb -init;
#X obj 262 91 declare -path else;
#X connect 0 0 4 1;
#X connect 1 0 4 0;
#X connect 1 1 3 0;
#X connect 1 2 2 0;
#X connect 2 0 3 0;
#X connect 3 0 4 1;
#X connect 4 0 0 0;
#X connect 4 0 6 0;
#X connect 5 0 1 0;
#X connect 9 0 1 0;
