#N canvas 735 282 482 232 10;
#X declare -path else;
#X obj 60 45 inlet~;
#X obj 112 45 inlet~;
#X obj 165 45 inlet~;
#X obj 107 164 outlet~;
#X obj 274 84 block~ 64 1 16;
#X obj 107 103 imp2~;
#X obj 220 44 inlet~;
#X text 231 129 Part of ELSE \; https://github.com/porres/pd-else;
#X text 233 110 Alexandre Torres Porres (2018);
#N canvas 351 61 450 300 init 0;
#X obj 154 94 args;
#X obj 139 159 outlet;
#X obj 188 159 outlet;
#X obj 154 125 unpack f f f;
#X obj 242 159 outlet;
#X msg 229 92 0.5;
#X obj 154 62 lb -init 2;
#X connect 0 0 3 0;
#X connect 3 0 1 0;
#X connect 3 1 2 0;
#X connect 3 2 4 0;
#X connect 5 0 2 0;
#X connect 6 0 0 0;
#X connect 6 1 5 0;
#X restore 93 12 pd init;
#X obj 298 42 declare -path else;
#X obj 107 133 brickwall~;
#X connect 0 0 5 0;
#X connect 1 0 5 1;
#X connect 2 0 5 2;
#X connect 5 0 11 0;
#X connect 6 0 5 3;
#X connect 9 0 0 0;
#X connect 9 1 1 0;
#X connect 9 2 6 0;
#X connect 11 0 3 0;
