#N canvas 682 147 357 464 10;
#X declare -path else;
#X obj 59 33 inlet;
#X obj 59 418 outlet;
#X text 102 129 Part of ELSE \; https://github.com/porres/pd-else;
#X msg 257 350 1000;
#X obj 158 313 samplerate~;
#X text 102 110 Alexandre Torres Porres (2019);
#X obj 158 253 symbol \$1;
#X obj 158 283 select -samps;
#X obj 158 223 trigger bang bang;
#X obj 59 344 expr 60 * $f2/$f1;
#X obj 158 193 lb -init;
#X obj 164 80 declare -path else;
#X connect 0 0 9 0;
#X connect 3 0 9 1;
#X connect 4 0 9 1;
#X connect 6 0 7 0;
#X connect 7 0 4 0;
#X connect 8 0 6 0;
#X connect 8 1 3 0;
#X connect 9 0 1 0;
#X connect 10 0 8 0;
