#N canvas 617 454 442 267 10;
#X declare -path else;
#X obj 74 120 +~;
#X obj 139 120 -~;
#X obj 73 29 inlet~;
#X obj 154 29 inlet~;
#X obj 74 179 outlet~;
#X obj 139 179 outlet~;
#X obj 214 98 r \$2-size;
#X obj 214 125 expr pow(\$1 \, $f1);
#X obj 139 150 ffdelay~;
#X obj 265 61 declare -path else;
#X connect 0 0 4 0;
#X connect 1 0 8 0;
#X connect 2 0 0 0;
#X connect 2 0 1 0;
#X connect 3 0 0 1;
#X connect 3 0 1 1;
#X connect 6 0 7 0;
#X connect 7 0 8 1;
#X connect 8 0 5 0;
