#N canvas 582 218 600 498 10;
#X declare -path else;
#X obj 66 44 inlet;
#X msg 66 74 \$3 \$1 \$2;
#X obj 66 107 route -1 0 1;
#X msg 66 173 0;
#X msg 112 173 0;
#X obj 102 344 osc~;
#X obj 207 404 *~;
#X msg 153 173 8;
#X obj 189 175 unpack;
#X obj 207 439 outlet~;
#X obj 153 145 t b l;
#X obj 322 54 inlet;
#X obj 102 315 *~ 1;
#X obj 322 254 cents2ratio;
#X obj 222 245 f2s~ 8;
#X obj 102 243 f2s~;
#X text 354 134 Part of ELSE \; https://github.com/porres/pd-else;
#X text 356 115 Alexandre Torres Porres (2018);
#X text 358 178 This is an abstraction used on the [freeze~] object
, f 27;
#X obj 380 314 declare -path else;
#X connect 0 0 1 0;
#X connect 1 0 2 0;
#X connect 2 0 3 0;
#X connect 2 1 10 0;
#X connect 2 2 3 0;
#X connect 2 2 4 0;
#X connect 3 0 14 0;
#X connect 4 0 15 1;
#X connect 5 0 6 0;
#X connect 6 0 9 0;
#X connect 7 0 15 1;
#X connect 8 0 15 0;
#X connect 8 1 14 0;
#X connect 10 0 7 0;
#X connect 10 1 8 0;
#X connect 11 0 13 0;
#X connect 12 0 5 0;
#X connect 13 0 12 1;
#X connect 14 0 6 1;
#X connect 15 0 12 0;
