#N canvas 561 303 774 255 10;
#X declare -path else;
#X obj 55 210 outlet~;
#X obj 295 26 inlet~;
#X obj 383 26 inlet~;
#X obj 114 210 outlet~;
#X obj 174 210 outlet~;
#X obj 231 210 outlet~;
#X obj 291 210 outlet~;
#X obj 345 210 outlet~;
#X obj 400 210 outlet~;
#X obj 457 210 outlet~;
#X obj 56 26 inlet~;
#X obj 55 165 *~;
#X obj 114 165 *~;
#X obj 174 165 *~;
#X obj 231 165 *~;
#X obj 291 165 *~;
#X obj 345 165 *~;
#X obj 400 165 *~;
#X obj 457 165 *~;
#X obj 472 26 inlet;
#N canvas 627 307 329 254 init 0;
#N canvas 820 198 620 655 presets 0;
#X obj 189 81 != 0;
#X obj 189 106 s \$0-preset;
#X obj 189 51 inlet;
#X obj 75 233 / 360;
#X msg 112 198 90;
#X obj 93 146 r \$0-preset;
#X msg 75 281 1 \$1;
#X obj 75 260 *;
#X obj 106 261 pi 2;
#X obj 75 329 pack;
#X obj 75 302 pol2car;
#X obj 75 352 s \$0-speaker-1;
#X obj 75 483 / 360;
#X obj 93 396 r \$0-preset;
#X msg 75 531 1 \$1;
#X obj 75 510 *;
#X obj 106 511 pi 2;
#X obj 75 579 pack;
#X obj 75 552 pol2car;
#X msg 112 448 270;
#X obj 75 601 s \$0-speaker-5;
#X obj 185 233 / 360;
#X obj 203 146 r \$0-preset;
#X msg 185 281 1 \$1;
#X obj 185 260 *;
#X obj 216 261 pi 2;
#X obj 185 329 pack;
#X obj 185 302 pol2car;
#X obj 185 483 / 360;
#X obj 203 396 r \$0-preset;
#X msg 185 531 1 \$1;
#X obj 185 510 *;
#X obj 216 511 pi 2;
#X obj 185 579 pack;
#X obj 185 552 pol2car;
#X obj 185 352 s \$0-speaker-2;
#X obj 185 601 s \$0-speaker-6;
#X msg 222 198 45;
#X msg 222 448 225;
#X obj 287 233 / 360;
#X obj 305 146 r \$0-preset;
#X msg 287 281 1 \$1;
#X obj 287 260 *;
#X obj 318 261 pi 2;
#X obj 287 329 pack;
#X obj 287 302 pol2car;
#X obj 287 483 / 360;
#X obj 305 396 r \$0-preset;
#X msg 287 531 1 \$1;
#X obj 287 510 *;
#X obj 318 511 pi 2;
#X obj 287 579 pack;
#X obj 287 552 pol2car;
#X obj 287 352 s \$0-speaker-3;
#X obj 287 601 s \$0-speaker-7;
#X msg 324 198 360;
#X msg 324 447 180;
#X obj 387 233 / 360;
#X obj 405 146 r \$0-preset;
#X msg 387 281 1 \$1;
#X obj 387 260 *;
#X obj 418 261 pi 2;
#X obj 387 329 pack;
#X obj 387 302 pol2car;
#X obj 387 483 / 360;
#X obj 405 396 r \$0-preset;
#X msg 387 531 1 \$1;
#X obj 387 510 *;
#X obj 418 511 pi 2;
#X obj 387 579 pack;
#X obj 387 552 pol2car;
#X obj 387 352 s \$0-speaker-4;
#X obj 387 601 s \$0-speaker-8;
#X msg 424 198 315;
#X msg 424 448 135;
#X msg 337 43 1;
#X msg 185 449 22.5;
#X msg 75 450 67.5;
#X msg 387 199 112.5;
#X msg 287 199 157.5;
#X msg 185 199 202.5;
#X msg 75 199 247.5;
#X msg 387 449 292.5;
#X msg 287 449 337.5;
#X obj 93 171 sel 0 1;
#X obj 203 171 sel 0 1;
#X obj 305 171 sel 0 1;
#X obj 405 171 sel 0 1;
#X obj 93 421 sel 0 1;
#X obj 203 421 sel 0 1;
#X obj 305 421 sel 0 1;
#X obj 405 421 sel 0 1;
#X connect 0 0 1 0;
#X connect 2 0 0 0;
#X connect 3 0 7 0;
#X connect 4 0 3 0;
#X connect 5 0 84 0;
#X connect 6 0 10 0;
#X connect 7 0 6 0;
#X connect 8 0 7 1;
#X connect 9 0 11 0;
#X connect 10 0 9 0;
#X connect 10 1 9 1;
#X connect 12 0 15 0;
#X connect 13 0 88 0;
#X connect 14 0 18 0;
#X connect 15 0 14 0;
#X connect 16 0 15 1;
#X connect 17 0 20 0;
#X connect 18 0 17 0;
#X connect 18 1 17 1;
#X connect 19 0 12 0;
#X connect 21 0 24 0;
#X connect 22 0 85 0;
#X connect 23 0 27 0;
#X connect 24 0 23 0;
#X connect 25 0 24 1;
#X connect 26 0 35 0;
#X connect 27 0 26 0;
#X connect 27 1 26 1;
#X connect 28 0 31 0;
#X connect 29 0 89 0;
#X connect 30 0 34 0;
#X connect 31 0 30 0;
#X connect 32 0 31 1;
#X connect 33 0 36 0;
#X connect 34 0 33 0;
#X connect 34 1 33 1;
#X connect 37 0 21 0;
#X connect 38 0 28 0;
#X connect 39 0 42 0;
#X connect 40 0 86 0;
#X connect 41 0 45 0;
#X connect 42 0 41 0;
#X connect 43 0 42 1;
#X connect 44 0 53 0;
#X connect 45 0 44 0;
#X connect 45 1 44 1;
#X connect 46 0 49 0;
#X connect 47 0 90 0;
#X connect 48 0 52 0;
#X connect 49 0 48 0;
#X connect 50 0 49 1;
#X connect 51 0 54 0;
#X connect 52 0 51 0;
#X connect 52 1 51 1;
#X connect 55 0 39 0;
#X connect 56 0 46 0;
#X connect 57 0 60 0;
#X connect 58 0 87 0;
#X connect 59 0 63 0;
#X connect 60 0 59 0;
#X connect 61 0 60 1;
#X connect 62 0 71 0;
#X connect 63 0 62 0;
#X connect 63 1 62 1;
#X connect 64 0 67 0;
#X connect 65 0 91 0;
#X connect 66 0 70 0;
#X connect 67 0 66 0;
#X connect 68 0 67 1;
#X connect 69 0 72 0;
#X connect 70 0 69 0;
#X connect 70 1 69 1;
#X connect 73 0 57 0;
#X connect 74 0 64 0;
#X connect 76 0 28 0;
#X connect 77 0 12 0;
#X connect 78 0 57 0;
#X connect 79 0 39 0;
#X connect 80 0 21 0;
#X connect 81 0 3 0;
#X connect 82 0 64 0;
#X connect 83 0 46 0;
#X connect 84 0 81 0;
#X connect 84 1 4 0;
#X connect 85 0 80 0;
#X connect 85 1 37 0;
#X connect 86 0 79 0;
#X connect 86 1 55 0;
#X connect 87 0 78 0;
#X connect 87 1 73 0;
#X connect 88 0 77 0;
#X connect 88 1 19 0;
#X connect 89 0 76 0;
#X connect 89 1 38 0;
#X connect 90 0 83 0;
#X connect 90 1 56 0;
#X connect 91 0 82 0;
#X connect 91 1 74 0;
#X restore 205 154 pd presets;
#X obj 76 76 args -;
#X obj 75 111 route -spread -mode;
#X obj 163 178 s \$0-spread;
#X msg 205 111 0;
#X obj 76 50 loadbanger -init 2;
#X connect 1 0 2 0;
#X connect 2 0 3 0;
#X connect 2 1 0 0;
#X connect 4 0 3 0;
#X connect 4 0 0 0;
#X connect 5 0 1 0;
#X connect 5 1 4 0;
#X restore 219 60 pd init;
#X text 516 125 Part of ELSE \; https://github.com/porres/pd-else;
#X text 517 106 Alexandre Torres Porres (2017);
#N canvas 462 314 795 291 set-amplitudes 0;
#X obj 39 215 outlet~;
#X obj 222 40 inlet~;
#X obj 387 40 inlet~;
#X obj 129 215 outlet~;
#X obj 220 215 outlet~;
#X obj 309 215 outlet~;
#X obj 399 215 outlet~;
#X obj 489 215 outlet~;
#X obj 579 215 outlet~;
#X obj 669 215 outlet~;
#N canvas 688 148 331 492 speaker-1 0;
#X obj 147 435 outlet~;
#X obj 147 328 clip~ 0 1;
#X obj 57 45 inlet~;
#X obj 108 45 inlet~;
#X obj 162 45 inlet~;
#X obj 205 112 unpack;
#X text 69 23 X;
#X text 123 23 Y;
#X text 163 23 Spread;
#X obj 147 399 cos~;
#X obj 147 360 *~ 0.25;
#X obj 58 161 -~;
#X obj 109 161 -~;
#X obj 58 203 mag~;
#X obj 147 298 *~;
#X obj 205 82 r \$0-speaker-1;
#X obj 58 232 *~ 0.5;
#X connect 1 0 10 0;
#X connect 2 0 11 0;
#X connect 3 0 12 0;
#X connect 4 0 14 1;
#X connect 5 0 11 1;
#X connect 5 1 12 1;
#X connect 9 0 0 0;
#X connect 10 0 9 0;
#X connect 11 0 13 0;
#X connect 12 0 13 1;
#X connect 13 0 16 0;
#X connect 14 0 1 0;
#X connect 15 0 5 0;
#X connect 16 0 14 0;
#X restore 39 163 pd speaker-1;
#N canvas 814 366 320 322 rescale 0;
#X obj 73 248 outlet~;
#X obj 74 120 moses;
#X obj 101 151 rescale 0 1 1 0.5;
#X obj 74 36 inlet;
#X obj 73 223 f2s~ 10;
#X obj 83 65 r \$0-spread;
#X obj 74 91 clip -1 1;
#X obj 74 194 rescale 0 -1 1 3;
#X connect 1 0 7 0;
#X connect 1 1 2 0;
#X connect 2 0 4 0;
#X connect 3 0 6 0;
#X connect 4 0 0 0;
#X connect 5 0 6 0;
#X connect 6 0 1 0;
#X connect 7 0 4 0;
#X restore 552 64 pd rescale;
#X obj 552 40 inlet;
#N canvas 688 148 331 492 speaker-2 0;
#X obj 147 435 outlet~;
#X obj 147 328 clip~ 0 1;
#X obj 57 45 inlet~;
#X obj 108 45 inlet~;
#X obj 162 45 inlet~;
#X obj 205 112 unpack;
#X text 69 23 X;
#X text 123 23 Y;
#X text 163 23 Spread;
#X obj 147 399 cos~;
#X obj 147 360 *~ 0.25;
#X obj 58 161 -~;
#X obj 109 161 -~;
#X obj 58 203 mag~;
#X obj 147 298 *~;
#X obj 58 232 *~ 0.5;
#X obj 205 82 r \$0-speaker-2;
#X connect 1 0 10 0;
#X connect 2 0 11 0;
#X connect 3 0 12 0;
#X connect 4 0 14 1;
#X connect 5 0 11 1;
#X connect 5 1 12 1;
#X connect 9 0 0 0;
#X connect 10 0 9 0;
#X connect 11 0 13 0;
#X connect 12 0 13 1;
#X connect 13 0 15 0;
#X connect 14 0 1 0;
#X connect 15 0 14 0;
#X connect 16 0 5 0;
#X restore 129 163 pd speaker-2;
#N canvas 688 148 331 492 speaker-3 0;
#X obj 147 435 outlet~;
#X obj 147 328 clip~ 0 1;
#X obj 57 45 inlet~;
#X obj 108 45 inlet~;
#X obj 162 45 inlet~;
#X obj 205 112 unpack;
#X text 69 23 X;
#X text 123 23 Y;
#X text 163 23 Spread;
#X obj 147 399 cos~;
#X obj 147 360 *~ 0.25;
#X obj 58 161 -~;
#X obj 109 161 -~;
#X obj 58 203 mag~;
#X obj 147 298 *~;
#X obj 58 232 *~ 0.5;
#X obj 205 82 r \$0-speaker-3;
#X connect 1 0 10 0;
#X connect 2 0 11 0;
#X connect 3 0 12 0;
#X connect 4 0 14 1;
#X connect 5 0 11 1;
#X connect 5 1 12 1;
#X connect 9 0 0 0;
#X connect 10 0 9 0;
#X connect 11 0 13 0;
#X connect 12 0 13 1;
#X connect 13 0 15 0;
#X connect 14 0 1 0;
#X connect 15 0 14 0;
#X connect 16 0 5 0;
#X restore 220 163 pd speaker-3;
#N canvas 688 148 331 492 speaker-4 0;
#X obj 147 435 outlet~;
#X obj 147 328 clip~ 0 1;
#X obj 57 45 inlet~;
#X obj 108 45 inlet~;
#X obj 162 45 inlet~;
#X obj 205 112 unpack;
#X text 69 23 X;
#X text 123 23 Y;
#X text 163 23 Spread;
#X obj 147 399 cos~;
#X obj 147 360 *~ 0.25;
#X obj 58 161 -~;
#X obj 109 161 -~;
#X obj 58 203 mag~;
#X obj 147 298 *~;
#X obj 58 232 *~ 0.5;
#X obj 205 82 r \$0-speaker-4;
#X connect 1 0 10 0;
#X connect 2 0 11 0;
#X connect 3 0 12 0;
#X connect 4 0 14 1;
#X connect 5 0 11 1;
#X connect 5 1 12 1;
#X connect 9 0 0 0;
#X connect 10 0 9 0;
#X connect 11 0 13 0;
#X connect 12 0 13 1;
#X connect 13 0 15 0;
#X connect 14 0 1 0;
#X connect 15 0 14 0;
#X connect 16 0 5 0;
#X restore 309 163 pd speaker-4;
#N canvas 688 148 331 492 speaker-5 0;
#X obj 147 435 outlet~;
#X obj 147 328 clip~ 0 1;
#X obj 57 45 inlet~;
#X obj 108 45 inlet~;
#X obj 162 45 inlet~;
#X obj 205 112 unpack;
#X text 69 23 X;
#X text 123 23 Y;
#X text 163 23 Spread;
#X obj 147 399 cos~;
#X obj 147 360 *~ 0.25;
#X obj 58 161 -~;
#X obj 109 161 -~;
#X obj 58 203 mag~;
#X obj 147 298 *~;
#X obj 58 232 *~ 0.5;
#X obj 205 82 r \$0-speaker-5;
#X connect 1 0 10 0;
#X connect 2 0 11 0;
#X connect 3 0 12 0;
#X connect 4 0 14 1;
#X connect 5 0 11 1;
#X connect 5 1 12 1;
#X connect 9 0 0 0;
#X connect 10 0 9 0;
#X connect 11 0 13 0;
#X connect 12 0 13 1;
#X connect 13 0 15 0;
#X connect 14 0 1 0;
#X connect 15 0 14 0;
#X connect 16 0 5 0;
#X restore 399 163 pd speaker-5;
#N canvas 688 148 331 492 speaker-6 0;
#X obj 147 435 outlet~;
#X obj 147 328 clip~ 0 1;
#X obj 57 45 inlet~;
#X obj 108 45 inlet~;
#X obj 162 45 inlet~;
#X obj 205 112 unpack;
#X text 69 23 X;
#X text 123 23 Y;
#X text 163 23 Spread;
#X obj 147 399 cos~;
#X obj 147 360 *~ 0.25;
#X obj 58 161 -~;
#X obj 109 161 -~;
#X obj 58 203 mag~;
#X obj 147 298 *~;
#X obj 58 232 *~ 0.5;
#X obj 205 82 r \$0-speaker-6;
#X connect 1 0 10 0;
#X connect 2 0 11 0;
#X connect 3 0 12 0;
#X connect 4 0 14 1;
#X connect 5 0 11 1;
#X connect 5 1 12 1;
#X connect 9 0 0 0;
#X connect 10 0 9 0;
#X connect 11 0 13 0;
#X connect 12 0 13 1;
#X connect 13 0 15 0;
#X connect 14 0 1 0;
#X connect 15 0 14 0;
#X connect 16 0 5 0;
#X restore 490 163 pd speaker-6;
#N canvas 688 148 331 492 speaker-7 0;
#X obj 147 435 outlet~;
#X obj 147 328 clip~ 0 1;
#X obj 57 45 inlet~;
#X obj 108 45 inlet~;
#X obj 162 45 inlet~;
#X obj 205 112 unpack;
#X text 69 23 X;
#X text 123 23 Y;
#X text 163 23 Spread;
#X obj 147 399 cos~;
#X obj 147 360 *~ 0.25;
#X obj 58 161 -~;
#X obj 109 161 -~;
#X obj 58 203 mag~;
#X obj 147 298 *~;
#X obj 58 232 *~ 0.5;
#X obj 205 82 r \$0-speaker-7;
#X connect 1 0 10 0;
#X connect 2 0 11 0;
#X connect 3 0 12 0;
#X connect 4 0 14 1;
#X connect 5 0 11 1;
#X connect 5 1 12 1;
#X connect 9 0 0 0;
#X connect 10 0 9 0;
#X connect 11 0 13 0;
#X connect 12 0 13 1;
#X connect 13 0 15 0;
#X connect 14 0 1 0;
#X connect 15 0 14 0;
#X connect 16 0 5 0;
#X restore 579 163 pd speaker-7;
#N canvas 688 148 331 492 speaker-8 0;
#X obj 147 435 outlet~;
#X obj 147 328 clip~ 0 1;
#X obj 57 45 inlet~;
#X obj 108 45 inlet~;
#X obj 162 45 inlet~;
#X obj 205 112 unpack;
#X text 69 23 X;
#X text 123 23 Y;
#X text 163 23 Spread;
#X obj 147 399 cos~;
#X obj 147 360 *~ 0.25;
#X obj 58 161 -~;
#X obj 109 161 -~;
#X obj 58 203 mag~;
#X obj 147 298 *~;
#X obj 58 232 *~ 0.5;
#X obj 205 82 r \$0-speaker-8;
#X connect 1 0 10 0;
#X connect 2 0 11 0;
#X connect 3 0 12 0;
#X connect 4 0 14 1;
#X connect 5 0 11 1;
#X connect 5 1 12 1;
#X connect 9 0 0 0;
#X connect 10 0 9 0;
#X connect 11 0 13 0;
#X connect 12 0 13 1;
#X connect 13 0 15 0;
#X connect 14 0 1 0;
#X connect 15 0 14 0;
#X connect 16 0 5 0;
#X restore 669 163 pd speaker-8;
#X connect 1 0 10 0;
#X connect 1 0 13 0;
#X connect 1 0 14 0;
#X connect 1 0 15 0;
#X connect 1 0 16 0;
#X connect 1 0 17 0;
#X connect 1 0 18 0;
#X connect 1 0 19 0;
#X connect 2 0 10 1;
#X connect 2 0 13 1;
#X connect 2 0 14 1;
#X connect 2 0 15 1;
#X connect 2 0 16 1;
#X connect 2 0 17 1;
#X connect 2 0 18 1;
#X connect 2 0 19 1;
#X connect 10 0 0 0;
#X connect 11 0 10 2;
#X connect 11 0 13 2;
#X connect 11 0 14 2;
#X connect 11 0 15 2;
#X connect 11 0 16 2;
#X connect 11 0 17 2;
#X connect 11 0 18 2;
#X connect 11 0 19 2;
#X connect 12 0 11 0;
#X connect 13 0 3 0;
#X connect 14 0 4 0;
#X connect 15 0 5 0;
#X connect 16 0 6 0;
#X connect 17 0 7 0;
#X connect 18 0 8 0;
#X connect 19 0 9 0;
#X restore 295 60 pd set-amplitudes;
#X f 30;
#X obj 588 66 declare -path else;
#X connect 1 0 23 0;
#X connect 2 0 23 1;
#X connect 10 0 11 0;
#X connect 10 0 12 0;
#X connect 10 0 13 0;
#X connect 10 0 14 0;
#X connect 10 0 15 0;
#X connect 10 0 16 0;
#X connect 10 0 17 0;
#X connect 10 0 18 0;
#X connect 11 0 0 0;
#X connect 12 0 3 0;
#X connect 13 0 4 0;
#X connect 14 0 5 0;
#X connect 15 0 6 0;
#X connect 16 0 7 0;
#X connect 17 0 8 0;
#X connect 18 0 9 0;
#X connect 19 0 23 2;
#X connect 23 0 11 1;
#X connect 23 1 12 1;
#X connect 23 2 13 1;
#X connect 23 3 14 1;
#X connect 23 4 15 1;
#X connect 23 5 16 1;
#X connect 23 6 17 1;
#X connect 23 7 18 1;
#X coords 0 255 1 254 155 33 0;
