#N canvas 709 239 472 239 10;
#X text 228 104 Part of ELSE \; https://github.com/porres/pd-else;
#X text 230 85 Alexandre Torres Porres (2018);
#X obj 83 95 expr cos($f2) * $f1 \; sin($f2) * $f1;
#X obj 200 44 inlet;
#X obj 83 45 inlet;
#X obj 83 149 outlet;
#X obj 200 147 outlet;
#X connect 2 0 5 0;
#X connect 2 1 6 0;
#X connect 3 0 2 1;
#X connect 4 0 2 0;
