#N canvas 940 110 643 437 10;
#X declare -path /Users/porres/Documents/pd/externals/else;
#X declare -path else;
#X obj 44 59 inlet;
#X obj 95 59 inlet;
#X obj 147 59 inlet;
#N canvas 981 237 331 272 guts 0;
#X obj 92 83 inlet;
#X obj 151 83 inlet;
#X obj 207 84 inlet;
#X text 95 57 play;
#X text 211 58 cents;
#N canvas 1087 287 487 550 controls 0;
#X obj 38 214 bang~;
#X obj 332 322 / 4;
#X obj 212 131 r \$0-window_size;
#X obj 61 319 spigot;
#X obj 241 400 +;
#X obj 184 432 pack f f f;
#X obj 332 252 *;
#X obj 212 301 samps2ms;
#X obj 332 221 hot;
#X obj 332 170 cents2ratio;
#X obj 332 349 s \$0-new-hop;
#X obj 184 472 s \$0-to-envgen~;
#X msg 235 211 set \$1 4;
#X obj 235 242 block~;
#X obj 348 131 r \$0-transpo;
#X obj 88 65 inlet;
#X obj 152 63 inlet;
#X obj 332 69 inlet;
#X text 330 40 cents;
#X text 146 39 speed;
#X obj 61 266 float;
#X obj 61 350 trigger float float;
#N canvas 577 294 509 463 route 0;
#X obj 124 214 != 0;
#X obj 281 323 change;
#X obj 281 414 outlet;
#X obj 118 414 outlet;
#X obj 65 251 t b b;
#X msg 222 292 1;
#X obj 85 23 inlet;
#X msg 281 118 0;
#X msg 320 118 1;
#X msg 253 292 0;
#X obj 124 234 sel 1 0, f 3;
#N canvas 423 23 618 590 file 0;
#X obj 238 238 symbol;
#X obj 169 157 route bang, f 12;
#X obj 169 217 openpanel;
#X obj 265 352 list trim;
#X obj 265 380 soundfiler;
#X obj 265 408 s \$0-size;
#X obj 265 322 list append;
#X obj 349 322 r \$0-buflist;
#X obj 238 266 t b s;
#X obj 133 264 r \$0-file;
#X obj 133 290 t b s;
#X obj 133 321 v autostart_\$0;
#X obj 133 351 sel 1;
#X obj 265 297 list prepend read -resize;
#X obj 289 254 symbol;
#X obj 182 94 route open set reload, f 54;
#X obj 297 222 r \$0-file;
#X obj 503 489 outlet;
#X obj 182 40 inlet;
#X obj 84 156 click;
#X obj 238 497 outlet;
#X text 195 498 start;
#X connect 0 0 8 0;
#X connect 1 0 2 0;
#X connect 1 1 0 0;
#X connect 2 0 0 0;
#X connect 3 0 4 0;
#X connect 4 0 5 0;
#X connect 6 0 3 0;
#X connect 7 0 6 1;
#X connect 8 0 20 0;
#X connect 8 1 13 0;
#X connect 9 0 10 0;
#X connect 10 0 11 0;
#X connect 10 1 13 0;
#X connect 11 0 12 0;
#X connect 12 0 20 0;
#X connect 13 0 6 0;
#X connect 14 0 0 1;
#X connect 15 0 1 0;
#X connect 15 1 14 0;
#X connect 15 2 0 0;
#X connect 15 3 17 0;
#X connect 16 0 14 0;
#X connect 18 0 15 0;
#X connect 19 0 2 0;
#X restore 85 58 pd file;
#X obj 208 229 r \$0-stop;
#X obj 360 118 != 0;
#X obj 360 147 s \$0-loop;
#X obj 124 91 route float bang stop start pause continue loop range
;
#N canvas 1079 344 481 603 range 0;
#X obj 171 277 sel 1;
#X obj 215 180 v t_\$0;
#X obj 171 106 unpack;
#X obj 204 128 clip 0 1;
#X obj 171 226 clip 0 1;
#X obj 154 75 r \$0-range;
#X obj 123 37 inlet;
#X obj 123 104 t b l;
#X obj 205 202 v max_\$0;
#X obj 171 250 expr (min_\$0 = $f1) > max_\$0;
#X obj 171 301 expr min_\$0 = t_\$0 \; max_\$0 = min_\$0;
#X obj 180 346 r \$0-size;
#X obj 222 156 v min_\$0;
#X obj 125 511 s \$0-min;
#X obj 230 511 s \$0-max;
#X obj 125 377 expr $f1 * min_\$0 \; $f1 * max_\$0;
#X connect 0 0 10 0;
#X connect 2 0 4 0;
#X connect 2 1 3 0;
#X connect 3 0 1 0;
#X connect 3 0 8 0;
#X connect 4 0 9 0;
#X connect 5 0 7 0;
#X connect 6 0 7 0;
#X connect 7 0 15 0;
#X connect 7 1 2 0;
#X connect 9 0 0 0;
#X connect 11 0 15 0;
#X connect 15 0 13 0;
#X connect 15 1 14 0;
#X restore 399 118 pd range;
#X obj 212 358 r \$0-min;
#X obj 307 358 r \$0-max;
#X obj 118 380 expr if(speed_\$0 >= 0 \, $f2 \, $f3);
#X obj 168 332 r \$0-start-point;
#X connect 0 0 10 0;
#X connect 1 0 2 0;
#X connect 4 0 19 0;
#X connect 4 1 5 0;
#X connect 5 0 1 0;
#X connect 6 0 11 0;
#X connect 7 0 1 0;
#X connect 8 0 1 0;
#X connect 9 0 1 0;
#X connect 10 0 4 0;
#X connect 10 1 19 0;
#X connect 11 0 4 0;
#X connect 11 1 15 0;
#X connect 12 0 9 0;
#X connect 12 0 19 0;
#X connect 13 0 14 0;
#X connect 15 0 0 0;
#X connect 15 1 4 0;
#X connect 15 2 19 0;
#X connect 15 3 4 0;
#X connect 15 4 7 0;
#X connect 15 5 8 0;
#X connect 15 6 13 0;
#X connect 15 7 16 0;
#X connect 17 0 19 1;
#X connect 18 0 19 2;
#X connect 19 0 3 0;
#X connect 20 0 19 0;
#X restore 88 170 pd route;
#X text 78 39 messages;
#N canvas 856 246 280 309 step 0;
#X obj 70 156 / 100;
#X obj 96 59 r \$0-speed;
#X obj 130 214 *;
#X obj 130 189 hot;
#X obj 175 161 / 4;
#X obj 70 30 inlet;
#X obj 175 30 inlet;
#X obj 130 255 outlet;
#X obj 96 112 v speed_\$0;
#X connect 0 0 3 0;
#X connect 1 0 0 0;
#X connect 1 0 8 0;
#X connect 2 0 7 0;
#X connect 3 0 2 0;
#X connect 3 1 2 1;
#X connect 4 0 3 1;
#X connect 5 0 0 0;
#X connect 5 0 8 0;
#X connect 6 0 4 0;
#X restore 152 211 pd step;
#N canvas 905 265 269 350 + 0;
#X obj 33 67 +;
#X obj 33 124 wrap2;
#X obj 33 23 inlet;
#X obj 33 304 outlet;
#X obj 79 23 inlet;
#X obj 86 260 s \$0-stop;
#X obj 86 166 sel 1;
#X obj 95 59 r \$0-min;
#X obj 172 57 r \$0-max;
#X obj 127 166 r \$0-loop;
#X obj 131 237 s \$0-finished;
#X obj 86 124 expr $f1 <= $f2 || $f1 >= $f3, f 15;
#X obj 86 210 router;
#X connect 0 0 1 0;
#X connect 0 0 11 0;
#X connect 1 0 3 0;
#X connect 2 0 0 0;
#X connect 4 0 0 1;
#X connect 6 0 12 0;
#X connect 7 0 1 1;
#X connect 7 0 11 1;
#X connect 8 0 1 2;
#X connect 8 0 11 2;
#X connect 9 0 12 1;
#X connect 11 0 6 0;
#X connect 12 0 10 0;
#X connect 12 0 5 0;
#X connect 12 1 10 0;
#X restore 131 290 pd +;
#X connect 0 0 20 0;
#X connect 1 0 10 0;
#X connect 2 0 8 1;
#X connect 2 0 7 0;
#X connect 2 0 12 0;
#X connect 2 0 24 1;
#X connect 3 0 21 0;
#X connect 3 0 25 0;
#X connect 4 0 5 2;
#X connect 5 0 11 0;
#X connect 6 0 1 0;
#X connect 6 0 4 1;
#X connect 7 0 5 1;
#X connect 8 0 6 0;
#X connect 8 1 6 1;
#X connect 9 0 8 0;
#X connect 12 0 13 0;
#X connect 14 0 9 0;
#X connect 15 0 22 0;
#X connect 16 0 24 0;
#X connect 17 0 9 0;
#X connect 20 0 3 0;
#X connect 21 0 5 0;
#X connect 21 1 4 0;
#X connect 22 0 20 1;
#X connect 22 1 3 1;
#X connect 24 0 25 1;
#X connect 25 0 20 1;
#X restore 120 123 pd controls;
#X text 146 57 speed;
#N canvas 825 436 328 176 dynamic-patching 0;
#N canvas 523 125 891 639 load-args 0;
#X obj 99 117 args;
#X obj 99 43 inlet;
#X obj 99 150 break -;
#X obj 100 333 sel 0;
#X msg 79 364 1;
#X obj 144 365 b;
#X obj 144 389 v ch_\$0;
#X obj 198 311 s \$0-speed;
#X obj 198 284 route float;
#X obj 99 80 trigger bang bang;
#X msg 549 271 \$1;
#X msg 690 253 1;
#X obj 690 280 v sym_\$0;
#X obj 549 324 int;
#X obj 670 431 clip 1 64;
#X obj 639 254 t a b;
#X obj 639 281 symbol;
#X text 636 231 1st arg is symbol;
#X obj 549 298 route float;
#X obj 460 526 v ch_\$0;
#X obj 686 306 s \$0-symbol_arg;
#X obj 549 244 list;
#X obj 639 305 t s s;
#X msg 175 341 1;
#X msg 198 173 100;
#X obj 79 392 t b f;
#N canvas 383 241 350 524 set-buffers 0;
#X obj 43 41 inlet;
#X obj 43 401 list prepend;
#X obj 43 425 list;
#X obj 43 448 s \$0-buflist;
#X obj 112 376 r \$0-init-buflist;
#X obj 43 177 + 1;
#X obj 43 145 trigger float float;
#X obj 70 342 s pd-\$0-buffers;
#N canvas 621 356 434 343 \$0-buffers 0;
#X obj 20 50 table 1012-ch1;
#X restore 194 98 pd \$0-buffers;
#X obj 43 111 loop;
#X obj 43 209 makefilename \$0-ch%d, f 12;
#X obj 43 251 t s s;
#X obj 70 287 pack symbol float;
#X obj 169 212 expr 20 + 110 * $f1;
#X msg 70 314 obj \$2 50 table \$1;
#X connect 0 0 9 0;
#X connect 1 0 2 0;
#X connect 2 0 1 1;
#X connect 2 0 3 0;
#X connect 4 0 1 1;
#X connect 5 0 10 0;
#X connect 6 0 5 0;
#X connect 6 1 13 0;
#X connect 9 0 6 0;
#X connect 10 0 11 0;
#X connect 11 0 1 0;
#X connect 11 1 12 0;
#X connect 12 0 14 0;
#X connect 13 0 12 1;
#X connect 14 0 7 0;
#X restore 460 553 pd set-buffers;
#N canvas 702 273 273 218 init 0;
#X obj 106 103 send pd-\$0-buffers;
#X msg 106 72 clear;
#X obj 86 131 s \$0-init-buflist;
#X obj 87 28 inlet;
#X obj 66 182 v wsize_\$0;
#X msg 66 157 2048;
#N canvas 106 61 319 243 dir 0;
#X obj 48 160 send pd-\$0-path;
#X msg 48 136 clear \, obj 30 20 declare -path \$1;
#N canvas 169 23 493 100 \$0-path 0;
#X obj 30 20 declare -path /Users/porres/Documents/pd/externals/else
;
#X restore 150 160 pd \$0-path;
#X obj 48 109 pdcontrol;
#X msg 48 82 dir 1;
#X obj 48 50 inlet;
#X connect 1 0 0 0;
#X connect 3 0 1 0;
#X connect 4 0 3 0;
#X connect 5 0 4 0;
#X restore 157 69 pd dir;
#X connect 1 0 0 0;
#X connect 3 0 2 0;
#X connect 3 0 1 0;
#X connect 3 0 5 0;
#X connect 3 0 6 0;
#X connect 5 0 4 0;
#X restore 331 102 pd init;
#N canvas 167 330 353 306 +args 0;
#X obj 72 22 inlet;
#X obj 74 92 v sym_\$0;
#X obj 74 116 sel 0 1;
#X obj 152 161 list;
#X obj 117 160 list;
#N canvas 67 279 425 422 1st_is_not_filename 0;
#X obj 87 31 inlet;
#X text 222 347 3nd is autostart;
#X text 229 288 4th is loop;
#X obj 121 263 unpack;
#X obj 114 133 list split 1;
#X obj 87 236 list split 2;
#X msg 205 184 \$1;
#X obj 205 254 s \$0-symbol_arg;
#X obj 148 161 route bang;
#X obj 205 206 routetype anything;
#X obj 205 230 symbol;
#X text 239 184 2nd is filename;
#X obj 87 110 t l l;
#X obj 121 316 != 0;
#X obj 121 344 v autostart_\$0;
#X obj 154 289 v loop_\$0;
#X connect 0 0 12 0;
#X connect 3 0 13 0;
#X connect 3 1 15 0;
#X connect 4 1 8 0;
#X connect 5 1 3 0;
#X connect 6 0 9 0;
#X connect 8 1 6 0;
#X connect 9 0 10 0;
#X connect 10 0 7 0;
#X connect 12 0 5 0;
#X connect 12 1 4 0;
#X connect 13 0 14 0;
#X restore 117 210 pd 1st_is_not_filename;
#N canvas 184 344 358 270 1st_is_filename 0;
#X obj 64 63 inlet;
#X text 197 206 2nd is autostart;
#X text 223 172 3nd is loop;
#X obj 64 108 list split 1;
#X obj 98 137 unpack;
#X obj 98 170 != 0;
#X obj 98 202 v autostart_\$0;
#X obj 147 173 v loop_\$0;
#X connect 0 0 3 0;
#X connect 3 1 4 0;
#X connect 4 0 5 0;
#X connect 4 1 7 0;
#X connect 5 0 6 0;
#X restore 152 186 pd 1st_is_filename;
#X obj 74 67 trigger bang anything;
#X connect 0 0 7 0;
#X connect 1 0 2 0;
#X connect 2 0 4 0;
#X connect 2 1 3 0;
#X connect 3 0 6 0;
#X connect 4 0 5 0;
#X connect 7 0 1 0;
#X connect 7 1 3 1;
#X connect 7 1 4 1;
#X restore 372 237 pd +args;
#X obj 372 209 trigger anything bang anything;
#X obj 639 356 soundfiler;
#X msg 696 394 \$3;
#X msg 639 331 read \$1;
#X obj 296 315 route float;
#X obj 296 342 s \$0-transpo;
#X msg 296 184 0;
#X obj 175 365 v loop_\$0;
#X obj 336 273 s \$0-set-range;
#X msg 349 181 0 1;
#X obj 99 226 route bang -loop -speed -transp -range;
#X connect 0 0 2 0;
#X connect 1 0 9 0;
#X connect 2 0 39 0;
#X connect 3 0 4 0;
#X connect 4 0 25 0;
#X connect 5 0 6 0;
#X connect 6 0 3 0;
#X connect 8 0 7 0;
#X connect 9 0 0 0;
#X connect 9 1 24 0;
#X connect 9 1 27 0;
#X connect 9 1 35 0;
#X connect 9 1 38 0;
#X connect 10 0 18 0;
#X connect 11 0 12 0;
#X connect 13 0 14 0;
#X connect 14 0 19 0;
#X connect 15 0 16 0;
#X connect 15 1 11 0;
#X connect 16 0 22 0;
#X connect 18 0 13 0;
#X connect 18 1 15 0;
#X connect 19 0 26 0;
#X connect 21 0 10 0;
#X connect 22 0 32 0;
#X connect 22 1 20 0;
#X connect 23 0 36 0;
#X connect 24 0 8 0;
#X connect 25 0 19 0;
#X connect 25 1 6 0;
#X connect 29 0 28 0;
#X connect 29 1 19 0;
#X connect 29 2 21 0;
#X connect 30 1 31 0;
#X connect 31 0 14 0;
#X connect 32 0 30 0;
#X connect 33 0 34 0;
#X connect 35 0 33 0;
#X connect 38 0 37 0;
#X connect 39 0 4 0;
#X connect 39 1 5 0;
#X connect 39 1 23 0;
#X connect 39 2 8 0;
#X connect 39 2 5 0;
#X connect 39 3 33 0;
#X connect 39 4 37 0;
#X connect 39 5 29 0;
#X restore 223 71 pd load-args;
#N canvas 591 185 771 406 create-pvocs 0;
#X obj 375 312 s \$0-player;
#X obj 420 214 + 7;
#X obj 466 211 + 8;
#X msg 375 268 obj \$4 260 pvoc~ \$5 ch\$1 \, obj \$4 285 outlet~ \,
connect \$2 0 \$3 0, f 51;
#X obj 466 186 * 2;
#X obj 375 210 + 1;
#X obj 512 193 expr 20 + 130 * $f1;
#X obj 375 241 pack float float float float \$0;
#X obj 375 159 trigger float float;
#X obj 102 39 inlet;
#X obj 375 137 loop;
#X obj 84 268 s \$0-player;
#X obj 129 170 + 7;
#X obj 175 167 + 8;
#X obj 175 142 * 2;
#X obj 84 166 + 1;
#X obj 221 149 expr 20 + 130 * $f1;
#X obj 84 197 pack float float float float \$0;
#X obj 102 69 v ch_\$0;
#X msg 84 224 obj \$4 260 r \$5-finished \, obj \$4 285 outlet \, connect
\$2 0 \$3 0, f 44;
#X obj 102 94 trigger float float float;
#X connect 1 0 7 1;
#X connect 2 0 7 2;
#X connect 3 0 0 0;
#X connect 4 0 1 0;
#X connect 4 0 2 0;
#X connect 5 0 7 0;
#X connect 6 0 7 3;
#X connect 7 0 3 0;
#X connect 8 0 5 0;
#X connect 8 1 4 0;
#X connect 8 1 6 0;
#X connect 9 0 18 0;
#X connect 10 0 8 0;
#X connect 12 0 17 1;
#X connect 13 0 17 2;
#X connect 14 0 12 0;
#X connect 14 0 13 0;
#X connect 15 0 17 0;
#X connect 16 0 17 3;
#X connect 17 0 19 0;
#X connect 18 0 20 0;
#X connect 19 0 11 0;
#X connect 20 0 15 0;
#X connect 20 1 14 0;
#X connect 20 1 16 0;
#X connect 20 2 10 0;
#X restore 152 104 pd create-pvocs;
#X obj 82 41 loadbanger -init 3, f 24;
#N canvas 1062 116 309 508 initialize 0;
#X obj 73 59 inlet;
#X obj 138 318 s \$0-file;
#X obj 125 206 r \$0-symbol_arg;
#X obj 92 232 symbol;
#X obj 156 295 symbol;
#X obj 111 294 sel s;
#X obj 113 349 r \$0-set-range;
#X obj 92 374 list;
#X obj 92 400 s \$0-range;
#X obj 92 261 t b s b;
#X obj 73 121 t b b b;
#X obj 136 122 s \$0-window_size;
#X obj 136 97 v wsize_\$0;
#X obj 112 152 v loop_\$0;
#X obj 112 176 s \$0-loop;
#X obj 73 436 s \$0-start-point;
#X connect 0 0 10 0;
#X connect 2 0 3 1;
#X connect 3 0 9 0;
#X connect 4 0 5 1;
#X connect 5 1 1 0;
#X connect 6 0 7 1;
#X connect 7 0 8 0;
#X connect 9 0 7 0;
#X connect 9 1 5 0;
#X connect 9 2 4 0;
#X connect 10 0 15 0;
#X connect 10 1 3 0;
#X connect 10 2 13 0;
#X connect 10 2 12 0;
#X connect 12 0 11 0;
#X connect 13 0 14 0;
#X restore 82 133 pd initialize;
#X connect 2 0 3 0;
#X connect 2 1 1 0;
#X connect 2 2 0 0;
#X restore 102 168 pd dynamic-patching;
#X obj 118 214 declare -path else;
#X connect 0 0 5 0;
#X connect 1 0 5 1;
#X connect 2 0 5 2;
#X restore 76 108 pd guts;
#X obj 176 108 namecanvas \$0-player;
#X text 70 169 Alexandre Torres Porres (2018) \; Part of ELSE:;
#X text 71 203 https://github.com/porres/pd-else;
#X connect 0 0 3 0;
#X connect 1 0 3 1;
#X connect 2 0 3 2;
