#N canvas 704 159 488 230 10;
#X declare -path else;
#N canvas 434 193 336 353 pvoc-freeze 0;
#X obj 75 305 outlet~;
#X obj 56 30 inlet~;
#N canvas 557 221 449 385 Freeze 0;
#X obj 82 299 outlet~;
#X obj 292 296 outlet~;
#X obj 77 19 inlet~;
#X obj 237 164 tabwrite~ \$0-front;
#X obj 77 198 tabwrite~ \$0-back;
#X obj 82 271 tabreceive~ \$0-back;
#X obj 292 269 tabreceive~ \$0-front;
#X obj 237 112 bng 25 250 50 0 empty empty empty 17 7 0 10 -228856
-1 -1;
#X obj 237 60 r \$0-freeze;
#X obj 239 227 table \$0-back 2048;
#X obj 239 206 table \$0-front 2048;
#X obj 77 131 ffdelay~ 512;
#X obj 237 87 sel 1;
#X connect 2 0 3 0;
#X connect 2 0 11 0;
#X connect 5 0 0 0;
#X connect 6 0 1 0;
#X connect 7 0 4 0;
#X connect 7 0 3 0;
#X connect 8 0 12 0;
#X connect 11 0 4 0;
#X connect 12 0 7 0;
#X restore 56 62 pd Freeze;
#X obj 75 271 /~ 3072;
#X obj 75 210 rifft~;
#X obj 44 137 rfft~;
#X obj 116 137 rfft~;
#X obj 44 112 hann~;
#X obj 116 113 hann~;
#X obj 75 238 hann~;
#X obj 179 164 r \$0-freeze;
#X obj 206 257 switch~ 2048 4;
#X obj 179 193 sel 0;
#X obj 219 228 pipe 200;
#N canvas 489 138 550 543 phase-accum 0;
#X obj 289 482 outlet~;
#X obj 393 485 outlet~;
#X obj 183 33 inlet~;
#X obj 233 33 inlet~;
#X obj 304 33 inlet~;
#X obj 358 33 inlet~;
#N canvas 324 144 529 288 phase_lock 0;
#X obj 406 127 lrshift~ 1;
#X obj 321 127 lrshift~ -1;
#X obj 303 188 +~;
#X obj 303 234 outlet~;
#X obj 301 41 inlet~;
#X obj 321 157 +~;
#X obj 158 131 lrshift~ 1;
#X obj 73 131 lrshift~ -1;
#X obj 55 198 +~;
#X obj 55 238 outlet~;
#X obj 53 45 inlet~;
#X obj 73 167 +~;
#X connect 0 0 5 1;
#X connect 1 0 5 0;
#X connect 2 0 3 0;
#X connect 4 0 0 0;
#X connect 4 0 1 0;
#X connect 4 0 2 0;
#X connect 5 0 2 1;
#X connect 6 0 11 1;
#X connect 7 0 11 0;
#X connect 8 0 9 0;
#X connect 10 0 6 0;
#X connect 10 0 7 0;
#X connect 10 0 8 0;
#X connect 11 0 8 1;
#X restore 168 243 pd phase_lock;
#N canvas 584 111 470 247 norm 0;
#X obj 305 188 outlet~;
#X obj 74 199 outlet~;
#X obj 306 41 inlet~;
#X obj 74 32 inlet~;
#X obj 74 74 expr~ if($v1 == 0 && $v2 == 0 \, 1 \, $v1) \; $v2;
#X obj 74 153 /~;
#X obj 305 153 /~;
#X obj 89 125 mag~;
#X obj 320 126 mag~;
#X connect 2 0 4 1;
#X connect 3 0 4 0;
#X connect 4 0 5 0;
#X connect 4 0 7 0;
#X connect 4 1 6 0;
#X connect 4 1 8 0;
#X connect 5 0 1 0;
#X connect 6 0 0 0;
#X connect 7 0 5 1;
#X connect 8 0 6 1;
#X restore 204 277 pd norm;
#X obj 168 182 *~;
#X obj 168 212 +~;
#X obj 197 182 *~;
#X obj 230 180 *~;
#X obj 258 176 *~;
#X obj 243 210 -~;
#X obj 289 373 *~;
#X obj 289 419 -~;
#X obj 343 379 *~;
#X obj 426 365 *~;
#X obj 393 366 *~;
#X obj 393 417 +~;
#X obj 403 452 tabsend~ \$0-im;
#X obj 297 452 tabsend~ \$0-re;
#X obj 20 76 tabreceive~ \$0-re, f 11;
#X obj 95 77 tabreceive~ \$0-im, f 11;
#X obj 66 364 table \$0-re 1024;
#X obj 66 383 table \$0-im 1024;
#X connect 2 0 8 1;
#X connect 2 0 11 1;
#X connect 3 0 10 1;
#X connect 3 0 12 1;
#X connect 4 0 14 1;
#X connect 4 0 17 1;
#X connect 5 0 16 1;
#X connect 5 0 18 1;
#X connect 6 0 7 0;
#X connect 6 1 7 1;
#X connect 7 0 14 0;
#X connect 7 0 18 0;
#X connect 7 1 16 0;
#X connect 7 1 17 0;
#X connect 8 0 9 0;
#X connect 9 0 6 0;
#X connect 10 0 9 1;
#X connect 11 0 13 0;
#X connect 12 0 13 1;
#X connect 13 0 6 1;
#X connect 14 0 15 0;
#X connect 15 0 0 0;
#X connect 15 0 21 0;
#X connect 16 0 15 1;
#X connect 17 0 19 1;
#X connect 18 0 19 0;
#X connect 19 0 1 0;
#X connect 19 0 20 0;
#X connect 22 0 8 0;
#X connect 22 0 12 0;
#X connect 23 0 10 0;
#X connect 23 0 11 0;
#X restore 55 170 pd phase-accum;
#X connect 1 0 2 0;
#X connect 2 0 7 0;
#X connect 2 1 8 0;
#X connect 3 0 0 0;
#X connect 4 0 9 0;
#X connect 5 0 14 0;
#X connect 5 1 14 1;
#X connect 6 0 14 2;
#X connect 6 1 14 3;
#X connect 7 0 5 0;
#X connect 8 0 6 0;
#X connect 9 0 3 0;
#X connect 10 0 12 0;
#X connect 12 0 13 0;
#X connect 12 1 11 0;
#X connect 13 0 11 0;
#X connect 14 0 4 0;
#X connect 14 1 4 1;
#X restore 91 99 pd pvoc-freeze;
#X obj 137 29 inlet;
#X obj 60 29 inlet~;
#X obj 60 170 outlet~;
#X obj 60 136 xfade~;
#N canvas 136 23 331 327 select 0;
#X obj 194 147 s \$0-freeze;
#X obj 88 182 expr if($f1 == 0 \, -1 \, $f1);
#X obj 88 217 f2s~ 200;
#X msg 141 95 1;
#X msg 194 95 0;
#X obj 88 69 route float freeze unfreeze;
#X obj 88 95 != 0;
#X obj 88 249 outlet~;
#X obj 88 36 inlet;
#X connect 1 0 2 0;
#X connect 2 0 7 0;
#X connect 3 0 0 0;
#X connect 3 0 1 0;
#X connect 4 0 1 0;
#X connect 4 0 0 0;
#X connect 5 0 6 0;
#X connect 5 1 3 0;
#X connect 5 2 4 0;
#X connect 6 0 1 0;
#X connect 6 0 0 0;
#X connect 8 0 5 0;
#X restore 137 136 pd select;
#X text 236 114 Part of ELSE \; https://github.com/porres/pd-else;
#X text 238 95 Alexandre Torres Porres (2018);
#X obj 265 61 declare -path else;
#X connect 0 0 4 1;
#X connect 1 0 5 0;
#X connect 2 0 0 0;
#X connect 2 0 4 0;
#X connect 4 0 3 0;
#X connect 5 0 4 2;
