#N canvas 831 122 481 281 10;
#X declare -path else;
#X obj 128 64 t f b;
#X obj 128 30 inlet;
#X obj 49 30 inlet;
#X obj 71 114 list;
#N canvas 446 420 399 347 set 0;
#X obj 57 119 args;
#X msg 180 216 1;
#X obj 218 215 sel 0;
#X obj 310 251 > 0;
#X obj 218 23 inlet;
#X obj 57 147 route bang float;
#X obj 245 258 t f f;
#X obj 245 316 outlet;
#X obj 310 275 s dir_\$0;
#X obj 245 285 abs;
#X obj 57 84 loadbanger -init 2;
#X connect 0 0 5 0;
#X connect 1 0 6 0;
#X connect 2 1 6 0;
#X connect 3 0 8 0;
#X connect 4 0 2 0;
#X connect 5 0 1 0;
#X connect 5 1 2 0;
#X connect 6 0 9 0;
#X connect 6 1 3 0;
#X connect 9 0 7 0;
#X connect 10 0 0 0;
#X connect 10 1 1 0;
#X restore 128 116 pd set;
#X obj 128 176 router;
#X obj 71 149 list split;
#X obj 161 148 r dir_\$0;
#X obj 191 200 reverse;
#X text 252 113 Part of ELSE \; https://github.com/porres/pd-else;
#X text 254 94 Alexandre Torres Porres (2017);
#X obj 281 62 declare -path else;
#X obj 49 62 route clear float bang, f 11;
#X obj 191 252 outlet;
#X obj 191 228 message;
#X connect 0 0 4 0;
#X connect 0 1 3 1;
#X connect 1 0 0 0;
#X connect 2 0 12 0;
#X connect 3 0 6 0;
#X connect 4 0 6 1;
#X connect 5 0 14 0;
#X connect 5 1 8 0;
#X connect 6 0 3 1;
#X connect 6 0 5 0;
#X connect 6 2 3 1;
#X connect 6 2 5 0;
#X connect 7 0 5 1;
#X connect 8 0 14 0;
#X connect 12 0 3 1;
#X connect 12 1 3 0;
#X connect 12 2 14 0;
#X connect 14 0 13 0;
