#N canvas 657 214 647 259 10;
#X obj 89 29 inlet;
#X text 397 130 Part of ELSE \; https://github.com/porres/pd-else;
#X text 399 111 Alexandre Torres Porres (2018);
#X msg 89 132 248;
#X msg 134 132 250;
#X msg 180 132 251;
#X msg 225 132 252;
#X msg 316 132 255;
#X msg 271 132 254;
#X obj 89 83 select clock start continue stop sensing reset;
#X obj 224 195 outlet;
#X obj 89 57 symbol;
#X connect 0 0 11 0;
#X connect 3 0 10 0;
#X connect 4 0 10 0;
#X connect 5 0 10 0;
#X connect 6 0 10 0;
#X connect 7 0 10 0;
#X connect 8 0 10 0;
#X connect 9 0 3 0;
#X connect 9 1 4 0;
#X connect 9 2 5 0;
#X connect 9 3 6 0;
#X connect 9 4 8 0;
#X connect 9 5 7 0;
#X connect 11 0 9 0;
