#N canvas 574 26 717 509 12;
#X declare -path else;
#X msg 133 202 save;
#N canvas 421 163 551 357 synth 0;
#N canvas 667 245 328 292 voice 0;
#X obj 197 96 / 127;
#X obj 179 172 *~;
#X obj 74 99 mtof;
#X obj 74 28 inlet;
#X obj 179 241 outlet~;
#X obj 74 67 unpack float float;
#X obj 179 204 /~ 3;
#X obj 74 133 bl.saw~;
#X obj 197 131 glide~ 50;
#X connect 0 0 8 0;
#X connect 1 0 6 0;
#X connect 2 0 7 0;
#X connect 3 0 5 0;
#X connect 5 0 2 0;
#X connect 5 1 0 0;
#X connect 6 0 4 0;
#X connect 7 0 1 0;
#X connect 8 0 1 1;
#X restore 74 163 pd voice;
#X obj 104 58 inlet;
#X obj 138 254 outlet~;
#X obj 261 256 outlet~;
#X text 329 167 synthesizer;
#X text 297 153 <= 3 voice polyphonic;
#X obj 138 202 plate.rev~ 50 0.6 0.25 0.8 0.8, f 18;
#N canvas 667 245 328 292 voice 0;
#X obj 197 96 / 127;
#X obj 179 172 *~;
#X obj 74 99 mtof;
#X obj 74 28 inlet;
#X obj 179 241 outlet~;
#X obj 74 67 unpack float float;
#X obj 179 204 /~ 3;
#X obj 74 133 bl.saw~;
#X obj 197 131 glide~ 50;
#X connect 0 0 8 0;
#X connect 1 0 6 0;
#X connect 2 0 7 0;
#X connect 3 0 5 0;
#X connect 5 0 2 0;
#X connect 5 1 0 0;
#X connect 6 0 4 0;
#X connect 7 0 1 0;
#X connect 8 0 1 1;
#X restore 138 163 pd voice;
#N canvas 667 245 328 292 voice 0;
#X obj 197 96 / 127;
#X obj 179 172 *~;
#X obj 74 99 mtof;
#X obj 74 28 inlet;
#X obj 179 241 outlet~;
#X obj 74 67 unpack float float;
#X obj 179 204 /~ 3;
#X obj 74 133 bl.saw~;
#X obj 197 131 glide~ 50;
#X connect 0 0 8 0;
#X connect 1 0 6 0;
#X connect 2 0 7 0;
#X connect 3 0 5 0;
#X connect 5 0 2 0;
#X connect 5 1 0 0;
#X connect 6 0 4 0;
#X connect 7 0 1 0;
#X connect 8 0 1 1;
#X restore 208 163 pd voice;
#X obj 104 121 voices 3 1, f 15;
#X connect 0 0 6 0;
#X connect 1 0 9 0;
#X connect 6 0 2 0;
#X connect 6 1 3 0;
#X connect 7 0 6 0;
#X connect 8 0 6 0;
#X connect 9 0 0 0;
#X connect 9 1 7 0;
#X connect 9 2 8 0;
#X restore 133 326 pd synth;
#X obj 133 288 pack;
#X obj 103 202 tgl 17 0 empty empty empty 17 7 0 10 #dcdcdc #000000
#000000 0 1;
#X obj 406 122 text define \$0-midi;
#X msg 422 180 line 0 \, auto;
#X obj 422 324 pack;
#X obj 422 210 text sequence \$0-midi -w 1;
#X text 517 179 <= play;
#X msg 364 181 stop;
#X obj 364 242 b;
#X obj 601 244 bng 15 250 50 0 empty empty empty 17 7 0 10 #dcdcdc
#000000 #000000;
#X obj 406 95 initmess read midi-seq.txt;
#X obj 422 244 iterate;
#X obj 422 272 panic;
#X obj 422 300 note.in;
#X obj 404 386 out~;
#X obj 440 46 declare -path else;
#X obj 133 240 midi midi-seq.mid;
#X obj 133 264 note.in;
#X obj 115 360 out~;
#N canvas 421 163 551 357 synth 0;
#N canvas 667 245 328 292 voice 0;
#X obj 197 96 / 127;
#X obj 179 172 *~;
#X obj 74 99 mtof;
#X obj 74 28 inlet;
#X obj 179 241 outlet~;
#X obj 74 67 unpack float float;
#X obj 179 204 /~ 3;
#X obj 74 133 bl.saw~;
#X obj 197 131 glide~ 50;
#X connect 0 0 8 0;
#X connect 1 0 6 0;
#X connect 2 0 7 0;
#X connect 3 0 5 0;
#X connect 5 0 2 0;
#X connect 5 1 0 0;
#X connect 6 0 4 0;
#X connect 7 0 1 0;
#X connect 8 0 1 1;
#X restore 74 163 pd voice;
#X obj 104 58 inlet;
#X obj 138 254 outlet~;
#X obj 261 256 outlet~;
#X text 329 167 synthesizer;
#X text 297 153 <= 3 voice polyphonic;
#X obj 138 202 plate.rev~ 50 0.6 0.25 0.8 0.8, f 18;
#N canvas 667 245 328 292 voice 0;
#X obj 197 96 / 127;
#X obj 179 172 *~;
#X obj 74 99 mtof;
#X obj 74 28 inlet;
#X obj 179 241 outlet~;
#X obj 74 67 unpack float float;
#X obj 179 204 /~ 3;
#X obj 74 133 bl.saw~;
#X obj 197 131 glide~ 50;
#X connect 0 0 8 0;
#X connect 1 0 6 0;
#X connect 2 0 7 0;
#X connect 3 0 5 0;
#X connect 5 0 2 0;
#X connect 5 1 0 0;
#X connect 6 0 4 0;
#X connect 7 0 1 0;
#X connect 8 0 1 1;
#X restore 138 163 pd voice;
#N canvas 667 245 328 292 voice 0;
#X obj 197 96 / 127;
#X obj 179 172 *~;
#X obj 74 99 mtof;
#X obj 74 28 inlet;
#X obj 179 241 outlet~;
#X obj 74 67 unpack float float;
#X obj 179 204 /~ 3;
#X obj 74 133 bl.saw~;
#X obj 197 131 glide~ 50;
#X connect 0 0 8 0;
#X connect 1 0 6 0;
#X connect 2 0 7 0;
#X connect 3 0 5 0;
#X connect 5 0 2 0;
#X connect 5 1 0 0;
#X connect 6 0 4 0;
#X connect 7 0 1 0;
#X connect 8 0 1 1;
#X restore 208 163 pd voice;
#X obj 104 121 voices 3 1, f 15;
#X connect 0 0 6 0;
#X connect 1 0 9 0;
#X connect 6 0 2 0;
#X connect 6 1 3 0;
#X connect 7 0 6 0;
#X connect 8 0 6 0;
#X connect 9 0 0 0;
#X connect 9 1 7 0;
#X connect 9 2 8 0;
#X restore 422 352 pd synth;
#X text 38 54 You can use [midi] to import from and export to text
files that are compatible to [text sequence]. This means you can use
[text] to create a MIDI file or that you can use [midi] to export a
MIDI file to [text]. Check the help file of [midi] \, which includes
this example., f 41;
#X connect 0 0 18 0;
#X connect 1 0 20 0;
#X connect 1 1 20 1;
#X connect 2 0 1 0;
#X connect 3 0 18 0;
#X connect 5 0 7 0;
#X connect 6 0 21 0;
#X connect 7 0 13 0;
#X connect 7 2 11 0;
#X connect 9 0 7 0;
#X connect 9 0 10 0;
#X connect 10 0 14 0;
#X connect 11 0 5 0;
#X connect 12 0 4 0;
#X connect 13 0 14 0;
#X connect 14 0 15 0;
#X connect 15 0 6 0;
#X connect 15 1 6 1;
#X connect 18 0 19 0;
#X connect 19 0 2 0;
#X connect 19 1 2 1;
#X connect 21 0 16 0;
#X connect 21 1 16 1;
