#N canvas 606 71 810 655 12;
#X declare -path else;
#X obj 311 380 *~;
#X obj 387 180 nbx 5 14 -1e+37 1e+37 0 0 empty Hz2 empty 0 -8 0 10
#dcdcdc #000000 #000000 0 256;
#X obj 311 180 nbx 5 14 -1e+37 1e+37 0 0 empty Hz1 empty 0 -8 0 10
#dcdcdc #000000 #000000 0 256;
#X obj 387 205 osc~ 90;
#X obj 311 585 out~;
#X obj 311 204 osc~ 300;
#X obj 92 241 graph~ 500 16;
#X obj 311 419 graph~ 500 17;
#X obj 387 241 graph~ 500 17;
#X text 34 40 Ring Modulation (RM):;
#X text 466 117 Another technical detail is that when the modulating
signal is negative \, then the polarity of the carrier signal is inverted!
, f 43;
#X text 35 65 Ring Modulation is a specific type of Amplitude Modulation
where both signals are unipolar and have no DC-Offset! In this case
both oscillators vary from -1 to 1 \, and there's no actual difference
between a carrier and a modulator signal., f 58;
#X text 466 50 Nevertheless \, it is common that the carrier signal
is any kind of audio signal \, such as an instrument \, and the modulator
signal is an oscillator., f 43;
#X text 591 371 -1;
#X text 597 303 0;
#X text 596 235 1;
#X text 516 552 -1;
#X text 522 484 0;
#X text 521 416 1;
#X text 69 375 -1;
#X text 75 307 0;
#X text 74 239 1;
#X obj 634 22 declare -path else;
#X connect 0 0 7 0;
#X connect 1 0 3 0;
#X connect 2 0 5 0;
#X connect 3 0 0 1;
#X connect 3 0 8 0;
#X connect 5 0 0 0;
#X connect 5 0 6 0;
#X connect 7 0 4 0;
