#N canvas 520 23 508 685 12;
#X declare -path else;
#X obj 157 497 bng 20 250 50 0 empty empty empty 17 7 0 10 #dcdcdc
#000000 #000000;
#X obj 272 467 sh~;
#X obj 272 592 out~;
#X obj 116 612 out~;
#X obj 67 429 zerocross~;
#X obj 116 497 sh~;
#X obj 157 470 trig2bang~;
#X obj 73 87 noise~;
#X obj 111 222 out~;
#X obj 111 122 sh~;
#X obj 111 183 bl.saw~;
#X obj 111 151 rescale~ 100 400;
#X obj 129 87 impulse~ 2;
#X obj 272 84 noise~;
#X obj 272 227 out~;
#X obj 272 188 bl.saw~;
#X obj 272 151 rescale~ 100 400;
#X obj 272 114 downsample~ 2;
#X obj 328 449 trig2bang~;
#X obj 272 550 bl.saw~;
#X obj 272 513 rescale~ 50 150;
#X obj 116 529 rescale~ 50 150;
#X obj 116 562 bl.saw~;
#X obj 67 397 rampnoise~ 2;
#X obj 344 29 declare -path else;
#X text 40 20 You can consider [downsample~] as a type of sample and
hold unit., f 33;
#X obj 328 418 tempo~ -on 120 100;
#X obj 83 462 white~;
#X obj 272 417 white~;
#X text 23 312 Clearly [sh~] is more maleable \, and it can be triggered
in many different ways. Use the many impulse and trigger generators
from ELSE to control it. Below we pass [white~] through a sample and
hold to get random values., f 64;
#X obj 328 476 bng 20 250 50 0 empty empty empty 17 7 0 10 #dcdcdc
#000000 #000000;
#X connect 1 0 20 0;
#X connect 4 2 5 1;
#X connect 4 2 6 0;
#X connect 5 0 21 0;
#X connect 6 0 0 0;
#X connect 7 0 9 0;
#X connect 9 0 11 0;
#X connect 10 0 8 0;
#X connect 11 0 10 0;
#X connect 12 0 9 1;
#X connect 13 0 17 0;
#X connect 15 0 14 0;
#X connect 16 0 15 0;
#X connect 17 0 16 0;
#X connect 18 0 30 0;
#X connect 19 0 2 0;
#X connect 20 0 19 0;
#X connect 21 0 22 0;
#X connect 22 0 3 0;
#X connect 23 0 4 0;
#X connect 26 0 1 1;
#X connect 26 0 18 0;
#X connect 27 0 5 0;
#X connect 28 0 1 0;
