#N canvas 268 27 969 615 12;
#X declare -path else;
#X obj 599 126 noise~;
#X obj 701 143 nbx 5 14 -1e+37 1e+37 0 0 empty empty empty 0 -8 0 10
#dcdcdc #000000 #000000 0 256;
#X obj 704 123 hsl 128 15 20 20000 0 0 empty hz empty -2 -8 0 10 #dcdcdc
#000000 #000000 0 1;
#N canvas 469 56 464 253 butterworth8 0;
#X obj 92 25 inlet;
#X obj 32 25 inlet~;
#X obj 124 106 clip 0 1;
#X obj 124 162 v r;
#X obj 124 137 expr tan($f1 * pi/2);
#X obj 124 81 expr $f1 / nyquist;
#X obj 92 51 t b f;
#X obj 32 199 outlet~;
#N canvas 68 23 333 262 biquad 0;
#X obj 37 29 inlet~;
#N canvas 594 99 531 367 coefficientes 0;
#X obj 378 248 v sign_\$0;
#X obj 50 257 pack float float float float float;
#X obj 50 82 expr $f1 + $f3 \; -sqrt($f1*$f1 + $f2*$f2) * sqrt($f3*$f3
+ $f4*$f4) * sign_\$0 \; if($f1 > 0 != $f3 > 0 \, -1 \, 1) \; $f9 \;
-$f9 * ($f5 + $f7) \; $f9 * sqrt($f5*$f5 + $f6*$f6) * sqrt($f7*$f7
+ $f8*$f8) * sign_\$0 \; if($f5 > 0 != $f7 > 0 \, -1 \, 1) \;;
#X obj 50 298 outlet;
#X obj 50 47 inlet;
#X connect 1 0 3 0;
#X connect 2 0 1 0;
#X connect 2 1 1 1;
#X connect 2 2 0 0;
#X connect 2 3 1 2;
#X connect 2 4 1 3;
#X connect 2 5 1 4;
#X connect 2 6 0 0;
#X connect 4 0 2 0;
#X restore 89 113 pd coefficientes;
#X obj 89 160 biquad~;
#X obj 89 188 outlet~;
#N canvas 68 23 613 365 polos-zeros 0;
#X obj 240 158 * -1;
#X obj 305 216 expr (pow($f1-1 \, 2) + pow($f2 \, 2)) / 4;
#X obj 112 240 pack float float float float;
#X obj 88 40 inlet;
#X obj 393 127 v theta;
#X obj 112 307 outlet;
#X obj 88 74 expr (1 - r*r) / (1 + r*r + 2*r*cos(theta)) \; 2*r*sin(theta)
/ (1 + r*r + 2*r*cos(theta)) \; pi/2 * (1/8.);
#X text 401 71 re;
#X text 402 90 im;
#X msg 112 274 \$1 \$2 \$1 \$3 -1 0 -1 0 \$4;
#X obj 88 136 t f f;
#X text 534 236 gain;
#X text 275 158 conjugate;
#X connect 0 0 2 2;
#X connect 1 0 2 3;
#X connect 2 0 9 0;
#X connect 3 0 6 0;
#X connect 6 0 10 0;
#X connect 6 1 0 0;
#X connect 6 1 1 1;
#X connect 6 1 2 1;
#X connect 6 2 4 0;
#X connect 9 0 5 0;
#X connect 10 0 2 0;
#X connect 10 1 1 0;
#X restore 89 85 pd polos-zeros;
#X obj 89 29 inlet;
#X obj 205 188 outlet;
#X obj 89 58 trigger bang bang;
#X connect 0 0 2 0;
#X connect 1 0 2 0;
#X connect 2 0 3 0;
#X connect 4 0 1 0;
#X connect 5 0 7 0;
#X connect 7 0 4 0;
#X connect 7 1 6 0;
#X restore 32 79 pd biquad;
#N canvas 68 23 333 262 biquad 0;
#X obj 37 29 inlet~;
#N canvas 594 99 531 367 coefficientes 0;
#X obj 378 248 v sign_\$0;
#X obj 50 257 pack float float float float float;
#X obj 50 82 expr $f1 + $f3 \; -sqrt($f1*$f1 + $f2*$f2) * sqrt($f3*$f3
+ $f4*$f4) * sign_\$0 \; if($f1 > 0 != $f3 > 0 \, -1 \, 1) \; $f9 \;
-$f9 * ($f5 + $f7) \; $f9 * sqrt($f5*$f5 + $f6*$f6) * sqrt($f7*$f7
+ $f8*$f8) * sign_\$0 \; if($f5 > 0 != $f7 > 0 \, -1 \, 1) \;;
#X obj 50 298 outlet;
#X obj 50 47 inlet;
#X connect 1 0 3 0;
#X connect 2 0 1 0;
#X connect 2 1 1 1;
#X connect 2 2 0 0;
#X connect 2 3 1 2;
#X connect 2 4 1 3;
#X connect 2 5 1 4;
#X connect 2 6 0 0;
#X connect 4 0 2 0;
#X restore 89 113 pd coefficientes;
#X obj 89 160 biquad~;
#X obj 89 188 outlet~;
#X obj 89 29 inlet;
#X obj 205 188 outlet;
#X obj 89 58 trigger bang bang;
#N canvas 68 23 585 364 polos-zeros 0;
#X obj 218 158 * -1;
#X obj 273 215 expr (pow($f1-1 \, 2) + pow($f2 \, 2)) / 4;
#X obj 108 240 pack float float float float;
#X obj 88 40 inlet;
#X obj 349 127 v theta;
#X obj 108 307 outlet;
#X text 253 158 conjugado;
#X text 362 74 re;
#X text 363 88 im;
#X text 515 214 ganho;
#X msg 108 274 \$1 \$2 \$1 \$3 -1 0 -1 0 \$4;
#X obj 88 136 t f f;
#X obj 88 74 expr (1 - r*r) / (1 + r*r + 2*r*cos(theta)) \; 2*r*sin(theta)
/ (1 + r*r + 2*r*cos(theta)) \; pi/2 * (3/8.);
#X connect 0 0 2 2;
#X connect 1 0 2 3;
#X connect 2 0 10 0;
#X connect 3 0 12 0;
#X connect 10 0 5 0;
#X connect 11 0 2 0;
#X connect 11 1 1 0;
#X connect 12 0 11 0;
#X connect 12 1 0 0;
#X connect 12 1 1 1;
#X connect 12 1 2 1;
#X connect 12 2 4 0;
#X restore 89 84 pd polos-zeros;
#X connect 0 0 2 0;
#X connect 1 0 2 0;
#X connect 2 0 3 0;
#X connect 4 0 6 0;
#X connect 6 0 7 0;
#X connect 6 1 5 0;
#X connect 7 0 1 0;
#X restore 32 107 pd biquad;
#N canvas 53 23 333 262 biquad 0;
#X obj 37 29 inlet~;
#N canvas 594 99 531 367 coefficientes 0;
#X obj 378 248 v sign_\$0;
#X obj 50 257 pack float float float float float;
#X obj 50 82 expr $f1 + $f3 \; -sqrt($f1*$f1 + $f2*$f2) * sqrt($f3*$f3
+ $f4*$f4) * sign_\$0 \; if($f1 > 0 != $f3 > 0 \, -1 \, 1) \; $f9 \;
-$f9 * ($f5 + $f7) \; $f9 * sqrt($f5*$f5 + $f6*$f6) * sqrt($f7*$f7
+ $f8*$f8) * sign_\$0 \; if($f5 > 0 != $f7 > 0 \, -1 \, 1) \;;
#X obj 50 298 outlet;
#X obj 50 47 inlet;
#X connect 1 0 3 0;
#X connect 2 0 1 0;
#X connect 2 1 1 1;
#X connect 2 2 0 0;
#X connect 2 3 1 2;
#X connect 2 4 1 3;
#X connect 2 5 1 4;
#X connect 2 6 0 0;
#X connect 4 0 2 0;
#X restore 89 113 pd coefficientes;
#X obj 89 160 biquad~;
#X obj 89 188 outlet~;
#X obj 89 29 inlet;
#X obj 205 188 outlet;
#X obj 89 58 trigger bang bang;
#N canvas 51 23 585 364 polos-zeros 0;
#X obj 218 158 * -1;
#X obj 273 215 expr (pow($f1-1 \, 2) + pow($f2 \, 2)) / 4;
#X obj 108 240 pack float float float float;
#X obj 88 40 inlet;
#X obj 349 127 v theta;
#X obj 108 307 outlet;
#X text 253 158 conjugado;
#X text 362 74 re;
#X text 363 88 im;
#X text 515 214 ganho;
#X msg 108 274 \$1 \$2 \$1 \$3 -1 0 -1 0 \$4;
#X obj 88 136 t f f;
#X obj 88 74 expr (1 - r*r) / (1 + r*r + 2*r*cos(theta)) \; 2*r*sin(theta)
/ (1 + r*r + 2*r*cos(theta)) \; pi/2 * (5/8.);
#X connect 0 0 2 2;
#X connect 1 0 2 3;
#X connect 2 0 10 0;
#X connect 3 0 12 0;
#X connect 10 0 5 0;
#X connect 11 0 2 0;
#X connect 11 1 1 0;
#X connect 12 0 11 0;
#X connect 12 1 0 0;
#X connect 12 1 1 1;
#X connect 12 1 2 1;
#X connect 12 2 4 0;
#X restore 89 83 pd polos-zeros;
#X connect 0 0 2 0;
#X connect 1 0 2 0;
#X connect 2 0 3 0;
#X connect 4 0 6 0;
#X connect 6 0 7 0;
#X connect 6 1 5 0;
#X connect 7 0 1 0;
#X restore 32 139 pd biquad;
#N canvas 53 23 333 262 biquad 0;
#X obj 37 29 inlet~;
#N canvas 594 99 531 367 coefficientes 0;
#X obj 378 248 v sign_\$0;
#X obj 50 257 pack float float float float float;
#X obj 50 82 expr $f1 + $f3 \; -sqrt($f1*$f1 + $f2*$f2) * sqrt($f3*$f3
+ $f4*$f4) * sign_\$0 \; if($f1 > 0 != $f3 > 0 \, -1 \, 1) \; $f9 \;
-$f9 * ($f5 + $f7) \; $f9 * sqrt($f5*$f5 + $f6*$f6) * sqrt($f7*$f7
+ $f8*$f8) * sign_\$0 \; if($f5 > 0 != $f7 > 0 \, -1 \, 1) \;;
#X obj 50 298 outlet;
#X obj 50 47 inlet;
#X connect 1 0 3 0;
#X connect 2 0 1 0;
#X connect 2 1 1 1;
#X connect 2 2 0 0;
#X connect 2 3 1 2;
#X connect 2 4 1 3;
#X connect 2 5 1 4;
#X connect 2 6 0 0;
#X connect 4 0 2 0;
#X restore 89 113 pd coefficientes;
#X obj 89 160 biquad~;
#X obj 89 188 outlet~;
#X obj 89 29 inlet;
#N canvas 51 23 585 364 polos-zeros 0;
#X obj 218 158 * -1;
#X obj 273 215 expr (pow($f1-1 \, 2) + pow($f2 \, 2)) / 4;
#X obj 108 240 pack float float float float;
#X obj 88 40 inlet;
#X obj 349 127 v theta;
#X obj 108 307 outlet;
#X text 253 158 conjugado;
#X text 362 74 re;
#X text 363 88 im;
#X text 515 214 ganho;
#X msg 108 274 \$1 \$2 \$1 \$3 -1 0 -1 0 \$4;
#X obj 88 136 t f f;
#X obj 88 74 expr (1 - r*r) / (1 + r*r + 2*r*cos(theta)) \; 2*r*sin(theta)
/ (1 + r*r + 2*r*cos(theta)) \; pi/2 * (7/8.);
#X connect 0 0 2 2;
#X connect 1 0 2 3;
#X connect 2 0 10 0;
#X connect 3 0 12 0;
#X connect 10 0 5 0;
#X connect 11 0 2 0;
#X connect 11 1 1 0;
#X connect 12 0 11 0;
#X connect 12 1 0 0;
#X connect 12 1 1 1;
#X connect 12 1 2 1;
#X connect 12 2 4 0;
#X restore 89 76 pd polos-zeros;
#X connect 0 0 2 0;
#X connect 1 0 2 0;
#X connect 2 0 3 0;
#X connect 4 0 5 0;
#X connect 5 0 1 0;
#X restore 32 167 pd biquad;
#X obj 300 104 pi;
#X obj 300 133 v pi;
#X obj 348 92 samplerate~;
#X obj 348 116 / 2;
#X obj 348 67 loadbang;
#X obj 348 141 v nyquist;
#X connect 0 0 6 0;
#X connect 1 0 8 0;
#X connect 2 0 4 0;
#X connect 4 0 3 0;
#X connect 5 0 2 0;
#X connect 6 0 8 1;
#X connect 6 1 5 0;
#X connect 8 0 9 0;
#X connect 8 1 9 1;
#X connect 9 0 10 0;
#X connect 9 1 10 1;
#X connect 10 0 11 0;
#X connect 10 1 11 1;
#X connect 11 0 7 0;
#X connect 12 0 13 0;
#X connect 14 0 15 0;
#X connect 15 0 17 0;
#X connect 16 0 14 0;
#X restore 599 172 pd butterworth8;
#X obj 792 189 loadbang;
#X msg 792 218 \; hz 2000;
#X text 680 142 Hz;
#X text 737 122 cutoff;
#X text 229 151 3 poles = (0 & 2/3) * pi/2 \; 4 poles = (1/4 & 3/4)
* pi/2 \; 5 poles = (0 \, 2/5 \, 4/5) * pi/2 \; 6 poles = (1/6 \, 3/6
& 5/6) * pi/2;
#X text 500 58 For an 8th order lowpass \, we have the angles (1/8
\, 3/8 \, 5/8 & 7/8) * pi/2 - let's implement this with [biquad~] objects.
We could use [cpole~] instead (see H13.butterworth).;
#X obj 515 373 noise~;
#X obj 575 388 nbx 5 14 -1e+37 1e+37 0 0 empty empty empty 0 -8 0 10
#dcdcdc #000000 #000000 0 256;
#X obj 528 452 out~;
#X obj 578 364 hsl 128 15 100 22000 1 0 empty empty empty -2 -8 0 10
#dcdcdc #000000 #000000 0 1;
#X text 632 387 cuttof;
#X obj 743 373 noise~;
#X obj 801 388 nbx 5 14 -1e+37 1e+37 0 0 empty empty empty 0 -8 0 10
#dcdcdc #000000 #000000 0 256;
#X obj 751 452 out~;
#X obj 804 364 hsl 128 15 100 22000 1 0 empty empty empty -2 -8 0 10
#dcdcdc #000000 #000000 0 1;
#X text 858 387 cuttof;
#X obj 751 415 hip.bw~ 1500 10;
#X text 510 283 The ELSE library includes butterworth filters \, they
are: [lop.bw~] (lowpass) and [hip.bw~] (highpass). They are an abstraction
that depend on the [biquads~] object \, also from ELSE. Open help files
for more details.;
#X obj 774 24 declare -path else;
#X obj 599 213 out~;
#N canvas 299 23 985 489 filter-response 0;
#X text 45 46 hz;
#X text 120 45 order;
#X obj 114 65 nbx 5 14 1 16 0 0 empty \$0-order empty 0 -8 0 10 #dcdcdc
#000000 #000000 0 256;
#X obj 40 66 nbx 5 14 -1e+37 1e+37 0 0 empty empty empty 0 -8 0 10
#dcdcdc #000000 #000000 0 256;
#X obj 40 170 biplot;
#X obj 43 23 hsl 128 15 20 22000 1 0 empty \$0-freq empty -2 -8 0 10
#dcdcdc #000000 #000000 0 1;
#N canvas 172 344 498 356 lowpass 0;
#X obj 178 40 inlet;
#X obj 120 282 outlet;
#N canvas 187 126 370 393 r 0;
#X obj 75 178 t b f;
#X obj 90 100 pi 0.5;
#X obj 23 103 clip 0 1;
#X obj 23 75 /;
#X obj 63 74 t f b;
#X obj 75 132 *;
#X obj 75 154 tan;
#X obj 112 131 v half_pi_\$0;
#X obj 23 15 inlet;
#X obj 75 212 outlet;
#X obj 128 174 v r;
#X obj 63 48 nyquist~;
#X connect 0 0 9 0;
#X connect 0 1 10 0;
#X connect 1 0 5 1;
#X connect 1 0 7 0;
#X connect 2 0 5 0;
#X connect 3 0 2 0;
#X connect 4 0 3 1;
#X connect 4 1 1 0;
#X connect 5 0 6 0;
#X connect 6 0 0 0;
#X connect 8 0 3 0;
#X connect 11 0 4 0;
#X restore 120 159 pd r;
#N canvas 210 422 464 345 coeffs 0;
#X obj 64 19 inlet;
#X text 400 83 re;
#X text 400 94 im;
#X text 148 115 gain;
#X obj 256 114 v re;
#X obj 391 114 v im;
#X obj 121 115 v g;
#X obj 121 61 expr (pow(re - 1 \, 2) + pow(im \, 2)) / 4 \; (1 - r*r)
/ (1 + r*r + r*2*cos(phi)) \; r*2*sin(phi) / (1 + r*r + r*2*cos(phi))
;
#X obj 120 239 pack f f f f f;
#X obj 64 148 expr 2 * re \; -pow(sqrt(re*re + im*im) \, 2) \; g \;
2 * g \; g, f 30;
#X obj 120 302 outlet;
#X obj 64 83 t b b;
#X obj 120 268 insert append;
#X connect 0 0 11 0;
#X connect 7 0 6 0;
#X connect 7 1 4 0;
#X connect 7 2 5 0;
#X connect 8 0 12 0;
#X connect 9 0 8 0;
#X connect 9 1 8 1;
#X connect 9 2 8 2;
#X connect 9 3 8 3;
#X connect 9 4 8 4;
#X connect 11 0 9 0;
#X connect 11 1 7 0;
#X connect 12 0 10 0;
#X restore 120 208 pd coeffs;
#N canvas 265 246 317 280 phi 0;
#X obj 62 18 inlet;
#X obj 62 156 expr ($f1 / order_\$0) * half_pi_\$0;
#X obj 62 245 outlet;
#X obj 62 184 trigger bang float;
#X obj 167 209 v phi;
#X obj 62 53 expr even_\$0 \; order_\$0;
#X obj 62 128 loop -step 2;
#X obj 62 96 pack float float;
#X connect 0 0 5 0;
#X connect 1 0 3 0;
#X connect 3 0 2 0;
#X connect 3 1 4 0;
#X connect 5 0 7 0;
#X connect 5 1 7 1;
#X connect 6 0 1 0;
#X connect 7 0 6 0;
#X restore 120 184 pd phi;
#X obj 120 248 list store;
#X obj 41 129 trigger bang float bang;
#X obj 226 158 v even_\$0;
#X obj 391 153 v order_\$0;
#X obj 208 82 hot;
#X obj 226 40 inlet;
#X obj 226 113 expr 1 - (order_\$0 % 2) \; $f1;
#X connect 0 0 9 0;
#X connect 2 0 4 0;
#X connect 3 0 5 0;
#X connect 4 0 3 0;
#X connect 5 0 1 0;
#X connect 6 0 5 0;
#X connect 6 1 2 0;
#X connect 6 2 5 1;
#X connect 9 0 6 0;
#X connect 9 1 11 0;
#X connect 10 0 9 1;
#X connect 11 0 7 0;
#X connect 11 1 8 0;
#X restore 40 99 pd lowpass;
#X f 11;
#X text 245 46 hz;
#X text 320 45 order;
#X obj 240 66 nbx 5 14 -1e+37 1e+37 0 0 empty empty empty 0 -8 0 10
#dcdcdc #000000 #000000 0 256;
#N canvas 172 344 514 321 highpass 0;
#X obj 162 26 inlet;
#X obj 121 268 outlet;
#N canvas 187 126 370 393 r 0;
#X obj 75 178 t b f;
#X obj 90 100 pi 0.5;
#X obj 23 103 clip 0 1;
#X obj 23 75 /;
#X obj 63 74 t f b;
#X obj 75 132 *;
#X obj 75 154 tan;
#X obj 112 131 v half_pi_\$0;
#X obj 23 15 inlet;
#X obj 75 212 outlet;
#X obj 128 174 v r;
#X obj 63 48 nyquist~;
#X connect 0 0 9 0;
#X connect 0 1 10 0;
#X connect 1 0 5 1;
#X connect 1 0 7 0;
#X connect 2 0 5 0;
#X connect 3 0 2 0;
#X connect 4 0 3 1;
#X connect 4 1 1 0;
#X connect 5 0 6 0;
#X connect 6 0 0 0;
#X connect 8 0 3 0;
#X connect 11 0 4 0;
#X restore 121 145 pd r;
#N canvas 210 422 464 345 coeffs 0;
#X obj 64 19 inlet;
#X text 400 83 re;
#X text 400 94 im;
#X text 148 115 gain;
#X obj 256 114 v re;
#X obj 391 114 v im;
#X obj 121 115 v g;
#X obj 120 239 pack f f f f f;
#X obj 120 302 outlet;
#X obj 64 83 t b b;
#X obj 121 61 expr (pow(re + 1 \, 2) + pow(im \, 2)) / 4 \; (1 - r*r)
/ (1 + r*r + r*2*cos(phi)) \; r*2*sin(phi) / (1 + r*r + r*2*cos(phi))
;
#X obj 64 148 expr 2 * re \; -pow(sqrt(re*re + im*im) \, 2) \; g \;
-2 * g \; g, f 30;
#X obj 120 269 insert append;
#X connect 0 0 9 0;
#X connect 7 0 12 0;
#X connect 9 0 11 0;
#X connect 9 1 10 0;
#X connect 10 0 6 0;
#X connect 10 1 4 0;
#X connect 10 2 5 0;
#X connect 11 0 7 0;
#X connect 11 1 7 1;
#X connect 11 2 7 2;
#X connect 11 3 7 3;
#X connect 11 4 7 4;
#X connect 12 0 8 0;
#X restore 121 194 pd coeffs;
#N canvas 265 246 317 280 phi 0;
#X obj 62 18 inlet;
#X obj 62 156 expr ($f1 / order_\$0) * half_pi_\$0;
#X obj 62 245 outlet;
#X obj 62 184 trigger bang float;
#X obj 167 209 v phi;
#X obj 62 53 expr even_\$0 \; order_\$0;
#X obj 62 128 loop -step 2;
#X obj 62 96 pack float float;
#X connect 0 0 5 0;
#X connect 1 0 3 0;
#X connect 3 0 2 0;
#X connect 3 1 4 0;
#X connect 5 0 7 0;
#X connect 5 1 7 1;
#X connect 6 0 1 0;
#X connect 7 0 6 0;
#X restore 121 170 pd phi;
#X obj 121 234 list store;
#X obj 42 115 trigger bang float bang;
#X obj 226 26 inlet;
#X obj 227 146 v even_\$0;
#X obj 392 141 v order_\$0;
#X obj 209 70 hot;
#X obj 227 101 expr 1 - (order_\$0 % 2) \; $f1;
#X connect 0 0 10 0;
#X connect 2 0 4 0;
#X connect 3 0 5 0;
#X connect 4 0 3 0;
#X connect 5 0 1 0;
#X connect 6 0 5 0;
#X connect 6 1 2 0;
#X connect 6 2 5 1;
#X connect 7 0 10 1;
#X connect 10 0 6 0;
#X connect 10 1 11 0;
#X connect 11 0 8 0;
#X connect 11 1 9 0;
#X restore 240 99 pd highpass;
#X text 433 42 To the left \, we have subopatches based on the abstractions
of the [lop.bw~] and [hip.bw~]. We get the output that goes to [biquads~]
and use it to plot the frequency response with [biplot]., f 45;
#X obj 243 23 hsl 128 15 20 22000 1 0 empty \$0-freq empty -2 -8 0
10 #dcdcdc #000000 #000000 0 1;
#X obj 314 65 nbx 5 14 1 16 0 0 empty \$0-order empty 0 -8 0 10 #dcdcdc
#000000 #000000 0 256;
#X obj 821 50 initmess \; \$0-order 8 \; \$0-freq 500;
#X connect 2 0 6 1;
#X connect 3 0 6 0;
#X connect 5 0 3 0;
#X connect 6 0 4 0;
#X connect 9 0 10 0;
#X connect 10 0 4 0;
#X connect 12 0 9 0;
#X connect 13 0 10 1;
#X restore 768 559 pd filter-response;
#X obj 528 415 lop.bw~ 500 10;
#X text 554 546 Check the frequency response in the following subpach
====>, f 30;
#X text 37 19 There are different filter topologies and their differences
are more relevant for high order filters. "Bessel" has a phase response
as flat as possible. "Chebyshev" has ripples in the frequency response
\, and "Butterworth" has a flat frequency response \, so it's desired
for filters like [brickwall~] from ELSE \, which is a 10th order lowpass
filter. This filter has a steep decay after the cutoff frequency \,
but a flat response up to the cutoff. This filter's poles are distributed
in angles that depend on the number of poles like this:;
#X text 43 230 Here's a picture from miller puckette's book (Figure
8.17) that plots the poles of a 4 pole butterworth filter (for a lowpass
\, the zeros are at -1). The "r" parameter depends on the cutoff frequency.
;
#X obj 83 199 brickwall~;
#X text 80 173 see:;
#X obj 44 304 pic 0 ./files/butterw.gif empty empty 0 0;
#X connect 0 0 3 0;
#X connect 1 0 3 1;
#X connect 2 0 1 0;
#X connect 3 0 23 0;
#X connect 4 0 5 0;
#X connect 10 0 25 0;
#X connect 11 0 25 1;
#X connect 13 0 11 0;
#X connect 15 0 20 0;
#X connect 16 0 20 1;
#X connect 18 0 16 0;
#X connect 20 0 17 0;
#X connect 25 0 12 0;
