#N struct 1003-DS float x float y array 1003-table 1003-element;
#N struct 1003-element float y;
#N canvas 361 46 520 606 12;
#X obj 421 387 pointer;
#N canvas 689 169 474 279 template 0;
#X text 71 175 The drawing instructions for the array., f 47;
#X obj 190 204 plot \$0-table 900 2 0 0 20;
#X obj 60 118 struct \$0-DS float x float y array \$0-table \$0-element
;
#X text 64 38 Data Structure named "\$0-DS" holding coordinates floats
"x/y" and an array named "table" using the element struct named "\$0-element"
defined in the other subpatch., f 53;
#X restore 356 259 pd template;
#X obj 190 378 nbx 3 16 0 15 0 0 empty empty empty 0 -8 0 12 #dcdcdc
#000000 #000000 0 256;
#X obj 97 378 nbx 4 16 -100 100 0 0 empty empty empty 0 -8 0 12 #dcdcdc
#000000 #000000 0 256;
#X text 188 354 index;
#X text 98 355 value;
#X floatatom 119 550 5 0 0 0 - - - 0;
#X obj 79 481 bng 17 250 50 0 empty empty empty 17 7 0 10 #dcdcdc #000000
#000000;
#X text 38 472 get size, f 4;
#X text 328 520 <= get/set size;
#X text 57 375 set:;
#X text 160 482 <= sets size;
#X obj 312 418 append \$0-DS x y;
#X obj 119 519 array size -s \$0-DS \$0-table;
#X obj 97 408 array set -s \$0-DS \$0-table;
#N canvas 965 238 334 221 \$0-display 1;
#X scalar 1003-DS 10 105 \; 2 \; 3 \; -6 \; -13 \; -15 \; -13 \; -4
\; 14 \; 29 \; 32 \; 19 \; 37 \; 45 \; 26 \; 18 \; 36 \; \;;
#X coords 0 221 1 220 0 0 0;
#X restore 356 285 pd \$0-display;
#X obj 421 356 r \$0-pointer;
#X obj 312 375 r \$0-coords;
#X obj 119 454 r \$0-size;
#X obj 53 232 initmess \; pd-\$0-display clear \, vis 1 \; \$0-pointer
traverse pd-\$0-display \, bang \; \$0-coords 10 105 \; \$0-size 16
;
#N canvas 279 241 508 321 \$0-element 0;
#X obj 85 217 filledpolygon 0 0 1 -2 -2 2 -2 2 2 -2 2;
#X text 82 187 draw a black dot to represent the value:;
#X obj 85 264 drawnumber y;
#X text 186 264 draw instruction for the element;
#X obj 160 139 struct \$0-element float y;
#X text 33 42 Element of the array defined as a struct of name "\$0-element"
containing only a float named "y". Since this is also the special variable
name for the vertical coordinate \, this means you can drag this element
vertically \, as in Pd's arrays., f 61;
#X restore 356 233 pd \$0-element;
#X floatatom 119 481 5 0 0 0 - - - 0;
#X text 77 14 Besides [setsize] and [getsize] \, you can use the [array]
object to set/get the size and \, additionally \, do all sorts of operations
in a Data Structure array (as well with other regular arrays in Pd).
, f 57;
#X text 90 141 Check in [pd \$0-element] that we also added now a drawing
instruction for the float element itself., f 49;
#X text 77 80 In the case of arrays composed only of floats \, [array]
eliminates the need of the [element] and [set] objects.;
#X connect 0 0 12 2;
#X connect 2 0 14 1;
#X connect 3 0 14 0;
#X connect 7 0 13 0;
#X connect 12 0 13 1;
#X connect 12 0 14 2;
#X connect 13 0 6 0;
#X connect 16 0 0 0;
#X connect 17 0 12 0;
#X connect 18 0 21 0;
#X connect 21 0 13 0;
