#N canvas 359 64 958 441 12;
#X declare -path else;
#X obj 726 58 hsl 128 15 0.001 100 1 0 empty empty empty -2 -8 0 10
#dcdcdc #000000 #000000 0 1;
#X obj 565 48 noise~;
#X obj 723 82 nbx 5 14 0.001 100 0 0 \$0-Q empty empty 0 -8 0 10 #dcdcdc
#000000 #000000 0 256;
#X obj 644 59 nbx 5 14 20 20000 0 0 \$0-Hz empty empty 0 -8 0 10 #dcdcdc
#000000 #000000 0 256;
#X text 747 56 resonance (Q);
#X obj 565 118 +~;
#X obj 583 87 allpass.2nd~ 750 1;
#N canvas 263 226 1048 355 (subpatch) 0;
#X obj 491 257 cnv 15 15 15 empty empty Kilohertz 18 9 1 16 #fcfcfc
#000000 0;
#X obj 160 205 cnv 15 798 27 empty empty empty 20 12 0 14 #f8f8f8 #404040
0;
#X obj 160 149 cnv 15 798 27 empty empty empty 20 12 0 14 #f8f8f8 #404040
0;
#X obj 160 177 cnv 15 798 27 empty empty empty 20 12 0 14 #e8e8ec #404040
0;
#X obj 160 121 cnv 15 798 27 empty empty empty 20 12 0 14 #e8e8ec #404040
0;
#N canvas 391 118 975 563 (subpatch) 0;
#X array \$0-phase 400 float 0;
#X coords 0 1 399 -1 800 111 1 0 0;
#X restore 159 121 graph;
#X text 264 235 0.05;
#X text 164 235 0.02;
#X text 865 234 10;
#X text 942 235 20;
#X text 790 234 5;
#X text 687 234 2;
#X text 609 235 1;
#X text 523 235 0.5;
#X text 421 235 0.2;
#X text 341 235 0.1;
#N canvas 0 22 450 278 (subpatch) 0;
#X coords 0 1 100 -1 77 111 1 0 0;
#X restore 277 121 graph;
#N canvas 0 22 450 278 (subpatch) 0;
#X coords 0 1 100 -1 80 111 1 0 0;
#X restore 354 121 graph;
#N canvas 0 22 450 278 (subpatch) 0;
#X coords 0 1 100 -1 102 111 1 0 0;
#X restore 434 121 graph;
#N canvas 0 22 450 278 (subpatch) 0;
#X coords 0 1 100 -1 78 111 1 0 0;
#X restore 536 121 graph;
#N canvas 0 22 450 278 (subpatch) 0;
#X coords 0 1 100 -1 78 111 1 0 0;
#X restore 614 121 graph;
#N canvas 0 22 450 278 (subpatch) 0;
#X coords 0 1 100 -1 103 111 1 0 0;
#X restore 692 121 graph;
#N canvas 0 22 450 278 (subpatch) 0;
#X coords 0 1 100 -1 78 111 1 0 0;
#X restore 795 121 graph;
#N canvas 0 22 450 278 (subpatch) 0;
#X coords 0 1 100 -1 78 111 1 0 0;
#X restore 873 121 graph;
#X obj 105 167 cnv 15 15 15 empty empty Phase 0 0 1 17 #fcfcfc #000000
0;
#X text 961 223 -pi;
#X text 963 167 0;
#X text 964 118 pi;
#X obj 112 187 cnv 15 15 15 empty empty rad 0 0 1 17 #fcfcfc #000000
0;
#X coords 0 -1 1 1 895 178 2 100 100;
#X restore 41 220 pd;
#N canvas 888 277 425 398 plot 0;
#N canvas 777 371 467 366 init 0;
#X obj 90 24 loadbang;
#X obj 176 274 s \$0-dbrange;
#X obj 266 72 v sr_\$0;
#X msg 214 212 400;
#X msg 176 241 24;
#X obj 257 151 v midi_range_\$0;
#X obj 257 125 ftom;
#X msg 257 99 8750.55;
#X obj 249 210 v pi_\$0;
#N canvas 760 51 502 549 get-freq 0;
#X msg 211 218 resize \$1;
#X obj 88 66 change;
#X obj 230 157 v table_size_\$0;
#X obj 88 99 trigger bang float;
#X obj 211 192 change 400;
#X obj 88 29 inlet;
#N canvas 192 80 935 668 loop 0;
#X obj 106 192 until;
#X obj 144 241 + 1;
#X msg 124 216 0;
#X obj 106 95 t f f;
#X obj 483 216 until;
#X obj 529 265 + 1;
#X msg 501 241 0;
#X obj 106 270 t f f;
#X obj 211 355 +;
#X obj 106 370 mtof;
#X obj 106 144 t f b f;
#X obj 483 191 t f b f;
#X obj 483 326 /;
#X obj 106 31 inlet;
#X obj 106 574 outlet;
#X obj 259 583 outlet;
#X obj 483 144 expr table_size_\$0 - $f1;
#X obj 483 265 f;
#X obj 483 379 expr pow($f1 \, 0.4);
#X obj 106 241 f;
#X obj 483 296 trigger f f;
#X obj 106 63 expr rint(table_size_\$0 * 0.98);
#X obj 483 407 * 20.6017;
#X text 556 407 MIDI 16;
#X obj 106 298 expr (($f1 + 1) * (midi_range_\$0 / $f2)) + 16;
#X obj 106 465 expr $f1 * (2 * pi_\$0) / 44100;
#X obj 483 498 expr $f1 * (2 * pi_\$0) / 44100;
#X connect 0 0 19 0;
#X connect 1 0 19 1;
#X connect 2 0 19 1;
#X connect 3 0 10 0;
#X connect 3 1 16 0;
#X connect 4 0 17 0;
#X connect 5 0 17 1;
#X connect 6 0 17 1;
#X connect 7 0 24 0;
#X connect 7 1 8 0;
#X connect 8 0 15 0;
#X connect 9 0 25 0;
#X connect 10 0 0 0;
#X connect 10 1 2 0;
#X connect 10 2 24 1;
#X connect 11 0 4 0;
#X connect 11 1 6 0;
#X connect 11 2 12 1;
#X connect 12 0 18 0;
#X connect 13 0 21 0;
#X connect 16 0 8 1;
#X connect 16 0 11 0;
#X connect 17 0 5 0;
#X connect 17 0 20 0;
#X connect 18 0 22 0;
#X connect 19 0 1 0;
#X connect 19 0 7 0;
#X connect 20 0 12 0;
#X connect 20 1 15 0;
#X connect 21 0 3 0;
#X connect 22 0 26 0;
#X connect 24 0 9 0;
#X connect 25 0 14 0;
#X connect 26 0 14 0;
#X restore 88 129 pd loop;
#X obj 211 257 s freq_\$0;
#X obj 73 280 expr cos($f1) \; sin($f1) \; cos($f1 * 2) \; sin($f1
* 2) \; $f2;
#X obj 66 433 tabwrite sinW_\$0;
#X obj 99 461 tabwrite cos2W_\$0;
#X obj 35 397 tabwrite cosW_\$0;
#X obj 131 492 tabwrite sin2W_\$0;
#X connect 0 0 7 0;
#X connect 1 0 3 0;
#X connect 3 0 6 0;
#X connect 3 1 2 0;
#X connect 3 1 4 0;
#X connect 4 0 0 0;
#X connect 5 0 1 0;
#X connect 6 0 8 0;
#X connect 6 1 8 1;
#X connect 8 0 11 0;
#X connect 8 1 9 0;
#X connect 8 2 10 0;
#X connect 8 3 12 0;
#X connect 8 4 9 1;
#X connect 8 4 10 1;
#X connect 8 4 11 1;
#X connect 8 4 12 1;
#X restore 214 240 pd get-freq;
#X obj 26 255 table sin2W_\$0 400;
#X obj 26 238 table cos2W_\$0 400;
#X obj 27 205 table sinW_\$0 400;
#X obj 27 188 table cosW_\$0 400;
#X obj 249 182 pi;
#X obj 90 126 s \$0-Q;
#X obj 52 151 s \$0-Hz;
#X msg 90 99 1;
#X msg 52 124 750;
#X obj 90 59 trigger bang bang bang;
#X obj 266 49 samplerate~;
#X connect 0 0 19 0;
#X connect 3 0 9 0;
#X connect 4 0 1 0;
#X connect 6 0 5 0;
#X connect 7 0 6 0;
#X connect 14 0 8 0;
#X connect 17 0 15 0;
#X connect 18 0 16 0;
#X connect 19 0 17 0;
#X connect 19 0 18 0;
#X connect 19 1 3 0;
#X connect 19 1 4 0;
#X connect 19 2 7 0;
#X connect 19 2 14 0;
#X connect 19 2 20 0;
#X connect 20 0 2 0;
#X restore 214 150 pd init \; tables;
#X obj 124 209 trigger float float;
#N canvas 770 137 611 447 H(z) 0;
#X obj 106 40 inlet;
#X obj 222 42 inlet;
#X text 153 41 index;
#X obj 225 264 -;
#X obj 225 384 outlet;
#X obj 106 110 list;
#X text 261 42 coefficientes;
#X obj 106 145 expr $f4 + ($f5 * cosW_\$0[$f1]) + ($f6 * cos2W_\$0[$f1])
\; ($f5 * sinW_\$0[$f1]) + ($f6 * sin2W_\$0[$f1]) \; 1 - ($f2 * cosW_\$0[$f1])
- ($f3 * cos2W_\$0[$f1]) \; 0 - ($f2 * sinW_\$0[$f1]) - ($f3 * sin2W_\$0[$f1])
;
#X obj 300 216 car2pol;
#X obj 129 225 car2pol;
#X obj 226 298 /;
#X obj 259 269 pi;
#X obj 225 335 wrap2 -1 1;
#X connect 0 0 5 0;
#X connect 1 0 5 1;
#X connect 3 0 10 0;
#X connect 5 0 7 0;
#X connect 7 0 9 0;
#X connect 7 1 9 1;
#X connect 7 2 8 0;
#X connect 7 3 8 1;
#X connect 8 1 3 1;
#X connect 9 1 3 0;
#X connect 10 0 12 0;
#X connect 11 0 10 1;
#X connect 12 0 4 0;
#X restore 124 236 pd H(z);
#X obj 64 151 trigger bang list;
#N canvas 169 31 398 275 coeff 0;
#X obj 103 87 r \$0-Hz;
#X obj 173 87 r \$0-Q;
#X obj 87 54 loadbang;
#X obj 87 156 outlet;
#X obj 87 127 bicoeff2 allpass 750 1;
#X connect 0 0 4 0;
#X connect 1 0 4 1;
#X connect 2 0 4 0;
#X connect 4 0 3 0;
#X restore 64 109 pd coeff;
#X obj 138 277 tabwrite \$0-phase;
#X obj 64 178 loop 400;
#X connect 1 0 2 0;
#X connect 1 1 5 1;
#X connect 2 0 5 0;
#X connect 3 0 6 0;
#X connect 3 1 2 1;
#X connect 4 0 3 0;
#X connect 6 0 1 0;
#X restore 883 201 pd plot;
#X text 47 119 The coefficient in the 1st order allpass filter controls
the slope of the phase distortion in the same way as the 2nd order
filter. But here \, we have a control on the central frequency \, which
is the frequency that passes through the 180 degrees point \, which
is at the phase opposition., f 66;
#X text 678 119 If we sum the input to the filtered signal \, we can
hear the phase cancellation. In practice \, this becomes a bandstop
filter., f 32;
#X text 258 409 We don't plot the amplitudes because they are unchanged.
, f 58;
#X obj 769 11 declare -path else;
#X obj 565 154 out~;
#X text 47 23 The [allpass.2nd~] object has been introduced before.
It is a 2nd order allpass filter \, and you can check its help file
for more details. What is clear by looking at the phase response is
that the 2nd order filter is able to shift the phase 360 degrees \,
while the 1st order could only distort half the cycle \, from 0 (at
0Hz) to 180 degrees - or pi (in radians) at the nyquist frequency.
, f 66;
#X connect 0 0 2 0;
#X connect 1 0 5 0;
#X connect 1 0 6 0;
#X connect 2 0 6 2;
#X connect 3 0 6 1;
#X connect 5 0 13 0;
#X connect 6 0 5 1;
