#N canvas 419 58 748 430 12;
#X declare -path else;
#X obj 66 119 rpole~;
#X obj 66 94 rzero_rev~;
#X obj 66 168 rpole~;
#X obj 66 143 rzero_rev~;
#X obj 66 216 rpole~;
#X obj 66 191 rzero_rev~;
#X obj 66 265 rpole~;
#X obj 66 240 rzero_rev~;
#X obj 48 300 +~;
#X obj 163 110 r~ \$0-coef;
#X obj 392 86 s~ \$0-coef;
#X obj 160 152 r~ \$0-coef;
#X obj 158 195 r~ \$0-coef;
#X obj 160 252 r~ \$0-coef;
#X text 357 62 LFO;
#N canvas 345 151 691 411 phaser-stereo 0;
#X obj 61 298 +~;
#N canvas 172 23 283 355 4stages 0;
#X obj 62 107 rpole~;
#X obj 62 82 rzero_rev~;
#X obj 62 156 rpole~;
#X obj 62 131 rzero_rev~;
#X obj 62 204 rpole~;
#X obj 62 179 rzero_rev~;
#X obj 62 253 rpole~;
#X obj 62 228 rzero_rev~;
#X obj 149 98 r~ \$0-coef;
#X obj 146 140 r~ \$0-coef;
#X obj 144 183 r~ \$0-coef;
#X obj 146 240 r~ \$0-coef;
#X obj 62 45 inlet~;
#X obj 62 283 outlet~;
#X connect 0 0 3 0;
#X connect 1 0 0 0;
#X connect 2 0 5 0;
#X connect 3 0 2 0;
#X connect 4 0 7 0;
#X connect 5 0 4 0;
#X connect 6 0 13 0;
#X connect 7 0 6 0;
#X connect 8 0 1 1;
#X connect 8 0 0 1;
#X connect 9 0 3 1;
#X connect 9 0 2 1;
#X connect 10 0 5 1;
#X connect 10 0 4 1;
#X connect 11 0 7 1;
#X connect 11 0 6 1;
#X connect 12 0 1 0;
#X restore 76 132 pd 4stages;
#N canvas 172 23 283 355 4stages 0;
#X obj 62 107 rpole~;
#X obj 62 82 rzero_rev~;
#X obj 62 156 rpole~;
#X obj 62 131 rzero_rev~;
#X obj 62 204 rpole~;
#X obj 62 179 rzero_rev~;
#X obj 62 253 rpole~;
#X obj 62 228 rzero_rev~;
#X obj 149 98 r~ \$0-coef;
#X obj 146 140 r~ \$0-coef;
#X obj 144 183 r~ \$0-coef;
#X obj 146 240 r~ \$0-coef;
#X obj 62 45 inlet~;
#X obj 62 283 outlet~;
#X connect 0 0 3 0;
#X connect 1 0 0 0;
#X connect 2 0 5 0;
#X connect 3 0 2 0;
#X connect 4 0 7 0;
#X connect 5 0 4 0;
#X connect 6 0 13 0;
#X connect 7 0 6 0;
#X connect 8 0 1 1;
#X connect 8 0 0 1;
#X connect 9 0 3 1;
#X connect 9 0 2 1;
#X connect 10 0 5 1;
#X connect 10 0 4 1;
#X connect 11 0 7 1;
#X connect 11 0 6 1;
#X connect 12 0 1 0;
#X restore 88 163 pd 4stages;
#N canvas 172 23 283 355 4stages 0;
#X obj 62 107 rpole~;
#X obj 62 82 rzero_rev~;
#X obj 62 156 rpole~;
#X obj 62 131 rzero_rev~;
#X obj 62 204 rpole~;
#X obj 62 179 rzero_rev~;
#X obj 62 253 rpole~;
#X obj 62 228 rzero_rev~;
#X obj 149 98 r~ \$0-coef;
#X obj 146 140 r~ \$0-coef;
#X obj 144 183 r~ \$0-coef;
#X obj 146 240 r~ \$0-coef;
#X obj 62 45 inlet~;
#X obj 62 283 outlet~;
#X connect 0 0 3 0;
#X connect 1 0 0 0;
#X connect 2 0 5 0;
#X connect 3 0 2 0;
#X connect 4 0 7 0;
#X connect 5 0 4 0;
#X connect 6 0 13 0;
#X connect 7 0 6 0;
#X connect 8 0 1 1;
#X connect 8 0 0 1;
#X connect 9 0 3 1;
#X connect 9 0 2 1;
#X connect 10 0 5 1;
#X connect 10 0 4 1;
#X connect 11 0 7 1;
#X connect 11 0 6 1;
#X connect 12 0 1 0;
#X restore 99 200 pd 4stages;
#X obj 61 359 outlet~;
#X obj 220 302 +~;
#N canvas 172 23 283 355 4stages 0;
#X obj 62 107 rpole~;
#X obj 62 82 rzero_rev~;
#X obj 62 156 rpole~;
#X obj 62 131 rzero_rev~;
#X obj 62 204 rpole~;
#X obj 62 179 rzero_rev~;
#X obj 62 253 rpole~;
#X obj 62 228 rzero_rev~;
#X obj 149 98 r~ \$0-coef;
#X obj 146 140 r~ \$0-coef;
#X obj 144 183 r~ \$0-coef;
#X obj 146 240 r~ \$0-coef;
#X obj 62 45 inlet~;
#X obj 62 283 outlet~;
#X connect 0 0 3 0;
#X connect 1 0 0 0;
#X connect 2 0 5 0;
#X connect 3 0 2 0;
#X connect 4 0 7 0;
#X connect 5 0 4 0;
#X connect 6 0 13 0;
#X connect 7 0 6 0;
#X connect 8 0 1 1;
#X connect 8 0 0 1;
#X connect 9 0 3 1;
#X connect 9 0 2 1;
#X connect 10 0 5 1;
#X connect 10 0 4 1;
#X connect 11 0 7 1;
#X connect 11 0 6 1;
#X connect 12 0 1 0;
#X restore 245 171 pd 4stages;
#X obj 220 358 outlet~;
#N canvas 172 23 258 280 2stages 0;
#X obj 62 107 rpole~;
#X obj 62 82 rzero_rev~;
#X obj 62 156 rpole~;
#X obj 62 131 rzero_rev~;
#X obj 149 98 r~ \$0-coef;
#X obj 146 140 r~ \$0-coef;
#X obj 62 45 inlet~;
#X obj 62 203 outlet~;
#X connect 0 0 3 0;
#X connect 1 0 0 0;
#X connect 2 0 7 0;
#X connect 3 0 2 0;
#X connect 4 0 1 1;
#X connect 4 0 0 1;
#X connect 5 0 3 1;
#X connect 5 0 2 1;
#X connect 6 0 1 0;
#X restore 233 140 pd 2stages;
#N canvas 172 23 283 355 4stages 0;
#X obj 62 107 rpole~;
#X obj 62 82 rzero_rev~;
#X obj 62 156 rpole~;
#X obj 62 131 rzero_rev~;
#X obj 62 204 rpole~;
#X obj 62 179 rzero_rev~;
#X obj 62 253 rpole~;
#X obj 62 228 rzero_rev~;
#X obj 149 98 r~ \$0-coef;
#X obj 146 140 r~ \$0-coef;
#X obj 144 183 r~ \$0-coef;
#X obj 146 240 r~ \$0-coef;
#X obj 62 45 inlet~;
#X obj 62 283 outlet~;
#X connect 0 0 3 0;
#X connect 1 0 0 0;
#X connect 2 0 5 0;
#X connect 3 0 2 0;
#X connect 4 0 7 0;
#X connect 5 0 4 0;
#X connect 6 0 13 0;
#X connect 7 0 6 0;
#X connect 8 0 1 1;
#X connect 8 0 0 1;
#X connect 9 0 3 1;
#X connect 9 0 2 1;
#X connect 10 0 5 1;
#X connect 10 0 4 1;
#X connect 11 0 7 1;
#X connect 11 0 6 1;
#X connect 12 0 1 0;
#X restore 257 207 pd 4stages;
#N canvas 172 23 283 355 4stages 0;
#X obj 62 107 rpole~;
#X obj 62 82 rzero_rev~;
#X obj 62 156 rpole~;
#X obj 62 131 rzero_rev~;
#X obj 62 204 rpole~;
#X obj 62 179 rzero_rev~;
#X obj 62 253 rpole~;
#X obj 62 228 rzero_rev~;
#X obj 149 98 r~ \$0-coef;
#X obj 146 140 r~ \$0-coef;
#X obj 144 183 r~ \$0-coef;
#X obj 146 240 r~ \$0-coef;
#X obj 62 45 inlet~;
#X obj 62 283 outlet~;
#X connect 0 0 3 0;
#X connect 1 0 0 0;
#X connect 2 0 5 0;
#X connect 3 0 2 0;
#X connect 4 0 7 0;
#X connect 5 0 4 0;
#X connect 6 0 13 0;
#X connect 7 0 6 0;
#X connect 8 0 1 1;
#X connect 8 0 0 1;
#X connect 9 0 3 1;
#X connect 9 0 2 1;
#X connect 10 0 5 1;
#X connect 10 0 4 1;
#X connect 11 0 7 1;
#X connect 11 0 6 1;
#X connect 12 0 1 0;
#X restore 275 243 pd 4stages;
#N canvas 172 23 283 355 4stages 0;
#X obj 62 107 rpole~;
#X obj 62 82 rzero_rev~;
#X obj 62 156 rpole~;
#X obj 62 131 rzero_rev~;
#X obj 62 204 rpole~;
#X obj 62 179 rzero_rev~;
#X obj 62 253 rpole~;
#X obj 62 228 rzero_rev~;
#X obj 149 98 r~ \$0-coef;
#X obj 146 140 r~ \$0-coef;
#X obj 144 183 r~ \$0-coef;
#X obj 146 240 r~ \$0-coef;
#X obj 62 45 inlet~;
#X obj 62 283 outlet~;
#X connect 0 0 3 0;
#X connect 1 0 0 0;
#X connect 2 0 5 0;
#X connect 3 0 2 0;
#X connect 4 0 7 0;
#X connect 5 0 4 0;
#X connect 6 0 13 0;
#X connect 7 0 6 0;
#X connect 8 0 1 1;
#X connect 8 0 0 1;
#X connect 9 0 3 1;
#X connect 9 0 2 1;
#X connect 10 0 5 1;
#X connect 10 0 4 1;
#X connect 11 0 7 1;
#X connect 11 0 6 1;
#X connect 12 0 1 0;
#X restore 111 242 pd 4stages;
#X obj 147 43 sig~ 40;
#X obj 218 80 +~ 0.5;
#X obj 61 99 bl.saw~;
#X obj 218 107 bl.saw~;
#X obj 220 329 drive~;
#X obj 61 327 drive~;
#X text 390 142 This design fools around and also sums the output of
every stage \, which maximizes the phaser effect. A [drive~] object
compresses so many sums., f 30;
#X floatatom 147 17 5 0 0 0 - - -;
#X connect 0 0 17 0;
#X connect 1 0 0 1;
#X connect 1 0 2 0;
#X connect 2 0 0 1;
#X connect 2 0 3 0;
#X connect 3 0 0 1;
#X connect 3 0 11 0;
#X connect 5 0 16 0;
#X connect 6 0 5 1;
#X connect 6 0 9 0;
#X connect 8 0 5 1;
#X connect 8 0 6 0;
#X connect 9 0 5 1;
#X connect 9 0 10 0;
#X connect 10 0 5 1;
#X connect 11 0 0 1;
#X connect 12 0 13 0;
#X connect 12 0 14 0;
#X connect 13 0 15 0;
#X connect 14 0 0 0;
#X connect 14 0 1 0;
#X connect 15 0 5 0;
#X connect 15 0 8 0;
#X connect 16 0 7 0;
#X connect 17 0 4 0;
#X connect 19 0 12 0;
#X restore 384 300 pd phaser-stereo;
#X obj 392 61 rescale~ 0.62 0.98;
#X obj 48 332 out~;
#X obj 392 33 tri~ 0.1;
#X text 508 298 <= click;
#X text 276 125 A "Phaser" filters a signal through a series of allpass
filters and sums that to the input In practice \, we have many bandstop
filters. The example to the left is based on the H15 Pd example and
is a 4th order allpass filter. An LFO controls the filter coefficient
\, which affects the frequency sweep of the bandstop filtering.;
#X text 276 225 Other configurations are possible with a different
number of stages (such as 6 \, 8 \, 10 \, 12 stages \, etc). Below
we have a stereo patch with 16 and 14 stages. Open it.;
#X obj 563 36 declare -path else;
#X obj 393 335 out~;
#X obj 47 64 bl.saw~ 80;
#X connect 0 0 3 0;
#X connect 1 0 0 0;
#X connect 2 0 5 0;
#X connect 3 0 2 0;
#X connect 4 0 7 0;
#X connect 5 0 4 0;
#X connect 6 0 8 1;
#X connect 7 0 6 0;
#X connect 8 0 17 0;
#X connect 9 0 1 1;
#X connect 9 0 0 1;
#X connect 11 0 3 1;
#X connect 11 0 2 1;
#X connect 12 0 5 1;
#X connect 12 0 4 1;
#X connect 13 0 7 1;
#X connect 13 0 6 1;
#X connect 15 0 23 0;
#X connect 15 1 23 1;
#X connect 16 0 10 0;
#X connect 18 0 16 0;
#X connect 24 0 8 0;
#X connect 24 0 1 0;
