#N canvas 474 23 571 672 12;
#X declare -path else;
#X obj 358 571 declare -path else;
#X obj 94 439 mtof;
#X obj 94 493 bl.saw~;
#X obj 94 579 out~;
#X obj 94 539 *~;
#X text 39 17 Onset or attack detection is when we analyze a signal and find the moment that a musical note started. Usually \, the beggining of a note in a accoustic musical instrument produces an unstable sound for a short moment before reaching a pitched stability. This happens \, for instance \, when hammering a piano string or plucking a guitar. We call these components 'transients' and they can be recognized by a quick increase in amplitude and non-periodic (and/or noisy) components., f 69;
#X obj 94 383 sigmund~ -npts 2048 -hop 256 notes, f 19;
#X obj 332 212 rand.f 200 500;
#X obj 332 296 bl.saw~;
#X obj 332 434 out~;
#X obj 332 332 *~;
#X obj 401 287 bng 30 400 200 0 empty empty empty 0 -10 0 12 #dfdfdf #000000 #000000;
#X floatatom 94 467 11 0 0 0 - - - 0;
#X floatatom 332 241 11 0 0 0 - - - 0;
#X text 39 126 The [sigmund~] object also reports "notes" output and this happens when it detects a note attack. So we have a pitch detection as well as an onset detection., f 69;
#X obj 183 454 bng 30 400 200 0 empty empty empty 0 -10 0 12 #dfdfdf #000000 #000000;
#X obj 401 329 decay2~ 100 2500;
#X obj 332 184 tempo -on 30 50;
#X obj 183 496 decay2~ 100 2500;
#X obj 332 396 ffdelay~ -samps 256;
#X text 39 179 Detecting notes is not that easy and often not quite perfect. You need a clear monophonic and pitched input., f 37;
#X text 40 236 This example analyses an oscillator and you can hear the found pitch and compare both. The output of [sigmund~] is delayed because of the analysis window., f 38;
#X obj 95 337 adc~;
#X text 39 315 You should also try live input with ->, f 30;
#X connect 1 0 12 0;
#X connect 2 0 4 0;
#X connect 4 0 3 0;
#X connect 6 0 1 0;
#X connect 6 0 15 0;
#X connect 7 0 13 0;
#X connect 8 0 10 0;
#X connect 10 0 6 0;
#X connect 10 0 19 0;
#X connect 11 0 16 0;
#X connect 12 0 2 0;
#X connect 13 0 8 0;
#X connect 13 0 11 0;
#X connect 15 0 18 0;
#X connect 16 0 10 1;
#X connect 17 0 7 0;
#X connect 18 0 4 1;
#X connect 19 0 9 0;
