#N struct 1003-DS float x float y array 1003-table 1003-element;
#N struct 1003-element text z float y;
#N canvas 195 32 603 606 12;
#X obj 453 317 pointer;
#N canvas 317 275 503 265 template 0;
#X text 91 183 Drawing instructions;
#X obj 59 127 struct \$0-DS float x float y array \$0-table \$0-element
;
#X text 73 46 Data Structure named "\$0-DS" holding coordinates floats
"x/y" and an array named "\$0-table" using the element struct named
"\$0-element" defined in the other subpatch., f 48;
#X obj 243 184 plot \$0-table 900 2 10 -50 120;
#X restore 404 135 pd template;
#X obj 344 347 append \$0-DS x y;
#X obj 260 470 array size -s \$0-DS \$0-table;
#X text 287 445 <= sets size;
#X floatatom 260 444 3 0 0 0 - - - 0;
#X obj 193 379 element \$0-DS \$0-table;
#N canvas 806 170 558 245 \$0-display 1;
#X scalar 1003-DS 10 250 \; 0 \; \; 0 \; \; 0 \; \; 0 \; \; \;;
#X coords 0 245 1 244 0 0 0;
#X restore 404 161 pd \$0-display;
#X obj 453 287 r \$0-pointer;
#X obj 344 306 r \$0-coords;
#N canvas 431 307 458 362 \$0-element 0;
#X obj 59 224 filledpolygon 0 0 1 -2 -2 2 -2 2 2 -2 2;
#X text 58 194 draw a black dot to represent the value:;
#X text 58 268 We add a drawing instruction for it as well, f 17;
#X text 41 68 We also include the field name 'y' \, which is the vertical
coordinate. This allows the element to be dragged horizontally., f
48;
#X text 42 15 The element of the array is defined as a struct of name
"\$0-element" containing a symbol named "sym"., f 47;
#X obj 86 139 struct \$0-element text z float y;
#X obj 202 286 drawtext z 0 -5;
#X restore 404 109 pd \$0-element;
#X obj 260 416 r \$0-size;
#X obj 139 323 vradio 15 1 0 3 empty empty empty 0 -8 0 10 #dcdcdc
#000000 #000000 0;
#X floatatom 139 375 2 0 0 0 - - - 0;
#X msg 96 262 1 2 3 4 a b c d e;
#X msg 110 289 list a b c d e f g h i j;
#X text 158 320 <= set line;
#X msg 76 236 symbol text;
#X floatatom 28 236 5 0 0 0 - - - 0;
#X text 43 17 This example shows how to create an array composed of
texts. Note that the text field can also hold just a single float or
symbol value \, but you can have a single line with one or more elements
in a list or more than one line. In this case \, we use [text] to set
the text., f 74;
#X obj 112 420 text set -s \$0-element z, f 12;
#X obj 193 352 hradio 15 1 0 4 empty empty empty 0 -8 0 10 #dfdfdf
#000000 #000000 0;
#X obj 93 105 initmess \; pd-\$0-display clear \, vis 1 \; \$0-pointer
traverse pd-\$0-display \, bang \; \$0-coords 10 250 \; \$0-size 4
;
#X obj 82 528 text get -s \$0-element z;
#X listbox 82 565 20 0 0 0 - - - 0;
#X floatatom 137 501 5 0 0 0 - - - 0;
#X floatatom 82 501 5 0 0 0 - - - 0;
#X floatatom 192 502 5 0 0 0 - - - 0;
#X text 292 526 The values can then be accessed via [text get], f
24;
#X connect 0 0 2 2;
#X connect 2 0 3 1;
#X connect 2 0 6 1;
#X connect 5 0 3 0;
#X connect 6 0 20 3;
#X connect 6 0 23 3;
#X connect 8 0 0 0;
#X connect 9 0 2 0;
#X connect 11 0 5 0;
#X connect 12 0 13 0;
#X connect 13 0 20 1;
#X connect 14 0 20 0;
#X connect 15 0 20 0;
#X connect 17 0 20 0;
#X connect 18 0 20 0;
#X connect 21 0 6 0;
#X connect 23 0 24 0;
#X connect 25 0 23 1;
#X connect 26 0 23 0;
#X connect 27 0 23 2;
