#N canvas 456 32 613 646 12;
#X declare -path else;
#X obj 430 102 declare -path else;
#X obj 134 316 decay2~ 50 500;
#X obj 116 347 *~;
#X obj 134 212 chance~ 30 60 20, f 42;
#X obj 71 315 brown~;
#X obj 372 360 *~;
#X obj 426 335 decay2~ 50 500;
#X obj 372 329 noise~;
#X obj 260 409 spread~ 3 2;
#X obj 256 445 out~;
#X obj 315 281 decay2~ 50 500;
#X obj 297 317 *~;
#X obj 224 277 cusp~ 1500;
#X obj 453 250 trig2bang~;
#X obj 194 242 trig2bang~;
#X obj 51 247 trig2bang~;
#X obj 134 146 chance~ 80;
#X obj 233 145 trig2bang~;
#X obj 233 169 bng 15 250 50 0 empty empty empty 17 7 0 10 #dfdfdf
#000000 #000000;
#X obj 134 111 randpulse~ 5;
#X text 35 33 The [chance~] object is the signal rate version of [chance].
When triggered \, the signal value is output as an impulse to the corresponding
outlet according to the given probability., f 78;
#X obj 51 272 bng 15 250 50 0 empty empty empty 17 7 0 10 #dfdfdf #000000
#000000;
#X obj 194 266 bng 15 250 50 0 empty empty empty 17 7 0 10 #dfdfdf
#000000 #000000;
#X obj 453 274 bng 15 250 50 0 empty empty empty 17 7 0 10 #dfdfdf
#000000 #000000;
#X text 80 517 Note that the number of chances in either [chance] or
[chance~] do not have to sum up to 100 as above (which totals up to
110). This means that the arguments actually define a 'histogram' \,
which represents the distribution of numerical data \, that is \, it
counts the number of times an event occurred. Hence \, the total number
of chances is the sum of of the arguments \, so the 1st argument "30"
means that it has "30 out of 110" chances of comming out., f 67;
#X connect 1 0 2 1;
#X connect 2 0 8 0;
#X connect 3 0 1 0;
#X connect 3 0 15 0;
#X connect 3 1 10 0;
#X connect 3 1 14 0;
#X connect 3 2 6 0;
#X connect 3 2 13 0;
#X connect 4 0 2 0;
#X connect 5 0 8 2;
#X connect 6 0 5 1;
#X connect 7 0 5 0;
#X connect 8 0 9 0;
#X connect 8 1 9 1;
#X connect 10 0 11 1;
#X connect 11 0 8 1;
#X connect 12 0 11 0;
#X connect 13 0 23 0;
#X connect 14 0 22 0;
#X connect 15 0 21 0;
#X connect 16 0 3 0;
#X connect 16 1 17 0;
#X connect 17 0 18 0;
#X connect 19 0 16 0;
