#N canvas 321 119 954 594 12;
#X obj 601 46 lop~;
#X obj 601 14 noise~;
#X obj 660 28 hsl 128 15 20 7000 1 0 empty empty empty -2 -8 0 10 #dcdcdc
#000000 #000000 0 1;
#X obj 657 55 nbx 8 14 -1e+37 1e+37 0 0 \$0-lop empty empty 0 -8 0
10 #dcdcdc #000000 #000000 0 256;
#X text 746 54 Hz;
#X obj 601 86 out~;
#N canvas 446 292 419 303 coefficients 0;
#X obj 52 120 clip 0 1;
#X obj 52 82 hz2rad;
#X obj 52 156 expr 1 - $f1 \; $f1;
#X obj 52 199 pack f 0 f 0 0;
#X obj 172 120 clip 0 1;
#X obj 172 82 hz2rad;
#X obj 172 199 pack f 0 1 -1 0;
#X obj 172 156 expr 1 - $f1;
#X obj 172 246 outlet;
#X obj 52 44 r \$0-lop;
#X obj 172 44 r \$0-hip;
#X obj 305 81 hz2rad;
#X obj 305 119 clip 0 2;
#X obj 305 155 expr 1 - $f1 \; $f1/2;
#X obj 305 198 pack f 0 f f 0;
#X obj 305 43 r \$0-lop2;
#X connect 0 0 2 0;
#X connect 1 0 0 0;
#X connect 2 0 3 0;
#X connect 2 1 3 2;
#X connect 3 0 8 0;
#X connect 4 0 7 0;
#X connect 5 0 4 0;
#X connect 6 0 8 0;
#X connect 7 0 6 0;
#X connect 9 0 1 0;
#X connect 10 0 5 0;
#X connect 11 0 12 0;
#X connect 12 0 13 0;
#X connect 13 0 14 0;
#X connect 13 1 14 2;
#X connect 13 1 14 3;
#X connect 14 0 8 0;
#X connect 15 0 11 0;
#X restore 33 38 pd coefficients;
#X obj 33 240 display;
#X obj 33 289 biplot;
#X obj 601 154 noise~;
#X obj 660 168 hsl 128 15 20 7000 1 0 empty empty empty -2 -8 0 10
#dcdcdc #000000 #000000 0 1;
#X obj 657 195 nbx 8 14 -1e+37 1e+37 0 0 \$0-hip empty empty 0 -8 0
10 #dcdcdc #000000 #000000 0 256;
#X text 746 194 Hz;
#X obj 601 226 out~;
#X obj 601 186 hip~;
#X obj 58 79 noise~;
#X obj 58 131 biquad~;
#X obj 58 155 out~;
#X text 406 259 [biplot]:;
#X text 171 18 The [biplot] object from ELSE plots the filter response
from an input of Biquad coefficients taking into account the theory
from the last example (check its help file)., f 56;
#X obj 769 89 noise~;
#X obj 803 55 hsl 128 15 20 15000 1 0 empty empty empty -2 -8 0 10
#dcdcdc #000000 #000000 0 1;
#X obj 853 93 nbx 8 14 -1e+37 1e+37 0 0 \$0-lop2 empty empty 0 -8 0
10 #dcdcdc #000000 #000000 0 256;
#X text 827 91 Hz;
#X obj 821 167 out~;
#X obj 821 127 lop2~;
#X text 171 67 [lop~] (a 1-pole filter) and [hip~]/[lop2~] (both 1-Pole
and 1-Zero filters) fit into a biquad system (which is a 2-Pole and
2-Zero filter)., f 56;
#X text 172 119 Hence \, we can calculate coefficients and plot the
filter response with [biplot] from ELSE. Compare the examples to the
right with [biquad~]. When you set the frequency slider of [lop~] \,
[biquad~] will correspond to it and you can see the response below.
Same happens when you set the slider of [hip~] or [lop2~]., f 56;
#X connect 0 0 5 0;
#X connect 1 0 0 0;
#X connect 2 0 3 0;
#X connect 3 0 0 1;
#X connect 6 0 7 0;
#X connect 6 0 16 0;
#X connect 7 0 8 0;
#X connect 9 0 14 0;
#X connect 10 0 11 0;
#X connect 11 0 14 1;
#X connect 14 0 13 0;
#X connect 15 0 16 0;
#X connect 16 0 17 0;
#X connect 20 0 25 0;
#X connect 21 0 22 0;
#X connect 22 0 25 1;
#X connect 25 0 24 0;
