#N canvas 324 31 944 449 12;
#X declare -path else;
#X obj 156 323 readsf~;
#X msg 111 289 stop;
#X obj 231 325 spigot;
#X obj 270 302 tgl 15 0 empty empty empty 17 7 0 10 #dcdcdc #000000
#000000 0 1;
#X text 286 301 loop;
#X obj 206 236 openpanel;
#X obj 206 214 bng 15 250 50 0 empty empty empty 17 7 0 10 #dcdcdc
#000000 #000000;
#X msg 156 298 open \$1 \, 1;
#X obj 156 356 out~;
#X obj 156 198 bng 15 250 50 0 empty empty empty 17 7 0 10 #dcdcdc
#000000 #000000;
#X text 226 212 Choose file;
#X text 113 197 play;
#X text 30 89 An open message with a sound file is needed every time
before playing the file. A "start" message (or a non zero number) plays
the file \, and a "stop" (or zero) stops it. When its done playing
\, a bang is sent out the right outlet. We use this bang for a loop
below., f 60;
#X obj 599 342 out~;
#X obj 599 239 bng 18 250 50 0 empty empty empty 17 7 0 10 #dcdcdc
#000000 #000000;
#X obj 651 183 tgl 15 0 empty empty empty 17 7 0 10 #dcdcdc #000000
#000000 0 1;
#X text 562 239 play;
#X msg 651 205 loop \$1;
#X msg 655 233 open;
#X text 696 234 Choose file;
#X msg 656 259 stop;
#X text 508 143 Check its help file for more details and features.
;
#X obj 713 18 declare -path else;
#X obj 599 306 play.file~ violin.wav;
#X text 506 55 The [play.file~] object from ELSE is an abstraction
that relies on the [readsf~] object. A big convenience is that it has
multi channel support and can query the number of channels from a sound
file given as an argument., f 54;
#X obj 156 274 symbol violin.wav;
#X text 30 27 The simplest way to play a sound file in Pd Vanilla is
with the [readsf~] object. It plays directly from your hard drive and
offers not that many features. Check help file for more details.;
#X obj 743 338 bng 18 250 50 0 empty empty empty 17 7 0 10 #dcdcdc
#000000 #000000;
#X text 769 338 fiinisehd;
#X connect 0 0 8 0;
#X connect 0 1 2 0;
#X connect 1 0 0 0;
#X connect 2 0 9 0;
#X connect 3 0 2 1;
#X connect 5 0 25 0;
#X connect 6 0 5 0;
#X connect 7 0 0 0;
#X connect 9 0 25 0;
#X connect 14 0 23 0;
#X connect 15 0 17 0;
#X connect 17 0 23 0;
#X connect 18 0 23 0;
#X connect 20 0 23 0;
#X connect 23 0 13 0;
#X connect 23 1 27 0;
#X connect 25 0 7 0;
