#N canvas 341 53 1025 693 12;
#X declare -path else;
#X obj 182 224 r \$0-size;
#X obj 143 290 random;
#X obj 78 290 random;
#X obj 78 229 bng 20 250 50 0 empty empty empty 17 7 0 10 #dcdcdc #000000
#000000;
#X obj 609 187 s \$0-hz;
#X obj 609 135 /;
#X obj 609 100 swap;
#X obj 598 240 s \$0-size;
#X obj 143 379 samps2ms;
#X obj 68 426 pack float float float;
#X obj 68 454 display;
#X obj 68 542 tabread4~ \$0-buffer;
#X obj 68 513 envgen~;
#X obj 279 581 envgen~;
#X msg 293 416 duration \$1 \, bang;
#X obj 68 570 *~;
#X obj 68 605 out~;
#X obj 679 180 /;
#X floatatom 679 211 5 0 0 0 - - - 0;
#X obj 78 259 t b b;
#X obj 235 336 *;
#X obj 78 316 expr $f1 \; abs($f1-$f2) / $f3 \; $f2;
#X obj 235 310 cents2ratio;
#X obj 235 291 nbx 5 14 -1e+37 1e+37 0 0 empty empty empty 0 -8 0 10
#fcfcfc #000000 #000000 0 256;
#X obj 268 336 r \$0-ratio;
#X obj 679 240 s \$0-ratio;
#X obj 235 265 b;
#X text 74 482 <= start \, duration \, target;
#X obj 843 38 declare -path else;
#X obj 279 461 function 200 100 empty empty 0 1 220 220 220 50 50 50
0 0 0 0 0 0.1 1 0.8 1 0.1 0;
#X obj 279 383 initmess 0 0.1 1 0.8 1 0.1 0;
#X text 40 124 In this patch we generate random start/end points and
get a duration period in ms from the difference. This period can be
changed by a ratio input from a cents value. Note we also have a ratio
parameter that is a compensation from the ratio between the sound file's
sample rate and Pd's, f 68;
#X obj 711 180 sr~;
#X text 723 95 <= sound file's sample rate, f 15;
#X text 741 178 <= Pd's sample rate;
#X text 722 210 <= compensation ratio;
#X obj 598 69 unpack f f, f 12;
#X floatatom 609 162 5 0 0 0 - - - 0;
#X floatatom 598 214 0 0 0 0 - - - 0;
#X text 40 28 This example shows how to use [envgen~] to drive [tabread4~]
instead of [phasor~] \, and how to play random bits of the file as
an example of doing something more complex than just playing the whole
file. We also have a second [envgen~] as an envelope to avoid clicks
at the beginning and end of the file bits - this envelope function
is given by the [function] GUI., f 68;
#X text 361 217 Note that [envgen~] could be replaced by vanilla's
[vline~] object \, which provides similar functionalities as presented
earlier in this tutorial., f 22;
#X floatatom 679 95 5 0 0 0 - - - 0;
#X obj 679 157 t f b;
#X obj 739 362 bng 20 250 50 0 empty empty empty 17 7 0 10 #dcdcdc
#000000 #000000;
#X obj 734 427 rand.f 0 1;
#X obj 778 457 rand.f 0 1;
#X obj 734 456 pack;
#X msg 734 483 range \$1 \$2 \, bang;
#X obj 739 397 t b b, f 6;
#X msg 635 480 speed \$1;
#X obj 735 611 out~;
#X obj 693 131 s \$0-sr;
#X obj 766 517 r \$0-sr;
#X msg 766 541 sr \$1;
#X obj 598 38 sample~ \$0-buffer sax.wav;
#X text 565 282 Using [tabplayer~] is more convenient. It has an internal
fade in/out so we don't need to envelope. Here the range is randomized
and the speed parameter sets the pitch shifting (note that negative
speed values play backwards).;
#X obj 635 401 cents2ratio;
#X obj 635 382 nbx 5 14 -1e+37 1e+37 0 0 empty empty empty 0 -8 0 10
#fcfcfc #000000 #000000 0 256;
#X obj 635 429 * 100;
#X obj 635 455 nbx 5 14 -1e+37 1e+37 0 0 empty empty empty 0 -8 0 10
#fcfcfc #000000 #000000 0 256;
#X obj 735 573 tabplayer~ -fade 30 \$0-buffer;
#X connect 0 0 1 1;
#X connect 0 0 2 1;
#X connect 0 0 26 0;
#X connect 1 0 21 1;
#X connect 2 0 21 0;
#X connect 3 0 19 0;
#X connect 5 0 37 0;
#X connect 6 0 5 0;
#X connect 6 1 5 1;
#X connect 8 0 9 1;
#X connect 8 0 14 0;
#X connect 9 0 10 0;
#X connect 10 0 12 0;
#X connect 11 0 15 0;
#X connect 12 0 11 0;
#X connect 13 0 15 1;
#X connect 14 0 29 0;
#X connect 15 0 16 0;
#X connect 17 0 18 0;
#X connect 18 0 25 0;
#X connect 19 0 2 0;
#X connect 19 1 1 0;
#X connect 20 0 21 2;
#X connect 21 0 9 0;
#X connect 21 1 8 0;
#X connect 21 2 9 2;
#X connect 22 0 20 0;
#X connect 23 0 22 0;
#X connect 24 0 20 1;
#X connect 26 0 23 0;
#X connect 29 0 13 0;
#X connect 30 0 29 0;
#X connect 32 0 17 1;
#X connect 36 0 6 0;
#X connect 36 0 38 0;
#X connect 36 1 41 0;
#X connect 37 0 4 0;
#X connect 38 0 7 0;
#X connect 41 0 6 1;
#X connect 41 0 42 0;
#X connect 41 0 51 0;
#X connect 42 0 17 0;
#X connect 42 1 32 0;
#X connect 43 0 48 0;
#X connect 44 0 46 0;
#X connect 45 0 46 1;
#X connect 46 0 47 0;
#X connect 47 0 60 0;
#X connect 48 0 44 0;
#X connect 48 1 45 0;
#X connect 49 0 60 0;
#X connect 52 0 53 0;
#X connect 53 0 60 0;
#X connect 54 0 36 0;
#X connect 56 0 58 0;
#X connect 57 0 56 0;
#X connect 58 0 59 0;
#X connect 59 0 49 0;
#X connect 60 0 50 0;
