#N canvas 516 46 819 484 12;
#X declare -path else;
#X obj 522 137 nbx 6 14 64 1e+37 0 0 \$0-w_size \$0-w_size-set empty
0 -8 0 10 -228856 -1 -1 16384 256;
#N canvas 636 295 609 422 zeropad 0;
#X obj 90 247 s \$0-set-block;
#X obj 90 137 t b f;
#X obj 90 173 v w_size_\$0;
#X obj 90 54 inlet;
#X msg 210 285 const 1;
#X msg 273 282 resize \$1;
#X obj 273 249 / 2;
#X obj 207 214 t f b f;
#X obj 90 92 * 2;
#X obj 273 324 s \$0-zeropad;
#X msg 157 89 resize \$1;
#X obj 157 120 s \$0-Amplitude;
#X msg 90 220 set \$1 1;
#X obj 371 91 loadbang;
#X msg 371 117 \; pd dsp 1;
#X connect 1 0 2 0;
#X connect 1 1 2 0;
#X connect 2 0 12 0;
#X connect 2 0 7 0;
#X connect 3 0 8 0;
#X connect 3 0 10 0;
#X connect 4 0 9 0;
#X connect 5 0 9 0;
#X connect 6 0 5 0;
#X connect 7 0 5 0;
#X connect 7 1 4 0;
#X connect 7 2 6 0;
#X connect 8 0 1 0;
#X connect 10 0 11 0;
#X connect 12 0 0 0;
#X connect 13 0 14 0;
#X coords 0 0 1 1 120 60 0;
#X restore 522 169 pd zeropad;
#X obj 146 279 tabplay~ \$0-sample;
#X obj 146 248 bng 18 250 50 0 \$0-bang empty empty 17 7 0 10 -228856
-1 -1;
#X obj 677 142 table \$0-zeropad;
#N canvas 568 184 405 309 FFT 0;
#X obj 70 109 *~;
#X obj 70 43 inlet~;
#X obj 70 148 rfft~;
#X obj 249 142 r \$0-set-block;
#X obj 249 169 block~;
#X obj 88 76 tabreceive~ \$0-zeropad;
#X obj 139 236 tabwrite~ \$0-Amplitude;
#X obj 139 157 r \$0-bang;
#X obj 139 185 delay 371;
#X obj 70 185 mag~;
#X connect 0 0 2 0;
#X connect 1 0 0 0;
#X connect 2 0 9 0;
#X connect 2 1 9 1;
#X connect 3 0 4 0;
#X connect 5 0 0 1;
#X connect 7 0 8 0;
#X connect 8 0 6 0;
#X connect 9 0 6 0;
#X restore 171 321 pd FFT;
#X obj 361 255 cnv 15 398 198 empty empty empty 20 12 0 14 -228856
-66577 0;
#N canvas 0 22 450 300 (subpatch) 0;
#X array \$0-Amplitude 16384 float 0;
#X coords 0 100 16383 -1 400 200 1;
#X restore 360 254 graph;
#X text 39 96 Another approach is to use a window that zeroes out values
from an input \, and this will be used later in a convolution example.
;
#X text 39 149 In this example we have a FFT analysis of 32768 points
and a zero padding table to zero out values above 16384 For the example
\, though \, we have a sound file with 16384 samples.;
#X text 168 246 play/analyse;
#X obj 146 360 out~;
#X obj 638 29 declare -path else;
#X text 588 122 number of samples, f 9;
#X obj 522 86 sample~ \$0-sample IR.wav;
#X msg 522 111 \$1;
#X text 39 33 Zero Padding consists in adding zeros by the end of an
audio signal to increase its size and fit into an analysis window.
This is usually done to increase the window and its frequency resolution.
, f 59;
#X connect 0 0 1 0;
#X connect 2 0 5 0;
#X connect 2 0 11 0;
#X connect 3 0 2 0;
#X connect 14 0 15 0;
#X connect 15 0 0 0;
