#N canvas 531 23 564 573 10;
#X obj 7 546 cnv 15 552 21 empty empty empty 20 12 0 14 -233017 -33289
0;
#X obj 6 415 cnv 3 550 3 empty empty inlets 8 12 0 13 -228856 -1 0
;
#X obj 7 474 cnv 3 550 3 empty empty outlets 8 12 0 13 -228856 -1 0
;
#X obj 7 511 cnv 3 550 3 empty empty arguments 8 12 0 13 -228856 -1
0;
#X obj 104 424 cnv 17 3 17 empty empty 0 5 9 0 16 -228856 -162280 0
;
#X obj 105 483 cnv 17 3 17 empty empty 0 5 9 0 16 -228856 -162280 0
;
#X obj 104 447 cnv 17 3 17 empty empty 1 5 9 0 16 -228856 -162280 0
;
#X text 171 423 signal;
#X text 171 482 signal;
#X text 159 520 1) float;
#X text 234 482 - distorted phasor output;
#X obj 272 155 hsl 128 15 0.5 100 1 0 empty empty empty -2 -8 0 10
-228856 -1 -1 0 1;
#X obj 170 277 cos~;
#X text 421 299 0;
#X text 418 220 1;
#X text 421 260 0.5;
#X text 418 393 -1;
#X text 419 352 0;
#X text 421 315 1;
#X text 135 447 float/signal;
#X text 65 244 kinked phase =>;
#X obj 2 4 cnv 15 553 42 empty empty empty 20 12 0 14 -233017 -66577
0;
#N canvas 0 22 450 278 (subpatch) 0;
#X coords 0 1 100 -1 554 42 1 0 0;
#X restore 2 3 graph;
#X obj 305 4 cnv 15 250 40 empty empty empty 12 13 0 18 -128992 -233080
0;
#N canvas 382 141 749 319 (subpatch) 0;
#X coords 0 -1 1 1 252 42 2 100 100;
#X restore 304 3 pd;
#X text 234 423 - phasor signal to be distorted by kinking it;
#X obj 17 56 cyclone/comment 0 14 DejaVu\ Sans\ Mono empty 0 0 0 0
0 255 255 255 0 0 Phase distortion;
#X obj 16 4 cyclone/comment 0 33 DejaVu\ Sans\ Mono empty 0 0 0 0 0
255 255 255 0 0 kink~;
#X obj 322 28 cyclone/comment 0 13 DejaVu\ Sans\ Mono empty 0 224 228
220 0 255 255 255 0 0 Objects cloned from Max/MSP;
#X obj 363 4 cyclone/comment 0 24 DejaVu\ Sans\ Mono empty 0 224 228
220 0 255 255 255 0 0 cyclone;
#X obj 127 338 ./out~;
#X text 320 154 slope;
#X text 87 90 Distort [phasor~] with [kink~]. If the phase input times
the slope is less than 0.5 \, the value is output. Otherwise \, a complentary
slope is used that goes from 0.5 to 1 (creating a bend or a "kink").
;
#X text 234 447 - slope (minimum 0);
#X text 234 520 - slope (default 1 - minimum 0);
#X obj 170 167 phasor~ 220;
#X obj 170 198 cyclone/kink~ 0.5;
#X obj 269 176 nbx 5 14 -1e+37 1e+37 0 0 empty empty empty 0 -8 0 10
-228856 -1 -1 0 256;
#X obj 499 69 cyclone/setdsp~;
#X obj 235 226 cyclone/scope~ 183 82 4 3 128 0 1 150 0 0 0 205 229
232 74 79 77 96 98 102 0 empty;
#X obj 237 320 cyclone/scope~ 180 81 4 3 128 -1 1 150 0 0 0 205 229
232 74 79 77 96 98 102 0 empty;
#X connect 11 0 37 0;
#X connect 12 0 30 0;
#X connect 12 0 30 1;
#X connect 12 0 40 0;
#X connect 35 0 36 0;
#X connect 36 0 12 0;
#X connect 36 0 39 0;
#X connect 37 0 36 1;
