#N canvas 568 44 561 608 10;
#X obj 6 582 cnv 15 552 21 empty empty empty 20 12 0 14 -233017 -33289
0;
#X obj 6 383 cnv 3 550 3 empty empty outlets 8 12 0 13 -228856 -1 0
;
#X obj 6 430 cnv 3 550 3 empty empty arguments 8 12 0 13 -228856 -1
0;
#X obj 81 324 cnv 17 3 50 empty empty 0 5 9 0 16 -228856 -162280 0
;
#X obj 80 393 cnv 17 3 30 empty empty 0 5 9 0 16 -228856 -162280 0
;
#X obj 6 315 cnv 3 550 3 empty empty inlets 8 12 0 13 -228856 -1 0
;
#X obj 6 470 cnv 3 550 3 empty empty attributes 8 12 0 13 -228856 -1
0;
#X text 157 326 bang;
#X text 204 442 - message to be sent (default "bang").;
#X obj 82 200 bng 18 250 50 0 empty empty empty 17 7 0 10 -228856 -1
-1;
#X text 117 442 1) anything;
#X text 134 393 anything;
#X msg 134 216 set bob;
#X msg 114 190 set blah 5 2 1 \, bang;
#X msg 313 222 set 1 2;
#X msg 376 221 set 3 4;
#X obj 7 535 cnv 3 550 3 empty empty more_info 8 12 0 13 -228856 -1
0;
#X obj 2 4 cnv 15 553 42 empty empty empty 20 12 0 14 -233017 -66577
0;
#N canvas 0 22 450 278 (subpatch) 0;
#X coords 0 1 100 -1 554 42 1 0 0;
#X restore 2 3 graph;
#X obj 305 4 cnv 15 250 40 empty empty empty 12 13 0 18 -128992 -233080
0;
#N canvas 382 141 749 319 (subpatch) 0;
#X coords 0 -1 1 1 252 42 2 100 100;
#X restore 304 3 pd;
#X text 79 97 [loadmess] outputs a message automatically when the patch
is loaded \, or when the patch is an abstraction of another patch that
is opened.;
#X text 80 144 Clicking on [loadmess] outputs its loaded message!;
#X text 199 325 - outputs its typed message;
#X text 97 345 set <anything>;
#X text 201 345 - set followed by any message sets the message held
by loadmess without any output;
#X text 144 480 @defer <0/1> (default: 0): when enabled \, the output
of the loadmess object is deferred (a loadmess with @defer 0 will be
sent before and have priority over @defer 1);
#X text 137 542 - if you start Pd with the "-noloadbang" flag \, [loadmess]
will not output values when you load a patch;
#X text 204 393 - the loaded message (when the patch is loaded or when
banged/clicked);
#X obj 114 245 cyclone/loadmess bob;
#X obj 278 190 cyclone/loadmess foo 99 bar;
#X obj 16 4 cyclone/comment 0 33 DejaVu\ Sans\ Mono empty 0 0 0 0 0
255 255 255 0 0 loadmess;
#X obj 17 56 cyclone/comment 0 14 DejaVu\ Sans\ Mono empty 0 0 0 0
0 255 255 255 0 0 Send a message when the patch is loaded;
#X obj 322 28 cyclone/comment 0 13 DejaVu\ Sans\ Mono empty 0 224 228
220 0 255 255 255 0 0 Objects cloned from Max/MSP;
#X obj 363 4 cyclone/comment 0 24 DejaVu\ Sans\ Mono empty 0 224 228
220 0 255 255 255 0 0 cyclone;
#X obj 313 254 cyclone/loadmess 3 4 @defer 1;
#X obj 278 282 print loadmess_defer;
#X obj 114 279 print loadmess;
#X connect 9 0 29 0;
#X connect 12 0 29 0;
#X connect 13 0 29 0;
#X connect 14 0 35 0;
#X connect 15 0 35 0;
#X connect 29 0 37 0;
#X connect 30 0 36 0;
#X connect 35 0 36 0;
