#N canvas 448 134 558 493 10;
#X obj 2 289 cnv 3 550 3 empty empty inlets 8 12 0 13 -228856 -1 0
;
#X obj 2 359 cnv 3 550 3 empty empty outlets 8 12 0 13 -228856 -1 0
;
#X obj 2 397 cnv 3 550 3 empty empty arguments 8 12 0 13 -228856 -1
0;
#X obj 101 299 cnv 17 3 30 empty empty 0 5 9 0 16 -228856 -162280 0
;
#X obj 101 334 cnv 17 3 17 empty empty n 5 9 0 16 -228856 -162280 0
;
#X obj 101 370 cnv 17 3 17 empty empty 0 5 9 0 16 -228856 -162280 0
;
#X floatatom 171 204 3 0 3 0 - - -;
#X obj 171 137 vradio 15 1 0 4 empty empty empty 0 -8 0 10 -228856
-1 -1 1;
#X text 159 137 0;
#X obj 2 473 cnv 1 550 1 empty empty empty 0 0 0 4 -262144 -262144
0;
#X obj 2 452 cnv 15 552 21 empty empty empty 20 12 0 14 -233017 -33289
0;
#X text 182 314 -;
#X text 149 314 bang;
#X text 182 298 -;
#X text 143 298 float;
#X text 182 334 -;
#X text 182 405 -;
#X text 124 405 1) float;
#X text 182 425 -;
#X text 124 425 2) float;
#X text 125 334 anything;
#X text 197 334 any message to pass through the switch, f 43;
#X text 197 298 sets which inlet is open (0 is all closed), f 43;
#X text 197 314 outputs the open outlet number, f 43;
#X text 125 370 anything;
#X obj 2 5 cnv 15 553 42 empty empty empty 20 12 0 14 -233017 -66577
0;
#N canvas 0 22 450 278 (subpatch) 0;
#X coords 0 1 100 -1 554 42 1 0 0;
#X restore 2 4 graph;
#X obj 305 5 cnv 15 250 40 empty empty empty 12 13 0 18 -128992 -233080
0;
#N canvas 382 141 749 319 (subpatch) 0;
#X coords 0 -1 1 1 252 42 2 100 100;
#X restore 304 4 pd;
#X obj 212 199 nbx 3 14 -1e+37 1e+37 0 0 empty empty empty 0 -8 0 10
-228856 -1 -1 0 256;
#X obj 253 199 nbx 3 14 -1e+37 1e+37 0 0 empty empty empty 0 -8 0 10
-228856 -1 -1 0 256;
#X obj 294 200 nbx 3 14 -1e+37 1e+37 0 0 empty empty empty 0 -8 0 10
-228856 -1 -1 0 256;
#X obj 129 182 bng 18 250 50 0 empty empty empty 17 7 0 10 -228856
-1 -1;
#X obj 171 260 nbx 5 14 -1e+37 1e+37 0 0 empty empty empty 0 -8 0 10
-228856 -1 -1 0 256;
#X text 159 152 1;
#X text 159 167 2;
#X text 159 182 3;
#X text 221 180 1;
#X text 261 180 2;
#X text 303 180 3;
#X text 61 90 [switch] outputs data from the inlet that's "switched
on". Just one inlet from 'n' inlets can send data \, or none of them.
;
#X text 192 137 <= select inlet (0 means all closed);
#N canvas 611 129 381 310 anything 0;
#X floatatom 79 153 3 0 3 0 - - -;
#X obj 79 86 vradio 15 1 0 4 empty empty empty 0 -8 0 10 -228856 -1
-1 1;
#X text 67 86 0;
#X text 67 101 1;
#X text 67 116 2;
#X text 67 131 3;
#X obj 79 212 cyclone/prepend set;
#X msg 79 248;
#X msg 232 113 1 2 3;
#X msg 243 139 list one 2 3;
#X floatatom 130 129 5 0 0 0 - - -;
#X symbolatom 106 108 10 0 0 0 - - -;
#X msg 192 123 x;
#X msg 181 99 a b c;
#X obj 79 176 cyclone/switch 3 1, f 26;
#X text 55 36 [switch] works with any kind of message;
#X connect 0 0 14 0;
#X connect 1 0 0 0;
#X connect 6 0 7 0;
#X connect 8 0 14 3;
#X connect 9 0 14 3;
#X connect 10 0 14 1;
#X connect 11 0 14 1;
#X connect 12 0 14 2;
#X connect 13 0 14 2;
#X connect 14 0 6 0;
#X restore 460 246 pd anything;
#X text 182 370 - message from the switched on inlet;
#X text 196 405 set the 'n' number of inlets (from 2 to 100 \, default
2);
#X text 196 425 inlet initially switched on (default 0 - all closed)
;
#X obj 171 227 cyclone/switch 3 1, f 21;
#X obj 17 58 cyclone/comment 0 14 DejaVu\ Sans\ Mono empty 0 0 0 0
0 255 255 255 0 0 Pass messages from a specific inlet;
#X obj 322 29 cyclone/comment 0 13 DejaVu\ Sans\ Mono empty 0 224 228
220 0 255 255 255 0 0 Objects cloned from Max/MSP;
#X obj 363 5 cyclone/comment 0 24 DejaVu\ Sans\ Mono empty 0 224 228
220 0 255 255 255 0 0 cyclone;
#X obj 16 5 cyclone/comment 0 33 DejaVu\ Sans\ Mono empty 0 0 0 0 0
255 255 255 0 0 switch;
#X connect 6 0 46 0;
#X connect 7 0 6 0;
#X connect 29 0 46 1;
#X connect 30 0 46 2;
#X connect 31 0 46 3;
#X connect 32 0 46 0;
#X connect 46 0 33 0;
