#N canvas 531 164 928 577 12;
#X declare -path else;
#N canvas 272 55 344 273 cutoff 0;
#X obj 109 225 outlet;
#X obj 101 101 cnv 15 150 65 empty empty Roll-off(Hz) 13 16 0 16 #000000
#fcfcfc 0;
#X obj 109 132 nbx 7 25 0 22050 0 0 \$0-freq \$0-freq-set empty 0 -8
0 19 #807060 #fcfcfc #000000 0 256;
#X obj 122 191 r \$0-Hz;
#X connect 2 0 0 0;
#X connect 3 0 0 0;
#X coords 0 -1 1 1 152 67 2 100 100;
#X restore 641 131 pd cutoff;
#N canvas 128 29 1029 378 (subpatch) 0;
#X obj 101 101 cnv 15 878 231 empty empty empty 18 9 1 15 #fcfcfc #000000
0;
#X obj 107 120 cnv 15 808 184 empty empty empty 20 12 0 14 #000000
#fcfcfc 0;
#X obj 114 131 hsl 795 28 0 127 0 0 \$0-freq-slider \$0-freq-slider-set
empty -2 -8 0 10 #dcdcdc #dcdcdc #000000 0 0;
#X obj 112 160 cnv 15 798 35 empty empty empty 20 12 0 14 #f8f8f8 #404040
0;
#X obj 112 196 cnv 15 798 34 empty empty empty 20 12 0 14 #e8e8ec #404040
0;
#X obj 112 231 cnv 15 798 35 empty empty empty 20 12 0 14 #f8f8f8 #404040
0;
#X obj 112 266 cnv 15 798 34 empty empty empty 20 12 0 14 #e8e8ec #404040
0;
#N canvas 391 118 975 563 (subpatch) 0;
#X array \$0-Passa-Baixa 400 float 1;
#A 0 -2.86102e-06 -0.0385714 -0.0626373 -0.081864 -0.0981512 -0.112381
-0.125068 -0.136549 -0.150658 -0.154326 -0.158047 -0.161826 -0.165661
-0.16955 -0.173496 -0.177493 -0.181547 -0.18565 -0.189809 -0.194019
-0.198281 -0.202593 -0.206956 -0.21137 -0.21583 -0.220341 -0.224899
-0.229504 -0.234157 -0.238853 -0.243596 -0.248382 -0.253211 -0.258083
-0.262998 -0.267951 -0.272946 -0.27798 -0.283055 -0.288166 -0.293315
-0.298499 -0.30372 -0.308975 -0.314265 -0.319587 -0.324943 -0.330329
-0.335747 -0.341195 -0.346673 -0.35218 -0.357715 -0.363276 -0.368864
-0.374479 -0.380118 -0.385782 -0.391471 -0.397182 -0.402917 -0.408673
-0.414451 -0.420249 -0.426069 -0.431907 -0.437764 -0.44364 -0.449535
-0.455447 -0.461375 -0.467321 -0.473282 -0.479259 -0.485251 -0.491258
-0.497279 -0.503313 -0.509361 -0.515422 -0.521495 -0.52758 -0.533677
-0.539786 -0.545905 -0.552035 -0.558176 -0.564327 -0.570487 -0.576656
-0.582835 -0.589022 -0.595218 -0.601423 -0.607635 -0.613854 -0.620082
-0.626316 -0.632557 -0.638806 -0.64506 -0.651321 -0.657588 -0.663861
-0.67014 -0.676424 -0.682714 -0.689008 -0.695308 -0.701612 -0.707921
-0.714235 -0.720552 -0.726875 -0.7332 -0.739531 -0.745864 -0.752202
-0.758543 -0.764887 -0.771235 -0.777586 -0.78394 -0.790296 -0.796656
-0.803019 -0.809384 -0.815751 -0.822122 -0.828494 -0.834869 -0.841246
-0.847626 -0.854007 -0.86039 -0.866776 -0.873163 -0.879552 -0.885943
-0.892335 -0.898729 -0.905125 -0.911522 -0.917921 -0.924321 -0.930722
-0.937125 -0.943529 -0.949934 -0.95634 -0.962748 -0.969157 -0.975566
-0.981977 -0.988388 -0.994801 -1 -1 -1 -1 -1 -1 -1 -1 -1 -1 -1 -1 -1
-1 -1 -1 -1 -1 -1 -1 -1 -1 -1 -1 -1 -1 -1 -1 -1 -1 -1 -1 -1 -1 -1 -1
-1 -1 -1 -1 -1 -1 -1 -1 -1 -1 -1 -1 -1 -1 -1 -1 -1 -1 -1 -1 -1 -1 -1
-1 -1 -1 -1 -1 -1 -1 -1 -1 -1 -1 -1 -1 -1 -1 -1 -1 -1 -1 -1 -1 -1 -1
-1 -1 -1 -1 -1 -1 -1 -1 -1 -1 -1 -1 -1 -1 -1 -1 -1 -1 -1 -1 -1 -1 -1
-1 -1 -1 -1 -1 -1 -1 -1 -1 -1 -1 -1 -1 -1 -1 -1 -1 -1 -1 -1 -1 -1 -1
-1 -1 -1 -1 -1 -1 -1 -1 -1 -1 -1 -1 -1 -1 -1 -1 -1 -1 -1 -1 -1 -1 -1
-1 -1 -1 -1 -1 -1 -1 -1 -1 -1 -1 -1 -1 -1 -1 -1 -1 -1 -1 -1 -1 -1 -1
-1 -1 -1 -1 -1 -1 -1 -1 -1 -1 -1 -1 -1 -1 -1 -1 -1 -1 -1 -1 -1 -1 -1
-1 -1 -1 -1 -1 -1 -1 -1 -1 -1 -1 -1 -1 -1 -1 -1 -1 -1 -1 -1 -1 -1 -1
-1 -1 -1 -1 -1 -1 -1 -1 -1 -1 -1 -1 -1 -1 -1 -1 -1 -1 -1 -1 -1 -1 -1
-1;
#X coords 0 0.2 399 -1 800 170 1;
#X restore 111 131 graph;
#N canvas 0 22 450 300 (subpatch) 0;
#X array \$0-Freq 400 float 1;
#A 0 -1 -1 -1 -1 -1 -1 -1 -1 -1 0 0 0 0 0 0 0 0 0 0 0 0 0 0 0 0 0 0
0 0 0 0 0 0 0 0 0 0 0 0 0 0 0 0 0 0 0 0 0 0 0 0 0 0 0 0 0 0 0 0 0 0
0 0 0 0 0 0 0 0 0 0 0 0 0 0 0 0 0 0 0 0 0 0 0 0 0 0 0 0 0 0 0 0 0 0
0 0 0 0 0 0 0 0 0 0 0 0 0 0 0 0 0 0 0 0 0 0 0 0 0 0 0 0 0 0 0 0 0 0
0 0 0 0 0 0 0 0 0 0 0 0 0 0 0 0 0 0 0 0 0 0 0 0 0 0 0 0 0 0 0 0 0 0
0 0 0 0 0 0 0 0 0 0 0 0 0 0 0 0 0 0 0 0 0 0 0 0 0 0 0 0 0 0 0 0 0 0
0 0 0 0 0 0 0 0 0 0 0 0 0 0 0 0 0 0 0 0 0 0 0 0 0 0 0 0 0 0 0 0 0 0
0 0 0 0 0 0 0 0 0 0 0 0 0 0 0 0 0 0 0 0 0 0 0 0 0 0 0 0 0 0 0 0 0 0
0 0 0 0 0 0 0 0 0 0 0 0 0 0 0 0 0 0 0 0 0 0 0 0 0 0 0 0 0 0 0 0 0 0
0 0 0 0 0 0 0 0 0 0 0 0 0 0 0 0 0 0 0 0 0 0 0 0 0 0 0 0 0 0 0 0 0 0
0 0 0 0 0 0 0 0 0 0 0 0 0 0 0 0 0 0 0 0 0 0 0 0 0 0 0 0 0 0 0 0 0 0
0 0 0 0 0 0 0 0 0 0 0 0 0 0 0 0 0 0 0 0 0 0 0 0 0 0 0 0 0 0 0 0 0;
#X coords 0 0 399 -1 800 170 1;
#X restore 111 131 graph;
#N canvas 0 22 450 278 (subpatch) 0;
#X coords 0 1 100 -1 100 170 1;
#X restore 129 131 graph;
#N canvas 0 22 450 278 (subpatch) 0;
#X coords 0 1 100 -1 77 170 1;
#X restore 229 131 graph;
#N canvas 0 22 450 278 (subpatch) 0;
#X coords 0 1 100 -1 80 170 1;
#X restore 306 131 graph;
#N canvas 0 22 450 278 (subpatch) 0;
#X coords 0 1 100 -1 102 170 1;
#X restore 386 131 graph;
#N canvas 0 22 450 278 (subpatch) 0;
#X coords 0 1 100 -1 78 170 1;
#X restore 488 131 graph;
#N canvas 0 22 450 278 (subpatch) 0;
#X coords 0 1 100 -1 78 170 1;
#X restore 566 131 graph;
#N canvas 0 22 450 278 (subpatch) 0;
#X coords 0 1 100 -1 103 170 1;
#X restore 644 131 graph;
#N canvas 0 22 450 278 (subpatch) 0;
#X coords 0 1 100 -1 78 170 1;
#X restore 747 131 graph;
#N canvas 0 22 450 278 (subpatch) 0;
#X coords 0 1 100 -1 78 170 1;
#X restore 825 131 graph;
#X text 817 133 10;
#X text 894 134 20;
#X text 742 133 5;
#X text 639 133 2;
#X text 561 134 1;
#X text 475 134 0.5;
#X text 373 134 0.2;
#X text 293 134 0.1;
#X text 216 134 0.05;
#X text 116 134 0.02;
#X obj 104 107 cnv 15 815 20 empty \$0-label 0.020Khz 18 9 1 15 #fcfcfc
#000000 0;
#X text 918 257 -18;
#X text 917 290 -24;
#X text 923 150 0;
#X obj 478 311 cnv 15 15 15 empty empty Kilohertz 18 9 1 16 #fcfcfc
#000000 0;
#N canvas 679 111 212 339 plot 0;
#N canvas 77 175 537 367 init 0;
#X obj 77 21 loadbang;
#X obj 78 272 s \$0-dbrange;
#X obj 254 97 samplerate~;
#X obj 254 120 v sr_\$0;
#X msg 146 92 1;
#X obj 146 117 atan;
#X obj 146 167 v pi_\$0;
#X obj 146 143 * 4;
#X msg 121 208 400;
#X obj 357 87 table re1_\$0 400;
#X obj 357 107 table im1_\$0 400;
#X obj 357 127 table re2_\$0 400;
#X obj 357 147 table im2_\$0 400;
#N canvas 699 151 437 478 get-complex-freqs 0;
#X msg 232 232 resize \$1;
#X obj 281 276 s re1_\$0;
#X obj 267 301 s im1_\$0;
#X obj 256 332 s re2_\$0;
#X obj 247 362 s im2_\$0;
#X obj 12 299 tabwrite re1_\$0;
#X obj 108 394 tabwrite im2_\$0;
#X obj 232 393 s amp_\$0;
#X obj 50 80 change;
#X obj 251 171 v table_size_\$0;
#X obj 50 113 trigger bang float;
#X obj 232 206 change 400;
#X obj 50 43 inlet;
#X obj 76 363 tabwrite re2_\$0;
#X obj 43 335 tabwrite im1_\$0;
#X obj 50 182 expr cos($f1) \; sin($f1) \; cos($f1 * 2) \; sin($f1
* 2) \; $f2;
#N canvas 11 46 935 668 loop 0;
#X obj 106 192 until;
#X obj 144 241 + 1;
#X msg 124 216 0;
#X obj 106 95 t f f;
#X obj 483 216 until;
#X obj 529 265 + 1;
#X msg 501 241 0;
#X obj 106 270 t f f;
#X obj 211 355 +;
#X obj 106 370 mtof;
#X obj 106 144 t f b f;
#X obj 483 191 t f b f;
#X obj 483 326 /;
#X obj 106 31 inlet;
#X obj 106 574 outlet;
#X obj 259 583 outlet;
#X obj 483 144 expr table_size_\$0 - $f1;
#X obj 483 265 f;
#X obj 106 241 f;
#X obj 483 296 trigger f f;
#X obj 106 63 expr rint(table_size_\$0 * 0.98);
#X obj 483 407 * 20.6017;
#X text 556 407 MIDI 16;
#X obj 483 498 expr $f1 * (2 * -pi_\$0) / 44100;
#X obj 106 465 expr $f1 * (2 * -pi_\$0) / 44100;
#X obj 86 33 bng 15 250 50 0 empty empty empty 17 7 0 10 #fcfcfc #000000
#000000;
#X obj 106 298 expr (($f1 + 1) * (midi_range_\$0 / $f2)) + 16;
#X obj 483 379 pow 0.4;
#X connect 0 0 18 0;
#X connect 1 0 18 1;
#X connect 2 0 18 1;
#X connect 3 0 10 0;
#X connect 3 1 16 0;
#X connect 4 0 17 0;
#X connect 5 0 17 1;
#X connect 6 0 17 1;
#X connect 7 0 26 0;
#X connect 7 1 8 0;
#X connect 8 0 15 0;
#X connect 9 0 24 0;
#X connect 10 0 0 0;
#X connect 10 1 2 0;
#X connect 10 2 26 1;
#X connect 11 0 4 0;
#X connect 11 1 6 0;
#X connect 11 2 12 1;
#X connect 12 0 27 0;
#X connect 13 0 20 0;
#X connect 16 0 8 1;
#X connect 16 0 11 0;
#X connect 17 0 5 0;
#X connect 17 0 19 0;
#X connect 18 0 1 0;
#X connect 18 0 7 0;
#X connect 19 0 12 0;
#X connect 19 1 15 0;
#X connect 20 0 3 0;
#X connect 21 0 23 0;
#X connect 23 0 14 0;
#X connect 24 0 14 0;
#X connect 25 0 20 0;
#X connect 26 0 9 0;
#X connect 27 0 21 0;
#X restore 50 143 pd loop;
#X connect 0 0 1 0;
#X connect 0 0 2 0;
#X connect 0 0 3 0;
#X connect 0 0 4 0;
#X connect 0 0 7 0;
#X connect 8 0 10 0;
#X connect 10 0 16 0;
#X connect 10 1 9 0;
#X connect 10 1 11 0;
#X connect 11 0 0 0;
#X connect 12 0 8 0;
#X connect 15 0 5 0;
#X connect 15 1 14 0;
#X connect 15 2 13 0;
#X connect 15 3 6 0;
#X connect 15 4 5 1;
#X connect 15 4 14 1;
#X connect 15 4 13 1;
#X connect 15 4 6 1;
#X connect 16 0 15 0;
#X connect 16 1 15 1;
#X restore 121 236 pd get-complex-freqs;
#X text 151 208 array size;
#X obj 29 304 s \$0-freq-set;
#X obj 77 57 trigger b b b;
#X msg 263 53 \; pd dsp 1;
#X msg 29 273 20;
#X msg 78 239 24;
#X obj 245 199 v midi_range_\$0;
#X obj 245 173 ftom;
#X msg 245 147 8750.55;
#X connect 0 0 16 0;
#X connect 2 0 3 0;
#X connect 4 0 5 0;
#X connect 5 0 7 0;
#X connect 7 0 6 0;
#X connect 8 0 13 0;
#X connect 16 0 18 0;
#X connect 16 1 8 0;
#X connect 16 1 19 0;
#X connect 16 2 2 0;
#X connect 16 2 4 0;
#X connect 16 2 17 0;
#X connect 16 2 22 0;
#X connect 18 0 15 0;
#X connect 19 0 1 0;
#X connect 21 0 20 0;
#X connect 22 0 21 0;
#X restore 122 116 pd init \; tables;
#N canvas 67 23 1040 236 Z-Transform 0;
#X obj 45 19 inlet;
#X obj 45 200 outlet;
#X obj 45 164 expr sqrt($f1*$f1 + $f2*$f2) / sqrt($f3*$f3 + $f4*$f4)
;
#X text 340 44 (a1) a2 (b1) b2 b3;
#X obj 45 74 expr $f4 + ($f5 * re1_\$0[$f1]) + ($f6 * re2_\$0[$f1])
\; ($f5 * im1_\$0[$f1]) + ($f6 * im2_\$0[$f1]) \; 1 - ($f2 * re1_\$0[$f1])
- ($f3 * re2_\$0[$f1]) \; 0 - ($f2 * im1_\$0[$f1]) - ($f3 * im2_\$0[$f1])
;
#X text 428 75 b1 + (b2 * re1) + (b3 * re2) = reI;
#X text 463 90 (b2 * im1) + (b3 * im2) = imI;
#X text 435 105 1 - (a1 * re1) + (a2 * re2) = reII;
#X text 435 119 0 - (a1 * im1) + (a2 * im2) = imII;
#X text 20 144 reI;
#X text 143 143 imI;
#X text 256 143 reII;
#X text 384 142 imII;
#X text 439 166 ampI / ampII;
#X obj 211 45 unpack f f f f f;
#X obj 211 18 inlet;
#X text 92 20 index;
#X text 260 18 coefficientes;
#X obj 698 68 cnv 15 320 90 empty empty empty 20 12 0 14 #e0e0e0 #404040
0;
#X text 728 97 H(z) = b1 + (b2 * z^-1) + (b3 * z^-2);
#X text 768 103 _________________________________;
#X text 785 119 1 + (a1 * z^-1) + (a2 * z^-2);
#X text 711 75 Z-Transform:;
#X connect 0 0 4 0;
#X connect 2 0 1 0;
#X connect 4 0 2 0;
#X connect 4 1 2 1;
#X connect 4 2 2 2;
#X connect 4 3 2 3;
#X connect 14 0 4 1;
#X connect 14 1 4 2;
#X connect 14 2 4 3;
#X connect 14 3 4 4;
#X connect 14 4 4 5;
#X connect 15 0 14 0;
#X restore 24 205 pd Z-Transform;
#X obj 24 178 trigger float float;
#X obj 24 106 t bang list;
#N canvas 0 22 181 220 loop 0;
#X obj 28 100 until;
#X obj 68 138 + 1;
#X msg 72 100 0;
#X obj 28 137 f;
#X obj 28 13 inlet;
#X obj 28 173 outlet;
#X obj 28 42 trigger b b;
#X obj 28 71 v table_size_\$0;
#X connect 0 0 3 0;
#X connect 1 0 3 1;
#X connect 2 0 3 1;
#X connect 3 0 1 0;
#X connect 3 0 5 0;
#X connect 4 0 6 0;
#X connect 6 0 7 0;
#X connect 6 1 2 0;
#X connect 7 0 0 0;
#X restore 24 140 pd loop;
#X obj 24 265 tabwrite \$0-Passa-Baixa;
#N canvas 121 22 226 277 db-range 0;
#X obj 42 31 inlet;
#X obj 42 61 rmstodb;
#X obj 42 90 - 100;
#X obj 98 61 r \$0-dbrange;
#X obj 108 109 * -1;
#X obj 41 147 clip;
#X obj 80 183 /;
#X obj 80 216 outlet;
#X connect 0 0 1 0;
#X connect 1 0 2 0;
#X connect 2 0 5 0;
#X connect 3 0 4 0;
#X connect 3 0 5 2;
#X connect 3 0 6 1;
#X connect 4 0 5 1;
#X connect 5 0 6 0;
#X connect 6 0 7 0;
#X restore 24 235 pd db-range;
#N canvas 254 316 461 275 coefficientes 0;
#X obj 44 201 outlet;
#X obj 44 21 inlet;
#X obj 44 108 t f f;
#X obj 44 138 expr 1 - $f1;
#X obj 44 167 pack f 0 f 0 0;
#X text 152 167 (a1) a2 (b1) b2 b3;
#X text 281 50 Hz to Radians;
#X obj 44 50 expr ($f1 / sr_\$0) * (2 * pi_\$0);
#X obj 44 78 clip 0 1;
#X connect 1 0 7 0;
#X connect 2 0 3 0;
#X connect 2 1 4 2;
#X connect 3 0 4 0;
#X connect 4 0 0 0;
#X connect 7 0 8 0;
#X connect 8 0 2 0;
#X restore 24 76 pd coefficientes;
#N canvas 184 24 1109 694 freq/GUI 0;
#X msg 70 395 -1;
#X obj 70 426 tabwrite \$0-Freq;
#X obj 70 228 t f b;
#X msg 382 438 const 0;
#X obj 382 466 s \$0-Freq;
#X obj 333 72 r \$0-freq-slider;
#X obj 240 234 r \$0-freq;
#X obj 286 643 outlet;
#X obj 70 99 r \$0-freq-slider;
#X obj 473 489 s \$0-freq-slider-set;
#X msg 473 461 set \$1;
#X obj 108 130 r \$0-freq-slider-set;
#X obj 108 160 route set;
#X obj 366 519 s \$0-Passa-Baixa;
#X msg 366 491 const -1;
#X obj 415 187 mtof;
#X floatatom 415 216 0 0 0 0 - - - 0;
#X obj 415 158 expr ($f1 * midi_range_\$0) + 16;
#X obj 333 161 pow 0.4;
#X obj 333 188 * 20.6017;
#X obj 415 265 s \$0-freq-set;
#X obj 70 189 expr rint(($f1 / 127) * 400);
#X obj 473 310 ftom;
#X obj 473 367 / 16;
#X obj 473 396 * 3;
#X obj 526 387 expr (($f1 - 16) / midi_range_\$0) * 124 + 3;
#X obj 473 339 moses 16;
#X msg 415 241 set \$1;
#X obj 366 265 sel 0;
#X obj 240 272 sel 0;
#X msg 437 396 0;
#X obj 70 315 f;
#X obj 102 324 + 1;
#X obj 70 281 until;
#X msg 119 283 0;
#X obj 70 253 t float bang;
#X obj 70 351 t b f;
#X obj 333 107 moses 2.54;
#X obj 333 136 / 2.54;
#X obj 665 436 r \$0-freq-slider;
#X obj 665 470 / 127;
#X obj 665 500 * 800;
#X obj 665 576 s \$0-label;
#X msg 665 532 label_pos \$1 9;
#X obj 415 132 expr ($f1 - 2.54) / 124.46;
#X obj 847 416 pack f f;
#X msg 819 483 label \$1.\$2Khz;
#X obj 847 365 expr int($f1 / 1000) \; $f1 % 1000;
#X obj 819 525 spigot;
#X obj 991 464 > 100;
#X obj 952 527 spigot;
#X msg 847 449 label \$1.0\$2Khz;
#X obj 991 499 expr 1 - $f1;
#X obj 847 295 route set;
#X obj 847 263 r \$0-freq-set;
#X obj 899 335 s \$0-Hz;
#X obj 736 264 r \$0-freq;
#X obj 473 428 max 0;
#X obj 736 295 expr rint($f1);
#X connect 0 0 1 0;
#X connect 2 0 35 0;
#X connect 2 1 3 0;
#X connect 3 0 4 0;
#X connect 5 0 37 0;
#X connect 6 0 29 0;
#X connect 8 0 21 0;
#X connect 10 0 9 0;
#X connect 11 0 12 0;
#X connect 12 0 21 0;
#X connect 14 0 13 0;
#X connect 15 0 16 0;
#X connect 16 0 27 0;
#X connect 16 0 28 0;
#X connect 17 0 15 0;
#X connect 18 0 19 0;
#X connect 19 0 16 0;
#X connect 21 0 2 0;
#X connect 22 0 26 0;
#X connect 23 0 24 0;
#X connect 24 0 57 0;
#X connect 25 0 10 0;
#X connect 25 0 40 0;
#X connect 26 0 23 0;
#X connect 26 1 25 0;
#X connect 27 0 20 0;
#X connect 28 0 14 0;
#X connect 28 0 3 0;
#X connect 28 1 7 0;
#X connect 29 0 14 0;
#X connect 29 0 3 0;
#X connect 29 0 30 0;
#X connect 29 1 7 0;
#X connect 29 1 22 0;
#X connect 30 0 10 0;
#X connect 30 0 40 0;
#X connect 31 0 32 0;
#X connect 31 0 36 0;
#X connect 32 0 31 1;
#X connect 33 0 31 0;
#X connect 34 0 31 1;
#X connect 35 0 33 0;
#X connect 35 1 34 0;
#X connect 36 0 0 0;
#X connect 36 1 1 1;
#X connect 37 0 38 0;
#X connect 37 1 44 0;
#X connect 38 0 18 0;
#X connect 39 0 40 0;
#X connect 40 0 41 0;
#X connect 41 0 43 0;
#X connect 43 0 42 0;
#X connect 44 0 17 0;
#X connect 45 0 46 0;
#X connect 45 0 51 0;
#X connect 46 0 48 0;
#X connect 47 0 45 0;
#X connect 47 1 45 1;
#X connect 47 1 49 0;
#X connect 48 0 42 0;
#X connect 49 0 48 1;
#X connect 49 0 52 0;
#X connect 50 0 42 0;
#X connect 51 0 50 0;
#X connect 52 0 50 1;
#X connect 53 0 47 0;
#X connect 53 0 55 0;
#X connect 53 1 47 0;
#X connect 54 0 53 0;
#X connect 56 0 58 0;
#X connect 57 0 10 0;
#X connect 57 0 40 0;
#X connect 58 0 47 0;
#X restore 24 48 pd freq/GUI;
#X connect 1 0 6 0;
#X connect 2 0 1 0;
#X connect 2 1 5 1;
#X connect 3 0 4 0;
#X connect 3 1 1 1;
#X connect 4 0 2 0;
#X connect 6 0 5 0;
#X connect 7 0 3 0;
#X connect 8 0 7 0;
#X restore 125 57 pd plot;
#X obj 931 222 cnv 15 15 15 empty empty dB 18 9 1 17 #fcfcfc #000000
0;
#X text 919 185 -6;
#X text 917 220 -12;
#X coords 0 -1 1 1 880 233 2 100 100;
#X restore 33 315 pd;
#X obj 616 208 lop~;
#X obj 568 155 noise~;
#X text 426 44 Let's check the frequency response of [lop~] below.
You can click and drag in the upper gray area \, it acts as a slider.
This example considers a sample rate of 44.1 Khz. Listen to the patch
below \, where we filter a white noise source., f 66;
#X text 36 86 We can also call it the "roll off" frequency \, denoting
it represents a frequency point in a transition band between a passband
and a stopband \, which is true because we can see how the filter is
already acting at this frequency point., f 53;
#X text 36 173 Actually \, the filter starts acting right at 0 Hz and
we have about 3 dB loss at the roll off frequency. After this point
\, there's a loss of 6 dB per octave. But the behaviour changes over
5 khz., f 53;
#X text 40 488 Frequency Response:;
#X obj 737 9 declare -path else;
#X obj 616 241 out~;
#X text 36 13 The vanilla [lop~] (from "lowpass") is a simple low pass
filter. It receives a cutoff frequency \, which is the point after
which the frequencies are filtered out - only letting through the lower
frequencies., f 53;
#X text 36 244 Lowpass filters like this are also used to smoothen
data signals from things like sensors or as envelope followers as well.
, f 57;
#X connect 0 0 2 1;
#X connect 2 0 9 0;
#X connect 3 0 2 0;
