#N canvas 508 63 586 646 12;
#X declare -path else;
#X obj 82 285 hradio 15 1 0 10 empty \$0-size empty 0 -8 0 10 -228856
-1 -1 4;
#X obj 82 333 nbx 5 14 64 1e+37 0 0 \$0-w_size \$0-w_size-set empty
0 -8 0 10 -228856 -1 -1 2048 256;
#N canvas 535 343 363 276 Window 0;
#X obj 123 198 s \$0-set-block;
#X obj 91 78 t b f;
#X obj 123 144 v w_size_\$0;
#X obj 91 45 inlet;
#X msg 123 171 set \$1 4;
#X obj 183 73 initmess \; \$0-size 4 \; \$0-xfade 0;
#X connect 1 0 2 0;
#X connect 1 1 2 0;
#X connect 2 0 4 0;
#X connect 3 0 1 0;
#X connect 4 0 0 0;
#X coords 0 0 1 1 120 60 0;
#X restore 82 355 pd Window;
#X obj 82 308 expr pow(2 \, $f1 + 7);
#X obj 268 326 out~;
#X obj 406 326 out~;
#X obj 167 564 out~;
#N canvas 413 239 432 499 Morph 0;
#X obj 108 42 inlet~;
#X obj 176 41 inlet~;
#X obj 105 451 outlet~;
#X obj 267 41 inlet;
#X floatatom 267 173 8 0 0 0 - - -;
#X obj 105 323 rifft~;
#X obj 176 174 rfft~;
#X obj 108 174 rfft~;
#X obj 233 298 r \$0-set-block;
#X obj 233 323 block~;
#X obj 105 406 expr~ $v1 / (w_size_\$0 * 1.5);
#X obj 176 210 mag~;
#X obj 97 210 car2pol~;
#X obj 97 293 pol2car~;
#X obj 108 127 hann~;
#X obj 105 365 hann~;
#X obj 176 127 hann~;
#X obj 97 266 xfade~;
#X obj 267 212 f2s~ 10;
#X connect 0 0 14 0;
#X connect 1 0 16 0;
#X connect 3 0 4 0;
#X connect 4 0 18 0;
#X connect 5 0 15 0;
#X connect 6 0 11 0;
#X connect 6 1 11 1;
#X connect 7 0 12 0;
#X connect 7 1 12 1;
#X connect 8 0 9 0;
#X connect 10 0 2 0;
#X connect 11 0 17 1;
#X connect 12 0 17 0;
#X connect 12 1 13 1;
#X connect 13 0 5 0;
#X connect 13 1 5 1;
#X connect 14 0 7 0;
#X connect 15 0 10 0;
#X connect 16 0 6 0;
#X connect 17 0 13 0;
#X connect 18 0 17 2;
#X restore 167 516 pd Morph;
#X obj 268 286 r~ \$0-A;
#X obj 406 289 r~ \$0-B;
#X obj 114 443 r~ \$0-A;
#X obj 193 444 r~ \$0-B;
#X obj 125 171 s~ \$0-A;
#X obj 125 229 s~ \$0-B;
#X obj 295 447 hsl 128 15 -1 1 0 0 empty \$0-xfade empty -2 -8 0 10
-228856 -1 -1 6350 1;
#X obj 292 474 nbx 5 14 -1e+37 1e+37 0 0 empty empty empty 0 -8 0 10
-228856 -1 -1 0 256;
#X text 274 443 A;
#X text 428 445 B (cross synthesis);
#X text 145 332 window size;
#X text 100 516 click =>;
#X obj 385 23 declare -path else;
#X obj 125 145 play.file~ 1 kantele.wav 1 1;
#X obj 125 203 play.file~ numbers.wav 1 1;
#X text 74 64 In this variation we "morph" from one amplitude to another
\, but it's just a simple crossfade. This goes from a original sound
to a cross synthesis. Open the [pd Morph] subpatch for more details.
;
#X connect 0 0 3 0;
#X connect 1 0 2 0;
#X connect 3 0 1 0;
#X connect 7 0 6 0;
#X connect 8 0 4 0;
#X connect 9 0 5 0;
#X connect 10 0 7 0;
#X connect 11 0 7 1;
#X connect 14 0 15 0;
#X connect 15 0 7 2;
#X connect 21 0 12 0;
#X connect 22 0 13 0;
