#N canvas 829 455 588 423 10;
#X obj 240 51 f \$2;
#X obj 197 207 t b f;
#X obj 197 165 r \$1-s-\$3;
#X obj 197 251 s \$1-write;
#X obj 224 229 text set \$1-parameters;
#X obj 197 186 change;
#X obj 240 93 t f f;
#X obj 240 114 text get \$1-parameters;
#X obj 240 30 r \$1-loadbang-1;
#X obj 240 135 s \$1-r-\$3;
#X obj 240 72 - 1;
#X connect 0 0 10 0;
#X connect 1 0 3 0;
#X connect 1 1 4 0;
#X connect 2 0 5 0;
#X connect 5 0 1 0;
#X connect 6 0 7 0;
#X connect 6 1 4 1;
#X connect 7 0 9 0;
#X connect 8 0 0 0;
#X connect 10 0 6 0;
