#N canvas 260 23 948 571 12;
#X declare -path else;
#X obj 193 191 nbx 5 14 -1e+37 1e+37 0 0 bkjhgk hfjhgd empty 0 -8 0
10 #dcdcdc #000000 #000000 0 256;
#X obj 193 320 *~;
#X text 170 190 Hz;
#X obj 269 174 hsl 128 17 -100 0 0 0 empty db empty -2 -8 0 10 #dcdcdc
#000000 #000000 0 1;
#X obj 193 215 osc~ 440;
#X text 338 201 dBFS;
#X obj 193 369 meter~;
#X obj 193 528 dac~;
#X obj 269 363 graph~;
#X text 344 255 Linear Amplitude;
#X text 50 255 Oscillator (values between -1 e 1) ==>, f 19;
#X text 221 320 Multiply between 0-1 to adjust gain!;
#X obj 732 22 declare -path else;
#X text 19 17 If we multiply the output of an oscillator with values
between 0 and 1 \, we have a gain adjustment that goes from silence
(multiply by 0) to the original input (multiply by 1). If we multiply
it with values greater than one \, we increase the original gain \, which
can cause clipping distortion., f 72;
#X obj 81 335 setdsp~;
#X obj 610 196 nbx 5 14 -1e+37 1e+37 0 0 bkjhgk hfjhgd empty 0 -8 0
10 #dcdcdc #000000 #000000 0 256;
#X obj 610 315 *~;
#X text 587 195 Hz;
#X obj 704 172 hsl 128 17 -100 0 0 0 empty db empty -2 -8 0 10 #dcdcdc
#000000 #000000 0 1;
#X obj 610 220 osc~ 440;
#X text 840 172 dBFS;
#X obj 610 364 meter~;
#X obj 610 523 dac~;
#X obj 686 358 graph~;
#X text 775 250 Linear Amplitude;
#X obj 701 225 db2lin~;
#X obj 701 199 numbox~ 6 12 100 #c0c0c4 #440008 10 0 0 -100;
#X obj 701 252 numbox~ 6 12 100 #c0c0c4 #440008 10 0 0 0;
#X obj 266 227 db2lin;
#X floatatom 266 201 8 0 0 0 - - - 0;
#X floatatom 266 253 9 0 0 0 - - - 0;
#X obj 266 278 f2s~ 10;
#X text 19 84 Since our perception is non linear \, we can adopt a
logarithmic scale to adjust the gain \, such as with [db2lin] below.
The [float2sig~] object (or just [f2s~]) is also needed to smoothen
the signal \, as gain changes cannot be abrupt because it generates
audible clicks., f 72;
#X text 775 197 <-- [numbox~];
#X text 567 59 Note you can use [numbox~] which already has a built
in "ramp" function to smoothen the signal generated by the object.
This means you don't need any [line~] or [f2s~] object when converting
to audio. Right click for properties and see the "ramp" parameter (10
ms by default)., f 50;
#X connect 0 0 4 0;
#X connect 1 0 6 0;
#X connect 1 0 8 0;
#X connect 3 0 29 0;
#X connect 4 0 1 0;
#X connect 6 0 7 0;
#X connect 6 0 7 1;
#X connect 15 0 19 0;
#X connect 16 0 21 0;
#X connect 16 0 23 0;
#X connect 18 0 26 0;
#X connect 19 0 16 0;
#X connect 21 0 22 0;
#X connect 21 0 22 1;
#X connect 25 0 27 0;
#X connect 26 0 25 0;
#X connect 27 0 16 1;
#X connect 28 0 30 0;
#X connect 29 0 28 0;
#X connect 30 0 31 0;
#X connect 31 0 1 1;
