#N canvas 520 23 454 589 12;
#X declare -path else;
#X obj 119 178 osc~ 440;
#X obj 142 32 declare -path else;
#X obj 147 390 osc~ 440;
#X obj 105 431 out4~;
#X obj 286 390 osc~ 440;
#X obj 246 431 out8~;
#X text 105 495 quadraphonic;
#X text 264 491 octaphonic;
#X text 75 308 There are also [out4~] and [out8~] for quadraphonic
and octaphonic input/output setups., f 40;
#X obj 119 219 out1~;
#X text 94 113 The ELSE library also offers [out1~] for mono input/output.
, f 36;
#X text 190 177 mono input;
#X connect 0 0 9 0;
#X connect 2 0 3 0;
#X connect 2 0 3 1;
#X connect 2 0 3 2;
#X connect 2 0 3 3;
#X connect 4 0 5 0;
#X connect 4 0 5 1;
#X connect 4 0 5 2;
#X connect 4 0 5 3;
#X connect 4 0 5 4;
#X connect 4 0 5 5;
#X connect 4 0 5 6;
#X connect 4 0 5 7;
