#N canvas 658 102 516 593 12;
#X declare -path else;
#X floatatom 298 261 8 0 0 0 - - -;
#X obj 280 321 *~;
#X obj 298 203 nbx 5 17 -1e+37 1e+37 0 0 empty empty empty 0 -8 0 13
-228856 -1 -1 0 256;
#X text 273 203 dB;
#X text 60 548 original;
#X obj 298 234 db2lin;
#X obj 60 405 meter~;
#X obj 184 404 meter~;
#X obj 280 414 out~;
#X text 180 547 adjusted;
#X text 45 60 This example shows how to adjust the gain of an incoming
audio \, in this case from a sample. The adjustment is made with a
dB input and using [db2lin] to convert it to a ratio., f 57;
#X text 359 261 Ratio;
#X text 312 321 gain adjustment;
#X obj 298 292 f2s~ 10 1;
#X text 44 162 Compare the VU meter of the original sound with the
gain adjusted one.;
#X obj 303 26 declare -path else;
#X obj 61 256 play.file~ bubul.wav 1 1;
#X text 44 123 This way we can add gain (or boost it) with positive
dB values or decrease its intensity with negative values., f 57;
#X connect 0 0 13 0;
#X connect 1 0 7 0;
#X connect 1 0 8 0;
#X connect 2 0 5 0;
#X connect 5 0 0 0;
#X connect 13 0 1 1;
#X connect 16 0 1 0;
#X connect 16 0 6 0;
