#N canvas 405 26 912 545 12;
#X declare -path else;
#X obj 407 407 bng 20 250 50 0 empty empty empty 17 7 0 10 #dcdcdc
#000000 #000000;
#X floatatom 756 195 6 0 100 0 - hz - 0;
#X obj 646 331 +~;
#X obj 664 306 samphold~;
#X obj 664 213 samphold~;
#X obj 646 265 *~;
#X obj 646 358 tabread4~ \$0-buffer, f 9;
#X obj 738 411 *~;
#X floatatom 274 257 6 0 100 0 - hz - 0;
#X obj 178 361 +~;
#X obj 157 328 *~;
#X obj 178 390 tabread4~ \$0-buffer, f 9;
#X text 324 257 Hz;
#X obj 256 439 *~;
#X text 762 176 Hz;
#X obj 756 218 phasor~;
#X obj 274 281 phasor~;
#X floatatom 196 229 6 0 0 0 - - - 0;
#X floatatom 118 207 6 0 0 0 - grain - 0;
#X floatatom 664 160 6 0 0 0 - grain - 0;
#X floatatom 586 204 6 0 0 0 - grain - 0;
#X obj 274 390 envelope~;
#X obj 256 474 out~;
#X obj 738 445 out~;
#X obj 756 368 envelope~;
#X obj 118 233 ms2samps;
#X obj 196 261 ms2samps;
#X text 249 229 position (ms);
#X text 166 203 grain size (ms);
#X text 40 23 The basis of granular processes is to play small audio
snippets \, called "grains". In this example a [phasor~] reads grains
from a buffer in a loop at a given frequency. The same [phasor~] controls
an envelope of the grain. The envelope is essential to avoid clicks.
In this example we use a sine function \, which is the default of the
[envelope] object - open its help file for more details., f 59;
#N canvas 790 23 285 190 buffer 0;
#X obj 41 60 openpanel;
#X obj 41 29 inlet;
#X obj 41 125 sample~ \$0-buffer bubul.wav;
#X msg 41 89 load \$1;
#X obj 137 51 initmess \; hz 1 \; grain 500;
#X connect 0 0 3 0;
#X connect 1 0 0 0;
#X connect 3 0 2 0;
#X restore 407 456 pd buffer;
#X obj 586 229 ms2samps;
#X obj 664 184 ms2samps;
#X text 488 79 In order to avoid clicks when adjusting grain size and
position \, we can use [samphold~] \, which will only let a new value
through at period transitions., f 54;
#X text 432 406 <=;
#X text 453 407 load another file into the buffer, f 17;
#X text 518 203 position;
#X text 627 160 size;
#X obj 708 31 declare -path else;
#X text 40 129 Besides the frequency \, we have a grain size parameter
in ms and its position in the buffer also in ms (both values are converted
to samples and read as indexes). The grain size and frequency affect
the output pitch.;
#X connect 0 0 30 0;
#X connect 1 0 15 0;
#X connect 2 0 6 0;
#X connect 3 0 2 1;
#X connect 4 0 5 1;
#X connect 5 0 2 0;
#X connect 6 0 7 0;
#X connect 7 0 23 0;
#X connect 8 0 16 0;
#X connect 9 0 11 0;
#X connect 10 0 9 0;
#X connect 11 0 13 0;
#X connect 13 0 22 0;
#X connect 15 0 3 1;
#X connect 15 0 4 1;
#X connect 15 0 5 0;
#X connect 15 0 24 0;
#X connect 16 0 10 0;
#X connect 16 0 21 0;
#X connect 17 0 26 0;
#X connect 18 0 25 0;
#X connect 19 0 32 0;
#X connect 20 0 31 0;
#X connect 21 0 13 1;
#X connect 24 0 7 1;
#X connect 25 0 10 1;
#X connect 26 0 9 1;
#X connect 31 0 3 0;
#X connect 32 0 4 0;
