#N canvas 413 23 953 723 12;
#X declare -path else;
#X obj 791 8 declare -path else;
#X text 11 381 As for [hip~] \, a zero at 1 removes 0 Hz \, but we
have a decay curve from Nyquist until it reaches 0 Hz. With the pole
coefficient we can add gain to lower frequencies and compensate for
this loss \, so it acts like a frequency cutoff., f 51;
#X obj 481 144 zbiplot;
#N canvas 713 374 432 372 coefficients 0;
#X obj 52 120 clip 0 1;
#X obj 52 82 hz2rad;
#X obj 52 156 expr 1 - $f1 \; $f1;
#X obj 52 199 pack f 0 f 0 0;
#X obj 172 120 clip 0 1;
#X obj 172 82 hz2rad;
#X obj 172 199 pack f 0 1 -1 0;
#X obj 172 156 expr 1 - $f1;
#X obj 172 316 outlet;
#X obj 52 44 r \$0-lop;
#X obj 172 44 r \$0-hip;
#X msg 304 246 \$3;
#X obj 304 274 s \$0-gain;
#X obj 302 82 hz2rad;
#X obj 302 199 pack f 0 f f 0;
#X obj 302 156 expr 1 - $f1 \; $f1/2;
#X obj 302 120 clip 0 2;
#X obj 302 44 r \$0-lop2;
#X connect 0 0 2 0;
#X connect 1 0 0 0;
#X connect 2 0 3 0;
#X connect 2 1 3 2;
#X connect 3 0 8 0;
#X connect 3 0 11 0;
#X connect 4 0 7 0;
#X connect 5 0 4 0;
#X connect 6 0 8 0;
#X connect 6 0 11 0;
#X connect 7 0 6 0;
#X connect 9 0 1 0;
#X connect 10 0 5 0;
#X connect 11 0 12 0;
#X connect 13 0 16 0;
#X connect 14 0 11 0;
#X connect 14 0 8 0;
#X connect 15 0 14 0;
#X connect 15 1 14 2;
#X connect 15 1 14 3;
#X connect 16 0 15 0;
#X connect 17 0 13 0;
#X restore 481 10 pd coefficients;
#X obj 481 92 insert coeff;
#N canvas 713 437 447 301 coefficients 0;
#X obj 52 120 clip 0 1;
#X obj 52 82 hz2rad;
#X obj 52 156 expr 1 - $f1 \; $f1;
#X obj 52 199 pack f 0 f 0 0;
#X obj 172 120 clip 0 1;
#X obj 172 82 hz2rad;
#X obj 172 199 pack f 0 1 -1 0;
#X obj 172 156 expr 1 - $f1;
#X obj 172 246 outlet;
#X obj 52 44 r \$0-lop;
#X obj 172 44 r \$0-hip;
#X obj 302 82 hz2rad;
#X obj 302 199 pack f 0 f f 0;
#X obj 302 156 expr 1 - $f1 \; $f1/2;
#X obj 302 120 clip 0 2;
#X obj 302 44 r \$0-lop2;
#X connect 0 0 2 0;
#X connect 1 0 0 0;
#X connect 2 0 3 0;
#X connect 2 1 3 2;
#X connect 3 0 8 0;
#X connect 4 0 7 0;
#X connect 5 0 4 0;
#X connect 6 0 8 0;
#X connect 7 0 6 0;
#X connect 9 0 1 0;
#X connect 10 0 5 0;
#X connect 11 0 14 0;
#X connect 12 0 8 0;
#X connect 13 0 12 0;
#X connect 13 1 12 2;
#X connect 13 1 12 3;
#X connect 14 0 13 0;
#X connect 15 0 11 0;
#X restore 33 561 pd coefficients;
#X obj 33 595 biplot;
#X obj 612 15 noise~;
#X obj 612 79 out~;
#X obj 612 47 biquad~;
#X obj 761 42 hsl 128 15 20 7050 0 0 \$0-lop xxx empty -2 -8 0 10 #dcdcdc
#000000 #000000 0 1;
#X text 786 41 [lop~] Hz;
#X obj 758 113 nbx 7 15 -1e+37 1e+37 0 0 empty empty empty 0 -8 0 11
#dcdcdc #000000 #000000 0 256;
#X text 11 9 The "Z-plane" also refers to the "Z Transform" and is
a complex plane with a real (horizontal) and imaginary (vertical) axis.
It plots Poles (with an "X") and Zeros (with "O") whose location represets
the frequency and the coefficcient's amplitude., f 64;
#X obj 772 66 hsl 128 15 20 7050 0 0 \$0-hip xxx empty -2 -8 0 10 #dcdcdc
#000000 #000000 0 1;
#X text 797 65 [hip~] Hz;
#X text 11 154 You can interpret it with a "Polar" diagram \, where
the amplitude represents the Pole/Zero coefficient and the angle represent
the frequency. As we know \, a Pole is a resonance that boosts a frequency
and a Zero is an anti resonance that attenuates (or zeros) a frequency.
In this example \, the value of the pole goes from 0 to 1 for both
[lop~] and [hip~] \, while the zero has a value of "1" for [hip~].
Since the frequency of the pole or zero is defined by the angle \,
we can see that the angle is 0 and that means the frequency is also
0 hz! Note the Z Plane has a circle \, which is the unitary circle
\, with a radius/amplitude of "1"!, f 64;
#X obj 413 389 vsl 22 157 0 1.1 0 0 \$0-gain-send \$0-gain empty 0
-9 0 10 #404040 #fc0400 #000000 0 1;
#X obj 420 437 cnv 5 5 5 empty empty G 0 0 0 14 #404040 #fcfcfc 0;
#X obj 420 453 cnv 5 5 5 empty empty A 0 0 0 14 #404040 #fcfcfc 0;
#X obj 420 469 cnv 5 5 5 empty empty I 0 0 0 14 #404040 #fcfcfc 0;
#X obj 420 489 cnv 5 5 5 empty empty N 0 0 0 14 #404040 #fcfcfc 0;
#X text 11 300 So \, for [lop~] \, as the pole coefficient reaches
1 \, the lower frequencies get a boost \, which is compensated by the
gain parameter \, turning it into a low pass filter. Since the gain
is not plotted in the plane \, we have a slider just for that at the
bottom lft., f 64;
#X floatatom 413 552 5 0 0 0 - - - 0;
#X text 11 465 Change the sliders on the top right to set the frequency
that corresponds both the [lop~] or the [hip~] filter. The coefficients
are calculated as before and you can see the Z-Plane plot as well as
the frequency response below., f 51;
#X text 11 74 ELSE has [zbiplot] that plots a biquad system (2-Poles/2-Zeros)
into the Z-Plane. You can feed it the coordinates of Poles and Zeroes
or the biquad coefficients directly (we'll see more about the conversion
from and to Poles/Zeros later in this section). We're using it here
to plot [lop~] \, [hip~] and [lop2~]., f 64;
#X obj 785 88 hsl 128 15 20 15000 0 0 \$0-lop2 xxx empty -2 -8 0 10
#dcdcdc #000000 #000000 0 1;
#X text 810 87 [lop2~] Hz;
#X connect 3 0 4 0;
#X connect 3 0 9 0;
#X connect 4 0 2 0;
#X connect 5 0 6 0;
#X connect 7 0 9 0;
#X connect 9 0 8 0;
#X connect 10 0 12 0;
#X connect 14 0 12 0;
#X connect 17 0 23 0;
#X connect 26 0 12 0;
