#N canvas 654 55 560 668 10;
#X declare -lib cyclone -path cyclone;
#X obj 64 420 cyclone/comment 425 16 DejaVu\ Sans\ Mono empty 0 0 0
0 0 190 190 200 1 0 How to install?;
#X text 2 316 ===========================================================================================
, f 91;
#X obj 60 163 cyclone/comment 425 16 DejaVu\ Sans\ Mono empty 0 0 0
0 0 190 190 200 1 0 About Cyclone:;
#X text 2 400 ============================================================================================
, f 92;
#X obj 100 344 cyclone/comment 201 16 DejaVu\ Sans\ Mono empty 0 0
0 0 0 190 190 200 1 0 List with all of the Cyclone's objects =>;
#X text 72 502 Check declare's help file for more information.;
#X text 2 638 ===========================================================================================
, f 91;
#X text 62 193 - Cyclone's development starts in 2002 (at the time
of Max 4.0) and in its first development phase never reached full compliance
to the latest Max 4 release (4.6.3 from 2007). Since Cyclone 0.3 \,
the library was updated to include missing functionalities from Max
4 and further updates up to Max 7 (and it also included several new
objects and fixes)! New functionalities from Max 8 haven't been ported
yet., f 73;
#X text 62 266 - Check details in the CHANGELOG.txt file inside the
cyclone folder., f 73;
#X obj 372 294 cyclone;
#X text 63 293 - see also the help file of the cyclone binary =>;
#N canvas 905 393 530 230 links 0;
#X obj 95 157 pdcontrol;
#X msg 57 123 browse https://github.com/porres/pd-cyclone/issues;
#X obj 57 50 r \$0-issues;
#X obj 95 75 r \$0-install;
#X msg 95 99 browse https://github.com/porres/pd-cyclone/wiki/How-To-Install
, f 63;
#X connect 1 0 0 0;
#X connect 2 0 1 0;
#X connect 3 0 4 0;
#X connect 4 0 0 0;
#X restore 57 601 pd links;
#X obj 441 608 bng 15 250 50 0 \$0-issues dummy empty 17 7 0 10 #dcdcdc
#000000 #000000;
#X obj 318 541 bng 15 250 50 0 \$0-install dummy empty 17 7 0 10 #dcdcdc
#000000 #000000;
#X text 76 529 Click and open "how to install" link from the repository
for more details =>, f 39;
#X text 191 597 Click and open "issues" link from the repository to
report bugs/issues ======>, f 40;
#X text 2 570 ===========================================================================================
, f 91;
#X obj 315 368 cyclone/All_objects;
#X obj 15 598 cyclone/comment 425 16 DejaVu\ Sans\ Mono empty 0 0 0
0 0 190 190 200 1 0 Bugs / Issues?;
#X text 343 429 Alternatively \, you can use [declare] as follows:
, f 25;
#X text 73 459 You can load the cyclone library via Preferences =>
"Path" & "Startup"., f 36;
#X obj 329 469 declare -lib cyclone -path cyclone;
#X obj 2 3 cnv 15 552 60 empty empty empty 6 13 0 18 #7c7c7c #e0e4dc
0;
#X obj 26 8 cyclone/comment 425 22 DejaVu\ Sans\ Mono empty 0 224 228
220 0 255 255 255 0 0 cyclone;
#X obj 134 11 cyclone/comment 425 14 DejaVu\ Sans\ Mono empty 0 224
228 220 0 255 255 255 0 0 - a set of Pure Data objects cloned from
Max/MSP;
#X obj 269 38 cyclone/comment 425 12 DejaVu\ Sans\ Mono empty 0 224
228 220 0 255 255 255 0 0 https://github.com/porres/pd-cyclone;
#X obj 2 64 cnv 15 552 90 empty empty empty 20 12 0 14 #e0e0e0 #404040
0;
#X obj 28 87 cyclone/comment 260 17 helvetica empty 0 0 0 0 0 255 255
255 0 0 Cyclone expands Pure Data with objects cloned from Max/MSP.
;
#X obj 314 86 cyclone/comment 201 14 helvetica empty 0 0 0 0 0 255
255 255 0 0 It also provides some level of compatibility between the
two environments.;
#X obj 26 36 cyclone/comment 141 14 DejaVu\ Sans\ Mono empty 0 224
228 220 0 255 255 255 0 0 version: 0.6-2;
