#N canvas 459 163 489 353 10;
#X obj 51 101 tgl 42 0 \$0-tgl-s \$0-tgl-r empty 1 8 1 9 #dcdcdc #7c7c7c #fcfcfc 0 1;
#N canvas 121 446 450 300 (subpatch) 0;
#X obj 101 101 cnv 25 40 25 empty \$0-cnv DSP 3 13 0 20 #dcdcdc #7c7c7c 0;
#X coords 0 -1 1 1 42 27 1 100 100;
#X restore 51 144 pd;
#X obj 51 102 cnv 1 6 1 empty empty empty 20 12 0 14 #000000 #404040 0;
#X obj 51 169 cnv 1 6 1 empty empty empty 20 12 0 14 #000000 #404040 0;
#X obj 44 203 r \$0-tgl-s;
#X msg 44 235 \; pd dsp \$1;
#X msg 221 172 0;
#X msg 191 173 1;
#N canvas 313 129 304 335 set_color 0;
#X obj 47 30 inlet;
#X obj 76 176 s \$0-cnv;
#X obj 47 83 select 0 1;
#X obj 46 291 s \$0-tgl-r;
#X obj 70 57 r \$0-tgl-s;
#X msg 46 211 color #DCDCDC #7C7C7C 0;
#X msg 76 114 color #4A4F51 0 #CDE5C3;
#X obj 145 172 s \$0-tgl-r;
#X msg 97 139 color #4A4F51 #CDE5C3 0;
#X obj 88 262 s \$0-cnv;
#X msg 87 238 color #DCDCDC 0 #7C7C7C;
#X connect 0 0 2 0;
#X connect 2 0 5 0;
#X connect 2 1 6 0;
#X connect 4 0 2 0;
#X connect 5 0 3 0;
#X connect 5 0 10 0;
#X connect 6 0 1 0;
#X connect 6 0 8 0;
#X connect 8 0 7 0;
#X connect 10 0 9 0;
#X restore 202 233 pd set_color;
#X obj 191 282 s \$0-tgl-r;
#X msg 191 258 set \$1;
#X obj 191 206 change -1;
#X obj 221 134 r pd-dsp-stopped;
#X obj 220 106 r pd-dsp-started;
#X text 150 54 A helper abstraction to set DSP on and off \, based on ELSE's [setdsp~] object., f 43;
#X connect 4 0 5 0;
#X connect 6 0 11 0;
#X connect 7 0 11 0;
#X connect 10 0 9 0;
#X connect 11 0 8 0;
#X connect 11 0 10 0;
#X connect 12 0 6 0;
#X connect 13 0 7 0;
#X coords 0 -1 1 1 44 72 2 50 100;
