#N canvas 1171 109 690 350 12;
#X obj 56 23 inlet;
#X obj 345 305 outlet;
#X obj 56 49 list prepend \$1;
#X obj 56 104 s databuffer;
#X obj 343 173 r load;
#X obj 343 198 list trim;
#X obj 343 223 route \$1;
#X obj 344 249 list;
#X text 440 154 ON LOAD;
#X text 409 174 <- Host DAW sends data to patch;
#X text 184 50 <- incoming extradata are stored as lists into a plugdata temporary struct. Those data will be dumped to the DAW when the session will be saved, f 41;
#N canvas 1125 382 752 569 check_incorrect_tag_characters 0;
#X obj 93 21 loadbang;
#X obj 93 46 list append \$1;
#X obj 93 71 list fromsymbol;
#X text 239 18 The way extradata are stored in plugdata (XmlElement structure) doesn't allow some special characters in tag name., f 45;
#X obj 84 136 list length;
#X obj 84 161 until;
#X obj 165 163 list split 1;
#X obj 74 212 list append;
#X obj 236 236 moses 45;
#X obj 303 260 select 47;
#X obj 200 200 select 47;
#X obj 431 328 moses 65;
#X obj 379 290 moses 58;
#X obj 462 351 moses 91;
#X obj 553 398 moses 97;
#X obj 610 427 moses 123;
#X obj 200 394 t b;
#X text 299 69 :!"#$%&'()*+\\\,\\\ /\\\; <=>?@[]^`|~;
#X obj 107 521 outlet;
#X obj 107 419 f 1;
#X msg 200 419 0;
#X obj 401 135 list split 1;
#X obj 93 96 t b l l b l b;
#X msg 130 357 1;
#X obj 408 240 t b;
#X obj 107 470 t f f;
#X obj 283 436 select 0;
#X obj 283 506 print daw_storage error;
#X obj 403 168 select 45 46 47 48 49 50 51 52 53 54 55 56 57;
#X text 275 105 moreover \, tag name cannot begin with "-" \, "." \, or a numeric digit., f 67;
#X obj 283 459 list append \$1;
#X msg 283 481 Tag name "\$1" uses some forbidden characters - will be bypassed;
#X obj 549 359 select 95;
#X text 448 373 A--Z;
#X text 590 445 a--z;
#X text 343 307 0--9;
#X connect 0 0 1 0;
#X connect 1 0 2 0;
#X connect 2 0 22 0;
#X connect 4 0 5 0;
#X connect 5 0 7 0;
#X connect 6 0 10 0;
#X connect 6 1 7 1;
#X connect 7 0 6 0;
#X connect 8 0 16 0;
#X connect 8 1 9 0;
#X connect 9 0 16 0;
#X connect 9 1 12 0;
#X connect 10 0 16 0;
#X connect 10 1 8 0;
#X connect 11 0 16 0;
#X connect 11 1 13 0;
#X connect 12 1 11 0;
#X connect 13 1 32 0;
#X connect 14 0 16 0;
#X connect 14 1 15 0;
#X connect 15 1 16 0;
#X connect 16 0 20 0;
#X connect 19 0 25 0;
#X connect 20 0 19 1;
#X connect 21 0 28 0;
#X connect 22 0 19 0;
#X connect 22 1 4 0;
#X connect 22 2 6 0;
#X connect 22 3 7 1;
#X connect 22 4 21 0;
#X connect 22 5 23 0;
#X connect 23 0 19 1;
#X connect 24 0 20 0;
#X connect 25 0 18 0;
#X connect 25 1 26 0;
#X connect 26 0 30 0;
#X connect 28 0 24 0;
#X connect 28 1 24 0;
#X connect 28 2 24 0;
#X connect 28 3 24 0;
#X connect 28 4 24 0;
#X connect 28 5 24 0;
#X connect 28 6 24 0;
#X connect 28 7 24 0;
#X connect 28 8 24 0;
#X connect 28 9 24 0;
#X connect 28 10 24 0;
#X connect 28 11 24 0;
#X connect 28 12 24 0;
#X connect 30 0 31 0;
#X connect 31 0 27 0;
#X connect 32 1 14 0;
#X restore 186 10 pd check_incorrect_tag_characters;
#X obj 344 277 t l l;
#X obj 56 77 spigot;
#X connect 0 0 2 0;
#X connect 2 0 13 0;
#X connect 4 0 5 0;
#X connect 5 0 6 0;
#X connect 6 0 7 0;
#X connect 7 0 12 0;
#X connect 11 0 13 1;
#X connect 12 0 1 0;
#X connect 12 1 2 0;
#X connect 13 0 3 0;
