#N canvas 536 141 844 548 12;
#X obj 109 199 outlet;
#X obj 125 49 inlet;
#X obj 298 303 inlet;
#X obj 109 136 r \$1;
#X text 319 273 Receive param changing state from pd and send to DAW;
#X obj 164 199 s \$1-gui-r;
#X obj 35 96 r \$1-gui-s;
#X obj 373 124 r gui;
#X obj 373 154 route mouse;
#X obj 373 231 s \$0-param-change;
#X obj 164 389 r \$0-param-change;
#X text 366 34 If the first argument is 1 \, automatically send DAW parameter state changes when GUI objects are interacted with, f 45;
#X obj 35 160 t f f;
#X text 116 253 Prevent feedback;
#X obj 109 162 t f f f;
#X obj 56 199 -;
#X obj 56 228 abs;
#X obj 211 651 list prepend \$1;
#X obj 211 686 s __param;
#X obj 298 585 list prepend change;
#X obj 35 322 list prepend float;
#X msg 84 431 1;
#X obj 82 473 change;
#X obj 164 431 spigot;
#X obj 82 389 spigot \$2;
#X obj 35 353 t a b, f 9;
#X obj 125 84 route float, f 16;
#X obj 373 189 spigot \$2;
#X obj 56 254 >= 0.001;
#X obj 35 289 spigot;
#X connect 1 0 26 0;
#X connect 2 0 19 0;
#X connect 3 0 14 0;
#X connect 6 0 12 0;
#X connect 7 0 8 0;
#X connect 8 0 27 0;
#X connect 10 0 23 0;
#X connect 12 0 29 0;
#X connect 12 1 15 0;
#X connect 14 0 0 0;
#X connect 14 1 5 0;
#X connect 14 2 15 1;
#X connect 15 0 16 0;
#X connect 16 0 28 0;
#X connect 17 0 18 0;
#X connect 19 0 17 0;
#X connect 20 0 25 0;
#X connect 21 0 22 0;
#X connect 22 0 23 1;
#X connect 22 0 19 0;
#X connect 23 0 22 0;
#X connect 24 0 21 0;
#X connect 25 0 17 0;
#X connect 25 1 24 0;
#X connect 26 0 12 0;
#X connect 26 1 17 0;
#X connect 27 0 9 0;
#X connect 28 0 29 1;
#X connect 29 0 20 0;
