#N canvas 536 141 844 548 12;
#X obj 193 401 outlet;
#X obj 52 76 inlet;
#X obj 494 180 inlet;
#X obj 193 338 r \$1;
#X text 177 22 Receive value from pd and send to DAW;
#X text 177 302 Receive value from DAW and send to pd, f 35;
#X text 494 138 Receive param changing state from pd and send to DAW;
#X obj 248 401 s \$1-gui-r;
#X obj 289 76 r \$1-gui-s;
#X obj 538 364 loadmess \$2;
#X obj 538 457 gate;
#X obj 578 390 r gui;
#X obj 578 420 route mouse;
#X obj 538 492 s \$0-param-change;
#X obj 548 180 r \$0-param-change;
#X text 482 295 If the first argument is 1 \, automatically send DAW parameter state changes when GUI objects are interacted with, f 45;
#X obj 165 194 router;
#X obj 289 120 t f f;
#X text 354 166 Prevent feedback;
#X obj 193 364 t f f f;
#X obj 300 147 -;
#X obj 300 176 abs;
#X obj 300 202 < 0.001;
#X obj 52 303 list prepend \$1;
#X obj 52 341 s __param;
#X obj 494 217 list prepend change;
#X obj 165 234 list prepend float;
#X obj 21 120 routeall create destroy range default mode;
#X connect 1 0 27 0;
#X connect 2 0 25 0;
#X connect 3 0 19 0;
#X connect 8 0 17 0;
#X connect 9 0 10 0;
#X connect 10 0 13 0;
#X connect 11 0 12 0;
#X connect 12 0 10 1;
#X connect 14 0 25 0;
#X connect 16 0 26 0;
#X connect 17 0 16 0;
#X connect 17 1 20 0;
#X connect 19 0 0 0;
#X connect 19 1 7 0;
#X connect 19 2 20 1;
#X connect 20 0 21 0;
#X connect 21 0 22 0;
#X connect 22 0 16 1;
#X connect 23 0 24 0;
#X connect 25 0 23 0;
#X connect 26 0 23 0;
#X connect 27 0 23 0;
#X connect 27 1 23 0;
#X connect 27 2 23 0;
#X connect 27 3 23 0;
#X connect 27 4 23 0;
#X connect 27 5 17 0;
