#N canvas 812 108 384 676 10;
#X declare -path ./abs;
#N canvas 659 33 1011 996 gui 1;
#X obj 11 11 cnv 19 383 675 empty empty LIRA•8 308 195 0 20 #f8a4c4 #000000 0;
#X obj 38 458 vsl 19 128 0 127 0 0 \$0-s-tune-1 \$0-r-tune-1 TUNE -5 -9 0 14 #fcfcfc #000000 #000000 0 1;
#X obj 41 413 hsl 54 19 0 127 0 0 \$0-s-sharp-12 \$0-r-sharp-12 SHARP 5 -7 0 14 #000000 #fcfcfc #000000 0 1;
#X obj 41 373 hsl 54 19 0 127 0 0 \$0-s-mod-12 \$0-r-mod-12 MOD 14 -7 0 14 #000000 #fcfcfc #000000 0 1;
#X obj 78 458 vsl 19 128 0 127 0 0 \$0-s-tune-2 \$0-r-tune-2 TUNE -5 -9 0 14 #fcfcfc #000000 #000000 0 1;
#X obj 59 604 tgl 17 0 \$0-s-fast-12 \$0-r-fast-12 FAST -5 -7 0 12 #fcfcfc #000000 #000000 0 1;
#X obj 33 626 cnv 19 29 50 empty empty empty 20 12 0 14 #000000 #404040 0;
#X obj 38 650 tgl 19 0 \$0-s-sensor-1 \$0-r-sensor-1 1 5 -10 0 14 #fcfcfc #000000 #fcfcfc 0 1;
#X obj 73 626 cnv 19 29 50 empty empty empty 20 12 0 14 #000000 #404040 0;
#X obj 78 650 tgl 19 0 \$0-s-sensor-2 \$0-r-sensor-2 2 5 -10 0 14 #fcfcfc #000000 #fcfcfc 0 1;
#X obj 123 626 cnv 19 29 50 empty empty empty 20 12 0 14 #000000 #404040 0;
#X obj 128 650 tgl 19 0 \$0-s-sensor-3 \$0-r-sensor-3 3 5 -10 0 14 #fcfcfc #000000 #fcfcfc 0 1;
#X obj 163 626 cnv 19 29 50 empty empty empty 20 12 0 14 #000000 #404040 0;
#X obj 168 650 tgl 19 0 \$0-s-sensor-4 \$0-r-sensor-4 4 5 -10 0 14 #fcfcfc #000000 #fcfcfc 0 1;
#X obj 213 626 cnv 19 29 50 empty empty empty 20 12 0 14 #000000 #404040 0;
#X obj 218 650 tgl 19 0 \$0-s-sensor-5 \$0-r-sensor-5 5 5 -10 0 14 #fcfcfc #000000 #fcfcfc 0 1;
#X obj 253 626 cnv 19 29 50 empty empty empty 20 12 0 14 #000000 #404040 0;
#X obj 258 650 tgl 19 0 \$0-s-sensor-6 \$0-r-sensor-6 6 5 -10 0 14 #fcfcfc #000000 #fcfcfc 0 1;
#X obj 303 626 cnv 19 29 50 empty empty empty 20 12 0 14 #000000 #404040 0;
#X obj 308 650 tgl 19 0 \$0-s-sensor-7 \$0-r-sensor-7 7 5 -10 0 14 #fcfcfc #000000 #fcfcfc 0 1;
#X obj 343 626 cnv 19 29 50 empty empty empty 20 12 0 14 #000000 #404040 0;
#X obj 348 650 tgl 19 0 \$0-s-sensor-8 \$0-r-sensor-8 8 5 -10 0 14 #fcfcfc #000000 #fcfcfc 0 1;
#X obj 39 289 hsl 128 19 0 127 0 0 \$0-s-pitch-1234 \$0-r-pitch-1234 PITCH 40 -7 0 14 #000000 #fcfcfc #000000 0 1;
#X obj 239 289 hsl 128 19 0 127 0 0 \$0-s-pitch-5678 \$0-r-pitch-5678 PITCH 40 -7 0 14 #000000 #fcfcfc #000000 0 1;
#X obj 39 333 hradio 19 1 0 3 \$0-s-source-12 \$0-r-source-12 34 20 -7 0 14 #fcfcfc #000000 #000000 0;
#X obj 128 458 vsl 19 128 0 127 0 0 \$0-s-tune-3 \$0-r-tune-3 TUNE -5 -9 0 14 #fcfcfc #000000 #000000 0 1;
#X obj 168 458 vsl 19 128 0 127 0 0 \$0-s-tune-4 \$0-r-tune-4 TUNE -5 -10 0 14 #fcfcfc #000000 #000000 0 1;
#X obj 218 458 vsl 19 128 0 127 0 0 \$0-s-tune-5 \$0-r-tune-5 TUNE -5 -10 0 14 #fcfcfc #000000 #000000 0 1;
#X obj 258 458 vsl 19 128 0 127 0 0 \$0-s-tune-6 \$0-r-tune-6 TUNE -5 -10 0 14 #fcfcfc #000000 #000000 0 1;
#X obj 308 458 vsl 19 128 0 127 0 0 \$0-s-tune-7 \$0-r-tune-7 TUNE -5 -10 0 14 #fcfcfc #000000 #000000 0 1;
#X obj 348 458 vsl 19 128 0 127 0 0 \$0-s-tune-8 \$0-r-tune-8 TUNE -5 -10 0 14 #fcfcfc #000000 #000000 0 1;
#X obj 131 413 hsl 54 19 0 127 0 0 \$0-s-sharp-34 \$0-r-sharp-34 SHARP 5 -7 0 14 #000000 #fcfcfc #000000 0 1;
#X obj 221 413 hsl 54 19 0 127 0 0 \$0-s-sharp-56 \$0-r-sharp-56 SHARP 5 -7 0 14 #000000 #fcfcfc #000000 0 1;
#X obj 311 413 hsl 54 19 0 127 0 0 \$0-s-sharp-78 \$0-r-sharp-78 SHARP 5 -7 0 14 #000000 #fcfcfc #000000 0 1;
#X obj 131 373 hsl 54 19 0 127 0 0 \$0-s-mod-34 \$0-r-mod-34 MOD 14 -7 0 14 #000000 #fcfcfc #000000 0 1;
#X obj 221 373 hsl 54 19 0 127 0 0 \$0-s-mod-56 \$0-r-mod-56 MOD 14 -7 0 14 #000000 #fcfcfc #000000 0 1;
#X obj 311 373 hsl 54 19 0 127 0 0 \$0-s-mod-78 \$0-r-mod-78 MOD 14 -7 0 14 #000000 #fcfcfc #000000 0 1;
#X obj 149 604 tgl 17 0 \$0-s-fast-34 \$0-r-fast-34 FAST -5 -7 0 12 #fcfcfc #000000 #000000 0 1;
#X obj 239 604 tgl 17 0 \$0-s-fast-56 \$0-r-fast-56 FAST -5 -7 0 12 #fcfcfc #000000 #000000 0 1;
#X obj 329 604 tgl 17 0 \$0-s-fast-78 \$0-r-fast-78 FAST -5 -7 0 12 #fcfcfc #000000 #000000 0 1;
#X obj 111 425 cnv 3 4 200 empty empty empty 20 12 0 14 #000000 #404040 0;
#X obj 201 385 cnv 3 4 240 empty empty empty 20 12 0 14 #000000 #404040 0;
#X obj 381 385 cnv 3 4 240 empty empty empty 20 12 0 14 #000000 #404040 0;
#X obj 21 385 cnv 3 4 240 empty empty empty 20 12 0 14 #000000 #404040 0;
#X obj 98 421 cnv 3 29 4 empty empty empty 20 12 0 14 #000000 #404040 0;
#X obj 188 381 cnv 3 29 4 empty empty empty 20 12 0 14 #000000 #404040 0;
#X obj 278 421 cnv 3 29 4 empty empty empty 20 12 0 14 #000000 #404040 0;
#X obj 21 381 cnv 3 16 4 empty empty empty 20 12 0 14 #000000 #404040 0;
#X obj 368 381 cnv 3 16 4 empty empty empty 20 12 0 14 #000000 #404040 0;
#X obj 103 626 cnv 3 19 4 empty empty empty 20 12 0 14 #000000 #404040 0;
#X obj 283 626 cnv 3 19 4 empty empty empty 20 12 0 14 #000000 #404040 0;
#X obj 193 626 cnv 3 19 4 empty empty empty 20 12 0 14 #000000 #404040 0;
#X obj 21 626 cnv 3 11 4 empty empty empty 20 12 0 14 #000000 #404040 0;
#X obj 291 425 cnv 3 4 200 empty empty empty 20 12 0 14 #000000 #404040 0;
#X obj 373 626 cnv 3 11 4 empty empty empty 20 12 0 14 #000000 #404040 0;
#X obj 239 246 hsl 128 19 0 127 0 0 \$0-s-hold-5678 \$0-r-hold-5678 HOLD 45 -7 0 14 #000000 #fcfcfc #000000 0 1;
#X obj 194 265 tgl 17 0 \$0-s-switch \$0-r-switch SWITCH -13 -7 0 12 #fcfcfc #000000 #000000 0 1;
#X obj 164 220 tgl 17 0 \$0-s-total-fb \$0-r-total-fb TOTAL-FB -20 -7 0 12 #fcfcfc #000000 #000000 0 1;
#X obj 234 219 tgl 17 0 \$0-s-vibrato \$0-r-vibrato VIBRATO -15 -7 0 12 #fcfcfc #000000 #000000 0 1;
#X msg 409 753 8;
#X obj 409 774 until;
#X obj 409 795 i;
#X obj 439 795 + 1;
#X obj 409 837 t f f;
#X obj 409 910 list prepend;
#X obj 478 863 + 1;
#X obj 409 858 + 1;
#X obj 409 816 % 8;
#X obj 11 172 cnv 19 95 20 empty empty HYPER-LFO 5 11 0 14 #000000 #fcfcfc 0;
#X obj 299 172 cnv 19 95 20 empty empty DISTORTION 10 11 0 14 #000000 #fcfcfc 0;
#X obj 155 172 cnv 19 95 20 empty empty MOD-DELAY 12 11 0 14 #000000 #fcfcfc 0;
#X obj 111 11 cnv 3 4 160 empty empty empty 20 12 0 14 #000000 #404040 0;
#X obj 291 11 cnv 3 4 160 empty empty empty 20 12 0 14 #000000 #404040 0;
#X obj 11 172 cnv 3 383 4 empty empty empty 20 12 0 14 #000000 #404040 0;
#X obj 129 333 hradio 19 1 0 3 \$0-s-source-34 \$0-r-source-34 OFF 17 -7 0 14 #fcfcfc #000000 #000000 0;
#X obj 219 333 hradio 19 1 0 3 \$0-s-source-56 \$0-r-source-56 LFO-CV 4 -7 0 14 #fcfcfc #000000 #000000 0;
#X obj 309 333 hradio 19 1 0 3 \$0-s-source-78 \$0-r-source-78 56 20 -7 0 14 #fcfcfc #000000 #000000 0;
#X obj 39 246 hsl 128 19 0 127 0 0 \$0-s-hold-1234 \$0-r-hold-1234 HOLD 45 -7 0 14 #000000 #fcfcfc #000000 0 1;
#X obj 409 931 route 1 2 3 4 5 6 7 8;
#X msg 409 889 receive $\\\$0-tune-\\\$1;
#X obj 120 147 hradio 19 1 0 2 \$0-s-lfo-wav \$0-r-lfo-wav SQR 0 -8 0 14 #000000 #fcfcfc #000000 0;
#X obj 120 111 hradio 19 1 0 3 \$0-s-del-mod \$0-r-del-mod LFO 0 -7 0 14 #000000 #fcfcfc #000000 0;
#X obj 188 73 hsl 95 19 0 127 0 0 \$0-s-time-2 \$0-r-time-2 TIME-2 23 -7 0 14 #000000 #fcfcfc #000000 0 1;
#X obj 123 73 hsl 54 19 0 127 0 0 \$0-s-mod-2 \$0-r-mod-2 MOD-2 6 -7 0 14 #000000 #fcfcfc #000000 0 1;
#X obj 188 37 hsl 95 19 0 127 0 0 \$0-s-time-1 \$0-r-time-1 TIME-1 23 -8 0 14 #000000 #fcfcfc #000000 0 1;
#X obj 123 37 hsl 54 19 0 127 0 0 \$0-s-mod-1 \$0-r-mod-1 MOD-1 6 -7 0 14 #000000 #fcfcfc #000000 0 1;
#X obj 365 35 vsl 19 128 0 127 0 0 \$0-s-vol \$0-r-vol VOL -2 -9 0 14 #000000 #fcfcfc #000000 0 1;
#X obj 335 35 vsl 19 128 0 127 0 0 \$0-s-dst-mix \$0-r-dst-mix MIX -2 -9 0 14 #000000 #fcfcfc #000000 0 1;
#X obj 305 35 vsl 19 128 0 127 0 0 \$0-s-drv \$0-r-drv DRV -2 -9 0 14 #000000 #fcfcfc #000000 0 1;
#X obj 49 34 vsl 19 128 0 127 0 0 \$0-s-f-b \$0-r-f-b F-B -2 -9 0 14 #000000 #fcfcfc #000000 0 1;
#X obj 19 34 vsl 19 128 0 127 0 0 \$0-s-f-a \$0-r-f-a F-A -2 -9 0 14 #000000 #dcdcdc #000000 0 1;
#X obj 79 32 vradio 19 1 0 2 \$0-s-andor \$0-r-andor AND -2 -7 0 14 #000000 #fcfcfc #000000 0;
#X obj 79 81 bng 19 50 10 0 empty \$0-r-led empty 17 7 0 10 #000000 #00fc04 #000000;
#X obj 321 213 cnv 15 15 15 empty empty ORGANISMIC 0 8 0 12 #f8a4c4 #000000 0;
#X obj 323 225 cnv 15 15 15 empty empty SYNTHESIZER 0 8 0 10 #f8a4c4 #000000 0;
#X obj 66 393 cnv 4 4 4 empty empty empty 20 12 0 14 #000000 #404040 0;
#N canvas 191 498 1414 497 gui.link 1;
#X obj 394 178 gui.link \$0 1 tune-1;
#X obj 394 218 gui.link \$0 3 tune-3;
#X obj 394 238 gui.link \$0 4 tune-4;
#X obj 394 268 gui.link \$0 5 tune-5;
#X obj 394 288 gui.link \$0 6 tune-6;
#X obj 394 308 gui.link \$0 7 tune-7;
#X obj 394 328 gui.link \$0 8 tune-8;
#X obj 394 198 gui.link \$0 2 tune-2;
#X obj 524 178 gui.link \$0 9 fast-12;
#X obj 524 198 gui.link \$0 10 fast-34;
#X obj 524 218 gui.link \$0 11 fast-56;
#X obj 524 238 gui.link \$0 12 fast-78;
#X obj 524 268 gui.link \$0 13 sharp-12;
#X obj 524 288 gui.link \$0 14 sharp-34;
#X obj 524 308 gui.link \$0 15 sharp-56;
#X obj 524 328 gui.link \$0 16 sharp-78;
#X obj 674 178 gui.link \$0 17 mod-12;
#X obj 674 198 gui.link \$0 18 mod-34;
#X obj 674 218 gui.link \$0 19 mod-56;
#X obj 674 238 gui.link \$0 20 mod-78;
#X obj 674 268 gui.link \$0 21 source-12;
#X obj 674 289 gui.link \$0 22 source-34;
#X obj 674 308 gui.link \$0 23 source-56;
#X obj 674 328 gui.link \$0 24 source-78;
#X obj 208 326 text define \$0-parameters;
#X obj 58 258 r \$0-write;
#X obj 208 207 t b b;
#X obj 208 249 s \$0-loadbang-1;
#X obj 235 228 s \$0-loadbang-0;
#X msg 208 300 read ./parameters.txt;
#X msg 58 300 write ./parameters.txt;
#X obj 208 279 r \$0-loadbang-0;
#X obj 208 186 loadbang;
#X obj 834 178 gui.link \$0 25 pitch-1234;
#X obj 834 198 gui.link \$0 26 pitch-5678;
#X obj 834 228 gui.link \$0 27 hold-1234;
#X obj 834 248 gui.link \$0 28 hold-5678;
#X obj 834 298 gui.link \$0 30 total-fb;
#X obj 834 278 gui.link \$0 29 switch;
#X obj 834 318 gui.link \$0 31 vibrato;
#X obj 1004 178 gui.link \$0 32 drv;
#X obj 1004 218 gui.link \$0 34 vol;
#X obj 1004 198 gui.link \$0 33 dst-mix;
#X obj 1004 248 gui.link \$0 35 f-a;
#X obj 1004 268 gui.link \$0 36 f-b;
#X obj 1004 288 gui.link \$0 37 andor;
#X obj 1004 308 gui.link \$0 38 link;
#X obj 1154 178 gui.link \$0 39 time-1;
#X obj 1154 198 gui.link \$0 40 time-2;
#X obj 1154 218 gui.link \$0 41 feedback;
#X obj 1154 238 gui.link \$0 42 del-mix;
#X obj 1154 268 gui.link \$0 43 mod-1;
#X obj 1154 288 gui.link \$0 44 mod-2;
#X obj 1154 308 gui.link \$0 45 del-mod;
#X obj 1154 328 gui.link \$0 46 lfo-wav;
#X obj 58 279 del 500;
#X obj 1154 348 gui.link \$0 46 quantize;
#X connect 25 0 55 0 empty;
#X connect 26 0 27 0 empty;
#X connect 26 1 28 0 empty;
#X connect 29 0 24 0 empty;
#X connect 30 0 24 0 empty;
#X connect 31 0 29 0 empty;
#X connect 32 0 26 0 empty;
#X connect 55 0 30 0 empty;
#X restore 29 750 pd gui.link;
#X obj 98 381 cnv 3 10 4 empty empty empty 20 12 0 14 #000000 #404040 0;
#X obj 117 381 cnv 3 10 4 empty empty empty 20 12 0 14 #000000 #404040 0;
#X obj 97 341 cnv 3 11 4 empty empty empty 20 12 0 14 #000000 #404040 0;
#X obj 117 341 cnv 3 11 4 empty empty empty 20 12 0 14 #000000 #404040 0;
#X obj 105 345 cnv 3 4 35 empty empty empty 20 12 0 14 #000000 #404040 0;
#X obj 117 345 cnv 3 4 35 empty empty empty 20 12 0 14 #000000 #404040 0;
#X obj 278 381 cnv 3 10 4 empty empty empty 20 12 0 14 #000000 #404040 0;
#X obj 297 381 cnv 3 10 4 empty empty empty 20 12 0 14 #000000 #404040 0;
#X obj 277 341 cnv 3 11 4 empty empty empty 20 12 0 14 #000000 #404040 0;
#X obj 297 341 cnv 3 11 4 empty empty empty 20 12 0 14 #000000 #404040 0;
#X obj 285 345 cnv 3 4 35 empty empty empty 20 12 0 14 #000000 #404040 0;
#X obj 297 345 cnv 3 4 35 empty empty empty 20 12 0 14 #000000 #404040 0;
#X text 179 282 34 > 56;
#X text 179 292 78 > 12;
#X obj 79 131 tgl 19 0 \$0-s-link \$0-r-link LINK -4 -8 0 14 #000000 #fcfcfc #000000 0 1;
#X obj 52 393 cnv 4 4 4 empty empty empty 20 12 0 14 #000000 #404040 0;
#X obj 79 393 cnv 4 4 4 empty empty empty 20 12 0 14 #000000 #404040 0;
#X obj 39 393 cnv 4 4 4 empty empty empty 20 12 0 14 #000000 #404040 0;
#X obj 92 393 cnv 4 4 4 empty empty empty 20 12 0 14 #000000 #404040 0;
#X obj 156 393 cnv 4 4 4 empty empty empty 20 12 0 14 #000000 #404040 0;
#X obj 142 393 cnv 4 4 4 empty empty empty 20 12 0 14 #000000 #404040 0;
#X obj 169 393 cnv 4 4 4 empty empty empty 20 12 0 14 #000000 #404040 0;
#X obj 129 393 cnv 4 4 4 empty empty empty 20 12 0 14 #000000 #404040 0;
#X obj 182 393 cnv 4 4 4 empty empty empty 20 12 0 14 #000000 #404040 0;
#X obj 246 393 cnv 4 4 4 empty empty empty 20 12 0 14 #000000 #404040 0;
#X obj 232 393 cnv 4 4 4 empty empty empty 20 12 0 14 #000000 #404040 0;
#X obj 259 393 cnv 4 4 4 empty empty empty 20 12 0 14 #000000 #404040 0;
#X obj 219 393 cnv 4 4 4 empty empty empty 20 12 0 14 #000000 #404040 0;
#X obj 272 393 cnv 4 4 4 empty empty empty 20 12 0 14 #000000 #404040 0;
#X obj 336 393 cnv 4 4 4 empty empty empty 20 12 0 14 #000000 #404040 0;
#X obj 322 393 cnv 4 4 4 empty empty empty 20 12 0 14 #000000 #404040 0;
#X obj 349 393 cnv 4 4 4 empty empty empty 20 12 0 14 #000000 #404040 0;
#X obj 309 393 cnv 4 4 4 empty empty empty 20 12 0 14 #000000 #404040 0;
#X obj 362 393 cnv 4 4 4 empty empty empty 20 12 0 14 #000000 #404040 0;
#X obj 66 433 cnv 4 4 4 empty empty empty 20 12 0 14 #000000 #404040 0;
#X obj 52 433 cnv 4 4 4 empty empty empty 20 12 0 14 #000000 #404040 0;
#X obj 79 433 cnv 4 4 4 empty empty empty 20 12 0 14 #000000 #404040 0;
#X obj 39 433 cnv 4 4 4 empty empty empty 20 12 0 14 #000000 #404040 0;
#X obj 92 433 cnv 4 4 4 empty empty empty 20 12 0 14 #000000 #404040 0;
#X obj 156 433 cnv 4 4 4 empty empty empty 20 12 0 14 #000000 #404040 0;
#X obj 142 433 cnv 4 4 4 empty empty empty 20 12 0 14 #000000 #404040 0;
#X obj 169 433 cnv 4 4 4 empty empty empty 20 12 0 14 #000000 #404040 0;
#X obj 129 433 cnv 4 4 4 empty empty empty 20 12 0 14 #000000 #404040 0;
#X obj 182 433 cnv 4 4 4 empty empty empty 20 12 0 14 #000000 #404040 0;
#X obj 246 433 cnv 4 4 4 empty empty empty 20 12 0 14 #000000 #404040 0;
#X obj 232 433 cnv 4 4 4 empty empty empty 20 12 0 14 #000000 #404040 0;
#X obj 259 433 cnv 4 4 4 empty empty empty 20 12 0 14 #000000 #404040 0;
#X obj 219 433 cnv 4 4 4 empty empty empty 20 12 0 14 #000000 #404040 0;
#X obj 272 433 cnv 4 4 4 empty empty empty 20 12 0 14 #000000 #404040 0;
#X obj 336 433 cnv 4 4 4 empty empty empty 20 12 0 14 #000000 #404040 0;
#X obj 322 433 cnv 4 4 4 empty empty empty 20 12 0 14 #000000 #404040 0;
#X obj 349 433 cnv 4 4 4 empty empty empty 20 12 0 14 #000000 #404040 0;
#X obj 309 433 cnv 4 4 4 empty empty empty 20 12 0 14 #000000 #404040 0;
#X obj 362 433 cnv 4 4 4 empty empty empty 20 12 0 14 #000000 #404040 0;
#X obj 269 309 cnv 4 4 4 empty empty empty 20 12 0 14 #000000 #404040 0;
#X obj 301 309 cnv 4 4 4 empty empty empty 20 12 0 14 #000000 #404040 0;
#X obj 332 309 cnv 4 4 4 empty empty empty 20 12 0 14 #000000 #404040 0;
#X obj 364 309 cnv 4 4 4 empty empty empty 20 12 0 14 #000000 #404040 0;
#X obj 237 309 cnv 4 4 4 empty empty empty 20 12 0 14 #000000 #404040 0;
#X obj 69 309 cnv 4 4 4 empty empty empty 20 12 0 14 #000000 #404040 0;
#X obj 101 309 cnv 4 4 4 empty empty empty 20 12 0 14 #000000 #404040 0;
#X obj 132 309 cnv 4 4 4 empty empty empty 20 12 0 14 #000000 #404040 0;
#X obj 164 309 cnv 4 4 4 empty empty empty 20 12 0 14 #000000 #404040 0;
#X obj 37 309 cnv 4 4 4 empty empty empty 20 12 0 14 #000000 #404040 0;
#X obj 269 266 cnv 4 4 4 empty empty empty 20 12 0 14 #000000 #404040 0;
#X obj 301 266 cnv 4 4 4 empty empty empty 20 12 0 14 #000000 #404040 0;
#X obj 332 266 cnv 4 4 4 empty empty empty 20 12 0 14 #000000 #404040 0;
#X obj 364 266 cnv 4 4 4 empty empty empty 20 12 0 14 #000000 #404040 0;
#X obj 237 266 cnv 4 4 4 empty empty empty 20 12 0 14 #000000 #404040 0;
#X obj 69 266 cnv 4 4 4 empty empty empty 20 12 0 14 #000000 #404040 0;
#X obj 101 266 cnv 4 4 4 empty empty empty 20 12 0 14 #000000 #404040 0;
#X obj 132 266 cnv 4 4 4 empty empty empty 20 12 0 14 #000000 #404040 0;
#X obj 164 266 cnv 4 4 4 empty empty empty 20 12 0 14 #000000 #404040 0;
#X obj 37 266 cnv 4 4 4 empty empty empty 20 12 0 14 #000000 #404040 0;
#X obj 167 131 cnv 3 4 24 empty empty empty 20 12 0 14 #000000 #404040 0;
#X obj 159 155 cnv 3 11 4 empty empty empty 20 12 0 14 #000000 #404040 0;
#X obj 188 147 hsl 95 19 0 127 0 0 \$0-s-del-mix \$0-r-del-mix MIX 35 -7 0 14 #000000 #fcfcfc #000000 0 1;
#X obj 188 111 hsl 95 19 0 127 0 0 \$0-s-feedback \$0-r-feedback FEEDBACK 16 -7 0 14 #000000 #fcfcfc #000000 0 1;
#X obj 29 796 text define -k \$0-tune;
#A set -16 93 \; -16 93 \; 7 109 \; 9 107 \; 20 116.54 \; 20 116.54 \; 33 126.24 \; 33 131.22 \;;
#X obj 29 826 loadbang;
#X obj 29 847 t b b;
#X obj 29 889 realtime;
#X obj 29 910 * 1000;
#X obj 29 931 i;
#X obj 29 952 s \$0-seed;
#X obj 74 868 del 200;
#X obj 405 511 lira.voice \$0 1 2;
#N canvas 916 300 372 653 master_output 1;
#X obj 275 467 r \$0-s-vol;
#X obj 275 488 / 127;
#X obj 275 572 line~;
#X obj 67 588 *~;
#X obj 12 176 inlet~;
#X obj 112 11 r \$0-s-drv;
#X obj 275 509 pow 2;
#X obj 67 609 outlet~;
#X obj 112 32 / 127;
#X obj 112 116 pow;
#X obj 112 158 + 100;
#X obj 112 179 dbtorms;
#X msg 112 200 \$1 23.22;
#X msg 275 551 \$1 23.22;
#X obj 112 221 line~;
#X obj 97 242 *~;
#X obj 207 380 r \$0-s-dst-mix;
#X obj 207 401 / 127;
#X msg 207 422 \$1 23.22;
#X obj 207 443 line~;
#X obj 82 469 *~;
#X obj 27 438 sig~ 1;
#X obj 27 459 -~;
#X obj 12 480 *~;
#X obj 67 506 +~;
#X obj 97 368 hip~ 10;
#X obj 112 74 + 1;
#X obj 97 347 +~;
#X obj 112 326 /~ 4;
#X obj 97 263 hip~ 20;
#X obj 31 384 *~ 0.1;
#X obj 82 415 +~;
#X obj 67 527 ma.tanh~;
#X obj 87 569 s~ \$0-total-feedback;
#X msg 112 94 3 \$1;
#X obj 112 53 * 2;
#X obj 112 137 + 3;
#X obj 275 530 * 1;
#X obj 153 352 sig~ 1;
#X obj 153 373 /~;
#X obj 97 389 *~;
#X obj 168 331 clip~ 1 4;
#X obj 87 548 hip~ 3;
#X obj 97 284 drive~;
#X obj 112 305 power~ 31;
#X connect 0 0 1 0 empty;
#X connect 1 0 6 0 empty;
#X connect 2 0 3 1 empty;
#X connect 3 0 7 0 empty;
#X connect 4 0 23 0 empty;
#X connect 4 0 15 0 empty;
#X connect 4 0 30 0 empty;
#X connect 5 0 8 0 empty;
#X connect 6 0 37 0 empty;
#X connect 8 0 35 0 empty;
#X connect 9 0 36 0 empty;
#X connect 10 0 11 0 empty;
#X connect 11 0 12 0 empty;
#X connect 12 0 14 0 empty;
#X connect 13 0 2 0 empty;
#X connect 14 0 15 1 empty;
#X connect 14 0 41 0 empty;
#X connect 15 0 29 0 empty;
#X connect 16 0 17 0 empty;
#X connect 17 0 18 0 empty;
#X connect 18 0 19 0 empty;
#X connect 19 0 20 1 empty;
#X connect 19 0 22 1 empty;
#X connect 20 0 24 1 empty;
#X connect 21 0 22 0 empty;
#X connect 22 0 23 1 empty;
#X connect 23 0 24 0 empty;
#X connect 24 0 32 0 empty;
#X connect 25 0 40 0 empty;
#X connect 26 0 34 0 empty;
#X connect 27 0 25 0 empty;
#X connect 28 0 27 1 empty;
#X connect 29 0 43 0 empty;
#X connect 30 0 31 0 empty;
#X connect 31 0 20 0 empty;
#X connect 32 0 3 0 empty;
#X connect 32 0 42 0 empty;
#X connect 34 0 9 0 empty;
#X connect 35 0 26 0 empty;
#X connect 36 0 10 0 empty;
#X connect 37 0 13 0 empty;
#X connect 38 0 39 0 empty;
#X connect 39 0 40 1 empty;
#X connect 40 0 31 1 empty;
#X connect 41 0 39 1 empty;
#X connect 42 0 33 0 empty;
#X connect 43 0 27 0 empty;
#X connect 43 0 44 0 empty;
#X connect 44 0 28 0 empty;
#X restore 405 661 pd master_output;
#X obj 435 563 lira.voice \$0 3 4;
#X obj 595 511 lira.voice \$0 5 6;
#X obj 625 563 lira.voice \$0 7 8;
#X obj 405 407 prm.source \$0 1 2 3 4 7 8;
#X obj 415 537 prm.source \$0 3 4 1 2 1 2;
#X obj 595 407 prm.source \$0 5 6 7 8 3 4;
#X obj 605 537 prm.source \$0 7 8 5 6 5 6;
#N canvas 789 216 438 510 hyper-lfo 1;
#X obj 12 179 phasor~;
#X obj 292 418 phasor~;
#X obj 197 339 *~;
#X obj 197 402 *~;
#X obj 212 381 r \$0-s-link;
#N canvas 357 408 320 351 triangle-lfo 0;
#X obj 12 211 /~ 2;
#X obj 12 12 inlet~;
#X obj 179 38 inlet~;
#X obj 179 108 *~ 4;
#X obj 179 129 -~ 1;
#X obj 12 33 -~ 0.5;
#X obj 12 54 abs~;
#X obj 12 75 *~ 4;
#X obj 12 96 -~ 1;
#X obj 179 59 -~ 0.5;
#X obj 179 80 abs~;
#X obj 12 232 s~ \$0-del-tri;
#X connect 0 0 11 0 empty;
#X connect 1 0 5 0 empty;
#X connect 2 0 9 0 empty;
#X connect 3 0 4 0 empty;
#X connect 4 0 0 0 empty;
#X connect 5 0 6 0 empty;
#X connect 6 0 7 0 empty;
#X connect 7 0 8 0 empty;
#X connect 8 0 0 0 empty;
#X connect 9 0 10 0 empty;
#X connect 10 0 3 0 empty;
#X restore 12 474 pd triangle-lfo;
#N canvas 14 312 663 346 square-lfo 0;
#X obj 179 74 *~ 1000;
#X obj 179 95 clip~ -1 1;
#X obj 12 111 *~;
#X obj 12 174 *~;
#X obj 27 132 r \$0-s-andor;
#X obj 27 153 == 0;
#X obj 179 179 *~;
#X obj 194 158 r \$0-s-andor;
#X obj 211 211 snapshot~;
#X obj 179 127 /~ 2;
#X obj 211 274 s \$0-r-led;
#X obj 12 195 +~;
#X obj 12 12 inlet~;
#X obj 179 32 inlet~;
#X obj 280 143 s~ \$0-del-sqr 0;
#X obj 211 253 sel 1 -1;
#X obj 179 53 cos~;
#X obj 410 153 loadbang;
#X msg 410 174 1;
#X obj 410 195 metro 10;
#X obj 211 232 change -1;
#X obj 12 221 s~ \$0-sqr-lfo;
#X connect 0 0 1 0 empty;
#X connect 1 0 2 1 empty;
#X connect 1 0 9 0 empty;
#X connect 2 0 3 0 empty;
#X connect 3 0 11 0 empty;
#X connect 4 0 5 0 empty;
#X connect 5 0 3 1 empty;
#X connect 6 0 11 1 empty;
#X connect 7 0 6 1 empty;
#X connect 8 0 20 0 empty;
#X connect 9 0 6 0 empty;
#X connect 9 0 14 0 empty;
#X connect 11 0 8 0 empty;
#X connect 11 0 21 0 empty;
#X connect 12 0 2 0 empty;
#X connect 12 0 9 0 empty;
#X connect 13 0 16 0 empty;
#X connect 15 0 10 0 empty;
#X connect 15 1 10 0 empty;
#X connect 16 0 0 0 empty;
#X connect 17 0 18 0 empty;
#X connect 18 0 19 0 empty;
#X connect 19 0 8 0 empty;
#X connect 20 0 15 0 empty;
#X restore 72 434 pd square-lfo;
#X obj 72 226 *~ 1000;
#X obj 72 247 clip~ -1 1;
#X obj 12 12 r \$0-s-f-a;
#X obj 12 33 / 127;
#X obj 12 95 - 75;
#X obj 12 116 mtof;
#X obj 12 158 line~;
#X obj 292 198 / 127;
#X obj 292 260 - 75;
#X obj 292 281 mtof;
#X obj 292 323 line~;
#X obj 292 177 r \$0-s-f-b;
#X obj 292 219 pow 2;
#X obj 292 239 * 127;
#X obj 12 54 pow 2;
#X obj 12 74 * 127;
#X obj 197 360 /~ 2;
#X obj 72 205 cos~;
#X msg 12 137 \$1 23.22;
#X msg 292 302 \$1 23.22;
#X connect 0 0 5 0 empty;
#X connect 0 0 24 0 empty;
#X connect 1 0 5 1 empty;
#X connect 1 0 6 1 empty;
#X connect 2 0 23 0 empty;
#X connect 3 0 1 0 empty;
#X connect 4 0 3 1 empty;
#X connect 7 0 8 0 empty;
#X connect 8 0 2 0 empty;
#X connect 8 0 6 0 empty;
#X connect 9 0 10 0 empty;
#X connect 10 0 21 0 empty;
#X connect 11 0 12 0 empty;
#X connect 12 0 25 0 empty;
#X connect 13 0 0 0 empty;
#X connect 14 0 19 0 empty;
#X connect 15 0 16 0 empty;
#X connect 16 0 26 0 empty;
#X connect 17 0 2 1 empty;
#X connect 17 0 1 0 empty;
#X connect 18 0 14 0 empty;
#X connect 19 0 20 0 empty;
#X connect 20 0 15 0 empty;
#X connect 21 0 22 0 empty;
#X connect 22 0 11 0 empty;
#X connect 23 0 3 0 empty;
#X connect 24 0 7 0 empty;
#X connect 25 0 13 0 empty;
#X connect 26 0 17 0 empty;
#X restore 405 386 pd hyper-lfo;
#X obj 454 433 prm.pitch \$0 1 2 3 4;
#X obj 635 430 prm.pitch \$0 5 6 7 8;
#N canvas 383 285 1102 773 delay 1;
#X obj 12 492 inlet~;
#X obj 12 739 outlet~;
#X obj 177 105 / 127;
#X msg 177 147 2 \$1;
#X obj 177 168 pow;
#X obj 177 189 * 1.45125;
#X obj 177 231 line~;
#X msg 177 210 \$1 23.22;
#X obj 162 534 +~;
#X obj 177 85 r \$0-s-time-1;
#X obj 177 126 * 12;
#X obj 162 555 delwrite~ \$0-mod-delay-1 5944;
#X obj 177 273 vd~ \$0-mod-delay-1;
#X obj 192 336 loadbang;
#X obj 177 404 compressor~;
#X obj 192 378 unpack f f f f;
#X obj 202 425 loadbang;
#X obj 177 488 expander~;
#X obj 202 467 unpack f f;
#X obj 92 518 +~;
#X obj 107 476 noise~;
#X obj 290 330 r \$0-s-feedback;
#X obj 290 351 / 127;
#X obj 290 372 t f f;
#X obj 290 393 * 2;
#X msg 290 414 2 \$1;
#X obj 290 435 pow;
#X obj 290 456 *;
#X msg 290 477 \$1 23.22;
#X obj 290 498 line~;
#X obj 177 514 *~;
#X obj 177 294 hip~ 1;
#X obj 177 315 lop~ 4000;
#X obj 269 2 vd~ \$0-mod-delay-1;
#X obj 337 100 r \$0-s-lfo-wav;
#X obj 322 142 *~;
#X obj 337 121 == 0;
#X obj 387 141 r \$0-s-lfo-wav;
#X obj 372 162 *~;
#X obj 269 95 *~;
#X obj 322 199 *~;
#X obj 402 162 r \$0-s-del-mod;
#X obj 402 183 == 2;
#X obj 284 53 r \$0-s-del-mod;
#X obj 284 74 == 0;
#X obj 269 215 +~;
#X obj 269 236 *~;
#X obj 500 115 r \$0-s-mod-1;
#X obj 500 136 / 127;
#X obj 500 157 pow 2;
#X obj 500 178 * 10;
#X msg 500 199 \$1 23.22;
#X obj 500 220 line~;
#X obj 177 252 +~;
#X obj 794 115 / 127;
#X msg 794 157 2 \$1;
#X obj 794 178 pow;
#X obj 794 199 * 1.45125;
#X obj 794 241 line~;
#X msg 794 220 \$1 23.22;
#X obj 541 534 +~;
#X obj 794 136 * 12;
#X obj 586 341 loadbang;
#X obj 571 409 compressor~;
#X obj 586 383 unpack f f f f;
#X obj 596 430 loadbang;
#X obj 571 493 expander~;
#X obj 596 472 unpack f f;
#X obj 556 514 *~;
#X obj 571 299 hip~ 1;
#X obj 571 320 lop~ 4000;
#X obj 586 194 *~;
#X obj 601 152 r \$0-s-del-mod;
#X obj 601 173 == 0;
#X obj 571 215 +~;
#X obj 571 236 *~;
#X obj 708 136 / 127;
#X obj 708 157 pow 2;
#X obj 708 178 * 10;
#X msg 708 199 \$1 23.22;
#X obj 708 220 line~;
#X obj 571 257 +~;
#X obj 586 80 vd~ \$0-mod-delay-2;
#X obj 541 555 delwrite~ \$0-mod-delay-2 5944;
#X obj 571 278 vd~ \$0-mod-delay-2;
#X obj 708 115 r \$0-s-mod-2;
#X obj 794 95 r \$0-s-time-2;
#X obj 400 563 +~;
#X obj 27 655 sig~ 1;
#X obj 27 676 -~;
#X obj 12 697 *~;
#X obj 77 576 r \$0-s-del-mix;
#X obj 77 597 / 127;
#X msg 77 639 \$1 23.22;
#X obj 77 660 line~;
#X obj 385 676 *~;
#X obj 12 718 +~;
#X obj 586 101 /~ 2;
#X obj 269 23 /~ 2;
#X obj 586 122 lop~ 689;
#X obj 269 116 lop~ 689;
#X obj 400 584 /~ 2;
#X obj 322 79 r~ \$0-del-tri;
#X obj 372 120 r~ \$0-del-sqr;
#X obj 107 497 *~ 0.001;
#X msg 202 445 -60 5;
#X msg 596 450 -60 5;
#X obj 322 178 +~;
#X msg 192 357 2.5 2.5 -12 5;
#X msg 586 362 2.5 2.5 -12 5;
#X obj 438 568 sig~ 1;
#X obj 438 589 /~;
#X obj 400 605 *~;
#X obj 453 544 max~ 1.5;
#X obj 400 645 drive~;
#X connect 0 0 19 0 empty;
#X connect 0 0 90 0 empty;
#X connect 2 0 10 0 empty;
#X connect 3 0 4 0 empty;
#X connect 4 0 5 0 empty;
#X connect 5 0 7 0 empty;
#X connect 6 0 53 0 empty;
#X connect 7 0 6 0 empty;
#X connect 8 0 11 0 empty;
#X connect 9 0 2 0 empty;
#X connect 10 0 3 0 empty;
#X connect 12 0 31 0 empty;
#X connect 13 0 108 0 empty;
#X connect 14 0 17 0 empty;
#X connect 15 0 14 1 empty;
#X connect 15 1 14 2 empty;
#X connect 15 2 14 3 empty;
#X connect 15 3 14 4 empty;
#X connect 16 0 105 0 empty;
#X connect 17 0 30 0 empty;
#X connect 17 0 87 0 empty;
#X connect 18 0 17 1 empty;
#X connect 18 1 17 2 empty;
#X connect 19 0 8 0 empty;
#X connect 19 0 60 0 empty;
#X connect 20 0 104 0 empty;
#X connect 21 0 22 0 empty;
#X connect 22 0 23 0 empty;
#X connect 23 0 24 0 empty;
#X connect 23 1 27 1 empty;
#X connect 24 0 25 0 empty;
#X connect 25 0 26 0 empty;
#X connect 26 0 27 0 empty;
#X connect 27 0 28 0 empty;
#X connect 28 0 29 0 empty;
#X connect 29 0 30 1 empty;
#X connect 29 0 68 0 empty;
#X connect 29 0 113 0 empty;
#X connect 30 0 8 1 empty;
#X connect 31 0 32 0 empty;
#X connect 32 0 14 0 empty;
#X connect 33 0 98 0 empty;
#X connect 34 0 36 0 empty;
#X connect 35 0 107 0 empty;
#X connect 36 0 35 1 empty;
#X connect 37 0 38 1 empty;
#X connect 38 0 107 1 empty;
#X connect 39 0 100 0 empty;
#X connect 40 0 45 1 empty;
#X connect 40 0 74 0 empty;
#X connect 41 0 42 0 empty;
#X connect 42 0 40 1 empty;
#X connect 43 0 44 0 empty;
#X connect 44 0 39 1 empty;
#X connect 45 0 46 0 empty;
#X connect 46 0 53 1 empty;
#X connect 47 0 48 0 empty;
#X connect 48 0 49 0 empty;
#X connect 49 0 50 0 empty;
#X connect 50 0 51 0 empty;
#X connect 51 0 52 0 empty;
#X connect 52 0 46 1 empty;
#X connect 53 0 12 0 empty;
#X connect 54 0 61 0 empty;
#X connect 55 0 56 0 empty;
#X connect 56 0 57 0 empty;
#X connect 57 0 59 0 empty;
#X connect 58 0 81 1 empty;
#X connect 59 0 58 0 empty;
#X connect 60 0 83 0 empty;
#X connect 61 0 55 0 empty;
#X connect 62 0 109 0 empty;
#X connect 63 0 66 0 empty;
#X connect 64 0 63 1 empty;
#X connect 64 1 63 2 empty;
#X connect 64 2 63 3 empty;
#X connect 64 3 63 4 empty;
#X connect 65 0 106 0 empty;
#X connect 66 0 68 1 empty;
#X connect 66 0 87 1 empty;
#X connect 67 0 66 1 empty;
#X connect 67 1 66 2 empty;
#X connect 68 0 60 1 empty;
#X connect 69 0 70 0 empty;
#X connect 70 0 63 0 empty;
#X connect 71 0 74 1 empty;
#X connect 72 0 73 0 empty;
#X connect 73 0 71 1 empty;
#X connect 74 0 75 0 empty;
#X connect 75 0 81 0 empty;
#X connect 76 0 77 0 empty;
#X connect 77 0 78 0 empty;
#X connect 78 0 79 0 empty;
#X connect 79 0 80 0 empty;
#X connect 80 0 75 1 empty;
#X connect 81 0 84 0 empty;
#X connect 82 0 97 0 empty;
#X connect 84 0 69 0 empty;
#X connect 85 0 76 0 empty;
#X connect 86 0 54 0 empty;
#X connect 87 0 101 0 empty;
#X connect 88 0 89 0 empty;
#X connect 89 0 90 1 empty;
#X connect 90 0 96 0 empty;
#X connect 91 0 92 0 empty;
#X connect 92 0 93 0 empty;
#X connect 93 0 94 0 empty;
#X connect 94 0 95 0 empty;
#X connect 94 0 89 1 empty;
#X connect 95 0 96 1 empty;
#X connect 96 0 1 0 empty;
#X connect 97 0 99 0 empty;
#X connect 98 0 39 0 empty;
#X connect 99 0 71 0 empty;
#X connect 100 0 45 0 empty;
#X connect 101 0 112 0 empty;
#X connect 102 0 35 0 empty;
#X connect 103 0 38 0 empty;
#X connect 104 0 19 1 empty;
#X connect 105 0 18 0 empty;
#X connect 106 0 67 0 empty;
#X connect 107 0 40 0 empty;
#X connect 108 0 15 0 empty;
#X connect 109 0 64 0 empty;
#X connect 110 0 111 0 empty;
#X connect 111 0 112 1 empty;
#X connect 112 0 114 0 empty;
#X connect 113 0 111 1 empty;
#X connect 114 0 95 1 empty;
#X restore 405 640 pd delay;
#X obj 139 840 r \$0-s-dsp;
#X msg 139 861 dsp \$1;
#X obj 139 882 s pd;
#X obj 139 952 print -n;
#X obj 139 910 loadbang;
#X obj 209 840 loadbang;
#X msg 209 861 1;
#X obj 209 882 s \$0-r-dsp;
#N canvas 49 515 835 495 labels 1;
#X obj 12 38 r \$0-s-source-12;
#X obj 12 206 s \$0-r-source-12;
#X obj 12 59 text get \$0-source-12-label;
#X obj 12 12 text define -k \$0-source-12-label;
#A set 1 34 20 \; 2 OFF 17 \; 2 LFO-CV 4 \;;
#X msg 12 185 label \$1;
#X obj 12 164 makefilename %s;
#X obj 12 122 route 1 2;
#X obj 37 143 symbol;
#X msg 12 101 \$1 \$2;
#X obj 12 80 t a a;
#X obj 80 117 s \$0-r-source-12;
#X msg 232 185 label \$1;
#X obj 232 164 makefilename %s;
#X obj 232 122 route 1 2;
#X obj 257 143 symbol;
#X msg 232 101 \$1 \$2;
#X obj 232 80 t a a;
#X msg 12 415 label \$1;
#X obj 12 394 makefilename %s;
#X obj 12 352 route 1 2;
#X obj 37 373 symbol;
#X msg 12 331 \$1 \$2;
#X obj 12 310 t a a;
#X msg 232 415 label \$1;
#X obj 232 394 makefilename %s;
#X obj 232 352 route 1 2;
#X obj 257 373 symbol;
#X msg 232 331 \$1 \$2;
#X obj 232 310 t a a;
#X obj 232 206 s \$0-r-source-34;
#X obj 232 38 r \$0-s-source-34;
#X obj 12 436 s \$0-r-source-56;
#X obj 232 436 s \$0-r-source-78;
#X obj 232 268 r \$0-s-source-78;
#X obj 12 289 text get \$0-source-56-label;
#X obj 232 289 text get \$0-source-78-label;
#X obj 232 242 text define -k \$0-source-78-label;
#A set 1 56 20 \; 2 OFF 17 \; 2 LFO-CV 4 \;;
#X obj 12 242 text define -k \$0-source-56-label;
#A set 1 78 20 \; 2 OFF 17 \; 2 LFO-CV 4 \;;
#X obj 12 268 r \$0-s-source-56;
#X obj 232 12 text define -k \$0-source-34-label;
#A set 1 12 20 \; 2 OFF 17 \; 2 LFO-CV 4 \;;
#X obj 232 59 text get \$0-source-34-label;
#X obj 300 117 s \$0-r-source-34;
#X obj 80 347 s \$0-r-source-56;
#X obj 300 347 s \$0-r-source-78;
#X obj 462 80 t a a;
#X obj 462 12 text define -k \$0-andor-label;
#A set AND -2 \; OR 2 \;;
#X obj 462 59 text get \$0-andor-label;
#X obj 462 38 r \$0-s-andor;
#X obj 462 122 symbol;
#X obj 462 164 s \$0-r-andor;
#X msg 462 143 label \$1;
#X obj 530 117 s \$0-r-andor;
#X msg 462 101 \$1;
#X obj 652 101 symbol;
#X msg 652 122 label \$1;
#X msg 652 80 \$1;
#X obj 652 38 r \$0-s-del-mod;
#X obj 652 59 text get \$0-del-mod;
#X obj 652 12 text define -k \$0-del-mod;
#A set SELF \; OFF \; LFO \;;
#X obj 652 143 s \$0-r-del-mod;
#X obj 652 281 symbol;
#X msg 652 302 label \$1;
#X msg 652 260 \$1;
#X obj 652 239 text get \$0-lfo-wav;
#X obj 652 218 r \$0-s-lfo-wav;
#X obj 652 192 text define -k \$0-lfo-wav;
#A set TRI \; SQR \;;
#X obj 652 323 s \$0-r-lfo-wav;
#X msg 530 96 label_pos \$2 -7;
#X msg 80 326 label_pos \$3 -7;
#X msg 300 326 label_pos \$3 -7;
#X msg 300 96 label_pos \$3 -7;
#X msg 80 96 label_pos \$3 -7;
#X connect 0 0 2 0 empty;
#X connect 2 0 9 0 empty;
#X connect 4 0 1 0 empty;
#X connect 5 0 4 0 empty;
#X connect 6 0 5 0 empty;
#X connect 6 1 7 0 empty;
#X connect 7 0 4 0 empty;
#X connect 8 0 6 0 empty;
#X connect 9 0 8 0 empty;
#X connect 9 1 71 0 empty;
#X connect 11 0 29 0 empty;
#X connect 12 0 11 0 empty;
#X connect 13 0 12 0 empty;
#X connect 13 1 14 0 empty;
#X connect 14 0 11 0 empty;
#X connect 15 0 13 0 empty;
#X connect 16 0 15 0 empty;
#X connect 16 1 70 0 empty;
#X connect 17 0 31 0 empty;
#X connect 18 0 17 0 empty;
#X connect 19 0 18 0 empty;
#X connect 19 1 20 0 empty;
#X connect 20 0 17 0 empty;
#X connect 21 0 19 0 empty;
#X connect 22 0 21 0 empty;
#X connect 22 1 68 0 empty;
#X connect 23 0 32 0 empty;
#X connect 24 0 23 0 empty;
#X connect 25 0 24 0 empty;
#X connect 25 1 26 0 empty;
#X connect 26 0 23 0 empty;
#X connect 27 0 25 0 empty;
#X connect 28 0 27 0 empty;
#X connect 28 1 69 0 empty;
#X connect 30 0 40 0 empty;
#X connect 33 0 35 0 empty;
#X connect 34 0 22 0 empty;
#X connect 35 0 28 0 empty;
#X connect 38 0 34 0 empty;
#X connect 40 0 16 0 empty;
#X connect 44 0 52 0 empty;
#X connect 44 1 67 0 empty;
#X connect 46 0 44 0 empty;
#X connect 47 0 46 0 empty;
#X connect 48 0 50 0 empty;
#X connect 50 0 49 0 empty;
#X connect 52 0 48 0 empty;
#X connect 53 0 54 0 empty;
#X connect 54 0 59 0 empty;
#X connect 55 0 53 0 empty;
#X connect 56 0 57 0 empty;
#X connect 57 0 55 0 empty;
#X connect 60 0 61 0 empty;
#X connect 61 0 66 0 empty;
#X connect 62 0 60 0 empty;
#X connect 63 0 62 0 empty;
#X connect 64 0 63 0 empty;
#X connect 67 0 51 0 empty;
#X connect 68 0 42 0 empty;
#X connect 69 0 43 0 empty;
#X connect 70 0 41 0 empty;
#X connect 71 0 10 0 empty;
#X restore 29 770 pd labels;
#X obj 567 696 notein;
#X obj 567 717 pack f f;
#X obj 567 738 list prepend all;
#X obj 567 759 list trim;
#X obj 405 682 outlet~;
#X msg 139 931 LIRA-8 by Mike Moreno DSP 2020;
#N canvas 1027 619 248 280 prm.hold 1;
#X obj 12 96 line~;
#X obj 12 117 outlet~;
#X obj 12 12 r \$0-s-hold-1234;
#X msg 12 75 \$1 23.22;
#X obj 12 33 / 127;
#X obj 12 54 pow 2;
#X connect 0 0 1 0 empty;
#X connect 2 0 4 0 empty;
#X connect 3 0 0 0 empty;
#X connect 4 0 5 0 empty;
#X connect 5 0 3 0 empty;
#X restore 504 469 pd prm.hold;
#N canvas 1027 619 248 280 prm.hold 1;
#X obj 12 96 line~;
#X obj 12 117 outlet~;
#X obj 12 12 r \$0-s-hold-5678;
#X msg 12 75 \$1 23.22;
#X obj 12 33 / 127;
#X obj 12 54 pow 2;
#X connect 0 0 1 0 empty;
#X connect 2 0 4 0 empty;
#X connect 3 0 0 0 empty;
#X connect 4 0 5 0 empty;
#X connect 5 0 3 0 empty;
#X restore 694 469 pd prm.hold;
#X obj 567 781 clone -s 1 notemap 8 \$0;
#N canvas 0 22 450 278 (subpatch) 1;
#X text 0 0 plugdatainfo <?xml version="1.0" encoding="UTF-8"?> <plugdatainfo/>;
#X coords 0 1 100 -1 15 15 1 0 0;
#X restore 0 0 graph;
#X obj 34 220 tgl 17 0 \$0-s-quantize \$0-r-quantize QUANTIZE -18 -7 0 12 #fcfcfc #000000 #000000 0 1;
#X obj 405 620 *~ 0.166667;
#X obj 29 710 declare -path ./abs;
#X connect 59 0 60 0 empty;
#X connect 60 0 61 0 empty;
#X connect 61 0 67 0 empty;
#X connect 62 0 61 1 empty;
#X connect 63 0 66 0 empty;
#X connect 63 1 65 0 empty;
#X connect 64 0 78 0 empty;
#X connect 65 0 64 1 empty;
#X connect 66 0 79 0 empty;
#X connect 67 0 62 0 empty;
#X connect 67 0 63 0 empty;
#X connect 79 0 64 0 empty;
#X connect 176 0 177 0 empty;
#X connect 177 0 178 0 empty;
#X connect 177 1 182 0 empty;
#X connect 178 0 179 0 empty;
#X connect 179 0 180 0 empty;
#X connect 180 0 181 0 empty;
#X connect 182 0 178 1 empty;
#X connect 183 0 216 0 empty;
#X connect 184 0 209 0 empty;
#X connect 185 0 216 0 empty;
#X connect 186 0 216 0 empty;
#X connect 187 0 216 0 empty;
#X connect 188 0 183 0 empty;
#X connect 189 0 185 0 empty;
#X connect 190 0 186 0 empty;
#X connect 191 0 187 0 empty;
#X connect 193 0 185 1 empty;
#X connect 193 0 183 1 empty;
#X connect 194 0 187 1 empty;
#X connect 194 0 186 1 empty;
#X connect 195 0 184 0 empty;
#X connect 196 0 197 0 empty;
#X connect 197 0 198 0 empty;
#X connect 200 0 210 0 empty;
#X connect 201 0 202 0 empty;
#X connect 202 0 203 0 empty;
#X connect 205 0 206 0 empty;
#X connect 205 1 206 1 empty;
#X connect 206 0 207 0 empty;
#X connect 207 0 208 0 empty;
#X connect 208 0 213 0 empty;
#X connect 210 0 199 0 empty;
#X connect 211 0 183 2 empty;
#X connect 211 0 185 2 empty;
#X connect 212 0 186 2 empty;
#X connect 212 0 187 2 empty;
#X connect 216 0 195 0 empty;
#X coords 0 -1 1 1 385 677 2 10 10;
#X restore -1 -1 pd gui;
#X obj 398 22 tgl 19 0 \$0-s-dsp \$0-r-dsp DSP 0 -8 0 12 #fcfcfc #000000 #000000 0 1;
#X obj -1 701 dac~ 1 2;
#X text 197 681 LIRA-8 by Mike Moreno DSP 2020;
#X text 239 696 mikemorenodsp@gmail.com;
#X connect 0 0 2 0 empty;
#X connect 0 0 2 1 empty;
