#N canvas 512 50 731 564 12;
#X declare -path else;
#X obj 106 239 loadbang;
#X obj 549 353 hsl 128 15 -0.999 0.999 0 0 empty feedback empty -2
-6 0 8 #dcdcdc #000000 #000000 0 1;
#X text 580 352 feedback;
#X floatatom 546 375 0 0 0 0 - - - 0;
#X obj 308 466 out~;
#X obj 314 300 osc~ 0.1;
#X floatatom 314 266 5 0 0 0 - - - 0;
#X floatatom 461 346 5 0 1000 0 - - - 0;
#X floatatom 395 294 5 1 100 0 - - - 0;
#X obj 317 244 hsl 128 15 0.01 3 1 0 empty rate empty -2 -8 0 10 #dcdcdc
#000000 #000000 0 1;
#X text 279 267 rate;
#X obj 464 323 hsl 128 15 60 200 1 0 empty depth empty -2 -8 0 10 #dcdcdc
#000000 #000000 0 1;
#X obj 398 270 hsl 128 15 0 50 0 0 empty delay empty -2 -8 0 10 #dcdcdc
#000000 #000000 0 1;
#X obj 369 381 rescale~;
#X obj 546 398 f2s~ 10;
#X obj 395 318 f2s~ 10;
#X obj 461 369 f2s~ 10;
#X text 435 293 delay min.;
#X text 503 345 max;
#X text 105 211 presets:;
#X text 73 23 A vibrato with feedback delay instead of a feedforward
generates rather psychodelic results. Since the output is fed back
\, the vibrato adds up at each iteration and keep rising and falling
in pitch.;
#X text 73 88 The "depth" now has a minimum and maximum delay time
set with [rescale~]. Depending on the parameters \, you can also generate
chorus and flanger like effects. Experiment with all parameters and
check the presets below.;
#X msg 106 266 \; rate 0.2 \; depth 100 \; delay 20 \; feedback 0.85
;
#X msg 106 351 \; rate 0.1 \; depth 30 \; delay 10 \; feedback -0.75
;
#X msg 106 436 \; rate 0.05 \; depth 15 \; delay 5 \; feedback 0.91
;
#X obj 523 53 declare -path else;
#X obj 248 208 play.file~ guitar.wav 1 1;
#X obj 308 427 fbdelay~ -gain 200;
#X connect 0 0 22 0;
#X connect 1 0 3 0;
#X connect 3 0 14 0;
#X connect 5 0 13 0;
#X connect 6 0 5 0;
#X connect 7 0 16 0;
#X connect 8 0 15 0;
#X connect 9 0 6 0;
#X connect 11 0 7 0;
#X connect 12 0 8 0;
#X connect 13 0 27 1;
#X connect 14 0 27 2;
#X connect 15 0 13 1;
#X connect 16 0 13 2;
#X connect 26 0 27 0;
#X connect 27 0 4 0;
