#N canvas 362 23 960 587 12;
#X declare -path else;
#X obj 241 291 soundfiler;
#X obj 234 361 cnv 15 198 138 empty empty empty 20 12 0 14 #dcdcdc
#404040 0;
#N canvas 0 22 450 300 (subpatch) 0;
#X array wave 512 float 0;
#X coords 0 1 511 -1 200 140 1;
#X restore 233 360 graph;
#X obj 68 208 nbx 5 18 -1e+37 1e+37 0 0 empty empty empty 0 -8 0 14
#dcdcdc #000000 #000000 0 256;
#X text 146 208 Hz;
#X msg 241 266 read -resize \$1 wave;
#X obj 241 200 openpanel;
#X obj 241 171 bng 23 250 50 0 empty empty empty 17 7 0 10 #dcdcdc
#000000 #000000;
#X obj 68 281 out~;
#X text 33 112 It's relatively easy to find around waveforms as .wav
or .aif files to be used in Pd. to load them into an array \, we use
the native [soundfiler] object., f 68;
#N canvas 227 209 415 252 sequencer 0;
#X obj 172 91 mtof;
#X obj 144 170 *~;
#X obj 144 199 outlet~;
#X obj 162 30 tempo 240 -on;
#X obj 172 54 sequencer 42 40 40 45 40 49 52 52 45 43 43 47 50 54 55
55, f 29;
#X obj 39 131 wavetable~ wave;
#X obj 162 139 envgen~ 50 1 150 1 50 0;
#X connect 0 0 5 0;
#X connect 1 0 2 0;
#X connect 3 0 4 0;
#X connect 3 0 6 0;
#X connect 4 0 0 0;
#X connect 5 0 1 0;
#X connect 6 0 1 1;
#X restore 70 360 pd sequencer;
#X obj 70 397 out~;
#X floatatom 241 315 5 0 0 0 - - - 0;
#X text 271 171 Load another file;
#X text 33 63 The ELSE library provides [wavetable~] \, another wavetable
oscillator for Pd. In this example \, instead of generating a waveform
\, we load it from a sound file., f 68;
#X text 65 520 One difference from [wavetable~] to [tabosc4~] is that
it can load tables of any size \, so it doesn't have to be a power
of 2 plus 3 extra points.;
#X obj 68 240 wavetable~ wave 50;
#X obj 347 22 declare -path else;
#X obj 251 230 initmess symbol baglama.wav;
#X text 284 315 <-- number of samples;
#X obj 627 424 cnv 15 198 138 empty empty empty 20 12 0 14 #dcdcdc
#404040 0;
#N canvas 0 22 450 300 (subpatch) 0;
#X array wavetable 512 float 0;
#X coords 0 1 511 -1 200 140 1 0 0;
#X restore 626 423 graph;
#X obj 656 256 nbx 5 18 -1e+37 1e+37 0 0 empty empty empty 0 -8 0 14
#dcdcdc #000000 #000000 0 256;
#X text 623 255 Hz;
#X obj 656 326 out~;
#X obj 637 149 loadbang;
#X obj 637 214 tabgen wavetable;
#X obj 656 288 wavetable~ wavetable 50;
#X text 539 19 The ELSE library provides [tabgen] object \, which can
be used to generate wavetables \, envelopes and more. Check its help
file. Below we use it to generate a wave table for [wavetable~]. There
are advantages over the 'sinesum' command \, like being able to set
arbitrary and non integer partial ratios and initial phase. It can
also generate values for any table size., f 57;
#X msg 637 181 sin 1 0 1 2 0 0.5 3 0 -0.5;
#X connect 0 0 12 0;
#X connect 3 0 16 0;
#X connect 5 0 0 0;
#X connect 6 0 5 0;
#X connect 7 0 6 0;
#X connect 10 0 11 0;
#X connect 16 0 8 0;
#X connect 18 0 5 0;
#X connect 22 0 27 0;
#X connect 25 0 29 0;
#X connect 27 0 24 0;
#X connect 29 0 26 0;
