#N canvas 553 70 617 654 10;
#X obj 445 52 array define \$0-env 515;
#N canvas 0 22 450 300 gen_array 0;
#N canvas 0 22 450 300 counter 0;
#X obj 66 121 until;
#X obj 66 96 f 512;
#X obj 66 146 f 0, f 8;
#X obj 146 146 + 1;
#X obj 66 46 inlet;
#X obj 66 71 t b b, f 8;
#X obj 127 96 f 0;
#X obj 66 171 outlet;
#X connect 0 0 2 0;
#X connect 1 0 0 0;
#X connect 2 0 3 0;
#X connect 2 0 7 0;
#X connect 3 0 2 1;
#X connect 4 0 5 0;
#X connect 5 0 1 0;
#X connect 5 1 6 0;
#X connect 6 0 2 1;
#X restore 48 86 pd counter;
#X obj 48 190 array set \$0-env, f 28;
#X obj 48 111 t f f, f 14;
#X obj 130 158 + 1;
#N canvas 0 22 450 300 mapcos 0;
#X obj 79 81 * 6.28319;
#X obj 79 106 - 3.14159;
#X obj 79 159 + 1;
#X obj 79 182 * 0.5;
#X obj 79 134 cos;
#X obj 79 27 inlet;
#X obj 79 207 outlet;
#X connect 0 0 1 0;
#X connect 1 0 4 0;
#X connect 2 0 3 0;
#X connect 3 0 6 0;
#X connect 4 0 2 0;
#X connect 5 0 0 0;
#X restore 48 158 pd mapcos;
#X obj 48 133 / 512;
#X msg 48 62 512;
#X obj 48 36 loadbang;
#X connect 0 0 2 0;
#X connect 2 0 5 0;
#X connect 2 1 3 0;
#X connect 3 0 1 1;
#X connect 4 0 1 0;
#X connect 5 0 4 0;
#X connect 6 0 0 0;
#X connect 7 0 6 0;
#X restore 445 28 pd gen_array;
#X obj 36 282 *~ 512;
#X obj 36 304 +~ 1;
#X obj 149 229 +~ 0.5;
#X obj 149 251 wrap~;
#X obj 149 282 *~ 512;
#X obj 149 304 +~ 1;
#X obj 36 327 tabread4~ \$0-env;
#X obj 149 327 tabread4~ \$0-env;
#X obj 36 549 *~;
#X obj 149 549 *~;
#X text 444 10 Envelope generator;
#X obj 164 507 vd~ \$1;
#X obj 51 507 vd~ \$1;
#X obj 164 468 +~ 1.5;
#X obj 51 468 +~ 1.5;
#X text 206 467 Adds a small delay time offset.;
#X text 199 370 Multiplies the sawtooth by the window size to convert
it into a delay time., f 40;
#X text 193 233 Inverts the phase of the sawtooth., f 17;
#X text 192 287 Converts the sawtooth into buffer indices., f 27;
#X text 184 173 Generates the sawtooth that control the readings of
the envelope and the variations of the delay times., f 37;
#X text 252 320 Reads the envelope (one with inverted phase)., f 23
;
#X obj 102 180 phasor~;
#X text 16 3 Double Read Head For Backward Variable Delay;
#X text 177 542 Applies the windowing to avoid the click when the delay
time jumps from the window size to zero.;
#X text 209 506 Reads backward the delay buffer.;
#X text 199 400 The delay time increases from zero to the window size.
, f 40;
#X text 198 121 Doubles the frequency thus when the write head moves
forward of one sample \, the delay time decreases of two samples and
the read head moves backward of one sample.;
#X obj 89 602 outlet~ backward signal;
#X obj 171 66 max~ 0.02;
#X obj 171 44 inlet~ window size;
#X obj 102 146 *~ 2;
#X obj 102 67 sig~ 1000;
#X obj 102 89 /~, f 12;
#X text 235 65 Converts the window size to a frequency., f 14;
#X obj 164 401 *~;
#X obj 51 401 *~;
#X connect 2 0 3 0;
#X connect 3 0 8 0;
#X connect 4 0 5 0;
#X connect 5 0 6 0;
#X connect 5 0 36 0;
#X connect 6 0 7 0;
#X connect 7 0 9 0;
#X connect 8 0 10 0;
#X connect 9 0 11 0;
#X connect 10 0 29 0;
#X connect 11 0 29 0;
#X connect 13 0 11 1;
#X connect 14 0 10 1;
#X connect 15 0 13 0;
#X connect 16 0 14 0;
#X connect 23 0 2 0;
#X connect 23 0 4 0;
#X connect 23 0 37 0;
#X connect 30 0 34 1;
#X connect 30 0 36 1;
#X connect 30 0 37 1;
#X connect 31 0 30 0;
#X connect 32 0 23 0;
#X connect 33 0 34 0;
#X connect 34 0 32 0;
#X connect 36 0 15 0;
#X connect 37 0 16 0;
