#N canvas 596 60 508 391 12;
#X declare -path else;
#X obj 120 251 osc~ 5000;
#X text 164 302 Imaginary;
#X text 82 298 Real;
#N canvas 68 204 850 541 plot 0;
#X text 116 357 Amplitude;
#X obj 562 221 tgl 15 0 empty empty empty 0 -6 0 10 -262144 -1 -1 1
1;
#X obj 562 242 metro 205;
#X obj 63 291 tabwrite~ \$0-Re;
#X obj 385 291 tabwrite~ \$0-Im;
#X obj 185 484 tabwrite~ \$0-Amplitude;
#X obj 185 335 car2pol~;
#X text 250 360 Phase;
#X obj 562 268 s \$0-bang;
#X obj 402 235 r \$0-bang;
#X obj 253 410 r \$0-bang;
#X obj 238 455 tabwrite~ \$0-Phase;
#X obj 186 47 inlet~;
#X obj 385 56 inlet~;
#X text 393 89 Imaginary;
#X text 199 86 Real;
#X obj 185 146 expr~ if($v1 < 0.01 \, 0 \, $v1) \; if($v2 < 0.01 \,
0 \, $v2);
#X obj 562 125 initmess bang \; \$0-Re xticks 0 32 1 \; \$0-Im xticks
0 32 1 \; \$0-Phase xticks 0 32 1 \; \$0-Amplitude xticks 0 32 1 \;
pd dsp 1;
#X connect 1 0 2 0;
#X connect 2 0 8 0;
#X connect 6 0 5 0;
#X connect 6 1 11 0;
#X connect 9 0 4 0;
#X connect 9 0 3 0;
#X connect 10 0 5 0;
#X connect 10 0 11 0;
#X connect 12 0 16 0;
#X connect 13 0 16 1;
#X connect 16 0 3 0;
#X connect 16 0 6 0;
#X connect 16 1 4 0;
#X connect 16 1 6 1;
#X connect 17 0 1 0;
#X restore 114 328 pd plot;
#N canvas 778 101 662 630 graphs 0;
#X obj 10 6 cnv 15 630 610 empty empty empty 20 12 0 14 -33289 -66577
0;
#X obj 25 15 cnv 15 600 280 empty empty Cartesian 20 12 0 14 -262130
-4160 0;
#N canvas 0 22 450 300 (subpatch) 0;
#X array \$0-Re 64 float 0;
#X coords 0 128 63 -128 256 200 1;
#X restore 57 67 graph;
#N canvas 0 22 450 300 (subpatch) 0;
#X array \$0-Im 64 float 0;
#X coords 0 128 63 -128 256 200 1;
#X restore 333 66 graph;
#X obj 58 68 cnv 15 254 198 empty empty empty 20 12 0 14 -236717 -66577
0;
#X text 268 264 Nyquist;
#X text 55 263 0;
#X text 544 265 Nyquist;
#X text 331 264 0;
#X obj 334 67 cnv 15 254 198 empty empty empty 20 12 0 14 -257521 -66577
0;
#X text 42 155 0;
#X text 320 157 0;
#X obj 25 328 cnv 15 600 280 empty empty Polar 20 12 0 14 -262130 -4160
0;
#N canvas 0 22 450 300 (subpatch) 0;
#X array \$0-Amplitude 64 float 0;
#X coords 0 128 63 0 256 200 1;
#X restore 56 372 graph;
#X obj 57 373 cnv 15 254 198 empty empty empty 20 12 0 14 -204786 -66577
0;
#N canvas 0 22 450 300 (subpatch) 0;
#X array \$0-Phase 64 float 0;
#X coords 0 -3.14 63 3.14 256 200 1 0 0;
#X restore 333 373 graph;
#X obj 334 374 cnv 15 254 198 empty empty empty 20 12 0 14 -203904
-66577 0;
#X text 544 572 Nyquist;
#X text 331 571 0;
#X text 267 572 Nyquist;
#X text 54 571 0;
#X text 320 463 0;
#X text 162 41 Cosine;
#X text 445 43 Sine;
#X restore 313 313 pd graphs;
#X text 304 287 Click/open:;
#X obj 302 252 block~ 128;
#X obj 120 282 rfft~;
#X text 53 158 One big difference is that [rfft~] outputs frequency
points only up to the nyquist frequency. This has the advantage of
being more CPU efficient. Check the graphs below., f 57;
#X obj 307 33 declare -path else;
#X text 52 78 The [rfft~] is better suited for most cases \, as [fft~]
is actually for complex signals \, whereas [rfft~] is for real signals.
Thus \, [fft~] has two inlets (for the real and imaginary part) \,
but [rfft~] has only one. We'll see more about complex FFT and signals
later.;
#X connect 0 0 7 0;
#X connect 7 0 3 0;
#X connect 7 1 3 1;
